<?xml version="1.0" standalone="no"?>
<!DOCTYPE svg PUBLIC "-//W3C//DTD SVG 1.1//EN" "http://www.w3.org/Graphics/SVG/1.1/DTD/svg11.dtd" >
<svg xmlns="http://www.w3.org/2000/svg" xmlns:xlink="http://www.w3.org/1999/xlink" version="1.1">
<metadata>
Created by FontForge 20170731 at Wed Feb 19 12:05:35 2014
 By ,,,
Copyright (c) 2013 by Jonathan Hill. All rights reserved.
</metadata>
<defs>
<font id="Modum-ExtraBold" horiz-adv-x="620" vert-adv-y="1000" >
  <font-face 
    font-family="Modum ExtraBold"
    font-weight="800"
    font-stretch="normal"
    units-per-em="1000"
    panose-1="0 0 9 0 0 0 0 0 0 0"
    ascent="750"
    descent="-250"
    x-height="499"
    cap-height="700"
    bbox="-45 -242 1552 1160"
    underline-thickness="50"
    underline-position="-200"
    unicode-range="U+0020-FE6B"
  />
<missing-glyph horiz-adv-x="500" 
d="M0 0v700h500v-700h-500zM250 395l170 255h-340zM280 350l170 -255v510zM80 50h340l-170 255zM50 605v-510l170 255z" />
    <glyph glyph-name="fi" unicode="fi" horiz-adv-x="796" 
d="M292 749q93 0 166 -47l-32 -84q-63 32 -114 31q-35 0 -56.5 -19t-21.5 -56v-74h432q9 0 9 -9v-388q0 -15 16 -17l65 -5v-81h-292v73q0 8 8 9l54 4q15 2 15 17v293q0 7 -4.5 11.5t-11.5 5.5l-131 7l-160 -9v-308q0 -16 16 -17l58 -5v-81h-264v73q0 8 8 9l33 2q15 2 15 17
v311l-56 3q-8 0 -8 8v77h64v84q0 81 55 123t137 42z" />
    <glyph glyph-name="fl" unicode="fl" horiz-adv-x="789" 
d="M386 735l280 15q9 0 9 -9v-638q0 -15 16 -17l65 -5v-81h-291v73q0 8 8 9l53 4q15 2 15 17v537q0 7 -4.5 12t-11.5 5l-99 2l-16 -33q-57 24 -98 23q-35 0 -56.5 -19t-21.5 -56v-74h131v-82l-131 -7v-308q0 -16 16 -17l58 -5v-81h-264v73q0 8 8 9l33 2q15 2 15 17v311
l-56 3q-8 0 -8 8v77h64v84q0 81 55 123t137 42q47 0 94 -14z" />
    <glyph glyph-name="f_f" unicode="ff" horiz-adv-x="832" 
d="M707 749q94 0 167 -47l-32 -84q-64 32 -114 31q-35 0 -56.5 -19t-21.5 -56v-74h131v-82l-131 -7v-308q0 -16 15 -17l59 -5v-81h-264v73q0 8 8 9l33 2q15 2 15 17v311l-137 7l-145 -8v-308q0 -16 16 -17l58 -5v-81h-264v73q0 8 8 9l33 2q15 2 15 17v311l-56 3q-8 0 -8 8
v77h64v84q0 81 55 123t137 42q93 0 166 -47l-32 -84q-63 32 -114 31q-22 0 -39.5 -8t-28 -25t-10.5 -42v-74h282v84q0 81 55 123t136 42z" />
    <glyph glyph-name="f_f_i" unicode="ffi" horiz-adv-x="1212" 
d="M707 749q94 0 167 -47l-32 -84q-64 32 -114 31q-35 0 -56.5 -19t-21.5 -56v-74h432q9 0 9 -9v-388q0 -15 15 -17l66 -5v-81h-292v73q0 8 8 9l54 4q15 2 15 17v293q0 7 -4.5 11.5t-11.5 5.5l-131 7l-160 -9v-308q0 -16 15 -17l59 -5v-81h-264v73q0 8 8 9l33 2q15 2 15 17
v311l-137 7l-145 -8v-308q0 -16 16 -17l58 -5v-81h-264v73q0 8 8 9l33 2q15 2 15 17v311l-56 3q-8 0 -8 8v77h64v84q0 81 55 123t137 42q93 0 166 -47l-32 -84q-63 32 -114 31q-22 0 -39.5 -8t-28 -25t-10.5 -42v-74h282v84q0 81 55 123t136 42z" />
    <glyph glyph-name="f_f_l" unicode="ffl" horiz-adv-x="1205" 
d="M802 735l280 15q9 0 9 -9v-638q0 -15 16 -17l65 -5v-81h-291v73q0 8 8 9l53 4q15 2 15 17v537q0 7 -4.5 12t-11.5 5l-99 2l-16 -33q-57 24 -98 23q-35 0 -56.5 -19t-21.5 -56v-74h131v-82l-131 -7v-308q0 -16 15 -17l59 -5v-81h-264v73q0 8 8 9l33 2q15 2 15 17v311
l-137 7l-145 -8v-308q0 -16 16 -17l58 -5v-81h-264v73q0 8 8 9l33 2q15 2 15 17v311l-56 3q-8 0 -8 8v77h64v84q0 81 55 123t137 42q93 0 166 -47l-32 -84q-63 32 -114 31q-35 0 -56.5 -19t-21.5 -56v-74h282v84q0 81 55 123t136 42q48 0 95 -14z" />
    <glyph glyph-name=".notdef" horiz-adv-x="500" 
d="M0 0v700h500v-700h-500zM250 395l170 255h-340zM280 350l170 -255v510zM80 50h340l-170 255zM50 605v-510l170 255z" />
    <glyph glyph-name=".null" horiz-adv-x="0" vert-adv-y="0" 
 />
    <glyph glyph-name="nonmarkingreturn" horiz-adv-x="333" 
 />
    <glyph glyph-name="space" unicode=" " horiz-adv-x="300" 
 />
    <glyph glyph-name="exclam" unicode="!" horiz-adv-x="221" 
d="M169 211h-117l-14 489h145zM110.5 137q30.5 0 51.5 -22t21 -51t-21 -51t-52 -22q-20 0 -37 10.5t-26 27.5t-9 35q0 29 21 51t51.5 22z" />
    <glyph glyph-name="quotedbl" unicode="&#x22;" horiz-adv-x="380" 
d="M150 450h-107l-7 271h121zM337 450h-107l-8 271h122z" />
    <glyph glyph-name="numbersign" unicode="#" horiz-adv-x="685" 
d="M546 542h103l-14 -107h-103l-19 -145h102l-13 -106h-103l-25 -184h-132l25 184h-100l-24 -184h-132l24 184h-99l14 106h99l19 145h-98l13 107h99l18 138h133l-19 -138h100l18 138h132zM300 435l-19 -145h99l20 145h-100z" />
    <glyph glyph-name="dollar" unicode="$" horiz-adv-x="555" 
d="M354 774v-71q72 -6 125 -36q4 -2 4 -6v-157h-84l-4 61q-1 9 -9 13q-29 12 -70 12q-35 0 -62.5 -8.5t-42.5 -24t-15 -35.5t5 -32t28 -28t71 -40q130 -60 174.5 -105.5t44.5 -113.5q0 -77 -44 -127t-121 -70v-99h-120v86q-6 0 -17 0.5t-16 0.5q-73 4 -159 37q-6 2 -6 7v156
h84l4 -52q1 -11 10 -14q55 -20 117 -20q52 0 83.5 20.5t31.5 56.5q0 27 -16 43t-78 47q-80 38 -125.5 66t-68.5 56.5t-28.5 52t-5.5 63.5q0 71 52.5 118.5t137.5 63.5v79h120z" />
    <glyph glyph-name="percent" unicode="%" horiz-adv-x="935" 
d="M345 -17h-122l363 734h122zM210 707q79 0 126.5 -58.5t47.5 -148.5t-47 -148t-127 -58t-127 58t-47 148q0 44 12 82t34 65.5t55 43.5t73 16zM210 628q-29 0 -48.5 -31t-19.5 -97q0 -44 10 -74t24.5 -42t33.5 -12q29 0 48 31.5t19 97t-19 96.5t-48 31zM724.5 406
q79.5 0 127 -58t47.5 -148t-47.5 -148.5t-127 -58.5t-127 58.5t-47.5 148.5t47.5 148t127 58zM724.5 328q-29.5 0 -48.5 -31.5t-19 -96.5q0 -45 10 -74.5t24.5 -41.5t33.5 -12q29 0 48 31t19 96.5t-19 97t-48.5 31.5z" />
    <glyph glyph-name="ampersand" unicode="&#x26;" horiz-adv-x="690" 
d="M280 710q47 0 87 -11.5t71.5 -34.5t46.5 -62t9 -89q-6 -41 -33 -74t-101 -86l-8 -6l112 -108q6 17 10 39l6 68h97v-145q0 -31 -11 -60l88 -84l-87 -98l-88 84q-69 -52 -172 -52q-80 0 -140.5 20.5t-95.5 63t-35 101.5q0 53 23.5 92t91.5 91l-30 29q-55 53 -55 132
q0 85 59 137.5t155 52.5zM280 599q-36 0 -56.5 -20t-20.5 -54q0 -32 18 -51l43 -40l4 2q38 26 56 40.5t25 25t9 24.5q5 37 -17 55t-61 18zM386 146l-132 130q-51 -36 -65.5 -55.5t-14.5 -48.5q0 -74 115 -74q71 0 97 48z" />
    <glyph glyph-name="quotesingle" unicode="'" horiz-adv-x="193" 
d="M150 450h-107l-7 271h121z" />
    <glyph glyph-name="parenleft" unicode="(" horiz-adv-x="380" 
d="M284 742l66 -83q-90 -78 -130 -173q-39 -89 -39 -209q0 -128 45 -220q38 -87 124 -163l-67 -83q-51 34 -96 81t-74 97q-77 132 -77 287q0 149 71 278q29 54 76 103.5t101 84.5z" />
    <glyph glyph-name="parenright" unicode=")" horiz-adv-x="380" 
d="M30 659l67 83q54 -35 100.5 -84.5t75.5 -103.5q71 -129 71 -278q0 -155 -77 -287q-29 -50 -74 -97t-96 -81l-67 83q86 76 124 163q46 92 46 220q-1 120 -40 209q-40 95 -130 173z" />
    <glyph glyph-name="asterisk" unicode="*" horiz-adv-x="478" 
d="M318 527l81 -100l-90 -65l-70 108l-70 -108l-90 65l81 100l-124 33l34 106l120 -46l-7 128h111l-6 -128l119 46l35 -106z" />
    <glyph glyph-name="plus" unicode="+" horiz-adv-x="521" 
d="M319 349h166v-117h-166v-166h-117v166h-166v117h166v166h117v-166z" />
    <glyph glyph-name="comma" unicode="," horiz-adv-x="210" 
d="M96 137q48 0 67.5 -40.5t3.5 -98.5q-22 -91 -95 -160l-48 29q32 53 42 94q5 21 4 36l-2 1q-20 8 -32 26.5t-12 39.5q0 29 21 51t51 22z" />
    <glyph glyph-name="hyphen" unicode="-" horiz-adv-x="453" 
d="M417 191h-381v116h381v-116z" />
    <glyph glyph-name="period" unicode="." horiz-adv-x="217" 
d="M108.5 137q30.5 0 51.5 -22t21 -51t-21 -51t-51.5 -22t-51.5 22t-21 51t21 51t51.5 22z" />
    <glyph glyph-name="slash" unicode="/" horiz-adv-x="467" 
d="M169 -118h-150l279 860h149z" />
    <glyph glyph-name="zero" unicode="0" horiz-adv-x="640" 
d="M320 690q130 0 207.5 -97.5t77.5 -252.5t-77.5 -252.5t-207.5 -97.5t-207 97.5t-77 252.5q0 102 34 181t99 124t151 45zM320 573q-29 0 -53.5 -13.5t-44 -40.5t-30.5 -73t-11 -106q0 -117 39 -175.5t100 -58.5t100.5 58.5t39.5 175.5t-39.5 175t-100.5 58z" />
    <glyph glyph-name="one" unicode="1" horiz-adv-x="416" 
d="M301 680v-572q0 -16 16 -17l63 -5v-86h-333v78q0 8 8 8l86 7q16 2 16 17v408q0 7 -5.5 10t-11.5 -1l-80 -56l-38 96l163 112q1 1 3 1h113z" />
    <glyph glyph-name="two" unicode="2" horiz-adv-x="522" 
d="M258 691q124 1 176 -73q27 -38 29.5 -88.5t-23 -116t-78.5 -137.5q-50 -66 -150 -170h165q16 0 17 16l5 66h83v-188h-452v80q0 3 2 5q142 139 218 253q102 148 64 214q-19 32 -69 32q-30 -1 -55 -15.5t-33 -40.5l-124 13q12 48 48.5 83t82 51t94.5 16z" />
    <glyph glyph-name="three" unicode="3" horiz-adv-x="505" 
d="M235 690q59 0 109 -19.5t82.5 -61.5t32.5 -99q0 -52 -30 -92.5t-83 -61.5q58 -21 90.5 -63.5t32.5 -102.5q0 -51 -21.5 -90.5t-57.5 -62.5t-79 -35t-90 -12q-106 0 -195 53l35 86q69 -26 136 -26q37 0 64 8.5t45 31.5t18 58q0 44 -29 69.5t-80 25.5h-70v106h73
q48 0 75.5 24t27.5 67q0 44 -30 68t-76 24q-40 -1 -73 -20q-7 -4 -8 -12l-5 -69h-76v147q0 4 3 6q78 52 179 53z" />
    <glyph glyph-name="four" unicode="4" horiz-adv-x="539" 
d="M172 269h126l24 224q1 7 9 7h91v-231h84v-105h-84v-56q0 -16 15 -17l64 -5v-86h-308v78q0 8 8 8l79 7q16 1 16 17v54h-274v83l174 433h139z" />
    <glyph glyph-name="five" unicode="5" horiz-adv-x="505" 
d="M445 574h-232l-13 -161q23 8 51 8q101 0 162.5 -59t61.5 -155q0 -44 -13.5 -80.5t-36.5 -61.5t-54.5 -42t-66.5 -25t-73 -8q-94 0 -187 47q-4 2 -4 7l-1 149h84l5 -60q0 -10 9 -13q40 -17 81 -17q50 0 81 26t31 79q0 49 -29 76t-79 27q-44 0 -73 -23l-87 15l33 377h350
v-106z" />
    <glyph glyph-name="six" unicode="6" horiz-adv-x="543" 
d="M313 690q86 0 164 -49l-35 -94q-66 37 -115 37q-50 0 -85.5 -38t-46.5 -110q-3 -15 -6 -31q48 49 124 46q62 -3 108 -33.5t70 -83.5t23 -120q-4 -101 -66 -164t-160 -59q-122 4 -189.5 103t-62.5 254q2 67 18 123.5t42 96t60.5 67.5t74 41.5t82.5 13.5zM288 342
q-45 2 -74.5 -24t-36.5 -73q9 -66 40.5 -104.5t77.5 -40.5q43 -1 70 30.5t28.5 87.5t-27 89.5t-78.5 34.5z" />
    <glyph glyph-name="seven" unicode="7" horiz-adv-x="513" 
d="M490 680v-97q-77 -97 -139 -253q-66 -166 -86 -329h-144q21 178 104 363q47 106 105 193q3 6 0 11.5t-10 5.5h-200q-16 0 -17 -16l-4 -60h-77v173q0 9 9 9h459z" />
    <glyph glyph-name="eight" unicode="8" horiz-adv-x="560" 
d="M280 690q104 0 169 -53t65 -136q0 -54 -25.5 -94t-71.5 -63q51 -22 79 -63.5t28 -98.5q0 -85 -67.5 -138.5t-176.5 -53.5t-176.5 53.5t-67.5 138.5q0 57 28 98.5t80 63.5q-47 23 -72.5 63t-25.5 94q0 83 65 136t169 53zM280 584q-43 0 -68.5 -24t-25.5 -66t25.5 -65.5
t68.5 -23.5q29 0 50 10.5t32.5 30.5t11.5 48q0 42 -25.5 66t-68.5 24zM280 291q-24 0 -43.5 -6.5t-32.5 -18.5t-20.5 -29.5t-7.5 -39.5q0 -44 28 -70t76 -26t76 26t28 70t-28 69t-76 25z" />
    <glyph glyph-name="nine" unicode="9" horiz-adv-x="543" 
d="M255 690q122 -4 189.5 -103t62.5 -255q-3 -83 -26.5 -149t-62 -107t-86.5 -63t-102 -22q-87 0 -164 49l36 94q66 -38 114 -37q50 -1 85.5 37.5t46.5 109.5q3 15 6 32q-48 -49 -124 -46q-93 3 -148 69t-52 168q3 101 65 163.5t160 59.5zM249 580q-44 2 -71 -29.5
t-28.5 -88t27 -89.5t78.5 -35q45 -1 74.5 24.5t36.5 73.5q-9 66 -40.5 104.5t-76.5 39.5z" />
    <glyph glyph-name="colon" unicode=":" horiz-adv-x="217" 
d="M109 489q20 0 37 -10.5t26 -27t9 -35.5q0 -29 -21 -51t-51 -22q-21 0 -38 10.5t-26 27.5t-9 35q0 29 21 51t52 22zM108.5 137q30.5 0 51.5 -22t21 -51t-21 -51t-51.5 -22t-51.5 22t-21 51t21 51t51.5 22z" />
    <glyph glyph-name="semicolon" unicode=";" horiz-adv-x="210" 
d="M96 489q20 0 37 -10.5t26.5 -27t9.5 -35t-9.5 -35.5t-26.5 -27.5t-37 -10.5t-37 10.5t-26 27.5t-9 35q0 29 21 51t51 22zM96 137q48 0 67.5 -40.5t3.5 -98.5q-22 -91 -95 -160l-48 29q35 57 45 105q3 15 1 25l-2 1q-20 8 -32 26.5t-12 39.5q0 29 21 51t51 22z" />
    <glyph glyph-name="less" unicode="&#x3c;" horiz-adv-x="584" 
d="M548 486l-364 -140l364 -140v-130l-512 204v132l512 204v-130z" />
    <glyph glyph-name="equal" unicode="=" horiz-adv-x="572" 
d="M536 340h-500v116h500v-116zM536 118h-500v116h500v-116z" />
    <glyph glyph-name="greater" unicode="&#x3e;" horiz-adv-x="584" 
d="M548 412v-132l-512 -204v130l364 140l-364 140v130z" />
    <glyph glyph-name="question" unicode="?" horiz-adv-x="472" 
d="M220 710q60 0 108.5 -19t78 -58t29.5 -92q0 -59 -29.5 -95.5t-118.5 -86.5q-65 -34 -85 -53t-22 -50l-3 -45h-119l-4 69q-4 53 24 87.5t114 80.5q67 35 82.5 49.5t15.5 41.5t-21 42t-58 15q-44 0 -82 -12q-11 -3 -12 -14l-5 -65h-76v146q0 4 3 6q76 53 180 53zM119 137
q15 0 28.5 -6t23 -16.5t15 -23.5t5.5 -27q0 -29 -21 -51t-51.5 -22t-51.5 22t-21 51t21 51t52 22z" />
    <glyph glyph-name="at" unicode="@" horiz-adv-x="990" 
d="M495 713q133 0 238 -55.5t163 -154t58 -221.5q0 -108 -70 -171t-173 -65h-121q-8 0 -9 7l-5 39q-21 -24 -55 -39t-71 -15q-78 0 -126 54.5t-48 156.5q0 65 28 112.5t74.5 71.5t105.5 24q106 0 192 -67v-211l37 -2q42 3 67 30t26 75q2 136 -83.5 218t-227.5 82
q-147 0 -229 -90t-82 -242q0 -163 85 -247t226 -86q63 0 112 17l46 -124q-75 -25 -158 -25q-136 0 -241 60.5t-161.5 166t-56.5 238.5q0 99 32.5 184t91 147t145.5 97t190 35zM486 367q-23 0 -40.5 -12.5t-28 -39.5t-10.5 -66q0 -57 24.5 -87.5t64.5 -30.5q31 0 51 22v188
q-27 26 -61 26z" />
    <glyph glyph-name="A" unicode="A" horiz-adv-x="803" 
d="M725 91l59 -5v-86h-302v77q0 8 8 9l52 4q10 1 15 9t2 17l-31 77h-282l-40 -101l80 -6v-86h-267v78q0 8 8 8l43 4q10 1 13 9l240 597l148 8zM290 309h195l-97 249z" />
    <glyph glyph-name="B" unicode="B" horiz-adv-x="679" 
d="M50 700h337q69 0 122 -23.5t82 -66t29 -96.5q0 -91 -78 -140q35 -16 60 -41t38 -57.5t13 -70.5q0 -91 -69.5 -148t-182.5 -57h-351v78q0 8 7 8l56 5q15 1 15 17v484q0 16 -15 17l-56 5q-7 0 -7 8v78zM312 583l-40 -2v-157h118q43 0 67 21.5t24 58.5t-24 58t-67 21h-78z
M272 308v-189l40 -3h86q52 0 81.5 26t29.5 70.5t-29.5 70t-81.5 25.5h-126z" />
    <glyph glyph-name="C" unicode="C" horiz-adv-x="646" 
d="M392 708q120 0 208 -62q3 -2 3 -6v-153h-84l-5 65q0 9 -8 12q-55 28 -114 28q-90 -1 -145 -64t-55 -178q0 -117 57.5 -179.5t151.5 -62.5q91 0 176 59l40 -101q-93 -75 -225 -75q-156 0 -253 100.5t-97 258t97 258t253 100.5z" />
    <glyph glyph-name="D" unicode="D" horiz-adv-x="749" 
d="M48 700h313q157 0 253 -97t96 -253.5t-96 -253t-253 -96.5h-313v78q0 8 8 8l55 5q16 1 16 17v484q0 16 -16 17l-55 5q-8 0 -8 8v78zM311 584l-40 -3v-462l40 -2h50q92 0 146 60t54 173q0 38 -6.5 70.5t-19 58.5t-30 45.5t-39.5 32.5t-48.5 20t-56.5 7h-50z" />
    <glyph glyph-name="E" unicode="E" horiz-adv-x="597" 
d="M48 700h497q9 0 9 -9v-188h-84l-5 65q-1 16 -17 16h-177v-176h189v-110h-189v-182h194q16 0 17 16l5 65h84v-188q0 -9 -9 -9h-514v78q0 8 8 8l55 5q16 1 16 17v484q0 16 -16 17l-55 5q-8 0 -8 8v78z" />
    <glyph glyph-name="F" unicode="F" horiz-adv-x="570" 
d="M48 700h487q9 0 9 -9v-188h-84l-5 65q-1 16 -17 16h-167v-190h174v-109h-174v-192l82 -7v-86h-305v78q0 8 8 8l55 5q16 1 16 17v484q0 16 -16 17l-55 5q-8 0 -8 8v78z" />
    <glyph glyph-name="G" unicode="G" horiz-adv-x="702" 
d="M392 709q118 0 230 -59q4 -2 4 -6v-156h-84l-4 59q-1 10 -10 13q-71 32 -136 31q-43 0 -79 -14.5t-63 -43.5t-42.5 -76t-15.5 -107q0 -114 54 -178t146 -64q88 0 138 54v85q0 3 -1 6t-3.5 5.5t-5.5 4t-6 1.5l-116 6v89h249q8 0 8 -9v-350h-85l-8 54q-82 -63 -194 -63
q-145 0 -235.5 100.5t-90.5 258.5q0 87 28.5 156.5t77 113.5t110.5 66.5t134 22.5z" />
    <glyph glyph-name="H" unicode="H" horiz-adv-x="857" 
d="M809 614l-63 -5q-16 -1 -16 -17v-484q0 -16 16 -17l63 -5v-86h-305v78q0 8 8 8l59 5q15 2 15 17v190h-315v-190q0 -15 15 -17l67 -5v-86h-305v78q0 8 8 8l55 5q16 1 16 17v484q0 16 -16 17l-55 5q-8 0 -8 8v78h305v-86l-67 -5q-15 -2 -15 -17v-177h315v177q0 15 -15 17
l-59 5q-8 0 -8 8v78h305v-86z" />
    <glyph glyph-name="I" unicode="I" horiz-adv-x="398" 
d="M350 614l-63 -5q-16 -1 -16 -17v-484q0 -16 16 -17l63 -5v-86h-302v78q0 8 8 8l56 5q15 1 15 17v484q0 16 -15 17l-56 5q-8 0 -8 8v78h302v-86z" />
    <glyph glyph-name="J" unicode="J" horiz-adv-x="400" 
d="M352 614l-62 -5q-16 -1 -16 -17v-553q0 -101 -59.5 -169.5t-166.5 -88.5l-29 77q51 21 80.5 68.5t29.5 112.5v553q0 16 -15 17l-59 5q-8 0 -8 8v78h305v-86z" />
    <glyph glyph-name="K" unicode="K" horiz-adv-x="768" 
d="M726 614l-65 -5l-206 -225l202 -285q4 -6 11 -7l73 -6q8 0 8 -8v-78h-198l-190 280l-90 -99v-73q0 -15 15 -17l67 -5v-86h-305v78q0 8 8 8l55 5q16 1 16 17v484q0 16 -16 17l-55 5q-8 0 -8 8v78h301v-86l-63 -5q-15 -1 -15 -17v-258l214 242q8 10 5.5 21t-13.5 14l-19 2
q-7 2 -7 8v79h275v-86z" />
    <glyph glyph-name="L" unicode="L" horiz-adv-x="581" 
d="M353 614l-67 -5q-15 -2 -15 -17v-476h182q16 0 17 16l5 65h84v-188q0 -9 -9 -9h-502v78q0 8 8 8l55 5q16 1 16 17v484q0 16 -16 17l-55 5q-8 0 -8 8v78h305v-86z" />
    <glyph glyph-name="M" unicode="M" horiz-adv-x="1034" 
d="M928 614l-55 -4q-8 -1 -12.5 -6.5t-3.5 -13.5l67 -499l68 -5v-86h-294v86l65 5q8 1 12.5 6.5t3.5 12.5l-45 373l-181 -483h-92l-179 484l-52 -391l85 -7v-86h-275v78q0 8 7 8l49 4q13 1 15 14l65 486q1 5 -1 9.5t-6 7t-9 3.5l-47 4q-8 0 -8 8v78h241l175 -460l176 460
h231v-86z" />
    <glyph glyph-name="N" unicode="N" horiz-adv-x="846" 
d="M802 614l-63 -5q-16 -1 -16 -17v-592h-131l-338 458v-351q0 -15 15 -16l58 -5v-86h-284v78q0 8 8 8l56 5q15 1 15 17v484q0 16 -15 17l-56 5q-8 0 -8 8v78h199l350 -473v366q0 15 -15 17l-51 4q-8 0 -8 8v78h284v-86z" />
    <glyph glyph-name="O" unicode="O" horiz-adv-x="777" 
d="M388 708q156 0 253 -100.5t97 -258t-97 -258t-253 -100.5t-252.5 100.5t-96.5 258t96.5 258t252.5 100.5zM388 592q-91 0 -145 -64t-54 -178t54 -178t145.5 -64t145.5 64t54 178q0 76 -25 130.5t-69.5 83t-105.5 28.5z" />
    <glyph glyph-name="P" unicode="P" horiz-adv-x="657" 
d="M48 700h338q103 0 167.5 -58t64.5 -150.5t-64.5 -150.5t-167.5 -58h-115v-175q0 -15 15 -17l67 -5v-86h-305v78q0 8 8 8l55 5q16 1 16 17v484q0 16 -16 17l-55 5q-8 0 -8 8v78zM316 583l-45 -2v-182h107q48 0 75 25t27 67.5t-27 67t-75 24.5h-62z" />
    <glyph glyph-name="Q" unicode="Q" horiz-adv-x="785" 
d="M754 -51l31 -105q-32 -11 -64 -11t-54.5 5.5t-53.5 22.5t-45.5 27t-45.5 32q-73 53 -113 71h-21q-156 0 -252.5 100.5t-96.5 258.5q0 103 43 184.5t123 127.5t183 46q156 0 253 -100.5t97 -257.5q0 -73 -22 -135.5t-62.5 -109.5t-97.5 -76l19 -15q24 -19 36 -28
t32.5 -21.5t35.5 -17t35 -5t40 6.5zM189 350q0 -114 54 -178t145.5 -64t145.5 64t54 178t-54 178t-145.5 64t-145.5 -64t-54 -178z" />
    <glyph glyph-name="R" unicode="R" horiz-adv-x="715" 
d="M48 700h337q104 0 168.5 -56.5t64.5 -146.5q0 -65 -36.5 -113t-101.5 -67l-4 -2l131 -216q3 -7 11 -7l74 -6v-86h-189q-5 0 -7 4l-148 292h-78v-188q0 -15 16 -17l67 -5v-86h-305v78q0 8 8 8l55 5q15 1 15 17v484q0 16 -15 17l-55 5q-8 0 -8 8v78zM313 583l-43 -2v-169
h120q21 0 37.5 6t28 17t18 27t6.5 36q0 26 -11 45.5t-31 29.5t-48 10h-77z" />
    <glyph glyph-name="S" unicode="S" horiz-adv-x="559" 
d="M317 711q97 1 165 -38q4 -2 4 -6v-157h-83l-5 61q-1 9 -9 13q-29 13 -70 13q-36 0 -64 -9t-43.5 -24.5t-15.5 -35.5q0 -22 5.5 -34t28.5 -28.5t72 -39.5q132 -62 176.5 -107.5t44.5 -113.5q0 -106 -78 -159.5t-207 -53.5q-90 0 -196 39q-6 2 -6 8v156h84l4 -53
q1 -10 10 -14q55 -20 119 -20q54 0 85.5 20.5t31.5 57.5q0 29 -16 44.5t-80 47.5q-65 31 -106.5 56t-67 45t-37.5 43.5t-15.5 43.5t-3.5 52q0 45 22.5 82.5t60.5 61t87 36.5t103 13z" />
    <glyph glyph-name="T" unicode="T" horiz-adv-x="657" 
d="M28 700h601q8 0 8 -9l1 -184h-84l-5 65q-1 16 -17 16h-132v-480q0 -16 16 -17l63 -5v-86h-302v78q0 8 8 8l56 5q15 1 15 17v480h-131q-16 0 -17 -16l-5 -65h-84l1 184q0 9 8 9z" />
    <glyph glyph-name="U" unicode="U" horiz-adv-x="827" 
d="M783 613l-67 -6q-15 -1 -15 -16v-318q0 -84 -35 -148t-99.5 -99.5t-149.5 -35.5q-129 0 -206.5 78t-77.5 205v317q0 16 -16 17l-61 5q-8 1 -8 9v78h308v-86l-63 -5q-15 -2 -15 -17v-318q0 -82 40 -124.5t108 -42.5q45 0 79.5 18t54.5 56t20 93v318q0 15 -15 16l-66 6v86
h284v-86z" />
    <glyph glyph-name="V" unicode="V" horiz-adv-x="747" 
d="M728 614l-50 -4l-240 -610h-126l-234 601q-3 9 -13 9l-38 4q-8 0 -8 8v78h181l187 -523l155 407q4 9 -1 17t-15 9l-53 4q-8 1 -8 9v77h263v-86z" />
    <glyph glyph-name="W" unicode="W" horiz-adv-x="1159" 
d="M1139 614l-72 -6l-188 -608h-124l-178 480l-178 -480h-127l-182 599q-3 10 -14 11l-49 4q-8 0 -8 8v78h199l134 -503l140 388q3 9 -2 17t-15 8l-43 4q-8 1 -8 9v77h235l164 -503l114 389q2 9 -2.5 16t-14.5 8l-46 4q-8 1 -8 9v77h273v-86z" />
    <glyph glyph-name="X" unicode="X" horiz-adv-x="725" 
d="M692 614l-74 -6l-166 -252l175 -258q3 -6 10 -7l68 -5v-86h-172q-4 0 -6 3l-178 263l-106 -176l60 -5v-85h-283v78q0 8 8 8l60 5q7 1 11 7l169 257l-172 248q-4 6 -11 7l-49 4q-8 0 -8 8v78h168l176 -259l88 138q7 11 2 21t-18 11l-40 3q-7 1 -7 9v77h295v-86z" />
    <glyph glyph-name="Y" unicode="Y" horiz-adv-x="708" 
d="M688 614l-48 -4l-206 -367v-135q0 -16 15 -17l64 -5v-86h-302v78q0 8 8 8l55 5q16 1 16 17v128l-208 367q-4 6 -12 7l-43 4q-8 0 -8 8v78h166l188 -336l119 216q6 11 1 20t-17 10l-47 4q-8 1 -8 9v77h267v-86z" />
    <glyph glyph-name="Z" unicode="Z" horiz-adv-x="595" 
d="M566 620l-343 -505h241q16 0 17 16l4 55h84v-178q0 -9 -9 -9h-534v79l348 506h-222q-15 0 -17 -16l-3 -49h-84v172q0 9 9 9h509v-80z" />
    <glyph glyph-name="bracketleft" unicode="[" horiz-adv-x="332" 
d="M180 614v-646h122v-104h-266v854h266v-104h-122z" />
    <glyph glyph-name="backslash" unicode="\" horiz-adv-x="467" 
d="M447 -118h-149l-279 860h150z" />
    <glyph glyph-name="bracketright" unicode="]" horiz-adv-x="332" 
d="M296 718v-854h-266v104h122v646h-122v104h266z" />
    <glyph glyph-name="asciicircum" unicode="^" horiz-adv-x="586" 
d="M550 392h-140l-117 216l-117 -216h-140l179 308h156z" />
    <glyph glyph-name="underscore" unicode="_" horiz-adv-x="616" 
d="M580 -142h-544v107h544v-107z" />
    <glyph glyph-name="grave" unicode="`" horiz-adv-x="337" 
d="M301 557h-118l-147 169h157z" />
    <glyph glyph-name="a" unicode="a" horiz-adv-x="567" 
d="M256 508q42 1 78 -9.5t65.5 -31t46.5 -56t17 -82.5v-227q0 -15 15 -17l56 -4v-81h-177q-7 0 -8 7l-7 53q-27 -32 -67 -51t-86 -19q-70 0 -113.5 41.5t-43.5 104.5q0 60 43 92t135 57l119 32v14q-1 79 -88 79q-43 -1 -86 -19q-9 -4 -9 -13l-5 -52h-69v129q0 4 3 6
q16 9 36.5 17.5t44 15t49.5 10.5t51 4zM329 235l-88 -24q-42 -11 -58 -23.5t-16 -37.5q0 -27 19 -42.5t52 -15.5q57 0 89 42l2 3v98z" />
    <glyph glyph-name="b" unicode="b" horiz-adv-x="630" 
d="M38 739l202 11q9 0 9 -9v-290q55 59 143 59q95 0 149 -64t54 -179q0 -60 -14 -107t-39 -78.5t-61.5 -52.5t-78.5 -30t-92 -9q-94 0 -195 34v616q0 7 -4.5 12t-11.5 5l-61 3v79zM344 410q-63 0 -95 -56v-248q37 -16 75 -16q60 0 97 40t37 120q0 76 -30.5 118t-83.5 42z
" />
    <glyph glyph-name="c" unicode="c" horiz-adv-x="493" 
d="M301 510q84 0 148 -39q3 -2 3 -6v-151h-83l-6 72q-1 9 -9 12q-24 12 -53 12q-38 0 -66.5 -18t-45.5 -54.5t-17 -87.5q0 -78 35.5 -119t95.5 -41q59 0 124 40l36 -93q-68 -47 -162 -47q-121 0 -193.5 73.5t-72.5 187t72.5 186.5t193.5 73z" />
    <glyph glyph-name="d" unicode="d" horiz-adv-x="626" 
d="M304 739l202 11q9 0 9 -9v-639q0 -15 16 -17l55 -4v-81h-177q-7 0 -8 7l-6 52q-18 -21 -41 -36t-52 -24t-60 -9q-93 0 -150 66.5t-57 195.5q0 37 5.5 71t19.5 69t36 60t58.5 41.5t83.5 16.5q88 0 143 -60v190q0 7 -4.5 12t-11.5 5l-61 3v79zM286 410q-26 0 -47 -10.5
t-36 -30.5t-23 -49.5t-8 -67.5q0 -76 35.5 -117.5t93.5 -41.5q50 0 80 35v226q-32 56 -95 56z" />
    <glyph glyph-name="e" unicode="e" horiz-adv-x="545" 
d="M274 510q122 0 180.5 -67.5t59.5 -187.5v-21q0 -6 -6 -7l-332 -11q6 -60 40 -93.5t86 -32.5q75 0 145 56l37 -91q-73 -65 -188 -65q-119 0 -190 73.5t-71 187t65 186.5t174 73zM277 416q-44 0 -70 -29t-32 -86h190q4 0 7 4t1 10q-3 34 -14 56t-31.5 33.5t-50.5 11.5z" />
    <glyph glyph-name="f" unicode="f" horiz-adv-x="416" 
d="M292 749q93 0 166 -47l-32 -84q-63 32 -114 31q-22 0 -39.5 -8t-28 -25t-10.5 -42v-74h131v-82l-131 -7v-308q0 -16 16 -17l58 -5v-81h-264v73q0 8 8 9l33 2q15 2 15 17v311l-56 3q-8 0 -8 8v77h64v84q0 81 55 123t137 42z" />
    <glyph glyph-name="g" unicode="g" horiz-adv-x="576" 
d="M543 433l-80 -7q36 -36 36 -94q0 -82 -58.5 -129.5t-157.5 -47.5q-42 0 -78 9q-25 -9 -25 -26q0 -25 25.5 -34.5t90.5 -9.5q106 0 163 -35t57 -116.5t-65.5 -126.5t-179.5 -45q-110 0 -177.5 44.5t-67.5 114.5q0 35 21.5 65t60.5 51q-41 22 -41 64q-1 53 72 83
q-72 47 -72 139q0 82 58.5 130t157.5 48h260v-77zM283 425q-82 0 -82 -92.5t82 -92.5t82 92.5t-82 92.5zM242 9l-9 -2q-41 -7 -64.5 -26.5t-23.5 -45.5q0 -34 34 -54t91.5 -20t92 20t34.5 54q0 73 -127 73h-9.5t-9.5 0.5t-9 0.5z" />
    <glyph glyph-name="h" unicode="h" horiz-adv-x="709" 
d="M48 739l202 11q9 0 9 -9v-306q45 33 96.5 53.5t97.5 20.5q43 0 75.5 -17t51.5 -53t19 -88v-248q0 -16 15 -17l62 -5v-81h-202q-9 0 -9 9v317q0 84 -76 84q-57 0 -130 -46v-261q0 -16 16 -17l65 -5v-81h-292v73q0 8 8 9l54 4q16 2 16 17v537q0 7 -4.5 12t-12.5 5l-61 3v79
z" />
    <glyph glyph-name="i" unicode="i" horiz-adv-x="380" 
d="M186 734q30 0 51.5 -21t21.5 -51.5t-21.5 -52t-51.5 -21.5t-51.5 21.5t-21.5 52t21.5 51.5t51.5 21zM48 496l202 11q9 0 9 -9v-395q0 -15 16 -17l65 -5v-81h-292v73q0 8 8 9l54 4q15 2 15 17v294q0 7 -4.5 12t-11.5 5l-61 3v79z" />
    <glyph glyph-name="j" unicode="j" horiz-adv-x="294" 
d="M171 735q30 0 51.5 -21.5t21.5 -51.5t-21.5 -51.5t-51.5 -21.5t-51.5 21.5t-21.5 51.5t21.5 51.5t51.5 21.5zM33 497l202 10q9 1 9 -8l1 -570q0 -42 -19 -74t-53.5 -49t-81.5 -17q-67 0 -109 36l28 72q20 -10 46 -10q55 0 55 54v457q0 7 -5 11.5t-12 5.5l-61 3v79z" />
    <glyph glyph-name="k" unicode="k" horiz-adv-x="652" 
d="M48 739l202 11q9 0 9 -9v-458l134 112q7 6 5 13.5t-11 8.5l-19 1q-8 1 -8 9v73h264v-81l-62 -5l-147 -118l148 -204q4 -5 10 -5l66 -6v-81h-173q-5 0 -7 5l-128 226l-72 -58v-71q0 -16 16 -17l45 -4v-81h-271v73q0 8 8 9l53 4q15 2 15 17v537q0 7 -4.5 12t-11.5 5l-61 3
v79z" />
    <glyph glyph-name="l" unicode="l" horiz-adv-x="374" 
d="M48 739l202 11q9 0 9 -9v-638q0 -15 16 -17l65 -5v-81h-291v73q0 8 8 9l53 4q15 2 15 17v537q0 7 -4.5 12t-11.5 5l-61 3v79z" />
    <glyph glyph-name="m" unicode="m" horiz-adv-x="1009" 
d="M759 509q63 0 101.5 -40.5t38.5 -117.5v-248q0 -16 15 -17l62 -5v-81h-202q-9 0 -9 9v317q0 84 -71 84q-53 0 -122 -46q3 -12 3 -46v-215q0 -16 15 -17l62 -5v-81h-202q-9 0 -9 9v317q0 84 -70 84q-53 0 -120 -45v-262q0 -16 15 -17l65 -5v-81h-291v73q0 8 7 9l55 4
q15 2 15 17v294q0 5 -2 8.5t-5.5 6t-8.5 2.5l-61 3v79l202 11q9 0 9 -9v-63q42 33 91.5 53.5t92.5 20.5q30 0 55 -9t43.5 -28t29.5 -47q43 37 96.5 60.5t99.5 23.5z" />
    <glyph glyph-name="n" unicode="n" horiz-adv-x="701" 
d="M444 509q66 0 106 -40.5t40 -117.5v-248q0 -16 16 -17l61 -5v-81h-202q-9 0 -9 9v317q0 84 -75 84q-58 0 -130 -46v-261q0 -16 15 -17l65 -5v-81h-291v73q0 8 7 9l55 4q15 2 15 17v294q0 5 -2 8.5t-5.5 6t-8.5 2.5l-61 3v79l202 11q9 0 9 -9v-63q44 33 96 53.5t97 20.5z
" />
    <glyph glyph-name="o" unicode="o" horiz-adv-x="601" 
d="M300.5 510q120.5 0 193 -73t72.5 -186.5t-72.5 -187t-193 -73.5t-193 73.5t-72.5 187t72.5 186.5t193 73zM300.5 410q-57.5 0 -93 -42t-35.5 -118t35.5 -118t93 -42t93 42t35.5 118t-35.5 118t-93 42z" />
    <glyph glyph-name="p" unicode="p" horiz-adv-x="645" 
d="M403 510q93 0 150 -66.5t57 -195.5q0 -37 -5.5 -71t-19.5 -68.5t-36 -60t-58.5 -41.5t-83.5 -16q-89 0 -143 59v-158q0 -8 4 -12.5t11 -4.5l65 -6v-80h-291v73q0 6 8 8l53 4q16 2 16 18v506q0 16 -16 17l-51 3v81l172 1q8 0 9 -7l6 -52q18 21 41 36t52 24t60 9zM344 407
q-50 0 -80 -35v-226q32 -56 95 -56q53 0 83.5 41.5t30.5 117t-35.5 117t-93.5 41.5z" />
    <glyph glyph-name="q" unicode="q" horiz-adv-x="632" 
d="M320 510q94 0 195 -34v-584q0 -16 15 -18l62 -5v-80h-291v73q0 6 8 8l57 5q6 0 10.5 4.5t4.5 12.5v157q-55 -58 -143 -58q-95 0 -149 63.5t-54 178.5q0 74 21.5 129t60.5 86.5t89.5 46.5t113.5 15zM306 410q-60 0 -97 -40t-37 -120q0 -76 31 -118t84 -42q62 0 94 56v248
q-37 16 -75 16z" />
    <glyph glyph-name="r" unicode="r" horiz-adv-x="485" 
d="M418 506q24 3 46 -2q5 -1 5 -7v-150h-83l-3 37q-1 13 -11 15q-9 1 -25 -5q-45 -15 -96 -62v-229q0 -16 15 -17l65 -5v-81h-291v73q0 8 7 9l55 4q15 2 15 17v294q0 3 -0.5 5.5t-2 4.5t-3.5 3.5t-4.5 2.5t-5.5 1l-61 3v79l201 11q10 0 10 -9v-84q37 41 81 65t86 27z" />
    <glyph glyph-name="s" unicode="s" horiz-adv-x="442" 
d="M254 510q71 1 123 -26q4 -2 4 -7v-127h-67l-5 55q-1 10 -10 13q-16 6 -39 6q-35 0 -57 -13t-22 -33q0 -22 12.5 -35t61.5 -38q90 -44 120.5 -77t30.5 -82q0 -76 -59.5 -114.5t-156.5 -38.5q-66 0 -144 26q-6 2 -6 7v124h68l4 -48q0 -10 10 -14q35 -12 73 -11
q38 0 60.5 14.5t22.5 41.5q0 20 -11.5 31.5t-57.5 34.5q-56 28 -88 48t-48.5 40.5t-20.5 37.5t-4 46q0 64 60 101t146 38z" />
    <glyph glyph-name="t" unicode="t" horiz-adv-x="404" 
d="M211 500h125v-82l-125 -6v-275q0 -26 15.5 -39t40.5 -13q35 -1 60 22l28 -65q-40 -53 -127 -53q-69 0 -110 34.5t-41 93.5v295l-51 2q-8 1 -8 9v72l59 2v126l134 7v-130z" />
    <glyph glyph-name="u" unicode="u" horiz-adv-x="694" 
d="M33 499h203q8 0 8 -9v-317q0 -84 76 -84q58 0 130 46v261q0 16 -16 17l-64 5v81h205q9 0 9 -9v-388q0 -7 4.5 -12t11.5 -5l61 -3v-79l-202 -10q-4 -1 -6.5 2t-2.5 7v62q-44 -33 -96 -53.5t-97 -20.5q-66 0 -106 40.5t-40 117.5l-1 248q0 16 -15 17l-62 5v81z" />
    <glyph glyph-name="v" unicode="v" horiz-adv-x="584" 
d="M569 419l-50 -4l-165 -415h-134l-154 406q-3 9 -13 10l-30 3q-7 1 -7 9v72h157l123 -363l100 251q3 7 1.5 12.5t-6 9.5t-11.5 4l-50 4q-8 1 -8 9v73h247v-81z" />
    <glyph glyph-name="w" unicode="w" horiz-adv-x="857" 
d="M844 419l-44 -4l-154 -415h-122l-96 274l-101 -274h-122l-141 406q-3 9 -12 10l-32 3q-7 1 -7 9v72h161l103 -357l86 247q3 9 -1.5 16.5t-14.5 8.5l-43 3q-7 1 -7 9v73h195l104 -357l86 248q3 9 -1.5 16t-14.5 8l-44 4q-8 1 -8 9v72h230v-81z" />
    <glyph glyph-name="x" unicode="x" horiz-adv-x="567" 
d="M542 419l-61 -5l-111 -150l114 -171q4 -6 11 -7l58 -6v-80h-153q-4 0 -6 4l-119 196l-78 -115l53 -4v-81h-237v73q0 8 8 8l58 5q6 1 10 6l108 150l-109 165q-4 6 -11 7l-50 5q-8 1 -8 9v72h158l114 -198l68 98q4 5 1.5 10t-8.5 6l-32 2q-8 1 -8 9v73h230v-81z" />
    <glyph glyph-name="y" unicode="y" horiz-adv-x="580" 
d="M567 419l-48 -4l-248 -621q-2 -5 -7 -5h-209v80l129 11q10 2 13 10l43 109h-22l-155 407q-3 9 -13 10l-30 3q-7 1 -7 9v72h158l124 -366l101 254q4 10 -1 17.5t-16 8.5l-51 4q-7 1 -7 9v73h246v-81z" />
    <glyph glyph-name="z" unicode="z" horiz-adv-x="495" 
d="M442 446l-244 -361h168q16 0 17 15l4 47h67v-138q0 -9 -8 -9h-409v54l244 361h-140q-15 0 -17 -15l-3 -45h-68v136q0 9 9 9h380v-54z" />
    <glyph glyph-name="braceleft" unicode="{" horiz-adv-x="352" 
d="M270 729q24 0 52 -3l-9 -99h-16q-16 -1 -28 -6t-21.5 -13.5t-14.5 -22.5t-5 -32v-154q0 -24 -8.5 -44t-23 -34t-33.5 -24q30 -15 47.5 -41t17.5 -61v-154q0 -71 71 -74h14l9 -99q-36 -4 -52 -3q-86 0 -130 41.5t-44 133.5v155q0 27 -17.5 42.5t-42.5 15.5v86
q25 0 42.5 15.5t17.5 43.5v156q0 92 44 133.5t130 41.5z" />
    <glyph glyph-name="bar" unicode="|" horiz-adv-x="203" 
d="M167 -190h-131v940h131v-940z" />
    <glyph glyph-name="braceright" unicode="}" horiz-adv-x="352" 
d="M81 729q87 0 131 -41.5t44 -133.5v-156q0 -28 17 -43.5t43 -15.5v-86q-25 0 -42.5 -15t-17.5 -43v-155q0 -92 -44.5 -133.5t-130.5 -41.5q-15 -1 -51 3l9 99h15q32 2 51 20.5t19 53.5l-1 154q0 24 9 44t23.5 34t33.5 24q-30 15 -48 41t-18 61l1 154q0 24 -9.5 40.5
t-24.5 24.5t-37 9h-14l-9 99q27 3 51 3z" />
    <glyph glyph-name="asciitilde" unicode="~" horiz-adv-x="576" 
d="M155 353q53 12 130 -18q67 -27 93 -26q36 3 60 45l102 -20q0 -65 -35 -102t-90 -37q-44 -1 -109 24q-8 3 -23.5 9t-23 8.5t-18.5 6t-19 4.5t-15 1q-20 -2 -35.5 -15.5t-33.5 -45.5l-102 31q28 115 119 135z" />
    <glyph glyph-name="exclamdown" unicode="&#xa1;" horiz-adv-x="221" 
d="M110.5 514q30.5 0 51.5 -22t21 -51t-21 -51t-52 -22q-15 0 -28.5 6t-23 16.5t-15 23.5t-5.5 27q0 29 21 51t51.5 22zM183 -195h-145l14 489h117z" />
    <glyph glyph-name="cent" unicode="&#xa2;" horiz-adv-x="493" 
d="M427 130l36 -93q-47 -33 -108 -43v-75h-112v76q-96 17 -152 87t-56 168.5t56 168t152 86.5v76h112v-75q52 -9 94 -35q3 -2 3 -6v-151h-83l-6 72q-1 9 -9 12q-24 12 -53 12q-38 0 -66.5 -18t-45.5 -54.5t-17 -87.5q0 -78 35.5 -119t95.5 -41q59 0 124 40z" />
    <glyph glyph-name="sterling" unicode="&#xa3;" horiz-adv-x="507" 
d="M300 710q90 -1 159 -39q4 -2 4 -7v-147h-76l-4 55q-1 10 -10 13q-28 10 -59 10q-27 0 -49.5 -7.5t-38 -25t-18.5 -42.5q-3 -21 3 -41.5t14.5 -35t21.5 -36t21 -38.5h149v-97h-132q-1 -17 -5 -34q-9 -52 -64 -132h265v-107h-433v107q67 80 80 130q7 19 9 36h-89v97h66
q-4 7 -18 33.5t-19.5 39.5t-10.5 38.5t-2 50.5q6 61 42 103t85.5 59t108.5 17z" />
    <glyph glyph-name="currency" unicode="&#xa4;" horiz-adv-x="600" 
 />
    <glyph glyph-name="yen" unicode="&#xa5;" horiz-adv-x="708" 
d="M688 614l-48 -4l-109 -193h76v-97h-131l-26 -47l-3 -24h160v-97h-173v-44q0 -16 15 -17l64 -5v-86h-302v78q0 8 8 8l55 5q16 1 16 17v44h-187v97h170l-3 22l-28 49h-139v97h84l-105 186q-4 6 -12 7l-43 4q-8 0 -8 8v78h166l188 -336l119 216q6 11 1 20t-17 10l-47 4
q-8 1 -8 9v77h267v-86z" />
    <glyph glyph-name="brokenbar" unicode="&#xa6;" horiz-adv-x="216" 
d="M180 338h-144v412h144v-412zM180 -190h-144v412h144v-412z" />
    <glyph glyph-name="section" unicode="&#xa7;" horiz-adv-x="505" 
d="M285 713q85 1 145 -31q5 -3 5 -8v-149h-80l-5 62q-1 12 -11 15q-19 8 -46 8q-40 0 -65 -15t-25 -39q0 -25 14.5 -41t71.5 -44q107 -53 143.5 -92t36.5 -97q0 -103 -94 -149q54 -34 74 -65t20 -75q0 -91 -69.5 -137t-184.5 -46q-81 0 -173 33q-6 2 -6 8v146h80l4 -55
q1 -11 12 -16q41 -16 89 -16q44 0 69 17.5t25 48.5q0 17 -5 26.5t-21 21t-54 30.5q-67 33 -105.5 57t-57.5 48.5t-24 44.5t-5 55q0 46 28.5 80t77.5 52q-68 41 -87 72.5t-19 84.5q0 39 20 70.5t54 52t77 31.5t91 11zM269 326h-4q-37 0 -59 -15t-22 -39t13 -37t61 -37l6 -2
q30 5 47.5 22t17.5 42q0 21 -11 34t-49 32z" />
    <glyph glyph-name="dieresis" unicode="&#xa8;" horiz-adv-x="409" 
d="M102.5 703q28.5 0 48 -20.5t19.5 -46.5q0 -17 -9 -32.5t-24.5 -25t-33.5 -9.5q-29 0 -48 20t-19 47t19 47t47.5 20zM306 703q28 0 47.5 -20.5t19.5 -46.5q0 -17 -8.5 -32.5t-24 -25t-34.5 -9.5q-28 0 -47.5 20.5t-19.5 46.5t19.5 46.5t47.5 20.5z" />
    <glyph glyph-name="copyright" unicode="&#xa9;" horiz-adv-x="797" 
d="M398.5 710q97.5 0 181 -48t132.5 -131t49 -180.5t-49 -181t-132.5 -131.5t-181 -48t-181 48t-132.5 131.5t-49 181t49 180.5t132.5 131t181 48zM398.5 617q-108.5 0 -186 -78t-77.5 -187.5t77.5 -187.5t186 -78t186 78t77.5 187.5t-77.5 187.5t-186 78zM400 531
q62 0 112 -36q3 -2 3 -6v-76h-63l-3 30q0 10 -10 13q-18 9 -39 9q-40 0 -64 -30t-24 -85q0 -56 25 -85.5t67 -29.5q44 0 92 36l25 -61q-47 -41 -121 -41q-82 0 -132.5 51.5t-50.5 129.5t50.5 129.5t132.5 51.5z" />
    <glyph glyph-name="ordfeminine" unicode="&#xaa;" horiz-adv-x="378" 
d="M173 706q54 0 90 -27t36 -82v-138q0 -9 8 -9l35 -3v-50h-108q-5 0 -6 5l-4 30q-36 -41 -92 -41q-43 0 -69.5 25.5t-26.5 63.5q0 36 26 55.5t83 34.5l71 20v9q-1 46 -53 46q-25 0 -51 -11q-5 -2 -5 -8l-3 -31h-44v78q0 3 2 4q49 29 111 29zM216 539l-52 -14
q-26 -7 -35.5 -14.5t-9.5 -22.5q0 -8 3 -14.5t8.5 -11t13.5 -7t18 -2.5q34 0 53 26l1 2v58z" />
    <glyph glyph-name="guillemotleft" unicode="&#xab;" horiz-adv-x="580" 
d="M178 250l120 -177h-137l-125 177l126 177h137zM430 250l120 -177h-137l-125 177l125 177h137z" />
    <glyph glyph-name="logicalnot" unicode="&#xac;" horiz-adv-x="700" 
 />
    <glyph glyph-name="registered" unicode="&#xae;" horiz-adv-x="797" 
d="M398.5 710q97.5 0 181 -48t132.5 -131t49 -180.5t-49 -181t-132.5 -131.5t-181 -48t-181 48t-132.5 131.5t-49 181t49 180.5t132.5 131t181 48zM398.5 617q-108.5 0 -186 -78t-77.5 -187.5t77.5 -187.5t186 -78t186 78t77.5 187.5t-77.5 187.5t-186 78zM243 521h164
q52 0 84.5 -28t32.5 -69q0 -30 -17.5 -52.5t-48.5 -32.5l62 -103q2 -4 6 -4l32 -4v-39h-91q-5 0 -7 5l-74 133h-27v-85q0 -9 9 -10l27 -3v-40h-152v37q0 3 3 4l24 2q9 0 9 10v223q0 9 -9 10l-24 2q-3 0 -3 3v41zM359 460v-73h46q17 0 27.5 9.5t10.5 27.5t-10.5 27t-27.5 9
h-28h-18z" />
    <glyph glyph-name="macron" unicode="&#xaf;" horiz-adv-x="407" 
d="M371 577h-335v97h335v-97z" />
    <glyph glyph-name="degree" unicode="&#xb0;" horiz-adv-x="359" 
d="M180 744q61 0 102.5 -42.5t41.5 -101.5q0 -39 -19 -72t-52 -52.5t-73 -19.5q-61 0 -102.5 42.5t-41.5 101.5t41.5 101.5t102.5 42.5zM180 671q-29 0 -49.5 -20.5t-20.5 -50.5q0 -21 9.5 -37.5t25.5 -25.5t35 -9q29 0 49 20.5t20 51.5q0 20 -9.5 36.5t-25 25.5t-34.5 9z
" />
    <glyph glyph-name="plusminus" unicode="&#xb1;" horiz-adv-x="521" 
d="M319 404h166v-117h-166v-141h-117v141h-166v117h166v141h117v-141zM485 -42h-449v116h449v-116z" />
    <glyph glyph-name="twosuperior" unicode="&#xb2;" horiz-adv-x="316" 
d="M156 746q34 0 63.5 -11t45.5 -32q17 -22 19 -51.5t-12.5 -68.5t-47.5 -83q-25 -34 -78 -89h82q6 0 7 6l3 35h57v-112h-283v51q0 2 2 3q80 78 126 148q52 75 39 112q-8 19 -31 19q-32 0 -41 -33l-93 10q7 45 49 70.5t93 25.5z" />
    <glyph glyph-name="threesuperior" unicode="&#xb3;" horiz-adv-x="316" 
d="M146 746q56 0 98 -29.5t42 -78.5q0 -58 -60 -88q66 -30 66 -95q0 -58 -46.5 -89t-106.5 -31q-70 0 -125 35l25 58q47 -17 86 -18q29 0 44.5 11.5t15.5 39.5q0 48 -50 48h-52v72h53q47 0 47 47q0 15 -6.5 26t-17 16t-24.5 4q-20 0 -33 -7q-5 -2 -6 -7l-3 -43h-63v89
q0 4 3 6q20 15 51.5 24.5t61.5 9.5z" />
    <glyph glyph-name="acute" unicode="&#xb4;" horiz-adv-x="336" 
d="M154 557h-118l107 169h157z" />
    <glyph glyph-name="paragraph" unicode="&#xb6;" horiz-adv-x="638" 
d="M602 589l-54 -4q-15 -1 -15 -17v-647h-132v663h-79v-663h-201v103q0 8 7 8l47 4q16 2 16 17v244q-72 16 -113.5 69t-41.5 128q0 89 57.5 146.5t152.5 59.5h356v-111z" />
    <glyph glyph-name="periodcentered" unicode="&#xb7;" horiz-adv-x="217" 
d="M108.5 383q30.5 0 51.5 -22t21 -50.5t-21 -50.5t-51.5 -22t-51.5 22t-21 51t21 50.5t51.5 21.5z" />
    <glyph glyph-name="cedilla" unicode="&#xb8;" horiz-adv-x="282" 
d="M179 5l-20 -47q2 -1 6.5 -1.5t6.5 -0.5q37 -8 56.5 -32.5t17.5 -55.5q-3 -37 -34.5 -63.5t-82.5 -26.5q-53 2 -93 30l18 57q25 -14 45 -15q15 -2 27 1t20 11.5t9 22.5q0 31 -44 37q-14 1 -35 -1l33 103z" />
    <glyph glyph-name="onesuperior" unicode="&#xb9;" horiz-adv-x="266" 
d="M194 740v-331q0 -6 6 -6l39 -4v-59h-214v55q0 4 4 5l52 4q6 1 6 6v214q0 4 -3 6t-7 -1l-40 -27l-27 68l101 70h83z" />
    <glyph glyph-name="ordmasculine" unicode="&#xba;" horiz-adv-x="395" 
d="M197.5 706q73.5 0 117.5 -44.5t44 -113.5t-44 -113.5t-117.5 -44.5t-117.5 44.5t-44 113.5t44 113.5t117.5 44.5zM197.5 645q-34.5 0 -55.5 -25.5t-21 -71.5q0 -19 3.5 -34.5t10.5 -27t16.5 -19.5t21 -12t25.5 -4q34 0 55 25.5t21 71.5t-21 71.5t-55.5 25.5z" />
    <glyph glyph-name="guillemotright" unicode="&#xbb;" horiz-adv-x="580" 
d="M292 250l-125 -177h-137l120 177l-120 177h137zM544 250l-125 -177h-137l120 177l-120 177h137z" />
    <glyph glyph-name="onequarter" unicode="&#xbc;" horiz-adv-x="814" 
d="M292 -18h-122l363 734h122zM220 700v-331q0 -6 5 -6l40 -4v-59h-214v55q0 4 4 5l52 4q6 1 6 6v214q0 4 -3 6t-7 -1l-40 -27l-27 68l101 70h83zM583 165h65l14 128q0 4 4 4h64v-132h48v-65h-48v-35q0 -6 6 -7l39 -3v-55h-200v51q0 4 5 4l48 4q6 1 6 7v34h-156v47l101 253
h97z" />
    <glyph glyph-name="onehalf" unicode="&#xbd;" horiz-adv-x="844" 
d="M292 -18h-122l363 734h122zM220 700v-331q0 -6 5 -6l40 -4v-59h-214v55q0 4 4 5l52 4q6 0 6 6v214q0 4 -3 6t-7 -1l-40 -27l-27 68l101 70h83zM669 406q34 1 63.5 -10.5t45.5 -32.5q17 -22 19 -51.5t-12.5 -68.5t-47.5 -83q-25 -33 -78 -88h82q6 0 7 6l3 35h57v-113h-283
v52q0 2 2 3q80 77 126 147q52 75 39 113q-7 18 -31 18q-32 1 -41 -32l-93 10q7 44 49 69.5t93 25.5z" />
    <glyph glyph-name="threequarters" unicode="&#xbe;" horiz-adv-x="823" 
d="M300 -18h-122l363 734h122zM168 706q56 0 98 -29.5t42 -78.5q0 -58 -60 -88q66 -30 66 -95q0 -58 -46.5 -89t-107.5 -31q-70 0 -124 35l24 58q47 -17 86 -18q15 0 25.5 2.5t18.5 8t12.5 15.5t4.5 25q0 48 -50 48h-53v72h54q47 0 47 47q0 23 -13.5 35t-35.5 11
q-20 0 -33 -7q-5 -2 -5 -7l-3 -43h-63v89q0 4 2 6q20 15 52 24.5t62 9.5zM592 165h65l14 128q1 4 5 4h63v-132h49v-65h-49v-35q0 -6 6 -7l39 -3v-55h-199v50q0 5 4 5l48 4q6 1 6 7v34h-156v47l101 253h97z" />
    <glyph glyph-name="questiondown" unicode="&#xbf;" horiz-adv-x="472" 
d="M353.5 513q30.5 0 51.5 -22t21 -50.5t-21 -50.5t-51.5 -22t-51.5 22t-21 50.5t21 50.5t51.5 22zM413 294l4 -69q4 -53 -24 -87.5t-114 -80.5q-48 -25 -67 -38t-25 -23.5t-6 -30.5q0 -27 21 -41.5t58 -14.5q48 0 93 14l6 76h76v-149q-77 -55 -183 -55q-60 0 -108.5 19
t-78 58t-29.5 92q0 59 29.5 95.5t118.5 85.5q65 35 85 54t22 50l3 45h119z" />
    <glyph glyph-name="Agrave" unicode="&#xc0;" horiz-adv-x="803" 
d="M464 757h-118l-147 169h158zM725 91l59 -5v-86h-302v77q0 8 8 9l52 4q10 1 15 9t2 17l-31 77h-282l-40 -101l81 -6v-86h-268v78q0 8 8 8l43 4q10 1 13 9l240 597l148 8zM290 309h195l-97 249z" />
    <glyph glyph-name="Aacute" unicode="&#xc1;" horiz-adv-x="803" 
d="M457 757h-118l107 169h157zM725 91l59 -5v-86h-302v77q0 8 8 9l52 4q10 1 15 9t2 17l-31 77h-282l-40 -101l80 -6v-86h-267v78q0 8 8 8l43 4q10 1 13 9l240 597l148 8zM290 309h195l-97 249z" />
    <glyph glyph-name="Acircumflex" unicode="&#xc2;" horiz-adv-x="803" 
d="M599 757h-118l-79 101l-80 -101h-117l114 169h166zM725 91l59 -5v-86h-302v77q0 8 8 9l52 4q10 1 15 9t2 17l-31 77h-282l-40 -101l81 -6v-86h-268v78q0 8 8 8l43 4q10 1 13 9l240 597l148 8zM290 309h195l-97 249z" />
    <glyph glyph-name="Atilde" unicode="&#xc3;" horiz-adv-x="803" 
d="M495 888l76 -15q0 -34 -11.5 -58t-30.5 -36t-45 -14t-60 9q-14 4 -40 15t-33 12q-13 2 -22 -7t-21 -36l-75 23q15 88 77 102q37 8 91 -14q45 -18 61 -14q18 4 33 33zM725 91l59 -5v-86h-302v77q0 8 8 9l52 4q10 1 15 9t2 17l-31 77h-282l-40 -101l81 -6v-86h-268v78
q0 8 8 8l43 4q10 1 13 9l240 597l148 8zM290 309h195l-97 249z" />
    <glyph glyph-name="Adieresis" unicode="&#xc4;" horiz-adv-x="803" 
d="M300 903q28 0 47.5 -20.5t19.5 -46.5t-19.5 -46.5t-47.5 -20.5t-47.5 20t-19.5 47q0 17 8.5 32.5t24 25t34.5 9.5zM503.5 903q18.5 0 34 -9.5t24 -25t8.5 -32.5q0 -26 -19 -46.5t-47.5 -20.5t-48 20.5t-19.5 46.5q0 17 9 32.5t24.5 25t34 9.5zM725 91l59 -5v-86h-302v77
q0 8 8 9l52 4q10 1 15 9t2 17l-31 77h-282l-40 -101l80 -6v-86h-267v78q0 8 8 8l43 4q10 1 13 9l240 597l148 8zM290 309h195l-97 249z" />
    <glyph glyph-name="Aring" unicode="&#xc5;" horiz-adv-x="803" 
d="M402 963q51 0 86 -35.5t35 -85t-35 -85.5t-86 -36q-34 0 -62 16.5t-43.5 44.5t-15.5 60q0 50 35 85.5t86 35.5zM402 898q-22 0 -38 -16t-16 -40t16 -40t38 -16t37.5 16t15.5 40t-15.5 40t-37.5 16zM725 91l59 -5v-86h-302v77q0 8 8 9l52 4q10 1 15 9t2 17l-31 77h-282
l-40 -101l80 -6v-86h-267v78q0 8 8 8l43 4q10 1 13 9l240 597l148 8zM290 309h195l-97 249z" />
    <glyph glyph-name="AE" unicode="&#xc6;" horiz-adv-x="855" 
d="M325 700h481q9 0 9 -9v-188h-83l-5 65q-2 15 -17 15h-178v-175h189v-110h-189v-182h195q16 0 17 16l5 65h83v-188q0 -9 -9 -9h-513v78q0 8 7 8l55 5q16 1 16 17v85h-142l-40 -101l60 -5v-87h-247v78q0 8 8 8l43 4q10 1 13 9zM290 309h98v248z" />
    <glyph glyph-name="Ccedilla" unicode="&#xc7;" horiz-adv-x="646" 
d="M392 708q120 0 208 -62q3 -2 3 -6v-153h-84l-5 65q0 9 -8 12q-55 28 -114 28q-90 -1 -145 -64t-55 -178q0 -117 57.5 -179.5t151.5 -62.5q91 0 176 59l40 -101q-89 -71 -213 -74q-21 -1 -48 2l-15 -36q2 0 3.5 -0.5t3 -0.5t3.5 -0.5t3 -0.5q37 -8 56.5 -32.5t17.5 -55.5
q-3 -37 -34.5 -63.5t-81.5 -26.5q-54 2 -94 30l18 57q25 -14 46 -15q23 -2 38 6.5t17 28.5q0 31 -44 37q-14 1 -35 -1l27 85q-74 21 -129 69.5t-84.5 119t-29.5 155.5q0 157 97 257.5t253 100.5z" />
    <glyph glyph-name="Egrave" unicode="&#xc8;" horiz-adv-x="597" 
d="M370 757h-118l-147 169h158zM48 700h497q9 0 9 -9v-188h-84l-5 65q-1 16 -17 16h-177v-176h189v-110h-189v-182h194q16 0 17 16l5 65h84v-188q0 -9 -9 -9h-514v78q0 8 8 8l55 5q16 1 16 17v484q0 16 -16 17l-55 5q-8 0 -8 8v78z" />
    <glyph glyph-name="Eacute" unicode="&#xc9;" horiz-adv-x="597" 
d="M363 757h-118l107 169h158zM48 700h497q9 0 9 -9v-188h-84l-5 65q-1 16 -17 16h-177v-176h189v-110h-189v-182h194q16 0 17 16l5 65h84v-188q0 -9 -9 -9h-514v78q0 8 8 8l55 5q16 1 16 17v484q0 16 -16 17l-55 5q-8 0 -8 8v78z" />
    <glyph glyph-name="Ecircumflex" unicode="&#xca;" horiz-adv-x="597" 
d="M505 757h-117l-80 101l-79 -101h-118l114 169h166zM48 700h497q9 0 9 -9v-188h-84l-5 65q-1 16 -17 16h-177v-176h189v-110h-189v-182h194q16 0 17 16l5 65h84v-188q0 -9 -9 -9h-514v78q0 8 8 8l55 5q16 1 16 17v484q0 16 -16 17l-55 5q-8 0 -8 8v78z" />
    <glyph glyph-name="Edieresis" unicode="&#xcb;" horiz-adv-x="597" 
d="M206 903q28 0 47.5 -20.5t19.5 -46.5q0 -17 -8.5 -32.5t-24 -25t-34.5 -9.5q-28 0 -47.5 20t-19.5 47t19.5 47t47.5 20zM409.5 903q28.5 0 48 -20.5t19.5 -46.5q0 -17 -8.5 -32.5t-24.5 -25t-34 -9.5q-29 0 -48 20.5t-19 46.5t19 46.5t47.5 20.5zM48 700h497q9 0 9 -9
v-188h-84l-5 65q-1 16 -17 16h-177v-176h189v-110h-189v-182h194q16 0 17 16l5 65h84v-188q0 -9 -9 -9h-514v78q0 8 8 8l55 5q16 1 16 17v484q0 16 -16 17l-55 5q-8 0 -8 8v78z" />
    <glyph glyph-name="Igrave" unicode="&#xcc;" horiz-adv-x="398" 
d="M261 757h-118l-146 169h157zM350 614l-63 -5q-16 -1 -16 -17v-484q0 -16 16 -17l63 -5v-86h-302v78q0 8 8 8l56 5q15 1 15 17v484q0 16 -15 17l-56 5q-8 0 -8 8v78h302v-86z" />
    <glyph glyph-name="Iacute" unicode="&#xcd;" horiz-adv-x="398" 
d="M254 757h-118l108 169h157zM350 614l-63 -5q-16 -1 -16 -17v-484q0 -16 16 -17l63 -5v-86h-302v78q0 8 8 8l56 5q15 1 15 17v484q0 16 -15 17l-56 5q-8 0 -8 8v78h302v-86z" />
    <glyph glyph-name="Icircumflex" unicode="&#xce;" horiz-adv-x="398" 
d="M397 757h-118l-79 101l-80 -101h-118l114 169h167zM350 614l-63 -5q-16 -1 -16 -17v-484q0 -16 16 -17l63 -5v-86h-302v78q0 8 8 8l56 5q15 1 15 17v484q0 16 -15 17l-56 5q-8 0 -8 8v78h302v-86z" />
    <glyph glyph-name="Idieresis" unicode="&#xcf;" horiz-adv-x="398" 
d="M97.5 903q28.5 0 47.5 -20.5t19 -46.5q0 -17 -8.5 -32.5t-24 -25t-34.5 -9.5q-28 0 -47 20t-19 47t19 47t47.5 20zM301 903q28 0 47.5 -20.5t19.5 -46.5q0 -17 -8.5 -32.5t-24 -25t-34.5 -9.5q-28 0 -47.5 20.5t-19.5 46.5t19.5 46.5t47.5 20.5zM350 614l-63 -5
q-16 -1 -16 -17v-484q0 -16 16 -17l63 -5v-86h-302v78q0 8 8 8l56 5q15 1 15 17v484q0 16 -15 17l-56 5q-8 0 -8 8v78h302v-86z" />
    <glyph glyph-name="Eth" unicode="&#xd0;" horiz-adv-x="749" 
d="M48 700h313q157 0 253 -97t96 -253.5t-96 -253t-253 -96.5h-313v78q0 8 8 8l55 5q16 1 16 17v184h-91v116h91v184q0 16 -16 17l-55 5q-8 0 -8 8v78zM314 116l47 1q92 0 146 60t54 173t-54 173.5t-146 60.5h-47l-43 -3v-173h101v-116h-101v-173z" />
    <glyph glyph-name="Ntilde" unicode="&#xd1;" horiz-adv-x="846" 
d="M516 888l76 -15q0 -50 -24 -77.5t-63 -30.5q-26 -2 -60 9q-14 4 -40 15t-33 12q-9 1 -15.5 -2.5t-12.5 -13t-15 -27.5l-75 23q15 88 77 102q37 8 91 -14q45 -18 61 -14q19 4 33 33zM802 614l-63 -5q-16 -1 -16 -17v-592h-131l-338 458v-351q0 -15 15 -16l58 -5v-86h-284
v78q0 8 8 8l56 5q15 1 15 17v484q0 16 -15 17l-56 5q-8 0 -8 8v78h199l350 -473v366q0 15 -15 17l-51 4q-8 0 -8 8v78h284v-86z" />
    <glyph glyph-name="Ograve" unicode="&#xd2;" horiz-adv-x="777" 
d="M450 757h-118l-147 169h158zM388 708q156 0 253 -100.5t97 -258t-97 -258t-253 -100.5t-252.5 100.5t-96.5 258t96.5 258t252.5 100.5zM388.5 592q-60.5 0 -105.5 -28.5t-69.5 -83t-24.5 -130.5q0 -114 54 -178t145.5 -64t145.5 64t54 178q0 76 -25 130.5t-69.5 83
t-105 28.5z" />
    <glyph glyph-name="Oacute" unicode="&#xd3;" horiz-adv-x="777" 
d="M443 757h-118l107 169h158zM388 708q156 0 253 -100.5t97 -258t-97 -258t-253 -100.5t-252.5 100.5t-96.5 258t96.5 258t252.5 100.5zM388.5 592q-91.5 0 -145.5 -64t-54 -178t54 -178t145.5 -64t145.5 64t54 178t-54 178t-145.5 64z" />
    <glyph glyph-name="Ocircumflex" unicode="&#xd4;" horiz-adv-x="777" 
d="M585 757h-117l-80 101l-79 -101h-118l114 169h166zM388 708q156 0 253 -100.5t97 -258t-97 -258t-253 -100.5t-252.5 100.5t-96.5 258t96.5 258t252.5 100.5zM388.5 592q-91.5 0 -145.5 -64t-54 -178t54 -178t145.5 -64t145.5 64t54 178t-54 178t-145.5 64z" />
    <glyph glyph-name="Otilde" unicode="&#xd5;" horiz-adv-x="777" 
d="M482 888l75 -15q0 -50 -23.5 -77.5t-63.5 -30.5q-25 -2 -60 9q-9 2 -21 7t-21 9t-17.5 7t-13.5 4q-13 2 -21.5 -7t-20.5 -36l-76 23q15 88 78 102q36 8 90 -14q45 -18 61 -14q19 4 34 33zM388 708q156 0 253 -100.5t97 -258t-97 -258t-253 -100.5t-252.5 100.5t-96.5 258
t96.5 258t252.5 100.5zM388.5 592q-60.5 0 -105.5 -28.5t-69.5 -83t-24.5 -130.5q0 -114 54 -178t145.5 -64t145.5 64t54 178q0 76 -25 130.5t-69.5 83t-105 28.5z" />
    <glyph glyph-name="Odieresis" unicode="&#xd6;" horiz-adv-x="777" 
d="M286 903q28 0 47.5 -20.5t19.5 -46.5q0 -17 -8.5 -32.5t-24 -25t-34.5 -9.5q-28 0 -47.5 20t-19.5 47t19.5 47t47.5 20zM490 903q28 0 47.5 -20.5t19.5 -46.5q0 -17 -8.5 -32.5t-24 -25t-34.5 -9.5q-28 0 -47.5 20.5t-19.5 46.5t19.5 46.5t47.5 20.5zM388 708
q156 0 253 -100.5t97 -258t-97 -258t-253 -100.5t-252.5 100.5t-96.5 258t96.5 258t252.5 100.5zM388.5 592q-60.5 0 -105.5 -28.5t-69.5 -83t-24.5 -130.5q0 -114 54 -178t145.5 -64t145.5 64t54 178q0 76 -25 130.5t-69.5 83t-105 28.5z" />
    <glyph glyph-name="multiply" unicode="&#xd7;" horiz-adv-x="472" 
d="M436 408l-118 -118l118 -117l-83 -82l-117 117l-118 -117l-82 82l117 117l-117 118l82 82l118 -117l117 117z" />
    <glyph glyph-name="Oslash" unicode="&#xd8;" horiz-adv-x="777" 
d="M593 750l-28 -85q82 -44 127.5 -126.5t45.5 -188.5q0 -158 -97 -258.5t-253 -100.5q-21 0 -41 2l-14 -43h-149l27 84q-81 44 -126.5 127t-45.5 189q0 157 96.5 257.5t252.5 100.5q21 0 41 -2l14 44h150zM189 350q0 -124 63 -189l140 431h-4q-91 0 -145 -64t-54 -178z
M385 108h3q92 0 146 64t54 178q0 124 -64 188z" />
    <glyph glyph-name="Ugrave" unicode="&#xd9;" horiz-adv-x="827" 
d="M476 757h-119l-146 169h157zM783 613l-67 -6q-15 -1 -15 -16v-318q0 -127 -77.5 -205t-206.5 -78t-206.5 78t-77.5 205v317q0 16 -16 17l-61 5q-8 1 -8 9v78h308v-86l-63 -5q-15 -2 -15 -17v-318q0 -82 40 -124.5t108 -42.5q69 0 111.5 43t42.5 124v318q0 15 -15 16
l-66 6v86h284v-86z" />
    <glyph glyph-name="Uacute" unicode="&#xda;" horiz-adv-x="827" 
d="M468 757h-118l108 169h157zM783 613l-67 -6q-15 -1 -15 -16v-318q0 -127 -77.5 -205t-206.5 -78t-206.5 78t-77.5 205v317q0 16 -16 17l-61 5q-8 1 -8 9v78h308v-86l-63 -5q-15 -2 -15 -17v-318q0 -82 40 -124.5t108 -42.5q45 0 79.5 18t54.5 56t20 93v318q0 15 -15 16
l-66 6v86h284v-86z" />
    <glyph glyph-name="Ucircumflex" unicode="&#xdb;" horiz-adv-x="827" 
d="M611 757h-118l-79 101l-80 -101h-118l114 169h167zM783 613l-67 -6q-15 -1 -15 -16v-318q0 -127 -77.5 -205t-206.5 -78t-206.5 78t-77.5 205v317q0 16 -16 17l-61 5q-8 1 -8 9v78h308v-86l-63 -5q-15 -2 -15 -17v-318q0 -82 40 -124.5t108 -42.5q69 0 111.5 43t42.5 124
v318q0 15 -15 16l-66 6v86h284v-86z" />
    <glyph glyph-name="Udieresis" unicode="&#xdc;" horiz-adv-x="827" 
d="M311.5 903q28.5 0 48 -20.5t19.5 -46.5q0 -17 -9 -32.5t-24.5 -25t-33.5 -9.5q-29 0 -48 20t-19 47t19 47t47.5 20zM515 903q28 0 47.5 -20.5t19.5 -46.5q0 -17 -8.5 -32.5t-24 -25t-34.5 -9.5q-28 0 -47.5 20.5t-19.5 46.5t19.5 46.5t47.5 20.5zM783 613l-67 -6
q-15 -1 -15 -16v-318q0 -127 -77.5 -205t-206.5 -78t-206.5 78t-77.5 205v317q0 16 -16 17l-61 5q-8 1 -8 9v78h308v-86l-63 -5q-15 -2 -15 -17v-318q0 -82 40 -124.5t108 -42.5q45 0 79.5 18t54.5 56t20 93v318q0 15 -15 16l-66 6v86h284v-86z" />
    <glyph glyph-name="Yacute" unicode="&#xdd;" horiz-adv-x="708" 
d="M408 757h-117l107 169h157zM688 614l-48 -4l-206 -367v-135q0 -16 15 -17l64 -5v-86h-302v78q0 8 8 8l55 5q16 1 16 17v128l-208 367q-4 6 -12 7l-43 4q-8 0 -8 8v78h166l188 -336l119 216q6 11 1 20t-17 10l-47 4q-8 1 -8 9v77h267v-86z" />
    <glyph glyph-name="Thorn" unicode="&#xde;" horiz-adv-x="657" 
d="M271 619h115q103 0 167.5 -58.5t64.5 -150.5t-64.5 -150.5t-167.5 -58.5h-115v-93q0 -15 15 -17l67 -5v-86h-305v78q0 8 8 8l55 5q16 1 16 17v520q0 15 -16 16l-55 5q-8 1 -8 9v77h223v-116zM271 502v-184h107q48 0 75 24.5t27 67.5t-27 67.5t-75 24.5h-107z" />
    <glyph glyph-name="germandbls" unicode="&#xdf;" horiz-adv-x="684" 
d="M354 750q118 0 181 -49t63 -132q0 -37 -14.5 -63t-44.5 -54q-23 -24 -21 -52q1 -30 30 -49q27 -18 43 -30t33.5 -31t25.5 -41.5t8 -51.5q0 -90 -72 -146.5t-186 -56.5q-53 0 -99 14v162h83l4 -50q1 -8 10 -9q12 -1 26 -1q27 1 47 11t31 28t11 44q0 9 -2.5 17t-5.5 14
t-12 13.5t-15 12t-22 15.5t-25 19q-59 46 -59 113q0 30 8 52.5t31 46.5q18 18 24.5 25t12 19t5.5 27q0 32 -25 50.5t-70 18.5q-49 0 -76 -22t-27 -61v-553h-205v78q0 8 7 8l38 3q15 2 15 17v451q0 43 16 78.5t46.5 61t76.5 39.5t105 14z" />
    <glyph glyph-name="agrave" unicode="&#xe0;" horiz-adv-x="567" 
d="M329 557h-118l-147 169h158zM256 508q42 1 78 -9.5t65.5 -31t46.5 -56t17 -82.5v-227q0 -15 15 -17l56 -4v-81h-177q-7 0 -8 7l-7 53q-27 -32 -67 -51t-86 -19q-70 0 -113.5 41.5t-43.5 104.5q0 60 43 92t135 57l119 32v14q-1 79 -88 79q-43 -1 -86 -19q-9 -4 -9 -13
l-5 -52h-69v129q0 4 3 6q33 20 83 33.5t98 13.5zM329 235l-88 -24q-42 -11 -58 -23.5t-16 -37.5q0 -27 19 -42.5t52 -15.5q57 0 89 42l2 3v98z" />
    <glyph glyph-name="aacute" unicode="&#xe1;" horiz-adv-x="567" 
d="M322 557h-118l107 169h157zM256 508q42 1 78 -9.5t65.5 -31t46.5 -56t17 -82.5v-227q0 -15 15 -17l56 -4v-81h-177q-7 0 -8 7l-7 53q-27 -32 -67 -51t-86 -19q-70 0 -113.5 41.5t-43.5 104.5q0 60 43 92t135 57l119 32v14q-1 79 -88 79q-43 -1 -86 -19q-9 -4 -9 -13
l-5 -52h-69v129q0 4 3 6q33 20 83 33.5t98 13.5zM329 235l-88 -24q-42 -11 -58 -23.5t-16 -37.5q0 -27 19 -42.5t52 -15.5q57 0 89 42l2 3v98z" />
    <glyph glyph-name="acircumflex" unicode="&#xe2;" horiz-adv-x="567" 
d="M464 557h-118l-79 101l-80 -101h-117l114 169h166zM256 508q42 1 78 -9.5t65.5 -31t46.5 -56t17 -82.5v-227q0 -15 15 -17l56 -4v-81h-177q-7 0 -8 7l-7 53q-17 -21 -40.5 -36.5t-52.5 -24.5t-60 -9q-70 0 -113.5 41.5t-43.5 104.5q0 32 11.5 55t36 40.5t55 29t75.5 24.5
l119 32v14q-1 79 -88 79q-43 -1 -86 -19q-9 -4 -9 -13l-5 -52h-69v129q0 4 3 6q33 20 83 33.5t98 13.5zM329 235l-88 -24q-42 -11 -58 -23.5t-16 -37.5q0 -27 19 -42.5t52 -15.5q57 0 89 42l2 3v98z" />
    <glyph glyph-name="atilde" unicode="&#xe3;" horiz-adv-x="567" 
d="M360 688l76 -15q0 -34 -11.5 -58t-30.5 -36t-45 -14t-60 9q-12 3 -27.5 9.5t-27.5 11.5t-18 6q-9 1 -15.5 -2.5t-12.5 -13t-15 -27.5l-75 23q15 88 77 102q37 8 91 -14q45 -18 61 -14q18 4 33 33zM256 508q42 1 78 -9.5t65.5 -31t46.5 -56t17 -82.5v-227q0 -15 15 -17
l56 -4v-81h-177q-7 0 -8 7l-7 53q-27 -32 -67 -51t-86 -19q-70 0 -113.5 41.5t-43.5 104.5q0 60 43 92t135 57l119 32v14q-1 79 -88 79q-43 -1 -86 -19q-9 -4 -9 -13l-5 -52h-69v129q0 4 3 6q33 20 83 33.5t98 13.5zM329 235l-88 -24q-42 -11 -58 -23.5t-16 -37.5
q0 -27 19 -42.5t52 -15.5q57 0 89 42l2 3v98z" />
    <glyph glyph-name="adieresis" unicode="&#xe4;" horiz-adv-x="567" 
d="M165 703q28 0 47.5 -20.5t19.5 -46.5q0 -17 -8.5 -32.5t-24 -25t-34.5 -9.5q-28 0 -47.5 20t-19.5 47t19.5 47t47.5 20zM368.5 703q28.5 0 47.5 -20.5t19 -46.5q0 -17 -8.5 -32.5t-24 -25t-34.5 -9.5q-28 0 -47.5 20.5t-19.5 46.5t19.5 46.5t48 20.5zM256 508
q42 1 78 -9.5t65.5 -31t46.5 -56t17 -82.5v-227q0 -15 15 -17l56 -4v-81h-177q-7 0 -8 7l-7 53q-27 -32 -67 -51t-86 -19q-70 0 -113.5 41.5t-43.5 104.5q0 60 43 92t135 57l119 32v14q-1 79 -88 79q-43 -1 -86 -19q-9 -4 -9 -13l-5 -52h-69v129q0 4 3 6q33 20 83 33.5
t98 13.5zM329 235l-88 -24q-42 -11 -58 -23.5t-16 -37.5q0 -27 19 -42.5t52 -15.5q57 0 89 42l2 3v98z" />
    <glyph glyph-name="aring" unicode="&#xe5;" horiz-adv-x="567" 
d="M267 763q51 0 86 -35.5t35 -85t-35 -85.5t-86 -36t-86 36t-35 85.5t35 85t86 35.5zM267 698q-22 0 -38 -16t-16 -40t16 -40t38 -16t37.5 16t15.5 40t-15.5 40t-37.5 16zM256 508q42 1 78 -9.5t65.5 -31t46.5 -56t17 -82.5v-227q0 -15 15 -17l56 -4v-81h-177q-7 0 -8 7
l-7 53q-27 -32 -67 -51t-86 -19q-70 0 -113.5 41.5t-43.5 104.5q0 60 43 92t135 57l119 32v14q-1 79 -88 79q-43 -1 -86 -19q-9 -4 -9 -13l-5 -52h-69v129q0 4 3 6q33 20 83 33.5t98 13.5zM329 235l-88 -24q-42 -11 -58 -23.5t-16 -37.5q0 -27 19 -42.5t52 -15.5q57 0 89 42
l2 3v98z" />
    <glyph glyph-name="ae" unicode="&#xe6;" horiz-adv-x="883" 
d="M613 510q82 0 136.5 -32.5t78.5 -88.5t25 -135v-17q0 -9 -10 -10l-328 -11q6 -60 40 -93.5t86 -32.5q75 0 145 56l36 -91q-72 -65 -187 -65q-68 0 -121 26t-86 74l-6 -20q-95 -78 -214 -80q-78 0 -127 38t-49 108q0 60 43 92t135 57l119 32v15q-1 78 -88 78
q-43 -1 -86 -19q-9 -4 -9 -13l-5 -52h-69v129q0 4 3 6q16 9 36.5 17.5t44 15t49.5 10.5t51 4q59 1 105.5 -21t69.5 -68q63 91 182 91zM616 416q-29 0 -50.5 -12.5t-34.5 -38.5t-17 -64h190q3 0 5 2t3 5t0 7q-5 51 -28 76t-68 25zM329 235l-88 -24q-42 -11 -58 -23.5
t-16 -37.5q0 -18 8.5 -31t24.5 -20t38 -7q57 0 89 42l2 3v98z" />
    <glyph glyph-name="ccedilla" unicode="&#xe7;" horiz-adv-x="493" 
d="M278 -44q36 -8 55.5 -32.5t17.5 -55.5q-3 -37 -34 -63.5t-82 -26.5q-54 2 -94 30l19 57q24 -14 45 -15q23 -2 38.5 6.5t16.5 28.5q0 31 -44 37q-13 1 -34 -1l26 83q-81 25 -127 91t-46 155q0 114 72.5 187t193.5 73q84 0 148 -39q3 -2 3 -6v-151h-83l-6 72q-1 9 -9 12
q-24 12 -53 12q-38 0 -66.5 -18t-45.5 -54.5t-17 -87.5q0 -78 35.5 -119t95.5 -41q59 0 124 40l36 -93q-68 -47 -162 -47l-22 1l-15 -33q3 0 7.5 -0.5t6.5 -1.5z" />
    <glyph glyph-name="egrave" unicode="&#xe8;" horiz-adv-x="545" 
d="M334 557h-118l-146 169h157zM274 510q122 0 180.5 -67.5t59.5 -187.5v-21q0 -6 -6 -7l-332 -11q6 -60 40 -93.5t86 -32.5q75 0 145 56l37 -91q-73 -65 -188 -65q-119 0 -190 73.5t-71 187t65 186.5t174 73zM277 416q-44 0 -70 -29t-32 -86h190q4 0 7 4t2 10
q-3 25 -10 43.5t-18.5 31.5t-28.5 19.5t-40 6.5z" />
    <glyph glyph-name="eacute" unicode="&#xe9;" horiz-adv-x="545" 
d="M327 557h-118l107 169h158zM274 510q122 0 180.5 -67.5t59.5 -187.5v-21q0 -6 -6 -7l-332 -11q6 -60 40 -93.5t86 -32.5q75 0 145 56l37 -91q-73 -65 -188 -65q-119 0 -190 73.5t-71 187t65 186.5t174 73zM277 416q-44 0 -70 -29t-32 -86h190q3 0 5 2t3 5t0 7
q-3 34 -14 56t-31.5 33.5t-50.5 11.5z" />
    <glyph glyph-name="ecircumflex" unicode="&#xea;" horiz-adv-x="545" 
d="M469 557h-117l-80 101l-79 -101h-118l114 169h166zM274 510q122 0 180.5 -67.5t59.5 -187.5v-21q0 -6 -6 -7l-332 -11q6 -60 40 -93.5t86 -32.5q75 0 145 56l37 -91q-73 -65 -188 -65q-119 0 -190 73.5t-71 187t65 186.5t174 73zM277 416q-44 0 -70 -29t-32 -86h190
q4 0 7 4t2 10q-3 25 -10 43.5t-18.5 31.5t-28.5 19.5t-40 6.5z" />
    <glyph glyph-name="edieresis" unicode="&#xeb;" horiz-adv-x="545" 
d="M170 703q28 0 47.5 -20.5t19.5 -46.5t-19.5 -46.5t-47.5 -20.5t-47 20t-19 47t19 47t47 20zM374 703q28 0 47.5 -20.5t19.5 -46.5t-19.5 -46.5t-47.5 -20.5t-47.5 20.5t-19.5 46.5t19.5 46.5t47.5 20.5zM274 510q82 0 136.5 -32.5t79 -88.5t24.5 -134v-21q0 -6 -6 -7
l-332 -11q6 -60 40 -93.5t86 -32.5q75 0 145 56l37 -91q-73 -65 -188 -65q-119 0 -190 73.5t-71 186.5q0 74 28.5 133t83.5 93t127 34zM277 416q-44 0 -70 -29t-32 -86h190q4 0 7 4t1 10q-5 51 -28 76t-68 25z" />
    <glyph glyph-name="igrave" unicode="&#xec;" horiz-adv-x="384" 
d="M245 557h-118l-147 169h158zM48 496l202 11q9 0 9 -9v-395q0 -15 16 -17l65 -5v-81h-292v73q0 8 8 9l54 4q15 2 15 17v294q0 5 -2 8.5t-5.5 6t-8.5 2.5l-61 3v79z" />
    <glyph glyph-name="iacute" unicode="&#xed;" horiz-adv-x="384" 
d="M238 557h-118l107 169h158zM48 496l202 11q9 0 9 -9v-395q0 -15 16 -17l65 -5v-81h-292v73q0 8 8 9l54 4q15 2 15 17v294q0 7 -4.5 12t-11.5 5l-61 3v79z" />
    <glyph glyph-name="icircumflex" unicode="&#xee;" horiz-adv-x="384" 
d="M380 557h-117l-80 101l-79 -101h-118l114 169h166zM48 496l202 11q9 0 9 -9v-395q0 -15 16 -17l65 -5v-81h-292v73q0 8 8 9l54 4q15 2 15 17v294q0 5 -2 8.5t-5.5 6t-8.5 2.5l-61 3v79z" />
    <glyph glyph-name="idieresis" unicode="&#xef;" horiz-adv-x="384" 
d="M81 703q28 0 47.5 -20.5t19.5 -46.5t-19.5 -46.5t-47.5 -20.5t-47.5 20t-19.5 47t19.5 47t47.5 20zM284.5 703q28.5 0 48 -20.5t19.5 -46.5t-19.5 -46.5t-48 -20.5t-47.5 20.5t-19 46.5t19 46.5t47.5 20.5zM48 496l202 11q9 0 9 -9v-395q0 -15 16 -17l65 -5v-81h-292v73
q0 8 8 9l54 4q15 2 15 17v294q0 7 -4.5 12t-11.5 5l-61 3v79z" />
    <glyph glyph-name="eth" unicode="&#xf0;" horiz-adv-x="542" 
d="M501 365q12 -157 -50.5 -260.5t-183.5 -113.5q-98 -8 -163.5 53t-73.5 163q-7 95 44 158.5t142 71.5q85 7 138 -48q-4 22 -10 43q-16 68 -58 114l-106 -58l-51 67l86 48q-60 33 -141 39l18 107q136 -3 242 -81l96 53l51 -67l-82 -45q16 -19 30 -40q63 -91 72 -204z
M263 104q43 3 70.5 41.5t32.5 102.5l-3 12q-12 38 -39 57t-65 16q-45 -4 -70.5 -37.5t-21.5 -85.5q4 -53 30.5 -81.5t65.5 -24.5z" />
    <glyph glyph-name="ntilde" unicode="&#xf1;" horiz-adv-x="701" 
d="M442 688l76 -15q-1 -50 -24.5 -77.5t-63.5 -30.5q-25 -2 -59 9q-14 4 -40 15t-33 12q-9 1 -15.5 -2.5t-13 -13t-14.5 -27.5l-76 23q15 88 78 102q37 8 91 -14q44 -18 61 -14q18 4 33 33zM444 509q66 0 106 -40.5t40 -117.5v-248q0 -16 16 -17l61 -5v-81h-202q-9 0 -9 9
v317q0 84 -75 84q-58 0 -130 -46v-261q0 -16 15 -17l65 -5v-81h-291v73q0 8 7 9l55 4q15 2 15 17v294q0 7 -4.5 12t-11.5 5l-61 3v79l202 11q9 0 9 -9v-63q44 33 96 53.5t97 20.5z" />
    <glyph glyph-name="ograve" unicode="&#xf2;" horiz-adv-x="601" 
d="M363 557h-118l-147 169h157zM300.5 510q120.5 0 193 -73t72.5 -186.5t-72.5 -187t-193 -73.5t-193 73.5t-72.5 187t72.5 186.5t193 73zM300.5 410q-37.5 0 -66 -18t-45.5 -54.5t-17 -87.5q0 -76 35.5 -118t93.5 -42q37 0 66 18t45.5 54.5t16.5 87.5t-16.5 87.5
t-45.5 54.5t-66.5 18z" />
    <glyph glyph-name="oacute" unicode="&#xf3;" horiz-adv-x="601" 
d="M356 557h-118l107 169h157zM300.5 510q120.5 0 193 -73t72.5 -186.5t-72.5 -187t-192.5 -73.5q-81 0 -141.5 34t-92.5 93t-32 133q0 114 72.5 187t193 73zM301 410q-38 0 -66.5 -18t-45.5 -54.5t-17 -87.5q0 -76 35.5 -118t93 -42t93 42t35.5 118t-35.5 118t-92.5 42z
" />
    <glyph glyph-name="ocircumflex" unicode="&#xf4;" horiz-adv-x="601" 
d="M498 557h-118l-79 101l-80 -101h-118l115 169h166zM300.5 510q120.5 0 193 -73t72.5 -186.5t-72.5 -187t-193 -73.5t-193 73.5t-72.5 187t72.5 186.5t193 73zM301 410q-38 0 -66.5 -18t-45.5 -54.5t-17 -87.5q0 -76 35.5 -118t93 -42t93 42t35.5 118t-35.5 118t-92.5 42z
" />
    <glyph glyph-name="otilde" unicode="&#xf5;" horiz-adv-x="601" 
d="M394 688l76 -15q-1 -50 -24.5 -77.5t-62.5 -30.5q-26 -2 -60 9q-14 4 -40 15t-33 12q-13 2 -22 -7t-21 -36l-76 23q16 88 78 102q37 8 91 -14q44 -18 61 -14q18 4 33 33zM300.5 510q120.5 0 193 -73t72.5 -186.5t-72.5 -187t-192.5 -73.5q-81 0 -141.5 34t-92.5 93
t-32 133q0 114 72.5 187t193 73zM300.5 410q-57.5 0 -93 -42t-35.5 -118t35.5 -118t93 -42t93 42t35.5 118t-35.5 118t-93 42z" />
    <glyph glyph-name="odieresis" unicode="&#xf6;" horiz-adv-x="601" 
d="M198.5 703q28.5 0 48 -20.5t19.5 -46.5q0 -17 -8.5 -32.5t-24.5 -25t-34 -9.5q-29 0 -48 20t-19 47t19 47t47.5 20zM402.5 703q28.5 0 47.5 -20.5t19 -46.5q0 -17 -8.5 -32.5t-24 -25t-34.5 -9.5q-28 0 -47.5 20.5t-19.5 46.5t19.5 46.5t48 20.5zM300.5 510
q120.5 0 193 -73t72.5 -186.5t-72.5 -187t-193 -73.5t-193 73.5t-72.5 187t72.5 186.5t193 73zM300.5 410q-57.5 0 -93 -42t-35.5 -118t35.5 -118t93 -42t93 42t35.5 118t-35.5 118t-93 42z" />
    <glyph glyph-name="divide" unicode="&#xf7;" horiz-adv-x="572" 
d="M287 622q11 0 20.5 -3t17.5 -7.5t14.5 -11.5t11 -15t7 -17t2.5 -19q0 -28 -21 -50t-51.5 -22t-51.5 22t-21 50q0 19 9 35.5t26 27t37 10.5zM536 289h-500v117h500v-117zM287 218q21 0 37.5 -10.5t26 -27t9.5 -34.5q0 -29 -21 -51t-51.5 -22t-51.5 22t-21 50.5t21 50.5
t51 22z" />
    <glyph glyph-name="oslash" unicode="&#xf8;" horiz-adv-x="601" 
d="M452 550l-22 -68q43 -21 73.5 -55.5t46.5 -79.5t16 -97q0 -113 -72.5 -186.5t-192.5 -73.5q-16 0 -31 1l-13 -41h-107l22 68q-65 31 -101 92.5t-36 139.5q0 114 72.5 187t193.5 73q15 0 30 -1l13 41h108zM172 250q0 -76 36 -119l91 279q-57 0 -92 -42t-35 -118zM393 369
l-91 -279q57 0 92 42t35 118t-36 119z" />
    <glyph glyph-name="ugrave" unicode="&#xf9;" horiz-adv-x="694" 
d="M409 557h-118l-147 169h158zM33 499h203q8 0 8 -9v-317q0 -84 76 -84q58 0 130 46v261q0 16 -16 17l-64 5v81h205q9 0 9 -9v-388q0 -7 4.5 -12t11.5 -5l61 -3v-79l-202 -10q-4 -1 -6.5 2t-2.5 7v62q-44 -33 -96 -53.5t-97 -20.5q-66 0 -106.5 40.5t-40.5 117.5v248
q0 16 -15 17l-62 5v81z" />
    <glyph glyph-name="uacute" unicode="&#xfa;" horiz-adv-x="694" 
d="M402 557h-118l107 169h158zM33 499h203q8 0 8 -9v-317q0 -84 76 -84q58 0 130 46v261q0 16 -16 17l-64 5v81h205q9 0 9 -9v-388q0 -7 4.5 -12t11.5 -5l61 -3v-79l-202 -10q-4 -1 -6.5 2t-2.5 7v62q-44 -33 -96 -53.5t-97 -20.5q-66 0 -106 40.5t-40 117.5l-1 248
q0 16 -15 17l-62 5v81z" />
    <glyph glyph-name="ucircumflex" unicode="&#xfb;" horiz-adv-x="694" 
d="M544 557h-117l-80 101l-79 -101h-118l114 169h166zM33 499h203q8 0 8 -9v-317q0 -84 76 -84q58 0 130 46v261q0 16 -16 17l-64 5v81h205q9 0 9 -9v-388q0 -7 4.5 -12t11.5 -5l61 -3v-79l-202 -10q-4 -1 -6.5 2t-2.5 7v62q-44 -33 -96 -53.5t-97 -20.5q-66 0 -106.5 40.5
t-40.5 117.5v248q0 16 -15 17l-62 5v81z" />
    <glyph glyph-name="udieresis" unicode="&#xfc;" horiz-adv-x="694" 
d="M245 703q28 0 47.5 -20.5t19.5 -46.5t-19.5 -46.5t-47.5 -20.5t-47.5 20t-19.5 47t19.5 47t47.5 20zM449 703q28 0 47.5 -20.5t19.5 -46.5t-19.5 -46.5t-47.5 -20.5t-47.5 20.5t-19.5 46.5t19.5 46.5t47.5 20.5zM33 499h203q8 0 8 -9v-317q0 -84 76 -84q58 0 130 46v261
q0 16 -16 17l-64 5v81h205q9 0 9 -9v-388q0 -7 4.5 -12t11.5 -5l61 -3v-79l-202 -10q-4 -1 -6.5 2t-2.5 7v62q-44 -33 -96 -53.5t-97 -20.5q-66 0 -106.5 40.5t-40.5 117.5v248q0 16 -15 17l-62 5v81z" />
    <glyph glyph-name="yacute" unicode="&#xfd;" horiz-adv-x="580" 
d="M346 557h-118l107 169h158zM567 419l-48 -4l-248 -621q-2 -5 -7 -5h-209v80l129 11q10 2 13 10l43 109h-22l-155 407q-3 9 -13 10l-30 3q-7 1 -7 9v72h158l124 -366l101 254q4 10 -1 17.5t-16 8.5l-51 4q-7 1 -7 9v73h246v-81z" />
    <glyph glyph-name="thorn" unicode="&#xfe;" horiz-adv-x="641" 
d="M48 739l202 11q9 0 9 -9v-286q58 55 140 55q93 0 149.5 -66.5t56.5 -195.5q0 -37 -5 -71t-19.5 -68.5t-36.5 -60t-58 -41.5t-83 -16q-89 0 -144 59v-158q0 -8 4.5 -12.5t11.5 -4.5l64 -6v-80h-291v73q0 6 8 8l54 4q15 2 15 18v748q0 7 -4.5 12t-11.5 5l-61 3v79zM340 407
q-51 0 -81 -35v-226q33 -56 95 -56q53 0 84 41.5t31 117t-35.5 117t-93.5 41.5z" />
    <glyph glyph-name="ydieresis" unicode="&#xff;" horiz-adv-x="580" 
d="M189 703q28 0 47.5 -20.5t19.5 -46.5t-19.5 -46.5t-47.5 -20.5t-47.5 20t-19.5 47t19.5 47t47.5 20zM393 703q28 0 47.5 -20.5t19.5 -46.5t-19.5 -46.5t-47.5 -20.5t-47.5 20.5t-19.5 46.5t19.5 46.5t47.5 20.5zM567 419l-48 -4l-248 -621q-2 -5 -7 -5h-209v80l129 11
q10 2 13 10l43 109h-22l-155 407q-3 9 -13 10l-30 3q-7 1 -7 9v72h158l124 -366l101 254q4 10 -1 17.5t-16 8.5l-51 4q-7 1 -7 9v73h246v-81z" />
    <glyph glyph-name="Amacron" unicode="&#x100;" horiz-adv-x="803" 
d="M569 777h-335v97h335v-97zM725 91l59 -5v-86h-302v77q0 8 8 9l52 4q10 1 15 9t2 17l-31 77h-282l-40 -101l81 -6v-86h-268v78q0 8 8 8l43 4q10 1 13 9l240 597l148 8zM290 309h195l-97 249z" />
    <glyph glyph-name="amacron" unicode="&#x101;" horiz-adv-x="567" 
d="M434 577h-335v97h335v-97zM256 508q42 1 78 -9.5t65.5 -31t46.5 -56t17 -82.5v-227q0 -15 15 -17l56 -4v-81h-177q-7 0 -8 7l-7 53q-27 -32 -67 -51t-86 -19q-70 0 -113.5 41.5t-43.5 104.5q0 60 43 92t135 57l119 32v14q-1 79 -88 79q-43 -1 -86 -19q-9 -4 -9 -13
l-5 -52h-69v129q0 4 3 6q33 20 83 33.5t98 13.5zM329 235l-88 -24q-42 -11 -58 -23.5t-16 -37.5q0 -27 19 -42.5t52 -15.5q57 0 89 42l2 3v98z" />
    <glyph glyph-name="Abreve" unicode="&#x102;" horiz-adv-x="803" 
d="M480 912h84q0 -66 -46.5 -112.5t-115.5 -46.5t-115.5 46.5t-46.5 112.5h83q0 -34 23 -57.5t56 -23.5q21 0 39 10.5t28.5 29t10.5 41.5zM725 91l59 -5v-86h-302v77q0 8 8 9l52 4q10 1 15 9t2 17l-31 77h-282l-40 -101l80 -6v-86h-267v78q0 8 8 8l43 4q10 1 13 9l240 597
l148 8zM290 309h195l-97 249z" />
    <glyph glyph-name="abreve" unicode="&#x103;" horiz-adv-x="567" 
d="M345 712h84q0 -43 -21 -79.5t-58.5 -58t-82.5 -21.5q-69 0 -115.5 46.5t-46.5 112.5h83q0 -34 23 -57.5t56 -23.5q21 0 39 10.5t28.5 29t10.5 41.5zM256 508q42 1 78 -9.5t65.5 -31t46.5 -56t17 -82.5v-227q0 -15 15 -17l56 -4v-81h-177q-7 0 -8 7l-7 53q-27 -32 -67 -51
t-86 -19q-70 0 -113.5 41.5t-43.5 104.5q0 60 43 92t135 57l119 32v14q-1 79 -88 79q-43 -1 -86 -19q-9 -4 -9 -13l-5 -52h-69v129q0 4 3 6q33 20 83 33.5t98 13.5zM329 235l-88 -24q-42 -11 -58 -23.5t-16 -37.5q0 -18 8.5 -31t24.5 -20t38 -7q57 0 89 42l2 3v98z" />
    <glyph glyph-name="Aogonek" unicode="&#x104;" horiz-adv-x="803" 
d="M725 91l59 -5v-86h-225q-42 -31 -42 -77q-1 -26 14 -40t39 -14q19 -1 46 10l19 -67q-46 -22 -92 -24q-33 0 -57.5 12.5t-37.5 33t-15 46.5q-6 66 49 120v77q0 8 8 9l52 4q10 1 15 9t2 17l-31 77h-282l-40 -101l81 -6v-86h-268v78q0 8 8 8l43 4q10 1 13 9l240 597l148 8z
M290 309h195l-97 249z" />
    <glyph glyph-name="aogonek" unicode="&#x105;" horiz-adv-x="567" 
d="M256 508q42 1 78 -9.5t65.5 -31t46.5 -56t17 -82.5v-227q0 -15 15 -17l56 -4v-81h-117q-42 -31 -42 -77q0 -26 14.5 -40t39.5 -14q18 -1 45 10l19 -67q-46 -22 -92 -24q-48 0 -77 26t-33 66q-3 33 12 66.5t46 60.5l-7 53q-27 -32 -67 -51t-86 -19q-70 0 -113.5 41.5
t-43.5 104.5q0 60 43 92t135 57l119 32v14q-1 79 -88 79q-43 -1 -86 -19q-9 -4 -9 -13l-5 -52h-69v129q0 4 3 6q16 9 36.5 17.5t44 15t49.5 10.5t51 4zM329 235l-88 -24q-42 -11 -58 -23.5t-16 -37.5q0 -27 19 -42.5t52 -15.5q57 0 89 42l2 3v98z" />
    <glyph glyph-name="Cacute" unicode="&#x106;" horiz-adv-x="646" 
d="M420 757h-118l107 169h157zM392 708q120 0 208 -62q3 -2 3 -6v-153h-84l-5 65q0 9 -8 12q-55 28 -114 28q-90 -1 -145 -64t-55 -178q0 -117 57.5 -179.5t151.5 -62.5q91 0 176 59l40 -101q-93 -75 -225 -75q-156 0 -253 100.5t-97 258t97 258t253 100.5z" />
    <glyph glyph-name="cacute" unicode="&#x107;" horiz-adv-x="493" 
d="M331 557h-118l107 169h157zM301 510q84 0 148 -39q3 -2 3 -6v-151h-83l-6 72q-1 9 -9 12q-24 12 -53 12q-38 0 -66.5 -18t-45.5 -54.5t-17 -87.5q0 -78 35.5 -119t95.5 -41q59 0 124 40l36 -93q-68 -47 -162 -47q-121 0 -193.5 73.5t-72.5 187t72.5 186.5t193.5 73z" />
    <glyph glyph-name="Cdotaccent" unicode="&#x10a;" horiz-adv-x="646" 
d="M364.5 903q28.5 0 47.5 -20.5t19 -46.5q0 -17 -8.5 -32.5t-24 -25t-34.5 -9.5q-28 0 -47 20t-19 47t19 47t47.5 20zM392 708q120 0 208 -62q3 -2 3 -6v-153h-84l-5 65q0 9 -8 12q-55 28 -114 28q-90 -1 -145 -64t-55 -178q0 -117 57.5 -179.5t151.5 -62.5q91 0 176 59
l40 -101q-93 -75 -225 -75q-156 0 -253 100.5t-97 258t97 258t253 100.5z" />
    <glyph glyph-name="cdotaccent" unicode="&#x10b;" horiz-adv-x="493" 
d="M280.5 703q28.5 0 48 -20.5t19.5 -46.5q0 -17 -8.5 -32.5t-24.5 -25t-34 -9.5q-29 0 -48 20t-19 47t19 47t47.5 20zM301 510q84 0 148 -39q3 -2 3 -6v-151h-83l-6 72q-1 9 -9 12q-24 12 -53 12q-58 0 -93.5 -42t-35.5 -118q0 -78 35.5 -119t95.5 -41q59 0 124 40l36 -93
q-68 -47 -162 -47q-121 0 -193.5 73.5t-72.5 187t72.5 186.5t193.5 73z" />
    <glyph glyph-name="Ccaron" unicode="&#x10c;" horiz-adv-x="646" 
d="M448 757h-166l-115 169h118l80 -101l79 101h118zM392 708q120 0 208 -62q3 -2 3 -6v-153h-84l-5 65q0 9 -8 12q-55 28 -114 28q-90 -1 -145 -64t-55 -178q0 -117 57.5 -179.5t151.5 -62.5q91 0 176 59l40 -101q-93 -75 -225 -75q-156 0 -253 100.5t-97 258t97 258
t253 100.5z" />
    <glyph glyph-name="ccaron" unicode="&#x10d;" horiz-adv-x="493" 
d="M359 557h-166l-115 169h119l79 -101l80 101h117zM301 510q84 0 148 -39q3 -2 3 -6v-151h-83l-6 72q-1 9 -9 12q-24 12 -53 12q-58 0 -93.5 -42t-35.5 -118q0 -78 35.5 -119t95.5 -41q59 0 124 40l36 -93q-68 -47 -162 -47q-121 0 -193.5 73.5t-72.5 187t72.5 186.5
t193.5 73z" />
    <glyph glyph-name="Dcaron" unicode="&#x10e;" horiz-adv-x="749" 
d="M458 757h-166l-115 169h119l79 -101l80 101h117zM48 700h313q157 0 253 -97t96 -253.5t-96 -253t-253 -96.5h-313v78q0 8 8 8l55 5q16 1 16 17v484q0 16 -16 17l-55 5q-8 0 -8 8v78zM311 584l-40 -3v-462l40 -2h50q92 0 146 60t54 173q0 38 -6.5 70.5t-19 58.5t-30 45.5
t-39.5 32.5t-48.5 20t-56.5 7h-50z" />
    <glyph glyph-name="dcaron" unicode="&#x10f;" horiz-adv-x="709" 
d="M638 750q19 0 32.5 -9t20 -24t7.5 -35.5t-5 -42.5q-12 -51 -48 -96l-50 16q15 30 21 53q4 17 2 30h-1q-16 6 -25.5 20.5t-9.5 31.5q0 22 16 39t40 17zM304 739l202 11q9 0 9 -9v-639q0 -15 16 -17l55 -4v-81h-177q-7 0 -8 7l-6 52q-18 -21 -41 -36t-52 -24t-60 -9
q-93 0 -150 66.5t-57 195.5q0 37 5.5 71t19.5 69t36 60t58.5 41.5t83.5 16.5q88 0 143 -60v190q0 7 -4.5 12t-11.5 5l-61 3v79zM286 410q-26 0 -47 -10.5t-36 -30.5t-23 -49.5t-8 -67.5q0 -76 35.5 -117.5t93.5 -41.5q50 0 80 35v226q-32 56 -95 56z" />
    <glyph glyph-name="Dcroat" unicode="&#x110;" horiz-adv-x="749" 
d="M48 700h313q157 0 253 -97t96 -253.5t-96 -253t-253 -96.5h-313v78q0 8 8 8l55 5q16 1 16 17v184h-91v116h91v184q0 16 -16 17l-55 5q-8 0 -8 8v78zM314 116l47 1q92 0 146 60t54 173t-54 173.5t-146 60.5h-47l-43 -3v-173h101v-116h-101v-173z" />
    <glyph glyph-name="dcroat" unicode="&#x111;" horiz-adv-x="626" 
d="M515 567v-465q0 -15 16 -17l55 -4v-81h-177q-7 0 -8 7l-6 52q-27 -32 -67 -50.5t-86 -18.5q-93 0 -150 66.5t-57 195.5q0 37 5.5 71t19.5 69t36 60t58.5 41.5t83.5 16.5q88 0 143 -60v117h-127v96h127v80l125 7q9 0 9 -9v-78h75v-96h-75zM381 128v226q-32 56 -95 56
q-26 0 -47 -10.5t-36 -30.5t-23 -49.5t-8 -67.5q0 -76 35.5 -117.5t93.5 -41.5q50 0 80 35z" />
    <glyph glyph-name="Emacron" unicode="&#x112;" horiz-adv-x="597" 
d="M481 777h-335v97h335v-97zM48 700h497q9 0 9 -9v-188h-84l-5 65q-1 16 -17 16h-177v-176h189v-110h-189v-182h194q16 0 17 16l5 65h84v-188q0 -9 -9 -9h-514v78q0 8 8 8l55 5q16 1 16 17v484q0 16 -16 17l-55 5q-8 0 -8 8v78z" />
    <glyph glyph-name="emacron" unicode="&#x113;" horiz-adv-x="545" 
d="M442 577h-335v97h335v-97zM274 510q82 0 136.5 -32.5t79 -88.5t24.5 -134v-21q0 -6 -6 -7l-332 -11q6 -60 40 -93.5t86 -32.5q75 0 145 56l37 -91q-73 -65 -188 -65q-119 0 -190 73.5t-71 187t65 186.5t174 73zM277 416q-44 0 -70 -29t-32 -86h190q3 0 5 2t3 5t0 7
q-5 51 -28 76t-68 25z" />
    <glyph glyph-name="Edotaccent" unicode="&#x116;" horiz-adv-x="597" 
d="M313.5 903q28.5 0 47.5 -20.5t19 -46.5t-19 -46.5t-47.5 -20.5t-47.5 20t-19 47t19 47t47.5 20zM48 700h497q9 0 9 -9v-188h-84l-5 65q-1 16 -17 16h-177v-176h189v-110h-189v-182h194q16 0 17 16l5 65h84v-188q0 -9 -9 -9h-514v78q0 8 8 8l55 5q16 1 16 17v484
q0 16 -16 17l-55 5q-8 0 -8 8v78z" />
    <glyph glyph-name="edotaccent" unicode="&#x117;" horiz-adv-x="545" 
d="M274.5 703q28.5 0 48 -20.5t19.5 -46.5t-19.5 -46.5t-48 -20.5t-47.5 20t-19 47t19 47t47.5 20zM274 510q122 0 180.5 -67.5t59.5 -187.5v-21q0 -6 -6 -7l-332 -11q6 -60 40 -93.5t86 -32.5q75 0 145 56l37 -91q-73 -65 -188 -65q-119 0 -190 73.5t-71 187t65 186.5
t174 73zM277 416q-44 0 -70 -29t-32 -86h190q4 0 7 4t1 10q-3 34 -14 56t-31.5 33.5t-50.5 11.5z" />
    <glyph glyph-name="Eogonek" unicode="&#x118;" horiz-adv-x="597" 
d="M48 700h497q9 0 9 -9v-188h-84l-5 65q-1 16 -17 16h-177v-176h189v-110h-189v-182h194q16 0 17 16l5 65h84v-188q0 -9 -9 -9h-64q-42 -31 -42 -77q0 -26 15 -40t39 -14q19 -1 45 10l20 -67q-46 -22 -93 -24q-32 0 -56.5 12.5t-37.5 33t-15 46.5q-6 66 49 120h-374v78
q0 8 8 8l55 5q16 1 16 17v484q0 16 -16 17l-55 5q-8 0 -8 8v78z" />
    <glyph glyph-name="eogonek" unicode="&#x119;" horiz-adv-x="545" 
d="M274 510q122 0 180.5 -67.5t59.5 -187.5v-21q0 -6 -6 -7l-332 -11q6 -60 40 -93.5t86 -32.5q75 0 145 56l37 -91q-29 -26 -66 -42q-63 -34 -64 -90q0 -26 15 -40t39 -14q19 -1 46 10l19 -67q-46 -22 -92 -24q-49 0 -77.5 26t-32.5 66q-5 60 41 111h-34q-111 5 -177 77.5
t-66 181.5q0 114 65 187t174 73zM277 416q-44 0 -70 -29t-32 -86h190q4 0 7 4t2 10q-6 51 -29 76t-68 25z" />
    <glyph glyph-name="Ecaron" unicode="&#x11a;" horiz-adv-x="597" 
d="M397 757h-166l-115 169h118l80 -101l79 101h118zM48 700h497q9 0 9 -9v-188h-84l-5 65q-1 16 -17 16h-177v-176h189v-110h-189v-182h194q16 0 17 16l5 65h84v-188q0 -9 -9 -9h-514v78q0 8 8 8l55 5q16 1 16 17v484q0 16 -16 17l-55 5q-8 0 -8 8v78z" />
    <glyph glyph-name="ecaron" unicode="&#x11b;" horiz-adv-x="545" 
d="M358 557h-166l-115 169h119l79 -101l80 101h117zM274 510q122 0 180.5 -67.5t59.5 -187.5v-21q0 -6 -6 -7l-332 -11q6 -60 40 -93.5t86 -32.5q75 0 145 56l37 -91q-73 -65 -188 -65q-119 0 -190 73.5t-71 187t65 186.5t174 73zM277 416q-44 0 -70 -29t-32 -86h190
q4 0 7 4t1 10q-5 51 -28 76t-68 25z" />
    <glyph glyph-name="Gbreve" unicode="&#x11e;" horiz-adv-x="702" 
d="M447 912h84q0 -66 -46.5 -112.5t-115.5 -46.5t-116 46.5t-47 112.5h84q0 -34 23 -57.5t56 -23.5q21 0 39 10.5t28.5 29t10.5 41.5zM392 709q118 0 230 -59q4 -2 4 -6v-156h-84l-4 59q-1 10 -10 13q-71 32 -136 31q-34 0 -64 -9t-55 -28t-43 -47.5t-28 -68.5t-10 -88
q0 -114 54 -178t146 -64q88 0 138 54v85q0 3 -1 6t-3.5 5.5t-5.5 4t-6 1.5l-116 6v89h249q8 0 8 -9v-350h-85l-8 54q-82 -63 -194 -63q-145 0 -235.5 100.5t-90.5 258.5q0 87 28.5 156.5t77 113.5t110.5 66.5t134 22.5z" />
    <glyph glyph-name="gbreve" unicode="&#x11f;" horiz-adv-x="576" 
d="M359 712h84q0 -43 -21 -79.5t-58.5 -58t-82.5 -21.5q-69 0 -116 46.5t-47 112.5h84q0 -34 23 -57.5t56 -23.5q21 0 39 10.5t28.5 29t10.5 41.5zM543 433l-80 -7q36 -36 36 -94q0 -82 -58.5 -129.5t-157.5 -47.5q-42 0 -78 9q-25 -9 -25 -26q0 -25 25.5 -34.5t90.5 -9.5
q106 0 163 -35t57 -116.5t-65.5 -126.5t-179.5 -45q-110 0 -177.5 44.5t-67.5 114.5q0 35 21.5 65t60.5 51q-41 22 -41 64q-1 53 72 83q-72 47 -72 139q0 82 58.5 130t157.5 48h260v-77zM283 425q-82 0 -82 -92.5t82 -92.5t82 92.5t-82 92.5zM242 9l-9 -2q-27 -5 -47 -15.5
t-30.5 -25t-10.5 -31.5q0 -34 34 -54t91.5 -20t92 20t34.5 54q0 73 -127 73h-9.5t-9.5 0.5t-9 0.5z" />
    <glyph glyph-name="Gdotaccent" unicode="&#x120;" horiz-adv-x="702" 
d="M368.5 903q28.5 0 47.5 -20.5t19 -46.5q0 -17 -8.5 -32.5t-24 -25t-34.5 -9.5q-28 0 -47 20t-19 47t19 47t47.5 20zM392 709q118 0 230 -59q4 -2 4 -6v-156h-84l-4 59q-1 10 -10 13q-71 32 -136 31q-43 0 -79 -14.5t-63 -43.5t-42.5 -76t-15.5 -107q0 -114 54 -178
t146 -64q88 0 138 54v85q0 3 -1 6t-3.5 5.5t-5.5 4t-6 1.5l-116 6v89h249q8 0 8 -9v-350h-85l-8 54q-82 -63 -194 -63q-145 0 -235.5 100.5t-90.5 258.5q0 87 28.5 156.5t77 113.5t110.5 66.5t134 22.5z" />
    <glyph glyph-name="gdotaccent" unicode="&#x121;" horiz-adv-x="576" 
d="M280.5 703q28.5 0 47.5 -20.5t19 -46.5q0 -17 -8.5 -32.5t-24 -25t-34.5 -9.5q-28 0 -47 20t-19 47t19 47t47.5 20zM543 433l-80 -7q36 -36 36 -94q0 -82 -58.5 -129.5t-157.5 -47.5q-42 0 -78 9q-25 -9 -25 -26q0 -25 25.5 -34.5t90.5 -9.5q106 0 163 -35t57 -116.5
t-65.5 -126.5t-179.5 -45q-110 0 -177.5 44.5t-67.5 114.5q0 35 21.5 65t60.5 51q-41 22 -41 64q-1 53 72 83q-72 47 -72 139q0 82 58.5 130t157.5 48h260v-77zM283 425q-82 0 -82 -92.5t82 -92.5t82 92.5t-82 92.5zM242 9l-9 -2q-27 -5 -47 -15.5t-30.5 -25t-10.5 -31.5
q0 -34 34 -54t91.5 -20t92 20t34.5 54q0 73 -127 73h-9.5t-9.5 0.5t-9 0.5z" />
    <glyph glyph-name="Gcommaaccent" unicode="&#x122;" horiz-adv-x="702" 
d="M392 709q118 0 230 -59q4 -2 4 -6v-156h-84l-4 59q-1 10 -10 13q-71 32 -136 31q-43 0 -79 -14.5t-63 -43.5t-42.5 -76t-15.5 -107q0 -114 54 -178t146 -64q88 0 138 54v85q0 3 -1 6t-3.5 5.5t-5.5 4t-6 1.5l-116 6v89h249q8 0 8 -9v-350h-85l-8 54q-82 -63 -194 -63
q-145 0 -235.5 100.5t-90.5 258.5q0 87 28.5 156.5t77 113.5t110.5 66.5t134 22.5zM347 -36q38 0 53 -32.5t2 -78.5q-12 -51 -47 -95l-51 15q15 29 21 53q4 17 3 31h-2q-15 6 -25 20t-10 31q0 22 16.5 39t39.5 17z" />
    <glyph glyph-name="gcommaaccent" unicode="&#x123;" horiz-adv-x="576" 
d="M280 764l50 -16q-15 -30 -21 -53q-4 -17 -2 -30h1q11 -4 18.5 -12t12 -18.5t4.5 -21.5q0 -22 -16 -39t-40 -17q-37 0 -52 32.5t-3 78.5q12 51 48 96zM543 433l-80 -7q36 -36 36 -94q0 -82 -58.5 -129.5t-157.5 -47.5q-42 0 -78 9q-25 -9 -25 -26q0 -25 25.5 -34.5
t90.5 -9.5q106 0 163 -35t57 -117q0 -54 -30 -93t-85 -58.5t-130 -19.5q-110 0 -177.5 44.5t-67.5 114.5q0 35 21.5 65t60.5 51q-41 22 -41 64q-1 53 72 83q-72 47 -72 139q0 82 58.5 130t157.5 48h260v-77zM283 425q-82 0 -82 -92.5t82 -92.5t82 92.5t-82 92.5zM242 9
l-9 -2q-41 -7 -64.5 -26.5t-23.5 -45.5q0 -34 34 -54t91.5 -20t92 20t34.5 54q0 73 -127 73q-6 0 -15.5 0.5t-12.5 0.5z" />
    <glyph glyph-name="Hbar" unicode="&#x126;" horiz-adv-x="858" 
d="M731 484v-376q0 -16 15 -17l63 -5v-86h-305v78q0 8 8 8l59 5q16 2 16 17v190h-316v-190q0 -15 16 -17l66 -5v-86h-304v78q0 8 7 8l55 5q16 1 16 17v376h-127v68h127v40q0 16 -16 17l-55 5q-7 0 -7 8v78h304v-86l-66 -5q-16 -2 -16 -17v-40h316v40q0 15 -16 17l-59 5
q-8 0 -8 8v78h305v-86l-63 -5q-15 -1 -15 -17v-40h127v-68h-127zM587 484h-316v-69h316v69z" />
    <glyph glyph-name="hbar" unicode="&#x127;" horiz-adv-x="709" 
d="M676 81v-81h-202q-9 0 -9 9v317q0 84 -76 84q-57 0 -130 -46v-261q0 -16 16 -17l65 -5v-81h-292v73q0 8 8 9l54 4q16 2 16 17v444h-126v66h126v27q0 7 -4.5 12t-11.5 5l-62 3v79l202 11q9 0 9 -9v-128h149v-66h-149v-112q29 22 61.5 38.5t67 26t65.5 9.5q66 0 106 -40.5
t40 -117.5v-248q0 -16 15 -17z" />
    <glyph glyph-name="Itilde" unicode="&#x128;" horiz-adv-x="398" 
d="M293 888l76 -15q-1 -50 -24.5 -77.5t-63.5 -30.5q-25 -2 -59 9q-14 4 -40 15t-34 12q-13 2 -21.5 -7t-20.5 -36l-76 23q15 88 78 102q37 8 91 -14q44 -18 60 -14q19 4 34 33zM350 614l-63 -5q-16 -1 -16 -17v-484q0 -16 16 -17l63 -5v-86h-302v78q0 8 8 8l56 5
q15 1 15 17v484q0 16 -15 17l-56 5q-8 0 -8 8v78h302v-86z" />
    <glyph glyph-name="itilde" unicode="&#x129;" horiz-adv-x="384" 
d="M276 688l76 -15q0 -50 -24 -77.5t-63 -30.5q-25 -2 -60 9q-12 3 -27.5 9.5t-27.5 11.5t-18 6q-13 2 -21.5 -7t-20.5 -36l-76 23q15 88 77 102q37 8 91 -14q45 -18 61 -14q19 4 33 33zM48 496l202 11q9 0 9 -9v-395q0 -15 16 -17l65 -5v-81h-292v73q0 8 8 9l54 4
q15 2 15 17v294q0 7 -4.5 12t-11.5 5l-61 3v79z" />
    <glyph glyph-name="Imacron" unicode="&#x12a;" horiz-adv-x="398" 
d="M367 777h-335v97h335v-97zM350 614l-63 -5q-16 -1 -16 -17v-484q0 -16 16 -17l63 -5v-86h-302v78q0 8 8 8l56 5q15 1 15 17v484q0 16 -15 17l-56 5q-8 0 -8 8v78h302v-86z" />
    <glyph glyph-name="imacron" unicode="&#x12b;" horiz-adv-x="384" 
d="M351 577h-335v97h335v-97zM48 496l202 11q9 0 9 -9v-395q0 -15 16 -17l65 -5v-81h-292v73q0 8 8 9l54 4q15 2 15 17v294q0 7 -4.5 12t-11.5 5l-61 3v79z" />
    <glyph glyph-name="Iogonek" unicode="&#x12e;" horiz-adv-x="398" 
d="M350 614l-63 -5q-16 -1 -16 -17v-484q0 -16 16 -17l63 -5v-86h-29q-43 -31 -44 -77q0 -26 15 -40.5t39 -14.5q17 -1 46 11l19 -67q-49 -24 -92 -24q-49 0 -77.5 26t-32.5 66q-6 66 50 120h-196v78q0 8 8 8l56 5q15 1 15 17v484q0 16 -15 17l-56 5q-8 0 -8 8v78h302v-86z
" />
    <glyph glyph-name="iogonek" unicode="&#x12f;" horiz-adv-x="384" 
d="M183 703q28 0 47.5 -20.5t19.5 -46.5q0 -17 -8.5 -32.5t-24 -25t-34.5 -9.5q-28 0 -47.5 20t-19.5 47q0 17 8.5 32.5t24 25t34.5 9.5zM48 496l202 11q9 0 9 -9v-395q0 -15 16 -17l65 -5v-81h-27q-43 -31 -43 -77q0 -26 14.5 -40.5t39.5 -14.5q19 -1 45 11l20 -67
q-47 -24 -93 -24q-48 0 -77 26t-32 65q-6 67 50 121h-189v73q0 8 8 9l54 4q15 2 15 17v294q0 7 -4.5 12t-11.5 5l-61 3v79z" />
    <glyph glyph-name="Idotaccent" unicode="&#x130;" horiz-adv-x="398" 
d="M199 903q28 0 47.5 -20.5t19.5 -46.5q0 -17 -8.5 -32.5t-24 -25t-34.5 -9.5q-28 0 -47 20t-19 47q0 17 8 32.5t23.5 25t34.5 9.5zM350 614l-63 -5q-16 -1 -16 -17v-484q0 -16 16 -17l63 -5v-86h-302v78q0 8 8 8l56 5q15 1 15 17v484q0 16 -15 17l-56 5q-8 0 -8 8v78h302
v-86z" />
    <glyph glyph-name="dotlessi" unicode="&#x131;" horiz-adv-x="384" 
d="M48 496l202 11q9 0 9 -9v-395q0 -15 16 -17l65 -5v-81h-292v73q0 8 8 9l54 4q15 2 15 17v294q0 7 -4.5 12t-11.5 5l-61 3v79z" />
    <glyph glyph-name="IJ" unicode="&#x132;" horiz-adv-x="799" 
d="M750 614l-62 -5q-16 -1 -16 -17v-553q0 -101 -59.5 -169.5t-166.5 -88.5l-28 77q51 21 80 68.5t29 112.5v553q0 16 -15 17l-59 5q-7 0 -7 8v78h304v-86zM350 614l-63 -5q-16 -1 -16 -17v-484q0 -16 16 -17l63 -5v-86h-302v78q0 8 8 8l56 5q15 1 15 17v484q0 16 -15 17
l-56 5q-8 0 -8 8v78h302v-86z" />
    <glyph glyph-name="ij" unicode="&#x133;" horiz-adv-x="674" 
d="M551 735q30 0 51.5 -21.5t21.5 -51.5t-21.5 -51.5t-51.5 -21.5t-51.5 21.5t-21.5 51.5t21.5 51.5t51.5 21.5zM186 734q30 0 51.5 -21t21.5 -51.5t-21.5 -52t-51.5 -21.5t-51.5 21.5t-21.5 52t21.5 51.5t51.5 21zM413 497l202 10q10 1 10 -8v-570q0 -64 -41.5 -102
t-112.5 -38q-67 0 -109 36l28 72q21 -10 46 -10q55 0 55 54v457q0 7 -4.5 11.5t-12.5 5.5l-61 3v79zM48 496l202 11q9 0 9 -9v-395q0 -15 16 -17l65 -5v-81h-292v73q0 8 8 9l54 4q15 2 15 17v294q0 5 -2 8.5t-5.5 6t-8.5 2.5l-61 3v79z" />
    <glyph glyph-name="Kcommaaccent" unicode="&#x136;" horiz-adv-x="768" 
d="M726 614l-65 -5l-206 -225l202 -285q4 -6 11 -7l73 -6q8 0 8 -8v-78h-198l-190 280l-90 -99v-73q0 -15 15 -17l67 -5v-86h-305v78q0 8 8 8l55 5q16 1 16 17v484q0 16 -16 17l-55 5q-8 0 -8 8v78h301v-86l-63 -5q-15 -1 -15 -17v-258l214 242q8 10 5.5 21t-13.5 14l-19 2
q-7 2 -7 8v79h275v-86zM382 -36q38 0 52.5 -32.5t2.5 -78.5q-12 -51 -48 -95l-50 15q15 29 21 53q4 17 3 31h-2q-16 6 -25.5 20t-9.5 31q0 22 16.5 39t39.5 17z" />
    <glyph glyph-name="kcommaaccent" unicode="&#x137;" horiz-adv-x="652" 
d="M48 739l202 11q9 0 9 -9v-458l134 112q7 6 5 13.5t-11 8.5l-19 1q-8 1 -8 9v73h264v-81l-62 -5l-147 -118l148 -204q4 -5 10 -5l66 -6v-81h-173q-5 0 -7 5l-128 226l-72 -58v-71q0 -16 16 -17l45 -4v-81h-271v73q0 8 8 9l53 4q15 2 15 17v537q0 7 -4.5 12t-11.5 5l-61 3
v79zM324 -36q38 0 52.5 -32.5t2.5 -78.5q-12 -51 -48 -95l-50 15q15 29 21 53q4 17 3 31h-2q-16 6 -25.5 20t-9.5 31q0 22 16 39t40 17z" />
    <glyph glyph-name="Lacute" unicode="&#x139;" horiz-adv-x="581" 
d="M345 757h-118l108 169h157zM353 614l-67 -5q-15 -2 -15 -17v-476h182q16 0 17 16l5 65h84v-188q0 -9 -9 -9h-502v78q0 8 8 8l55 5q16 1 16 17v484q0 16 -16 17l-55 5q-8 0 -8 8v78h305v-86z" />
    <glyph glyph-name="lacute" unicode="&#x13a;" horiz-adv-x="374" 
d="M242 801h-118l107 169h157zM48 739l202 11q9 0 9 -9v-638q0 -15 16 -17l65 -5v-81h-291v73q0 8 8 9l53 4q15 2 15 17v537q0 7 -4.5 12t-11.5 5l-61 3v79z" />
    <glyph glyph-name="Lcommaaccent" unicode="&#x13b;" horiz-adv-x="581" 
d="M353 614l-67 -5q-15 -2 -15 -17v-476h182q16 0 17 16l5 65h84v-188q0 -9 -9 -9h-502v78q0 8 8 8l55 5q16 1 16 17v484q0 16 -16 17l-55 5q-8 0 -8 8v78h305v-86zM288 -36q38 0 53 -32.5t2 -78.5q-12 -51 -47 -95l-51 15q15 29 21 53q4 17 3 31h-2q-15 6 -25 20t-10 31
q0 22 16.5 39t39.5 17z" />
    <glyph glyph-name="lcommaaccent" unicode="&#x13c;" horiz-adv-x="374" 
d="M48 739l202 11q9 0 9 -9v-638q0 -15 16 -17l65 -5v-81h-291v73q0 8 8 9l53 4q15 2 15 17v537q0 7 -4.5 12t-11.5 5l-61 3v79zM185 -36q37 0 52 -32.5t3 -78.5q-13 -51 -48 -95l-50 15q14 29 21 53q4 17 2 31h-1q-16 6 -25.5 20t-9.5 31q0 22 16 39t40 17z" />
    <glyph glyph-name="Lcaron" unicode="&#x13d;" horiz-adv-x="596" 
d="M494 710q37 0 52 -32.5t3 -78.5q-13 -51 -48 -96l-50 16q15 30 21 53q4 17 2 30h-1q-16 6 -25.5 20.5t-9.5 31.5q0 22 16 39t40 17zM353 614l-67 -5q-15 -2 -15 -17v-476h182q16 0 17 16l5 65h84v-188q0 -9 -9 -9h-502v78q0 8 8 8l55 5q16 1 16 17v484q0 16 -16 17l-55 5
q-8 0 -8 8v78h305v-86z" />
    <glyph glyph-name="lcaron" unicode="&#x13e;" horiz-adv-x="470" 
d="M48 739l202 11q9 0 9 -9v-638q0 -15 16 -17l65 -5v-81h-291v73q0 8 8 9l53 4q15 2 15 17v537q0 7 -4.5 12t-11.5 5l-61 3v79zM396 722q38 0 52.5 -32.5t2.5 -78.5q-12 -51 -48 -96l-50 16q15 29 21 53q4 17 3 30h-2q-16 6 -25.5 20.5t-9.5 30.5q0 22 16.5 39.5t39.5 17.5
z" />
    <glyph glyph-name="Ldot" unicode="&#x13f;" horiz-adv-x="581" 
d="M353 614l-67 -5q-15 -2 -15 -17v-476h182q16 0 17 16l5 65h84v-188q0 -9 -9 -9h-502v78q0 8 8 8l55 5q16 1 16 17v484q0 16 -16 17l-55 5q-8 0 -8 8v78h305v-86zM468.5 451q30.5 0 51.5 -22t21 -51t-21 -51t-51 -22q-16 0 -29.5 6.5t-23 16.5t-15 23t-5.5 27q0 29 21 51
t51.5 22z" />
    <glyph glyph-name="ldot" unicode="&#x140;" horiz-adv-x="504" 
d="M48 739l202 11q9 0 9 -9v-638q0 -15 16 -17l65 -5v-81h-291v73q0 8 8 9l53 4q15 2 15 17v537q0 7 -4.5 12t-11.5 5l-61 3v79zM416 451q20 0 37 -10.5t26 -27.5t9 -35q0 -29 -21 -51t-51.5 -22t-51.5 22t-21 51t21 51t52 22z" />
    <glyph glyph-name="Lslash" unicode="&#x141;" horiz-adv-x="617" 
d="M595 197v-188q0 -9 -9 -9h-502v78q0 8 8 8l55 5q15 1 15 17v153l-107 -57v128l107 57v203q0 16 -15 17l-55 5q-8 0 -8 8v78h305v-86l-67 -5q-16 -2 -16 -17v-127l147 77v-128l-147 -77v-221h183q16 0 17 16l5 65h84z" />
    <glyph glyph-name="lslash" unicode="&#x142;" horiz-adv-x="390" 
d="M267 377v-274q0 -15 16 -17l65 -5v-81h-291v73q0 8 8 9l53 4q15 2 15 17v203l-97 -52v124l97 52v210q0 7 -4.5 12t-11.5 5l-61 3v79l202 11q9 0 9 -9v-240l99 53v-125z" />
    <glyph glyph-name="Nacute" unicode="&#x143;" horiz-adv-x="846" 
d="M478 757h-118l107 169h157zM802 614l-63 -5q-16 -1 -16 -17v-592h-131l-338 458v-351q0 -15 15 -16l58 -5v-86h-284v78q0 8 8 8l56 5q15 1 15 17v484q0 16 -15 17l-56 5q-8 0 -8 8v78h199l350 -473v366q0 15 -15 17l-51 4q-8 0 -8 8v78h284v-86z" />
    <glyph glyph-name="nacute" unicode="&#x144;" horiz-adv-x="701" 
d="M403 557h-117l107 169h157zM444 509q32 0 58.5 -10t46.5 -29t30.5 -49.5t10.5 -69.5v-248q0 -16 16 -17l61 -5v-81h-202q-9 0 -9 9v317q0 84 -75 84q-58 0 -130 -46v-261q0 -16 15 -17l65 -5v-81h-291v73q0 8 7 9l55 4q15 2 15 17v294q0 5 -2 8.5t-5.5 6t-8.5 2.5l-61 3
v79l202 11q9 0 9 -9v-63q44 33 96 53.5t97 20.5z" />
    <glyph glyph-name="Ncommaaccent" unicode="&#x145;" horiz-adv-x="846" 
d="M802 614l-63 -5q-16 -1 -16 -17v-592h-131l-338 458v-351q0 -15 15 -16l58 -5v-86h-284v78q0 8 8 8l56 5q15 1 15 17v484q0 16 -15 17l-56 5q-8 0 -8 8v78h199l350 -473v366q0 15 -15 17l-51 4q-8 0 -8 8v78h284v-86zM421 -36q37 0 52 -32.5t3 -78.5q-13 -51 -48 -95
l-50 15q15 29 21 53q4 17 2 31h-1q-16 6 -25.5 20t-9.5 31q0 22 16 39t40 17z" />
    <glyph glyph-name="ncommaaccent" unicode="&#x146;" horiz-adv-x="701" 
d="M444 509q66 0 106 -40.5t40 -117.5v-248q0 -16 16 -17l61 -5v-81h-202q-9 0 -9 9v317q0 84 -75 84q-58 0 -130 -46v-261q0 -16 15 -17l65 -5v-81h-291v73q0 8 7 9l55 4q15 2 15 17v294q0 5 -2 8.5t-5.5 6t-8.5 2.5l-61 3v79l202 11q9 0 9 -9v-63q44 33 96 53.5t97 20.5z
M346 -36q38 0 53 -32.5t3 -78.5q-13 -51 -48 -95l-50 15q14 29 20 53q4 17 3 31h-2q-7 3 -14 8.5t-11.5 12t-7 14.5t-2.5 16q0 22 16.5 39t39.5 17z" />
    <glyph glyph-name="Ncaron" unicode="&#x147;" horiz-adv-x="846" 
d="M506 757h-166l-114 169h118l79 -101l80 101h117zM802 614l-63 -5q-16 -1 -16 -17v-592h-131l-338 458v-351q0 -15 15 -16l58 -5v-86h-284v78q0 8 8 8l56 5q15 1 15 17v484q0 16 -15 17l-56 5q-8 0 -8 8v78h199l350 -473v366q0 15 -15 17l-51 4q-8 0 -8 8v78h284v-86z" />
    <glyph glyph-name="ncaron" unicode="&#x148;" horiz-adv-x="701" 
d="M432 557h-166l-115 169h118l80 -101l79 101h118zM444 509q66 0 106 -40.5t40 -117.5v-248q0 -16 16 -17l61 -5v-81h-202q-9 0 -9 9v317q0 84 -75 84q-58 0 -130 -46v-261q0 -16 15 -17l65 -5v-81h-291v73q0 8 7 9l55 4q15 2 15 17v294q0 5 -2 8.5t-5.5 6t-8.5 2.5l-61 3
v79l202 11q9 0 9 -9v-63q44 33 96 53.5t97 20.5z" />
    <glyph glyph-name="Eng" unicode="&#x14a;" horiz-adv-x="851" 
d="M802 614l-63 -5q-15 -1 -15 -17v-553q0 -97 -56.5 -164.5t-157.5 -90.5l-28 75q29 11 51.5 32t37 49.5t19.5 63.5l-336 454v-351q0 -15 15 -16l58 -5v-86h-284v78q0 8 8 8l56 5q15 1 15 17v484q0 16 -15 17l-56 5q-8 0 -8 8v78h199l350 -473v366q0 15 -15 17l-51 4
q-8 0 -8 8v78h284v-86z" />
    <glyph glyph-name="eng" unicode="&#x14b;" horiz-adv-x="662" 
d="M444 509q66 0 106 -40.5t40 -117.5v-422q0 -64 -41.5 -102t-111.5 -38q-68 0 -109 36l28 72q20 -10 46 -10q55 0 54 54v385q0 84 -75 84q-58 0 -130 -46v-261q0 -16 15 -17l65 -5v-81h-291v73q0 8 7 9l55 4q15 2 15 17v294q0 5 -2 8.5t-5.5 6t-8.5 2.5l-61 3v79l202 11
q9 0 9 -9v-63q44 33 96 53.5t97 20.5z" />
    <glyph glyph-name="Omacron" unicode="&#x14c;" horiz-adv-x="777" 
d="M556 777h-335v97h335v-97zM388 708q156 0 253 -100.5t97 -258t-97 -258t-253 -100.5t-252.5 100.5t-96.5 258t96.5 258t252.5 100.5zM388.5 592q-60.5 0 -105.5 -28.5t-69.5 -83t-24.5 -130.5q0 -114 54 -178t145.5 -64t145.5 64t54 178q0 76 -25 130.5t-69.5 83
t-105 28.5z" />
    <glyph glyph-name="omacron" unicode="&#x14d;" horiz-adv-x="601" 
d="M468 577h-335v97h335v-97zM300.5 510q120.5 0 193 -73t72.5 -186.5t-72.5 -187t-193 -73.5t-193 73.5t-72.5 187t72.5 186.5t193 73zM300.5 410q-57.5 0 -93 -42t-35.5 -118t35.5 -118t93 -42t93 42t35.5 118t-35.5 118t-93 42z" />
    <glyph glyph-name="Ohungarumlaut" unicode="&#x150;" horiz-adv-x="777" 
d="M332 757h-118l93 169h157zM543 757h-118l93 169h158zM388 708q156 0 253 -100.5t97 -258t-97 -258t-253 -100.5t-252.5 100.5t-96.5 258t96.5 258t252.5 100.5zM388.5 592q-60.5 0 -105.5 -28.5t-69.5 -83t-24.5 -130.5q0 -114 54 -178t145.5 -64t145.5 64t54 178
q0 76 -25 130.5t-69.5 83t-105 28.5z" />
    <glyph glyph-name="ohungarumlaut" unicode="&#x151;" horiz-adv-x="601" 
d="M244 557h-118l93 169h158zM456 557h-118l93 169h157zM300.5 510q120.5 0 193 -73t72.5 -186.5t-72.5 -187t-193 -73.5t-193 73.5t-72.5 187t72.5 186.5t193 73zM300.5 410q-57.5 0 -93 -42t-35.5 -118t35.5 -118t93 -42t93 42t35.5 118t-35.5 118t-93 42z" />
    <glyph glyph-name="OE" unicode="&#x152;" horiz-adv-x="1058" 
d="M388 708q127 0 200 -84v76h418q9 0 9 -9v-188h-83l-5 65q-2 16 -17 16h-178v-176h189v-110h-189v-182h195q16 0 17 16l5 65h83v-188q0 -9 -9 -9h-435v75q-74 -84 -200 -84q-156 0 -252.5 100.5t-96.5 258t96.5 258t252.5 100.5zM388.5 592q-91.5 0 -145.5 -64t-54 -178
t54 -178t145.5 -64t145.5 64t54 178t-54 178t-145.5 64z" />
    <glyph glyph-name="oe" unicode="&#x153;" horiz-adv-x="996" 
d="M725 510q123 0 181.5 -67.5t59.5 -187.5v-21q0 -6 -7 -7l-332 -11q7 -60 41 -93.5t86 -32.5q74 0 145 56l36 -91q-73 -65 -188 -65q-75 0 -132.5 32.5t-88.5 90.5q-31 -58 -89.5 -90.5t-135.5 -32.5q-121 0 -193.5 73.5t-72.5 187t72.5 186.5t193.5 73q76 0 133.5 -32
t89.5 -88q19 37 48 63.5t68 41.5t85 15zM728 416q-43 0 -69.5 -29t-31.5 -86h189q5 0 7.5 4t1.5 10q-5 51 -28.5 76t-68.5 25zM300.5 410q-37.5 0 -66 -18t-45.5 -54.5t-17 -87.5q0 -76 35.5 -118t93.5 -42q37 0 66 18t45.5 54.5t16.5 87.5t-16.5 87.5t-45.5 54.5t-66.5 18z
" />
    <glyph glyph-name="Racute" unicode="&#x154;" horiz-adv-x="715" 
d="M412 757h-118l107 169h158zM48 700h337q52 0 95.5 -15t73.5 -41.5t47 -64t17 -82.5q0 -65 -36.5 -113t-101.5 -67l-4 -2l131 -216q3 -7 11 -7l74 -6v-86h-189q-5 0 -7 4l-148 292h-78v-188q0 -15 16 -17l67 -5v-86h-305v78q0 8 8 8l55 5q15 1 15 17v484q0 16 -15 17
l-55 5q-8 0 -8 8v78zM313 583l-43 -2v-169h120q42 0 66 23t24 63t-24 62.5t-66 22.5h-77z" />
    <glyph glyph-name="racute" unicode="&#x155;" horiz-adv-x="485" 
d="M295 557h-117l107 169h157zM418 506q24 3 46 -2q5 -1 5 -7v-150h-83l-3 37q-1 13 -11 15q-9 1 -25 -5q-45 -15 -96 -62v-229q0 -16 15 -17l65 -5v-81h-291v73q0 8 7 9l55 4q15 2 15 17v294q0 7 -4.5 12t-11.5 5l-61 3v79l201 11q10 0 10 -9v-84q37 41 81 65t86 27z" />
    <glyph glyph-name="Rcommaaccent" unicode="&#x156;" horiz-adv-x="715" 
d="M48 700h337q104 0 168.5 -56.5t64.5 -146.5q0 -65 -36.5 -113t-101.5 -67l-4 -2l131 -216q3 -7 11 -7l74 -6v-86h-189q-5 0 -7 4l-148 292h-78v-188q0 -15 16 -17l67 -5v-86h-305v78q0 8 8 8l55 5q15 1 15 17v484q0 16 -15 17l-55 5q-8 0 -8 8v78zM313 583l-43 -2v-169
h120q21 0 37.5 6t28 17t18 27t6.5 36q0 26 -11 45.5t-31 29.5t-48 10h-77zM355 -36q38 0 52.5 -32.5t2.5 -78.5q-12 -51 -48 -95l-50 15q15 29 21 53q4 17 3 31h-2q-5 2 -9.5 5t-8.5 7t-7 8.5t-5.5 9.5t-3.5 10.5t-1 10.5q0 22 16.5 39t39.5 17z" />
    <glyph glyph-name="rcommaaccent" unicode="&#x157;" horiz-adv-x="485" 
d="M418 506q24 3 46 -2q5 -1 5 -7v-150h-83l-3 37q-1 13 -11 15q-9 1 -25 -5q-45 -15 -96 -62v-229q0 -16 15 -17l65 -5v-81h-291v73q0 8 7 9l55 4q15 2 15 17v294q0 3 -0.5 5.5t-2 4.5t-3.5 3.5t-4.5 2.5t-5.5 1l-61 3v79l201 11q10 0 10 -9v-84q37 41 81 65t86 27z
M238 -36q38 0 53 -32.5t3 -78.5q-13 -51 -48 -95l-50 15q14 29 20 53q4 17 3 31h-2q-10 4 -18 12t-12.5 18t-4.5 21q0 22 16.5 39t39.5 17z" />
    <glyph glyph-name="Rcaron" unicode="&#x158;" horiz-adv-x="715" 
d="M441 757h-167l-114 169h118l80 -101l79 101h118zM48 700h337q104 0 168.5 -56.5t64.5 -146.5q0 -65 -36.5 -113t-101.5 -67l-4 -2l131 -216q3 -7 11 -7l74 -6v-86h-189q-5 0 -7 4l-148 292h-78v-188q0 -15 16 -17l67 -5v-86h-305v78q0 8 8 8l55 5q15 1 15 17v484
q0 16 -15 17l-55 5q-8 0 -8 8v78zM313 583l-43 -2v-169h120q42 0 66 23t24 63t-24 62.5t-66 22.5h-77z" />
    <glyph glyph-name="rcaron" unicode="&#x159;" horiz-adv-x="485" 
d="M324 557h-166l-115 169h118l80 -101l79 101h118zM418 506q24 3 46 -2q5 -1 5 -7v-150h-83l-3 37q-1 13 -11 15q-9 1 -25 -5q-45 -15 -96 -62v-229q0 -16 15 -17l65 -5v-81h-291v73q0 8 7 9l55 4q15 2 15 17v294q0 7 -4.5 12t-11.5 5l-61 3v79l201 11q10 0 10 -9v-84
q24 27 52.5 47.5t57.5 31.5t57 13z" />
    <glyph glyph-name="Sacute" unicode="&#x15a;" horiz-adv-x="559" 
d="M334 757h-117l107 169h157zM317 711q97 1 165 -38q4 -2 4 -6v-157h-83l-5 61q-1 9 -9 13q-29 13 -70 13q-55 0 -89 -19.5t-34 -49.5q0 -22 5.5 -34t28.5 -28.5t72 -39.5q132 -62 176.5 -107.5t44.5 -113.5q0 -106 -78 -159.5t-207 -53.5q-90 0 -196 39q-6 2 -6 8v156h84
l4 -53q1 -10 10 -13q55 -21 119 -21q35 0 61.5 9t41 27t14.5 42q0 29 -16 44.5t-80 47.5q-47 23 -81 41.5t-59 34.5t-41 32t-26 30t-15 31.5t-6.5 32.5t-1.5 38q0 60 39 104.5t100 66.5t134 22z" />
    <glyph glyph-name="sacute" unicode="&#x15b;" horiz-adv-x="442" 
d="M276 557h-118l107 169h158zM254 510q71 1 123 -26q4 -2 4 -7v-127h-67l-5 55q-1 10 -10 13q-16 6 -39 6q-17 0 -32 -3.5t-25 -9.5t-16 -14.5t-6 -18.5q0 -22 12.5 -35t61.5 -38q90 -44 120.5 -77t30.5 -82q0 -76 -59.5 -114.5t-156.5 -38.5q-66 0 -144 26q-6 2 -6 7v124
h68l4 -48q1 -10 10 -14q35 -12 73 -11q38 0 60.5 14.5t22.5 41.5q0 20 -11.5 31.5t-57.5 34.5q-56 28 -88 48t-48.5 40.5t-20.5 37.5t-4 46q0 64 60 101t146 38z" />
    <glyph glyph-name="Scedilla" unicode="&#x15e;" horiz-adv-x="559" 
d="M317 711q97 1 165 -38q4 -2 4 -6v-157h-83l-5 61q-1 9 -9 13q-29 13 -70 13q-36 0 -64 -9t-43.5 -24.5t-15.5 -35.5q0 -22 5.5 -34t28.5 -28.5t72 -39.5q90 -42 137.5 -75.5t65.5 -66.5t18 -79q0 -88 -56 -140.5t-152 -66.5l-17 -40q1 0 3 -0.5t3.5 -0.5t3.5 -0.5t3 -0.5
q37 -8 56.5 -32.5t16.5 -55.5q-2 -37 -33.5 -63.5t-82.5 -26.5q-53 2 -93 30l18 57q25 -14 45 -15q23 -2 38.5 6.5t16.5 28.5q0 31 -43 37q-14 1 -35 -1l23 71q-10 0 -29 2q-76 3 -167 37q-6 2 -6 8v156h84l4 -53q1 -10 10 -14q55 -20 119 -20q54 0 85.5 20.5t31.5 57.5
q0 29 -16 44.5t-80 47.5q-65 31 -106.5 56t-67 45t-37.5 43.5t-15.5 43.5t-3.5 52q0 45 22.5 82.5t60.5 61t87 36.5t103 13z" />
    <glyph glyph-name="scedilla" unicode="&#x15f;" horiz-adv-x="442" 
d="M254 510q71 1 123 -26q4 -2 4 -7v-127h-67l-5 55q-1 10 -10 13q-16 6 -39 6q-17 0 -32 -3.5t-25 -9.5t-16 -14.5t-6 -18.5q0 -22 12.5 -35t61.5 -38q90 -44 120.5 -77t30.5 -82q0 -41 -19.5 -72.5t-52 -49.5t-77.5 -26l-18 -40q2 0 6.5 -0.5t6.5 -1.5q37 -8 56.5 -32.5
t17.5 -55.5q-2 -24 -16 -44t-40 -33t-60 -13q-54 2 -94 30l18 57q25 -14 46 -15q23 -2 38 6.5t17 28.5q0 31 -44 37q-14 1 -35 -1l23 73h-12q-56 3 -121 25q-6 2 -6 7v124h68l4 -48q1 -10 10 -14q35 -12 73 -11q38 0 60.5 14.5t22.5 41.5q0 20 -11.5 31.5t-57.5 34.5
q-56 28 -88 48t-48.5 40.5t-20.5 37.5t-4 46q0 64 60 101t146 38z" />
    <glyph glyph-name="Scaron" unicode="&#x160;" horiz-adv-x="559" 
d="M363 757h-166l-115 169h118l80 -101l79 101h118zM317 711q97 1 165 -38q4 -2 4 -6v-157h-83l-5 61q-1 9 -9 13q-29 13 -70 13q-36 0 -64 -9t-43.5 -24.5t-15.5 -35.5q0 -22 5.5 -34t28.5 -28.5t72 -39.5q132 -62 176.5 -107.5t44.5 -113.5q0 -106 -78 -159.5t-207 -53.5
q-90 0 -196 39q-6 2 -6 8v156h84l4 -53q1 -10 10 -14q55 -20 119 -20q54 0 85.5 20.5t31.5 57.5q0 29 -16 44.5t-80 47.5q-65 31 -106.5 56t-67 45t-37.5 43.5t-15.5 43.5t-3.5 52q0 45 22.5 82.5t60.5 61t87 36.5t103 13z" />
    <glyph glyph-name="scaron" unicode="&#x161;" horiz-adv-x="442" 
d="M304 557h-166l-114 169h118l79 -101l80 101h117zM254 510q71 1 123 -26q4 -2 4 -7v-127h-67l-5 55q-1 10 -10 13q-16 6 -39 6q-17 0 -32 -3.5t-25 -9.5t-16 -14.5t-6 -18.5q0 -22 12.5 -35t61.5 -38q89 -44 120 -77t31 -82q0 -76 -59.5 -114.5t-156.5 -38.5
q-66 0 -144 26q-6 2 -6 7v124h68l4 -48q1 -10 10 -14q35 -12 73 -11q38 0 60.5 14.5t22.5 41.5q0 20 -11.5 31.5t-57.5 34.5q-56 28 -88 48t-48.5 40.5t-20.5 37.5t-4 46q0 64 60 101t146 38z" />
    <glyph glyph-name="Tcedilla" unicode="&#x162;" horiz-adv-x="657" 
d="M28 700h601q8 0 8 -9l1 -184h-84l-5 65q-1 16 -17 16h-132v-480q0 -16 16 -17l63 -5v-86h-114l-18 -42q2 -1 6.5 -1.5t6.5 -0.5q37 -8 56 -32.5t17 -55.5q-2 -37 -33.5 -63.5t-82.5 -26.5q-53 2 -93 30l18 57q25 -14 45 -15q23 -2 38.5 6.5t16.5 28.5q0 31 -44 37
q-13 1 -34 -1l25 79h-112v78q0 8 8 8l56 5q15 1 15 17v480h-131q-16 0 -17 -16l-5 -65h-84l1 184q0 9 8 9z" />
    <glyph glyph-name="tcedilla" unicode="&#x163;" horiz-adv-x="404" 
d="M211 500h125v-82l-125 -6v-275q0 -26 15.5 -39t40.5 -13q35 -1 60 22l28 -65q-16 -21 -40.5 -33.5t-56.5 -16.5q-16 -2 -24 -1l-14 -33q2 0 6.5 -0.5t6.5 -1.5q37 -8 56.5 -32.5t16.5 -55.5q-1 -24 -15 -44t-40.5 -33t-60.5 -13q-53 2 -93 30l18 57q25 -14 45 -15
q23 -2 38.5 6.5t16.5 28.5q0 31 -43 37q-14 1 -35 -1l25 78q-27 9 -46 26t-29 40t-10 52v295l-51 2q-8 1 -8 9v72l59 2v126l134 7v-130z" />
    <glyph glyph-name="Tcaron" unicode="&#x164;" horiz-adv-x="657" 
d="M412 757h-166l-115 169h118l80 -101l79 101h118zM28 700h601q8 0 8 -9l1 -184h-84l-5 65q-1 16 -17 16h-132v-480q0 -16 16 -17l63 -5v-86h-302v78q0 8 8 8l56 5q15 1 15 17v480h-131q-16 0 -17 -16l-5 -65h-84v184q1 9 9 9z" />
    <glyph glyph-name="tcaron" unicode="&#x165;" horiz-adv-x="441" 
d="M369 750q38 0 53 -32.5t3 -78.5q-13 -51 -48 -96l-50 16q15 30 21 53q4 17 2 30h-1q-11 4 -19 12t-12 18.5t-4 21.5q0 22 16 39t39 17zM211 500h125v-82l-125 -6v-275q0 -26 15.5 -39t40.5 -13q35 -1 60 22l28 -65q-40 -53 -127 -53q-69 0 -110 34.5t-41 93.5v295l-51 2
q-8 1 -8 9v72l59 2v126l134 7v-130z" />
    <glyph glyph-name="Tbar" unicode="&#x166;" horiz-adv-x="657" 
d="M638 507h-84l-5 65q-1 16 -17 16h-132v-189h96v-98h-96v-193q0 -16 16 -17l63 -5v-86h-302v78q0 8 8 8l56 5q15 1 15 17v193h-95v98h95v189h-131q-16 0 -17 -16l-5 -65h-84l1 184q0 9 8 9h601q8 0 8 -9z" />
    <glyph glyph-name="tbar" unicode="&#x167;" horiz-adv-x="404" 
d="M327 107l28 -65q-40 -53 -127 -53q-46 0 -80 15.5t-52.5 44.5t-18.5 68v120h-59v97h59v78l-51 2q-8 1 -8 9v72l59 2v126l134 7v-130h125v-82l-125 -6v-78h125v-97h-125v-100q0 -26 15.5 -39t40.5 -13q35 -1 60 22z" />
    <glyph glyph-name="Utilde" unicode="&#x168;" horiz-adv-x="827" 
d="M507 888l76 -15q-1 -34 -12 -58t-30.5 -36t-45.5 -14q-25 -2 -59 9q-12 3 -28 9.5t-28 11.5t-18 6q-13 2 -21.5 -7t-20.5 -36l-76 23q15 88 78 102q37 8 91 -14q44 -18 60 -14q19 4 34 33zM783 613l-67 -6q-15 -1 -15 -16v-318q0 -84 -35 -148t-99.5 -99.5t-149.5 -35.5
q-129 0 -206.5 78t-77.5 205v317q0 16 -16 17l-61 5q-8 1 -8 9v78h308v-86l-63 -5q-15 -2 -15 -17v-318q0 -82 40 -124.5t108 -42.5q69 0 111.5 43t42.5 124v318q0 15 -15 16l-66 6v86h284v-86z" />
    <glyph glyph-name="utilde" unicode="&#x169;" horiz-adv-x="694" 
d="M440 688l76 -15q0 -34 -11.5 -58t-30.5 -36t-45 -14q-25 -2 -60 9q-12 3 -27.5 9.5t-27.5 11.5t-18 6q-9 1 -15.5 -2.5t-12.5 -13t-14 -27.5l-76 23q15 88 78 102q36 8 90 -14q45 -18 61 -14q19 4 33 33zM33 499h203q8 0 8 -9v-317q0 -84 76 -84q58 0 130 46v261
q0 16 -16 17l-64 5v81h205q9 0 9 -9v-388q0 -7 4.5 -12t11.5 -5l61 -3v-79l-202 -10q-4 -1 -6.5 2t-2.5 7v62q-44 -33 -96 -53.5t-97 -20.5q-43 0 -75.5 17t-51.5 53t-19 88l-1 248q0 16 -15 17l-62 5v81z" />
    <glyph glyph-name="Umacron" unicode="&#x16a;" horiz-adv-x="827" 
d="M581 777h-335v97h335v-97zM783 613l-67 -6q-15 -1 -15 -16v-318q0 -127 -77.5 -205t-206.5 -78t-206.5 78t-77.5 205v317q0 16 -16 17l-61 5q-8 1 -8 9v78h308v-86l-63 -5q-15 -2 -15 -17v-318q0 -82 40 -124.5t108 -42.5q69 0 111.5 43t42.5 124v318q0 15 -15 16l-66 6
v86h284v-86z" />
    <glyph glyph-name="umacron" unicode="&#x16b;" horiz-adv-x="694" 
d="M515 577h-335v97h335v-97zM33 499h203q8 0 8 -9v-317q0 -84 76 -84q58 0 130 46v261q0 16 -16 17l-64 5v81h205q9 0 9 -9v-388q0 -7 4.5 -12t11.5 -5l61 -3v-79l-202 -10q-4 -1 -6.5 2t-2.5 7v62q-44 -33 -96 -53.5t-97 -20.5q-66 0 -106 40.5t-40 117.5l-1 248
q0 16 -15 17l-62 5v81z" />
    <glyph glyph-name="Uring" unicode="&#x16e;" horiz-adv-x="827" 
d="M413 963q34 0 62 -16.5t43.5 -44.5t15.5 -60q0 -49 -34.5 -85t-86 -36t-86 36t-34.5 85.5t34.5 85t85.5 35.5zM413.5 898q-22.5 0 -38 -16t-15.5 -40t15.5 -40t38 -16t38 16t15.5 40t-15.5 40t-38 16zM783 613l-67 -6q-15 -1 -15 -16v-318q0 -84 -35 -148t-99.5 -99.5
t-149.5 -35.5q-129 0 -206.5 78t-77.5 205v317q0 16 -16 17l-61 5q-8 1 -8 9v78h308v-86l-63 -5q-15 -2 -15 -17v-318q0 -82 40 -124.5t108 -42.5q69 0 111.5 43t42.5 124v318q0 15 -15 16l-66 6v86h284v-86z" />
    <glyph glyph-name="uring" unicode="&#x16f;" horiz-adv-x="694" 
d="M347 763q51 0 86 -35.5t35 -85t-35 -85.5t-86 -36t-86 36t-35 85.5t35 85t86 35.5zM347 698q-22 0 -37.5 -16t-15.5 -40t15.5 -40t37.5 -16t38 16t16 40t-16 40t-38 16zM33 499h203q8 0 8 -9v-317q0 -84 76 -84q58 0 130 46v261q0 16 -16 17l-64 5v81h205q9 0 9 -9v-388
q0 -7 4.5 -12t11.5 -5l61 -3v-79l-202 -10q-4 -1 -6.5 2t-2.5 7v62q-44 -33 -96 -53.5t-97 -20.5q-66 0 -106 40.5t-40 117.5l-1 248q0 16 -15 17l-62 5v81z" />
    <glyph glyph-name="Uhungarumlaut" unicode="&#x170;" horiz-adv-x="827" 
d="M357 757h-118l93 169h158zM568 757h-117l93 169h157zM783 613l-67 -6q-15 -1 -15 -16v-318q0 -84 -35 -148t-99.5 -99.5t-149.5 -35.5q-129 0 -206.5 78t-77.5 205v317q0 16 -16 17l-61 5q-8 1 -8 9v78h308v-86l-63 -5q-15 -2 -15 -17v-318q0 -82 40 -124.5t108 -42.5
q45 0 79.5 18t54.5 56t20 93v318q0 15 -15 16l-66 6v86h284v-86z" />
    <glyph glyph-name="uhungarumlaut" unicode="&#x171;" horiz-adv-x="694" 
d="M291 557h-118l93 169h157zM502 557h-118l93 169h158zM33 499h203q8 0 8 -9v-317q0 -84 76 -84q58 0 130 46v261q0 16 -16 17l-64 5v81h205q9 0 9 -9v-388q0 -7 4.5 -12t11.5 -5l61 -3v-79l-202 -10q-4 -1 -6.5 2t-2.5 7v62q-44 -33 -96 -53.5t-97 -20.5
q-66 0 -106.5 40.5t-40.5 117.5v248q0 16 -15 17l-62 5v81z" />
    <glyph glyph-name="Uogonek" unicode="&#x172;" horiz-adv-x="827" 
d="M356 613l-63 -5q-15 -2 -15 -17v-318q0 -82 40 -124.5t108 -42.5q69 0 111.5 43t42.5 124v318q0 15 -15 16l-66 6v86h284v-86l-67 -6q-15 -1 -15 -16v-318q0 -91 -40.5 -158t-113.5 -99q-58 -34 -59 -87q0 -26 15 -40.5t39 -14.5q20 -2 46 11l19 -67q-47 -24 -92 -24
q-49 0 -77.5 26t-32.5 66q-5 56 37 105q-19 -2 -37 0q-64 2 -115.5 23.5t-85.5 58t-52.5 87.5t-18.5 113v317q0 16 -16 17l-61 5q-8 1 -8 9v78h308v-86z" />
    <glyph glyph-name="uogonek" unicode="&#x173;" horiz-adv-x="694" 
d="M33 499h203q8 0 8 -9v-317q0 -84 76 -84q58 0 130 46v261q0 16 -16 17l-64 5v81h205q9 0 9 -9v-388q0 -7 4.5 -12t11.5 -5l61 -3v-79l-141 -7q-38 -31 -38 -73q-1 -18 6 -30.5t19 -18.5t28 -6q20 -2 46 11l19 -67q-46 -24 -92 -24q-49 0 -77.5 26t-32.5 65q-6 68 52 123
v62q-44 -33 -96 -53.5t-97 -20.5q-66 0 -106 40.5t-40 117.5l-1 248q0 16 -15 17l-62 5v81z" />
    <glyph glyph-name="Wcircumflex" unicode="&#x174;" horiz-adv-x="1159" 
d="M777 757h-118l-79 101l-80 -101h-118l115 169h166zM1139 614l-72 -6l-188 -608h-124l-178 480l-178 -480h-127l-182 599q-3 10 -14 11l-49 4q-8 0 -8 8v78h199l134 -503l140 388q3 9 -2 17t-15 8l-43 4q-8 1 -8 9v77h235l164 -503l114 389q2 9 -2.5 16t-14.5 8l-46 4
q-8 1 -8 9v77h273v-86z" />
    <glyph glyph-name="wcircumflex" unicode="&#x175;" horiz-adv-x="857" 
d="M626 557h-118l-79 101l-80 -101h-117l114 169h166zM844 419l-44 -4l-154 -415h-122l-96 274l-101 -274h-122l-141 406q-3 9 -12 10l-32 3q-7 1 -7 9v72h161l103 -357l86 247q2 5 1.5 9t-3 7.5t-6 6t-8.5 2.5l-43 3q-7 1 -7 9v73h195l104 -357l86 248q3 9 -1.5 16t-14.5 8
l-44 4q-8 1 -8 9v72h230v-81z" />
    <glyph glyph-name="Ycircumflex" unicode="&#x176;" horiz-adv-x="708" 
d="M551 757h-118l-79 101l-80 -101h-118l115 169h166zM688 614l-48 -4l-206 -367v-135q0 -16 15 -17l64 -5v-86h-302v78q0 8 8 8l55 5q16 1 16 17v128l-208 367q-4 6 -12 7l-43 4q-8 0 -8 8v78h166l188 -336l119 216q6 11 1 20t-17 10l-47 4q-8 1 -8 8v78h267v-86z" />
    <glyph glyph-name="ycircumflex" unicode="&#x177;" horiz-adv-x="580" 
d="M488 557h-117l-80 101l-79 -101h-118l114 169h166zM567 419l-48 -4l-248 -621q-2 -5 -7 -5h-209v80l129 11q10 2 13 10l43 109h-22l-155 407q-3 9 -13 10l-30 3q-7 1 -7 9v72h158l124 -366l101 254q4 10 -1 17.5t-16 8.5l-51 4q-7 1 -7 9v73h246v-81z" />
    <glyph glyph-name="Ydieresis" unicode="&#x178;" horiz-adv-x="708" 
d="M251.5 903q28.5 0 48 -20.5t19.5 -46.5q0 -17 -9 -32.5t-24.5 -25t-33.5 -9.5q-29 0 -48 20t-19 47t19 47t47.5 20zM455 903q28 0 47.5 -20.5t19.5 -46.5q0 -17 -8.5 -32.5t-24 -25t-34.5 -9.5q-28 0 -47.5 20.5t-19.5 46.5t19.5 46.5t47.5 20.5zM688 614l-48 -4
l-206 -367v-135q0 -16 15 -17l64 -5v-86h-302v78q0 8 8 8l55 5q16 1 16 17v128l-208 367q-4 6 -12 7l-43 4q-8 0 -8 8v78h166l188 -336l119 216q6 11 1 20t-17 10l-47 4q-8 1 -8 8v78h267v-86z" />
    <glyph glyph-name="Zacute" unicode="&#x179;" horiz-adv-x="595" 
d="M352 757h-118l107 169h158zM566 620l-343 -505h241q16 0 17 16l4 55h84v-178q0 -9 -9 -9h-534v79l348 506h-222q-15 0 -17 -16l-3 -49h-84v172q0 9 9 9h509v-80z" />
    <glyph glyph-name="zacute" unicode="&#x17a;" horiz-adv-x="495" 
d="M303 557h-118l107 169h157zM442 446l-244 -361h168q16 0 17 15l4 47h67v-138q0 -9 -8 -9h-409v54l244 361h-140q-15 0 -17 -15l-3 -45h-68v136q0 9 9 9h380v-54z" />
    <glyph glyph-name="Zdotaccent" unicode="&#x17b;" horiz-adv-x="595" 
d="M297 903q28 0 47.5 -20.5t19.5 -46.5q0 -17 -8.5 -32.5t-24 -25t-34.5 -9.5q-28 0 -47 20t-19 47t19 47t47 20zM566 620l-343 -505h241q16 0 17 16l4 55h84v-178q0 -9 -9 -9h-534v79l348 506h-222q-15 0 -17 -16l-3 -49h-84v172q0 9 9 9h509v-80z" />
    <glyph glyph-name="zdotaccent" unicode="&#x17c;" horiz-adv-x="495" 
d="M248 703q28 0 47.5 -20.5t19.5 -46.5q0 -17 -9 -32.5t-24.5 -25t-33.5 -9.5q-29 0 -48 20t-19 47q0 17 8.5 32.5t24 25t34.5 9.5zM442 446l-244 -361h168q16 0 17 15l4 47h67v-138q0 -9 -8 -9h-409v54l244 361h-140q-15 0 -17 -15l-3 -45h-68v136q0 9 9 9h380v-54z" />
    <glyph glyph-name="Zcaron" unicode="&#x17d;" horiz-adv-x="595" 
d="M381 757h-167l-114 169h118l80 -101l79 101h118zM566 620l-343 -505h241q16 0 17 16l4 55h84v-178q0 -9 -9 -9h-534v79l348 506h-222q-15 0 -17 -16l-3 -49h-84v172q0 9 9 9h509v-80z" />
    <glyph glyph-name="zcaron" unicode="&#x17e;" horiz-adv-x="495" 
d="M331 557h-166l-115 169h119l79 -101l80 101h117zM442 446l-244 -361h168q16 0 17 15l4 47h67v-138q0 -9 -8 -9h-409v54l244 361h-140q-15 0 -17 -15l-3 -45h-68v136q0 9 9 9h380v-54z" />
    <glyph glyph-name="longs" unicode="&#x17f;" horiz-adv-x="416" 
d="M292 749q93 0 166 -47l-32 -84q-63 32 -114 31q-35 0 -56.5 -19t-21.5 -56v-471q0 -16 16 -17l58 -5v-81h-264v73q0 8 8 9l33 2q15 2 15 17v311l-56 3q-8 0 -8 8v77h64v84q0 81 55 123t137 42z" />
    <glyph glyph-name="florin" unicode="&#x192;" horiz-adv-x="458" 
d="M334 749q93 0 167 -47l-33 -84q-63 32 -113 31q-35 0 -57 -19t-22 -56v-156h132v-82l-132 -7v-400q0 -82 -68 -118q-37 -20 -85 -18.5t-87 25.5l24 74q40 -9 63 4q20 13 20 45v389l-56 3q-8 0 -8 8v77h64v166q0 81 55 123t136 42z" />
    <glyph glyph-name="Ohorn" unicode="&#x1a0;" horiz-adv-x="777" 
d="M650 815l100 32q29 -57 29 -111q-1 -36 -16 -63t-39.5 -41.5t-57.5 -17.5q-15 -1 -32 1q104 -101 104 -265q0 -158 -97 -258.5t-253 -100.5t-252.5 100.5t-96.5 258t96.5 258t252.5 100.5q74 0 136 -25q30 -12 65 -12q82 0 84 58q2 35 -23 86zM388.5 592
q-91.5 0 -145.5 -64t-54 -178q0 -76 24.5 -131t69.5 -83t105 -28q92 0 146 64t54 178t-54 178t-145.5 64z" />
    <glyph glyph-name="ohorn" unicode="&#x1a1;" horiz-adv-x="601" 
d="M499 606l93 29q29 -57 28 -111q-1 -50 -28 -81t-72 -38q46 -65 46 -155q0 -113 -72.5 -186.5t-192.5 -73.5q-81 0 -141.5 34t-92.5 93t-32 133q0 114 72.5 187t193.5 73q92 0 158 -46l13 3q43 10 49 52q5 35 -22 87zM300.5 410q-57.5 0 -93 -42t-35.5 -118t35.5 -118
t93 -42t93 42t35.5 118t-35.5 118t-93 42z" />
    <glyph glyph-name="Uhorn" unicode="&#x1af;" horiz-adv-x="828" 
d="M738 818l74 26q32 -24 46 -59q16 -38 3 -78t-50 -61q-21 -12 -47 -14l-50 -6q-13 -3 -13 -16v-336q0 -127 -77.5 -205t-206.5 -78t-206.5 78t-77.5 205v318q0 15 -16 17l-61 5q-8 0 -8 8v78h308v-86l-63 -5q-15 -1 -15 -17v-318q0 -82 40 -124t108 -42q45 0 79.5 18
t54.5 56t20 92v318q0 16 -15 17l-66 5v86h234q10 2 19 7q18 11 22.5 29.5t-5.5 39.5q-9 23 -31 42z" />
    <glyph glyph-name="uhorn" unicode="&#x1b0;" horiz-adv-x="694" 
d="M573 630l75 26q43 -32 50 -86q4 -39 -13.5 -72.5t-55.5 -48.5q-21 -8 -45 -9v-338q0 -5 2 -8.5t5.5 -6t8.5 -2.5l61 -3v-79l-202 -10q-4 -1 -6.5 2t-2.5 7v62q-44 -33 -96 -53.5t-97 -20.5q-66 0 -106 40.5t-40 117.5l-1 248q0 16 -15 17l-62 5v81h203q8 0 8 -9v-317
q0 -84 76 -84q58 0 130 46v261q0 16 -16 17l-64 5v81h167q21 1 38 10q42 20 32 64q-7 29 -34 57z" />
    <glyph glyph-name="DZcaron" unicode="&#x1c4;" horiz-adv-x="1344" 
d="M1130 757h-166l-115 169h118l80 -101l79 101h118zM48 700h313q157 0 253 -97t96 -253.5t-96 -253t-253 -96.5h-313v78q0 8 8 8l55 5q16 1 16 17v484q0 16 -16 17l-55 5q-8 0 -8 8v78zM1315 620l-343 -505h242q15 0 16 16l5 55h83v-178q0 -9 -9 -9h-534v79l348 506h-221
q-16 0 -17 -16l-4 -49h-84v172q0 9 9 9h509v-80zM311 584l-40 -3v-462l40 -3h50q92 0 146 60.5t54 173.5t-54 173.5t-146 60.5h-50z" />
    <glyph glyph-name="Dzcaron" unicode="&#x1c5;" horiz-adv-x="1244" 
d="M1080 557h-166l-114 169h118l79 -101l80 101h117zM48 700h313q157 0 253 -97t96 -253.5t-96 -253t-253 -96.5h-313v78q0 8 8 8l55 5q16 1 16 17v484q0 16 -16 17l-55 5q-8 0 -8 8v78zM311 584l-40 -3v-462l40 -2h50q92 0 146 60t54 173q0 38 -6.5 70.5t-19 58.5t-30 45.5
t-39.5 32.5t-48.5 20t-56.5 7h-50zM1191 446l-244 -361h169q15 0 17 15l3 47h68v-138q0 -9 -9 -9h-409v54l244 361h-140q-15 0 -17 -15l-3 -45h-67v136q0 9 8 9h380v-54z" />
    <glyph glyph-name="dzcaron" unicode="&#x1c6;" horiz-adv-x="1121" 
d="M304 739l202 11q9 0 9 -9v-639q0 -15 16 -17l55 -4v-81h-177q-7 0 -8 7l-6 52q-18 -21 -41 -36t-52 -24t-60 -9q-93 0 -150 66.5t-57 195.5q0 37 5.5 71t19.5 69t36 60t58.5 41.5t83.5 16.5q88 0 143 -60v190q0 7 -4.5 12t-11.5 5l-61 3v79zM957 557h-166l-114 169h118
l79 -101l80 101h117zM1068 446l-244 -361h169q15 0 16 15l4 47h67l1 -138q0 -9 -9 -9h-409v54l244 361h-140q-15 0 -17 -15l-3 -45h-67l-1 136q0 9 9 9h380v-54zM286 410q-53 0 -83.5 -41.5t-30.5 -117t35.5 -117t92.5 -41.5q51 0 81 35v226q-32 56 -95 56z" />
    <glyph glyph-name="LJ" unicode="&#x1c7;" horiz-adv-x="982" 
d="M933 614l-62 -5q-16 -1 -16 -17v-553q0 -101 -59.5 -169.5t-166.5 -88.5l-28 77q33 14 58 40t38 62t13 79v553q0 16 -15 17l-59 5q-7 0 -7 8v78h304v-86zM353 614l-67 -5q-15 -2 -15 -17v-476h182q16 0 17 16l5 65h84v-188q0 -9 -9 -9h-502v78q0 8 8 8l55 5q16 1 16 17
v484q0 16 -16 17l-55 5q-8 0 -8 8v78h305v-86z" />
    <glyph glyph-name="Lj" unicode="&#x1c8;" horiz-adv-x="875" 
d="M752 735q30 0 51.5 -21.5t21.5 -51.5t-21.5 -51.5t-51.5 -21.5t-51.5 21.5t-21.5 51.5t21.5 51.5t51.5 21.5zM353 614l-67 -5q-15 -2 -15 -17v-476h182q16 0 17 16l5 65h84v-188q0 -9 -9 -9h-502v78q0 8 8 8l55 5q16 1 16 17v484q0 16 -16 17l-55 5q-8 0 -8 8v78h305v-86
zM614 497l202 10q10 1 10 -8v-570q0 -64 -41.5 -102t-112.5 -38q-67 0 -108 36l28 72q20 -10 45 -10q55 0 55 54v457q0 7 -4.5 11.5t-11.5 5.5l-62 3v79z" />
    <glyph glyph-name="lj" unicode="&#x1c9;" horiz-adv-x="668" 
d="M48 739l202 11q9 0 9 -9v-638q0 -15 16 -17l65 -5v-81h-291v73q0 8 8 9l53 4q15 2 15 17v537q0 7 -4.5 12t-11.5 5l-61 3v79zM544.5 735q30.5 0 52 -21.5t21.5 -51.5t-21.5 -51.5t-52 -21.5t-51.5 21.5t-21 51.5t21 51.5t51.5 21.5zM407 497l202 10q9 1 9 -8v-570
q0 -64 -41.5 -102t-111.5 -38q-68 0 -109 36l28 72q20 -10 45 -10q55 0 55 54v457q0 7 -4.5 11.5t-11.5 5.5l-61 3v79z" />
    <glyph glyph-name="NJ" unicode="&#x1ca;" horiz-adv-x="1246" 
d="M802 614l-63 -5q-16 -1 -16 -17v-592h-131l-338 458v-351q0 -15 15 -16l58 -5v-86h-284v78q0 8 8 8l56 5q15 1 15 17v484q0 16 -15 17l-56 5q-8 0 -8 8v78h199l350 -473v366q0 15 -15 17l-51 4q-8 0 -8 8v78h284v-86zM1198 614l-63 -5q-15 -1 -15 -17v-553
q0 -101 -60 -169.5t-167 -88.5l-28 77q51 21 80.5 68.5t29.5 112.5v553q0 16 -16 17l-58 5q-8 0 -8 8v78h305v-86z" />
    <glyph glyph-name="Nj" unicode="&#x1cb;" horiz-adv-x="1140" 
d="M1016.5 735q30.5 0 52 -21.5t21.5 -51.5t-21.5 -51.5t-52 -21.5t-51.5 21.5t-21 51.5t21 51.5t51.5 21.5zM802 614l-63 -5q-16 -1 -16 -17v-592h-131l-338 458v-351q0 -15 15 -16l58 -5v-86h-284v78q0 8 8 8l56 5q15 1 15 17v484q0 16 -15 17l-56 5q-8 0 -8 8v78h199
l350 -473v366q0 15 -15 17l-51 4q-8 0 -8 8v78h284v-86zM879 497l202 10q9 1 9 -8v-570q0 -64 -41.5 -102t-111.5 -38q-68 0 -109 36l28 72q20 -10 45 -10q55 0 55 54v457q0 7 -4.5 11.5t-11.5 5.5l-61 3v79z" />
    <glyph glyph-name="nj" unicode="&#x1cc;" horiz-adv-x="995" 
d="M871.5 735q30.5 0 52 -21.5t21.5 -51.5t-21.5 -51.5t-52 -21.5t-51.5 21.5t-21 51.5t21 51.5t51.5 21.5zM444 509q66 0 106 -40.5t40 -117.5v-248q0 -16 16 -17l61 -5v-81h-202q-9 0 -9 9v317q0 84 -75 84q-58 0 -130 -46v-261q0 -16 15 -17l65 -5v-81h-291v73q0 8 7 9
l55 4q15 2 15 17v294q0 5 -2 8.5t-5.5 6t-8.5 2.5l-61 3v79l202 11q9 0 9 -9v-63q44 33 96 53.5t97 20.5zM734 497l202 10q9 1 9 -8v-570q0 -64 -41.5 -102t-111.5 -38q-68 0 -109 36l28 72q20 -10 45 -10q55 0 55 54v457q0 7 -4.5 11.5t-11.5 5.5l-61 3v79z" />
    <glyph glyph-name="Acaron" unicode="&#x1cd;" horiz-adv-x="803" 
d="M485 757h-166l-115 169h119l79 -101l80 101h117zM725 91l59 -5v-86h-302v77q0 8 8 9l52 4q10 1 15 9t2 17l-31 77h-282l-40 -101l80 -6v-86h-267v78q0 8 8 8l43 4q10 1 13 9l240 597l148 8zM290 309h195l-97 249z" />
    <glyph glyph-name="acaron" unicode="&#x1ce;" horiz-adv-x="567" 
d="M350 557h-166l-115 169h119l79 -101l80 101h117zM256 508q42 1 78 -9.5t65.5 -31t46.5 -56t17 -82.5v-227q0 -15 15 -17l56 -4v-81h-177q-7 0 -8 7l-7 53q-27 -32 -67 -51t-86 -19q-70 0 -113.5 41.5t-43.5 104.5q0 60 43 92t135 57l119 32v14q-1 79 -88 79
q-43 -1 -86 -19q-9 -4 -9 -13l-5 -52h-69v129q0 4 3 6q33 20 83 33.5t98 13.5zM329 235l-88 -24q-29 -8 -44 -15t-22.5 -18t-7.5 -28q0 -27 19 -42.5t52 -15.5q57 0 89 42l2 3v98z" />
    <glyph glyph-name="Icaron" unicode="&#x1cf;" horiz-adv-x="398" 
d="M283 757h-166l-115 169h118l80 -101l79 101h118zM350 614l-63 -5q-16 -1 -16 -17v-484q0 -16 16 -17l63 -5v-86h-302v78q0 8 8 8l56 5q15 1 15 17v484q0 16 -15 17l-56 5q-8 0 -8 8v78h302v-86z" />
    <glyph glyph-name="icaron" unicode="&#x1d0;" horiz-adv-x="384" 
d="M266 557h-166l-114 169h118l79 -101l80 101h117zM48 496l202 11q9 0 9 -9v-395q0 -15 16 -17l65 -5v-81h-292v73q0 8 8 9l54 4q15 2 15 17v294q0 7 -4.5 12t-11.5 5l-61 3v79z" />
    <glyph glyph-name="Ocaron" unicode="&#x1d1;" horiz-adv-x="777" 
d="M472 757h-167l-114 169h118l79 -101l80 101h118zM388 708q156 0 253 -100.5t97 -258t-97 -258t-253 -100.5t-252.5 100.5t-96.5 258t96.5 258t252.5 100.5zM388.5 592q-60.5 0 -105.5 -28.5t-69.5 -83t-24.5 -130.5q0 -114 54 -178t145.5 -64t145.5 64t54 178
q0 76 -25 130.5t-69.5 83t-105 28.5z" />
    <glyph glyph-name="ocaron" unicode="&#x1d2;" horiz-adv-x="601" 
d="M384 557h-166l-115 169h118l80 -101l79 101h118zM300.5 510q120.5 0 193 -73t72.5 -186.5t-72.5 -187t-193 -73.5t-193 73.5t-72.5 187t72.5 186.5t193 73zM300.5 410q-57.5 0 -93 -42t-35.5 -118t35.5 -118t93 -42t93 42t35.5 118t-35.5 118t-93 42z" />
    <glyph glyph-name="Ucaron" unicode="&#x1d3;" horiz-adv-x="827" 
d="M497 757h-166l-115 169h118l80 -101l79 101h118zM783 613l-67 -6q-15 -1 -15 -16v-318q0 -127 -77.5 -205t-206.5 -78t-206.5 78t-77.5 205v317q0 16 -16 17l-61 5q-8 1 -8 9v78h308v-86l-63 -5q-15 -2 -15 -17v-318q0 -82 40 -124.5t108 -42.5q45 0 79.5 18t54.5 56
t20 93v318q0 15 -15 16l-66 6v86h284v-86z" />
    <glyph glyph-name="ucaron" unicode="&#x1d4;" horiz-adv-x="694" 
d="M431 557h-167l-114 169h118l79 -101l80 101h117zM33 499h203q8 0 8 -9v-317q0 -84 76 -84q58 0 130 46v261q0 16 -16 17l-64 5v81h205q9 0 9 -9v-388q0 -7 4.5 -12t11.5 -5l61 -3v-79l-202 -10q-4 -1 -6.5 2t-2.5 7v62q-44 -33 -96 -53.5t-97 -20.5q-66 0 -106.5 40.5
t-40.5 117.5v248q0 16 -15 17l-62 5v81z" />
    <glyph glyph-name="Udieresismacron" unicode="&#x1d5;" horiz-adv-x="827" 
d="M581 974h-335v97h335v-97zM311.5 903q28.5 0 48 -20.5t19.5 -46.5q0 -17 -9 -32.5t-24.5 -25t-33.5 -9.5q-29 0 -48 20t-19 47t19 47t47.5 20zM515 903q28 0 47.5 -20.5t19.5 -46.5q0 -17 -8.5 -32.5t-24 -25t-34.5 -9.5q-28 0 -47.5 20.5t-19.5 46.5t19.5 46.5
t47.5 20.5zM783 613l-67 -6q-15 -1 -15 -16v-318q0 -127 -77.5 -205t-206.5 -78t-206.5 78t-77.5 205v317q0 16 -16 17l-61 5q-8 1 -8 9v78h308v-86l-63 -5q-15 -2 -15 -17v-318q0 -82 40 -124.5t108 -42.5q45 0 79.5 18t54.5 56t20 93v318q0 15 -15 16l-66 6v86h284v-86z
" />
    <glyph glyph-name="udieresismacron" unicode="&#x1d6;" horiz-adv-x="694" 
d="M515 768h-335v97h335v-97zM245 703q28 0 47.5 -20.5t19.5 -46.5t-19.5 -46.5t-47.5 -20.5t-47.5 20t-19.5 47t19.5 47t47.5 20zM449 703q28 0 47.5 -20.5t19.5 -46.5t-19.5 -46.5t-47.5 -20.5t-47.5 20.5t-19.5 46.5t19.5 46.5t47.5 20.5zM33 499h203q8 0 8 -9v-317
q0 -84 76 -84q58 0 130 46v261q0 16 -16 17l-64 5v81h205q9 0 9 -9v-388q0 -7 4.5 -12t11.5 -5l61 -3v-79l-202 -10q-4 -1 -6.5 2t-2.5 7v62q-44 -33 -96 -53.5t-97 -20.5q-66 0 -106.5 40.5t-40.5 117.5v248q0 16 -15 17l-62 5v81z" />
    <glyph glyph-name="Udieresisacute" unicode="&#x1d7;" horiz-adv-x="827" 
d="M468 943h-118l108 169h157zM311.5 903q28.5 0 48 -20.5t19.5 -46.5q0 -17 -9 -32.5t-24.5 -25t-33.5 -9.5q-29 0 -48 20t-19 47t19 47t47.5 20zM515 903q28 0 47.5 -20.5t19.5 -46.5q0 -17 -8.5 -32.5t-24 -25t-34.5 -9.5q-28 0 -47.5 20.5t-19.5 46.5t19.5 46.5
t47.5 20.5zM783 613l-67 -6q-15 -1 -15 -16v-318q0 -127 -77.5 -205t-206.5 -78t-206.5 78t-77.5 205v317q0 16 -16 17l-61 5q-8 1 -8 9v78h308v-86l-63 -5q-15 -2 -15 -17v-318q0 -82 40 -124.5t108 -42.5q45 0 79.5 18t54.5 56t20 93v318q0 15 -15 16l-66 6v86h284v-86z
" />
    <glyph glyph-name="udieresisacute" unicode="&#x1d8;" horiz-adv-x="694" 
d="M402 735h-118l107 169h158zM245 703q28 0 47.5 -20.5t19.5 -46.5q0 -17 -8.5 -32.5t-24 -25t-34.5 -9.5q-28 0 -47.5 20t-19.5 47t19.5 47t47.5 20zM449 703q28 0 47.5 -20.5t19.5 -46.5q0 -17 -8.5 -32.5t-24 -25t-34.5 -9.5q-28 0 -47.5 20.5t-19.5 46.5t19.5 46.5
t47.5 20.5zM33 499h203q8 0 8 -9v-317q0 -84 76 -84q58 0 130 46v261q0 16 -16 17l-64 5v81h205q9 0 9 -9v-388q0 -7 4.5 -12t11.5 -5l61 -3v-79l-202 -10q-4 -1 -6.5 2t-2.5 7v62q-29 -22 -61 -38t-67 -26t-65 -10q-66 0 -106 40.5t-40 117.5l-1 248q0 16 -15 17l-62 5v81z
" />
    <glyph glyph-name="Udieresiscaron" unicode="&#x1d9;" horiz-adv-x="827" 
d="M497 943h-166l-115 169h118l80 -101l79 101h118zM311.5 903q28.5 0 48 -20.5t19.5 -46.5q0 -17 -9 -32.5t-24.5 -25t-33.5 -9.5q-29 0 -48 20t-19 47t19 47t47.5 20zM515 903q28 0 47.5 -20.5t19.5 -46.5q0 -17 -8.5 -32.5t-24 -25t-34.5 -9.5q-28 0 -47.5 20.5
t-19.5 46.5t19.5 46.5t47.5 20.5zM783 613l-67 -6q-15 -1 -15 -16v-318q0 -127 -77.5 -205t-206.5 -78t-206.5 78t-77.5 205v317q0 16 -16 17l-61 5q-8 1 -8 9v78h308v-86l-63 -5q-15 -2 -15 -17v-318q0 -82 40 -124.5t108 -42.5q45 0 79.5 18t54.5 56t20 93v318
q0 15 -15 16l-66 6v86h284v-86z" />
    <glyph glyph-name="udieresiscaron" unicode="&#x1da;" horiz-adv-x="694" 
d="M431 735h-167l-114 169h118l79 -101l80 101h117zM245 703q28 0 47.5 -20.5t19.5 -46.5t-19.5 -46.5t-47.5 -20.5t-47.5 20t-19.5 47t19.5 47t47.5 20zM449 703q28 0 47.5 -20.5t19.5 -46.5t-19.5 -46.5t-47.5 -20.5t-47.5 20.5t-19.5 46.5t19.5 46.5t47.5 20.5zM33 499
h203q8 0 8 -9v-317q0 -84 76 -84q58 0 130 46v261q0 16 -16 17l-64 5v81h205q9 0 9 -9v-388q0 -7 4.5 -12t11.5 -5l61 -3v-79l-202 -10q-4 -1 -6.5 2t-2.5 7v62q-44 -33 -96 -53.5t-97 -20.5q-66 0 -106.5 40.5t-40.5 117.5v248q0 16 -15 17l-62 5v81z" />
    <glyph glyph-name="Udieresisgrave" unicode="&#x1db;" horiz-adv-x="827" 
d="M476 943h-119l-146 169h157zM311.5 903q28.5 0 48 -20.5t19.5 -46.5q0 -17 -9 -32.5t-24.5 -25t-33.5 -9.5q-29 0 -48 20t-19 47t19 47t47.5 20zM515 903q28 0 47.5 -20.5t19.5 -46.5q0 -17 -8.5 -32.5t-24 -25t-34.5 -9.5q-28 0 -47.5 20.5t-19.5 46.5t19.5 46.5
t47.5 20.5zM783 613l-67 -6q-15 -1 -15 -16v-318q0 -127 -77.5 -205t-206.5 -78t-206.5 78t-77.5 205v317q0 16 -16 17l-61 5q-8 1 -8 9v78h308v-86l-63 -5q-15 -2 -15 -17v-318q0 -82 40 -124.5t108 -42.5q45 0 79.5 18t54.5 56t20 93v318q0 15 -15 16l-66 6v86h284v-86z
" />
    <glyph glyph-name="udieresisgrave" unicode="&#x1dc;" horiz-adv-x="694" 
d="M409 735h-118l-147 169h158zM245 703q28 0 47.5 -20.5t19.5 -46.5q0 -17 -8.5 -32.5t-24 -25t-34.5 -9.5q-28 0 -47.5 20t-19.5 47t19.5 47t47.5 20zM449 703q28 0 47.5 -20.5t19.5 -46.5q0 -17 -8.5 -32.5t-24 -25t-34.5 -9.5q-28 0 -47.5 20.5t-19.5 46.5t19.5 46.5
t47.5 20.5zM33 499h203q8 0 8 -9v-317q0 -84 76 -84q58 0 130 46v261q0 16 -16 17l-64 5v81h205q9 0 9 -9v-388q0 -7 4.5 -12t11.5 -5l61 -3v-79l-202 -10q-4 -1 -6.5 2t-2.5 7v62q-44 -33 -96 -53.5t-97 -20.5q-66 0 -106 40.5t-40 117.5l-1 248q0 16 -15 17l-62 5v81z" />
    <glyph glyph-name="Adieresismacron" unicode="&#x1de;" horiz-adv-x="803" 
d="M569 933h-335v98h335v-98zM300 893q28 0 47.5 -20.5t19.5 -47t-19.5 -46.5t-47.5 -20t-47.5 20t-19.5 47q0 17 8.5 32t24 25t34.5 10zM503.5 893q18.5 0 34 -10t24 -25t8.5 -32q0 -27 -19 -47t-47.5 -20t-48 20t-19.5 47q0 17 9 32t24.5 25t34 10zM725 91l59 -5v-86h-302
v77q0 8 8 9l52 4q10 1 15 9t2 17l-31 77h-282l-40 -101l80 -6v-86h-267v78q0 8 8 8l43 4q10 1 13 9l240 597l148 8zM290 309h195l-97 249z" />
    <glyph glyph-name="adieresismacron" unicode="&#x1df;" horiz-adv-x="567" 
d="M434 740h-335v97h335v-97zM165 703q28 0 47.5 -20.5t19.5 -46.5q0 -17 -8.5 -32.5t-24 -25t-34.5 -9.5q-28 0 -47.5 20t-19.5 47t19.5 47t47.5 20zM368.5 703q28.5 0 47.5 -20.5t19 -46.5q0 -17 -8.5 -32.5t-24 -25t-34.5 -9.5q-28 0 -47.5 20.5t-19.5 46.5t19.5 46.5
t48 20.5zM256 508q42 1 78 -9.5t65.5 -31t46.5 -56t17 -82.5v-227q0 -15 15 -17l56 -4v-81h-177q-7 0 -8 7l-7 53q-27 -32 -67 -51t-86 -19q-70 0 -113.5 41.5t-43.5 104.5q0 60 43 92t135 57l119 32v14q-1 79 -88 79q-43 -1 -86 -19q-9 -4 -9 -13l-5 -52h-69v129q0 4 3 6
q33 20 83 33.5t98 13.5zM329 235l-88 -24q-29 -8 -44 -15t-22.5 -18t-7.5 -28q0 -27 19 -42.5t52 -15.5q57 0 89 42l2 3v98z" />
    <glyph glyph-name="Gcaron" unicode="&#x1e6;" horiz-adv-x="702" 
d="M452 757h-166l-115 169h118l80 -101l79 101h118zM392 709q118 0 230 -59q4 -2 4 -6v-156h-84l-4 59q-1 10 -10 13q-71 32 -136 31q-34 0 -64 -9t-55 -28t-43 -47.5t-28 -68.5t-10 -88q0 -114 54 -178t146 -64q88 0 138 54v85q0 3 -1 6t-3.5 5.5t-5.5 4t-6 1.5l-116 6v89
h249q8 0 8 -9v-350h-85l-8 54q-82 -63 -194 -63q-145 0 -235.5 100.5t-90.5 258.5q0 87 28.5 156.5t77 113.5t110.5 66.5t134 22.5z" />
    <glyph glyph-name="gcaron" unicode="&#x1e7;" horiz-adv-x="576" 
d="M364 557h-166l-115 169h118l80 -101l79 101h118zM543 433l-80 -7q36 -36 36 -94q0 -82 -58.5 -129.5t-157.5 -47.5q-42 0 -78 9q-25 -9 -25 -26q0 -25 25.5 -34.5t90.5 -9.5q106 0 163 -35t57 -116.5t-65.5 -126.5t-179.5 -45q-110 0 -177.5 44.5t-67.5 114.5
q0 35 21.5 65t60.5 51q-41 22 -41 64q-1 53 72 83q-72 47 -72 139q0 82 58.5 130t157.5 48h260v-77zM283 425q-82 0 -82 -92.5t82 -92.5t82 92.5t-82 92.5zM242 9l-9 -2q-41 -7 -64.5 -26.5t-23.5 -45.5q0 -34 34 -54t91.5 -20t92 20t34.5 54q0 73 -127 73q-6 0 -16 0.5
t-12 0.5z" />
    <glyph glyph-name="DZ" unicode="&#x1f1;" horiz-adv-x="1344" 
d="M48 700h313q157 0 253 -97t96 -253.5t-96 -253t-253 -96.5h-313v78q0 8 8 8l55 5q16 1 16 17v484q0 16 -16 17l-55 5q-8 0 -8 8v78zM1315 620l-343 -505h242q15 0 16 16l5 55h83v-178q0 -9 -9 -9h-534v79l348 506h-221q-16 0 -17 -16l-4 -49h-84v172q0 9 9 9h509v-80z
M311 584l-40 -3v-462l40 -3h50q92 0 146 60.5t54 173.5t-54 173.5t-146 60.5h-50z" />
    <glyph glyph-name="Dz" unicode="&#x1f2;" horiz-adv-x="1244" 
d="M48 700h313q157 0 253 -97t96 -253.5t-96 -253t-253 -96.5h-313v78q0 8 8 8l55 5q16 1 16 17v484q0 16 -16 17l-55 5q-8 0 -8 8v78zM311 584l-40 -3v-462l40 -2h50q92 0 146 60t54 173q0 38 -6.5 70.5t-19 58.5t-30 45.5t-39.5 32.5t-48.5 20t-56.5 7h-50zM1191 446
l-244 -361h169q15 0 17 15l3 47h68v-138q0 -9 -9 -9h-409v54l244 361h-140q-15 0 -17 -15l-3 -45h-67v136q0 9 8 9h380v-54z" />
    <glyph glyph-name="dz" unicode="&#x1f3;" horiz-adv-x="1121" 
d="M304 739l202 11q9 0 9 -9v-639q0 -15 16 -17l55 -4v-81h-177q-7 0 -8 7l-6 52q-18 -21 -41 -36t-52 -24t-60 -9q-93 0 -150 66.5t-57 195.5q0 37 5.5 71t19.5 69t36 60t58.5 41.5t83.5 16.5q88 0 143 -60v190q0 7 -4.5 12t-11.5 5l-61 3v79zM1068 446l-244 -361h169
q15 0 16 15l4 47h67l1 -138q0 -9 -9 -9h-409v54l244 361h-140q-15 0 -17 -15l-3 -45h-67l-1 136q0 9 9 9h380v-54zM286 410q-26 0 -47 -10.5t-36 -30.5t-23 -49.5t-8 -67.5q0 -76 35.5 -117.5t92.5 -41.5q51 0 81 35v226q-32 56 -95 56z" />
    <glyph glyph-name="Oslashacute" unicode="&#x1fe;" horiz-adv-x="777" 
d="M447 757h-118l107 169h158zM593 750l-28 -85q82 -44 127.5 -126.5t45.5 -188.5q0 -158 -97 -258.5t-253 -100.5q-20 0 -41 2l-14 -43h-149l27 84q-81 44 -126.5 127t-45.5 189q0 157 96.5 257.5t252.5 100.5q21 0 41 -2l14 44h150zM189 350q0 -124 63 -189l140 431h-4
q-91 0 -145 -64t-54 -178zM385 108h3q92 0 146 64t54 178q0 124 -64 188z" />
    <glyph glyph-name="oslashacute" unicode="&#x1ff;" horiz-adv-x="601" 
d="M355 571h-118l107 169h158zM452 550l-22 -68q43 -21 73.5 -55.5t46.5 -79.5t16 -97q0 -113 -72.5 -186.5t-192.5 -73.5q-16 0 -31 1l-13 -41h-107l22 68q-65 31 -101 92.5t-36 139.5q0 114 72.5 187t193.5 73q15 0 30 -1l13 41h108zM172 250q0 -76 36 -119l91 279
q-57 0 -92 -42t-35 -118zM393 369l-91 -279q57 0 92 42t35 118t-36 119z" />
    <glyph glyph-name="Scommaaccent" unicode="&#x218;" horiz-adv-x="559" 
d="M317 711q97 1 165 -38q4 -2 4 -6v-157h-83l-5 61q-1 9 -9 13q-29 13 -70 13q-36 0 -64 -9t-43.5 -24.5t-15.5 -35.5q0 -22 5.5 -34t28.5 -28.5t72 -39.5q132 -62 176.5 -107.5t44.5 -113.5q0 -106 -78 -159.5t-207 -53.5q-90 0 -196 39q-6 2 -6 8v156h84l4 -53
q1 -10 10 -14q55 -20 119 -20q54 0 85.5 20.5t31.5 57.5q0 29 -16 44.5t-80 47.5q-65 31 -106.5 56t-67 45t-37.5 43.5t-15.5 43.5t-3.5 52q0 45 22.5 82.5t60.5 61t87 36.5t103 13zM277 -36q38 0 53 -32.5t3 -78.5q-13 -51 -48 -95l-50 15q14 29 21 53q3 17 2 31h-2
q-15 6 -25 20t-10 31q0 22 16.5 39t39.5 17z" />
    <glyph glyph-name="scommaaccent" unicode="&#x219;" horiz-adv-x="442" 
d="M254 510q71 1 123 -26q4 -2 4 -7v-127h-67l-5 55q-1 10 -10 13q-16 6 -39 6q-35 0 -57 -13t-22 -33q0 -22 12.5 -35t61.5 -38q90 -44 120.5 -77t30.5 -82q0 -76 -59.5 -114.5t-156.5 -38.5q-66 0 -144 26q-6 2 -6 7v124h68l4 -48q0 -10 10 -14q35 -12 73 -11
q38 0 60.5 14.5t22.5 41.5q0 20 -11.5 31.5t-57.5 34.5q-56 28 -88 48t-48.5 40.5t-20.5 37.5t-4 46q0 64 60 101t146 38zM219 -36q37 0 52 -32.5t3 -78.5q-13 -51 -48 -95l-50 15q15 29 21 53q4 17 2 31h-1q-16 6 -25.5 20t-9.5 31q0 22 16 39t40 17z" />
    <glyph glyph-name="uni021A" unicode="&#x21a;" horiz-adv-x="657" 
d="M28 700h601q8 0 8 -9l1 -184h-84l-5 65q-1 16 -17 16h-132v-480q0 -16 16 -17l63 -5v-86h-302v78q0 8 8 8l56 5q15 1 15 17v480h-131q-16 0 -17 -16l-5 -65h-84l1 184q0 9 8 9zM326 -36q38 0 53 -32.5t3 -78.5q-13 -51 -48 -95l-50 15q14 29 20 53q4 17 3 31h-2
q-10 4 -18 12t-12.5 18t-4.5 21q0 10 4.5 20.5t11.5 18t18 12.5t22 5z" />
    <glyph glyph-name="uni021B" unicode="&#x21b;" horiz-adv-x="404" 
d="M211 500h125v-82l-125 -6v-275q0 -26 15.5 -39t40.5 -13q35 -1 60 22l28 -65q-40 -53 -127 -53q-69 0 -110 34.5t-41 93.5v295l-51 2q-8 1 -8 9v72l59 2v126l134 7v-130zM199 -36q38 0 53 -32.5t3 -78.5q-13 -51 -48 -95l-50 15q14 29 21 53q3 17 2 31h-2q-15 6 -25 20
t-10 31q0 22 16.5 39t39.5 17z" />
    <glyph glyph-name="uni0228" unicode="&#x228;" horiz-adv-x="597" 
d="M48 700h497q9 0 9 -9v-188h-84l-5 65q-1 16 -17 16h-177v-176h189v-110h-189v-182h194q16 0 17 16l5 65h84v-188q0 -9 -9 -9h-227l-18 -42q2 0 6.5 -0.5t6.5 -1.5q37 -8 56 -32.5t17 -55.5q-2 -37 -33.5 -63.5t-82.5 -26.5q-53 2 -93 30l18 57q25 -14 45 -15q15 -2 27 1
t19.5 12t8.5 22q0 31 -44 37q-13 1 -34 -1l25 79h-211v78q0 8 8 8l55 5q16 1 16 17v484q0 16 -16 17l-55 5q-8 0 -8 8v78z" />
    <glyph glyph-name="uni0229" unicode="&#x229;" horiz-adv-x="545" 
d="M274 510q122 0 180.5 -67.5t59.5 -187.5v-21q0 -6 -6 -7l-332 -11q6 -60 40 -93.5t86 -32.5q75 0 145 56l37 -91q-68 -61 -176 -65h-4l-14 -32q3 0 7 -0.5t7 -1.5q36 -8 55.5 -32.5t17.5 -55.5q-3 -37 -34.5 -63.5t-81.5 -26.5q-54 2 -94 30l19 57q24 -14 45 -15
q23 -2 38.5 6.5t16.5 28.5q0 31 -44 37q-13 1 -35 -1l25 76q-91 18 -144 87t-53 166q0 114 65 187t174 73zM277 416q-44 0 -70 -29t-32 -86h190q4 0 7 4t2 10q-6 51 -29 76t-68 25z" />
    <glyph glyph-name="uni022A" unicode="&#x22a;" horiz-adv-x="777" 
d="M556 939h-335v98h335v-98zM286 893q28 0 47.5 -20.5t19.5 -46.5q0 -18 -8.5 -33t-24 -24.5t-34.5 -9.5q-28 0 -47.5 20t-19.5 46.5t19.5 47t47.5 20.5zM490 893q28 0 47.5 -20.5t19.5 -46.5q0 -18 -8.5 -33t-24 -24.5t-34.5 -9.5q-28 0 -47.5 20t-19.5 46.5t19.5 47
t47.5 20.5zM388 708q156 0 253 -100.5t97 -258t-97 -258t-253 -100.5t-252.5 100.5t-96.5 258t96.5 258t252.5 100.5zM388.5 592q-60.5 0 -105.5 -28.5t-69.5 -83t-24.5 -130.5q0 -114 54 -178t145.5 -64t145.5 64t54 178q0 76 -25 130.5t-69.5 83t-105 28.5z" />
    <glyph glyph-name="uni022B" unicode="&#x22b;" horiz-adv-x="601" 
d="M468 740h-335v97h335v-97zM198.5 703q28.5 0 48 -20.5t19.5 -46.5q0 -17 -8.5 -32.5t-24.5 -25t-34 -9.5q-29 0 -48 20t-19 47t19 47t47.5 20zM402.5 703q28.5 0 47.5 -20.5t19 -46.5q0 -17 -8.5 -32.5t-24 -25t-34.5 -9.5q-28 0 -47.5 20.5t-19.5 46.5t19.5 46.5
t48 20.5zM300.5 510q120.5 0 193 -73t72.5 -186.5t-72.5 -187t-193 -73.5t-193 73.5t-72.5 187t72.5 186.5t193 73zM300.5 410q-57.5 0 -93 -42t-35.5 -118t35.5 -118t93 -42t93 42t35.5 118t-35.5 118t-93 42z" />
    <glyph glyph-name="circumflex" unicode="&#x2c6;" horiz-adv-x="466" 
d="M430 557h-117l-80 101l-79 -101h-118l114 169h166z" />
    <glyph glyph-name="caron" unicode="&#x2c7;" horiz-adv-x="466" 
d="M317 557h-167l-114 169h118l80 -101l79 101h118z" />
    <glyph glyph-name="breve" unicode="&#x2d8;" horiz-adv-x="396" 
d="M277 712h83q0 -43 -21 -79.5t-58 -58t-83 -21.5q-69 0 -115.5 46.5t-46.5 112.5h83q0 -34 23.5 -57.5t56 -23.5t55.5 23.5t23 57.5z" />
    <glyph glyph-name="dotaccent" unicode="&#x2d9;" horiz-adv-x="205" 
d="M102.5 703q28.5 0 47.5 -20.5t19 -46.5q0 -17 -8.5 -32.5t-24 -25t-34.5 -9.5q-28 0 -47 20t-19 47t19 47t47.5 20z" />
    <glyph glyph-name="ring" unicode="&#x2da;" horiz-adv-x="313" 
d="M157 763q51 0 85.5 -35.5t34.5 -85t-34.5 -85.5t-85.5 -36t-86 36t-35 85.5t35 85t86 35.5zM157 698q-15 0 -27 -7.5t-19.5 -20t-7.5 -28.5q0 -24 16 -40t38 -16t37.5 16t15.5 40t-15.5 40t-37.5 16z" />
    <glyph glyph-name="ogonek" unicode="&#x2db;" horiz-adv-x="275" 
d="M105 6h83q-68 -34 -68 -93q0 -26 15 -40t39 -14q19 -1 45 10l20 -67q-46 -22 -93 -24q-48 0 -77 26t-32 66q-4 36 13.5 72t54.5 64z" />
    <glyph glyph-name="tilde" unicode="&#x2dc;" horiz-adv-x="409" 
d="M298 688l76 -15q-1 -50 -24.5 -77.5t-63.5 -30.5q-25 -2 -59 9q-14 4 -40 15t-34 12q-13 2 -21.5 -7t-20.5 -36l-76 23q15 88 78 102q37 8 91 -14q44 -18 60 -14q19 4 34 33z" />
    <glyph glyph-name="hungarumlaut" unicode="&#x2dd;" horiz-adv-x="534" 
d="M154 557h-118l93 169h157zM365 557h-118l93 169h158z" />
    <glyph glyph-name="dotbelowcomb" unicode="&#x323;" horiz-adv-x="0" 
d="M102.5 -72q28.5 0 47.5 -20t19 -47q0 -26 -19 -46.5t-47.5 -20.5t-47.5 20.5t-19 46.5q0 27 19 47t47.5 20z" />
    <glyph glyph-name="commaaccentcomb" unicode="&#x326;" horiz-adv-x="0" 
d="M75 -36q38 0 53 -32.5t3 -78.5q-13 -51 -48 -95l-50 15q14 29 21 53q3 17 2 31h-2q-10 4 -18 12t-12.5 18t-4.5 21q0 22 16.5 39t39.5 17z" />
    <glyph glyph-name="circumflexbelowcomb" unicode="&#x32d;" horiz-adv-x="0" 
d="M430 -217h-117l-80 102l-79 -102h-118l114 170h166z" />
    <glyph glyph-name="macronbelowcomb" unicode="&#x331;" horiz-adv-x="0" 
d="M371 -164h-335v98h335v-98z" />
    <glyph glyph-name="Delta" unicode="&#x394;" horiz-adv-x="600" 
 />
    <glyph glyph-name="Omega" unicode="&#x3a9;" horiz-adv-x="600" 
 />
    <glyph glyph-name="mu" unicode="&#x3bc;" horiz-adv-x="600" 
 />
    <glyph glyph-name="pi" unicode="&#x3c0;" horiz-adv-x="600" 
 />
    <glyph glyph-name="Bdotbelow" unicode="&#x1e04;" horiz-adv-x="679" 
d="M50 700h337q69 0 122 -23.5t82 -66t29 -96.5q0 -91 -78 -140q35 -16 60 -41t38 -57.5t13 -70.5q0 -91 -69.5 -148t-182.5 -57h-351v78q0 8 7 8l56 5q15 1 15 17v484q0 16 -15 17l-56 5q-7 0 -7 8v78zM312 583l-40 -2v-157h118q43 0 67 21.5t24 58.5t-24 58t-67 21h-78z
M272 308v-189l40 -3h86q52 0 81.5 26t29.5 70.5t-29.5 70t-81.5 25.5h-126zM327 -72q28 0 47.5 -20t19.5 -47q0 -26 -19.5 -46.5t-47.5 -20.5t-47.5 20.5t-19.5 46.5q0 27 19.5 47t47.5 20z" />
    <glyph glyph-name="bdotbelow" unicode="&#x1e05;" horiz-adv-x="630" 
d="M38 739l202 11q9 0 9 -9v-290q55 59 143 59q95 0 149 -64t54 -179q0 -60 -14 -107t-39 -78.5t-61.5 -52.5t-78.5 -30t-92 -9q-94 0 -195 34v616q0 7 -4.5 12t-11.5 5l-61 3v79zM344 410q-63 0 -95 -56v-248q37 -16 75 -16q60 0 97 40t37 120q0 76 -30.5 118t-83.5 42z
M326 -72q28 0 47.5 -20t19.5 -47q0 -26 -19.5 -46.5t-47.5 -20.5t-47.5 20.5t-19.5 46.5q0 27 19.5 47t47.5 20z" />
    <glyph glyph-name="Ddotbelow" unicode="&#x1e0c;" horiz-adv-x="749" 
d="M48 700h313q157 0 253 -97t96 -253.5t-96 -253t-253 -96.5h-313v78q0 8 8 8l55 5q16 1 16 17v484q0 16 -16 17l-55 5q-8 0 -8 8v78zM311 584l-40 -3v-462l40 -2h50q92 0 146 60t54 173q0 38 -6.5 70.5t-19 58.5t-30 45.5t-39.5 32.5t-48.5 20t-56.5 7h-50zM344.5 -72
q28.5 0 48 -20t19.5 -47q0 -26 -19.5 -46.5t-48 -20.5t-47.5 20.5t-19 46.5q0 27 19 47t47.5 20z" />
    <glyph glyph-name="ddotbelow" unicode="&#x1e0d;" horiz-adv-x="626" 
d="M304 739l202 11q9 0 9 -9v-639q0 -15 16 -17l55 -4v-81h-177q-7 0 -8 7l-6 52q-18 -21 -41 -36t-52 -24t-60 -9q-93 0 -150 66.5t-57 195.5q0 37 5.5 71t19.5 69t36 60t58.5 41.5t83.5 16.5q88 0 143 -60v190q0 7 -4.5 12t-11.5 5l-61 3v79zM286 410q-26 0 -47 -10.5
t-36 -30.5t-23 -49.5t-8 -67.5q0 -76 35.5 -117.5t93.5 -41.5q50 0 80 35v226q-32 56 -95 56zM313.5 -72q28.5 0 47.5 -20t19 -47q0 -26 -19.5 -46.5t-47.5 -20.5q-19 0 -34.5 9.5t-23.5 25t-8 32.5q0 27 19 47t47.5 20z" />
    <glyph glyph-name="Dlinebelow" unicode="&#x1e0e;" horiz-adv-x="749" 
d="M48 700h313q157 0 253 -97t96 -253.5t-96 -253t-253 -96.5h-313v78q0 8 8 8l55 5q16 1 16 17v484q0 16 -16 17l-55 5q-8 0 -8 8v78zM311 584l-40 -3v-462l40 -2h50q92 0 146 60t54 173q0 38 -6.5 70.5t-19 58.5t-30 45.5t-39.5 32.5t-48.5 20t-56.5 7h-50zM547 -164h-335
v98h335v-98z" />
    <glyph glyph-name="dlinebelow" unicode="&#x1e0f;" horiz-adv-x="626" 
d="M304 739l202 11q9 0 9 -9v-639q0 -15 16 -17l55 -4v-81h-177q-7 0 -8 7l-6 52q-18 -21 -41 -36t-52 -24t-60 -9q-93 0 -150 66.5t-57 195.5q0 37 5.5 71t19.5 69t36 60t58.5 41.5t83.5 16.5q88 0 143 -60v190q0 7 -4.5 12t-11.5 5l-61 3v79zM286 410q-26 0 -47 -10.5
t-36 -30.5t-23 -49.5t-8 -67.5q0 -76 35.5 -117.5t93.5 -41.5q50 0 80 35v226q-32 56 -95 56zM480 -164h-335v98h335v-98z" />
    <glyph glyph-name="Dcircumflexbelow" unicode="&#x1e12;" horiz-adv-x="749" 
d="M48 700h313q157 0 253 -97t96 -253.5t-96 -253t-253 -96.5h-313v78q0 8 8 8l55 5q16 1 16 17v484q0 16 -16 17l-55 5q-8 0 -8 8v78zM311 584l-40 -3v-462l40 -2h50q92 0 146 60t54 173q0 38 -6.5 70.5t-19 58.5t-30 45.5t-39.5 32.5t-48.5 20t-56.5 7h-50zM542 -217h-117
l-80 102l-79 -102h-118l114 170h166z" />
    <glyph glyph-name="dcircumflexbelow" unicode="&#x1e13;" horiz-adv-x="626" 
d="M304 739l202 11q9 0 9 -9v-639q0 -15 16 -17l55 -4v-81h-177q-7 0 -8 7l-6 52q-18 -21 -41 -36t-52 -24t-60 -9q-93 0 -150 66.5t-57 195.5q0 37 5.5 71t19.5 69t36 60t58.5 41.5t83.5 16.5q88 0 143 -60v190q0 7 -4.5 12t-11.5 5l-61 3v79zM286 410q-26 0 -47 -10.5
t-36 -30.5t-23 -49.5t-8 -67.5q0 -76 35.5 -117.5t93.5 -41.5q50 0 80 35v226q-32 56 -95 56zM511 -217h-118l-80 102l-79 -102h-118l114 170h167z" />
    <glyph glyph-name="Hdotbelow" unicode="&#x1e24;" horiz-adv-x="857" 
d="M809 614l-63 -5q-16 -1 -16 -17v-484q0 -16 16 -17l63 -5v-86h-305v78q0 8 8 8l59 5q15 2 15 17v190h-315v-190q0 -15 15 -17l67 -5v-86h-305v78q0 8 8 8l55 5q16 1 16 17v484q0 16 -16 17l-55 5q-8 0 -8 8v78h305v-86l-67 -5q-15 -2 -15 -17v-177h315v177q0 15 -15 17
l-59 5q-8 0 -8 8v78h305v-86zM427.5 -72q28.5 0 48 -20t19.5 -47q0 -26 -19.5 -46.5t-47.5 -20.5t-47.5 20.5t-19.5 46.5q0 27 19 47t47.5 20z" />
    <glyph glyph-name="hdotbelow" unicode="&#x1e25;" horiz-adv-x="709" 
d="M48 739l202 11q9 0 9 -9v-306q45 33 96.5 53.5t97.5 20.5q43 0 75.5 -17t51.5 -53t19 -88v-248q0 -16 15 -17l62 -5v-81h-202q-9 0 -9 9v317q0 84 -76 84q-57 0 -130 -46v-261q0 -16 16 -17l65 -5v-81h-292v73q0 8 8 9l54 4q16 2 16 17v537q0 7 -4.5 12t-12.5 5l-61 3v79
zM354.5 -72q28.5 0 48 -20t19.5 -47q0 -26 -19.5 -46.5t-47.5 -20.5t-47.5 20.5t-19.5 46.5q0 27 19 47t47.5 20z" />
    <glyph glyph-name="Idieresisacute" unicode="&#x1e2e;" horiz-adv-x="398" 
d="M254 926h-118l108 170h157zM97.5 893q28.5 0 47.5 -20.5t19 -47t-19 -46.5t-47.5 -20t-47.5 20t-19 46.5t19 47t47.5 20.5zM301 893q28 0 47.5 -20.5t19.5 -47t-19.5 -46.5t-47.5 -20t-47.5 20t-19.5 47q0 12 5 24.5t14 21.5t21.5 15t26.5 6zM350 614l-63 -5
q-16 -1 -16 -17v-484q0 -16 16 -17l63 -5v-86h-302v78q0 8 8 8l56 5q15 1 15 17v484q0 16 -15 17l-56 5q-8 0 -8 8v78h302v-86z" />
    <glyph glyph-name="idieresisacute" unicode="&#x1e2f;" horiz-adv-x="384" 
d="M238 735h-118l107 169h158zM81 703q28 0 47.5 -20.5t19.5 -46.5q0 -17 -8.5 -32.5t-24 -25t-34.5 -9.5q-28 0 -47.5 20t-19.5 47q0 17 8.5 32.5t24 25t34.5 9.5zM284.5 703q28.5 0 48 -20.5t19.5 -46.5q0 -17 -8.5 -32.5t-24.5 -25t-34 -9.5q-29 0 -48 20.5t-19 46.5
t19 46.5t47.5 20.5zM48 496l202 11q9 0 9 -9v-395q0 -15 16 -17l65 -5v-81h-292v73q0 8 8 9l54 4q15 2 15 17v294q0 7 -4.5 12t-11.5 5l-61 3v79z" />
    <glyph glyph-name="Ldotbelow" unicode="&#x1e36;" horiz-adv-x="581" 
d="M353 614l-67 -5q-15 -2 -15 -17v-476h182q16 0 17 16l5 65h84v-188q0 -9 -9 -9h-502v78q0 8 8 8l55 5q16 1 16 17v484q0 16 -16 17l-55 5q-8 0 -8 8v78h305v-86zM290.5 -72q28.5 0 47.5 -20t19 -47q0 -26 -19.5 -46.5t-47.5 -20.5t-47 20.5t-19 46.5q0 27 19 47t47.5 20z
" />
    <glyph glyph-name="ldotbelow" unicode="&#x1e37;" horiz-adv-x="374" 
d="M48 739l202 11q9 0 9 -9v-638q0 -15 16 -17l65 -5v-81h-291v73q0 8 8 9l53 4q15 2 15 17v537q0 7 -4.5 12t-11.5 5l-61 3v79zM187 -72q14 0 26.5 -5.5t21 -15t14 -21.5t5.5 -25q0 -26 -19.5 -46.5t-48 -20.5t-47.5 20.5t-19 46.5q0 27 19 47t48 20z" />
    <glyph glyph-name="Lcircumflexbelow" unicode="&#x1e3c;" horiz-adv-x="581" 
d="M353 614l-67 -5q-15 -2 -15 -17v-476h182q16 0 17 16l5 65h84v-188q0 -9 -9 -9h-502v78q0 8 8 8l55 5q16 1 16 17v484q0 16 -16 17l-55 5q-8 0 -8 8v78h305v-86zM488 -217h-118l-79 102l-80 -102h-118l114 170h167z" />
    <glyph glyph-name="lcircumflexbelow" unicode="&#x1e3d;" horiz-adv-x="374" 
d="M48 739l202 11q9 0 9 -9v-638q0 -15 16 -17l65 -5v-81h-291v73q0 8 8 9l53 4q15 2 15 17v537q0 7 -4.5 12t-11.5 5l-61 3v79zM384 -217h-118l-79 102l-80 -102h-117l114 170h166z" />
    <glyph glyph-name="Macute" unicode="&#x1e3e;" horiz-adv-x="1034" 
d="M573 757h-118l107 169h157zM928 614l-55 -4q-8 -1 -12.5 -6.5t-3.5 -13.5l67 -499l68 -5v-86h-294v86l65 5q8 1 12.5 6.5t3.5 12.5l-45 373l-181 -483h-92l-179 484l-52 -391l85 -7v-86h-275v78q0 8 7 8l49 4q13 1 15 14l65 486q1 4 0 7.5t-3 6t-5.5 4.5t-7.5 2l-47 4
q-8 0 -8 8v78h241l175 -460l176 460h231v-86z" />
    <glyph glyph-name="macute" unicode="&#x1e3f;" horiz-adv-x="1009" 
d="M573 557h-118l107 169h157zM759 509q63 0 101.5 -40.5t38.5 -117.5v-248q0 -16 15 -17l62 -5v-81h-202q-9 0 -9 9v317q0 84 -71 84q-53 0 -122 -46q3 -12 3 -46v-215q0 -16 15 -17l62 -5v-81h-202q-9 0 -9 9v317q0 84 -70 84q-53 0 -120 -45v-262q0 -16 15 -17l65 -5v-81
h-291v73q0 8 7 9l55 4q15 2 15 17v294q0 5 -2 8.5t-5.5 6t-8.5 2.5l-61 3v79l202 11q9 0 9 -9v-63q42 33 91.5 53.5t92.5 20.5q30 0 55 -9t43.5 -28t29.5 -47q43 37 96.5 60.5t99.5 23.5z" />
    <glyph glyph-name="Ndotaccent" unicode="&#x1e44;" horiz-adv-x="846" 
d="M422.5 903q28.5 0 48 -20.5t19.5 -46.5q0 -17 -8.5 -32.5t-24.5 -25t-34 -9.5q-29 0 -48 20t-19 47t19 47t47.5 20zM802 614l-63 -5q-16 -1 -16 -17v-592h-131l-338 458v-351q0 -15 15 -16l58 -5v-86h-284v78q0 8 8 8l56 5q15 1 15 17v484q0 16 -15 17l-56 5q-8 0 -8 8
v78h199l350 -473v366q0 15 -15 17l-51 4q-8 0 -8 8v78h284v-86z" />
    <glyph glyph-name="ndotaccent" unicode="&#x1e45;" horiz-adv-x="701" 
d="M348.5 703q28.5 0 47.5 -20.5t19 -46.5t-19 -46.5t-47.5 -20.5t-47.5 20t-19 47t19 47t47.5 20zM444 509q66 0 106 -40.5t40 -117.5v-248q0 -16 16 -17l61 -5v-81h-202q-9 0 -9 9v317q0 84 -75 84q-58 0 -130 -46v-261q0 -16 15 -17l65 -5v-81h-291v73q0 8 7 9l55 4
q15 2 15 17v294q0 5 -2 8.5t-5.5 6t-8.5 2.5l-61 3v79l202 11q9 0 9 -9v-63q44 33 96 53.5t97 20.5z" />
    <glyph glyph-name="Ndotbelow" unicode="&#x1e46;" horiz-adv-x="846" 
d="M802 614l-63 -5q-16 -1 -16 -17v-592h-131l-338 458v-351q0 -15 15 -16l58 -5v-86h-284v78q0 8 8 8l56 5q15 1 15 17v484q0 16 -15 17l-56 5q-8 0 -8 8v78h199l350 -473v366q0 15 -15 17l-51 4q-8 0 -8 8v78h284v-86zM422.5 -72q28.5 0 48 -20t19.5 -47
q0 -26 -19.5 -46.5t-48 -20.5t-47.5 20.5t-19 46.5q0 27 19 47t47.5 20z" />
    <glyph glyph-name="ndotbelow" unicode="&#x1e47;" horiz-adv-x="701" 
d="M444 509q66 0 106 -40.5t40 -117.5v-248q0 -16 16 -17l61 -5v-81h-202q-9 0 -9 9v317q0 84 -75 84q-58 0 -130 -46v-261q0 -16 15 -17l65 -5v-81h-291v73q0 8 7 9l55 4q15 2 15 17v294q0 5 -2 8.5t-5.5 6t-8.5 2.5l-61 3v79l202 11q9 0 9 -9v-63q44 33 96 53.5t97 20.5z
M348.5 -72q28.5 0 47.5 -20t19 -47q0 -26 -19 -46.5t-47.5 -20.5t-47.5 20.5t-19 46.5q0 27 19 47t47.5 20z" />
    <glyph glyph-name="Ncircumflexbelow" unicode="&#x1e4a;" horiz-adv-x="846" 
d="M802 614l-63 -5q-16 -1 -16 -17v-592h-131l-338 458v-351q0 -15 15 -16l58 -5v-86h-284v78q0 8 8 8l56 5q15 1 15 17v484q0 16 -15 17l-56 5q-8 0 -8 8v78h199l350 -473v366q0 15 -15 17l-51 4q-8 0 -8 8v78h284v-86zM620 -217h-117l-80 102l-80 -102h-117l114 170h166z
" />
    <glyph glyph-name="ncircumflexbelow" unicode="&#x1e4b;" horiz-adv-x="701" 
d="M444 509q66 0 106 -40.5t40 -117.5v-248q0 -16 16 -17l61 -5v-81h-202q-9 0 -9 9v317q0 84 -75 84q-58 0 -130 -46v-261q0 -16 15 -17l65 -5v-81h-291v73q0 8 7 9l55 4q15 2 15 17v294q0 5 -2 8.5t-5.5 6t-8.5 2.5l-61 3v79l202 11q9 0 9 -9v-63q44 33 96 53.5t97 20.5z
M546 -217h-118l-79 102l-80 -102h-118l115 170h166z" />
    <glyph glyph-name="Otildeacute" unicode="&#x1e4c;" horiz-adv-x="777" 
d="M443 918h-118l107 169h158zM482 880l75 -15q0 -50 -23.5 -77.5t-63.5 -30.5q-25 -2 -60 9q-14 4 -40 15t-33 12q-9 1 -15.5 -2.5t-12.5 -13t-14 -27.5l-76 23q15 88 78 102q36 8 90 -14q45 -18 61 -14q19 4 34 33zM388 708q156 0 253 -100.5t97 -258t-97 -258
t-253 -100.5t-252.5 100.5t-96.5 258t96.5 258t252.5 100.5zM388 592q-60 0 -105 -28.5t-69.5 -83t-24.5 -130.5q0 -114 54 -178t145.5 -64t145.5 64t54 178t-54 178t-146 64z" />
    <glyph glyph-name="otildeacute" unicode="&#x1e4d;" horiz-adv-x="601" 
d="M356 727h-118l107 169h157zM394 688l76 -15q-1 -50 -24.5 -77.5t-62.5 -30.5q-26 -2 -60 9q-14 4 -40 15t-33 12q-13 2 -22 -7t-21 -36l-76 23q16 88 78 102q37 8 91 -14q44 -18 61 -14q18 4 33 33zM300.5 510q120.5 0 193 -73t72.5 -186.5t-72.5 -187t-193 -73.5
t-193 73.5t-72.5 187t72.5 186.5t193 73zM300.5 410q-37.5 0 -66 -18t-45.5 -54.5t-17 -87.5q0 -76 35.5 -118t93.5 -42q37 0 66 18t45.5 54.5t16.5 87.5t-16.5 87.5t-45.5 54.5t-66.5 18z" />
    <glyph glyph-name="Omacrongrave" unicode="&#x1e50;" horiz-adv-x="777" 
d="M450 918h-118l-147 169h158zM556 767h-335v97h335v-97zM388 708q156 0 253 -100.5t97 -258t-97 -258t-253 -100.5t-252.5 100.5t-96.5 258t96.5 258t252.5 100.5zM388 592q-91 0 -145 -64t-54 -178t54 -178t145.5 -64t145.5 64t54 178q0 76 -25 130.5t-69.5 83
t-105.5 28.5z" />
    <glyph glyph-name="omacrongrave" unicode="&#x1e51;" horiz-adv-x="601" 
d="M363 727h-118l-147 169h157zM468 577h-335v97h335v-97zM300.5 510q120.5 0 193 -73t72.5 -186.5t-72.5 -187t-193 -73.5t-193 73.5t-72.5 187t72.5 186.5t193 73zM300.5 410q-37.5 0 -66 -18t-45.5 -54.5t-17 -87.5q0 -76 35.5 -118t93.5 -42q37 0 66 18t45.5 54.5
t16.5 87.5t-16.5 87.5t-45.5 54.5t-66.5 18z" />
    <glyph glyph-name="Omacronacute" unicode="&#x1e52;" horiz-adv-x="777" 
d="M443 918h-118l107 169h158zM556 767h-335v97h335v-97zM388 708q156 0 253 -100.5t97 -258t-97 -258t-253 -100.5t-252.5 100.5t-96.5 258t96.5 258t252.5 100.5zM388 592q-91 0 -145 -64t-54 -178t54 -178t145.5 -64t145.5 64t54 178q0 76 -25 130.5t-69.5 83
t-105.5 28.5z" />
    <glyph glyph-name="omacronacute" unicode="&#x1e53;" horiz-adv-x="601" 
d="M356 727h-118l107 169h157zM468 577h-335v97h335v-97zM300.5 510q120.5 0 193 -73t72.5 -186.5t-72.5 -187t-193 -73.5t-193 73.5t-72.5 187t72.5 186.5t193 73zM300.5 410q-57.5 0 -93 -42t-35.5 -118t35.5 -118t93 -42t93 42t35.5 118t-35.5 118t-93 42z" />
    <glyph glyph-name="Sdotbelow" unicode="&#x1e62;" horiz-adv-x="559" 
d="M317 711q97 1 165 -38q4 -2 4 -6v-157h-83l-5 61q-1 9 -9 13q-29 13 -70 13q-36 0 -64 -9t-43.5 -24.5t-15.5 -35.5q0 -22 5.5 -34t28.5 -28.5t72 -39.5q132 -62 176.5 -107.5t44.5 -113.5q0 -106 -78 -159.5t-207 -53.5q-90 0 -196 39q-6 2 -6 8v156h84l4 -53
q1 -10 10 -14q55 -20 119 -20q54 0 85.5 20.5t31.5 57.5q0 29 -16 44.5t-80 47.5q-65 31 -106.5 56t-67 45t-37.5 43.5t-15.5 43.5t-3.5 52q0 45 22.5 82.5t60.5 61t87 36.5t103 13zM279.5 -72q28.5 0 47.5 -20t19 -47q0 -17 -8.5 -32.5t-24 -25t-34 -9.5t-34 9.5t-24 25
t-8.5 32.5q0 27 19 47t47.5 20z" />
    <glyph glyph-name="sdotbelow" unicode="&#x1e63;" horiz-adv-x="442" 
d="M254 510q71 1 123 -26q4 -2 4 -7v-127h-67l-5 55q-1 10 -10 13q-16 6 -39 6q-35 0 -57 -13t-22 -33q0 -22 12.5 -35t61.5 -38q90 -44 120.5 -77t30.5 -82q0 -76 -59.5 -114.5t-156.5 -38.5q-66 0 -144 26q-6 2 -6 7v124h68l4 -48q0 -10 10 -14q35 -12 73 -11
q38 0 60.5 14.5t22.5 41.5q0 20 -11.5 31.5t-57.5 34.5q-56 28 -88 48t-48.5 40.5t-20.5 37.5t-4 46q0 64 60 101t146 38zM220.5 -72q28.5 0 48 -20t19.5 -47q0 -26 -19.5 -46.5t-47.5 -20.5t-47.5 20.5t-19.5 46.5q0 27 19 47t47.5 20z" />
    <glyph glyph-name="Tdotbelow" unicode="&#x1e6c;" horiz-adv-x="657" 
d="M28 700h601q8 0 8 -9l1 -184h-84l-5 65q-1 16 -17 16h-132v-480q0 -16 16 -17l63 -5v-86h-302v78q0 8 8 8l56 5q15 1 15 17v480h-131q-16 0 -17 -16l-5 -65h-84l1 184q0 9 8 9zM328.5 -72q28.5 0 47.5 -20t19 -47q0 -10 -3 -20t-9 -18.5t-14 -15t-18.5 -10t-22.5 -3.5
q-14 0 -26.5 5.5t-21 15t-13.5 21.5t-5 25q0 27 19 47t47.5 20z" />
    <glyph glyph-name="tdotbelow" unicode="&#x1e6d;" horiz-adv-x="404" 
d="M211 500h125v-82l-125 -6v-275q0 -26 15.5 -39t40.5 -13q35 -1 60 22l28 -65q-40 -53 -127 -53q-69 0 -110 34.5t-41 93.5v295l-51 2q-8 1 -8 9v72l59 2v126l134 7v-130zM201.5 -72q28.5 0 47.5 -20t19 -47q0 -26 -19 -46.5t-47.5 -20.5t-47.5 20.5t-19 46.5q0 27 19 47
t47.5 20z" />
    <glyph glyph-name="Tlinebelow" unicode="&#x1e6e;" horiz-adv-x="657" 
d="M28 700h601q8 0 8 -9l1 -184h-84l-5 65q-1 16 -17 16h-132v-480q0 -16 16 -17l63 -5v-86h-302v78q0 8 8 8l56 5q15 1 15 17v480h-131q-16 0 -17 -16l-5 -65h-84l1 184q0 9 8 9zM496 -164h-335v98h335v-98z" />
    <glyph glyph-name="tlinebelow" unicode="&#x1e6f;" horiz-adv-x="404" 
d="M211 500h125v-82l-125 -6v-275q0 -26 15.5 -39t40.5 -13q35 -1 60 22l28 -65q-40 -53 -127 -53q-69 0 -110 34.5t-41 93.5v295l-51 2q-8 1 -8 9v72l59 2v126l134 7v-130zM374 -164h-335v98h335v-98z" />
    <glyph glyph-name="Tcircumflexbelow" unicode="&#x1e70;" horiz-adv-x="657" 
d="M28 700h601q8 0 8 -9l1 -184h-84l-5 65q-1 16 -17 16h-132v-480q0 -16 16 -17l63 -5v-86h-302v78q0 8 8 8l56 5q15 1 15 17v480h-131q-16 0 -17 -16l-5 -65h-84l1 184q0 9 8 9zM526 -217h-118l-79 102l-80 -102h-118l115 170h166z" />
    <glyph glyph-name="tcircumflexbelow" unicode="&#x1e71;" horiz-adv-x="404" 
d="M211 500h125v-82l-125 -6v-275q0 -26 15.5 -39t40.5 -13q35 -1 60 22l28 -65q-40 -53 -127 -53q-69 0 -110 34.5t-41 93.5v295l-51 2q-8 1 -8 9v72l59 2v126l134 7v-130zM399 -217h-118l-79 102l-80 -102h-118l115 170h166z" />
    <glyph glyph-name="Wgrave" unicode="&#x1e80;" horiz-adv-x="1159" 
d="M642 757h-118l-147 169h157zM1139 614l-72 -6l-188 -608h-124l-178 480l-178 -480h-127l-182 599q-3 10 -14 11l-49 4q-8 0 -8 8v78h199l134 -503l140 388q3 9 -2 17t-15 8l-43 4q-8 1 -8 9v77h235l164 -503l114 389q1 7 -0.5 12t-5.5 8.5t-11 3.5l-46 4q-8 1 -8 9v77
h273v-86z" />
    <glyph glyph-name="wgrave" unicode="&#x1e81;" horiz-adv-x="857" 
d="M491 557h-118l-147 169h157zM844 419l-44 -4l-154 -415h-122l-96 274l-101 -274h-122l-141 406q-3 9 -12 10l-32 3q-7 1 -7 9v72h161l103 -357l86 247q2 5 1.5 9t-3 7.5t-6 6t-8.5 2.5l-43 3q-7 1 -7 9v73h195l104 -357l86 248q3 9 -1.5 16t-14.5 8l-44 4q-8 1 -8 9v72
h230v-81z" />
    <glyph glyph-name="Wacute" unicode="&#x1e82;" horiz-adv-x="1159" 
d="M634 757h-117l107 169h157zM1139 614l-72 -6l-188 -608h-124l-178 480l-178 -480h-127l-182 599q-3 10 -14 11l-49 4q-8 0 -8 8v78h199l134 -503l140 388q3 9 -2 17t-15 8l-43 4q-8 1 -8 9v77h235l164 -503l114 389q2 9 -2.5 16t-14.5 8l-46 4q-8 1 -8 9v77h273v-86z" />
    <glyph glyph-name="wacute" unicode="&#x1e83;" horiz-adv-x="857" 
d="M484 557h-118l107 169h157zM844 419l-44 -4l-154 -415h-122l-96 274l-101 -274h-122l-141 406q-3 9 -12 10l-32 3q-7 1 -7 9v72h161l103 -357l86 247q2 5 1.5 9t-3 7.5t-6 6t-8.5 2.5l-43 3q-7 1 -7 9v73h195l104 -357l86 248q2 4 1.5 8.5t-2.5 7.5t-6 5.5t-9 2.5l-44 4
q-8 1 -8 9v72h230v-81z" />
    <glyph glyph-name="Wdieresis" unicode="&#x1e84;" horiz-adv-x="1159" 
d="M477.5 903q28.5 0 48 -20.5t19.5 -46.5q0 -17 -9 -32.5t-24.5 -25t-34 -9.5t-34 9.5t-24 25t-8.5 32.5q0 27 19 47t47.5 20zM681 903q28 0 47.5 -20.5t19.5 -46.5q0 -17 -8.5 -32.5t-24 -25t-34.5 -9.5t-34.5 9.5t-24 25t-8.5 32.5q0 26 19.5 46.5t47.5 20.5zM1139 614
l-72 -6l-188 -608h-124l-178 480l-178 -480h-127l-182 599q-3 10 -14 11l-49 4q-8 0 -8 8v78h199l134 -503l140 388q3 9 -2 17t-15 8l-43 4q-8 1 -8 9v77h235l164 -503l114 389q2 9 -2.5 16t-14.5 8l-46 4q-8 1 -8 9v77h273v-86z" />
    <glyph glyph-name="wdieresis" unicode="&#x1e85;" horiz-adv-x="857" 
d="M326.5 703q28.5 0 48 -20.5t19.5 -46.5t-19.5 -46.5t-48 -20.5t-47.5 20t-19 47t19 47t47.5 20zM530 703q19 0 34.5 -9.5t24 -25t8.5 -32.5q0 -26 -19 -46.5t-47.5 -20.5t-48 20.5t-19.5 46.5t19.5 46.5t47.5 20.5zM844 419l-44 -4l-154 -415h-122l-96 274l-101 -274
h-122l-141 406q-3 9 -12 10l-32 3q-7 1 -7 9v72h161l103 -357l86 247q2 5 1.5 9t-3 7.5t-6 6t-8.5 2.5l-43 3q-7 1 -7 9v73h195l104 -357l86 248q3 9 -1.5 16t-14.5 8l-44 4q-8 1 -8 9v72h230v-81z" />
    <glyph glyph-name="Zdotbelow" unicode="&#x1e92;" horiz-adv-x="595" 
d="M566 620l-343 -505h241q16 0 17 16l4 55h84v-178q0 -9 -9 -9h-534v79l348 506h-222q-15 0 -17 -16l-3 -49h-84v172q0 9 9 9h509v-80zM297.5 -72q28.5 0 48 -20t19.5 -47q0 -26 -19.5 -46.5t-48 -20.5t-47.5 20.5t-19 46.5q0 27 19 47t47.5 20z" />
    <glyph glyph-name="zdotbelow" unicode="&#x1e93;" horiz-adv-x="495" 
d="M442 446l-244 -361h168q16 0 17 15l4 47h67v-138q0 -9 -8 -9h-409v54l244 361h-140q-15 0 -17 -15l-3 -45h-68v136q0 9 9 9h380v-54zM248 -72q28 0 47.5 -20t19.5 -47q0 -13 -5 -25t-14 -21.5t-21.5 -15t-26.5 -5.5q-28 0 -47.5 20.5t-19.5 46.5q0 17 8.5 32.5t24 25
t34.5 9.5z" />
    <glyph glyph-name="slongdotaccent" unicode="&#x1e9b;" horiz-adv-x="416" 
d="M247 937q28 0 47.5 -20.5t19.5 -46.5t-19.5 -46.5t-47.5 -20.5t-47.5 20t-19.5 47q0 17 8.5 32.5t24 25t34.5 9.5zM292 749q93 0 166 -47l-32 -84q-63 32 -114 31q-22 0 -39.5 -8t-28 -25t-10.5 -42v-471q0 -16 16 -17l58 -5v-81h-264v73q0 8 8 9l33 2q15 2 15 17v311
l-56 3q-8 0 -8 8v77h64v84q0 81 55 123t137 42z" />
    <glyph glyph-name="Adotbelow" unicode="&#x1ea0;" horiz-adv-x="803" 
d="M725 91l59 -5v-86h-302v77q0 8 8 9l52 4q10 1 15 9t2 17l-31 77h-282l-40 -101l80 -6v-86h-267v78q0 8 8 8l43 4q10 1 13 9l240 597l148 8zM290 309h195l-97 249zM400 -72q28 0 47.5 -20t19.5 -47q0 -26 -19.5 -46.5t-47.5 -20.5q-19 0 -34.5 9.5t-24 25t-8.5 32.5
q0 27 19.5 47t47.5 20z" />
    <glyph glyph-name="adotbelow" unicode="&#x1ea1;" horiz-adv-x="567" 
d="M256 508q42 1 78 -9.5t65.5 -31t46.5 -56t17 -82.5v-227q0 -15 15 -17l56 -4v-81h-177q-7 0 -8 7l-7 53q-27 -32 -67 -51t-86 -19q-70 0 -113.5 41.5t-43.5 104.5q0 60 43 92t135 57l119 32v14q-1 79 -88 79q-43 -1 -86 -19q-9 -4 -9 -13l-5 -52h-69v129q0 4 3 6
q16 9 36.5 17.5t44 15t49.5 10.5t51 4zM329 235l-88 -24q-42 -11 -58 -23.5t-16 -37.5q0 -27 19 -42.5t52 -15.5q57 0 89 42l2 3v98zM267.5 -72q28.5 0 47.5 -20t19 -47q0 -13 -5 -25t-14 -21.5t-21.5 -15t-26.5 -5.5q-28 0 -47 20.5t-19 46.5q0 27 19 47t47.5 20z" />
    <glyph glyph-name="Ahookabove" unicode="&#x1ea2;" horiz-adv-x="803" 
d="M438 1032q55 0 92 -27t37 -73q0 -34 -16 -55t-58 -45q-32 -17 -42.5 -26.5t-11.5 -25.5l-2 -21h-74l-2 35q-2 31 14 50t60 43q28 15 35.5 22t7.5 22q0 16 -12.5 25t-34.5 8q-25 0 -64 -14l-37 50q45 32 108 32zM725 91l59 -5v-86h-302v77q0 8 8 9l52 4q10 1 15 9t2 17
l-31 77h-282l-40 -101l81 -6v-86h-268v78q0 8 8 8l43 4q10 1 13 9l240 597l148 8zM290 309h195l-97 249z" />
    <glyph glyph-name="ahookabove" unicode="&#x1ea3;" horiz-adv-x="567" 
d="M279 826q35 0 64 -11.5t47 -34.5t18 -54q0 -14 -2.5 -25.5t-8 -21t-14.5 -18.5t-20.5 -17t-28.5 -18q-33 -17 -43 -26.5t-11 -25.5l-2 -21h-74l-3 35q-2 31 14 50t61 42q28 15 35.5 22.5t7.5 22.5q0 16 -13 25t-34 8q-25 0 -64 -14l-37 50q45 32 108 32zM256 508
q42 1 78 -9.5t65.5 -31t46.5 -56t17 -82.5v-227q0 -15 15 -17l56 -4v-81h-177q-7 0 -8 7l-7 53q-27 -32 -67 -51t-86 -19q-70 0 -113.5 41.5t-43.5 104.5q0 60 43 92t135 57l119 32v14q-1 79 -88 79q-43 -1 -86 -19q-9 -4 -9 -13l-5 -52h-69v129q0 4 3 6q33 20 83 33.5
t98 13.5zM329 235l-88 -24q-42 -11 -58 -23.5t-16 -37.5q0 -27 19 -42.5t52 -15.5q57 0 89 42l2 3v98z" />
    <glyph glyph-name="Acircumflexacute" unicode="&#x1ea4;" horiz-adv-x="803" 
d="M698 833h-118l107 169h158zM599 747h-118l-79 102l-80 -102h-117l114 169h166zM725 91l59 -5v-86h-302v77q0 8 8 9l52 4q10 1 15 9t2 17l-31 77h-282l-40 -101l81 -6v-86h-268v78q0 8 8 8l43 4q10 1 13 9l240 597l148 8zM290 309h195l-97 249z" />
    <glyph glyph-name="acircumflexacute" unicode="&#x1ea5;" horiz-adv-x="567" 
d="M518 700h-118l107 169h158zM464 557h-118l-79 101l-80 -101h-117l114 169h166zM256 508q42 1 78 -9.5t65.5 -31t46.5 -56t17 -82.5v-227q0 -15 15 -17l56 -4v-81h-177q-7 0 -8 7l-7 53q-27 -32 -67 -51t-86 -19q-70 0 -113.5 41.5t-43.5 104.5q0 60 43 92t135 57l119 32
v14q-1 79 -88 79q-43 -1 -86 -19q-9 -4 -9 -13l-5 -52h-69v129q0 4 3 6q33 20 83 33.5t98 13.5zM329 235l-88 -24q-42 -11 -58 -23.5t-16 -37.5q0 -27 19 -42.5t52 -15.5q57 0 89 42l2 3v98z" />
    <glyph glyph-name="Acircumflexgrave" unicode="&#x1ea6;" horiz-adv-x="803" 
d="M733 833h-118l-147 169h158zM599 747h-118l-79 102l-80 -102h-117l114 169h166zM725 91l59 -5v-86h-302v77q0 8 8 9l52 4q10 1 15 9t2 17l-31 77h-282l-40 -101l80 -6v-86h-267v78q0 8 8 8l43 4q10 1 13 9l240 597l148 8zM290 309h195l-97 249z" />
    <glyph glyph-name="acircumflexgrave" unicode="&#x1ea7;" horiz-adv-x="567" 
d="M538 700h-118l-147 169h157zM464 557h-118l-79 101l-80 -101h-117l114 169h166zM256 508q42 1 78 -9.5t65.5 -31t46.5 -56t17 -82.5v-227q0 -15 15 -17l56 -4v-81h-177q-7 0 -8 7l-7 53q-17 -21 -40.5 -36.5t-52.5 -24.5t-60 -9q-70 0 -113.5 41.5t-43.5 104.5
q0 32 11.5 55t36 40.5t55 29t75.5 24.5l119 32v14q-1 79 -88 79q-43 -1 -86 -19q-9 -4 -9 -13l-5 -52h-69v129q0 4 3 6q33 20 83 33.5t98 13.5zM329 235l-88 -24q-42 -11 -58 -23.5t-16 -37.5q0 -27 19 -42.5t52 -15.5q57 0 89 42l2 3v98z" />
    <glyph glyph-name="Acircumflexhookabove" unicode="&#x1ea8;" horiz-adv-x="803" 
d="M702 1023q54 0 91.5 -27t37.5 -74q0 -22 -7.5 -39t-23 -30.5t-43.5 -29.5q-32 -17 -42.5 -26.5t-11.5 -25.5l-2 -21h-74l-3 35q-2 30 14 49.5t61 42.5q28 15 35.5 22.5t7.5 21.5q0 17 -12.5 25.5t-34.5 8.5q-25 -1 -64 -15l-37 51q45 32 108 32zM599 747h-118l-79 102
l-80 -102h-117l114 169h166zM725 91l59 -5v-86h-302v77q0 8 8 9l52 4q10 1 15 9t2 17l-31 77h-282l-40 -101l81 -6v-86h-268v78q0 8 8 8l43 4q10 1 13 9l240 597l148 8zM290 309h195l-97 249z" />
    <glyph glyph-name="acircumflexhookabove" unicode="&#x1ea9;" horiz-adv-x="567" 
d="M480 970q55 0 92 -27t37 -74q0 -34 -16 -55t-58 -45q-32 -17 -42.5 -26.5t-11.5 -25.5l-2 -21h-73l-3 35q-2 31 14 50t60 43q28 15 35.5 22t7.5 22q0 16 -12.5 25t-34.5 8q-25 0 -64 -14l-37 50q45 32 108 33zM464 557h-118l-79 102l-80 -102h-117l114 169h166zM256 508
q42 1 78 -9.5t65.5 -31t46.5 -56t17 -82.5v-227q0 -15 15 -17l56 -4v-81h-177q-7 0 -8 7l-7 53q-27 -32 -67 -51t-86 -19q-70 0 -113.5 41.5t-43.5 104.5q0 60 43 92t135 57l119 32v14q-1 79 -88 79q-43 -1 -86 -19q-9 -4 -9 -13l-5 -52h-69v129q0 4 3 6q33 20 83 33.5
t98 13.5zM329 235l-88 -24q-42 -11 -58 -23.5t-16 -37.5q0 -27 19 -42.5t52 -15.5q57 0 89 42l2 3v98z" />
    <glyph glyph-name="Acircumflextilde" unicode="&#x1eaa;" horiz-adv-x="803" 
d="M495 1074l76 -15q0 -50 -24 -77.5t-63 -30.5q-26 -2 -60 9q-14 4 -40 15t-33 12q-9 1 -15.5 -2.5t-12.5 -13t-15 -27.5l-75 23q15 88 77 102q37 8 91 -14q44 -18 61 -14q18 4 33 33zM599 747h-118l-79 102l-80 -102h-117l114 169h166zM725 91l59 -5v-86h-302v77q0 8 8 9
l52 4q10 1 15 9t2 17l-31 77h-282l-40 -101l81 -6v-86h-268v78q0 8 8 8l43 4q10 1 13 9l240 597l148 8zM290 309h195l-97 249z" />
    <glyph glyph-name="acircumflextilde" unicode="&#x1eab;" horiz-adv-x="567" 
d="M360 879l76 -16q0 -25 -6.5 -45t-18.5 -33t-27.5 -20.5t-34.5 -9.5q-26 -2 -60 9q-12 3 -27.5 10t-27.5 11.5t-18 5.5q-13 2 -22 -7t-21 -36l-75 23q15 88 77 103q37 7 91 -14q45 -19 61 -15q18 4 33 34zM464 557h-118l-79 101l-80 -101h-117l114 169h166zM256 508
q42 1 78 -9.5t65.5 -31t46.5 -56t17 -82.5v-227q0 -15 15 -17l56 -4v-81h-177q-7 0 -8 7l-7 53q-27 -32 -67 -51t-86 -19q-70 0 -113.5 41.5t-43.5 104.5q0 60 43 92t135 57l119 32v14q-1 79 -88 79q-43 -1 -86 -19q-9 -4 -9 -13l-5 -52h-69v129q0 4 3 6q33 20 83 33.5
t98 13.5zM329 235l-88 -24q-42 -11 -58 -23.5t-16 -37.5q0 -27 19 -42.5t52 -15.5q57 0 89 42l2 3v98z" />
    <glyph glyph-name="Acircumflexdotbelow" unicode="&#x1eac;" horiz-adv-x="803" 
d="M599 757h-118l-79 101l-80 -101h-117l114 169h166zM725 91l59 -5v-86h-302v77q0 8 8 9l52 4q10 1 15 9t2 17l-31 77h-282l-40 -101l81 -6v-86h-268v78q0 8 8 8l43 4q10 1 13 9l240 597l148 8zM290 309h195l-97 249zM400 -72q28 0 47.5 -20t19.5 -47q0 -26 -19.5 -46.5
t-47.5 -20.5t-47.5 20.5t-19.5 46.5q0 27 19.5 47t47.5 20z" />
    <glyph glyph-name="acircumflexdotbelow" unicode="&#x1ead;" horiz-adv-x="567" 
d="M464 557h-118l-79 101l-80 -101h-117l114 169h166zM256 508q42 1 78 -9.5t65.5 -31t46.5 -56t17 -82.5v-227q0 -15 15 -17l56 -4v-81h-177q-7 0 -8 7l-7 53q-17 -21 -40.5 -36.5t-52.5 -24.5t-60 -9q-70 0 -113.5 41.5t-43.5 104.5q0 32 11.5 55t36 40.5t55 29t75.5 24.5
l119 32v14q-1 79 -88 79q-43 -1 -86 -19q-9 -4 -9 -13l-5 -52h-69v129q0 4 3 6q33 20 83 33.5t98 13.5zM329 235l-88 -24q-42 -11 -58 -23.5t-16 -37.5q0 -27 19 -42.5t52 -15.5q57 0 89 42l2 3v98zM267.5 -72q28.5 0 47.5 -20t19 -47q0 -26 -19.5 -46.5t-47.5 -20.5
t-47 20.5t-19 46.5q0 27 19 47t47.5 20z" />
    <glyph glyph-name="Abreveacute" unicode="&#x1eae;" horiz-adv-x="803" 
d="M457 931h-118l107 169h157zM480 902h84q0 -66 -46.5 -112t-115.5 -46t-115.5 46t-46.5 112h83q0 -34 23 -57t55.5 -23t55.5 23t23 57zM725 91l59 -5v-86h-302v77q0 8 8 9l52 4q10 1 15 9t2 17l-31 77h-282l-40 -101l80 -6v-86h-267v78q0 8 8 8l43 4q10 1 13 9l240 597
l148 8zM290 309h195l-97 249z" />
    <glyph glyph-name="abreveacute" unicode="&#x1eaf;" horiz-adv-x="567" 
d="M322 735h-118l107 169h157zM345 712h84q0 -43 -21 -79.5t-58.5 -58t-82.5 -21.5q-69 0 -115.5 46.5t-46.5 112.5h83q0 -34 23 -57.5t56 -23.5q21 0 39 10.5t28.5 29t10.5 41.5zM256 508q42 1 78 -9.5t65.5 -31t46.5 -56t17 -82.5v-227q0 -15 15 -17l56 -4v-81h-177
q-7 0 -8 7l-7 53q-27 -32 -67 -51t-86 -19q-70 0 -113.5 41.5t-43.5 104.5q0 60 43 92t135 57l119 32v14q-1 79 -88 79q-43 -1 -86 -19q-9 -4 -9 -13l-5 -52h-69v129q0 4 3 6q33 20 83 33.5t98 13.5zM329 235l-88 -24q-42 -11 -58 -23.5t-16 -37.5q0 -18 8.5 -31t24.5 -20
t38 -7q57 0 89 42l2 3v98z" />
    <glyph glyph-name="Abrevegrave" unicode="&#x1eb0;" horiz-adv-x="803" 
d="M464 931h-118l-147 169h158zM480 902h84q0 -66 -46.5 -112t-115.5 -46t-115.5 46t-46.5 112h83q0 -34 23 -57t55.5 -23t55.5 23t23 57zM725 91l59 -5v-86h-302v77q0 8 8 9l52 4q10 1 15 9t2 17l-31 77h-282l-40 -101l80 -6v-86h-267v78q0 8 8 8l43 4q10 1 13 9l240 597
l148 8zM290 309h195l-97 249z" />
    <glyph glyph-name="abrevegrave" unicode="&#x1eb1;" horiz-adv-x="567" 
d="M329 735h-118l-147 169h158zM345 712h84q0 -43 -21 -79.5t-58.5 -58t-82.5 -21.5q-69 0 -115.5 46.5t-46.5 112.5h83q0 -34 23 -57.5t55.5 -23.5t55.5 23.5t23 57.5zM256 508q42 1 78 -9.5t65.5 -31t46.5 -56t17 -82.5v-227q0 -15 15 -17l56 -4v-81h-177q-7 0 -8 7l-7 53
q-27 -32 -67 -51t-86 -19q-70 0 -113.5 41.5t-43.5 104.5q0 60 43 92t135 57l119 32v14q-1 79 -88 79q-43 -1 -86 -19q-9 -4 -9 -13l-5 -52h-69v129q0 4 3 6q33 20 83 33.5t98 13.5zM329 235l-88 -24q-42 -11 -58 -23.5t-16 -37.5q0 -27 19 -42.5t52 -15.5q57 0 89 42l2 3
v98z" />
    <glyph glyph-name="Abrevehookabove" unicode="&#x1eb2;" horiz-adv-x="803" 
d="M438 1160q55 0 92 -27t37 -74q0 -33 -16 -54.5t-58 -44.5q-32 -17 -42.5 -26.5t-11.5 -25.5l-2 -21h-74l-2 35q-2 30 14 49.5t60 42.5q28 15 35.5 22.5t7.5 21.5q0 17 -12.5 25.5t-34.5 8.5q-25 -1 -64 -15l-37 51q45 32 108 32zM480 912h84q0 -66 -46.5 -112.5
t-115.5 -46.5t-115.5 46.5t-46.5 112.5h83q0 -34 23 -57.5t56 -23.5q21 0 39 10.5t28.5 29t10.5 41.5zM725 91l59 -5v-86h-302v77q0 8 8 9l52 4q10 1 15 9t2 17l-31 77h-282l-40 -101l81 -6v-86h-268v78q0 8 8 8l43 4q10 1 13 9l240 597l148 8zM290 309h195l-97 249z" />
    <glyph glyph-name="abrevehookabove" unicode="&#x1eb3;" horiz-adv-x="567" 
d="M305 970q55 0 92.5 -27t37.5 -74q0 -34 -16.5 -55t-58.5 -45q-32 -17 -42.5 -26.5t-11.5 -25.5l-2 -21h-73l-3 35q-1 21 6 36.5t22.5 28t45.5 28.5q15 8 22.5 12.5t13 9.5t6.5 9.5t1 12.5q0 16 -12.5 25t-34.5 8q-24 0 -63 -14l-38 50q46 32 108 33zM345 712h84
q0 -43 -21 -79.5t-58.5 -58t-82.5 -21.5q-69 0 -115.5 46.5t-46.5 112.5h83q0 -34 23 -57.5t56 -23.5q21 0 39 10.5t28.5 29t10.5 41.5zM256 508q42 1 78 -9.5t65.5 -31t46.5 -56t17 -82.5v-227q0 -15 15 -17l56 -4v-81h-177q-7 0 -8 7l-7 53q-27 -32 -67 -51t-86 -19
q-70 0 -113.5 41.5t-43.5 104.5q0 60 43 92t135 57l119 32v14q-1 79 -88 79q-43 -1 -86 -19q-9 -4 -9 -13l-5 -52h-69v129q0 4 3 6q16 9 36.5 17.5t44 15t49.5 10.5t51 4zM329 235l-88 -24q-42 -11 -58 -23.5t-16 -37.5q0 -27 19 -42.5t52 -15.5q57 0 89 42l2 3v98z" />
    <glyph glyph-name="Abrevetilde" unicode="&#x1eb4;" horiz-adv-x="803" 
d="M495 1069l76 -16q0 -50 -24 -77t-63 -31q-26 -2 -60 9q-14 4 -40 15t-33 12q-13 2 -22 -7t-21 -35l-75 23q15 87 77 102q37 8 91 -14q45 -19 61 -15q18 4 33 34zM480 902h84q0 -66 -46.5 -112t-115.5 -46t-115.5 46t-46.5 112h83q0 -34 23 -57t56 -23q21 0 39 10.5
t28.5 29t10.5 40.5zM725 91l59 -5v-86h-302v77q0 8 8 9l52 4q10 1 15 9t2 17l-31 77h-282l-40 -101l80 -6v-86h-267v78q0 8 8 8l43 4q10 1 13 9l240 597l148 8zM290 309h195l-97 249z" />
    <glyph glyph-name="abrevetilde" unicode="&#x1eb5;" horiz-adv-x="567" 
d="M360 867l76 -15q0 -34 -11.5 -58t-30.5 -36t-45 -14t-60 8q-12 4 -27.5 10.5t-27.5 11.5t-18 6q-9 1 -15.5 -2.5t-12.5 -13t-15 -27.5l-75 23q15 88 77 102q37 8 91 -14q45 -18 61 -14q18 4 33 33zM345 712h84q0 -32 -12.5 -61.5t-34 -50.5t-51.5 -34t-64 -13
q-69 0 -115.5 46.5t-46.5 112.5h83q0 -34 23 -57.5t55.5 -23.5t55.5 23.5t23 57.5zM256 508q42 1 78 -9.5t65.5 -31t46.5 -56t17 -82.5v-227q0 -15 15 -17l56 -4v-81h-177q-7 0 -8 7l-7 53q-27 -32 -67 -51t-86 -19q-70 0 -113.5 41.5t-43.5 104.5q0 60 43 92t135 57l119 32
v14q-1 79 -88 79q-43 -1 -86 -19q-9 -4 -9 -13l-5 -52h-69v129q0 4 3 6q33 20 83 33.5t98 13.5zM329 235l-88 -24q-29 -8 -44 -15t-22.5 -18t-7.5 -28q0 -27 19 -42.5t52 -15.5q57 0 89 42l2 3v98z" />
    <glyph glyph-name="Abrevedotbelow" unicode="&#x1eb6;" horiz-adv-x="803" 
d="M480 912h84q0 -66 -46.5 -112.5t-115.5 -46.5t-115.5 46.5t-46.5 112.5h83q0 -34 23 -57.5t56 -23.5q21 0 39 10.5t28.5 29t10.5 41.5zM725 91l59 -5v-86h-302v77q0 8 8 9l52 4q10 1 15 9t2 17l-31 77h-282l-40 -101l80 -6v-86h-267v78q0 8 8 8l43 4q10 1 13 9l240 597
l148 8zM290 309h195l-97 249zM400 -72q28 0 47.5 -20t19.5 -47q0 -26 -19.5 -46.5t-47.5 -20.5t-47.5 20.5t-19.5 46.5q0 27 19.5 47t47.5 20z" />
    <glyph glyph-name="abrevedotbelow" unicode="&#x1eb7;" horiz-adv-x="567" 
d="M345 712h84q0 -43 -21 -79.5t-58.5 -58t-82.5 -21.5q-69 0 -115.5 46.5t-46.5 112.5h83q0 -34 23 -57.5t56 -23.5q21 0 39 10.5t28.5 29t10.5 41.5zM256 508q42 1 78 -9.5t65.5 -31t46.5 -56t17 -82.5v-227q0 -15 15 -17l56 -4v-81h-177q-7 0 -8 7l-7 53q-27 -32 -67 -51
t-86 -19q-70 0 -113.5 41.5t-43.5 104.5q0 60 43 92t135 57l119 32v14q-1 79 -88 79q-43 -1 -86 -19q-9 -4 -9 -13l-5 -52h-69v129q0 4 3 6q33 20 83 33.5t98 13.5zM329 235l-88 -24q-42 -11 -58 -23.5t-16 -37.5q0 -18 8.5 -31t24.5 -20t38 -7q57 0 89 42l2 3v98z
M267.5 -72q28.5 0 47.5 -20t19 -47q0 -26 -19.5 -46.5t-47.5 -20.5t-47 20.5t-19 46.5q0 27 19 47t47.5 20z" />
    <glyph glyph-name="Edotbelow" unicode="&#x1eb8;" horiz-adv-x="597" 
d="M48 700h497q9 0 9 -9v-188h-84l-5 65q-1 16 -17 16h-177v-176h189v-110h-189v-182h194q16 0 17 16l5 65h84v-188q0 -9 -9 -9h-514v78q0 8 8 8l55 5q16 1 16 17v484q0 16 -16 17l-55 5q-8 0 -8 8v78zM298.5 -72q28.5 0 47.5 -20t19 -47q0 -26 -19 -46.5t-48 -20.5
q-18 0 -33.5 9.5t-24 25t-8.5 32.5q0 27 19 47t47.5 20z" />
    <glyph glyph-name="edotbelow" unicode="&#x1eb9;" horiz-adv-x="545" 
d="M274 510q122 0 180.5 -67.5t59.5 -187.5v-21q0 -6 -6 -7l-332 -11q6 -60 40 -93.5t86 -32.5q75 0 145 56l37 -91q-73 -65 -188 -65q-119 0 -190 73.5t-71 187t65 186.5t174 73zM277 416q-44 0 -70 -29t-32 -86h190q4 0 7 4t1 10q-3 34 -14 56t-31.5 33.5t-50.5 11.5z
M272 -72q28 0 47.5 -20t19.5 -47q0 -26 -19.5 -46.5t-47.5 -20.5t-47.5 20.5t-19.5 46.5q0 27 19.5 47t47.5 20z" />
    <glyph glyph-name="Ehookabove" unicode="&#x1eba;" horiz-adv-x="597" 
d="M345 1032q35 0 64 -11t47 -34.5t18 -54.5q0 -34 -16.5 -55t-58.5 -45q-8 -4 -13.5 -7t-11.5 -6.5t-9 -6t-7 -5.5t-5.5 -6t-3.5 -6.5t-2.5 -7t-1.5 -7.5l-1 -21h-74l-3 35q-1 21 6 36t22.5 28t45.5 29q29 15 36 22t7 22q0 16 -12.5 25t-34.5 8q-24 0 -63 -14l-38 50
q46 32 109 32zM48 700h497q9 0 9 -9v-188h-84l-5 65q-1 16 -17 16h-177v-176h189v-110h-189v-182h194q16 0 17 16l5 65h84v-188q0 -9 -9 -9h-514v78q0 8 8 8l55 5q16 1 16 17v484q0 16 -16 17l-55 5q-8 0 -8 8v78z" />
    <glyph glyph-name="ehookabove" unicode="&#x1ebb;" horiz-adv-x="585" 
d="M313 826q35 0 64 -11.5t47 -34.5t18 -54q0 -23 -7.5 -40t-23 -30.5t-43.5 -29.5q-18 -9 -26 -14t-15.5 -11t-10 -12t-3.5 -15l-1 -21h-74l-3 35q-2 31 14 50t61 42q28 15 35 22.5t7 22.5q0 16 -12.5 25t-33.5 8q-25 0 -64 -14l-38 50q46 32 109 32zM274 510
q122 0 180.5 -67.5t59.5 -187.5v-21q0 -6 -6 -7l-332 -11q6 -60 40 -93.5t86 -32.5q75 0 145 56l37 -91q-73 -65 -188 -65q-119 0 -190 73.5t-71 187t65 186.5t174 73zM277 416q-29 0 -50.5 -12.5t-34.5 -38.5t-17 -64h190q4 0 7 4t1 10q-3 34 -14 56t-31.5 33.5t-50.5 11.5
z" />
    <glyph glyph-name="Etilde" unicode="&#x1ebc;" horiz-adv-x="597" 
d="M407 888l76 -15q-1 -50 -24.5 -77.5t-62.5 -30.5q-26 -2 -60 9q-12 3 -28 9.5t-27.5 11.5t-17.5 6q-13 2 -22 -7t-21 -36l-76 23q16 88 78 102q37 8 91 -14q44 -18 61 -14q18 4 33 33zM48 700h497q9 0 9 -9v-188h-84l-5 65q-1 16 -17 16h-177v-176h189v-110h-189v-182
h194q16 0 17 16l5 65h84v-188q0 -9 -9 -9h-514v78q0 8 8 8l55 5q16 1 16 17v484q0 16 -16 17l-55 5q-8 0 -8 8v78z" />
    <glyph glyph-name="etilde" unicode="&#x1ebd;" horiz-adv-x="545" 
d="M368 688l76 -15q0 -50 -24 -77.5t-63 -30.5q-26 -2 -60 9q-10 2 -22 7t-20.5 9t-17 7t-13.5 4q-13 2 -22 -7t-21 -36l-76 23q16 88 78 102q37 8 91 -14q44 -18 61 -14q18 4 33 33zM274 510q122 0 180.5 -67.5t59.5 -187.5v-21q0 -6 -6 -7l-332 -11q6 -60 40 -93.5
t86 -32.5q75 0 145 56l37 -91q-73 -65 -188 -65q-119 0 -190 73.5t-71 187t65 186.5t174 73zM277 416q-44 0 -70 -29t-32 -86h190q4 0 7 4t2 10q-3 25 -10 43.5t-18.5 31.5t-28.5 19.5t-40 6.5z" />
    <glyph glyph-name="Ecircumflexacute" unicode="&#x1ebe;" horiz-adv-x="597" 
d="M609 843h-117l107 169h157zM511 757h-118l-79 101l-80 -101h-118l115 169h166zM48 700h497q9 0 9 -9v-188h-84l-5 65q-1 16 -17 16h-177v-176h189v-110h-189v-182h194q16 0 17 16l5 65h84v-188q0 -9 -9 -9h-514v78q0 8 8 8l55 5q16 1 16 17v484q0 16 -16 17l-55 5
q-8 0 -8 8v78z" />
    <glyph glyph-name="ecircumflexacute" unicode="&#x1ebf;" horiz-adv-x="545" 
d="M526 700h-118l107 169h157zM472 557h-118l-79 101l-80 -101h-117l114 169h166zM274 510q122 0 180.5 -67.5t59.5 -187.5v-21q0 -6 -6 -7l-332 -11q6 -60 40 -93.5t86 -32.5q75 0 145 56l37 -91q-73 -65 -188 -65q-119 0 -190 73.5t-71 187t65 186.5t174 73zM277 416
q-44 0 -70 -29t-32 -86h190q4 0 7 4t2 10q-3 25 -10 43.5t-18.5 31.5t-28.5 19.5t-40 6.5z" />
    <glyph glyph-name="Ecircumflexgrave" unicode="&#x1ec0;" horiz-adv-x="597" 
d="M645 843h-118l-147 169h158zM511 757h-118l-79 102l-80 -102h-118l115 169h166zM48 700h497q9 0 9 -9v-188h-84l-5 65q-1 16 -17 16h-177v-176h189v-110h-189v-182h194q16 0 17 16l5 65h84v-188q0 -9 -9 -9h-514v78q0 8 8 8l55 5q16 1 16 17v484q0 16 -16 17l-55 5
q-8 0 -8 8v78z" />
    <glyph glyph-name="ecircumflexgrave" unicode="&#x1ec1;" horiz-adv-x="545" 
d="M546 700h-118l-147 169h157zM472 557h-118l-79 101l-80 -101h-117l114 169h166zM274 510q122 0 180.5 -67.5t59.5 -187.5v-21q0 -6 -6 -7l-332 -11q6 -60 40 -93.5t86 -32.5q75 0 145 56l37 -91q-73 -65 -188 -65q-119 0 -190 73.5t-71 187t65 186.5t174 73zM277 416
q-44 0 -70 -29t-32 -86h190q4 0 7 4t2 10q-3 25 -10 43.5t-18.5 31.5t-28.5 19.5t-40 6.5z" />
    <glyph glyph-name="Ecircumflexhookabove" unicode="&#x1ec2;" horiz-adv-x="597" 
d="M616 1032q55 1 92.5 -26t37.5 -74q0 -17 -4 -30.5t-13.5 -25t-23 -22t-34.5 -22.5q-22 -12 -32 -18t-15.5 -14.5t-6.5 -19.5l-2 -21h-73l-3 35q-2 31 14 50t60 43q28 15 35.5 22t7.5 22q0 16 -12.5 25t-34.5 8q-25 0 -63 -14l-38 50q45 32 108 32zM511 757h-118l-79 101
l-80 -101h-118l115 169h166zM48 700h497q9 0 9 -9v-188h-84l-5 65q-1 16 -17 16h-177v-176h189v-110h-189v-182h194q16 0 17 16l5 65h84v-188q0 -9 -9 -9h-514v78q0 8 8 8l55 5q16 1 16 17v484q0 16 -16 17l-55 5q-8 0 -8 8v78z" />
    <glyph glyph-name="ecircumflexhookabove" unicode="&#x1ec3;" horiz-adv-x="545" 
d="M485 970q55 0 92 -27t37 -74q0 -34 -16 -55t-58 -45q-32 -17 -42.5 -26.5t-11.5 -25.5l-2 -21h-73l-3 35q-2 31 14 50t60 43q28 15 35.5 22t7.5 22q0 16 -12.5 25t-34.5 8q-25 0 -64 -14l-37 50q45 32 108 33zM469 557h-118l-79 102l-80 -102h-117l114 169h166zM274 510
q122 0 180.5 -67.5t59.5 -187.5v-21q0 -6 -6 -7l-332 -11q6 -60 40 -93.5t86 -32.5q75 0 145 56l37 -91q-73 -65 -188 -65q-119 0 -190 73.5t-71 187t65 186.5t174 73zM277 416q-44 0 -70 -29t-32 -86h190q4 0 7 4t2 10q-6 51 -29 76t-68 25z" />
    <glyph glyph-name="Ecircumflextilde" unicode="&#x1ec4;" horiz-adv-x="597" 
d="M407 1083l76 -16q-1 -50 -24.5 -77t-62.5 -30q-26 -3 -60 8q-14 4 -40 15t-33 12q-13 2 -22 -7t-21 -35l-76 23q16 87 78 102q37 8 91 -14q44 -19 61 -15q18 5 33 34zM511 757h-118l-79 101l-80 -101h-118l115 169h166zM48 700h497q9 0 9 -9v-188h-84l-5 65q-1 16 -17 16
h-177v-176h189v-110h-189v-182h194q16 0 17 16l5 65h84v-188q0 -9 -9 -9h-514v78q0 8 8 8l55 5q16 1 16 17v484q0 16 -16 17l-55 5q-8 0 -8 8v78z" />
    <glyph glyph-name="ecircumflextilde" unicode="&#x1ec5;" horiz-adv-x="545" 
d="M368 879l76 -16q0 -25 -6.5 -45t-18.5 -33t-27.5 -20.5t-34.5 -9.5q-26 -2 -60 9q-12 3 -28 10t-27.5 11.5t-17.5 5.5q-13 2 -22 -7t-21 -36l-76 23q16 88 78 103q37 7 91 -14q44 -19 61 -15q18 4 33 34zM472 557h-118l-79 101l-80 -101h-117l114 169h166zM274 510
q122 0 180.5 -67.5t59.5 -187.5v-21q0 -6 -6 -7l-332 -11q6 -60 40 -93.5t86 -32.5q75 0 145 56l37 -91q-73 -65 -188 -65q-119 0 -190 73.5t-71 187t65 186.5t174 73zM277 416q-44 0 -70 -29t-32 -86h190q4 0 7 4t2 10q-4 34 -15 56t-31.5 33.5t-50.5 11.5z" />
    <glyph glyph-name="Ecircumflexdotbelow" unicode="&#x1ec6;" horiz-adv-x="597" 
d="M511 757h-118l-79 101l-80 -101h-118l115 169h166zM48 700h497q9 0 9 -9v-188h-84l-5 65q-1 16 -17 16h-177v-176h189v-110h-189v-182h194q16 0 17 16l5 65h84v-188q0 -9 -9 -9h-514v78q0 8 8 8l55 5q16 1 16 17v484q0 16 -16 17l-55 5q-8 0 -8 8v78zM298.5 -72
q28.5 0 47.5 -20t19 -47q0 -26 -19 -46.5t-47.5 -20.5t-47.5 20.5t-19 46.5q0 27 19 47t47.5 20z" />
    <glyph glyph-name="ecircumflexdotbelow" unicode="&#x1ec7;" horiz-adv-x="545" 
d="M472 557h-118l-79 101l-80 -101h-117l114 169h166zM274 510q122 0 180.5 -67.5t59.5 -187.5v-21q0 -6 -6 -7l-332 -11q6 -60 40 -93.5t86 -32.5q75 0 145 56l37 -91q-73 -65 -188 -65q-119 0 -190 73.5t-71 187t65 186.5t174 73zM277 416q-44 0 -70 -29t-32 -86h190
q4 0 7 4t2 10q-3 25 -10 43.5t-18.5 31.5t-28.5 19.5t-40 6.5zM272 -72q28 0 47.5 -20t19.5 -47q0 -26 -19.5 -46.5t-47.5 -20.5q-19 0 -34.5 9.5t-24 25t-8.5 32.5q0 27 19.5 47t47.5 20z" />
    <glyph glyph-name="Ihookabove" unicode="&#x1ec8;" horiz-adv-x="398" 
d="M222 1032q35 0 64 -11t47 -34.5t18 -54.5q0 -14 -2.5 -25t-8 -21t-14.5 -19t-21 -17t-28 -18q-33 -17 -43 -26.5t-12 -25.5l-1 -21h-74l-3 35q-1 21 6 36t22.5 28t46.5 29q28 15 35 22t7 22q0 16 -12.5 25t-33.5 8q-25 0 -64 -14l-37 50q45 32 108 32zM350 614l-63 -5
q-16 -1 -16 -17v-484q0 -16 16 -17l63 -5v-86h-302v78q0 8 8 8l56 5q15 1 15 17v484q0 16 -15 17l-56 5q-8 0 -8 8v78h302v-86z" />
    <glyph glyph-name="ihookabove" unicode="&#x1ec9;" horiz-adv-x="380" 
d="M212 826q26 0 49 -6.5t41 -19t28.5 -32t10.5 -42.5t-8 -40t-23.5 -30.5t-43.5 -29.5q-22 -12 -32 -18.5t-15.5 -14.5t-6.5 -19l-2 -21h-73l-3 35q-2 31 14 50t60 42q29 15 36 22.5t7 22.5q0 16 -12.5 25t-34.5 8q-24 0 -63 -14l-38 50q46 32 109 32zM48 496l202 11
q9 0 9 -9v-395q0 -15 16 -17l65 -5v-81h-292v73q0 8 8 9l54 4q15 2 15 17v294q0 7 -4.5 12t-11.5 5l-61 3v79z" />
    <glyph glyph-name="Idotbelow" unicode="&#x1eca;" horiz-adv-x="398" 
d="M350 614l-63 -5q-16 -1 -16 -17v-484q0 -16 16 -17l63 -5v-86h-302v78q0 8 8 8l56 5q15 1 15 17v484q0 16 -15 17l-56 5q-8 0 -8 8v78h302v-86zM199.5 -72q28.5 0 48 -20t19.5 -47q0 -26 -19.5 -46.5t-47.5 -20.5t-47.5 20.5t-19.5 46.5q0 27 19 47t47.5 20z" />
    <glyph glyph-name="idotbelow" unicode="&#x1ecb;" horiz-adv-x="380" 
d="M186 734q30 0 51.5 -21t21.5 -51.5t-21.5 -52t-51.5 -21.5t-51.5 21.5t-21.5 52t21.5 51.5t51.5 21zM48 496l202 11q9 0 9 -9v-395q0 -15 16 -17l65 -5v-81h-292v73q0 8 8 9l54 4q15 2 15 17v294q0 7 -4.5 12t-11.5 5l-61 3v79zM186 -72q18 0 33.5 -9.5t24.5 -25t9 -32.5
q0 -26 -19.5 -46.5t-48 -20.5t-47.5 20.5t-19 46.5q0 27 19 47t48 20z" />
    <glyph glyph-name="Odotbelow" unicode="&#x1ecc;" horiz-adv-x="777" 
d="M388 708q156 0 253 -100.5t97 -258t-97 -258t-253 -100.5t-252.5 100.5t-96.5 258t96.5 258t252.5 100.5zM388 592q-91 0 -145 -64t-54 -178t54 -178t145.5 -64t145.5 64t54 178q0 76 -25 130.5t-69.5 83t-105.5 28.5zM388 -72q28 0 47.5 -20t19.5 -47q0 -26 -19.5 -46.5
t-47.5 -20.5t-47 20.5t-19 46.5q0 27 19 47t47 20z" />
    <glyph glyph-name="odotbelow" unicode="&#x1ecd;" horiz-adv-x="601" 
d="M300.5 510q120.5 0 193 -73t72.5 -186.5t-72.5 -187t-193 -73.5t-193 73.5t-72.5 187t72.5 186.5t193 73zM300.5 410q-57.5 0 -93 -42t-35.5 -118t35.5 -118t93 -42t93 42t35.5 118t-35.5 118t-93 42zM300.5 -72q28.5 0 47.5 -20t19 -47q0 -26 -19 -46.5t-47.5 -20.5
t-47.5 20.5t-19 46.5q0 27 19 47t47.5 20z" />
    <glyph glyph-name="Ohookabove" unicode="&#x1ece;" horiz-adv-x="777" 
d="M428 1032q54 0 91.5 -27t37.5 -73q0 -34 -16.5 -55t-57.5 -45q-32 -17 -42.5 -26.5t-11.5 -25.5l-2 -21h-74l-3 35q-1 31 14.5 50t60.5 43q28 15 35.5 22t7.5 22q0 16 -12.5 25t-34.5 8q-25 0 -64 -14l-37 50q45 32 108 32zM388.5 708q156.5 0 253 -100.5t96.5 -258
t-97 -258t-253 -100.5t-252.5 100.5t-96.5 258t96.5 258t253 100.5zM388.5 592q-91.5 0 -145.5 -64t-54 -178t54 -178t145.5 -64t145.5 64t54 178t-54 178t-145.5 64z" />
    <glyph glyph-name="ohookabove" unicode="&#x1ecf;" horiz-adv-x="601" 
d="M339 826q35 0 64 -11.5t47 -34.5t18 -54q0 -23 -7.5 -40t-23.5 -30.5t-44 -29.5q-32 -17 -42.5 -26.5t-11.5 -25.5l-2 -21h-73l-3 35q-2 31 14 50t60 42q16 9 23 13t12.5 9.5t6.5 10t1 12.5q0 16 -12.5 25t-34.5 8q-24 0 -63 -14l-38 50q46 32 109 32zM300.5 510
q120.5 0 193 -73t72.5 -186.5t-72.5 -187t-193 -73.5t-193 73.5t-72.5 187t72.5 186.5t193 73zM300.5 410q-57.5 0 -93 -42t-35.5 -118t35.5 -118t93 -42t93 42t35.5 118t-35.5 118t-93 42z" />
    <glyph glyph-name="Ocircumflexacute" unicode="&#x1ed0;" horiz-adv-x="777" 
d="M688 833h-118l108 169h157zM585 747h-117l-80 102l-79 -102h-118l114 169h166zM388 708q156 0 253 -100.5t97 -258t-97 -258t-253 -100.5t-252.5 100.5t-96.5 258t96.5 258t252.5 100.5zM388.5 592q-60.5 0 -105.5 -28.5t-69.5 -83t-24.5 -130.5q0 -114 54 -178
t145.5 -64t145.5 64t54 178q0 76 -25 130.5t-69.5 83t-105 28.5z" />
    <glyph glyph-name="ocircumflexacute" unicode="&#x1ed1;" horiz-adv-x="601" 
d="M552 700h-118l107 169h157zM498 557h-118l-79 101l-80 -101h-118l115 169h166zM300.5 510q120.5 0 193 -73t72.5 -186.5t-72.5 -187t-193 -73.5t-193 73.5t-72.5 187t72.5 186.5t193 73zM300.5 410q-37.5 0 -66 -18t-45.5 -54.5t-17 -87.5q0 -76 35.5 -118t93.5 -42
q37 0 66 18t45.5 54.5t16.5 87.5t-16.5 87.5t-45.5 54.5t-66.5 18z" />
    <glyph glyph-name="Ocircumflexgrave" unicode="&#x1ed2;" horiz-adv-x="777" 
d="M717 833h-118l-146 169h157zM585 747h-117l-80 102l-79 -102h-118l114 169h166zM388 708q156 0 253 -100.5t97 -258t-97 -258t-253 -100.5t-252.5 100.5t-96.5 258t96.5 258t252.5 100.5zM388 592q-91 0 -145 -64t-54 -178t54 -178t145.5 -64t145.5 64t54 178
q0 76 -25 130.5t-69.5 83t-105.5 28.5z" />
    <glyph glyph-name="ocircumflexgrave" unicode="&#x1ed3;" horiz-adv-x="601" 
d="M572 700h-118l-147 169h157zM498 557h-118l-79 101l-80 -101h-118l115 169h166zM300.5 510q120.5 0 193 -73t72.5 -186.5t-72.5 -187t-193 -73.5t-193 73.5t-72.5 187t72.5 186.5t193 73zM301 410q-38 0 -66.5 -18t-45.5 -54.5t-17 -87.5q0 -76 35.5 -118t93 -42t93 42
t35.5 118t-35.5 118t-92.5 42z" />
    <glyph glyph-name="Ocircumflexhookabove" unicode="&#x1ed4;" horiz-adv-x="777" 
d="M689 1025q54 0 91.5 -27t37.5 -73q0 -34 -16.5 -55.5t-57.5 -44.5q-33 -17 -43 -26.5t-12 -25.5l-1 -21h-74l-3 35q-2 31 14 50t61 42q20 11 28 16.5t11 11.5t3 16q0 11 -5.5 19t-16 11.5t-24.5 3.5q-25 -1 -64 -15l-37 51q45 32 108 32zM585 747h-117l-80 102l-79 -102
h-118l114 169h166zM388.5 708q156.5 0 253 -100.5t96.5 -258t-97 -258t-253 -100.5t-252.5 100.5t-96.5 258t96.5 258t253 100.5zM388.5 592q-91.5 0 -145.5 -64t-54 -178t54 -178t145.5 -64t145.5 64t54 178t-54 178t-145.5 64z" />
    <glyph glyph-name="ocircumflexhookabove" unicode="&#x1ed5;" horiz-adv-x="601" 
d="M514 970q55 0 92 -27t37 -74q0 -34 -16.5 -55t-57.5 -45q-32 -17 -42.5 -26.5t-11.5 -25.5l-2 -21h-74l-2 35q-2 31 14 50t60 43q28 15 35.5 22t7.5 22q0 16 -12.5 25t-34.5 8q-25 0 -64 -14l-37 50q45 32 108 33zM498 557h-118l-79 102l-80 -102h-118l115 169h166z
M300.5 510q120.5 0 193 -73t72.5 -186.5t-72.5 -187t-193 -73.5t-193 73.5t-72.5 187t72.5 186.5t193 73zM301 410q-58 0 -93.5 -42t-35.5 -118t35.5 -118t93.5 -42q37 0 66 18t45.5 54.5t16.5 87.5t-16.5 87.5t-45.5 54.5t-66 18z" />
    <glyph glyph-name="Ocircumflextilde" unicode="&#x1ed6;" horiz-adv-x="777" 
d="M482 1083l75 -16q0 -50 -23.5 -77.5t-63.5 -30.5q-25 -2 -60 9q-14 4 -40 15t-33 12q-9 1 -15.5 -2.5t-12.5 -12.5t-14 -28l-76 23q15 88 78 103q36 7 90 -15q45 -18 61 -14q19 4 34 34zM585 757h-117l-80 101l-79 -101h-118l114 169h166zM388 708q156 0 253 -100.5
t97 -258t-97 -258t-253 -100.5t-252.5 100.5t-96.5 258.5q0 103 43 184.5t123 127.5t183 46zM388.5 592q-91.5 0 -145.5 -64t-54 -178q0 -76 24.5 -131t69.5 -83t105 -28q92 0 146 64t54 178t-54 178t-145.5 64z" />
    <glyph glyph-name="ocircumflextilde" unicode="&#x1ed7;" horiz-adv-x="601" 
d="M394 879l76 -16q0 -25 -6.5 -45t-18.5 -33t-27.5 -20.5t-34.5 -9.5q-26 -2 -60 9q-14 4 -40 15t-33 12q-13 2 -22 -7t-21 -36l-76 23q16 88 78 103q37 7 91 -14q44 -19 61 -15q18 4 33 34zM498 557h-118l-79 101l-80 -101h-118l115 169h166zM300.5 510q120.5 0 193 -73
t72.5 -186.5t-72.5 -187t-192.5 -73.5q-81 0 -141.5 34t-92.5 93t-32 133q0 114 72.5 187t193 73zM301 410q-58 0 -93.5 -42t-35.5 -118t35.5 -118t93 -42t93 42t35.5 118q0 51 -16.5 87.5t-45.5 54.5t-66 18z" />
    <glyph glyph-name="Ocircumflexdotbelow" unicode="&#x1ed8;" horiz-adv-x="777" 
d="M585 757h-117l-80 101l-79 -101h-118l114 169h166zM388 708q156 0 253 -100.5t97 -258t-97 -258t-253 -100.5t-252.5 100.5t-96.5 258t96.5 258t252.5 100.5zM388.5 592q-91.5 0 -145.5 -64t-54 -178t54 -178t145.5 -64t145.5 64t54 178t-54 178t-145.5 64zM388.5 -72
q28.5 0 47.5 -20t19 -47q0 -26 -19.5 -46.5t-47.5 -20.5q-14 0 -26.5 5.5t-21 15t-13.5 21.5t-5 25q0 27 19 47t47.5 20z" />
    <glyph glyph-name="ocircumflexdotbelow" unicode="&#x1ed9;" horiz-adv-x="601" 
d="M498 557h-118l-79 101l-80 -101h-118l115 169h166zM300.5 510q120.5 0 193 -73t72.5 -186.5t-72.5 -187t-193 -73.5t-193 73.5t-72.5 187t72.5 186.5t193 73zM301 410q-38 0 -66.5 -18t-45.5 -54.5t-17 -87.5q0 -76 35.5 -118t93 -42t93 42t35.5 118t-35.5 118t-92.5 42z
M300.5 -72q28.5 0 47.5 -20t19 -47q0 -26 -19 -46.5t-47.5 -20.5t-47.5 20.5t-19 46.5q0 27 19 47t47.5 20z" />
    <glyph glyph-name="Ohornacute" unicode="&#x1eda;" horiz-adv-x="777" 
d="M443 757h-118l107 169h158zM649 815l101 32q29 -57 29 -111q-2 -54 -32.5 -86t-80.5 -36q-15 -1 -32 1q104 -101 104 -265q0 -158 -97 -258.5t-253 -100.5t-252.5 100.5t-96.5 258t96.5 258t252.5 100.5q74 0 136 -25q30 -12 65 -12q82 0 84 58q2 35 -24 86zM388 592
q-60 0 -105 -28t-69.5 -83t-24.5 -131q0 -114 54 -178t145.5 -64t145.5 64t54 178t-54 178t-146 64z" />
    <glyph glyph-name="ohornacute" unicode="&#x1edb;" horiz-adv-x="600" 
d="M356 557h-118l107 169h157zM499 606l93 29q29 -57 28 -111q-1 -50 -28 -81t-72 -38q46 -65 46 -155q0 -113 -72.5 -186.5t-193 -73.5t-193 73.5t-72.5 187t72.5 186.5t193.5 73q92 0 158 -46l13 3q43 10 49 52q5 35 -22 87zM300.5 410q-37.5 0 -66 -18t-45.5 -54.5
t-17 -87.5q0 -76 35.5 -118t93.5 -42q37 0 66 18t45.5 54.5t16.5 87.5t-16.5 87.5t-45.5 54.5t-66.5 18z" />
    <glyph glyph-name="Ohorngrave" unicode="&#x1edc;" horiz-adv-x="777" 
d="M450 757h-118l-147 169h158zM650 815l100 32q29 -57 29 -111q-1 -36 -16 -63t-39.5 -41.5t-57.5 -17.5q-15 -1 -32 1q104 -101 104 -265q0 -158 -97 -258.5t-253 -100.5t-252.5 100.5t-96.5 258t96.5 258t252.5 100.5q74 0 136 -25q30 -12 65 -12q82 0 84 58q2 35 -23 86
zM388.5 592q-60.5 0 -105.5 -28t-69.5 -83t-24.5 -131q0 -114 54 -178t145.5 -64t145.5 64t54 178q0 76 -25 131t-69.5 83t-105 28z" />
    <glyph glyph-name="ohorngrave" unicode="&#x1edd;" horiz-adv-x="600" 
d="M363 557h-118l-147 169h157zM499 606l93 29q29 -57 28 -111q-1 -50 -28 -81t-72 -38q46 -65 46 -155q0 -113 -72.5 -186.5t-193 -73.5t-193 73.5t-72.5 187t72.5 186.5t193.5 73q92 0 158 -46l13 3q43 10 49 52q5 35 -22 87zM301 410q-58 0 -93.5 -42t-35.5 -118
t35.5 -118t93.5 -42q37 0 66 18t45.5 54.5t16.5 87.5t-16.5 87.5t-45.5 54.5t-66 18z" />
    <glyph glyph-name="Ohornhookabove" unicode="&#x1ede;" horiz-adv-x="777" 
d="M428 1032q54 0 91.5 -27t37.5 -73q0 -34 -16.5 -55t-57.5 -45q-32 -17 -42.5 -26.5t-11.5 -25.5l-2 -21h-74l-3 35q-1 31 14.5 50t60.5 43q28 15 35.5 22t7.5 22q0 16 -12.5 25t-34.5 8q-25 0 -64 -14l-37 50q45 32 108 32zM650 815l100 32q29 -57 29 -111
q-2 -54 -32.5 -86t-80.5 -36q-15 -1 -32 1q104 -101 104 -265q0 -158 -97 -258.5t-253 -100.5t-252.5 100.5t-96.5 258t96.5 258t252.5 100.5q74 0 136 -25q30 -12 65 -12q82 0 84 58q2 35 -23 86zM388 592q-60 0 -105 -28.5t-69.5 -83t-24.5 -130.5q0 -114 54 -178
t145.5 -64t145.5 64t54 178t-54 178t-146 64z" />
    <glyph glyph-name="ohornhookabove" unicode="&#x1edf;" horiz-adv-x="600" 
d="M339 826q35 0 64 -11.5t47 -34.5t18 -54q0 -23 -7.5 -40t-23.5 -30.5t-44 -29.5q-32 -17 -42.5 -26.5t-11.5 -25.5l-2 -21h-73l-3 35q-2 31 14 50t60 42q16 9 23 13t12.5 9.5t6.5 10t1 12.5q0 16 -12.5 25t-34.5 8q-24 0 -63 -14l-38 50q46 32 109 32zM499 606l93 29
q29 -57 28 -111q-1 -50 -28 -81t-72 -38q46 -65 46 -155q0 -113 -72.5 -186.5t-193 -73.5t-193 73.5t-72.5 187t72.5 186.5t193.5 73q92 0 158 -46l13 3q43 10 49 52q5 35 -22 87zM301 410q-38 0 -66.5 -18t-45.5 -54.5t-17 -87.5q0 -76 35.5 -118t93 -42t93 42t35.5 118
t-35.5 118t-92.5 42z" />
    <glyph glyph-name="Ohorntilde" unicode="&#x1ee0;" horiz-adv-x="777" 
d="M482 888l75 -15q0 -50 -23.5 -77.5t-63.5 -30.5q-25 -2 -60 9q-9 2 -21 7t-21 9t-17.5 7t-13.5 4q-13 2 -21.5 -7t-20.5 -36l-76 23q15 88 78 102q36 8 90 -14q45 -18 61 -14q19 4 34 33zM649 815l101 32q29 -57 29 -111q-2 -54 -32.5 -86t-80.5 -36q-15 -1 -32 1
q104 -101 104 -265q0 -158 -97 -258.5t-253 -100.5t-252.5 100.5t-96.5 258t96.5 258t252.5 100.5q74 0 136 -25q30 -12 65 -12q82 0 84 58q2 35 -24 86zM388.5 592q-91.5 0 -145.5 -64t-54 -178q0 -76 24.5 -131t69.5 -83t105 -28q92 0 146 64t54 178t-54 178t-145.5 64z
" />
    <glyph glyph-name="ohorntilde" unicode="&#x1ee1;" horiz-adv-x="600" 
d="M394 688l76 -15q-1 -50 -24.5 -77.5t-62.5 -30.5q-26 -2 -60 9q-14 4 -40 15t-33 12q-13 2 -22 -7t-21 -36l-76 23q16 88 78 102q37 8 91 -14q44 -18 61 -14q18 4 33 33zM499 606l93 29q29 -57 28 -111q-1 -50 -28 -81t-72 -38q46 -65 46 -155q0 -113 -72.5 -186.5
t-193 -73.5t-193 73.5t-72.5 187t72.5 186.5t193.5 73q92 0 158 -46l13 3q43 10 49 52q5 35 -22 87zM301 410q-38 0 -66.5 -18t-45.5 -54.5t-17 -87.5q0 -76 35.5 -118t93 -42t93 42t35.5 118t-35.5 118t-92.5 42z" />
    <glyph glyph-name="Ohorndotbelow" unicode="&#x1ee2;" horiz-adv-x="777" 
d="M650 815l100 32q29 -57 29 -111q-1 -36 -16 -63t-39.5 -41.5t-57.5 -17.5q-15 -1 -32 1q104 -101 104 -265q0 -158 -97 -258.5t-253 -100.5t-252.5 100.5t-96.5 258t96.5 258t252.5 100.5q74 0 136 -25q30 -12 65 -12q82 0 84 58q2 35 -23 86zM388 592q-60 0 -105 -28
t-69.5 -83t-24.5 -131q0 -114 54 -178t145.5 -64t145.5 64t54 178t-54 178t-146 64zM388.5 -72q28.5 0 47.5 -20t19 -47q0 -26 -19.5 -46.5t-47.5 -20.5t-47 20.5t-19 46.5q0 27 19 47t47.5 20z" />
    <glyph glyph-name="ohorndotbelow" unicode="&#x1ee3;" horiz-adv-x="600" 
d="M499 606l93 29q29 -57 28 -111q-1 -50 -28 -81t-72 -38q46 -65 46 -155q0 -113 -72.5 -186.5t-192.5 -73.5q-81 0 -141.5 34t-92.5 93t-32 133q0 114 72.5 187t193.5 73q92 0 158 -46l13 3q43 10 49 52q5 35 -22 87zM300.5 410q-57.5 0 -93 -42t-35.5 -118t35.5 -118
t93 -42t93 42t35.5 118t-35.5 118t-93 42zM300.5 -72q28.5 0 47.5 -20t19 -47q0 -26 -19 -46.5t-47.5 -20.5t-47.5 20.5t-19 46.5q0 27 19 47t47.5 20z" />
    <glyph glyph-name="Udotbelow" unicode="&#x1ee4;" horiz-adv-x="827" 
d="M783 613l-67 -6q-15 -1 -15 -16v-318q0 -84 -35 -148t-99.5 -99.5t-149.5 -35.5q-129 0 -206.5 78t-77.5 205v317q0 16 -16 17l-61 5q-8 1 -8 9v78h308v-86l-63 -5q-15 -2 -15 -17v-318q0 -82 40 -124.5t108 -42.5q45 0 79.5 18t54.5 56t20 93v318q0 15 -15 16l-66 6v86
h284v-86zM412 -72q28 0 47.5 -20t19.5 -47q0 -26 -19.5 -46.5t-48 -20.5t-47.5 20.5t-19 46.5q0 13 5 25t13.5 21.5t21 15t27.5 5.5z" />
    <glyph glyph-name="udotbelow" unicode="&#x1ee5;" horiz-adv-x="694" 
d="M33 499h203q8 0 8 -9v-317q0 -84 76 -84q58 0 130 46v261q0 16 -16 17l-64 5v81h205q9 0 9 -9v-388q0 -7 4.5 -12t11.5 -5l61 -3v-79l-202 -10q-4 -1 -6.5 2t-2.5 7v62q-44 -33 -96 -53.5t-97 -20.5q-66 0 -106 40.5t-40 117.5l-1 248q0 16 -15 17l-62 5v81zM347.5 -72
q28.5 0 48 -20t19.5 -47q0 -13 -5.5 -25t-14 -21.5t-21 -15t-27 -5.5t-27 5.5t-21 15t-13.5 21.5t-5 25q0 27 19 47t47.5 20z" />
    <glyph glyph-name="Uhookabove" unicode="&#x1ee6;" horiz-adv-x="827" 
d="M439 1032q54 0 91.5 -27t37.5 -73q0 -34 -16.5 -55t-57.5 -45q-32 -17 -42.5 -26.5t-11.5 -25.5l-2 -21h-74l-2 35q-2 31 13.5 50t60.5 43q28 15 35.5 22t7.5 22q0 16 -12.5 25t-34.5 8q-25 0 -64 -14l-37 50q45 32 108 32zM783 613l-67 -6q-15 -1 -15 -16v-318
q0 -127 -77.5 -205t-206.5 -78t-206.5 78t-77.5 205v317q0 16 -16 17l-61 5q-8 1 -8 9v78h308v-86l-63 -5q-15 -2 -15 -17v-318q0 -82 40 -124.5t108 -42.5q69 0 111.5 43t42.5 124v318q0 15 -15 16l-66 6v86h284v-86z" />
    <glyph glyph-name="uhookabove" unicode="&#x1ee7;" horiz-adv-x="694" 
d="M364 826q35 0 64 -11.5t47 -34.5t18 -54q0 -23 -7.5 -40t-23 -30.5t-43.5 -29.5q-32 -17 -42.5 -26.5t-11.5 -25.5l-2 -21h-74l-2 35q-2 31 14 50t60 42q28 15 35.5 22.5t7.5 22.5q0 16 -12.5 25t-34.5 8q-25 0 -64 -14l-37 50q45 32 108 32zM33 499h203q8 0 8 -9v-317
q0 -84 76 -84q58 0 130 46v261q0 16 -16 17l-64 5v81h205q9 0 9 -9v-388q0 -5 2 -8.5t5.5 -6t8.5 -2.5l61 -3v-79l-202 -10q-4 -1 -6.5 2t-2.5 7v62q-44 -33 -96 -53.5t-97 -20.5q-43 0 -75.5 17t-51.5 53t-19 88v248q0 16 -16 17l-62 5v81z" />
    <glyph glyph-name="Uhornacute" unicode="&#x1ee8;" horiz-adv-x="828" 
d="M468 757h-118l108 169h157zM738 818l74 26q32 -25 46 -59q16 -38 3 -78t-50 -61q-21 -12 -47 -14l-50 -6q-13 -3 -13 -16v-336q0 -127 -77.5 -205t-206.5 -78t-206.5 78t-77.5 205v318q0 15 -16 17l-61 5q-8 0 -8 8v78h308v-86l-63 -5q-15 -1 -15 -17v-318q0 -82 40 -124
t108 -42q69 0 111.5 42.5t42.5 123.5v318q0 16 -15 17l-66 5v86h234q10 2 19 7q18 11 22.5 29.5t-5.5 39.5q-9 23 -31 42z" />
    <glyph glyph-name="uhornacute" unicode="&#x1ee9;" horiz-adv-x="695" 
d="M402 557h-118l107 169h158zM573 630l76 26q42 -32 49 -86q4 -39 -13.5 -72.5t-55.5 -48.5q-21 -8 -45 -9v-338q0 -5 2 -8.5t5.5 -6t8.5 -2.5l61 -3v-79l-202 -10q-2 0 -4.5 1t-3.5 3t-1 5v62q-44 -33 -96 -53.5t-97 -20.5q-66 0 -106 40.5t-40 117.5l-1 248q0 16 -15 17
l-62 5v81h203q8 0 8 -9v-317q0 -84 76 -84q58 0 130 46v261q0 16 -16 17l-64 5v81h167q21 1 38 10q42 20 32 64q-7 29 -34 57z" />
    <glyph glyph-name="Uhorngrave" unicode="&#x1eea;" horiz-adv-x="828" 
d="M476 757h-118l-147 169h157zM738 818l74 26q32 -24 46 -59q16 -38 3 -78t-50 -61q-21 -12 -47 -14l-50 -6q-13 -3 -13 -16v-336q0 -127 -77.5 -205t-206.5 -78q-85 0 -150 35.5t-99.5 100t-34.5 147.5v318q0 15 -16 17l-61 5q-8 0 -8 8v78h308v-86l-63 -5q-15 -1 -15 -17
v-318q0 -82 40 -124t108 -42q45 0 79.5 18t54.5 56t20 92v318q0 16 -15 17l-66 5v86h234q10 2 19 7q18 11 22.5 29.5t-5.5 39.5q-9 23 -31 42z" />
    <glyph glyph-name="uhorngrave" unicode="&#x1eeb;" horiz-adv-x="695" 
d="M409 557h-118l-147 169h158zM573 630l76 26q42 -32 49 -86q4 -39 -13.5 -72.5t-55.5 -48.5q-21 -8 -45 -9v-338q0 -7 4.5 -12t11.5 -5l61 -3v-79l-202 -10q-4 -1 -6.5 2t-2.5 7v62q-44 -33 -96 -53.5t-97 -20.5q-66 0 -106 40.5t-40 117.5l-1 248q0 16 -15 17l-62 5v81
h203q8 0 8 -9v-317q0 -84 76 -84q58 0 130 46v261q0 16 -16 17l-64 5v81h167q21 1 38 10q42 20 32 64q-7 29 -34 57z" />
    <glyph glyph-name="Uhornhookabove" unicode="&#x1eec;" horiz-adv-x="828" 
d="M439 1032q54 0 91.5 -27t37.5 -73q0 -34 -16.5 -55t-57.5 -45q-32 -17 -42.5 -26.5t-11.5 -25.5l-2 -21h-74l-2 35q-2 31 13.5 50t60.5 43q28 15 35.5 22t7.5 22q0 16 -12.5 25t-34.5 8q-25 0 -64 -14l-37 50q45 32 108 32zM738 818l74 26q32 -25 46 -59q16 -38 3 -78
t-50 -61q-21 -12 -47 -14l-50 -6q-13 -3 -13 -16v-336q0 -127 -77.5 -205t-206.5 -78t-206.5 78t-77.5 205v318q0 15 -16 17l-61 5q-8 0 -8 8v78h308v-86l-63 -5q-15 -1 -15 -17v-318q0 -55 19 -93t51.5 -55.5t77.5 -17.5q69 0 111.5 42.5t42.5 123.5v318q0 16 -15 17l-66 5
v86h234q10 2 19 7q18 11 22.5 29.5t-5.5 39.5q-9 23 -31 42z" />
    <glyph glyph-name="uhornhookabove" unicode="&#x1eed;" horiz-adv-x="695" 
d="M364 826q35 0 64 -11.5t47 -34.5t18 -54q0 -23 -7.5 -40t-23 -30.5t-43.5 -29.5q-32 -17 -42.5 -26.5t-11.5 -25.5l-2 -21h-74l-2 35q-2 31 14 50t60 42q28 15 35.5 22.5t7.5 22.5q0 16 -12.5 25t-34.5 8q-25 0 -64 -14l-37 50q45 32 108 32zM573 630l76 26
q42 -32 49 -86q4 -39 -13.5 -72.5t-55.5 -48.5q-21 -8 -45 -9v-338q0 -5 2 -8.5t5.5 -6t8.5 -2.5l61 -3v-79l-202 -10q-4 -1 -6.5 2t-2.5 7v62q-44 -33 -96 -53.5t-97 -20.5q-66 0 -106 40.5t-40 117.5v248q0 16 -16 17l-62 5v81h203q8 0 8 -9v-317q0 -84 76 -84
q58 0 130 46v261q0 16 -16 17l-64 5v81h167q21 1 38 10q42 20 32 64q-7 29 -34 57z" />
    <glyph glyph-name="Uhorntilde" unicode="&#x1eee;" horiz-adv-x="828" 
d="M507 888l76 -15q-1 -34 -12 -58t-30.5 -36t-45.5 -14q-25 -2 -59 9q-12 3 -28 9.5t-28 11.5t-18 6q-13 2 -21.5 -7t-20.5 -36l-76 23q15 88 78 102q37 8 91 -14q44 -18 60 -14q19 4 34 33zM738 818l74 26q32 -24 46 -59q16 -38 3 -78t-50 -61q-21 -12 -47 -14l-50 -6
q-13 -3 -13 -16v-336q0 -127 -77.5 -205t-206.5 -78t-206.5 78t-77.5 205v318q0 15 -16 17l-61 5q-8 0 -8 8v78h308v-86l-63 -5q-15 -1 -15 -17v-318q0 -82 40 -124t108 -42q45 0 79.5 18t54.5 56t20 92v318q0 16 -15 17l-66 5v86h234q10 2 19 7q18 11 22.5 29.5t-5.5 39.5
q-9 23 -31 42z" />
    <glyph glyph-name="uhorntilde" unicode="&#x1eef;" horiz-adv-x="695" 
d="M440 688l76 -15q0 -50 -23.5 -77.5t-63.5 -30.5q-25 -2 -60 9q-12 3 -27.5 9.5t-27.5 11.5t-18 6q-13 2 -21.5 -7t-20.5 -36l-76 23q15 88 78 102q36 8 90 -14q45 -18 61 -14q19 4 33 33zM573 630l76 26q42 -32 49 -86q4 -39 -13.5 -72.5t-55.5 -48.5q-21 -8 -45 -9v-338
q0 -7 4.5 -12t11.5 -5l61 -3v-79l-202 -10q-4 -1 -6.5 2t-2.5 7v62q-44 -33 -96 -53.5t-97 -20.5q-66 0 -106 40.5t-40 117.5l-1 248q0 16 -15 17l-62 5v81h203q8 0 8 -9v-317q0 -84 76 -84q58 0 130 46v261q0 16 -16 17l-64 5v81h167q21 1 38 10q42 20 32 64q-7 29 -34 57z
" />
    <glyph glyph-name="Uhorndotbelow" unicode="&#x1ef0;" horiz-adv-x="828" 
d="M738 818l74 26q32 -24 46 -59q16 -38 3 -78t-50 -61q-21 -12 -47 -14l-50 -6q-13 -3 -13 -16v-336q0 -127 -77.5 -205t-206.5 -78t-206.5 78t-77.5 205v318q0 15 -16 17l-61 5q-8 0 -8 8v78h308v-86l-63 -5q-15 -1 -15 -17v-318q0 -82 40 -124t108 -42q45 0 79.5 18
t54.5 56t20 92v318q0 16 -15 17l-66 5v86h234q10 2 19 7q18 11 22.5 29.5t-5.5 39.5q-9 23 -31 42zM411.5 -72q28.5 0 48 -20t19.5 -47q0 -26 -19.5 -46.5t-48 -20.5t-47.5 20.5t-19 46.5q0 27 19 47t47.5 20z" />
    <glyph glyph-name="uhorndotbelow" unicode="&#x1ef1;" horiz-adv-x="695" 
d="M573 630l75 26q43 -32 50 -86q4 -39 -13.5 -72.5t-55.5 -48.5q-21 -8 -45 -9v-338q0 -7 4.5 -12t11.5 -5l61 -3v-79l-202 -10q-2 0 -4.5 1t-3.5 3t-1 5v62q-44 -33 -96 -53.5t-97 -20.5q-66 0 -106 40.5t-40 117.5l-1 248q0 16 -15 17l-62 5v81h203q8 0 8 -9v-317
q0 -84 76 -84q58 0 130 46v261q0 16 -16 17l-64 5v81h167q21 1 38 10q42 20 32 64q-7 29 -34 57zM347.5 -72q28.5 0 48 -20t19.5 -47q0 -13 -5.5 -25t-14 -21.5t-21 -15t-27 -5.5t-27 5.5t-21 15t-13.5 21.5t-5 25q0 27 19 47t47.5 20z" />
    <glyph glyph-name="Ygrave" unicode="&#x1ef2;" horiz-adv-x="708" 
d="M416 757h-118l-147 169h157zM688 614l-48 -4l-206 -367v-135q0 -16 15 -17l64 -5v-86h-302v78q0 8 8 8l55 5q16 1 16 17v128l-208 367q-4 6 -12 7l-43 4q-8 0 -8 8v78h166l188 -336l119 216q6 11 1 20t-17 10l-47 4q-8 1 -8 9v77h267v-86z" />
    <glyph glyph-name="ygrave" unicode="&#x1ef3;" horiz-adv-x="580" 
d="M353 557h-118l-147 169h158zM567 419l-48 -4l-248 -621q-2 -5 -7 -5h-209v80l129 11q10 2 13 10l43 109h-22l-155 407q-3 9 -13 10l-30 3q-7 1 -7 9v72h158l124 -366l101 254q4 10 -1 17.5t-16 8.5l-51 4q-7 1 -7 9v73h246v-81z" />
    <glyph glyph-name="Ydotbelow" unicode="&#x1ef4;" horiz-adv-x="708" 
d="M688 614l-48 -4l-206 -367v-135q0 -16 15 -17l64 -5v-86h-302v78q0 8 8 8l55 5q16 1 16 17v128l-208 367q-4 6 -12 7l-43 4q-8 0 -8 8v78h166l188 -336l119 216q6 11 1 20t-17 10l-47 4q-8 1 -8 9v77h267v-86zM349.5 -72q28.5 0 47.5 -20t19 -47q0 -26 -19 -46.5
t-47.5 -20.5t-47.5 20.5t-19 46.5q0 27 19 47t47.5 20z" />
    <glyph glyph-name="ydotbelow" unicode="&#x1ef5;" horiz-adv-x="580" 
d="M567 419l-48 -4l-248 -621q-2 -5 -7 -5h-209v80l129 11q10 2 13 10l43 109h-22l-155 407q-3 9 -13 10l-30 3q-7 1 -7 9v72h158l124 -366l101 254q4 10 -1 17.5t-16 8.5l-51 4q-7 1 -7 9v73h246v-81zM396.5 -72q28.5 0 47.5 -20t19 -47q0 -26 -19 -46.5t-47.5 -20.5
t-47.5 20.5t-19 46.5q0 27 19 47t47.5 20z" />
    <glyph glyph-name="Yhookabove" unicode="&#x1ef6;" horiz-adv-x="708" 
d="M404 1032q55 0 92 -27t37 -73q0 -34 -16 -55t-58 -45q-32 -17 -42.5 -26.5t-11.5 -25.5l-2 -21h-73l-3 35q-2 31 14 50t60 43q28 15 35.5 22t7.5 22q0 11 -6 18.5t-16.5 11.5t-24.5 3q-25 0 -64 -14l-37 50q45 32 108 32zM688 614l-48 -4l-206 -367v-135q0 -16 15 -17
l64 -5v-86h-302v78q0 8 8 8l55 5q16 1 16 17v128l-208 367q-4 6 -12 7l-43 4q-8 0 -8 8v78h166l188 -336l119 216q6 11 1 20t-17 10l-47 4q-8 1 -8 9v77h267v-86z" />
    <glyph glyph-name="yhookabove" unicode="&#x1ef7;" horiz-adv-x="580" 
d="M317 826q35 0 64 -11.5t47 -34.5t18 -54q0 -23 -7.5 -40t-23 -30.5t-43.5 -29.5q-33 -17 -43 -26.5t-11 -25.5l-2 -21h-74l-3 35q-1 16 2.5 28t12.5 22.5t23 20t37 21.5q28 15 35.5 22.5t7.5 22.5q0 16 -13 25t-34 8q-25 0 -64 -14l-37 50q45 32 108 32zM567 419l-48 -4
l-248 -621q-2 -5 -7 -5h-209v80l129 11q10 2 13 10l43 109h-22l-155 407q-3 9 -13 10l-30 3q-7 1 -7 9v72h158l124 -366l101 254q4 10 -1 17.5t-16 8.5l-51 4q-7 1 -7 9v73h246v-81z" />
    <glyph glyph-name="Ytilde" unicode="&#x1ef8;" horiz-adv-x="708" 
d="M447 888l76 -15q-1 -50 -24.5 -77.5t-63.5 -30.5q-25 -2 -59 9q-12 3 -28 9.5t-27.5 11.5t-18.5 6q-13 2 -21.5 -7t-20.5 -36l-76 23q15 88 78 102q37 8 91 -14q44 -18 60 -14q19 4 34 33zM688 614l-48 -4l-206 -367v-135q0 -16 15 -17l64 -5v-86h-302v78q0 8 8 8l55 5
q16 1 16 17v128l-208 367q-4 6 -12 7l-43 4q-8 0 -8 8v78h166l188 -336l119 216q6 11 1 20t-17 10l-47 4q-8 1 -8 8v78h267v-86z" />
    <glyph glyph-name="ytilde" unicode="&#x1ef9;" horiz-adv-x="580" 
d="M384 688l76 -15q0 -50 -23.5 -77.5t-63.5 -30.5q-25 -2 -60 9q-14 4 -40 15t-33 12q-13 2 -21.5 -7t-20.5 -36l-76 23q15 88 78 102q36 8 90 -14q45 -18 61 -14q19 4 33 33zM567 419l-48 -4l-248 -621q-2 -5 -7 -5h-209v80l129 11q10 2 13 10l43 109h-22l-155 407
q-3 9 -13 10l-30 3q-7 1 -7 9v72h158l124 -366l101 254q4 10 -1 17.5t-16 8.5l-51 4q-7 1 -7 9v73h246v-81z" />
    <glyph glyph-name="endash" unicode="&#x2013;" horiz-adv-x="507" 
d="M471 191h-435v116h435v-116z" />
    <glyph glyph-name="emdash" unicode="&#x2014;" horiz-adv-x="696" 
d="M660 191h-624v116h624v-116z" />
    <glyph glyph-name="quoteleft" unicode="&#x2018;" horiz-adv-x="210" 
d="M138 741l48 -30q-33 -53 -44 -99q-4 -17 -2 -31l4 -2q19 -8 30.5 -26t11.5 -39q0 -29 -21 -51t-51 -22q-49 0 -68 41t-3 99q22 91 95 160z" />
    <glyph glyph-name="quoteright" unicode="&#x2019;" horiz-adv-x="210" 
d="M96 741q48 0 67.5 -41t3.5 -98q-22 -91 -95 -161l-48 30q34 55 44 101q3 15 1 26v3q-20 8 -32.5 27t-12.5 40q0 29 20.5 51t51.5 22z" />
    <glyph glyph-name="quotesinglbase" unicode="&#x201a;" horiz-adv-x="210" 
d="M96 137q48 0 67.5 -40.5t3.5 -98.5q-22 -91 -95 -160l-48 29q37 60 46 107q2 14 0 23l-2 1q-20 8 -32 26.5t-12 39.5q0 29 21 51t51 22z" />
    <glyph glyph-name="quotedblleft" unicode="&#x201c;" horiz-adv-x="403" 
d="M138 741l48 -30q-32 -51 -43 -97q-5 -19 -3 -33l3 -1q19 -9 31 -27t12 -39q0 -18 -9 -35t-26 -27.5t-37 -10.5q-49 0 -68 41t-3 99q22 90 95 160zM331 741l48 -30q-35 -58 -45 -105q-3 -15 -1 -25l4 -1q13 -6 22.5 -16t15 -23t5.5 -27q0 -18 -9.5 -35t-26.5 -27.5
t-37 -10.5q-48 0 -67.5 41t-3.5 99q22 90 95 160z" />
    <glyph glyph-name="quotedblright" unicode="&#x201d;" horiz-adv-x="403" 
d="M96 741q48 0 67.5 -41t3.5 -98q-22 -91 -95 -161l-48 30q30 49 41 91q5 19 4 34v5q-20 8 -32.5 27t-12.5 40q0 19 9 35.5t26 27t37 10.5zM290 741q48 0 67 -41t4 -98q-23 -91 -96 -161l-48 30q32 51 43 95q4 17 3 31v4q-21 8 -33.5 26.5t-12.5 40.5q0 29 21 51t52 22z
" />
    <glyph glyph-name="quotedblbase" unicode="&#x201e;" horiz-adv-x="403" 
d="M96 137q48 0 67.5 -40.5t3.5 -98.5q-22 -91 -95 -160l-48 29q39 62 47 113q1 10 -1 17l-2 1q-20 8 -32 26.5t-12 39.5q0 29 21 51t51 22zM290 137q48 0 67 -40.5t4 -98.5q-23 -91 -96 -160l-47 29q31 53 42 96q5 18 3 32v2q-21 8 -33.5 27t-12.5 40q0 29 21 51t52 22z
" />
    <glyph glyph-name="dagger" unicode="&#x2020;" horiz-adv-x="539" 
d="M335 500h168v-116h-169l8 -482h-145l8 482h-169v116h168l-7 208h145z" />
    <glyph glyph-name="daggerdbl" unicode="&#x2021;" horiz-adv-x="539" 
d="M335 500h168v-116h-169l1 -157h168v-117h-165l4 -208h-145l4 208h-165v117h168v157h-168v116h168l-7 208h145z" />
    <glyph glyph-name="bullet" unicode="&#x2022;" horiz-adv-x="368" 
d="M184 469q40 0 74 -20t54 -54t20 -74q0 -30 -12 -57.5t-31.5 -47.5t-47 -31.5t-57.5 -11.5q-61 0 -104.5 43.5t-43.5 104.5t43.5 104.5t104.5 43.5z" />
    <glyph glyph-name="ellipsis" unicode="&#x2026;" horiz-adv-x="638" 
d="M108.5 137q30.5 0 51.5 -22t21 -51t-21 -51t-51.5 -22t-51.5 22t-21 51t21 51t51.5 22zM319 137q20 0 37 -10.5t26 -27t9 -35.5q0 -29 -21 -51t-51.5 -22t-51.5 22t-21 51t21 51t52 22zM529.5 137q30.5 0 51.5 -22t21 -51t-21 -51t-51.5 -22t-51.5 22t-21 51t21 51
t51.5 22z" />
    <glyph glyph-name="perthousand" unicode="&#x2030;" horiz-adv-x="1335" 
d="M345 -17h-122l363 734h122zM210 707q79 0 126.5 -58.5t47.5 -148.5t-47 -148t-127 -58t-127 58t-47 148q0 44 12 82t34 65.5t55 43.5t73 16zM210 628q-29 0 -48.5 -31t-19.5 -97q0 -44 10 -74t24.5 -42t33.5 -12q29 0 48 31.5t19 97t-19 96.5t-48 31zM724.5 406
q79.5 0 127 -58t47.5 -148t-47.5 -148.5t-127 -58.5t-127 58.5t-47.5 148.5t47.5 148t127 58zM1125 406q53 0 93 -27t60.5 -73.5t20.5 -105.5q0 -90 -47 -148.5t-127 -58.5t-127 58.5t-47 148.5t47 148t127 58zM725 328q-30 0 -49 -31.5t-19 -96.5q0 -45 10 -74.5
t24.5 -41.5t33.5 -12q29 0 48 31t19 97q0 44 -10 74t-24.5 42t-32.5 12zM1125 328q-29 0 -48 -31.5t-19 -97t19 -96.5t48 -31t48 31t19 96.5t-19 97t-48 31.5z" />
    <glyph glyph-name="guilsinglleft" unicode="&#x2039;" horiz-adv-x="328" 
d="M178 250l120 -177h-137l-125 177l125 177h137z" />
    <glyph glyph-name="guilsinglright" unicode="&#x203a;" horiz-adv-x="328" 
d="M292 250l-125 -177h-137l120 177l-120 177h137z" />
    <glyph glyph-name="fraction" unicode="&#x2044;" horiz-adv-x="535" 
d="M147 -18h-122l363 734h122z" />
    <glyph glyph-name="zerosuperior" unicode="&#x2070;" horiz-adv-x="397" 
d="M198 746q53 0 93.5 -27t61 -73.5t20.5 -105t-20.5 -105t-61 -73.5t-93.5 -27q-79 0 -126.5 58t-47.5 147.5t47.5 147.5t126.5 58zM198.5 668q-29.5 0 -48.5 -31t-19 -97q0 -44 9.5 -73.5t24 -41.5t33.5 -12q30 0 49 31t19 96.5t-19 96.5t-48.5 31z" />
    <glyph glyph-name="foursuperior" unicode="&#x2074;" horiz-adv-x="332" 
d="M114 505h65l14 128q0 4 5 4h63v-132h48v-65h-48v-35q0 -6 6 -7l39 -3v-55h-200v51q0 4 5 5l48 4q6 0 6 6v34h-156v47l101 253h97z" />
    <glyph glyph-name="fivesuperior" unicode="&#x2075;" horiz-adv-x="311" 
d="M274 668h-132l-7 -79q12 3 25 3q40 -1 69.5 -16.5t46 -44t16.5 -67.5q0 -62 -45 -96t-107 -34q-56 0 -118 31q-3 2 -3 5v92h71l3 -37q0 -4 4 -6q17 -9 36 -9q23 0 37.5 13.5t14.5 41.5q0 26 -13.5 39.5t-36.5 13.5q-20 0 -37 -14l-67 11l20 225h223v-72z" />
    <glyph glyph-name="sixsuperior" unicode="&#x2076;" horiz-adv-x="335" 
d="M194 746q59 0 107 -33l-26 -67q-47 28 -73 28q-23 0 -39.5 -19t-22.5 -58l-1 -4q23 18 56 16q58 -2 93 -42t33 -99q-2 -58 -41 -96.5t-100 -36.5q-75 2 -117 61.5t-39 148.5q3 95 52 148t118 53zM180 536q-44 2 -51 -50q5 -36 20 -56t35 -21q18 -1 30.5 15.5t13.5 46.5
t-12.5 47t-35.5 18z" />
    <glyph glyph-name="sevensuperior" unicode="&#x2077;" horiz-adv-x="317" 
d="M310 740v-62q-43 -52 -80 -146q-38 -95 -49 -192h-106q11 104 60 216q23 50 51 96q4 6 1 11t-10 5h-78q-10 0 -10 -9l-3 -34h-67v110q0 5 5 5h286z" />
    <glyph glyph-name="eightsuperior" unicode="&#x2078;" horiz-adv-x="349" 
d="M175.5 746q63.5 0 104.5 -32.5t41 -81.5q0 -58 -53 -89q59 -31 59 -93q0 -49 -42.5 -82t-109 -33t-109 33t-42.5 82q0 62 59 93q-53 31 -53 89q0 49 41 81.5t104.5 32.5zM175.5 674q-41.5 0 -41.5 -46q0 -45 41.5 -45t41.5 45q0 46 -41.5 46zM175.5 506
q-47.5 0 -47.5 -48t47.5 -48t47.5 48t-47.5 48z" />
    <glyph glyph-name="ninesuperior" unicode="&#x2079;" horiz-adv-x="337" 
d="M159 746q75 -2 116.5 -61t38.5 -149q-3 -94 -52 -147t-118 -54q-58 -1 -106 33l26 68q46 -29 72 -29q24 0 40.5 19t22.5 58l1 5q-24 -18 -56 -17q-39 1 -68.5 20.5t-44.5 51t-14 69.5q2 59 41.5 97t100.5 36zM154 672q-18 1 -30.5 -15t-13.5 -46.5t12.5 -47.5t36.5 -18
q43 -1 51 50q-4 24 -12 41.5t-19.5 26.5t-24.5 9z" />
    <glyph glyph-name="zeroinferior" unicode="&#x2080;" horiz-adv-x="397" 
d="M198.5 255q79.5 0 127 -58t47.5 -147.5t-47.5 -147.5t-127 -58t-127 58t-47.5 147.5t47.5 147.5t127 58zM198.5 177q-29.5 0 -48.5 -31t-19 -96q0 -66 19 -97t48 -31q19 0 34 12t24.5 41.5t9.5 74.5q0 65 -19 96t-48.5 31z" />
    <glyph glyph-name="oneinferior" unicode="&#x2081;" horiz-adv-x="273" 
d="M201 250v-331q0 -6 6 -6l39 -4v-59h-214v55q0 5 5 5l52 4q6 0 6 7v213q0 4 -3.5 6t-6.5 -1l-40 -27l-28 68l101 70h83z" />
    <glyph glyph-name="twoinferior" unicode="&#x2082;" horiz-adv-x="322" 
d="M162 256q34 1 63.5 -10.5t45.5 -32.5q17 -22 19 -51.5t-13 -68.5t-47 -83q-26 -34 -78 -88h82q6 0 7 6l3 35h57v-113h-283v52q0 3 2 3q80 77 126 147q52 75 39 113q-8 18 -31 18q-32 1 -41 -32l-94 10q8 44 49.5 69.5t93.5 25.5z" />
    <glyph glyph-name="threeinferior" unicode="&#x2083;" horiz-adv-x="319" 
d="M149 255q56 1 98 -28.5t42 -79.5q0 -58 -60 -88q66 -29 66 -95q0 -57 -46.5 -88.5t-106.5 -31.5q-70 0 -125 35l25 58q45 -17 86 -17q29 0 44.5 11t15.5 39q0 49 -50 49h-52v72h53q47 0 47 46q0 23 -13.5 35t-34.5 12t-34 -8q-4 -1 -5 -7l-3 -43h-63v90q0 3 3 5
q20 15 51.5 24.5t61.5 9.5z" />
    <glyph glyph-name="fourinferior" unicode="&#x2084;" horiz-adv-x="340" 
d="M123 15h65l14 128q0 4 4 4h64v-132h48v-65h-48v-35q0 -6 6 -6l39 -4v-55h-200v51q0 5 5 5l48 3q6 0 6 7v34h-157v47l102 253h97z" />
    <glyph glyph-name="fiveinferior" unicode="&#x2085;" horiz-adv-x="314" 
d="M277 178h-132l-7 -80q12 4 25 4q61 -2 96.5 -36t35.5 -93q0 -62 -45 -95.5t-107 -33.5q-56 0 -118 30q-3 2 -3 6v91h71l3 -36q0 -4 4 -7q15 -8 36 -8q23 0 37.5 13.5t14.5 40.5q0 26 -13.5 40t-36.5 14q-20 0 -37 -15l-67 11l20 226h223v-72z" />
    <glyph glyph-name="sixinferior" unicode="&#x2086;" horiz-adv-x="335" 
d="M194 255q59 1 107 -33l-26 -67q-47 29 -73 28q-23 1 -39.5 -18.5t-22.5 -58.5l-1 -4q23 18 56 17q58 -3 93 -42.5t33 -98.5t-41 -97t-100 -36q-75 1 -117 60.5t-39 149.5q3 94 52 147t118 53zM180 45q-44 2 -51 -49q5 -36 20 -56.5t35 -21.5q18 0 30.5 16t13.5 46
t-12.5 47.5t-35.5 17.5z" />
    <glyph glyph-name="seveninferior" unicode="&#x2087;" horiz-adv-x="317" 
d="M310 250v-62q-43 -52 -80.5 -146.5t-48.5 -191.5h-106q11 105 60 216q23 49 51 95q4 6 1 11.5t-10 5.5h-78q-10 0 -10 -9l-3 -35h-67v111q0 5 5 5h286z" />
    <glyph glyph-name="eightinferior" unicode="&#x2088;" horiz-adv-x="351" 
d="M175.5 255q63.5 0 104.5 -32.5t41 -80.5q0 -59 -53 -90q59 -30 59 -93q0 -49 -42.5 -82t-109 -33t-109 33t-42.5 82q0 63 59 93q-53 31 -53 90q0 48 41 80.5t104.5 32.5zM175.5 184q-41.5 0 -41.5 -46t41.5 -46t41.5 46t-41.5 46zM175.5 16q-47.5 0 -47.5 -48
q0 -49 47.5 -49t47.5 49q0 48 -47.5 48z" />
    </font>
</defs>
</svg>
