<?xml version="1.0" standalone="no"?>
<!DOCTYPE svg PUBLIC "-//W3C//DTD SVG 1.1//EN" "http://www.w3.org/Graphics/SVG/1.1/DTD/svg11.dtd" >
<svg xmlns="http://www.w3.org/2000/svg" xmlns:xlink="http://www.w3.org/1999/xlink" version="1.1">
<metadata>
Created by FontForge 20170731 at Wed Feb 19 12:07:27 2014
 By ,,,
Copyright (c) 2013 by Jonathan Hill. All rights reserved.
</metadata>
<defs>
<font id="Modum-LightItalic" horiz-adv-x="600" vert-adv-y="1000" >
  <font-face 
    font-family="Modum Light Italic"
    font-weight="300"
    font-style="italic"
    font-stretch="normal"
    units-per-em="1000"
    panose-1="0 0 4 0 0 0 0 0 0 0"
    ascent="750"
    descent="-250"
    x-height="500"
    cap-height="700"
    bbox="-26 -225 1482 1099"
    underline-thickness="50"
    underline-position="-200"
    unicode-range="U+0020-FE6B"
  />
<missing-glyph horiz-adv-x="500" 
d="M0 0v700h500v-700h-500zM250 395l170 255h-340zM280 350l170 -255v510zM80 50h340l-170 255zM50 605v-510l170 255z" />
    <glyph glyph-name="fi" unicode="fi" horiz-adv-x="756" 
d="M401 750q69 -1 123 -39l-17 -25q-47 32 -102 32q-54 0 -95 -32.5t-50 -93.5l-13 -92h418q7 0 6 -7l-53 -379q-12 -88 66 -89h7l-3 -25h-13q-55 0 -81 30t-18 85l48 340q1 10 -8 10l-179 10l-195 -10l-62 -446q-28 -197 -127 -199h-7l3 25q28 0 53 47t36 130l63 443l-61 4
q-7 0 -6 7l3 24h68l14 97q5 38 22.5 67.5t42.5 48t55 28t62 9.5z" />
    <glyph glyph-name="fl" unicode="fl" horiz-adv-x="746" 
d="M472 737l228 13q7 0 6 -8l-88 -628q-12 -88 66 -89h7l-3 -25h-13q-56 0 -81.5 30t-17.5 85l83 589q1 10 -9 10h-172l-15 -6q-29 11 -58 10q-54 0 -95 -32.5t-50 -93.5l-13 -92h150l-4 -28l-151 -7l-62 -446q-28 -197 -127 -199h-7l3 25q28 0 53 47t36 130l63 443l-61 4
q-7 0 -6 7l3 24h68l14 97q10 74 62 113.5t120 39.5q36 0 71 -13z" />
    <glyph glyph-name="f_f" unicode="ff" horiz-adv-x="832" 
d="M817 750q68 -1 122 -39l-17 -25q-47 32 -102 32q-54 0 -94.5 -32.5t-49.5 -92.5l-13 -93h150l-4 -28l-151 -7l-62 -446q-28 -197 -127 -199h-7l3 25q28 0 52.5 47t36.5 130l62 443l-178 10l-196 -10l-62 -446q-28 -197 -127 -199h-7l3 25q28 0 53 47t36 130l63 443l-61 4
q-7 0 -6 7l3 24h68l14 97q10 74 62 113.5t120 39.5q69 -1 123 -39l-17 -25q-47 32 -102 32q-54 0 -95 -32.5t-50 -93.5l-13 -92h374l14 97q10 74 62 113.5t120 39.5z" />
    <glyph glyph-name="f_f_i" unicode="ffi" horiz-adv-x="1171" 
d="M817 750q68 -1 122 -39l-17 -25q-47 32 -102 32q-54 0 -94.5 -32.5t-49.5 -93.5l-13 -92h418q7 0 6 -7l-53 -379q-4 -29 2 -48.5t22 -30t42 -10.5h7l-4 -25h-12q-56 0 -81.5 30t-17.5 85l48 340q1 10 -9 10l-178 10l-195 -10l-62 -446q-28 -197 -127 -199h-7l3 25
q28 0 52.5 47t36.5 130l62 443l-178 10l-196 -10l-62 -446q-28 -197 -127 -199h-7l3 25q28 0 53 47t36 130l63 443l-61 4q-7 0 -6 7l4 24h67l14 97q7 50 35 85.5t65.5 51.5t81.5 16q69 -1 123 -39l-17 -25q-47 32 -102 32q-54 0 -95 -32.5t-50 -93.5l-13 -92h374l14 97
q10 74 62 113.5t120 39.5z" />
    <glyph glyph-name="f_f_l" unicode="ffl" horiz-adv-x="1162" 
d="M888 737l228 13q7 0 6 -8l-88 -628q-13 -88 66 -89h7l-4 -25h-12q-56 0 -81.5 30t-17.5 85l83 589q1 10 -9 10h-172l-15 -6q-29 11 -59 10q-34 0 -64 -13t-52 -42.5t-28 -70.5l-13 -92h150l-4 -28l-151 -7l-62 -446q-28 -197 -127 -199h-7l3 25q28 0 52.5 47t36.5 130
l62 443l-178 10l-196 -10l-62 -446q-28 -197 -127 -199h-7l3 25q28 0 53 47t36 130l63 443l-61 4q-7 0 -6 7l3 24h68l14 97q10 74 62 113.5t120 39.5q69 -1 123 -39l-17 -25q-47 32 -102 32q-54 0 -95 -32.5t-50 -93.5l-13 -92h374l14 97q7 50 35 85.5t65.5 51.5t81.5 16
q36 0 71 -13z" />
    <glyph glyph-name=".notdef" horiz-adv-x="500" 
d="M0 0v700h500v-700h-500zM250 395l170 255h-340zM280 350l170 -255v510zM80 50h340l-170 255zM50 605v-510l170 255z" />
    <glyph glyph-name=".null" horiz-adv-x="0" vert-adv-y="0" 
 />
    <glyph glyph-name="nonmarkingreturn" horiz-adv-x="333" 
 />
    <glyph glyph-name="space" unicode=" " horiz-adv-x="300" 
 />
    <glyph glyph-name="exclam" unicode="!" horiz-adv-x="155" 
d="M126 211h-38l64 489h47zM83 54q13 0 21 -10t6 -23q-2 -11 -11 -19t-21 -8q-13 0 -21 10t-6 23q1 7 5.5 13t11.5 10t15 4z" />
    <glyph glyph-name="quotedbl" unicode="&#x22;" horiz-adv-x="256" 
d="M157 506h-35l26 212h43zM276 506h-35l26 212h43z" />
    <glyph glyph-name="numbersign" unicode="#" horiz-adv-x="660" 
d="M553 508h131l-9 -35h-132l-61 -217h132l-10 -34h-131l-62 -222h-45l62 222h-177l-62 -222h-45l62 222h-128l10 34h128l61 217h-128l9 35h128l48 172h45l-48 -172h177l48 172h45zM322 473l-61 -217h176l61 217h-176z" />
    <glyph glyph-name="dollar" unicode="$" horiz-adv-x="558" 
d="M424 774l-13 -83q85 -1 138 -37q3 -2 2 -5l-16 -117h-29l6 94q0 5 -4 8q-43 21 -105 21q-85 0 -140 -34.5t-63 -89.5q-1 -17 -2 -29.5t4.5 -25t13.5 -23t26 -24t41 -27t58 -32.5q79 -41 117.5 -71t50 -58.5t5.5 -69.5q-9 -65 -63 -111.5t-135 -61.5l-14 -91h-43l13 85
q-7 0 -21.5 -0.5t-21.5 -0.5q-94 2 -154 40q-3 1 -3 4l17 117h29l-6 -92q-1 -5 4 -8q52 -24 126 -24q91 0 152.5 40t70.5 105q6 46 -19.5 76.5t-120.5 81.5q-83 44 -121 74t-48.5 58t-4.5 72q4 30 22 57t46.5 47t66.5 33.5t82 16.5l13 85h43z" />
    <glyph glyph-name="percent" unicode="%" horiz-adv-x="889" 
d="M281 -17h-45l464 734h45zM302 706q72 0 107.5 -57t21.5 -151q-12 -93 -62.5 -148.5t-120.5 -55.5q-72 0 -107.5 57.5t-22.5 151.5q13 92 63 147.5t121 55.5zM300 677q-25 0 -48 -12t-42 -34.5t-32.5 -56t-19.5 -75.5q-12 -82 14 -129t77 -47q34 0 63 21t50.5 61.5
t29.5 95.5q11 82 -15 129t-77 47zM740 406q72 0 107.5 -57.5t22.5 -151.5q-13 -92 -63 -147.5t-121 -55.5q-72 0 -107.5 57.5t-22.5 151.5q13 92 63 147.5t121 55.5zM739 377q-52 0 -91.5 -48t-51.5 -130q-11 -82 15 -129t76 -47q52 0 91.5 47.5t51.5 130.5q11 82 -14.5 129
t-76.5 47z" />
    <glyph glyph-name="ampersand" unicode="&#x26;" horiz-adv-x="663" 
d="M364 710q90 0 138 -44t25 -130q-11 -41 -49.5 -76.5t-153.5 -105.5l-8 -5l188 -207q14 26 19 54l21 147h39l-23 -165q-6 -39 -26 -71l84 -92l-32 -31l-82 89q-35 -39 -88.5 -61t-117.5 -22q-118 0 -179 42.5t-50 121.5q8 55 43 95.5t139 105.5l-63 69q-41 46 -31 119
q11 75 67.5 121t139.5 46zM361 674q-64 0 -106.5 -36t-51.5 -98q-8 -57 21 -90l65 -72l8 5q108 66 141 95.5t43 65.5q9 35 4.5 59.5t-22 40.5t-43 23t-59.5 7zM476 107l-198 219q-95 -60 -126 -94t-38 -83q-8 -62 38 -93t144 -31q59 0 106.5 22t73.5 60z" />
    <glyph glyph-name="quotesingle" unicode="'" horiz-adv-x="137" 
d="M157 506h-35l26 212h43z" />
    <glyph glyph-name="parenleft" unicode="(" horiz-adv-x="336" 
d="M384 732l21 -30q-100 -57 -169 -157q-80 -114 -102 -271q-25 -175 38 -295q39 -78 112 -130l-25 -27q-81 52 -127 141q-72 132 -46 316q24 165 113 290q75 103 185 163z" />
    <glyph glyph-name="parenright" unicode=")" horiz-adv-x="336" 
d="M129 704l26 27q94 -60 140 -167q55 -126 32 -290q-26 -187 -137 -321q-67 -80 -161 -132l-21 30q84 48 147 129q100 121 125 299q21 155 -25 268q-41 99 -126 157z" />
    <glyph glyph-name="asterisk" unicode="*" horiz-adv-x="403" 
d="M310 580l66 -105l-35 -24l-61 109l-89 -109l-31 24l95 105l-121 38l18 39l119 -44l15 132h41l-22 -132l130 44l7 -39z" />
    <glyph glyph-name="plus" unicode="+" horiz-adv-x="504" 
d="M314 309h186l-5 -37h-186l-26 -186h-37l26 186h-187l6 37h186l26 186h37z" />
    <glyph glyph-name="comma" unicode="," horiz-adv-x="156" 
d="M75 54q26 0 32 -28.5t-8 -67.5q-23 -66 -71 -115l-20 15q38 47 53 94q10 29 5 45l-3 -1q-9 2 -15 11t-4.5 20t10.5 19t21 8z" />
    <glyph glyph-name="hyphen" unicode="-" horiz-adv-x="411" 
d="M396 231h-316l5 37h316z" />
    <glyph glyph-name="period" unicode="." horiz-adv-x="154" 
d="M82 54q9 0 16 -4.5t10 -12t2 -16.5q-1 -7 -5.5 -13t-11.5 -10t-15 -4q-13 0 -21 10t-6 23q1 11 10.5 19t20.5 8z" />
    <glyph glyph-name="slash" unicode="/" horiz-adv-x="384" 
d="M61 -118h-50l399 860h50z" />
    <glyph glyph-name="zero" unicode="0" horiz-adv-x="624" 
d="M407 690q121 0 180.5 -96.5t36.5 -256.5q-22 -157 -107 -252t-204 -95q-121 0 -180.5 96.5t-37.5 256.5q22 157 107.5 252t204.5 95zM406 653q-97 0 -170 -85t-93 -231q-14 -96 4 -167t61 -107t106 -36q97 0 169.5 84.5t93.5 231.5q20 144 -28 227t-143 83z" />
    <glyph glyph-name="one" unicode="1" horiz-adv-x="329" 
d="M304 680l-89 -634q-2 -10 8 -10l71 -6l-4 -30h-217l4 26q1 4 5 4l73 6q11 1 13 13l80 571q1 4 -2 5.5t-8 -1.5l-104 -64l-15 30l141 89l2 1h42z" />
    <glyph glyph-name="two" unicode="2" horiz-adv-x="480" 
d="M341 690q51 0 90 -18t55 -52q60 -121 -144 -355q-67 -76 -239 -231l286 1q11 0 14 12l17 80h30l-18 -127h-394l4 30l2 4q176 156 262 256q185 212 140 312q-9 18 -25.5 30t-37 17.5t-45.5 5.5q-52 0 -99 -26t-68 -74l-42 10q26 60 86 92.5t126 32.5z" />
    <glyph glyph-name="three" unicode="3" horiz-adv-x="489" 
d="M329 690q83 0 134 -45t40 -127q-8 -56 -47 -96.5t-101 -57.5q62 -17 92 -64.5t20 -115.5q-9 -66 -48 -111t-90 -64t-110 -19q-102 0 -175 52l19 27q65 -43 152 -43q79 0 136.5 40.5t68.5 124.5q7 49 -9 84t-52 53t-89 18h-63l5 35h62q75 0 124 37t58 102q9 66 -29 100.5
t-103 34.5q-72 0 -137 -42q-4 -2 -5 -7l-21 -93h-28l18 120q0 2 2 4q83 53 176 53z" />
    <glyph glyph-name="four" unicode="4" horiz-adv-x="521" 
d="M115 201h246l46 295q1 4 5 4h34l-42 -299h98l-4 -35h-99l-17 -120q-1 -10 8 -10l72 -6l-5 -30h-211l3 26q1 4 5 4l72 6q11 1 13 13l17 117h-296l4 30l292 484h48z" />
    <glyph glyph-name="five" unicode="5" horiz-adv-x="481" 
d="M510 645h-273l-64 -277q48 23 108 23q99 0 150.5 -54.5t38.5 -146.5q-9 -67 -46.5 -113.5t-87.5 -66.5t-110 -20q-92 0 -170 45q-3 1 -3 4l17 116h29l-6 -93q-1 -6 4 -8q61 -28 126 -28q37 0 69.5 10t60 29.5t46 53t24.5 77.5q11 75 -29 117.5t-119 42.5q-72 0 -125 -37
l-28 14l79 347h314z" />
    <glyph glyph-name="six" unicode="6" horiz-adv-x="512" 
d="M404 689q65 0 126 -37l-19 -29q-53 31 -105 32q-87 1 -158.5 -76t-97.5 -216l-7 -36q31 48 80.5 73.5t109.5 23.5q91 -3 138 -64.5t31 -161.5q-17 -96 -78.5 -153t-145.5 -54q-110 3 -159.5 101.5t-21.5 258.5q28 162 114 251t193 87zM326 389q-69 2 -121 -37.5
t-72 -111.5q0 -98 39.5 -155t108.5 -59q66 -2 114.5 46t63.5 133q10 55 -3.5 96.5t-47 63.5t-82.5 24z" />
    <glyph glyph-name="seven" unicode="7" horiz-adv-x="480" 
d="M547 680l-4 -34q-102 -110 -208 -296q-101 -174 -162 -351l-49 2q62 182 169 366q89 152 186 267q4 4 2.5 7.5t-6.5 3.5h-301q-12 0 -14 -12l-18 -79h-28l17 122q1 4 6 4h410z" />
    <glyph glyph-name="eight" unicode="8" horiz-adv-x="533" 
d="M361 690q95 0 145.5 -50t38.5 -130q-8 -60 -46 -102t-99 -60q60 -17 89.5 -62.5t20.5 -111.5q-11 -83 -77.5 -133.5t-165.5 -50.5q-100 0 -153.5 52.5t-41.5 137.5q9 64 51 108.5t108 62.5q-55 17 -81.5 60t-17.5 104q11 79 73.5 127t155.5 48zM361 655
q-75 0 -124.5 -39.5t-58.5 -107.5q-9 -65 28 -102.5t110 -37.5q75 0 124 39t59 106q9 66 -28 104t-110 38zM315 332q-80 0 -133 -41.5t-63 -113.5q-10 -70 30 -110.5t119 -40.5q80 0 133 42t63 115q10 70 -30 109.5t-119 39.5z" />
    <glyph glyph-name="nine" unicode="9" horiz-adv-x="512" 
d="M329 689q110 -3 159.5 -101.5t21.5 -257.5q-27 -162 -113.5 -251.5t-193.5 -87.5q-66 2 -125 37l18 29q53 -31 105 -31q88 -2 160 75.5t97 215.5q3 16 6 37q-31 -49 -80 -74.5t-109 -23.5q-93 3 -139.5 65t-29.5 161q16 97 77.5 153.5t145.5 53.5zM327 654
q-67 2 -115.5 -46t-63.5 -133q-14 -83 22 -132t111 -52q70 -2 121.5 37.5t71.5 111.5q0 65 -17.5 113t-51 74t-78.5 27z" />
    <glyph glyph-name="colon" unicode=":" horiz-adv-x="154" 
d="M143 482q13 0 21 -10t6 -23q-2 -11 -11 -19t-21 -8q-8 0 -15 4.5t-10 12t-2 16.5q1 7 5.5 13t11.5 10t15 4zM82 54q14 0 21.5 -10t6.5 -23q-2 -11 -11 -19t-21 -8q-13 0 -21 10t-6 23q1 11 10.5 19t20.5 8z" />
    <glyph glyph-name="semicolon" unicode=";" horiz-adv-x="156" 
d="M135 482q13 0 21 -10t6 -23q-1 -11 -10 -19t-21 -8q-9 0 -15.5 4.5t-9.5 12t-2 16.5q1 7 5.5 13t11.5 10t14 4zM75 54q26 0 32 -28.5t-8 -67.5q-23 -66 -71 -115l-20 15q38 44 53 93q10 31 5 46l-2 -1q-10 2 -16 11t-4.5 20t10.5 19t21 8z" />
    <glyph glyph-name="less" unicode="&#x3c;" horiz-adv-x="597" 
d="M624 526l-485 -182l433 -182l-5 -42l-475 200l7 47l530 200z" />
    <glyph glyph-name="equal" unicode="=" horiz-adv-x="546" 
d="M552 378h-452l5 37h452zM521 159h-451l5 37h452z" />
    <glyph glyph-name="greater" unicode="&#x3e;" horiz-adv-x="597" 
d="M601 367l-6 -47l-531 -200l6 42l485 182l-434 182l6 41z" />
    <glyph glyph-name="question" unicode="?" horiz-adv-x="432" 
d="M286 710q90 0 138.5 -40.5t39.5 -106.5q-6 -39 -21 -63t-52 -49.5t-113 -64.5q-83 -41 -108.5 -63.5t-31.5 -59.5l-8 -52h-43l8 60q5 44 35.5 74t120.5 74q71 34 103 55t45 41t17 53q7 48 -28.5 77t-104.5 29q-57 0 -99 -21q-7 -3 -9 -10l-20 -91h-28l17 120q1 1 2 4
q60 34 140 34zM84 54q14 0 21.5 -10t6.5 -23q-2 -11 -11 -19t-21 -8q-13 0 -21 10t-6 23q1 7 5.5 13t11.5 10t14 4z" />
    <glyph glyph-name="at" unicode="@" horiz-adv-x="935" 
d="M565 713q129 0 218 -56t125.5 -153.5t18.5 -222.5q-13 -94 -76 -149.5t-150 -55.5h-103q-6 0 -5 7l4 36q-57 -51 -136 -51q-85 0 -128.5 56.5t-30.5 150.5q13 91 73.5 146t145.5 55q99 0 152 -77l-38 -280l70 -3q67 0 115 45.5t59 124.5q25 175 -59 281t-256 106
q-175 0 -289.5 -109.5t-139.5 -288.5q-26 -181 58.5 -288t254.5 -108q59 0 121 16l11 -38q-68 -18 -133 -18q-128 0 -216.5 57t-125 156.5t-18.5 227.5q13 94 52.5 173.5t100.5 137t145 90t180 32.5zM521 445q-68 0 -116 -47t-59 -128q-11 -79 23 -125t101 -46q76 0 125 58
l34 231q-33 57 -108 57z" />
    <glyph glyph-name="A" unicode="A" horiz-adv-x="760" 
d="M680 35l56 -5l-4 -30h-205l3 25q1 4 5 4l74 7q7 0 12 5.5t3 13.5l-45 162h-347l-99 -180l90 -7l-5 -30h-190l4 26q0 4 4 5l47 4q6 0 10 7l363 657l42 2zM252 254h318l-104 387z" />
    <glyph glyph-name="B" unicode="B" horiz-adv-x="651" 
d="M176 700h291q93 0 143.5 -48.5t38.5 -127.5q-7 -54 -42 -94t-91 -59q67 -16 100.5 -64.5t23.5 -117.5q-12 -85 -81 -137t-172 -52h-309l4 26q0 4 4 4l66 6q5 0 8.5 4t4.5 8l85 606q2 10 -8 11l-64 5q-6 0 -5 7zM371 663l-73 -6l-38 -270h164q74 0 122 37.5t57 101.5
t-28.5 100.5t-110.5 36.5h-93zM255 350l-43 -307l71 -6h107q84 0 138.5 42.5t64.5 115.5q10 72 -32.5 113.5t-125.5 41.5h-180z" />
    <glyph glyph-name="C" unicode="C" horiz-adv-x="650" 
d="M490 709q117 0 193 -63q2 -1 2 -4l-17 -117h-29l6 96q1 4 -1 8q-65 43 -155 43q-131 0 -222.5 -88t-112.5 -237q-20 -147 46 -233.5t196 -86.5q114 0 208 71l18 -32q-99 -76 -229 -76q-152 0 -231 100.5t-56 261.5q22 160 127.5 258.5t256.5 98.5z" />
    <glyph glyph-name="D" unicode="D" horiz-adv-x="756" 
d="M172 700h290q152 0 230.5 -96t56.5 -257q-23 -159 -127.5 -253t-256.5 -94h-291l3 26q1 4 5 4l66 6q4 0 8 4t5 8l85 606q1 10 -8 11l-64 5q-6 0 -5 7zM367 663l-73 -6l-87 -614l72 -6h89q131 0 221.5 84t110.5 232q21 145 -45 227.5t-197 82.5h-91z" />
    <glyph glyph-name="E" unicode="E" horiz-adv-x="579" 
d="M172 700h442q7 0 6 -7l-17 -122h-29l5 83q1 9 -9 9h-276l-40 -289h243l-5 -35h-243l-43 -302h294q3 0 6 1.5t5 4.5t2 6l18 80h29l-17 -125q-1 -4 -6 -4h-463l3 26q1 4 5 4l66 6q4 0 8 4t5 8l85 606q1 10 -8 11l-64 5q-6 0 -5 7z" />
    <glyph glyph-name="F" unicode="F" horiz-adv-x="554" 
d="M172 700h436q7 0 6 -7l-17 -122h-29l5 83q1 9 -9 9h-269l-43 -301h223l-5 -35h-223l-40 -289l91 -8l-4 -30h-220l3 26q1 4 5 4l66 6q5 0 8.5 4t4.5 8l85 606q2 10 -8 11l-64 5q-6 0 -5 7z" />
    <glyph glyph-name="G" unicode="G" horiz-adv-x="705" 
d="M489 709q114 0 215 -61q4 -1 3 -5l-16 -116h-30l7 92q0 5 -3 9q-87 44 -177 44q-80 0 -149 -36t-119.5 -111t-65.5 -178q-20 -147 45.5 -233.5t194.5 -86.5q123 0 213 81l24 166q1 9 -8 10l-179 9l4 31h227q2 0 4 -2t2 -5l-45 -317h-31l4 62q-96 -72 -221 -72
q-150 0 -227.5 100.5t-54.5 261.5q10 69 35 127t62 100t83 71.5t97.5 44t105.5 14.5z" />
    <glyph glyph-name="H" unicode="H" horiz-adv-x="859" 
d="M879 670l-70 -6q-11 -1 -13 -12l-85 -607q-1 -9 8 -10l70 -5l-4 -30h-220l4 26q0 4 5 4l77 7q12 1 13 12l41 290h-456l-41 -292q-2 -10 8 -10l82 -7l-5 -30h-219l3 26q1 4 5 4l66 6q11 1 13 12l85 607q1 9 -8 10l-64 5q-6 0 -5 7l3 23h220l-4 -30l-82 -7q-12 -1 -13 -12
l-39 -275h456l39 277q1 10 -8 10l-75 7q-7 0 -6 7l4 23h219z" />
    <glyph glyph-name="I" unicode="I" horiz-adv-x="358" 
d="M378 670l-71 -6q-11 -1 -13 -12l-85 -606q-1 -10 8 -10l71 -6l-4 -30h-210l3 26q1 4 5 4l67 6q5 0 8.5 4t4.5 8l85 606q2 10 -8 10l-65 6q-6 0 -5 7l3 23h211z" />
    <glyph glyph-name="J" unicode="J" horiz-adv-x="367" 
d="M387 670l-69 -6q-11 -1 -13 -12l-86 -618q-13 -88 -67 -150t-139 -86l-10 29q44 14 79 44t58.5 72.5t30.5 93.5l86 616q2 10 -8 10l-75 7q-6 0 -5 7l3 23h220z" />
    <glyph glyph-name="K" unicode="K" horiz-adv-x="739" 
d="M787 670l-76 -6l-299 -278l219 -347q1 -2 6 -3l72 -6q6 0 5 -7l-3 -23h-113l-221 351l-145 -135l-24 -169q-2 -10 8 -10l82 -7l-5 -30h-219l3 26q1 4 5 4l66 6q11 1 13 12l85 606q1 10 -8 11l-64 5q-6 0 -5 7l3 23h219l-4 -30l-81 -7q-12 -1 -13 -12l-55 -384l398 374
q8 7 7 15t-10 9l-54 5q-6 1 -5 7l3 23h214z" />
    <glyph glyph-name="L" unicode="L" horiz-adv-x="567" 
d="M388 670l-82 -7q-12 -1 -13 -12l-87 -614h282q3 0 6 1.5t5 4.5t2 6l18 80h29l-17 -125q-1 -4 -6 -4h-451l3 26q1 4 5 4l66 6q4 0 8 4t5 8l85 606q1 10 -8 11l-64 5q-6 0 -5 7l3 23h220z" />
    <glyph glyph-name="M" unicode="M" horiz-adv-x="1024" 
d="M973 670l-65 -5q-6 -1 -10 -5t-4 -10l-4 -615l66 -5l-4 -30h-217l4 30l90 8q14 1 14 14l5 573l-321 -624l-31 -1l-149 627l-162 -588l101 -9l-4 -30h-214l4 26q0 4 4 4l59 5q9 1 12 11l167 607q3 11 -8 12l-60 5q-6 0 -5 7l3 23h135l148 -620l319 620h132z" />
    <glyph glyph-name="N" unicode="N" horiz-adv-x="848" 
d="M874 670l-70 -6q-12 -1 -13 -12l-92 -652h-44l-373 623l-82 -576q-1 -10 8 -10l81 -7l-5 -30h-215l3 26q1 4 5 4l66 6q11 1 13 12l85 606q2 10 -8 11l-64 5q-6 0 -5 7l3 23h123l375 -626l81 579q2 10 -7 11l-74 6q-7 0 -6 7l4 23h215z" />
    <glyph glyph-name="O" unicode="O" horiz-adv-x="783" 
d="M489 709q152 0 231 -100t56 -262q-23 -160 -128.5 -258.5t-255.5 -98.5q-152 0 -230.5 100.5t-56.5 261.5q23 160 128.5 258.5t255.5 98.5zM488 672q-131 0 -222 -88t-112 -237q-21 -147 44.5 -233.5t194.5 -86.5q131 0 222.5 88.5t111.5 236.5q21 147 -44.5 233.5
t-194.5 86.5z" />
    <glyph glyph-name="P" unicode="P" horiz-adv-x="627" 
d="M172 700h290q94 0 143.5 -52.5t37.5 -137.5q-12 -84 -75 -134.5t-156 -50.5h-165l-39 -278q-2 -10 8 -10l82 -7l-5 -30h-219l3 26q1 4 5 4l66 6q4 0 8 4t5 8l85 606q1 10 -8 11l-64 5q-6 0 -5 7zM368 663l-74 -6l-42 -295h162q75 0 124 41t59 111q10 69 -27.5 109
t-112.5 40h-89z" />
    <glyph glyph-name="Q" unicode="Q" horiz-adv-x="788" 
d="M807 -93l12 -33q-30 -13 -59.5 -15.5t-50.5 1.5t-46.5 17.5t-39.5 23.5t-39 29q-72 54 -107 69q-41 -9 -85 -9q-152 0 -230.5 100.5t-56.5 261.5q23 160 128.5 258.5t255.5 98.5q152 0 231 -100t56 -262q-17 -120 -82.5 -207.5t-164.5 -125.5q32 -17 75 -54
q25 -19 36.5 -27.5t35 -21.5t40.5 -15.5t41 -1t50 12.5zM154 347q-21 -147 44.5 -233.5t194.5 -86.5q131 0 222.5 88.5t111.5 236.5q21 147 -44.5 233.5t-194.5 86.5q-131 0 -222 -88t-112 -237z" />
    <glyph glyph-name="R" unicode="R" horiz-adv-x="677" 
d="M172 700h290q94 0 144 -51t38 -134q-11 -76 -68 -123.5t-143 -51.5h-3l140 -301q2 -3 7 -4l67 -5l-4 -30h-101q-3 0 -4 4l-152 332h-135l-40 -289q-2 -10 8 -10l82 -7l-5 -30h-219l3 26q1 4 5 4l66 6q11 1 13 12l85 606q1 10 -8 11l-64 5q-6 0 -5 7zM367 663l-73 -6
l-40 -284h164q49 0 87.5 18t62 51t30.5 77q6 45 -8.5 77.5t-48 49.5t-81.5 17h-93z" />
    <glyph glyph-name="S" unicode="S" horiz-adv-x="569" 
d="M413 710q92 0 149 -39q3 -1 2 -4l-16 -117h-29l6 94q0 5 -4 7q-44 23 -109 23q-87 0 -144 -35.5t-65 -92.5q-5 -36 3 -57.5t39.5 -46t102.5 -62.5q82 -42 121 -73t51 -60t7 -71q-12 -83 -90.5 -134t-191.5 -52q-104 0 -170 41q-3 2 -3 5l17 117h29l-6 -92q0 -6 4 -8
q54 -26 131 -26q95 0 157.5 41t72.5 109q2 25 0 42.5t-19 36.5t-45.5 38t-80.5 47q-43 23 -72 40.5t-51.5 34.5t-33 30.5t-18 30.5t-6 33.5t2.5 39.5q10 71 82 115.5t177 44.5z" />
    <glyph glyph-name="T" unicode="T" horiz-adv-x="640" 
d="M131 700h573q6 0 5 -7l-17 -121h-29l6 83q0 9 -9 9h-223l-87 -618q-1 -10 8 -10l71 -6l-4 -30h-210l3 26q1 4 5 4l67 6q3 0 6 2t5 4.5t2 5.5l87 616h-221q-11 0 -14 -12l-17 -80h-30l18 124q0 4 5 4z" />
    <glyph glyph-name="U" unicode="U" horiz-adv-x="833" 
d="M858 670l-70 -6q-11 -1 -13 -12l-53 -382q-18 -126 -101 -203t-201 -77q-120 0 -182.5 78t-44.5 205l53 381q2 9 -8 10l-64 6q-6 0 -5 7l3 23h220l-4 -30l-81 -7q-11 -1 -13 -13l-53 -380q-16 -113 33.5 -178t148.5 -65q100 0 172.5 67t88.5 179l54 380q1 9 -8 10l-88 7
l5 30h215z" />
    <glyph glyph-name="V" unicode="V" horiz-adv-x="721" 
d="M787 670l-55 -5l-353 -664l-36 -1l-168 661q-1 5 -7 5l-40 4q-6 0 -5 7l3 23h91l157 -633l306 581q8 15 -7 16l-77 7q-6 0 -6 7l4 22h197z" />
    <glyph glyph-name="W" unicode="W" horiz-adv-x="1097" 
d="M1163 670l-59 -5l-292 -664l-37 -1l-141 627l-318 -626l-37 -1l-104 660q-1 6 -7 6l-40 4q-6 0 -5 7l3 23h95l92 -626l290 574q7 15 -8 16l-76 7q-6 0 -5 7l3 22h154l135 -625l250 574q6 14 -8 15l-79 7q-6 0 -5 7l3 22h200z" />
    <glyph glyph-name="X" unicode="X" horiz-adv-x="661" 
d="M724 670l-65 -6l-251 -313l166 -313q2 -3 7 -3l57 -5l-5 -30h-86q-2 0 -4 3l-171 317l-225 -283l89 -8l-4 -29h-201l3 26q1 4 5 5l55 4q5 1 9 6l248 308l-167 313q-1 3 -6 3l-48 5q-6 0 -5 7l3 23h88l171 -320l211 265q6 7 4 13t-10 7l-65 6q-7 0 -6 7l4 22h204z" />
    <glyph glyph-name="Y" unicode="Y" horiz-adv-x="682" 
d="M749 670l-53 -5l-291 -414l-30 -205q-1 -10 8 -10l72 -6l-4 -30h-211l4 26q0 4 5 4l66 6q12 1 14 12l28 196l-178 418q-1 3 -6 4l-45 4q-6 0 -5 7l3 23h88l175 -408l248 353q5 7 3.5 13t-9.5 6l-75 7q-6 0 -5 7l3 22h199z" />
    <glyph glyph-name="Z" unicode="Z" horiz-adv-x="585" 
d="M639 670l-533 -633h399q12 0 14 12l17 78h30l-18 -123q0 -4 -5 -4h-506l4 29l533 634h-371q-11 0 -14 -12l-17 -77h-29l17 122q1 4 6 4h476z" />
    <glyph glyph-name="bracketleft" unicode="[" horiz-adv-x="263" 
d="M190 683l-109 -777h139l-5 -35h-186l119 846h186l-5 -34h-139z" />
    <glyph glyph-name="backslash" unicode="\" horiz-adv-x="384" 
d="M339 -118h-49l-158 860h49z" />
    <glyph glyph-name="bracketright" unicode="]" horiz-adv-x="263" 
d="M317 717l-119 -846h-186l5 35h138l110 777h-139l5 34h186z" />
    <glyph glyph-name="asciicircum" unicode="^" horiz-adv-x="491" 
d="M499 395h-43l-116 273l-193 -273h-45l218 305h47z" />
    <glyph glyph-name="underscore" unicode="_" horiz-adv-x="596" 
d="M536 -91h-502l5 35h502z" />
    <glyph glyph-name="grave" unicode="`" horiz-adv-x="249" 
d="M283 577h-40l-94 142h53z" />
    <glyph glyph-name="a" unicode="a" horiz-adv-x="630" 
d="M372 510q85 1 171 -41q4 -1 3 -5l-50 -359q-11 -79 66 -80h3l-3 -25h-19q-48 0 -71 22.5t-18 65.5l3 20q-48 -57 -103.5 -87.5t-108.5 -30.5q-82 0 -127 68.5t-27 194.5q17 123 95 189.5t186 67.5zM375 479q-61 -1 -111 -26t-85.5 -77.5t-46.5 -127.5q-15 -109 21.5 -167
t102.5 -58q32 0 66 14t70.5 44t67.5 73l43 298q-63 27 -128 27z" />
    <glyph glyph-name="b" unicode="b" horiz-adv-x="608" 
d="M164 716l106 6q8 0 7 -8l-46 -317q46 56 98 84.5t102 28.5q81 0 127.5 -69.5t30.5 -189.5q-19 -133 -96.5 -197t-188.5 -64q-81 0 -165 34l90 652q2 9 -8 10l-61 3zM420 476q-48 1 -99.5 -32t-95.5 -98l-43 -300q62 -25 125 -25q93 0 158 57.5t81 174.5
q15 104 -22.5 163.5t-103.5 59.5z" />
    <glyph glyph-name="c" unicode="c" horiz-adv-x="502" 
d="M370 510q83 0 137 -44q3 -1 3 -4l-15 -108h-29l6 92q0 5 -4 7q-41 26 -99 26q-92 0 -157 -63t-80 -169q-14 -104 32 -165t137 -61q76 0 142 45l15 -29q-69 -47 -157 -47q-112 0 -169.5 73t-40.5 190q16 115 92.5 186t186.5 71z" />
    <glyph glyph-name="d" unicode="d" horiz-adv-x="623" 
d="M466 744l106 6q7 0 6 -7l-92 -658q-4 -29 13 -44.5t56 -15.5h3l-3 -25h-19q-48 0 -72 18t-19 51q-82 -79 -178 -79q-90 0 -142 69t-34 194q16 116 80 186.5t148 70.5q51 0 95 -28t74 -83l43 305q1 10 -8 10l-61 3zM329 479q-69 -1 -125 -62t-72 -169
q-15 -108 28.5 -166.5t116.5 -58.5q91 0 170 85l35 246q-25 63 -66 94t-87 31z" />
    <glyph glyph-name="e" unicode="e" horiz-adv-x="539" 
d="M354 510q87 0 136 -45.5t47 -114.5q-4 -127 -211 -164q-76 -13 -194 -15q6 -71 47.5 -110.5t108.5 -39.5q106 0 180 67l16 -28q-35 -32 -86 -51t-111 -19q-105 0 -159 73t-37 190q16 116 87.5 186.5t175.5 70.5zM353 481q-84 0 -143.5 -61t-73.5 -161q-4 -30 -4 -58
q112 2 185 15q175 31 179 137q1 56 -37.5 92t-105.5 36z" />
    <glyph glyph-name="f" unicode="f" horiz-adv-x="416" 
d="M401 750q69 -1 123 -39l-17 -25q-47 32 -102 32q-54 0 -95 -32.5t-50 -93.5l-13 -92h150l-4 -28l-151 -7l-62 -446q-28 -197 -127 -199h-7l3 25q28 0 53 47t36 130l63 443l-61 4q-7 0 -6 7l3 21l68 3l14 97q5 38 22.5 67.5t42.5 48t55 28t62 9.5z" />
    <glyph glyph-name="g" unicode="g" horiz-adv-x="601" 
d="M372 510q85 1 171 -41q4 -1 3 -5l-64 -453q-7 -55 -29 -96t-53.5 -64.5t-68 -34t-77.5 -10.5q-85 0 -166 42l20 26q72 -37 143 -37q74 0 125.5 42t64.5 135l13 90q-48 -55 -102.5 -84.5t-106.5 -29.5q-82 0 -127 68.5t-27 194.5q17 123 95 189.5t186 67.5zM375 479
q-94 -1 -160.5 -60.5t-82.5 -170.5q-15 -109 21.5 -167t102.5 -58q49 0 103 33.5t101 97.5l43 298q-63 27 -128 27z" />
    <glyph glyph-name="h" unicode="h" horiz-adv-x="705" 
d="M178 744l106 6q8 0 7 -7l-50 -352q26 30 56 53t60 37.5t60.5 21.5t59.5 7q74 0 111 -41.5t25 -125.5l-33 -229q-12 -88 67 -89h3l-3 -25h-9q-56 0 -81.5 30t-17.5 85l31 226q20 138 -103 138q-29 0 -58.5 -8t-59.5 -24t-59 -42t-55 -59l-49 -346h-42l99 704q2 10 -8 10
l-61 3z" />
    <glyph glyph-name="i" unicode="i" horiz-adv-x="340" 
d="M261 707q13 0 21 -9.5t6 -23.5q-1 -7 -5.5 -13.5t-11 -10t-14.5 -3.5q-13 0 -21 9.5t-6 23.5q1 11 10.5 19t20.5 8zM144 499l106 6q7 0 6 -7l-54 -384q-12 -88 67 -89h6l-3 -25h-13q-55 0 -80.5 30t-18.5 85l49 344q1 10 -9 10l-60 3z" />
    <glyph glyph-name="j" unicode="j" horiz-adv-x="256" 
d="M254 707q13 0 21 -9.5t6 -22.5q-1 -12 -10.5 -20t-20.5 -8q-9 0 -15.5 4.5t-10 12t-2.5 16.5q1 7 6 13.5t11.5 10t14.5 3.5zM136 499l107 6q7 0 6 -7l-84 -596q-6 -45 -38 -70.5t-80 -25.5t-73 25l17 23q16 -17 49 -17q34 0 56.5 18.5t27.5 51.5l77 552q2 10 -8 10l-60 3
z" />
    <glyph glyph-name="k" unicode="k" horiz-adv-x="607" 
d="M178 744l106 6q8 0 7 -8l-70 -492l283 213q50 37 110 37h12l-3 -25q-50 -1 -102 -40l-172 -125l141 -223q39 -61 100 -62l-2 -25h-16q-77 1 -117 73l-135 215l-104 -77l-24 -167q-1 -9 8 -10l72 -6l-4 -28h-191l3 24q1 4 5 5l53 4q11 1 13 13l92 658q1 10 -8 10l-61 3z
" />
    <glyph glyph-name="l" unicode="l" horiz-adv-x="331" 
d="M178 744l107 6q7 0 6 -7l-89 -629q-12 -88 67 -89h6l-3 -25h-13q-55 0 -80.5 30t-18.5 85l83 589q2 10 -8 10l-61 3z" />
    <glyph glyph-name="m" unicode="m" horiz-adv-x="1034" 
d="M815 510q69 0 103.5 -41.5t22.5 -125.5l-32 -229q-12 -88 66 -89h4l-4 -25h-9q-55 0 -81 30t-18 85l32 226q19 138 -96 138q-53 0 -104.5 -29t-112.5 -100l-2 -12l-47 -338h-42l48 341q19 138 -96 138q-54 0 -105 -29t-112 -100l-49 -350h-42l64 459q1 10 -8 10l-61 3
l4 27l106 6q3 0 5 -2.5t1 -4.5l-15 -107q60 66 113 92.5t110 26.5q60 0 94.5 -31t34.5 -93q62 69 115.5 96.5t112.5 27.5z" />
    <glyph glyph-name="n" unicode="n" horiz-adv-x="700" 
d="M472 510q73 0 110 -41.5t25 -125.5l-32 -229q-13 -88 66 -89h3l-3 -25h-9q-56 0 -81.5 30t-17.5 85l32 226q19 138 -104 138q-58 0 -119.5 -34t-111.5 -99l-49 -346h-42l64 459q1 10 -8 10l-61 3l4 27l106 6q8 0 6 -7l-15 -107q53 60 114.5 89.5t122.5 29.5z" />
    <glyph glyph-name="o" unicode="o" 
d="M370 510q111 0 168.5 -72.5t41.5 -190.5q-16 -115 -92.5 -186t-186.5 -71q-112 0 -169.5 73t-40.5 190q16 115 92.5 186t186.5 71zM369 479q-92 0 -157 -63t-80 -169q-14 -103 32 -164.5t137 -61.5q92 0 157 63t80 169q10 68 -8 119.5t-59.5 79t-101.5 27.5z" />
    <glyph glyph-name="p" unicode="p" horiz-adv-x="618" 
d="M422 510q89 0 141 -69t35 -194q-16 -115 -80 -185.5t-149 -71.5q-50 0 -94.5 28t-73.5 83l-36 -251q-1 -10 8 -10l73 -6l-4 -28h-193l3 24q1 4 5 4l53 5q12 2 13 13l85 605q2 9 -8 10l-58 3l4 27l100 4q6 0 6 -7l-8 -62q82 78 178 78zM411 477q-91 0 -169 -85l-36 -246
q25 -63 66 -94t88 -31q68 0 124.5 61.5t71.5 169.5t-28 166.5t-117 58.5z" />
    <glyph glyph-name="q" unicode="q" horiz-adv-x="626" 
d="M387 510q82 0 166 -34l-87 -627q-1 -8 8 -10l60 -5l-4 -28h-195l3 24q1 4 5 4l68 6q11 0 13 13l36 250q-45 -56 -97.5 -84.5t-101.5 -28.5q-81 1 -128 70.5t-30 188.5q19 133 96 197t188 64zM384 479q-92 0 -157 -57.5t-82 -174.5q-14 -105 23.5 -164t103.5 -59
q47 -1 98.5 32t95.5 98l44 300q-63 25 -126 25z" />
    <glyph glyph-name="r" unicode="r" horiz-adv-x="426" 
d="M464 507q6 -1 6 -7l-15 -105h-29l5 69q0 5 -3.5 7.5t-7.5 1.5q-12 -3 -25 -8q-71 -19 -160 -84l-54 -381h-42l64 459q1 10 -8 10l-61 3l4 27l106 6q8 0 6 -7l-12 -82q94 69 173 86q28 6 53 5z" />
    <glyph glyph-name="s" unicode="s" horiz-adv-x="442" 
d="M319 510q69 0 113 -27q3 -2 3 -5l-15 -103h-25l5 86q1 5 -4 7q-30 14 -73 14q-64 0 -105.5 -25.5t-46.5 -65.5q-5 -36 12.5 -57.5t89.5 -59.5q84 -45 108.5 -74.5t18.5 -74.5q-8 -60 -67.5 -97t-144.5 -37q-73 0 -122 25q-4 1 -3 5l14 102h26l-5 -84q-1 -6 4 -8
q37 -12 84 -12q48 0 85.5 13.5t60.5 38t28 56.5q5 36 -14 58t-89 60q-62 32 -89.5 54t-35 42.5t-3.5 53.5q8 52 60.5 83.5t129.5 31.5z" />
    <glyph glyph-name="t" unicode="t" horiz-adv-x="376" 
d="M223 500h141l-3 -28l-143 -7l-53 -379q-5 -33 11 -50.5t49 -17.5q47 0 73 35l17 -20q-32 -45 -98 -45q-49 0 -75 26.5t-20 70.5l54 380l-60 4q-6 0 -6 7l4 23h67l17 126l43 2z" />
    <glyph glyph-name="u" unicode="u" horiz-adv-x="690" 
d="M631 500l-55 -392q-11 -81 52 -83h7l-3 -25h-26q-41 1 -60 25.5t-13 70.5l2 12q-53 -59 -114.5 -89t-122.5 -29q-73 0 -110 41.5t-25 125.5l42 299q1 9 -8 10l-72 6l4 28h117q7 0 6 -7l-47 -334q-19 -138 104 -138q58 0 119.5 33.5t111.5 99.5l49 346h42z" />
    <glyph glyph-name="v" unicode="v" horiz-adv-x="568" 
d="M286 46l182 340q29 54 65 84t71 30h7l-3 -25q-24 0 -54.5 -29t-57.5 -77l-199 -369h-40l-118 463q-1 4 -7 5l-32 4q-6 0 -6 6l3 22h76z" />
    <glyph glyph-name="w" unicode="w" horiz-adv-x="856" 
d="M604 49l165 330q28 56 63.5 88.5t69.5 32.5h5l-2 -25q-22 0 -51.5 -29.5t-54.5 -78.5l-186 -367h-38l-89 438l-214 -438h-38l-101 462q-1 5 -7 6l-35 4q-6 0 -5 6l3 22h79l94 -451l219 451h36z" />
    <glyph glyph-name="x" unicode="x" horiz-adv-x="528" 
d="M302 274l135 156q60 69 121 70h8l-2 -25q-48 -1 -104 -66l-136 -153l129 -219q1 -3 6 -3l54 -6l-4 -28h-78q-3 0 -4 3l-136 231l-141 -164q-60 -69 -120 -70h-11l2 25q50 1 106 66l143 161l-124 211q-2 3 -6 3l-48 6q-6 0 -5 6l3 22h82z" />
    <glyph glyph-name="y" unicode="y" horiz-adv-x="550" 
d="M277 42l185 344q29 54 64 84t70 30h6l-2 -25q-15 0 -33.5 -12t-38.5 -36.5t-37 -56.5l-243 -450q-29 -53 -72 -83t-92 -30l-23 -1l3 24l12 2q41 2 80 30t65 76l34 62h-8l-116 463q-1 4 -7 5l-33 4q-6 0 -5 6l3 22h76z" />
    <glyph glyph-name="z" unicode="z" horiz-adv-x="502" 
d="M502 478l-388 -450h288q11 0 14 12l16 71h25l-15 -107q-1 -4 -5 -4h-378l3 22l388 450h-265q-11 0 -14 -12l-15 -71h-26l15 107q1 4 6 4h353z" />
    <glyph glyph-name="braceleft" unicode="{" horiz-adv-x="316" 
d="M359 729q13 0 28 -2l-7 -34q-8 1 -17 1q-44 0 -76 -26.5t-40 -77.5l-29 -209q-8 -60 -69 -85q24 -11 37 -33t8 -52l-29 -210q-7 -51 16.5 -76.5t66.5 -25.5q6 0 19 2l1 -34q-19 -2 -26 -2q-62 0 -97 36t-26 103l30 209q5 33 -12.5 50.5t-48.5 18.5l3 30q30 0 53.5 19
t28.5 53l29 209q10 67 53 101.5t104 34.5z" />
    <glyph glyph-name="bar" unicode="|" horiz-adv-x="139" 
d="M65 -190h-45l133 940h44z" />
    <glyph glyph-name="braceright" unicode="}" horiz-adv-x="316" 
d="M157 729q63 0 97.5 -35.5t25.5 -103.5l-30 -209q-4 -33 13.5 -50.5t47.5 -18.5l-2 -30q-30 -1 -54 -19.5t-29 -52.5l-29 -209q-9 -67 -52.5 -101.5t-104.5 -34.5q-10 0 -28 2l7 34q14 -2 20 -1q27 1 50.5 12t40.5 34.5t22 57.5l29 209q8 60 69 85q-24 11 -36.5 33.5
t-8.5 52.5l30 209q7 51 -17 76.5t-67 25.5q-8 0 -18 -1l-2 33q13 2 26 2z" />
    <glyph glyph-name="asciitilde" unicode="~" horiz-adv-x="552" 
d="M204 336q16 1 36 -5t34 -12.5t40 -20.5q75 -38 116 -36q53 3 80 54l38 -11q-13 -35 -43.5 -56.5t-67.5 -22.5q-49 -2 -126 39q-3 1 -9 4q-65 33 -88 32q-51 -2 -96 -72l-37 15q51 86 123 92z" />
    <glyph glyph-name="exclamdown" unicode="&#xa1;" horiz-adv-x="155" 
d="M147 511q9 0 15.5 -4.5t9.5 -12t2 -16.5q-1 -11 -10.5 -19t-20.5 -8q-9 0 -15.5 4.5t-10 12t-1.5 16.5q1 11 10 19t21 8zM73 -195h-47l73 489h39z" />
    <glyph glyph-name="cent" unicode="&#xa2;" horiz-adv-x="502" 
d="M399 581l-10 -73q71 -3 118 -42q3 -1 3 -4l-15 -108h-29l6 92q0 5 -4 7q-41 26 -99 26q-92 0 -157 -63t-80 -169q-14 -104 32 -165t137 -61q76 0 142 45l15 -29q-62 -43 -142 -46l-10 -72h-37l10 72q-102 8 -153 79.5t-35 182.5q15 110 86 180t174 76l11 72h37z" />
    <glyph glyph-name="sterling" unicode="&#xa3;" horiz-adv-x="486" 
d="M400 710q75 0 136 -34q4 -1 3 -5l-16 -115h-27l5 91q1 6 -4 8q-44 18 -96 18q-67 0 -118.5 -32.5t-67.5 -96.5q-8 -27 -2.5 -57t14.5 -48t21.5 -46.5t16.5 -53.5l192 1l-5 -34l-184 -1q0 -25 -5 -49q-7 -44 -38 -96.5t-91 -124.5h320l-5 -35h-375l4 36q62 73 94.5 126
t41.5 99q5 24 4 45h-101l4 34h95q-4 18 -13.5 40.5t-17 38.5t-14.5 39t-7.5 43.5t4.5 51.5q19 78 84 117.5t148 39.5z" />
    <glyph glyph-name="currency" unicode="&#xa4;" 
 />
    <glyph glyph-name="yen" unicode="&#xa5;" horiz-adv-x="682" 
d="M749 670l-53 -5l-203 -288h134l-5 -33h-152l-61 -87l-8 -52h202l-5 -33h-205l-18 -126q-1 -10 8 -10l72 -6l-4 -30h-211l4 26q0 4 5 4l66 6q11 1 13 12l18 124h-205l5 33h202l6 46l-40 93h-148l4 33h130l-121 285q-1 3 -6 4l-45 4q-6 0 -5 7l3 23h88l175 -408l248 353
q5 7 3.5 13t-9.5 6l-75 7q-6 0 -5 7l3 22h199z" />
    <glyph glyph-name="brokenbar" unicode="&#xa6;" horiz-adv-x="142" 
d="M144 351h-47l56 399h47zM68 -190h-48l57 399h47z" />
    <glyph glyph-name="section" unicode="&#xa7;" horiz-adv-x="467" 
d="M354 710q80 0 128 -33q3 -1 3 -5l-17 -115h-28l6 94q0 5 -4 8q-34 17 -85 17q-70 0 -116 -29t-52 -75q-5 -30 2 -47.5t32.5 -37.5t84.5 -52q98 -51 127 -86t22 -87q-7 -51 -46.5 -89t-101.5 -56q71 -41 92 -72t15 -77q-10 -71 -78 -114.5t-163 -43.5q-92 0 -146 35
q-4 0 -3 4l16 115h29l-6 -93q-1 -5 4 -8q45 -19 105 -19q52 0 94 15.5t67 43.5t31 66q6 41 -16 67t-105 70q-72 38 -104.5 63.5t-41 49.5t-2.5 63q7 50 53.5 84.5t118.5 43.5q-63 34 -92 58.5t-36.5 47.5t-2.5 60q8 59 68 96.5t148 37.5zM315 383h-6q-69 0 -114 -28.5
t-51 -74.5q-4 -30 3 -47.5t32 -36.5t83 -51l9 -4q58 10 95 42t44 78q5 38 -12.5 62t-82.5 60z" />
    <glyph glyph-name="dieresis" unicode="&#xa8;" horiz-adv-x="300" 
d="M167 665q13 0 20.5 -9.5t5.5 -22.5q-1 -10 -10 -18t-20 -8q-13 0 -20.5 9.5t-5.5 22.5q1 10 10 18t20 8zM315 665q13 0 20.5 -9.5t5.5 -22.5q-1 -10 -10 -18t-20 -8q-12 0 -20 9.5t-6 22.5q1 10 10 18t20 8z" />
    <glyph glyph-name="copyright" unicode="&#xa9;" horiz-adv-x="815" 
d="M505 710q99 0 175.5 -48.5t113.5 -132t23 -182.5q-14 -97 -73.5 -179t-149 -130t-186.5 -48q-98 0 -174.5 48.5t-113.5 132t-23 182.5q13 97 73 179t149 130t186 48zM505 678q-88 0 -168.5 -44t-134.5 -120t-67 -166q-12 -89 20 -164t99.5 -118t154.5 -43t167.5 43.5
t135 120t67.5 166.5q12 89 -20.5 164t-100 118t-153.5 43zM482 539q65 0 106 -36q3 -1 2 -3l-8 -59h-27l3 48q0 5 -3 7q-30 20 -72 20q-65 0 -111.5 -45.5t-57.5 -123.5q-10 -75 22.5 -119t96.5 -44q58 0 111 41l14 -23q-53 -41 -125 -41q-81 0 -124 53.5t-31 138.5
q4 32 16.5 61t31 52t42.5 39.5t53.5 25t60.5 8.5z" />
    <glyph glyph-name="ordfeminine" unicode="&#xaa;" horiz-adv-x="406" 
d="M297 706q51 0 103 -25q2 0 3.5 -1t1.5 -2l-31 -219q-6 -46 38 -47h4l-2 -17h-13q-30 0 -44.5 15t-12.5 41l2 4q-59 -66 -125 -66q-51 0 -79 42.5t-17 119.5q10 74 57.5 114t114.5 41zM299 685q-56 0 -96 -36t-49 -104q-9 -65 12 -99.5t60 -34.5q19 0 39.5 8.5t42 26.5
t40.5 44l27 180q-37 16 -76 15z" />
    <glyph glyph-name="guillemotleft" unicode="&#xab;" horiz-adv-x="468" 
d="M130 251l109 -174h-42l-114 175l162 174h44zM339 251l110 -174h-43l-114 175l163 174h44z" />
    <glyph glyph-name="logicalnot" unicode="&#xac;" horiz-adv-x="700" 
 />
    <glyph glyph-name="registered" unicode="&#xae;" horiz-adv-x="815" 
d="M505 710q99 0 175.5 -48.5t113.5 -132t23 -182.5q-14 -97 -73.5 -179t-149 -130t-186.5 -48q-98 0 -174.5 48.5t-113.5 132t-23 182.5q13 97 73 179t149 130t186 48zM505 678q-88 0 -168.5 -44t-134.5 -120t-67 -166q-12 -89 20 -164t99.5 -118t154.5 -43t167.5 43.5
t135 120t67.5 166.5q12 89 -20.5 164t-100 118t-153.5 43zM330 534h154q50 0 77.5 -27.5t21.5 -70.5q-4 -25 -18 -44.5t-38 -32t-54 -14.5l70 -152q2 -3 6 -3l34 -3l-3 -17h-55q-4 0 -5 3l-80 170h-62l-20 -144q-1 -8 7 -9l38 -3l-2 -17h-122l2 13q1 4 5 5l27 2q10 1 12 11
l42 303q2 8 -6 9l-28 2q-5 1 -4 6zM402 509l-21 -143h80q11 0 22 2t20 6.5t17 10.5t13.5 14.5t9.5 18.5t6 22q5 34 -13 52.5t-54 18.5h-46z" />
    <glyph glyph-name="macron" unicode="&#xaf;" horiz-adv-x="358" 
d="M397 609h-264l4 33h264z" />
    <glyph glyph-name="degree" unicode="&#xb0;" horiz-adv-x="326" 
d="M265 744q49 0 78.5 -35t23.5 -84q-7 -46 -45 -79.5t-85 -33.5q-32 0 -57 16t-37 43.5t-7 59.5q6 47 44 80t85 33zM266 716q-35 0 -63 -26t-34 -65q-3 -24 5 -43.5t24.5 -30.5t38.5 -11q34 0 62.5 26t33.5 65q3 18 -1 34t-13.5 27t-23 17.5t-29.5 6.5z" />
    <glyph glyph-name="plusminus" unicode="&#xb1;" horiz-adv-x="504" 
d="M322 364h186l-5 -37h-187l-25 -181h-37l26 181h-187l5 37h187l25 181h37zM456 -8h-410l5 36h410z" />
    <glyph glyph-name="twosuperior" unicode="&#xb2;" horiz-adv-x="293" 
d="M247 746q31 0 55 -11.5t33 -31.5q35 -71 -81 -204q-39 -44 -133 -129l147 1q10 0 12 9l9 43h27l-11 -78h-238l3 21l1 4q98 85 150 147q102 115 80 172q-12 30 -55 31q-29 0 -54 -15t-38 -44l-36 9q15 35 52 55.5t77 20.5z" />
    <glyph glyph-name="threesuperior" unicode="&#xb3;" horiz-adv-x="316" 
d="M249 746q50 0 81.5 -27.5t24.5 -74.5q-3 -20 -13 -37t-27 -30t-40 -21q33 -11 49 -38.5t11 -65.5q-8 -55 -50.5 -83.5t-97.5 -28.5q-62 0 -107 32l15 21q41 -26 89 -26q44 0 74.5 22t36.5 70q6 41 -15 62.5t-64 21.5h-43l4 27l41 -1q40 0 66.5 20.5t31.5 57.5
q5 36 -14.5 54.5t-54.5 18.5q-37 0 -72 -22q-4 -2 -5 -6l-11 -53h-28l10 72q0 1 2 4q48 31 106 31z" />
    <glyph glyph-name="acute" unicode="&#xb4;" horiz-adv-x="249" 
d="M169 577h-41l121 142h55z" />
    <glyph glyph-name="paragraph" unicode="&#xb6;" horiz-adv-x="556" 
d="M602 665l-68 -5q-12 -2 -13 -13l-102 -726h-45l104 742h-108l-104 -742h-124l4 31q0 4 5 4l65 6q11 2 13 13l51 353q-85 5 -128.5 56t-31.5 132q11 81 71 131.5t150 52.5h266z" />
    <glyph glyph-name="periodcentered" unicode="&#xb7;" horiz-adv-x="154" 
d="M122 339q9 0 16 -4.5t10 -12t2 -15.5q-1 -6 -4 -11t-7 -8.5t-9.5 -5.5t-11.5 -2q-13 0 -21 9.5t-6 22.5q2 11 11 19t20 8z" />
    <glyph glyph-name="cedilla" unicode="&#xb8;" horiz-adv-x="246" 
d="M140 5l-31 -61q9 0 17 -3q27 -5 42.5 -25.5t11.5 -47.5q-3 -19 -16.5 -35.5t-34.5 -26t-45 -9.5q-38 0 -62 23l11 24q22 -19 49 -19q22 0 39 13t22 36q4 25 -11 37t-38 13q-11 0 -23 -2l40 91z" />
    <glyph glyph-name="onesuperior" unicode="&#xb9;" horiz-adv-x="218" 
d="M230 740l-51 -359q-1 -9 8 -10l37 -3l-3 -23h-137l3 19q0 4 4 4l37 3q10 1 11 11l43 306q1 5 -1.5 6t-6.5 -1l-51 -31l-13 24l86 54h34z" />
    <glyph glyph-name="ordmasculine" unicode="&#xba;" horiz-adv-x="397" 
d="M295 706q69 0 105 -45t26 -116q-10 -70 -57 -113.5t-114 -43.5q-69 0 -105 45t-26 117q10 69 57 112.5t114 43.5zM297 685q-56 0 -94.5 -38t-47.5 -102q-9 -63 18 -99t81 -36q55 0 94 38t48 102q8 62 -19 98.5t-80 36.5z" />
    <glyph glyph-name="guillemotright" unicode="&#xbb;" horiz-adv-x="468" 
d="M247 252l-162 -175h-45l160 175l-110 174h43zM457 252l-163 -175h-44l159 175l-109 174h42z" />
    <glyph glyph-name="onequarter" unicode="&#xbc;" horiz-adv-x="748" 
d="M219 -17h-46l464 734h45zM257 700l-50 -359q-2 -9 7 -10l37 -3l-3 -23h-136l2 19q1 4 5 4l37 3q10 1 11 11l43 306q1 5 -2 6t-6 -1l-51 -31l-13 24l86 54h33zM496 121h130l26 167q1 4 5 4h28l-24 -171h56l-3 -25h-56l-9 -62q-1 -8 7 -9l38 -3l-3 -22h-134l3 18q0 4 4 4
l36 3q10 1 11 11l9 60h-169l2 19l169 280h39z" />
    <glyph glyph-name="onehalf" unicode="&#xbd;" horiz-adv-x="792" 
d="M219 -17h-46l464 734h45zM257 700l-50 -360q-2 -9 7 -9l37 -3l-3 -23h-136l2 19q1 4 5 4l37 3q10 1 11 11l43 306q1 4 -2 5.5t-7 -0.5l-50 -31l-13 24l86 54h33zM687 401q31 0 55 -11.5t33 -32.5q35 -70 -81 -203q-39 -44 -133 -129l147 1q10 0 12 9l9 43h27l-11 -78
h-238l3 21l1 3q98 86 150 148q102 115 80 172q-12 30 -55 30q-19 1 -36 -5t-32 -20t-24 -33l-36 8q10 24 31.5 42t46.5 26.5t51 8.5z" />
    <glyph glyph-name="threequarters" unicode="&#xbe;" horiz-adv-x="791" 
d="M257 -17h-45l464 734h45zM263 706q50 0 81.5 -27.5t25.5 -74.5q-5 -31 -25.5 -53.5t-54.5 -34.5q33 -11 49 -38.5t10 -65.5q-7 -55 -50 -83.5t-97 -28.5q-62 0 -108 32l16 21q40 -26 89 -26q43 0 73.5 22t37.5 70q6 41 -15 62.5t-65 21.5h-43l4 27l41 -1q41 0 67 20.5
t31 57.5q6 36 -13.5 54.5t-54.5 18.5q-37 0 -72 -22q-4 -2 -5 -6l-12 -53h-27l10 72q0 1 2 4q48 31 105 31zM539 121h130l26 167q1 4 5 4h28l-24 -171h57l-4 -25h-56l-9 -62q-1 -8 7 -9l38 -3l-3 -22h-134l3 18q0 4 4 4l37 3q9 1 11 11l8 60h-169l2 19l169 280h40z" />
    <glyph glyph-name="questiondown" unicode="&#xbf;" horiz-adv-x="432" 
d="M423 511q13 0 21 -10t6 -23q-1 -7 -5.5 -13t-11.5 -10t-15 -4q-13 0 -21 10t-6 23q2 11 11 19t21 8zM416 294l-8 -60q-5 -44 -35.5 -73.5t-120.5 -74.5q-71 -35 -103 -55.5t-45 -40.5t-17 -53q-7 -48 28.5 -77t104.5 -29q59 0 105 23l23 99h28l-17 -120q-60 -38 -142 -38
q-88 0 -137.5 41t-40.5 106q5 39 20.5 63t52.5 49.5t113 64.5q83 41 108.5 63.5t31.5 59.5l8 52h43z" />
    <glyph glyph-name="Agrave" unicode="&#xc0;" horiz-adv-x="760" 
d="M519 777h-40l-94 142h53zM680 35l56 -5l-4 -30h-205l3 25q1 4 5 4l74 7q7 0 12 5.5t3 13.5l-45 162h-347l-99 -180l90 -7l-5 -30h-190l4 26q0 4 4 5l47 4q6 0 10 7l363 657l42 2zM252 254h318l-104 387z" />
    <glyph glyph-name="Aacute" unicode="&#xc1;" horiz-adv-x="760" 
d="M501 777h-42l121 142h55zM680 35l56 -5l-4 -30h-205l3 25q1 4 5 4l74 7q7 0 12 5.5t3 13.5l-45 162h-347l-99 -180l90 -7l-5 -30h-190l4 26q0 4 4 5l47 4q6 0 10 7l363 657l42 2zM252 254h318l-104 387z" />
    <glyph glyph-name="Acircumflex" unicode="&#xc2;" horiz-adv-x="760" 
d="M619 777h-40l-73 114l-105 -114h-42l122 142h56zM680 35l56 -5l-4 -30h-205l3 25q1 4 5 4l74 7q7 0 12 5.5t3 13.5l-45 162h-347l-99 -180l90 -7l-5 -30h-190l4 26q0 4 4 5l47 4q6 0 10 7l363 657l42 2zM252 254h318l-104 387z" />
    <glyph glyph-name="Atilde" unicode="&#xc3;" horiz-adv-x="760" 
d="M596 865l33 -10q-9 -28 -28 -44.5t-42 -18.5q-29 -3 -66 17q-6 4 -16.5 9.5t-17 9t-13.5 6t-12 2.5q-19 -1 -37 -45l-33 11q22 63 63 63q7 0 14.5 -1.5t16 -5t13.5 -6t15 -8t13 -6.5q34 -18 54 -15q25 3 43 42zM680 35l56 -5l-4 -30h-205l3 25q1 4 5 4l74 7q7 0 12 5.5
t3 13.5l-45 162h-347l-99 -180l90 -7l-5 -30h-190l4 26q0 4 4 5l47 4q6 0 10 7l363 657l42 2zM252 254h318l-104 387z" />
    <glyph glyph-name="Adieresis" unicode="&#xc4;" horiz-adv-x="760" 
d="M426 865q12 0 20 -9.5t6 -22.5q-1 -10 -10 -18t-20 -8q-13 0 -20.5 9.5t-5.5 22.5q1 10 10 18t20 8zM574 865q13 0 20.5 -9.5t5.5 -22.5q-1 -10 -10 -18t-20 -8q-8 0 -14.5 4.5t-10 11.5t-1.5 16q1 10 10 18t20 8zM680 35l56 -5l-4 -30h-205l3 25q1 4 5 4l74 7
q7 0 12 5.5t3 13.5l-45 162h-347l-99 -180l90 -7l-5 -30h-190l4 26q0 4 4 5l47 4q6 0 10 7l363 657l42 2zM252 254h318l-104 387z" />
    <glyph glyph-name="Aring" unicode="&#xc5;" horiz-adv-x="760" 
d="M510 940q41 0 65 -29t19 -69q-6 -38 -36.5 -65.5t-69.5 -27.5q-41 0 -65 29t-19 69q4 25 19 46.5t38.5 34t48.5 12.5zM511 913q-18 0 -34 -9t-27 -25.5t-14 -36.5q-2 -19 4 -34t18.5 -23.5t28.5 -8.5q27 0 49 20.5t26 50.5q4 29 -11 47.5t-40 18.5zM680 35l56 -5l-4 -30
h-205l3 25q1 4 5 4l74 7q7 0 12 5.5t3 13.5l-45 162h-347l-99 -180l90 -7l-5 -30h-190l4 26q0 4 4 5l47 4q6 0 10 7l363 657l42 2zM252 254h318l-104 387z" />
    <glyph glyph-name="AE" unicode="&#xc6;" horiz-adv-x="792" 
d="M457 700h378q7 0 6 -7l-17 -122h-29l5 83q1 9 -9 9h-276l-40 -289h243l-5 -35h-243l-43 -302h294q11 0 13 12l18 80h29l-17 -125q-1 -4 -6 -4h-463l3 26q1 4 5 4l66 6q11 1 13 12l24 169h-174l-99 -180l85 -7l-4 -30h-186l4 26q0 4 4 5l47 4q6 0 10 7zM252 254h159
l54 387z" />
    <glyph glyph-name="Ccedilla" unicode="&#xc7;" horiz-adv-x="650" 
d="M490 709q117 0 193 -63q2 -1 2 -4l-17 -117h-29l6 96q1 4 -1 8q-65 43 -155 43q-131 0 -222.5 -88t-112.5 -237q-20 -147 46 -233.5t196 -86.5q114 0 208 71l18 -32q-99 -76 -229 -76q-27 0 -57 5l-25 -51q9 0 17 -3q27 -5 42.5 -25.5t11.5 -47.5q-5 -30 -32.5 -50.5
t-63.5 -20.5q-39 0 -62 23l10 24q23 -19 50 -19q22 0 39 13t22 36q3 25 -11.5 37t-38.5 13q-10 0 -23 -2l36 78q-112 27 -166.5 121.5t-35.5 230.5q22 160 127.5 258.5t256.5 98.5z" />
    <glyph glyph-name="Egrave" unicode="&#xc8;" horiz-adv-x="579" 
d="M457 777h-40l-94 142h53zM172 700h442q7 0 6 -7l-17 -122h-29l5 83q1 9 -9 9h-276l-40 -289h243l-5 -35h-243l-43 -302h294q4 0 8 3.5t5 8.5l18 80h29l-17 -125q-1 -4 -6 -4h-463l3 26q1 4 5 4l66 6q4 0 8 4t5 8l85 606q1 10 -8 11l-64 5q-6 0 -5 7z" />
    <glyph glyph-name="Eacute" unicode="&#xc9;" horiz-adv-x="579" 
d="M439 777h-41l121 142h54zM172 700h442q7 0 6 -7l-17 -122h-29l5 83q1 9 -9 9h-276l-40 -289h243l-5 -35h-243l-43 -302h294q4 0 8 3.5t5 8.5l18 80h29l-17 -125q-1 -4 -6 -4h-463l3 26q1 4 5 4l66 6q4 0 8 4t5 8l85 606q1 10 -8 11l-64 5q-6 0 -5 7z" />
    <glyph glyph-name="Ecircumflex" unicode="&#xca;" horiz-adv-x="579" 
d="M558 777h-40l-73 114l-106 -114h-42l123 142h55zM172 700h442q7 0 6 -7l-17 -122h-29l5 83q1 9 -9 9h-276l-40 -289h243l-5 -35h-243l-43 -302h294q4 0 8 3.5t5 8.5l18 80h29l-17 -125q-1 -4 -6 -4h-463l3 26q1 4 5 4l66 6q4 0 8 4t5 8l85 607q1 9 -8 10l-64 5q-6 0 -5 7
z" />
    <glyph glyph-name="Edieresis" unicode="&#xcb;" horiz-adv-x="579" 
d="M364 865q13 0 20.5 -9.5t5.5 -22.5q-1 -10 -10 -18t-20 -8q-13 0 -20.5 9.5t-5.5 22.5q1 10 10 18t20 8zM512 865q13 0 20.5 -9.5t5.5 -22.5q-1 -10 -10 -18t-20 -8q-8 0 -14.5 4.5t-9.5 11.5t-2 16q2 10 10.5 18t19.5 8zM172 700h442q7 0 6 -7l-17 -122h-29l5 83
q1 9 -9 9h-276l-40 -289h243l-5 -35h-243l-43 -302h294q3 0 6 1.5t5 4.5t2 6l18 80h29l-17 -125q-1 -4 -6 -4h-463l3 26q1 4 5 4l66 6q4 0 8 4t5 8l85 606q1 10 -8 11l-64 5q-6 0 -5 7z" />
    <glyph glyph-name="Igrave" unicode="&#xcc;" horiz-adv-x="358" 
d="M318 777h-41l-94 142h53zM378 670l-71 -6q-11 -1 -13 -12l-85 -606q-1 -10 8 -10l71 -6l-4 -30h-210l3 26q1 4 5 4l67 6q3 0 6 2t5 4.5t2 5.5l85 606q2 10 -8 10l-65 6q-6 0 -5 7l3 23h211z" />
    <glyph glyph-name="Iacute" unicode="&#xcd;" horiz-adv-x="358" 
d="M300 777h-42l121 142h55zM378 670l-71 -6q-11 -1 -13 -12l-85 -606q-1 -10 8 -10l71 -6l-4 -30h-210l3 26q1 4 5 4l67 6q5 0 8.5 4t4.5 8l85 606q2 10 -8 10l-65 6q-6 0 -5 7l3 23h211z" />
    <glyph glyph-name="Icircumflex" unicode="&#xce;" horiz-adv-x="358" 
d="M418 777h-40l-73 114l-106 -114h-41l122 142h56zM378 670l-71 -6q-11 -1 -13 -12l-85 -606q-1 -10 8 -10l71 -6l-4 -30h-210l3 26q1 4 5 4l67 6q5 0 8.5 4t4.5 8l85 606q2 10 -8 10l-65 6q-6 0 -5 7l3 23h211z" />
    <glyph glyph-name="Idieresis" unicode="&#xcf;" horiz-adv-x="358" 
d="M224 865q13 0 20.5 -9.5t6.5 -22.5q-2 -10 -10.5 -18t-19.5 -8q-13 0 -20.5 9.5t-6.5 22.5q2 10 10.5 18t19.5 8zM373 865q12 0 20 -9.5t6 -22.5q-2 -10 -10.5 -18t-19.5 -8q-9 0 -15.5 4.5t-9.5 11.5t-2 16q2 10 10.5 18t20.5 8zM378 670l-71 -6q-11 -1 -13 -12
l-85 -606q-1 -10 8 -10l71 -6l-4 -30h-210l3 26q1 4 5 4l67 6q5 0 8.5 4t4.5 8l85 606q2 10 -8 10l-65 6q-6 0 -5 7l3 23h211z" />
    <glyph glyph-name="Eth" unicode="&#xd0;" horiz-adv-x="756" 
d="M172 700h290q152 0 230.5 -96t56.5 -257q-23 -159 -127.5 -253t-256.5 -94h-291l3 26q1 4 5 4l66 6q4 0 8 4t5 8l40 284h-107l5 36h107l40 286q1 10 -8 11l-64 5q-6 0 -5 7zM700 353q21 145 -45 227.5t-197 82.5h-91l-73 -6l-41 -289h153l-5 -36h-153l-41 -289l72 -6h89
q131 0 221.5 84t110.5 232z" />
    <glyph glyph-name="Ntilde" unicode="&#xd1;" horiz-adv-x="848" 
d="M641 865l33 -10q-10 -28 -29 -44.5t-42 -18.5q-29 -3 -65 17q-7 4 -17.5 9.5t-16.5 9t-13.5 6t-12.5 2.5q-19 -1 -37 -45l-32 11q22 63 63 63q6 0 13.5 -1.5t16 -5t14 -6t15 -8t12.5 -6.5q35 -18 54 -15q25 3 44 42zM874 670l-70 -6q-12 -1 -13 -12l-92 -652h-44
l-373 623l-82 -576q-1 -10 8 -10l81 -7l-5 -30h-215l3 26q1 4 5 4l66 6q11 1 13 12l85 606q2 10 -8 11l-64 5q-6 0 -5 7l3 23h123l375 -626l81 579q2 10 -7 11l-74 6q-7 1 -6 7l4 23h215z" />
    <glyph glyph-name="Ograve" unicode="&#xd2;" horiz-adv-x="783" 
d="M530 777h-40l-95 142h54zM489 709q152 0 231 -100t56 -262q-23 -160 -128.5 -258.5t-255.5 -98.5q-152 0 -230.5 100.5t-56.5 261.5q23 160 128.5 258.5t255.5 98.5zM488 672q-131 0 -222 -88t-112 -237q-14 -97 11 -169.5t84 -111.5t144 -39q131 0 222.5 88.5
t111.5 236.5q21 147 -44.5 233.5t-194.5 86.5z" />
    <glyph glyph-name="Oacute" unicode="&#xd3;" horiz-adv-x="783" 
d="M512 777h-42l121 142h55zM489 709q152 0 231 -100t56 -262q-23 -160 -128.5 -258.5t-255.5 -98.5q-152 0 -230.5 100.5t-56.5 261.5q23 160 128.5 258.5t255.5 98.5zM488 672q-131 0 -222 -88t-112 -237q-21 -147 44.5 -233.5t194.5 -86.5q131 0 222.5 88.5t111.5 236.5
q8 50 4.5 92.5t-15.5 78t-33.5 63.5t-50 47t-65.5 29t-79 10z" />
    <glyph glyph-name="Ocircumflex" unicode="&#xd4;" horiz-adv-x="783" 
d="M630 777h-40l-73 114l-106 -114h-41l122 142h56zM489 709q152 0 231 -100t56 -262q-23 -160 -128.5 -258.5t-255.5 -98.5q-152 0 -230.5 100.5t-56.5 261.5q23 160 128.5 258.5t255.5 98.5zM488 672q-131 0 -222 -88t-112 -237q-21 -147 44.5 -233.5t194.5 -86.5
q131 0 222.5 88.5t111.5 236.5q21 147 -44.5 233.5t-194.5 86.5z" />
    <glyph glyph-name="Otilde" unicode="&#xd5;" horiz-adv-x="783" 
d="M607 865l33 -10q-9 -28 -28 -44.5t-42 -18.5q-29 -3 -66 17q-6 4 -16.5 9.5t-17 9t-13.5 6t-12 2.5q-19 -1 -37 -45l-33 11q22 63 63 63q7 0 14.5 -1.5t16 -5t13.5 -6t15 -8t13 -6.5q34 -18 53 -15q25 3 44 42zM489 709q152 0 231 -100t56 -262q-23 -160 -128.5 -258.5
t-255.5 -98.5q-152 0 -230.5 100.5t-56.5 261.5q23 160 128.5 258.5t255.5 98.5zM488 672q-131 0 -222 -88t-112 -237q-14 -97 11 -169.5t84 -111.5t144 -39q86 0 157 39.5t117.5 113.5t59.5 172q21 147 -44.5 233.5t-194.5 86.5z" />
    <glyph glyph-name="Odieresis" unicode="&#xd6;" horiz-adv-x="783" 
d="M437 865q12 0 20 -9.5t6 -22.5q-2 -10 -10.5 -18t-19.5 -8q-13 0 -20.5 9.5t-6.5 22.5q2 10 10.5 18t20.5 8zM585 865q12 0 20 -9.5t6 -22.5q-2 -10 -10.5 -18t-19.5 -8q-13 0 -20.5 9.5t-5.5 22.5q1 10 10 18t20 8zM489 709q152 0 231 -100t56 -262
q-23 -160 -128.5 -258.5t-255.5 -98.5q-152 0 -230.5 100.5t-56.5 261.5q23 160 128.5 258.5t255.5 98.5zM488 672q-131 0 -222 -88t-112 -237q-14 -97 11 -169.5t84 -111.5t144 -39q131 0 222.5 88.5t111.5 236.5q21 147 -44.5 233.5t-194.5 86.5z" />
    <glyph glyph-name="multiply" unicode="&#xd7;" horiz-adv-x="410" 
d="M422 422l-150 -132l113 -131l-29 -26l-113 131l-150 -131l-24 26l151 131l-113 132l29 26l113 -131l150 131z" />
    <glyph glyph-name="Oslash" unicode="&#xd8;" horiz-adv-x="783" 
d="M651 750l-30 -66q89 -38 130.5 -127t24.5 -210q-23 -160 -128.5 -258.5t-255.5 -98.5q-47 0 -89 11l-23 -51h-50l30 65q-89 39 -130.5 127.5t-24.5 209.5q23 160 128.5 258.5t255.5 98.5q47 0 88 -10l24 51h50zM154 347q-15 -108 17.5 -185t105.5 -111l284 613
q-34 8 -73 8q-131 0 -222 -88t-112 -237zM727 352q16 109 -17 186t-106 111l-284 -613q34 -9 73 -9q131 0 222.5 88.5t111.5 236.5z" />
    <glyph glyph-name="Ugrave" unicode="&#xd9;" horiz-adv-x="833" 
d="M555 777h-40l-95 142h54zM858 670l-70 -6q-11 -1 -13 -12l-53 -382q-18 -126 -101 -203t-201 -77q-120 0 -182.5 78t-44.5 205l53 381q2 9 -8 10l-64 6q-6 0 -5 7l3 23h220l-4 -30l-81 -7q-11 -1 -13 -13l-53 -380q-16 -113 33.5 -178t148.5 -65q100 0 172.5 67t88.5 179
l54 380q1 9 -8 10l-88 7l5 30h215z" />
    <glyph glyph-name="Uacute" unicode="&#xda;" horiz-adv-x="833" 
d="M537 777h-42l121 142h55zM858 670l-70 -6q-11 -1 -13 -12l-53 -382q-18 -126 -101 -203t-201 -77q-120 0 -182.5 78t-44.5 205l53 381q2 9 -8 10l-64 6q-6 0 -5 7l3 23h220l-4 -30l-81 -7q-11 -1 -13 -13l-53 -380q-16 -113 33.5 -178t148.5 -65q100 0 172.5 67t88.5 179
l54 380q1 9 -8 10l-88 7l5 30h215z" />
    <glyph glyph-name="Ucircumflex" unicode="&#xdb;" horiz-adv-x="833" 
d="M655 777h-40l-73 114l-106 -114h-41l122 142h56zM858 670l-70 -6q-11 -1 -13 -12l-53 -382q-18 -126 -101 -203t-201 -77q-120 0 -182.5 78t-44.5 205l53 381q2 9 -8 10l-64 6q-6 0 -5 7l3 23h220l-4 -30l-81 -7q-11 -1 -13 -13l-53 -380q-16 -113 33.5 -178t148.5 -65
q100 0 172.5 67t88.5 179l54 380q1 9 -8 10l-88 7l5 30h215z" />
    <glyph glyph-name="Udieresis" unicode="&#xdc;" horiz-adv-x="833" 
d="M462 865q12 0 20 -9.5t6 -22.5q-1 -7 -5.5 -12.5t-11 -9.5t-13.5 -4q-13 0 -20.5 9.5t-5.5 22.5q1 10 9.5 18t20.5 8zM610 865q12 0 20 -9.5t6 -22.5q-1 -10 -10 -18t-20 -8q-9 0 -15.5 4.5t-9.5 11.5t-1 16q1 10 10 18t20 8zM858 670l-70 -6q-11 -1 -13 -12l-53 -382
q-18 -126 -101 -203t-201 -77q-120 0 -182.5 78t-44.5 205l53 381q2 9 -8 10l-64 6q-6 0 -5 7l3 23h220l-4 -30l-81 -7q-11 -1 -13 -13l-53 -380q-16 -113 33.5 -178t148.5 -65q100 0 172.5 67t88.5 179l54 380q1 9 -8 10l-87 7l4 30h215z" />
    <glyph glyph-name="Yacute" unicode="&#xdd;" horiz-adv-x="682" 
d="M462 777h-42l121 142h55zM749 670l-53 -5l-291 -414l-30 -205q-1 -10 8 -10l72 -6l-4 -30h-211l4 26q0 4 5 4l66 6q12 1 14 12l28 196l-178 418q-1 3 -6 4l-45 4q-6 0 -5 7l3 23h88l175 -408l248 353q5 7 3.5 13t-9.5 6l-75 7q-6 0 -5 7l3 22h199z" />
    <glyph glyph-name="Thorn" unicode="&#xde;" horiz-adv-x="627" 
d="M284 591h163q94 0 143.5 -52.5t37.5 -137.5q-12 -84 -75 -134.5t-157 -50.5h-164l-24 -169q-2 -10 8 -10l82 -7l-5 -30h-219l3 26q1 4 5 4l66 6q11 1 13 12l86 614q1 9 -8 10l-64 5q-6 1 -5 7l3 23h128zM279 554l-42 -301h162q49 0 88 18.5t63.5 52.5t30.5 81
q10 69 -27.5 109t-111.5 40h-163z" />
    <glyph glyph-name="germandbls" unicode="&#xdf;" horiz-adv-x="652" 
d="M454 750q91 0 138 -43t38 -114q-3 -21 -9.5 -36.5t-23.5 -33t-27.5 -26.5t-41.5 -33q-35 -28 -40 -65q-5 -41 30 -67l30 -21q29 -18 42 -28.5t28.5 -28t20 -37.5t0.5 -46q-11 -81 -82 -130.5t-177 -49.5q-53 0 -94 14l16 122h30l-6 -86q0 -7 5 -8q26 -5 57 -5
q85 1 139.5 40.5t63.5 107.5q3 20 0 35.5t-16.5 30t-25 23.5t-36.5 27q-21 14 -32 21q-48 35 -40 91q6 46 48 80q3 2 9 7q31 23 44.5 35t25 30.5t14.5 41.5q8 54 -26.5 85t-102.5 31q-69 0 -115 -36t-54 -98l-82 -580h-124l4 26q0 4 4 4l61 5q12 1 14 13l75 536
q11 76 69.5 121t148.5 45z" />
    <glyph glyph-name="agrave" unicode="&#xe0;" horiz-adv-x="630" 
d="M392 577h-40l-94 142h53zM372 510q85 1 171 -41q4 -1 3 -5l-50 -359q-11 -79 66 -80h3l-3 -25h-19q-48 0 -71 22.5t-18 65.5l3 20q-48 -57 -103.5 -87.5t-108.5 -30.5q-82 0 -127 68.5t-27 194.5q17 123 95 189.5t186 67.5zM375 479q-94 -1 -160.5 -60.5t-82.5 -170.5
q-15 -109 21.5 -167t102.5 -58q49 0 103 33.5t101 97.5l43 298q-63 27 -128 27z" />
    <glyph glyph-name="aacute" unicode="&#xe1;" horiz-adv-x="630" 
d="M375 577h-42l121 142h55zM372 510q85 1 171 -41q4 -1 3 -5l-50 -359q-11 -79 66 -80h3l-3 -25h-19q-48 0 -71 22.5t-18 65.5l3 20q-48 -57 -103.5 -87.5t-108.5 -30.5q-82 0 -127 68.5t-27 194.5q17 123 95 189.5t186 67.5zM375 479q-94 -1 -160.5 -60.5t-82.5 -170.5
q-15 -109 21.5 -167t102.5 -58q32 0 66 14t70.5 44t67.5 73l43 298q-63 27 -128 27z" />
    <glyph glyph-name="acircumflex" unicode="&#xe2;" horiz-adv-x="630" 
d="M493 577h-40l-73 114l-106 -114h-41l122 142h56zM372 510q85 1 171 -41q4 -1 3 -5l-50 -359q-11 -79 66 -80h3l-3 -25h-19q-48 0 -71 22.5t-18 65.5l3 20q-48 -57 -103.5 -87.5t-108.5 -30.5q-82 0 -127 68.5t-27 194.5q17 123 95 189.5t186 67.5zM375 479
q-94 -1 -160.5 -60.5t-82.5 -170.5q-15 -109 21.5 -167t102.5 -58q32 0 66 14t70.5 44t67.5 73l43 298q-63 27 -128 27z" />
    <glyph glyph-name="atilde" unicode="&#xe3;" horiz-adv-x="630" 
d="M470 665l33 -10q-9 -28 -28 -44.5t-43 -18.5q-29 -3 -65 17q-7 4 -17.5 9.5t-16.5 9t-13 6t-12 2.5q-19 -1 -37 -45l-33 11q22 63 63 63q7 0 14.5 -1.5t16 -5t13.5 -6t15 -8t13 -6.5q34 -18 53 -15q25 3 44 42zM372 510q85 1 171 -41q4 -1 3 -5l-50 -359q-11 -79 66 -80
h3l-3 -25h-19q-48 0 -71 23t-18 65l3 20q-48 -57 -103.5 -87.5t-108.5 -30.5q-82 0 -127 68.5t-27 194.5q17 123 95 189.5t186 67.5zM375 479q-94 -1 -160.5 -60.5t-82.5 -170.5q-15 -109 21.5 -167t102.5 -58q49 0 103 33.5t101 97.5l43 298q-63 27 -128 27z" />
    <glyph glyph-name="adieresis" unicode="&#xe4;" horiz-adv-x="630" 
d="M299 665q13 0 20.5 -9.5t6.5 -22.5q-2 -10 -10.5 -18t-20.5 -8t-20 9.5t-6 22.5q1 7 5.5 12.5t11 9.5t13.5 4zM447 665q13 0 21 -9.5t6 -22.5q-1 -7 -5.5 -12.5t-11 -9.5t-13.5 -4q-13 0 -20.5 9.5t-6.5 22.5q1 7 5.5 12.5t11 9.5t13.5 4zM372 510q85 1 171 -41
q4 -1 3 -5l-50 -359q-11 -79 66 -80h3l-3 -25h-19q-48 0 -71 22.5t-18 65.5l3 20q-48 -57 -103.5 -87.5t-108.5 -30.5q-82 0 -127 68.5t-27 194.5q17 123 95 189.5t186 67.5zM375 479q-94 -1 -160.5 -60.5t-82.5 -170.5q-15 -109 21.5 -167t102.5 -58q49 0 103 33.5
t101 97.5l43 298q-63 27 -128 27z" />
    <glyph glyph-name="aring" unicode="&#xe5;" horiz-adv-x="630" 
d="M384 740q27 0 47.5 -13.5t30 -36t5.5 -48.5q-5 -38 -36 -65.5t-70 -27.5q-40 0 -64.5 29t-18.5 69q5 39 36 66t70 27zM384 713q-26 0 -48 -20.5t-26 -50.5q-4 -29 11 -47.5t40 -18.5q27 0 48.5 20.5t26.5 50.5q2 19 -4 34t-18.5 23.5t-29.5 8.5zM372 510q85 1 171 -41
q4 -1 3 -5l-50 -359q-11 -79 66 -80h3l-3 -25h-19q-48 0 -71 22.5t-18 65.5l3 20q-48 -57 -103.5 -87.5t-108.5 -30.5q-82 0 -127 68.5t-27 194.5q11 82 52.5 141t100 87t128.5 29zM375 479q-94 -1 -160.5 -60.5t-82.5 -170.5q-15 -109 21.5 -167t102.5 -58q49 0 103 33.5
t101 97.5l43 298q-63 27 -128 27z" />
    <glyph glyph-name="ae" unicode="&#xe6;" horiz-adv-x="940" 
d="M756 510q86 0 135.5 -45.5t46.5 -114.5q-3 -127 -210 -164q-77 -13 -195 -15q7 -71 48.5 -110.5t108.5 -39.5q105 0 179 67l17 -28q-23 -21 -52.5 -36.5t-67.5 -24.5t-78 -9q-74 0 -124 38.5t-66 104.5q-125 -143 -246 -143q-85 0 -132 68.5t-29 194.5q17 123 95 189.5
t186 67.5q85 1 171 -41q4 -1 3 -4l-13 -90q35 64 93 99.5t130 35.5zM754 481q-84 0 -143 -61t-74 -161q-4 -30 -4 -58q112 2 185 15q175 31 179 137q2 56 -37 92t-106 36zM375 479q-94 -1 -160.5 -60.5t-82.5 -170.5q-15 -109 21.5 -167t102.5 -58q49 0 103 33.5t101 97.5
l43 298q-63 27 -128 27z" />
    <glyph glyph-name="ccedilla" unicode="&#xe7;" horiz-adv-x="502" 
d="M370 510q83 0 137 -44q3 -1 3 -4l-15 -108h-29l6 92q0 5 -4 7q-41 26 -99 26q-92 0 -157 -63t-80 -169q-14 -104 32 -165t137 -61q76 0 142 45l15 -29q-69 -47 -156 -47q-21 0 -41 3l-24 -49q9 0 17 -3q27 -5 42.5 -25.5t11.5 -47.5q-5 -30 -32.5 -50.5t-63.5 -20.5
q-38 0 -62 23l11 24q22 -19 49 -19q22 0 39 13t22 36q4 25 -11 37t-38 13q-11 0 -23 -2l34 77q-79 20 -117.5 88t-24.5 166q16 115 92.5 186t186.5 71z" />
    <glyph glyph-name="egrave" unicode="&#xe8;" horiz-adv-x="539" 
d="M393 577h-40l-94 142h53zM354 510q87 0 136 -45.5t47 -114.5q-4 -127 -211 -164q-76 -13 -194 -15q6 -71 47.5 -110.5t108.5 -39.5q106 0 180 67l16 -28q-23 -21 -52.5 -36.5t-67 -24.5t-77.5 -9q-105 0 -159 73t-37 190q16 116 87.5 186.5t175.5 70.5zM353 481
q-84 0 -143.5 -61t-73.5 -161q-4 -30 -4 -58q112 2 185 15q175 31 179 137q1 56 -37.5 92t-105.5 36z" />
    <glyph glyph-name="eacute" unicode="&#xe9;" horiz-adv-x="539" 
d="M376 577h-42l121 142h55zM354 510q87 0 136 -45.5t47 -114.5q-4 -127 -211 -164q-76 -13 -194 -15q6 -71 47.5 -110.5t108.5 -39.5q106 0 180 67l16 -28q-35 -32 -86 -51t-111 -19q-105 0 -159 73t-37 190q6 45 22 85t40 71.5t54.5 54t68 34.5t78.5 12zM353 481
q-84 0 -143.5 -61t-73.5 -161q-4 -30 -4 -58q112 2 185 15q175 31 179 137q1 56 -37.5 92t-105.5 36z" />
    <glyph glyph-name="ecircumflex" unicode="&#xea;" horiz-adv-x="539" 
d="M494 577h-40l-73 114l-106 -114h-41l122 142h56zM354 510q87 0 136 -45.5t47 -114.5q-4 -127 -211 -164q-76 -13 -194 -15q6 -71 47.5 -110.5t108.5 -39.5q106 0 180 67l16 -28q-35 -32 -86 -51t-111 -19q-105 0 -159 73t-37 190q16 116 87.5 186.5t175.5 70.5zM353 481
q-84 0 -143.5 -61t-73.5 -161q-4 -30 -4 -58q112 2 185 15q175 31 179 137q1 56 -37.5 92t-105.5 36z" />
    <glyph glyph-name="edieresis" unicode="&#xeb;" horiz-adv-x="539" 
d="M300 665q13 0 20.5 -9.5t6.5 -22.5q-2 -10 -10.5 -18t-20.5 -8t-20 9.5t-6 22.5q1 7 5.5 12.5t11 9.5t13.5 4zM448 665q13 0 21 -9.5t6 -22.5q-2 -10 -10.5 -18t-19.5 -8q-13 0 -20.5 9.5t-6.5 22.5q1 7 5.5 12.5t11 9.5t13.5 4zM354 510q87 0 136 -45.5t47 -114.5
q-4 -127 -211 -164q-76 -13 -194 -15q6 -71 47.5 -110.5t108.5 -39.5q106 0 180 67l16 -28q-17 -15 -38 -28t-46 -22.5t-54 -14.5t-59 -5q-105 0 -159 73t-37 190q16 116 87.5 186.5t175.5 70.5zM353 481q-84 0 -143.5 -61t-73.5 -161q-4 -30 -4 -58q112 2 185 15
q175 31 179 137q1 56 -37.5 92t-105.5 36z" />
    <glyph glyph-name="igrave" unicode="&#xec;" horiz-adv-x="341" 
d="M272 577h-40l-94 142h53zM144 499l106 6q7 0 6 -7l-54 -384q-12 -88 67 -89h6l-3 -25h-13q-55 0 -80.5 30t-18.5 85l49 344q1 10 -9 10l-60 3z" />
    <glyph glyph-name="iacute" unicode="&#xed;" horiz-adv-x="341" 
d="M254 577h-41l121 142h54zM144 499l106 6q7 0 6 -7l-54 -384q-12 -88 67 -89h6l-3 -25h-13q-55 0 -80.5 30t-18.5 85l49 344q1 10 -9 10l-60 3z" />
    <glyph glyph-name="icircumflex" unicode="&#xee;" horiz-adv-x="341" 
d="M373 577h-40l-73 114l-106 -114h-42l123 142h56zM144 499l106 6q7 0 6 -7l-54 -384q-12 -88 67 -89h6l-3 -25h-13q-55 0 -80.5 30t-18.5 85l49 344q1 10 -9 10l-60 3z" />
    <glyph glyph-name="idieresis" unicode="&#xef;" horiz-adv-x="341" 
d="M179 665q13 0 20.5 -9.5t6.5 -22.5q-2 -10 -10.5 -18t-20.5 -8t-20 9.5t-6 22.5q2 10 10.5 18t19.5 8zM327 665q13 0 20.5 -9.5t6.5 -22.5q-2 -10 -10.5 -18t-20.5 -8t-20 9.5t-6 22.5q2 10 10.5 18t19.5 8zM144 499l106 6q7 0 6 -7l-54 -384q-12 -88 67 -89h6l-3 -25
h-13q-55 0 -80.5 30t-18.5 85l49 344q1 10 -9 10l-60 3z" />
    <glyph glyph-name="eth" unicode="&#xf0;" horiz-adv-x="515" 
d="M536 676l-111 -50q17 -19 30 -41q61 -96 53 -225q-10 -158 -81 -258t-181 -108q-87 -7 -136 49.5t-43 155.5q6 95 65.5 157t151.5 69q65 5 111 -21.5t65 -77.5q4 26 4 55q3 121 -62 205q-8 11 -17 22l-155 -70l-13 23l149 68q-74 73 -187 87l8 32q131 -14 219 -101
l116 53zM245 28q74 6 129 67.5t78 163.5l-3 20q-11 59 -51.5 89t-103.5 25q-79 -6 -129.5 -60t-56.5 -138q-5 -83 32.5 -127.5t104.5 -39.5z" />
    <glyph glyph-name="ntilde" unicode="&#xf1;" horiz-adv-x="700" 
d="M538 665l33 -10q-10 -28 -28.5 -44.5t-42.5 -18.5q-29 -3 -65 17q-7 4 -17.5 9.5t-16.5 9t-13.5 6t-12.5 2.5q-19 -1 -37 -45l-32 11q22 63 63 63q7 0 14 -1.5t15.5 -5t14 -6t15 -8t12.5 -6.5q35 -18 54 -15q25 3 44 42zM472 510q73 0 110 -41.5t25 -125.5l-32 -229
q-13 -88 66 -89h3l-3 -25h-9q-56 0 -81.5 30t-17.5 85l32 226q19 138 -104 138q-58 0 -119.5 -33.5t-111.5 -99.5l-49 -346h-42l64 459q1 10 -8 10l-61 3l4 27l106 6q8 0 6 -7l-15 -107q53 60 114.5 89.5t122.5 29.5z" />
    <glyph glyph-name="ograve" unicode="&#xf2;" 
d="M410 577h-40l-94 142h53zM370 510q111 0 168.5 -72.5t41.5 -190.5q-16 -115 -92.5 -186t-186.5 -71q-112 0 -169.5 73t-40.5 190q16 115 92.5 186t186.5 71zM369 479q-92 0 -157 -63t-80 -169q-14 -103 32 -164.5t137 -61.5q92 0 157 63t80 169q15 103 -31.5 164.5
t-137.5 61.5z" />
    <glyph glyph-name="oacute" unicode="&#xf3;" 
d="M393 577h-42l121 142h55zM370 510q111 0 168.5 -72.5t41.5 -190.5q-16 -115 -92.5 -186t-186.5 -71q-112 0 -169.5 73t-40.5 190q16 115 92.5 186t186.5 71zM369 479q-60 0 -110.5 -28t-83.5 -81t-43 -123q-14 -103 32 -164.5t137 -61.5q92 0 157 63t80 169
q15 103 -31.5 164.5t-137.5 61.5z" />
    <glyph glyph-name="ocircumflex" unicode="&#xf4;" 
d="M511 577h-40l-73 114l-106 -114h-41l122 142h56zM370 510q111 0 168.5 -72.5t41.5 -190.5q-16 -115 -92.5 -186t-186.5 -71q-112 0 -169.5 73t-40.5 190q16 115 92.5 186t186.5 71zM369 479q-92 0 -157 -63t-80 -169q-14 -103 32 -164.5t137 -61.5q92 0 157 63t80 169
q10 68 -8 119.5t-59.5 79t-101.5 27.5z" />
    <glyph glyph-name="otilde" unicode="&#xf5;" 
d="M488 665l33 -10q-9 -28 -28 -44.5t-43 -18.5q-29 -3 -65 17q-7 4 -17.5 9.5t-16.5 9t-13 6t-12 2.5q-19 -1 -37 -45l-33 11q22 63 63 63q7 0 14.5 -1.5t16 -5t13.5 -6t15 -8t13 -6.5q34 -18 53 -15q25 3 44 42zM370 510q111 0 168.5 -72.5t41.5 -190.5
q-16 -115 -92.5 -186t-186.5 -71q-112 0 -169.5 73t-40.5 190q16 115 92.5 186t186.5 71zM369 479q-92 0 -157 -63t-80 -169q-14 -103 32 -164.5t137 -61.5q92 0 157 63t80 169q10 68 -8 119.5t-59.5 79t-101.5 27.5z" />
    <glyph glyph-name="odieresis" unicode="&#xf6;" 
d="M317 665q13 0 20.5 -9.5t6.5 -22.5q-2 -10 -10.5 -18t-20.5 -8t-19.5 9.5t-6.5 22.5q2 10 10.5 18t19.5 8zM466 665q12 0 20 -9.5t6 -22.5q-2 -10 -10.5 -18t-19.5 -8q-13 0 -20.5 9.5t-6.5 22.5q2 10 10.5 18t20.5 8zM370 510q111 0 168.5 -72.5t41.5 -190.5
q-16 -115 -92.5 -186t-186.5 -71q-112 0 -169.5 73t-40.5 190q16 115 92.5 186t186.5 71zM369 479q-92 0 -157 -63t-80 -169q-14 -103 32 -164.5t137 -61.5q92 0 157 63t80 169q15 103 -31.5 164.5t-137.5 61.5z" />
    <glyph glyph-name="divide" unicode="&#xf7;" horiz-adv-x="546" 
d="M348 548q14 0 21.5 -10t6.5 -23q-2 -11 -11 -19t-21 -8q-13 0 -21 10t-6 23q1 11 10.5 19t20.5 8zM545 329h-452l6 37h452zM300 207q9 0 16 -4.5t10 -12t2 -16.5q-2 -11 -11 -19t-21 -8q-9 0 -15.5 4.5t-9.5 12t-2 16.5q2 11 11 19t20 8z" />
    <glyph glyph-name="oslash" unicode="&#xf8;" 
d="M496 550l-28 -59q65 -28 94.5 -92t17.5 -152q-16 -115 -92.5 -186t-186.5 -71q-33 0 -63 7l-21 -47h-42l27 59q-64 28 -94 92.5t-17 151.5q16 115 92.5 186t186.5 71q33 0 62 -7l22 47h42zM132 247q-10 -75 12.5 -129t71.5 -79l202 434q-23 6 -49 6q-92 0 -157 -63
t-80 -169zM538 253q11 75 -11.5 129t-72.5 79l-202 -434q23 -6 49 -6q92 0 157 63t80 169z" />
    <glyph glyph-name="ugrave" unicode="&#xf9;" horiz-adv-x="690" 
d="M456 577h-40l-95 142h54zM631 500l-55 -392q-11 -81 52 -83h7l-3 -25h-26q-41 1 -60 25.5t-13 70.5l2 12q-36 -40 -76.5 -67t-80.5 -39.5t-80 -11.5q-73 0 -110 41.5t-25 125.5l42 299q1 9 -8 10l-72 6l4 28h117q7 0 6 -7l-47 -334q-19 -138 104 -138q58 0 119.5 33.5
t111.5 99.5l49 346h42z" />
    <glyph glyph-name="uacute" unicode="&#xfa;" horiz-adv-x="690" 
d="M438 577h-42l121 142h55zM631 500l-55 -392q-11 -81 52 -83h7l-3 -25h-26q-41 1 -60 25.5t-13 70.5l2 12q-36 -40 -76.5 -67t-80.5 -39.5t-80 -11.5q-73 0 -110 41.5t-25 125.5l42 299q1 9 -8 10l-72 6l4 28h117q7 0 6 -7l-47 -334q-19 -138 104 -138q58 0 119.5 33.5
t111.5 99.5l49 346h42z" />
    <glyph glyph-name="ucircumflex" unicode="&#xfb;" horiz-adv-x="690" 
d="M556 577h-40l-73 114l-106 -114h-41l122 142h56zM631 500l-55 -392q-11 -81 52 -83h7l-3 -25h-26q-41 1 -60 25.5t-13 70.5l2 12q-36 -40 -76.5 -67t-80.5 -39.5t-80 -11.5q-73 0 -110 41.5t-25 125.5l42 299q1 9 -8 10l-72 6l4 28h117q7 0 6 -7l-47 -334
q-19 -138 104 -138q58 0 119.5 33.5t111.5 99.5l49 346h42z" />
    <glyph glyph-name="udieresis" unicode="&#xfc;" horiz-adv-x="690" 
d="M363 665q12 0 20 -9.5t6 -22.5q-2 -10 -10.5 -18t-19.5 -8q-13 0 -20.5 9.5t-5.5 22.5q1 10 10 18t20 8zM511 665q13 0 20.5 -9.5t5.5 -22.5q-1 -10 -10 -18t-20 -8q-13 0 -20.5 9.5t-5.5 22.5q1 7 5 12.5t10.5 9.5t14.5 4zM631 500l-55 -392q-11 -81 52 -83h7l-3 -25
h-26q-41 1 -60 25.5t-13 70.5l2 12q-53 -59 -114.5 -89t-122.5 -29q-73 0 -110 41.5t-25 125.5l42 299q1 9 -8 10l-72 6l4 28h117q7 0 6 -7l-47 -334q-19 -138 104 -138q58 0 119.5 33.5t111.5 99.5l49 346h42z" />
    <glyph glyph-name="yacute" unicode="&#xfd;" horiz-adv-x="550" 
d="M368 577h-42l121 142h55zM277 42l185 344q29 53 64 83.5t70 30.5h6l-2 -25q-23 0 -53 -28.5t-56 -76.5l-243 -450q-29 -53 -72 -83t-92 -30l-23 -1l3 24l12 2q41 2 80 30t65 76l34 62h-8l-116 463q-1 4 -7 5l-33 4q-6 0 -5 6l3 22h76z" />
    <glyph glyph-name="thorn" unicode="&#xfe;" horiz-adv-x="619" 
d="M178 745l107 6q7 0 6 -7l-44 -309q81 75 175 75q89 0 141 -69t35 -194q-16 -115 -80 -185.5t-149 -71.5q-50 0 -94.5 28t-73.5 83l-36 -251q-1 -10 8 -10l73 -6l-4 -28h-193l3 24q1 4 5 4l53 5q12 2 13 13l120 853q2 10 -8 10l-60 3zM411 477q-91 0 -169 -85l-36 -246
q25 -63 66 -94t88 -31q68 0 124.5 61.5t71.5 169.5t-28 166.5t-117 58.5z" />
    <glyph glyph-name="ydieresis" unicode="&#xff;" horiz-adv-x="550" 
d="M293 665q13 0 20.5 -9.5t5.5 -22.5q-1 -10 -10 -18t-20 -8q-13 0 -20.5 9.5t-5.5 22.5q1 10 10 18t20 8zM441 665q13 0 20.5 -9.5t5.5 -22.5q-1 -10 -10 -18t-20 -8q-13 0 -20.5 9.5t-5.5 22.5q1 10 10 18t20 8zM602 500l-2 -25q-23 0 -53 -28.5t-56 -76.5l-243 -450
q-29 -53 -72 -83t-92 -30l-23 -1l3 24l12 2q41 2 80 30t65 76l34 62h-8l-116 463q-1 4 -7 5l-33 4q-6 0 -5 6l3 22h76l112 -458l185 344q29 54 64 84t70 30h6z" />
    <glyph glyph-name="Amacron" unicode="&#x100;" horiz-adv-x="760" 
d="M626 809h-264l5 33h264zM680 35l56 -5l-4 -30h-205l3 25q1 4 5 4l74 7q7 0 12 5.5t3 13.5l-45 162h-347l-99 -180l90 -7l-5 -30h-190l4 26q0 4 4 5l47 4q6 0 10 7l363 657l42 2zM252 254h318l-104 387z" />
    <glyph glyph-name="amacron" unicode="&#x101;" horiz-adv-x="630" 
d="M500 609h-264l4 33h264zM372 510q85 1 171 -41q4 -1 3 -5l-50 -359q-11 -79 66 -80h3l-3 -25h-19q-48 0 -71 22.5t-18 65.5l3 20q-48 -57 -103.5 -87.5t-108.5 -30.5q-82 0 -127 68.5t-27 194.5q17 123 95 189.5t186 67.5zM375 479q-61 -1 -111 -26t-85.5 -77.5
t-46.5 -127.5q-15 -109 21.5 -167t102.5 -58q49 0 103 33.5t101 97.5l43 298q-63 27 -128 27z" />
    <glyph glyph-name="Abreve" unicode="&#x102;" horiz-adv-x="760" 
d="M598 904l35 -3q-7 -52 -48 -88t-93 -36q-54 0 -86 37.5t-25 89.5l36 -3q-6 -41 16 -68t59 -27q38 0 69 28.5t37 69.5zM680 35l56 -5l-4 -30h-205l3 25q1 4 5 4l74 7q7 0 12 5.5t3 13.5l-45 162h-347l-99 -180l90 -7l-5 -30h-190l4 26q0 4 4 5l47 3q6 1 10 8l363 657l42 2
zM252 254h318l-104 387z" />
    <glyph glyph-name="abreve" unicode="&#x103;" horiz-adv-x="630" 
d="M471 704l36 -3q-5 -34 -25.5 -62.5t-51.5 -45t-65 -16.5q-53 0 -85.5 37.5t-24.5 89.5l35 -3q-6 -41 16.5 -68t58.5 -27q38 0 69.5 28.5t36.5 69.5zM372 510q85 1 171 -41q4 -1 3 -5l-50 -359q-11 -79 66 -80h3l-3 -25h-19q-48 0 -71 22.5t-18 65.5l3 20
q-48 -57 -103.5 -87.5t-108.5 -30.5q-82 0 -127 68.5t-27 194.5q17 123 95 189.5t186 67.5zM375 479q-94 -1 -160.5 -60.5t-82.5 -170.5q-15 -109 21.5 -167t102.5 -58q49 0 103 33.5t101 97.5l43 298q-63 27 -128 27z" />
    <glyph glyph-name="Aogonek" unicode="&#x104;" horiz-adv-x="760" 
d="M680 35l56 -5l-4 -30h-162q-67 -41 -76 -100q-2 -14 0 -25.5t7.5 -19.5t14 -12t20.5 -4q23 -1 61 20l6 -30q-42 -21 -73 -19q-38 0 -57.5 24.5t-14.5 61.5q7 60 68 105l4 24q1 4 5 4l74 7q7 0 12 5.5t3 13.5l-45 162h-347l-99 -180l90 -7l-5 -30h-190l4 26q0 4 4 5l47 4
q6 0 10 7l363 657l42 2zM252 254h318l-104 387z" />
    <glyph glyph-name="aogonek" unicode="&#x105;" horiz-adv-x="630" 
d="M372 510q85 1 171 -41q4 -1 3 -5l-50 -359q-11 -79 66 -80h3l-3 -25h-3q-22 0 -45 4q-76 -42 -85 -104q-4 -28 7.5 -44.5t34.5 -16.5q23 -1 61 20l6 -30q-42 -21 -73 -19q-25 0 -43 12t-25 31t-4 43q4 33 26.5 64t64.5 55q-36 20 -30 74l3 19q-48 -57 -103.5 -87.5
t-108.5 -30.5q-82 0 -127 68.5t-27 194.5q17 123 95 189.5t186 67.5zM375 479q-94 -1 -160.5 -60.5t-82.5 -170.5q-15 -109 21.5 -167t102.5 -58q32 0 66 14t70.5 44t67.5 73l43 298q-63 27 -128 27z" />
    <glyph glyph-name="Cacute" unicode="&#x106;" horiz-adv-x="650" 
d="M500 777h-42l121 142h55zM490 709q117 0 193 -63q2 -1 2 -4l-17 -117h-29l6 96q1 4 -1 8q-65 43 -155 43q-131 0 -222.5 -88t-112.5 -237q-20 -147 46 -233.5t196 -86.5q114 0 208 71l18 -32q-99 -76 -229 -76q-152 0 -231 100.5t-56 261.5q22 160 127.5 258.5
t256.5 98.5z" />
    <glyph glyph-name="cacute" unicode="&#x107;" horiz-adv-x="502" 
d="M372 577h-41l121 142h54zM370 510q83 0 137 -44q3 -1 3 -4l-15 -108h-29l6 92q0 5 -4 7q-41 26 -99 26q-92 0 -157 -63t-80 -169q-14 -104 32 -165t137 -61q76 0 142 45l15 -29q-69 -47 -157 -47q-112 0 -169.5 73t-40.5 190q16 115 92.5 186t186.5 71z" />
    <glyph glyph-name="Cdotaccent" unicode="&#x10a;" horiz-adv-x="650" 
d="M499 865q8 0 14.5 -4.5t9.5 -11.5t2 -16q-1 -10 -10 -18t-20 -8q-13 0 -20.5 9.5t-5.5 22.5q1 10 10 18t20 8zM490 709q117 0 193 -63q2 -1 2 -4l-17 -117h-29l6 96q1 4 -1 8q-65 43 -155 43q-131 0 -222.5 -88t-112.5 -237q-20 -147 46 -233.5t196 -86.5q114 0 208 71
l18 -32q-99 -76 -229 -76q-152 0 -231 100.5t-56 261.5q22 160 127.5 258.5t256.5 98.5z" />
    <glyph glyph-name="cdotaccent" unicode="&#x10b;" horiz-adv-x="502" 
d="M374 665q8 0 14.5 -4.5t9.5 -11.5t2 -16q-2 -10 -10.5 -18t-19.5 -8q-13 0 -20.5 9.5t-5.5 22.5q1 10 9.5 18t20.5 8zM370 510q83 0 137 -44q3 -1 3 -4l-15 -108h-29l6 92q0 5 -4 7q-41 26 -99 26q-92 0 -157 -63t-80 -169q-14 -104 32 -165t137 -61q76 0 142 45l15 -29
q-69 -47 -157 -47q-112 0 -169.5 73t-40.5 190q16 115 92.5 186t186.5 71z" />
    <glyph glyph-name="Ccaron" unicode="&#x10c;" horiz-adv-x="650" 
d="M517 777h-56l-82 142h40l73 -114l106 114h41zM490 709q117 0 193 -63q2 -1 2 -4l-17 -117h-29l6 96q1 4 -1 8q-65 43 -155 43q-131 0 -222.5 -88t-112.5 -237q-20 -147 46 -233.5t196 -86.5q114 0 208 71l18 -32q-99 -76 -229 -76q-152 0 -231 100.5t-56 261.5
q22 160 127.5 258.5t256.5 98.5z" />
    <glyph glyph-name="ccaron" unicode="&#x10d;" horiz-adv-x="502" 
d="M389 577h-56l-82 142h40l73 -114l106 114h41zM370 510q83 0 137 -44q3 -1 3 -4l-15 -108h-29l6 92q0 5 -4 7q-41 26 -99 26q-92 0 -157 -63t-80 -169q-14 -104 32 -165t137 -61q76 0 142 45l15 -29q-69 -47 -157 -47q-112 0 -169.5 73t-40.5 190q16 115 92.5 186
t186.5 71z" />
    <glyph glyph-name="Dcaron" unicode="&#x10e;" horiz-adv-x="756" 
d="M516 777h-56l-83 142h41l73 -114l105 114h42zM172 700h290q152 0 230.5 -96t56.5 -257q-23 -159 -127.5 -253t-256.5 -94h-291l3 26q1 4 5 4l66 6q4 0 8 4t5 8l85 606q1 10 -8 11l-64 5q-6 0 -5 7zM367 663l-73 -6l-87 -614l72 -6h89q87 0 157 37t115.5 109t59.5 170
q10 72 -2 130.5t-43.5 98t-81.5 60.5t-115 21h-91z" />
    <glyph glyph-name="dcaron" unicode="&#x10f;" horiz-adv-x="639" 
d="M466 744l106 6q7 0 6 -7l-92 -658q-4 -29 13 -44.5t56 -15.5h3l-3 -25h-19q-48 0 -72 18t-19 51q-82 -79 -178 -79q-90 0 -142 69t-34 194q16 116 80 186.5t148 70.5q51 0 95 -28t74 -83l43 305q1 10 -8 10l-61 3zM704 750q24 0 29.5 -26.5t-7.5 -63.5q-14 -37 -35 -68
l-23 10q19 30 27 56q8 27 2 41h-2q-9 2 -14.5 9.5t-3.5 17.5q1 6 4.5 11.5t10 9t12.5 3.5zM329 479q-69 -1 -125 -62t-72 -169q-15 -108 28.5 -166.5t116.5 -58.5q91 0 170 85l35 246q-12 32 -30 56.5t-38 39t-41.5 22t-43.5 7.5z" />
    <glyph glyph-name="Dcroat" unicode="&#x110;" horiz-adv-x="756" 
d="M172 700h290q152 0 230.5 -96t56.5 -257q-23 -159 -127.5 -253t-256.5 -94h-291l3 26q1 4 5 4l66 6q4 0 8 4t5 8l40 284h-107l5 36h107l40 286q1 10 -8 11l-64 5q-6 0 -5 7zM700 353q21 145 -45 227.5t-197 82.5h-91l-73 -6l-41 -289h153l-5 -36h-153l-41 -289l72 -6h89
q131 0 221.5 84t110.5 232z" />
    <glyph glyph-name="dcroat" unicode="&#x111;" horiz-adv-x="623" 
d="M558 601l-72 -516q-2 -14 1 -25t11.5 -19t22.5 -12t34 -4h3l-3 -25h-19q-48 0 -72 18t-19 51q-82 -79 -178 -79q-90 0 -142 69t-34 194q16 116 80 186.5t148 70.5q51 0 95 -28t74 -83l28 202h-133l4 30h134l16 118l35 1q7 0 6 -7l-15 -112h91l-4 -30h-92zM447 108l35 246
q-25 63 -66 94t-87 31q-33 0 -64.5 -15.5t-58 -43.5t-46.5 -72.5t-28 -99.5q-15 -108 28.5 -166.5t116.5 -58.5q91 0 170 85z" />
    <glyph glyph-name="Emacron" unicode="&#x112;" horiz-adv-x="579" 
d="M564 809h-264l5 33h264zM172 700h442q7 0 6 -7l-17 -122h-29l5 83q1 9 -9 9h-276l-40 -289h243l-5 -35h-243l-43 -302h294q3 0 6 1.5t5 4.5t2 6l18 80h29l-17 -125q-1 -4 -6 -4h-463l3 26q1 4 5 4l66 6q4 0 8 4t5 8l85 606q1 10 -8 11l-64 5q-6 0 -5 7z" />
    <glyph glyph-name="emacron" unicode="&#x113;" horiz-adv-x="539" 
d="M501 609h-264l4 33h264zM354 510q87 0 136 -45.5t47 -114.5q-4 -127 -211 -164q-76 -13 -194 -15q6 -71 47.5 -110.5t108.5 -39.5q106 0 180 67l16 -28q-35 -32 -86 -51t-111 -19q-105 0 -159 73t-37 190q16 116 87.5 186.5t175.5 70.5zM353 481q-84 0 -143.5 -61
t-73.5 -161q-4 -30 -4 -58q112 2 185 15q175 31 179 137q1 56 -37.5 92t-105.5 36z" />
    <glyph glyph-name="Edotaccent" unicode="&#x116;" horiz-adv-x="579" 
d="M438 865q13 0 20.5 -9.5t5.5 -22.5q-1 -10 -10 -18t-20 -8q-13 0 -20.5 9.5t-5.5 22.5q2 10 10.5 18t19.5 8zM172 700h442q7 0 6 -7l-17 -122h-29l5 83q1 9 -9 9h-276l-40 -289h243l-5 -35h-243l-43 -302h294q3 0 6 1.5t5 4.5t2 6l18 80h29l-17 -125q-1 -4 -6 -4h-463
l3 26q1 4 5 4l66 6q4 0 8 4t5 8l85 606q1 10 -8 11l-64 5q-6 0 -5 7z" />
    <glyph glyph-name="edotaccent" unicode="&#x117;" horiz-adv-x="539" 
d="M374 665q9 0 15.5 -4.5t9.5 -11.5t2 -16q-2 -10 -10.5 -18t-20.5 -8t-19.5 9.5t-6.5 22.5q2 10 10.5 18t19.5 8zM354 510q87 0 136 -45.5t47 -114.5q-4 -127 -211 -164q-76 -13 -194 -15q6 -71 47.5 -110.5t108.5 -39.5q106 0 180 67l16 -28q-17 -15 -38 -28t-46 -22.5
t-54 -14.5t-59 -5q-105 0 -159 73t-37 190q16 116 87.5 186.5t175.5 70.5zM353 481q-84 0 -143.5 -61t-73.5 -161q-4 -30 -4 -58q112 2 185 15q175 31 179 137q1 56 -37.5 92t-105.5 36z" />
    <glyph glyph-name="Eogonek" unicode="&#x118;" horiz-adv-x="579" 
d="M172 700h442q7 0 6 -7l-17 -122h-29l5 83q1 9 -9 9h-276l-40 -289h243l-5 -35h-243l-43 -302h294q3 0 6 1.5t5 4.5t2 6l18 80h29l-17 -125q-1 -4 -6 -4h-46q-67 -41 -76 -100q-4 -28 7.5 -44.5t34.5 -16.5q23 -1 61 20l6 -30q-42 -21 -73 -19q-38 0 -57.5 24.5
t-14.5 61.5q7 61 67 104h-372l3 26q1 4 5 4l66 6q4 0 8 4t5 8l85 606q1 10 -8 11l-64 5q-6 0 -5 7z" />
    <glyph glyph-name="eogonek" unicode="&#x119;" horiz-adv-x="539" 
d="M354 510q87 0 136 -45.5t47 -114.5q-4 -127 -209 -163q-77 -14 -196 -16q6 -71 47.5 -110.5t108.5 -39.5q106 0 180 67l16 -28q-31 -29 -77 -49q-89 -42 -100 -111q-4 -28 7.5 -44.5t34.5 -16.5q23 -1 62 20l6 -30q-42 -21 -74 -19q-38 0 -57 24.5t-15 61.5q7 56 62 99
q-27 -5 -50 -5q-104 1 -156.5 74t-35.5 189q16 116 87.5 186.5t175.5 70.5zM353 481q-84 0 -143.5 -61t-73.5 -161q-4 -30 -4 -58q112 2 185 15q175 31 179 137q1 56 -37.5 92t-105.5 36z" />
    <glyph glyph-name="Ecaron" unicode="&#x11a;" horiz-adv-x="579" 
d="M456 777h-56l-82 142h40l73 -114l106 114h42zM172 700h442q7 0 6 -7l-17 -122h-29l5 83q1 9 -9 9h-276l-40 -289h243l-5 -35h-243l-43 -302h294q3 0 6 1.5t5 4.5t2 6l18 80h29l-17 -125q-1 -4 -6 -4h-463l3 26q1 4 5 4l66 6q4 0 8 4t5 8l85 606q1 10 -8 11l-64 5
q-6 0 -5 7z" />
    <glyph glyph-name="ecaron" unicode="&#x11b;" horiz-adv-x="539" 
d="M392 577h-55l-83 142h40l73 -114l106 114h42zM354 510q87 0 136 -45.5t47 -114.5q-4 -127 -211 -164q-76 -13 -194 -15q6 -71 47.5 -110.5t108.5 -39.5q106 0 180 67l16 -28q-35 -32 -86 -51t-111 -19q-105 0 -159 73t-37 190q6 45 22 85t40 71.5t54.5 54t68 34.5
t78.5 12zM353 481q-84 0 -143.5 -61t-73.5 -161q-4 -30 -4 -58q112 2 185 15q175 31 179 137q1 56 -37.5 92t-105.5 36z" />
    <glyph glyph-name="Gbreve" unicode="&#x11e;" horiz-adv-x="705" 
d="M593 904l36 -3q-8 -52 -49 -88t-93 -36q-53 0 -85.5 37.5t-25.5 89.5l36 -3q-6 -41 16 -68t59 -27q38 0 69 28.5t37 69.5zM489 709q114 0 215 -61q4 -1 3 -5l-16 -116h-30l7 92q0 5 -3 9q-87 44 -177 44q-80 0 -149 -36t-119.5 -111t-65.5 -178q-13 -97 12 -169.5
t84 -111.5t144 -39q123 0 213 81l24 166q1 9 -8 10l-179 9l4 31h227q2 0 4 -2t2 -5l-45 -317h-31l4 62q-96 -72 -221 -72q-150 0 -227.5 100.5t-54.5 261.5q10 69 35 127t62 100t83 71.5t97.5 44t105.5 14.5z" />
    <glyph glyph-name="gbreve" unicode="&#x11f;" horiz-adv-x="601" 
d="M472 704l35 -3q-4 -34 -24.5 -62.5t-51.5 -45t-65 -16.5q-54 0 -86 37.5t-25 89.5l36 -3q-6 -41 16 -68t59 -27q38 0 69 28.5t37 69.5zM372 510q85 1 171 -41q4 -1 3 -5l-64 -453q-7 -55 -29 -96t-53.5 -64.5t-68 -34t-77.5 -10.5q-85 0 -166 42l20 26q72 -37 143 -37
q74 0 125.5 42t64.5 135l13 90q-48 -55 -102.5 -84.5t-106.5 -29.5q-82 0 -127 68.5t-27 194.5q17 123 95 189.5t186 67.5zM375 479q-94 -1 -160.5 -60.5t-82.5 -170.5q-15 -109 21.5 -167t102.5 -58q49 0 103 33.5t101 97.5l43 298q-63 27 -128 27z" />
    <glyph glyph-name="Gdotaccent" unicode="&#x120;" horiz-adv-x="705" 
d="M495 865q9 0 15 -4.5t9.5 -11.5t1.5 -16q-1 -7 -5 -12.5t-10.5 -9.5t-14.5 -4q-13 0 -20.5 9.5t-5.5 22.5q2 10 10.5 18t19.5 8zM489 709q114 0 215 -61q4 -1 3 -5l-16 -116h-30l7 92q0 5 -3 9q-87 44 -177 44q-80 0 -149 -36t-119.5 -111t-65.5 -178
q-20 -147 45.5 -233.5t194.5 -86.5q123 0 213 81l24 166q1 9 -8 10l-179 9l4 31h227q2 0 4 -2t2 -5l-45 -317h-31l4 62q-96 -72 -221 -72q-150 0 -227.5 100.5t-54.5 261.5q10 69 35 127t62 100t83 71.5t97.5 44t105.5 14.5z" />
    <glyph glyph-name="gdotaccent" unicode="&#x121;" horiz-adv-x="601" 
d="M374 665q8 0 14.5 -4.5t9.5 -11.5t2 -16q-1 -10 -10 -18t-20 -8q-13 0 -20.5 9.5t-5.5 22.5q1 10 10 18t20 8zM372 510q85 1 171 -41q4 -1 3 -5l-64 -453q-7 -55 -29 -96t-53.5 -64.5t-68 -34t-77.5 -10.5q-85 0 -166 42l20 26q72 -37 143 -37q74 0 125.5 42t64.5 135
l13 90q-48 -55 -102.5 -84.5t-106.5 -29.5q-82 0 -127 68.5t-27 194.5q17 123 95 189.5t186 67.5zM375 479q-94 -1 -160.5 -60.5t-82.5 -170.5q-15 -109 21.5 -167t102.5 -58q49 0 103 33.5t101 97.5l43 298q-63 27 -128 27z" />
    <glyph glyph-name="Gcommaaccent" unicode="&#x122;" horiz-adv-x="705" 
d="M489 709q114 0 215 -61q4 -1 3 -5l-16 -116h-30l7 92q0 5 -3 9q-87 44 -177 44q-80 0 -149 -36t-119.5 -111t-65.5 -178q-20 -147 45.5 -233.5t194.5 -86.5q123 0 213 81l24 166q1 9 -8 10l-179 9l4 31h227q2 0 4 -2t2 -5l-45 -317h-31l4 62q-96 -72 -221 -72
q-150 0 -227.5 100.5t-54.5 261.5q10 69 35 127t62 100t83 71.5t97.5 44t105.5 14.5zM338 -56q24 0 29.5 -26.5t-8.5 -63.5q-12 -37 -35 -68l-22 10q18 29 26 55q9 28 3 43l-2 -1q-9 2 -14.5 9.5t-4.5 17.5t9 16.5t19 7.5z" />
    <glyph glyph-name="gcommaaccent" unicode="&#x123;" horiz-adv-x="601" 
d="M372 753l22 -9q-18 -30 -26 -56q-9 -28 -2 -42h2q9 -1 14 -9t4 -18q-1 -9 -9 -16t-19 -8q-24 0 -29 27t8 64q12 34 35 67zM372 510q85 1 171 -41q4 -1 3 -5l-64 -453q-6 -44 -21.5 -79.5t-37 -59t-49.5 -38.5t-57.5 -21.5t-62.5 -6.5q-85 0 -166 42l20 26q72 -37 143 -37
q74 0 125.5 42t64.5 135l13 90q-48 -55 -102.5 -84.5t-106.5 -29.5q-82 0 -127 68.5t-27 194.5q17 123 95 189.5t186 67.5zM375 479q-94 -1 -160.5 -60.5t-82.5 -170.5q-15 -109 21.5 -167t102.5 -58q24 0 49.5 8.5t51.5 24t52.5 41t50.5 57.5l43 298q-63 27 -128 27z" />
    <glyph glyph-name="Hbar" unicode="&#x126;" horiz-adv-x="859" 
d="M779 529l-68 -484q-1 -9 8 -10l70 -5l-4 -30h-220l4 26q0 4 5 4l77 7q12 1 13 12l41 290h-456l-41 -292q-1 -10 8 -10l82 -7l-5 -30h-219l3 26q1 4 5 4l66 6q11 1 13 12l67 481h-154l4 27h154l14 98q1 10 -8 11l-64 5q-6 0 -5 7l3 23h220l-4 -30l-82 -7q-12 -1 -13 -12
l-14 -95h457l13 97q1 10 -8 10l-75 7q-7 0 -6 7l4 23h219l-4 -30l-70 -6q-11 -1 -13 -12l-13 -96h154l-4 -27h-154zM732 529h-456l-22 -153h456z" />
    <glyph glyph-name="hbar" unicode="&#x127;" horiz-adv-x="705" 
d="M650 25l-3 -25h-9q-56 0 -81.5 30t-17.5 85l31 226q20 138 -103 138q-59 0 -120.5 -33.5t-111.5 -99.5l-49 -346h-42l85 603h-144l3 24h144l11 77q2 10 -8 10l-61 3l4 27l106 6q8 0 7 -7l-17 -116h177l-3 -24h-177l-30 -212q52 60 113.5 89.5t122.5 29.5q74 0 111 -41.5
t25 -125.5l-33 -229q-12 -88 67 -89h3z" />
    <glyph glyph-name="Itilde" unicode="&#x128;" horiz-adv-x="358" 
d="M395 865l33 -10q-9 -28 -28 -44.5t-43 -18.5q-29 -3 -65 17q-7 4 -17.5 9.5t-16.5 9t-13 6t-12 2.5q-19 -1 -37 -45l-33 11q22 63 63 63q7 0 14.5 -1.5t16 -5t13.5 -6t15 -8t13 -6.5q34 -18 53 -15q25 3 44 42zM378 670l-71 -6q-11 -1 -13 -12l-85 -606q-1 -10 8 -10
l71 -6l-4 -30h-210l3 26q1 4 5 4l67 6q3 0 6 2t5 4.5t2 5.5l85 606q2 10 -8 10l-65 6q-6 0 -5 7l3 23h211z" />
    <glyph glyph-name="itilde" unicode="&#x129;" horiz-adv-x="341" 
d="M350 665l33 -10q-10 -28 -28.5 -44.5t-42.5 -18.5q-29 -3 -65 17q-7 4 -17.5 9.5t-16.5 9t-13.5 6t-12.5 2.5q-19 -1 -36 -45l-33 11q22 63 63 63q7 0 14 -1.5t15.5 -5t14 -6t15.5 -8t13 -6.5q34 -18 53 -15q25 3 44 42zM144 499l106 6q7 0 6 -7l-54 -384q-12 -88 67 -89
h6l-3 -25h-13q-55 0 -80.5 30t-18.5 85l49 344q1 10 -9 10l-60 3z" />
    <glyph glyph-name="Imacron" unicode="&#x12a;" horiz-adv-x="358" 
d="M425 809h-264l4 33h264zM378 670l-71 -6q-11 -1 -13 -12l-85 -606q-1 -10 8 -10l71 -6l-4 -30h-210l3 26q1 4 5 4l67 6q3 0 6 2t5 4.5t2 5.5l85 606q2 10 -8 10l-65 6q-6 0 -5 7l3 23h211z" />
    <glyph glyph-name="imacron" unicode="&#x12b;" horiz-adv-x="341" 
d="M380 609h-264l4 33h264zM144 499l106 6q7 0 6 -7l-54 -384q-12 -88 67 -89h6l-3 -25h-13q-55 0 -80.5 30t-18.5 85l49 344q1 10 -9 10l-60 3z" />
    <glyph glyph-name="Iogonek" unicode="&#x12e;" horiz-adv-x="358" 
d="M378 670l-71 -6q-11 -1 -13 -12l-85 -606q-1 -10 8 -10l71 -6l-4 -30h-29q-70 -41 -78 -101q-4 -28 7 -44.5t34 -16.5q21 -1 62 20l6 -30q-42 -21 -74 -19q-38 0 -57 24.5t-15 61.5q8 62 70 105h-136l3 26q1 4 5 4l67 6q5 0 8.5 4t4.5 8l85 606q2 10 -8 10l-65 6
q-6 0 -5 7l3 23h211z" />
    <glyph glyph-name="iogonek" unicode="&#x12f;" horiz-adv-x="341" 
d="M253 665q9 0 15.5 -4.5t9.5 -11.5t2 -16q-2 -10 -10.5 -18t-20.5 -8t-20 9.5t-6 22.5q1 7 5.5 12.5t11 9.5t13.5 4zM144 499l106 6q7 0 6 -7l-54 -384q-12 -88 67 -89h6l-3 -25h-5q-13 0 -33 2q-72 -42 -81 -102q-4 -28 7.5 -44.5t34.5 -16.5q23 -1 62 20l6 -30
q-42 -21 -74 -19q-38 0 -57 24.5t-15 61.5q8 69 86 116q-54 24 -43 103l49 344q1 10 -9 10l-60 3z" />
    <glyph glyph-name="Idotaccent" unicode="&#x130;" horiz-adv-x="358" 
d="M298 865q9 0 15.5 -4.5t9.5 -11.5t2 -16q-2 -10 -10.5 -18t-19.5 -8q-13 0 -20.5 9.5t-6.5 22.5q2 10 10.5 18t19.5 8zM378 670l-71 -6q-11 -1 -13 -12l-85 -606q-1 -10 8 -10l71 -6l-4 -30h-210l3 26q1 4 5 4l67 6q5 0 8.5 4t4.5 8l85 606q2 10 -8 10l-65 6q-6 0 -5 7
l3 23h211z" />
    <glyph glyph-name="dotlessi" unicode="&#x131;" horiz-adv-x="341" 
d="M144 499l106 6q7 0 6 -7l-54 -384q-12 -88 67 -89h6l-3 -25h-13q-55 0 -80.5 30t-18.5 85l49 344q1 10 -9 10l-60 3z" />
    <glyph glyph-name="IJ" unicode="&#x132;" horiz-adv-x="725" 
d="M378 670l-71 -6q-11 -1 -13 -12l-85 -606q-1 -10 8 -10l71 -6l-4 -30h-210l3 26q1 4 5 4l67 6q5 0 8.5 4t4.5 8l85 606q2 10 -8 10l-65 6q-6 0 -5 7l3 23h211zM745 670l-69 -6q-11 -1 -13 -12l-87 -618q-12 -88 -66.5 -150t-139.5 -86l-10 29q67 22 112.5 78t56.5 132
l86 616q1 10 -8 10l-75 7q-6 0 -6 7l4 23h219z" />
    <glyph glyph-name="ij" unicode="&#x133;" horiz-adv-x="596" 
d="M594 707q13 0 21 -9.5t6 -22.5q-2 -12 -11 -20t-20 -8q-14 0 -22 10t-6 23q1 7 5.5 13.5t11.5 10t15 3.5zM261 707q13 0 21 -9.5t6 -23.5q-1 -7 -5.5 -13.5t-11 -10t-14.5 -3.5q-13 0 -21 9.5t-6 23.5q1 11 10.5 19t20.5 8zM476 499l106 6q8 0 7 -7l-84 -596
q-6 -45 -38 -70.5t-80 -25.5t-74 25l17 23q17 -17 50 -17q17 0 31.5 5t25 13.5t17.5 22t10 29.5l77 552q2 10 -8 10l-60 3zM144 499l106 6q7 0 6 -7l-54 -384q-12 -88 67 -89h6l-3 -25h-13q-55 0 -80.5 30t-18.5 85l49 344q1 10 -9 10l-60 3z" />
    <glyph glyph-name="Kcommaaccent" unicode="&#x136;" horiz-adv-x="739" 
d="M787 670l-76 -6l-299 -278l219 -347q1 -2 6 -3l72 -6q6 0 5 -7l-3 -23h-113l-221 351l-145 -135l-24 -169q-2 -10 8 -10l82 -7l-5 -30h-219l3 26q1 4 5 4l66 6q11 1 13 12l85 606q1 10 -8 11l-64 5q-6 0 -5 7l3 23h219l-4 -30l-81 -7q-12 -1 -13 -12l-55 -384l398 374
q8 7 7 15t-10 9l-54 5q-6 1 -5 7l3 23h214zM355 -56q24 0 29.5 -26.5t-7.5 -63.5t-35 -68l-23 10q18 29 26 55q9 28 3 43l-2 -1q-9 2 -14.5 9.5t-3.5 17.5q1 10 9 16.5t18 7.5z" />
    <glyph glyph-name="kcommaaccent" unicode="&#x137;" horiz-adv-x="607" 
d="M178 744l106 6q8 0 7 -8l-70 -492l283 213q50 37 110 37h12l-3 -25q-50 -1 -102 -40l-172 -125l141 -223q39 -61 100 -62l-2 -25h-16q-77 1 -117 73l-135 215l-104 -77l-24 -167q-1 -9 8 -10l72 -6l-4 -28h-191l3 24q1 4 5 5l53 4q11 1 13 13l92 658q1 10 -8 10l-61 3z
M289 -56q24 0 29.5 -26.5t-7.5 -63.5t-35 -68l-23 10q18 29 26 55q9 28 3 43l-2 -1q-9 2 -14.5 9.5t-3.5 17.5q1 10 9 16.5t18 7.5z" />
    <glyph glyph-name="Lacute" unicode="&#x139;" horiz-adv-x="567" 
d="M404 777h-41l121 142h54zM388 670l-82 -7q-12 -1 -13 -12l-87 -614h282q3 0 6 1.5t5 4.5t2 6l18 80h29l-17 -125q-1 -4 -6 -4h-451l3 26q1 4 5 4l66 6q4 0 8 4t5 8l85 606q1 10 -8 11l-64 5q-6 0 -5 7l3 23h220z" />
    <glyph glyph-name="lacute" unicode="&#x13a;" horiz-adv-x="331" 
d="M287 783h-42l121 142h55zM178 744l107 6q7 0 6 -7l-89 -629q-12 -88 67 -89h6l-3 -25h-13q-55 0 -80.5 30t-18.5 85l83 589q2 10 -8 10l-61 3z" />
    <glyph glyph-name="Lcommaaccent" unicode="&#x13b;" horiz-adv-x="567" 
d="M388 670l-82 -7q-12 -1 -13 -12l-87 -614h282q3 0 6 1.5t5 4.5t2 6l18 80h29l-17 -125q-1 -4 -6 -4h-451l3 26q1 4 5 4l66 6q4 0 8 4t5 8l85 606q1 10 -8 11l-64 5q-6 0 -5 7l3 23h220zM269 -56q24 0 29.5 -26.5t-7.5 -63.5t-35 -68l-23 10q18 29 26 55q9 28 3 43l-2 -1
q-9 2 -14.5 9.5t-3.5 17.5q0 6 4 11.5t10 9t13 3.5z" />
    <glyph glyph-name="lcommaaccent" unicode="&#x13c;" horiz-adv-x="331" 
d="M178 744l107 6q7 0 6 -7l-89 -629q-12 -88 67 -89h6l-3 -25h-13q-55 0 -80.5 30t-18.5 85l83 589q2 10 -8 10l-61 3zM151 -56q24 0 29.5 -26.5t-8.5 -63.5q-12 -37 -34 -68l-23 10q18 29 26 55q9 28 3 43l-2 -1q-9 2 -14.5 9.5t-4.5 17.5q1 6 5 11.5t10 8.5t13 4z" />
    <glyph glyph-name="Lcaron" unicode="&#x13d;" horiz-adv-x="570" 
d="M539 710q24 0 29.5 -26.5t-8.5 -63.5q-13 -37 -34 -68l-23 10q19 31 26 57q9 25 3 40l-1 -1q-10 2 -15.5 9.5t-4.5 18.5q2 10 10 16.5t18 7.5zM388 670l-82 -7q-12 -1 -13 -12l-87 -614h282q4 0 8 3.5t5 8.5l18 80h29l-17 -125q-1 -4 -6 -4h-451l3 26q1 4 5 4l66 6
q4 0 8 4t5 8l85 606q1 10 -8 11l-64 5q-6 0 -5 7l3 23h220z" />
    <glyph glyph-name="lcaron" unicode="&#x13e;" horiz-adv-x="378" 
d="M178 744l107 6q7 0 6 -7l-89 -629q-12 -88 67 -89h6l-3 -25h-13q-55 0 -80.5 30t-18.5 85l83 589q2 10 -8 10l-61 3zM427 744q23 0 28.5 -26.5t-7.5 -63.5t-35 -67l-22 9q18 30 26 56q8 27 2 41h-2q-9 2 -14.5 9.5t-3.5 18.5q1 9 9 16t19 7z" />
    <glyph glyph-name="Ldot" unicode="&#x13f;" horiz-adv-x="567" 
d="M388 670l-82 -7q-12 -1 -13 -12l-87 -614h282q3 0 6 1.5t5 4.5t2 6l18 80h29l-17 -125q-1 -4 -6 -4h-451l3 26q1 4 5 4l66 6q4 0 8 4t5 8l85 606q1 10 -8 11l-64 5q-6 0 -5 7l3 23h220zM524 408q8 0 15 -4.5t10 -12t2 -16.5q-2 -11 -11 -19t-21 -8q-13 0 -21 10t-6 23
q2 11 11 19t21 8z" />
    <glyph glyph-name="ldot" unicode="&#x140;" horiz-adv-x="389" 
d="M178 744l107 6q7 0 6 -7l-89 -629q-12 -88 67 -89h6l-3 -25h-13q-55 0 -80.5 30t-18.5 85l83 589q2 10 -8 10l-61 3zM387 408q9 0 16 -4.5t10 -12t2 -16.5q-1 -7 -5.5 -13t-11.5 -10t-15 -4q-13 0 -21 10t-6 23q1 7 5.5 13t11.5 10t14 4z" />
    <glyph glyph-name="Lslash" unicode="&#x141;" horiz-adv-x="576" 
d="M557 129l-17 -125q-1 -4 -6 -4h-452l4 26q1 4 5 4l65 6q5 0 9 4t5 8l40 290l-131 -87l5 46l133 87l38 270q1 10 -8 11l-64 5q-6 0 -5 7l3 23h219l-4 -30l-81 -7q-12 -1 -14 -12l-32 -233l186 122l-6 -45l-187 -123l-47 -335h281q5 0 9 3.5t5 8.5l18 80h29z" />
    <glyph glyph-name="lslash" unicode="&#x142;" horiz-adv-x="380" 
d="M265 405l-41 -291q-12 -88 67 -89h7l-4 -25h-12q-56 0 -81.5 30t-17.5 85l36 260l-131 -87l5 43l132 87l40 286q2 10 -8 10l-60 3l3 27l107 6q7 0 6 -7l-42 -295l139 92l-5 -43z" />
    <glyph glyph-name="Nacute" unicode="&#x143;" horiz-adv-x="848" 
d="M545 777h-41l120 142h55zM874 670l-70 -6q-12 -1 -13 -12l-92 -652h-44l-373 623l-82 -576q-1 -10 8 -10l81 -7l-5 -30h-215l3 26q1 4 5 4l66 6q11 1 13 12l85 606q2 10 -8 11l-64 5q-6 0 -5 7l3 23h123l375 -626l81 579q2 10 -7 10l-74 7q-7 0 -6 7l4 23h215z" />
    <glyph glyph-name="nacute" unicode="&#x144;" horiz-adv-x="700" 
d="M442 577h-41l121 142h54zM472 510q73 0 110 -41.5t25 -125.5l-32 -229q-13 -88 66 -89h3l-3 -25h-9q-56 0 -81.5 30t-17.5 85l32 226q19 138 -104 138q-58 0 -119.5 -34t-111.5 -99l-49 -346h-42l64 459q1 10 -8 10l-61 3l4 27l106 6q8 0 6 -7l-15 -107q53 60 114.5 89.5
t122.5 29.5z" />
    <glyph glyph-name="Ncommaaccent" unicode="&#x145;" horiz-adv-x="848" 
d="M874 670l-70 -6q-12 -1 -13 -12l-92 -652h-44l-373 623l-82 -576q-1 -10 8 -10l81 -7l-5 -30h-215l3 26q1 4 5 4l66 6q11 1 13 12l85 606q2 10 -8 11l-64 5q-6 0 -5 7l3 23h123l375 -626l81 579q2 10 -7 11l-74 6q-7 0 -6 7l4 23h215zM410 -56q24 0 29.5 -26.5
t-7.5 -63.5t-35 -68l-23 10q18 29 26 55q9 28 3 43l-2 -1q-9 2 -14.5 9.5t-4.5 17.5q1 5 3.5 9t6 7.5t8.5 5.5t10 2z" />
    <glyph glyph-name="ncommaaccent" unicode="&#x146;" horiz-adv-x="700" 
d="M472 510q73 0 110 -41.5t25 -125.5l-32 -229q-13 -88 66 -89h3l-3 -25h-9q-56 0 -81.5 30t-17.5 85l32 226q19 138 -104 138q-58 0 -119.5 -34t-111.5 -99l-49 -346h-42l64 459q1 10 -8 10l-61 3l4 27l106 6q8 0 6 -7l-15 -107q53 60 114.5 89.5t122.5 29.5zM335 -56
q24 0 29.5 -26.5t-7.5 -63.5t-35 -68l-23 10q18 29 26 55q9 28 3 43l-2 -1q-9 2 -14.5 9.5t-3.5 17.5q1 10 9 16.5t18 7.5z" />
    <glyph glyph-name="Ncaron" unicode="&#x147;" horiz-adv-x="848" 
d="M562 777h-56l-82 142h40l73 -114l106 114h41zM874 670l-70 -6q-12 -1 -13 -12l-92 -652h-44l-373 623l-82 -576q-1 -10 8 -10l81 -7l-5 -30h-215l3 26q1 4 5 4l66 6q11 1 13 12l85 606q2 10 -8 11l-64 5q-6 0 -5 7l3 23h123l375 -626l81 579q2 10 -7 11l-74 6q-7 0 -6 7
l4 23h215z" />
    <glyph glyph-name="ncaron" unicode="&#x148;" horiz-adv-x="700" 
d="M459 577h-56l-82 142h40l73 -114l106 114h41zM472 510q73 0 110 -41.5t25 -125.5l-32 -229q-13 -88 66 -89h3l-3 -25h-9q-56 0 -81.5 30t-17.5 85l32 226q19 138 -104 138q-58 0 -119.5 -34t-111.5 -99l-49 -346h-42l64 459q1 10 -8 10l-61 3l4 27l106 6q8 0 6 -7
l-15 -107q53 60 114.5 89.5t122.5 29.5z" />
    <glyph glyph-name="Eng" unicode="&#x14a;" horiz-adv-x="853" 
d="M874 670l-69 -6q-12 -1 -13 -12l-87 -617q-12 -88 -65.5 -149.5t-137.5 -86.5l-10 28q59 20 101.5 66t59.5 111l-371 619l-82 -576q-1 -10 8 -10l81 -7l-5 -30h-215l3 26q1 4 5 4l66 6q11 1 13 12l85 606q2 10 -8 11l-64 5q-6 0 -5 7l3 23h123l375 -626l81 579
q2 10 -7 10l-74 7q-7 0 -6 7l4 23h215z" />
    <glyph glyph-name="eng" unicode="&#x14b;" horiz-adv-x="700" 
d="M472 510q73 0 110 -41.5t25 -125.5l-62 -441q-6 -45 -38 -70.5t-80 -25.5t-74 25l17 23q17 -17 50 -17q22 0 40 8.5t29.5 24t14.5 37.5l61 434q19 138 -104 138q-38 0 -77.5 -14t-80 -44.5t-73.5 -74.5l-49 -346h-42l64 459q1 10 -8 10l-61 3l4 27l106 6q8 0 6 -7
l-15 -107q53 60 114.5 89.5t122.5 29.5z" />
    <glyph glyph-name="Omacron" unicode="&#x14c;" horiz-adv-x="783" 
d="M637 809h-264l5 33h264zM489 709q152 0 231 -100t56 -262q-23 -160 -128.5 -258.5t-255.5 -98.5q-152 0 -230.5 100.5t-56.5 261.5q23 160 128.5 258.5t255.5 98.5zM488 672q-131 0 -222 -88t-112 -237q-21 -147 44.5 -233.5t194.5 -86.5q131 0 222.5 88.5t111.5 236.5
q8 50 4.5 92.5t-15.5 78t-33.5 63.5t-50 47t-65.5 29t-79 10z" />
    <glyph glyph-name="omacron" unicode="&#x14d;" 
d="M518 609h-264l4 33h264zM370 510q111 0 168.5 -72.5t41.5 -190.5q-16 -115 -92.5 -186t-186.5 -71q-112 0 -169.5 73t-40.5 190q16 115 92.5 186t186.5 71zM369 479q-92 0 -157 -63t-80 -169q-14 -103 32 -164.5t137 -61.5q92 0 157 63t80 169q10 68 -8 119.5t-59.5 79
t-101.5 27.5z" />
    <glyph glyph-name="Ohungarumlaut" unicode="&#x150;" horiz-adv-x="783" 
d="M451 777h-42l119 142h54zM582 777h-42l118 142h55zM489 709q152 0 231 -100t56 -262q-23 -160 -128.5 -258.5t-255.5 -98.5q-152 0 -230.5 100.5t-56.5 261.5q23 160 128.5 258.5t255.5 98.5zM488 672q-131 0 -222 -88t-112 -237q-14 -97 11 -169.5t84 -111.5t144 -39
q131 0 222.5 88.5t111.5 236.5q21 147 -44.5 233.5t-194.5 86.5z" />
    <glyph glyph-name="ohungarumlaut" unicode="&#x151;" 
d="M332 577h-42l118 142h55zM463 577h-42l118 142h55zM370 510q111 0 168.5 -72.5t41.5 -190.5q-16 -115 -92.5 -186t-186.5 -71q-112 0 -169.5 73t-40.5 190q16 115 92.5 186t186.5 71zM369 479q-92 0 -157 -63t-80 -169q-14 -103 32 -164.5t137 -61.5q92 0 157 63t80 169
q15 103 -31.5 164.5t-137.5 61.5z" />
    <glyph glyph-name="OE" unicode="&#x152;" horiz-adv-x="1103" 
d="M489 709q102 0 170.5 -49.5t91.5 -137.5l24 178h363q7 0 6 -7l-17 -122h-29l5 83q1 9 -9 9h-276l-40 -289h243l-5 -35h-243l-43 -302h293q12 0 14 12l18 80h29l-17 -125q-1 -4 -6 -4h-382l24 176q-47 -87 -128.5 -136.5t-182.5 -49.5q-152 0 -230.5 100.5t-56.5 261.5
q23 160 128.5 258.5t255.5 98.5zM488 672q-131 0 -222 -88t-112 -237q-21 -147 44.5 -233.5t194.5 -86.5q131 0 222.5 88.5t111.5 236.5q8 50 4.5 92.5t-15.5 78t-33.5 63.5t-50 47t-65.5 29t-79 10z" />
    <glyph glyph-name="oe" unicode="&#x153;" horiz-adv-x="1008" 
d="M811 510q109 0 153.5 -65.5t30.5 -182.5l-1 -7q-1 -9 -11 -9l-391 -4q-13 -101 30 -161t126 -60q105 0 180 67l16 -28q-35 -32 -86.5 -51t-111.5 -19q-81 0 -132 45.5t-61 122.5q-34 -78 -100.5 -123t-151.5 -45q-112 0 -169.5 73t-40.5 190q16 115 92.5 186t186.5 71
q57 0 101 -21t71 -58.5t34 -88.5q33 79 94.5 123.5t140.5 44.5zM810 479q-80 0 -138 -56.5t-76 -152.5l351 1q7 0 7 8q20 200 -144 200zM369 479q-92 0 -157 -63t-80 -169q-14 -103 32 -164.5t137 -61.5q92 0 157 63t80 169q15 103 -31.5 164.5t-137.5 61.5z" />
    <glyph glyph-name="Racute" unicode="&#x154;" horiz-adv-x="677" 
d="M459 777h-41l121 142h54zM172 700h290q94 0 144 -51t38 -134q-11 -76 -68 -123.5t-143 -51.5h-3l140 -301q2 -3 7 -4l67 -5l-4 -30h-101q-3 0 -4 4l-152 332h-135l-40 -289q-2 -10 8 -10l82 -7l-5 -30h-219l3 26q1 4 5 4l66 6q11 1 13 12l85 606q1 10 -8 11l-64 5
q-6 0 -5 7zM367 663l-73 -6l-40 -284h164q49 0 87.5 18t62 51t30.5 77q6 45 -8.5 77.5t-48 49.5t-81.5 17h-93z" />
    <glyph glyph-name="racute" unicode="&#x155;" horiz-adv-x="426" 
d="M305 577h-41l121 142h54zM464 507q6 -1 6 -7l-15 -105h-29l5 69q0 5 -3.5 7.5t-7.5 1.5q-12 -3 -25 -8q-71 -19 -160 -84l-54 -381h-42l64 459q1 10 -8 10l-61 3l4 27l106 6q8 0 6 -7l-12 -82q94 69 173 86q28 6 53 5z" />
    <glyph glyph-name="Rcommaaccent" unicode="&#x156;" horiz-adv-x="677" 
d="M172 700h290q94 0 144 -51t38 -134q-11 -76 -68 -123.5t-143 -51.5h-3l140 -301q2 -3 7 -4l67 -5l-4 -30h-101q-3 0 -4 4l-152 332h-135l-40 -289q-2 -10 8 -10l82 -7l-5 -30h-219l3 26q1 4 5 4l66 6q11 1 13 12l85 606q1 10 -8 11l-64 5q-6 0 -5 7zM367 663l-73 -6
l-40 -284h164q49 0 87.5 18t62 51t30.5 77q6 45 -8.5 77.5t-48 49.5t-81.5 17h-93zM324 -56q24 0 29.5 -26.5t-7.5 -63.5t-35 -68l-23 10q18 29 26 55q9 28 3 43l-2 -1q-6 1 -10.5 4.5t-6.5 9.5t-1 13q1 10 9 16.5t18 7.5z" />
    <glyph glyph-name="rcommaaccent" unicode="&#x157;" horiz-adv-x="426" 
d="M464 507q6 -1 6 -7l-15 -105h-29l5 69q0 5 -3.5 7.5t-7.5 1.5q-12 -3 -25 -8q-71 -19 -160 -84l-54 -381h-42l64 459q1 10 -8 10l-61 3l4 27l106 6q8 0 6 -7l-12 -82q94 69 173 86q28 6 53 5zM199 -56q23 0 28.5 -26.5t-7.5 -63.5t-35 -68l-22 10q17 29 25 55q9 28 3 43
l-2 -1q-9 2 -14.5 9.5t-3.5 17.5q1 6 5 11.5t10 8.5t13 4z" />
    <glyph glyph-name="Rcaron" unicode="&#x158;" horiz-adv-x="677" 
d="M476 777h-56l-82 142h40l73 -114l106 114h41zM172 700h290q94 0 144 -51t38 -134q-11 -76 -68 -123.5t-143 -51.5h-3l140 -301q2 -3 7 -4l67 -5l-4 -30h-101q-3 0 -4 4l-152 332h-135l-40 -289q-2 -10 8 -10l82 -7l-5 -30h-219l3 26q1 4 5 4l66 6q11 1 13 12l85 606
q1 10 -8 11l-64 5q-6 0 -5 7zM367 663l-73 -6l-40 -284h164q49 0 87.5 18t62 51t30.5 77q6 45 -8.5 77.5t-48 49.5t-81.5 17h-93z" />
    <glyph glyph-name="rcaron" unicode="&#x159;" horiz-adv-x="426" 
d="M322 577h-55l-83 142h40l73 -114l106 114h42zM464 507q6 -1 5 -7l-14 -105h-29l5 69q0 5 -3.5 7.5t-7.5 1.5q-12 -3 -25 -8q-71 -19 -160 -84l-54 -381h-42l64 459q1 10 -8 10l-61 3l4 27l106 6q8 0 6 -7l-12 -82q94 69 173 86q28 6 53 5z" />
    <glyph glyph-name="Sacute" unicode="&#x15a;" horiz-adv-x="569" 
d="M405 777h-41l121 142h54zM413 710q92 0 149 -39q3 -1 2 -4l-16 -117h-29l6 94q0 5 -4 7q-44 23 -109 23q-87 0 -144 -35.5t-65 -92.5q-5 -36 3 -57.5t39.5 -46t102.5 -62.5q82 -42 121 -73t51 -60t7 -71q-12 -83 -90.5 -134t-191.5 -52q-104 0 -170 41q-3 2 -3 5l17 117
h29l-6 -92q0 -6 4 -8q54 -26 131 -26q95 0 157.5 41t72.5 109q2 25 0 42.5t-19 36.5t-45.5 38t-80.5 47q-43 23 -72 40.5t-51.5 34.5t-33 30.5t-18 30.5t-6 33.5t2.5 39.5q10 71 82 115.5t177 44.5z" />
    <glyph glyph-name="sacute" unicode="&#x15b;" horiz-adv-x="442" 
d="M313 577h-41l121 142h55zM319 510q69 0 113 -27q3 -2 3 -5l-15 -103h-25l5 86q1 5 -4 7q-30 14 -73 14q-64 0 -105.5 -25.5t-46.5 -65.5q-5 -36 12.5 -57.5t89.5 -59.5q84 -45 108.5 -74.5t18.5 -74.5q-8 -60 -67.5 -97t-144.5 -37q-73 0 -122 25q-4 1 -3 5l14 102h26
l-5 -84q-1 -6 4 -8q37 -12 84 -12q72 0 119.5 29.5t54.5 78.5q5 36 -14 58t-89 60q-47 24 -72.5 41t-40 34t-16 34t0.5 41q5 34 30.5 60t67 40.5t92.5 14.5z" />
    <glyph glyph-name="Scedilla" unicode="&#x15e;" horiz-adv-x="569" 
d="M413 710q92 0 149 -39q3 -1 2 -4l-16 -117h-29l6 94q0 5 -4 7q-44 23 -109 23q-87 0 -144 -35.5t-65 -92.5q-5 -36 3 -57.5t39.5 -46t102.5 -62.5q82 -42 121 -73t51 -60t7 -71q-11 -73 -74 -122t-157 -60l-25 -50q9 0 17 -3q27 -5 42.5 -25.5t11.5 -47.5
q-5 -30 -32.5 -50.5t-63.5 -20.5q-38 0 -62 23l10 24q23 -19 50 -19q22 0 39 13t22 36q4 25 -11 37t-38 13q-11 0 -23 -2l31 70q-9 -1 -27 -1q-101 2 -162 40q-3 2 -3 5l17 117h29l-6 -92q0 -6 4 -8q54 -26 131 -26q95 0 157.5 41t72.5 109q5 34 -4 56t-40.5 46.5
t-100.5 61.5q-43 23 -72 40.5t-51.5 34.5t-33 30.5t-18 30.5t-6 33.5t2.5 39.5q10 71 82 115.5t177 44.5z" />
    <glyph glyph-name="scedilla" unicode="&#x15f;" horiz-adv-x="442" 
d="M319 510q69 0 113 -27q3 -2 3 -5l-15 -103h-25l5 86q1 5 -4 7q-30 14 -73 14q-64 0 -105.5 -25.5t-46.5 -65.5q-5 -36 12.5 -57.5t89.5 -59.5q84 -45 108.5 -74.5t18.5 -74.5q-7 -52 -53 -87t-115 -44l-25 -50q9 0 17 -3q27 -5 42.5 -25.5t11.5 -47.5q-3 -19 -16.5 -35.5
t-34.5 -26t-45 -9.5q-38 0 -61 23l10 24q22 -19 49 -19q22 0 39 13t22 36q4 25 -11 37t-38 13q-11 0 -23 -2l31 70l-22 -1q-67 2 -112 25q-4 1 -3 5l14 102h26l-5 -84q-1 -6 4 -8q37 -12 84 -12q72 0 119.5 29.5t54.5 78.5q5 36 -14 58t-89 60q-47 24 -72.5 41t-40 34
t-16 34t0.5 41q8 52 60.5 83.5t129.5 31.5z" />
    <glyph glyph-name="Scaron" unicode="&#x160;" horiz-adv-x="569" 
d="M422 777h-56l-82 142h40l73 -114l106 114h42zM413 710q92 0 149 -39q3 -1 2 -4l-16 -117h-29l6 94q0 5 -4 7q-44 23 -109 23q-87 0 -144 -35.5t-65 -92.5q-5 -19 -2 -36t9 -30t24 -28.5t44.5 -32t69.5 -39.5q82 -42 121 -73t51 -60t7 -71q-12 -83 -90.5 -134t-191.5 -52
q-104 0 -170 41q-3 2 -3 5l17 117h29l-6 -92q0 -6 4 -8q54 -26 131 -26q95 0 157.5 41t72.5 109q5 34 -4 56t-40.5 46.5t-100.5 61.5q-43 23 -72 40.5t-51.5 34.5t-33 30.5t-18 30.5t-6 33.5t2.5 39.5q10 71 82 115.5t177 44.5z" />
    <glyph glyph-name="scaron" unicode="&#x161;" horiz-adv-x="442" 
d="M330 577h-55l-83 142h40l73 -114l106 114h42zM319 510q69 0 113 -27q3 -2 3 -5l-15 -103h-25l5 86q1 5 -4 7q-30 14 -73 14q-64 0 -105.5 -25.5t-46.5 -65.5q-5 -36 12.5 -57.5t89.5 -59.5q84 -45 108.5 -74.5t18.5 -74.5q-8 -60 -67.5 -97t-144.5 -37q-73 0 -122 25
q-4 1 -3 5l14 102h26l-5 -84q-1 -6 4 -8q37 -12 84 -12q72 0 119.5 29.5t54.5 78.5q5 36 -14 58t-89 60q-62 32 -89.5 54t-35 42.5t-3.5 53.5q8 52 60.5 83.5t129.5 31.5z" />
    <glyph glyph-name="Tcedilla" unicode="&#x162;" horiz-adv-x="640" 
d="M131 700h573q6 0 5 -7l-17 -121h-29l6 83q0 9 -9 9h-223l-87 -618q-1 -10 8 -10l71 -6l-4 -30h-91l-28 -56q10 0 17 -3q27 -5 43 -25.5t11 -47.5q-2 -14 -10.5 -27.5t-21 -23t-29.5 -15t-34 -5.5q-39 0 -62 23l10 24q22 -19 49 -19q22 0 39 13t22 36q4 25 -10.5 37
t-38.5 13q-11 0 -23 -2l35 78h-88l3 26q1 4 5 4l67 6q3 0 6 2t5 4.5t2 5.5l87 616h-221q-11 0 -14 -12l-17 -80h-30l18 124q0 4 5 4z" />
    <glyph glyph-name="tcedilla" unicode="&#x163;" horiz-adv-x="376" 
d="M223 500h141l-3 -28l-143 -7l-53 -379q-5 -33 11 -50.5t49 -17.5q47 0 73 35l17 -20q-29 -42 -92 -44q-10 -1 -26 1l-23 -46q9 0 17 -3q27 -5 42.5 -25.5t11.5 -47.5q-5 -30 -32.5 -50.5t-63.5 -20.5q-39 0 -62 23l10 24q23 -19 50 -19q22 0 39 13t22 36q3 25 -11.5 37
t-38.5 13q-10 0 -23 -2l34 74q-26 11 -38.5 34t-8.5 55l54 380l-60 4q-6 0 -6 7l4 23h67l17 126l43 2z" />
    <glyph glyph-name="Tcaron" unicode="&#x164;" horiz-adv-x="640" 
d="M458 777h-56l-83 142h40l73 -114l106 114h42zM131 700h573q6 0 5 -7l-17 -121h-29l6 83q0 9 -10 9h-222l-87 -618q-1 -10 8 -10l71 -6l-4 -30h-210l3 26q1 4 5 4l67 6q5 0 9 4t4 8l87 616h-221q-11 0 -14 -12l-17 -80h-30l18 124q0 4 5 4z" />
    <glyph glyph-name="tcaron" unicode="&#x165;" horiz-adv-x="362" 
d="M415 750q24 0 29.5 -26.5t-7.5 -63.5q-14 -37 -35 -68l-22 10q18 30 25 55q9 27 3 42h-2q-9 1 -14.5 9t-3.5 18q1 6 4.5 11.5t10 9t12.5 3.5zM223 500h141l-3 -28l-143 -7l-53 -379q-4 -22 2.5 -37t21 -23t36.5 -8q47 0 73 35l17 -20q-32 -45 -98 -45q-49 0 -75 26.5
t-20 70.5l54 380l-60 4q-6 0 -6 7l4 23h67l17 126l43 2z" />
    <glyph glyph-name="Tbar" unicode="&#x166;" horiz-adv-x="640" 
d="M131 700h573q6 0 5 -7l-17 -121h-29l6 83q0 9 -10 9h-222l-42 -297h109l-5 -34h-109l-40 -287q-1 -10 8 -10l71 -6l-4 -30h-210l3 26q1 4 5 4l67 6q5 0 9 4t4 8l40 285h-108l4 34h109l42 297h-221q-11 0 -14 -12l-17 -80h-30l18 124q0 4 5 4z" />
    <glyph glyph-name="tbar" unicode="&#x167;" horiz-adv-x="376" 
d="M218 465l-20 -139h142l-5 -33h-141l-29 -207q-3 -17 0 -29.5t11 -21t20.5 -13t28.5 -4.5q47 0 73 35l17 -20q-32 -45 -98 -45q-49 0 -75 26.5t-20 70.5l30 208h-67l4 33h67l20 139l-60 4q-6 0 -6 7l4 23h67l17 126l43 2l-18 -127h141l-3 -28z" />
    <glyph glyph-name="Utilde" unicode="&#x168;" horiz-adv-x="833" 
d="M632 865l33 -10q-9 -28 -28 -44.5t-42 -18.5q-29 -3 -66 17q-6 4 -16.5 9.5t-17 9t-13.5 6t-12 2.5q-19 -1 -37 -45l-33 11q22 63 63 63q7 0 14.5 -1.5t16 -5t13.5 -6t15 -8t13 -6.5q34 -18 53 -15q25 3 44 42zM858 670l-70 -6q-11 -1 -13 -12l-53 -382
q-12 -83 -53.5 -146.5t-106 -98.5t-142.5 -35q-120 0 -182.5 78t-44.5 205l53 381q2 9 -8 10l-64 6q-6 0 -5 7l3 23h220l-4 -30l-81 -7q-11 -1 -13 -13l-53 -380q-16 -113 33.5 -178t147.5 -65q101 0 173.5 67t88.5 179l54 380q1 9 -8 10l-88 7l5 30h215z" />
    <glyph glyph-name="utilde" unicode="&#x169;" horiz-adv-x="690" 
d="M533 665l33 -10q-6 -18 -16.5 -32t-24.5 -22t-29 -9q-29 -3 -66 17q-6 4 -16.5 9.5t-17 9t-13.5 6t-12 2.5q-19 -1 -37 -45l-33 11q22 63 63 63q7 0 14.5 -1.5t16 -5t13.5 -6t15 -8t13 -6.5q34 -18 53 -15q26 3 44 42zM631 500l-55 -392q-11 -81 52 -83h7l-3 -25h-26
q-41 1 -60 25.5t-13 70.5l2 12q-53 -59 -114.5 -89t-122.5 -29q-73 0 -110 41.5t-25 125.5l42 299q1 9 -8 10l-72 6l4 28h117q7 0 6 -7l-47 -334q-19 -138 104 -138q58 0 119.5 33.5t111.5 99.5l49 346h42z" />
    <glyph glyph-name="Umacron" unicode="&#x16a;" horiz-adv-x="833" 
d="M662 809h-264l5 33h264zM858 670l-70 -6q-11 -1 -13 -12l-53 -382q-12 -83 -53.5 -146.5t-106 -98.5t-142.5 -35q-120 0 -182.5 78t-44.5 205l53 381q2 9 -8 10l-64 6q-6 0 -5 7l3 23h220l-4 -30l-81 -7q-11 -1 -13 -13l-53 -380q-16 -113 33.5 -178t148.5 -65
q100 0 172.5 67t88.5 179l54 380q1 9 -8 10l-88 7l5 30h215z" />
    <glyph glyph-name="umacron" unicode="&#x16b;" horiz-adv-x="690" 
d="M563 609h-264l5 33h264zM631 500l-55 -392q-11 -81 52 -83h7l-3 -25h-26q-41 1 -60 25.5t-13 70.5l2 12q-53 -59 -114.5 -89t-122.5 -29q-73 0 -110 41.5t-25 125.5l42 299q1 9 -8 10l-72 6l4 28h117q7 0 6 -7l-47 -334q-19 -138 104 -138q58 0 119.5 33.5t111.5 99.5
l49 346h42z" />
    <glyph glyph-name="Uring" unicode="&#x16e;" horiz-adv-x="833" 
d="M546 940q41 0 65 -29t19 -69q-6 -38 -36.5 -65.5t-69.5 -27.5q-41 0 -65 29t-19 69q6 39 36.5 66t69.5 27zM547 913q-18 0 -34 -9t-27 -25.5t-14 -36.5q-4 -29 11 -47.5t40 -18.5q18 0 34 9t27 25.5t14 36.5q4 29 -11 47.5t-40 18.5zM858 670l-70 -6q-11 -1 -13 -12
l-53 -382q-18 -126 -101 -203t-201 -77q-120 0 -182.5 78t-44.5 205l53 381q2 9 -8 10l-64 6q-6 0 -5 7l3 23h220l-4 -30l-81 -7q-11 -1 -13 -13l-53 -380q-16 -113 33.5 -178t148.5 -65q100 0 172.5 67t88.5 179l54 380q1 9 -8 10l-88 7l5 30h215z" />
    <glyph glyph-name="uring" unicode="&#x16f;" horiz-adv-x="690" 
d="M447 740q41 0 65 -29t19 -69q-6 -38 -36.5 -65.5t-69.5 -27.5q-41 0 -65 29t-19 69q6 39 36.5 66t69.5 27zM448 713q-13 0 -25.5 -5.5t-23 -14.5t-17.5 -22.5t-9 -28.5q-4 -29 11 -47.5t40 -18.5q27 0 49 20.5t26 50.5q4 29 -11 47.5t-40 18.5zM631 500l-55 -392
q-11 -81 52 -83h7l-3 -25h-26q-41 1 -60 25.5t-13 70.5l2 12q-36 -40 -76.5 -67t-80.5 -39t-80 -12q-73 0 -110 41.5t-25 125.5l42 299q1 9 -8 10l-72 6l4 28h117q7 0 6 -7l-47 -334q-19 -138 104 -138q58 0 119.5 33.5t111.5 99.5l49 346h42z" />
    <glyph glyph-name="Uhungarumlaut" unicode="&#x170;" horiz-adv-x="833" 
d="M476 777h-42l119 142h54zM607 777h-42l118 142h55zM858 670l-70 -6q-11 -1 -13 -12l-53 -382q-18 -126 -101 -203t-201 -77q-120 0 -182.5 78t-44.5 205l53 381q2 9 -8 10l-64 6q-6 0 -5 7l3 23h220l-4 -30l-81 -7q-11 -1 -13 -13l-53 -380q-16 -113 33.5 -178t148.5 -65
q100 0 172.5 67t88.5 179l54 380q1 9 -8 10l-88 7l5 30h215z" />
    <glyph glyph-name="uhungarumlaut" unicode="&#x171;" horiz-adv-x="690" 
d="M377 577h-42l119 142h54zM508 577h-42l118 142h55zM631 500l-55 -392q-11 -81 52 -83h7l-3 -25h-26q-41 1 -60 25.5t-13 70.5l2 12q-36 -40 -76.5 -67t-80.5 -39.5t-80 -11.5q-73 0 -110 41.5t-25 125.5l42 299q1 9 -8 10l-72 6l4 28h117q7 0 6 -7l-47 -334
q-19 -138 104 -138q58 0 119.5 33.5t111.5 99.5l49 346h42z" />
    <glyph glyph-name="Uogonek" unicode="&#x172;" horiz-adv-x="833" 
d="M858 670l-70 -6q-11 -1 -13 -12l-53 -382q-14 -96 -67 -165.5t-132 -97.5q-83 -43 -93 -108q-4 -28 7.5 -44.5t34.5 -16.5q23 -1 62 19l6 -29q-41 -20 -74 -20q-38 0 -57 25t-15 62q7 55 61 98q-21 -3 -42 -3q-117 2 -177.5 80t-42.5 203l53 381q2 9 -8 10l-64 6
q-6 0 -5 7l3 23h220l-4 -30l-81 -7q-11 -1 -13 -13l-53 -380q-16 -113 33.5 -178t148.5 -65q100 0 172.5 67t88.5 179l54 380q1 9 -8 10l-88 7l5 30h215z" />
    <glyph glyph-name="uogonek" unicode="&#x173;" horiz-adv-x="690" 
d="M631 500l-55 -392q-11 -81 52 -83h7l-3 -25h-5q-24 1 -38 8q-62 -40 -70 -96q-4 -28 7.5 -44.5t34.5 -16.5q21 -1 61 20l6 -30q-42 -21 -73 -19q-38 0 -57.5 24.5t-14.5 61.5q8 65 77 110q-33 22 -27 78l2 12q-53 -59 -114.5 -89t-122.5 -29q-73 0 -110 41.5t-25 125.5
l42 299q1 9 -8 10l-72 6l4 28h117q7 0 6 -7l-47 -334q-19 -138 104 -138q58 0 119.5 33.5t111.5 99.5l49 346h42z" />
    <glyph glyph-name="Wcircumflex" unicode="&#x174;" horiz-adv-x="1097" 
d="M787 777h-40l-73 114l-106 -114h-42l123 142h56zM1163 670l-59 -5l-292 -664l-37 -1l-141 627l-318 -626l-37 -1l-104 660q-1 6 -7 6l-40 4q-6 0 -5 7l3 23h95l92 -626l290 574q7 15 -8 16l-76 7q-6 0 -5 7l3 22h154l135 -625l250 574q6 14 -8 15l-79 7q-6 0 -5 7l3 22
h200z" />
    <glyph glyph-name="wcircumflex" unicode="&#x175;" horiz-adv-x="856" 
d="M639 577h-40l-73 114l-106 -114h-41l122 142h56zM604 49l165 330q28 56 63.5 88.5t69.5 32.5h5l-2 -25q-22 0 -51.5 -29.5t-54.5 -78.5l-186 -367h-38l-89 438l-214 -438h-38l-101 462q-1 5 -7 6l-35 4q-6 0 -5 6l3 22h79l94 -451l219 451h36z" />
    <glyph glyph-name="Ycircumflex" unicode="&#x176;" horiz-adv-x="682" 
d="M580 777h-40l-73 114l-106 -114h-41l122 142h56zM749 670l-53 -5l-291 -414l-30 -205q-1 -10 8 -10l72 -6l-4 -30h-211l4 26q0 4 5 4l66 6q12 1 14 12l28 196l-178 418q-1 3 -6 4l-45 4q-6 0 -5 7l3 23h88l175 -408l248 353q5 7 3.5 13t-9.5 6l-75 7q-6 0 -5 7l3 22h199z
" />
    <glyph glyph-name="ycircumflex" unicode="&#x177;" horiz-adv-x="550" 
d="M486 577h-40l-73 114l-105 -114h-42l122 142h56zM277 42l185 344q29 54 64 84t70 30h6l-2 -25q-15 0 -33.5 -12t-38.5 -36.5t-37 -56.5l-243 -450q-19 -35 -45 -60.5t-56.5 -39t-62.5 -13.5l-23 -1l3 24l12 2q41 2 80 30t65 76l34 62h-8l-116 463q-1 4 -7 5l-33 4
q-6 0 -5 6l3 22h76z" />
    <glyph glyph-name="Ydieresis" unicode="&#x178;" horiz-adv-x="682" 
d="M386 865q13 0 21 -9.5t6 -22.5q-2 -10 -10.5 -18t-19.5 -8q-13 0 -20.5 9.5t-6.5 22.5q2 10 10.5 18t19.5 8zM535 865q12 0 20 -9.5t6 -22.5q-2 -10 -10.5 -18t-19.5 -8q-9 0 -15.5 4.5t-9.5 11.5t-2 16q2 10 10.5 18t20.5 8zM749 670l-53 -5l-291 -414l-30 -205
q-1 -10 8 -10l72 -6l-4 -30h-211l4 26q0 4 5 4l66 6q12 1 14 12l28 196l-178 418q-1 3 -6 4l-45 4q-6 0 -5 7l3 23h88l175 -408l248 353q5 7 3.5 13t-9.5 6l-75 7q-6 0 -5 7l3 22h199z" />
    <glyph glyph-name="Zacute" unicode="&#x179;" horiz-adv-x="585" 
d="M413 777h-42l121 142h55zM639 670l-533 -633h399q12 0 14 12l17 78h30l-18 -123q0 -4 -5 -4h-506l4 29l533 634h-371q-11 0 -14 -12l-17 -77h-29l17 122q1 4 6 4h476z" />
    <glyph glyph-name="zacute" unicode="&#x17a;" horiz-adv-x="502" 
d="M344 577h-42l121 142h55zM502 478l-388 -450h288q11 0 14 12l16 71h25l-15 -107q-1 -4 -5 -4h-378l3 22l388 450h-265q-11 0 -14 -12l-15 -71h-26l15 107q1 4 6 4h353z" />
    <glyph glyph-name="Zdotaccent" unicode="&#x17b;" horiz-adv-x="585" 
d="M412 865q12 0 20 -9.5t6 -22.5q-2 -10 -10.5 -18t-19.5 -8q-13 0 -20.5 9.5t-5.5 22.5q1 10 9.5 18t20.5 8zM639 670l-533 -633h399q12 0 14 12l17 78h30l-18 -123q0 -4 -5 -4h-506l4 29l533 634h-371q-11 0 -14 -12l-17 -77h-29l17 122q1 4 6 4h476z" />
    <glyph glyph-name="zdotaccent" unicode="&#x17c;" horiz-adv-x="502" 
d="M342 665q9 0 15.5 -4.5t9.5 -11.5t2 -16q-2 -10 -10.5 -18t-19.5 -8q-13 0 -20.5 9.5t-6.5 22.5q1 7 5.5 12.5t11 9.5t13.5 4zM502 478l-388 -450h288q11 0 14 12l16 71h25l-15 -107q-1 -4 -5 -4h-378l3 22l388 450h-265q-11 0 -14 -12l-15 -71h-26l15 107q1 4 6 4h353z
" />
    <glyph glyph-name="Zcaron" unicode="&#x17d;" horiz-adv-x="585" 
d="M430 777h-56l-82 142h40l73 -114l106 114h41zM639 670l-533 -633h399q12 0 14 12l17 78h30l-18 -123q0 -4 -5 -4h-506l4 29l533 634h-371q-11 0 -14 -12l-17 -77h-29l17 122q1 4 6 4h476z" />
    <glyph glyph-name="zcaron" unicode="&#x17e;" horiz-adv-x="502" 
d="M361 577h-56l-83 142h40l73 -114l106 114h42zM502 478l-388 -450h288q11 0 14 12l16 71h25l-15 -107q-1 -4 -5 -4h-378l3 22l388 450h-265q-11 0 -14 -12l-15 -71h-26l15 107q1 4 6 4h353z" />
    <glyph glyph-name="longs" unicode="&#x17f;" horiz-adv-x="416" 
d="M401 750q69 -1 123 -39l-17 -25q-47 32 -102 32q-54 0 -95 -32.5t-50 -93.5l-80 -573q-28 -197 -127 -199h-7l3 25q28 0 53 47t36 130l63 443l-61 4q-7 0 -6 7l3 21l68 3l14 97q5 38 22.5 67.5t42.5 48t55 28t62 9.5z" />
    <glyph glyph-name="florin" unicode="&#x192;" horiz-adv-x="424" 
d="M409 750q69 -1 123 -39l-17 -25q-47 32 -102 32q-54 0 -95 -32.5t-49 -93.5l-25 -174h150l-4 -27l-151 -8l-67 -481q-7 -46 -43 -73q-39 -24 -87 -17l6 25q35 2 57 21q21 17 26 49l67 477l-61 3q-7 0 -6 7l3 24h68l26 179q10 74 62 113.5t119 39.5z" />
    <glyph glyph-name="Ohorn" unicode="&#x1a0;" horiz-adv-x="783" 
d="M813 831l37 11q24 -59 12 -113q-10 -46 -44 -73.5t-87 -28.5q-11 0 -27 1q46 -49 65 -120.5t7 -160.5q-23 -160 -128.5 -258.5t-255.5 -98.5q-152 0 -230.5 100.5t-56.5 261.5q23 160 128.5 258.5t255.5 98.5q94 0 161 -42q31 -15 65 -15q88 0 108 80q11 47 -10 99z
M488 672q-131 0 -222 -88t-112 -237q-21 -147 44.5 -233.5t194.5 -86.5q131 0 222.5 88.5t111.5 236.5q21 147 -44.5 233.5t-194.5 86.5z" />
    <glyph glyph-name="ohorn" unicode="&#x1a1;" 
d="M636 634l32 9q24 -60 12 -115q-11 -45 -45 -72t-89 -29q49 -71 34 -180q-16 -115 -92.5 -186t-186.5 -71q-112 0 -169.5 73t-40.5 190q16 115 92.5 186t186.5 71q98 0 154 -58l18 1q41 2 67.5 23t35.5 57q13 48 -9 101zM369 479q-60 0 -110.5 -28t-83.5 -81t-43 -123
q-14 -103 32 -164.5t137 -61.5q92 0 157 63t80 169q15 103 -31.5 164.5t-137.5 61.5z" />
    <glyph glyph-name="Uhorn" unicode="&#x1af;" horiz-adv-x="837" 
d="M870 833l27 14q33 -27 40 -63q5 -19 0.5 -37.5t-19 -35t-38.5 -28.5q-22 -9 -47 -11l-45 -4q-11 -2 -12 -13l-54 -384q-18 -127 -101 -204t-201 -77q-120 0 -182.5 78.5t-44.5 204.5l53 381q2 10 -8 11l-64 5q-6 0 -5 7l3 23h220l-4 -30l-81 -7q-11 -1 -13 -12l-53 -380
q-16 -113 33.5 -178.5t148.5 -65.5q100 0 172.5 67t88.5 179l54 380q1 9 -8 10l-87 7l4 30h189q12 2 24 9q24 10 35 30t7 43q-7 30 -32 51z" />
    <glyph glyph-name="uhorn" unicode="&#x1b0;" horiz-adv-x="690" 
d="M682 640l24 13q35 -29 41 -68q4 -30 -11.5 -56.5t-52.5 -42.5q-25 -10 -54 -10l-53 -368q-11 -81 52 -83h7l-3 -25h-26q-41 1 -60 25.5t-13 70.5l2 12q-53 -59 -114.5 -89t-122.5 -29q-73 0 -110 41.5t-25 125.5l42 299q1 9 -8 10l-72 6l4 28h117q7 0 6 -7l-47 -334
q-19 -138 104 -138q58 0 119.5 33.5t111.5 99.5l43 302q1 9 -8 10l-72 6l4 28h110q26 -2 50 9q26 11 38.5 32t8.5 45q-6 31 -32 54z" />
    <glyph glyph-name="DZcaron" unicode="&#x1c4;" horiz-adv-x="1341" 
d="M1185 777h-55l-83 142h40l73 -114l106 114h42zM172 700h290q152 0 230.5 -96t56.5 -257q-23 -159 -127.5 -253t-256.5 -94h-291l3 26q1 4 5 4l66 6q4 0 8 4t5 8l85 606q1 10 -8 11l-64 5q-6 0 -5 7zM1394 670l-533 -633h400q11 0 14 12l17 78h29l-17 -123q-1 -4 -5 -4
h-506l4 29l533 634h-371q-12 0 -14 -12l-17 -77h-29l17 122q0 4 5 4h477zM367 663l-73 -6l-87 -614l72 -6h89q131 0 221.5 84t110.5 231q21 146 -45 228.5t-197 82.5h-91z" />
    <glyph glyph-name="Dzcaron" unicode="&#x1c5;" horiz-adv-x="1257" 
d="M1116 577h-56l-82 142h40l73 -114l106 114h42zM172 700h290q152 0 230.5 -96t56.5 -257q-23 -159 -127.5 -253t-256.5 -94h-291l3 26q1 4 5 4l66 6q4 0 8 4t5 8l85 606q1 10 -8 11l-64 5q-6 0 -5 7zM367 663l-73 -6l-87 -614l72 -6h89q131 0 221.5 84t110.5 232
q21 145 -45 227.5t-197 82.5h-91zM1257 478l-387 -450h287q12 0 14 12l16 71h26l-15 -107q-1 -4 -6 -4h-377l3 22l387 450h-264q-11 0 -14 -12l-16 -71h-25l15 107q0 4 5 4h354z" />
    <glyph glyph-name="dzcaron" unicode="&#x1c6;" horiz-adv-x="1124" 
d="M466 744l106 6q7 0 6 -7l-92 -658q-4 -29 13 -44.5t56 -15.5h3l-3 -25h-19q-48 0 -72 18t-19 51q-82 -79 -178 -79q-90 0 -142 69t-34 194q16 116 80 186.5t148 70.5q51 0 95 -28t74 -83l43 305q1 10 -8 10l-61 3zM983 577h-55l-83 142h40l73 -114l106 114h42zM1125 478
l-388 -450h288q11 0 14 12l16 71h25l-15 -107q-1 -4 -6 -4h-377l3 22l387 450h-264q-11 0 -14 -12l-16 -71h-25l15 107q1 4 5 4h354zM329 479q-69 0 -125 -61.5t-72 -169.5q-15 -108 28.5 -166.5t116.5 -58.5q91 0 170 85l35 246q-25 63 -66 94t-87 31z" />
    <glyph glyph-name="LJ" unicode="&#x1c7;" horiz-adv-x="934" 
d="M954 670l-69 -6q-11 -1 -13 -12l-87 -618q-12 -88 -66.5 -150t-139.5 -86l-10 29q67 22 112.5 78t56.5 132l86 616q1 10 -8 10l-75 7q-6 0 -6 7l4 23h219zM388 670l-82 -7q-12 -1 -13 -12l-87 -614h282q4 0 8 3.5t5 8.5l18 80h29l-17 -125q-1 -4 -6 -4h-451l3 26q1 4 5 4
l66 6q4 0 8 4t5 8l85 606q1 10 -8 11l-64 5q-6 0 -5 7l3 23h220z" />
    <glyph glyph-name="Lj" unicode="&#x1c8;" horiz-adv-x="823" 
d="M821 707q13 0 21 -9.5t6 -22.5q-2 -12 -11 -20t-21 -8q-13 0 -21 10t-6 23q2 11 11 19t21 8zM388 670l-82 -7q-12 -1 -13 -12l-87 -614h282q4 0 8 3.5t5 8.5l18 80h29l-17 -125q-1 -4 -6 -4h-451l3 26q1 4 5 4l66 6q4 0 8 4t5 8l85 606q1 10 -8 11l-64 5q-6 0 -5 7l3 23
h220zM703 499l106 6q8 0 7 -7l-84 -596q-6 -45 -38 -70.5t-80 -25.5t-74 25l17 23q17 -17 50 -17q34 0 56.5 18.5t27.5 51.5l77 552q2 10 -8 10l-61 3z" />
    <glyph glyph-name="lj" unicode="&#x1c9;" horiz-adv-x="587" 
d="M178 744l107 6q7 0 6 -7l-89 -629q-12 -88 67 -89h6l-3 -25h-13q-55 0 -80.5 30t-18.5 85l83 589q2 10 -8 10l-61 3zM584 707q14 0 22 -9.5t6 -22.5q-2 -12 -11 -20t-21 -8q-13 0 -21 10t-6 23q1 11 10.5 19t20.5 8zM467 499l106 6q7 0 6 -7l-83 -596q-6 -45 -38 -70.5
t-80 -25.5t-74 25l17 23q17 -17 50 -17q16 0 30.5 5t25.5 13.5t18 22t9 29.5l78 552q1 10 -8 10l-61 3z" />
    <glyph glyph-name="NJ" unicode="&#x1ca;" horiz-adv-x="1215" 
d="M874 670l-70 -6q-12 -1 -13 -12l-92 -652h-44l-373 623l-82 -576q-1 -10 8 -10l81 -7l-5 -30h-215l3 26q1 4 5 4l66 6q11 1 13 12l85 606q2 10 -8 11l-64 5q-6 0 -5 7l3 23h123l375 -626l81 579q2 10 -7 11l-74 6q-7 0 -6 7l4 23h215zM1236 670l-69 -6q-12 -1 -13 -12
l-87 -618q-12 -88 -66.5 -150t-139.5 -86l-10 29q67 22 112 78t56 132l87 616q1 10 -8 10l-76 7q-6 0 -5 7l3 23h220z" />
    <glyph glyph-name="Nj" unicode="&#x1cb;" horiz-adv-x="1105" 
d="M1102 707q13 0 21 -9.5t7 -22.5q-1 -8 -6 -14t-11.5 -10t-14.5 -4q-13 0 -21 10t-6 23q1 7 5.5 13.5t11.5 10t14 3.5zM874 670l-70 -6q-12 -1 -13 -12l-92 -652h-44l-373 623l-82 -576q-1 -10 8 -10l81 -7l-5 -30h-215l3 26q1 4 5 4l66 6q11 1 13 12l85 606q2 10 -8 11
l-64 5q-6 0 -5 7l3 23h123l375 -626l81 579q2 10 -7 10l-74 7q-7 0 -6 7l4 23h215zM985 499l106 6q7 0 6 -7l-83 -596q-7 -45 -38.5 -70.5t-80.5 -25.5q-48 0 -73 25l17 23q17 -17 50 -17q34 0 56.5 18.5t26.5 51.5l78 552q1 10 -9 10l-60 3z" />
    <glyph glyph-name="nj" unicode="&#x1cc;" horiz-adv-x="956" 
d="M953 707q14 0 22 -9.5t6 -22.5q-2 -12 -11 -20t-21 -8q-8 0 -15 4.5t-10 12t-2 16.5q1 7 5.5 13.5t11.5 10t14 3.5zM472 510q73 0 110 -41.5t25 -125.5l-32 -229q-13 -88 66 -89h3l-3 -25h-9q-56 0 -81.5 30t-17.5 85l32 226q19 138 -104 138q-58 0 -119.5 -34
t-111.5 -99l-49 -346h-42l64 459q1 10 -8 10l-61 3l4 27l106 6q8 0 6 -7l-15 -107q53 60 114.5 89.5t122.5 29.5zM836 499l106 6q7 0 6 -7l-83 -596q-4 -30 -20 -51.5t-41 -33t-57 -11.5q-48 0 -74 25l17 23q17 -17 50 -17q34 0 56.5 18.5t26.5 51.5l78 552q1 10 -8 10
l-61 3z" />
    <glyph glyph-name="Acaron" unicode="&#x1cd;" horiz-adv-x="760" 
d="M518 777h-56l-82 142h40l73 -114l106 114h41zM680 35l56 -5l-4 -30h-205l3 25q1 4 5 4l74 7q7 0 12 5.5t3 13.5l-45 162h-347l-99 -180l90 -7l-5 -30h-190l4 26q0 4 4 5l47 4q6 0 10 7l363 657l42 2zM252 254h318l-104 387z" />
    <glyph glyph-name="acaron" unicode="&#x1ce;" horiz-adv-x="630" 
d="M392 577h-56l-83 142h40l73 -114l106 114h42zM372 510q85 1 171 -41q4 -1 3 -5l-50 -359q-11 -79 66 -80h3l-3 -25h-19q-48 0 -71 22.5t-18 65.5l3 20q-48 -57 -103.5 -87.5t-108.5 -30.5q-82 0 -127 68.5t-27 194.5q17 123 95 189.5t186 67.5zM375 479q-61 -1 -111 -26
t-85.5 -77.5t-46.5 -127.5q-15 -109 21.5 -167t102.5 -58q32 0 66 14t70.5 44t67.5 73l43 298q-63 27 -128 27z" />
    <glyph glyph-name="Icaron" unicode="&#x1cf;" horiz-adv-x="358" 
d="M317 777h-56l-83 142h40l73 -114l106 114h42zM378 670l-71 -6q-11 -1 -13 -12l-85 -606q-1 -10 8 -10l71 -6l-4 -30h-210l3 26q1 4 5 4l67 6q5 0 8.5 4t4.5 8l85 606q2 10 -8 10l-65 6q-6 0 -5 7l3 23h211z" />
    <glyph glyph-name="icaron" unicode="&#x1d0;" horiz-adv-x="341" 
d="M271 577h-55l-83 142h40l73 -114l106 114h42zM144 499l106 6q7 0 6 -7l-54 -384q-12 -88 67 -89h6l-3 -25h-13q-55 0 -80.5 30t-18.5 85l49 344q1 10 -9 10l-60 3z" />
    <glyph glyph-name="Ocaron" unicode="&#x1d1;" horiz-adv-x="783" 
d="M529 777h-56l-83 142h41l73 -114l105 114h42zM489 709q152 0 231 -100t56 -262q-23 -160 -128.5 -258.5t-255.5 -98.5q-152 0 -230.5 100.5t-56.5 261.5q23 160 128.5 258.5t255.5 98.5zM488 672q-131 0 -222 -88t-112 -237q-21 -147 44.5 -233.5t194.5 -86.5
q131 0 222.5 88.5t111.5 236.5q8 50 4.5 92.5t-15.5 78t-33.5 63.5t-50 47t-65.5 29t-79 10z" />
    <glyph glyph-name="ocaron" unicode="&#x1d2;" 
d="M410 577h-56l-83 142h40l73 -114l106 114h42zM370 510q111 0 168.5 -72.5t41.5 -190.5q-16 -115 -92.5 -186t-186.5 -71q-112 0 -169.5 73t-40.5 190q16 115 92.5 186t186.5 71zM369 479q-92 0 -157 -63t-80 -169q-14 -103 32 -164.5t137 -61.5q92 0 157 63t80 169
q15 103 -31.5 164.5t-137.5 61.5z" />
    <glyph glyph-name="Ucaron" unicode="&#x1d3;" horiz-adv-x="833" 
d="M554 777h-56l-82 142h40l73 -114l106 114h41zM858 670l-70 -6q-11 -1 -13 -12l-53 -382q-12 -83 -53.5 -146.5t-106 -98.5t-142.5 -35q-120 0 -182.5 78t-44.5 205l53 381q2 9 -8 10l-64 6q-6 0 -5 7l3 23h220l-4 -30l-81 -7q-11 -1 -13 -13l-53 -380q-16 -113 33.5 -178
t147.5 -65q101 0 173.5 67t88.5 179l54 380q1 9 -8 10l-88 7l5 30h215z" />
    <glyph glyph-name="ucaron" unicode="&#x1d4;" horiz-adv-x="690" 
d="M455 577h-56l-82 142h40l73 -114l106 114h41zM631 500l-55 -392q-11 -81 52 -83h7l-3 -25h-26q-41 1 -60 25.5t-13 70.5l2 12q-36 -40 -76.5 -67t-80.5 -39.5t-80 -11.5q-73 0 -110 41.5t-25 125.5l42 299q1 9 -8 10l-72 6l4 28h117q7 0 6 -7l-47 -334q-19 -138 104 -138
q58 0 119.5 33.5t111.5 99.5l49 346h42z" />
    <glyph glyph-name="Udieresismacron" unicode="&#x1d5;" horiz-adv-x="833" 
d="M685 971h-264l4 33h264zM462 865q12 0 20 -9.5t6 -22.5q-1 -7 -5.5 -12.5t-11 -9.5t-13.5 -4q-13 0 -20.5 9.5t-5.5 22.5q1 10 9.5 18t20.5 8zM610 865q12 0 20 -9.5t6 -22.5q-1 -10 -10 -18t-20 -8q-9 0 -15.5 4.5t-9.5 11.5t-1 16q1 10 10 18t20 8zM858 670l-70 -6
q-11 -1 -13 -12l-53 -382q-18 -126 -101 -203t-201 -77q-120 0 -182.5 78t-44.5 205l53 381q2 9 -8 10l-64 6q-6 0 -5 7l3 23h220l-4 -30l-81 -7q-11 -1 -13 -13l-53 -380q-16 -113 33.5 -178t148.5 -65q100 0 172.5 67t88.5 179l54 380q1 9 -8 10l-87 7l4 30h215z" />
    <glyph glyph-name="udieresismacron" unicode="&#x1d6;" horiz-adv-x="690" 
d="M581 740h-264l5 33h264zM363 665q12 0 20 -9.5t6 -22.5q-2 -10 -10.5 -18t-19.5 -8q-13 0 -20.5 9.5t-5.5 22.5q1 10 10 18t20 8zM511 665q13 0 20.5 -9.5t5.5 -22.5q-1 -10 -10 -18t-20 -8q-13 0 -20.5 9.5t-5.5 22.5q1 10 10 18t20 8zM631 500l-55 -392q-11 -81 52 -83
h7l-3 -25h-26q-41 1 -60 25.5t-13 70.5l2 12q-53 -59 -114.5 -89t-122.5 -29q-73 0 -110 41.5t-25 125.5l42 299q1 9 -8 10l-72 6l4 28h117q7 0 6 -7l-47 -334q-19 -138 104 -138q58 0 119.5 33.5t111.5 99.5l49 346h42z" />
    <glyph glyph-name="Udieresisacute" unicode="&#x1d7;" horiz-adv-x="833" 
d="M557 922h-41l121 142h54zM462 865q12 0 20 -9.5t6 -22.5q-2 -10 -10.5 -18t-19.5 -8q-13 0 -20.5 9.5t-5.5 22.5q1 10 9.5 18t20.5 8zM610 865q12 0 20 -9.5t6 -22.5q-1 -10 -10 -18t-20 -8q-13 0 -20.5 9.5t-5.5 22.5q1 10 10 18t20 8zM858 670l-70 -6q-11 -1 -13 -12
l-53 -382q-18 -126 -101 -203t-201 -77q-120 0 -182.5 78t-44.5 205l53 381q2 9 -8 10l-64 6q-6 0 -5 7l3 23h220l-4 -30l-81 -7q-11 -1 -13 -13l-53 -380q-16 -113 33.5 -178t148.5 -65q100 0 172.5 67t88.5 179l54 380q1 9 -8 10l-87 7l4 30h215z" />
    <glyph glyph-name="udieresisacute" unicode="&#x1d8;" horiz-adv-x="690" 
d="M456 707h-41l121 142h54zM363 665q12 0 20 -9.5t6 -22.5q-2 -10 -10.5 -18t-19.5 -8q-13 0 -20.5 9.5t-5.5 22.5q1 10 10 18t20 8zM511 665q13 0 20.5 -9.5t5.5 -22.5q-1 -10 -10 -18t-20 -8q-13 0 -20.5 9.5t-5.5 22.5q1 7 5 12.5t10.5 9.5t14.5 4zM631 500l-55 -392
q-11 -81 52 -83h7l-3 -25h-26q-41 1 -60 25.5t-13 70.5l2 12q-36 -40 -76.5 -67t-80.5 -39.5t-80 -11.5q-73 0 -110 41.5t-25 125.5l42 299q1 9 -8 10l-72 6l4 28h117q7 0 6 -7l-47 -334q-19 -138 104 -138q58 0 119.5 33.5t111.5 99.5l49 346h42z" />
    <glyph glyph-name="Udieresiscaron" unicode="&#x1d9;" horiz-adv-x="833" 
d="M574 922h-55l-83 142h40l73 -114l106 114h42zM462 865q12 0 20 -9.5t6 -22.5q-2 -10 -10.5 -18t-19.5 -8q-13 0 -20.5 9.5t-5.5 22.5q1 10 9.5 18t20.5 8zM610 865q12 0 20 -9.5t6 -22.5q-1 -10 -10 -18t-20 -8q-13 0 -20.5 9.5t-5.5 22.5q1 10 10 18t20 8zM858 670
l-70 -6q-11 -1 -13 -12l-53 -382q-18 -126 -101 -203t-201 -77q-120 0 -182.5 78t-44.5 205l53 381q2 9 -8 10l-64 6q-6 0 -5 7l3 23h220l-4 -30l-81 -7q-11 -1 -13 -13l-53 -380q-16 -113 33.5 -178t148.5 -65q100 0 172.5 67t88.5 179l54 380q1 9 -8 10l-88 7l5 30h215z
" />
    <glyph glyph-name="udieresiscaron" unicode="&#x1da;" horiz-adv-x="690" 
d="M473 707h-56l-82 142h40l73 -114l106 114h41zM363 665q12 0 20 -9.5t6 -22.5q-2 -10 -10.5 -18t-19.5 -8q-13 0 -20.5 9.5t-5.5 22.5q1 10 10 18t20 8zM511 665q13 0 20.5 -9.5t5.5 -22.5q-1 -10 -10 -18t-20 -8q-13 0 -20.5 9.5t-5.5 22.5q1 7 5 12.5t10.5 9.5t14.5 4z
M631 500l-55 -392q-11 -81 52 -83h7l-3 -25h-26q-41 1 -60 25.5t-13 70.5l2 12q-53 -59 -114.5 -89t-122.5 -29q-73 0 -110 41.5t-25 125.5l42 299q1 9 -8 10l-72 6l4 28h117q7 0 6 -7l-47 -334q-19 -138 104 -138q58 0 119.5 33.5t111.5 99.5l49 346h42z" />
    <glyph glyph-name="Udieresisgrave" unicode="&#x1db;" horiz-adv-x="833" 
d="M575 922h-40l-94 142h53zM462 865q12 0 20 -9.5t6 -22.5q-2 -10 -10.5 -18t-19.5 -8q-13 0 -20.5 9.5t-5.5 22.5q1 10 9.5 18t20.5 8zM610 865q12 0 20 -9.5t6 -22.5q-1 -10 -10 -18t-20 -8q-13 0 -20.5 9.5t-5.5 22.5q1 10 10 18t20 8zM858 670l-70 -6q-11 -1 -13 -12
l-53 -382q-18 -126 -101 -203t-201 -77q-120 0 -182.5 78t-44.5 205l53 381q2 9 -8 10l-64 6q-6 0 -5 7l3 23h220l-4 -30l-81 -7q-11 -1 -13 -13l-53 -380q-16 -113 33.5 -178t148.5 -65q100 0 172.5 67t88.5 179l54 380q1 9 -8 10l-88 7l5 30h215z" />
    <glyph glyph-name="udieresisgrave" unicode="&#x1dc;" horiz-adv-x="690" 
d="M474 707h-40l-94 142h53zM363 665q12 0 20 -9.5t6 -22.5q-2 -10 -10.5 -18t-19.5 -8q-13 0 -20.5 9.5t-5.5 22.5q1 10 10 18t20 8zM511 665q12 0 20 -9.5t6 -22.5q-1 -10 -10 -18t-20 -8q-13 0 -20.5 9.5t-5.5 22.5q1 10 10 18t20 8zM631 500l-55 -392q-11 -81 52 -83h7
l-3 -25h-26q-41 1 -60 25.5t-13 70.5l2 12q-53 -59 -114.5 -89t-122.5 -29q-73 0 -110 41.5t-25 125.5l42 299q1 9 -8 10l-72 6l4 28h117q7 0 6 -7l-47 -334q-19 -138 104 -138q58 0 119.5 33.5t111.5 99.5l49 346h42z" />
    <glyph glyph-name="Adieresismacron" unicode="&#x1de;" horiz-adv-x="760" 
d="M638 894h-264l5 33h264zM421 834q13 0 20.5 -9t6.5 -22q-2 -11 -10.5 -18.5t-19.5 -7.5q-13 0 -20.5 9.5t-6.5 21.5q2 11 10.5 18.5t19.5 7.5zM570 834q12 0 20 -9t6 -22q-2 -11 -10.5 -18.5t-19.5 -7.5q-13 0 -20.5 9.5t-6.5 21.5q1 5 4 10t7 8.5t9 5.5t11 2zM680 35
l56 -5l-4 -30h-205l3 25q1 4 5 4l74 7q7 0 12 5.5t3 13.5l-45 162h-347l-99 -180l90 -7l-5 -30h-190l4 26q0 4 4 5l47 4q6 0 10 7l363 657l42 2zM252 254h318l-104 387z" />
    <glyph glyph-name="adieresismacron" unicode="&#x1df;" horiz-adv-x="630" 
d="M548 722h-264l5 33h264zM332 665q13 0 20.5 -9.5t5.5 -22.5q-1 -10 -10 -18t-20 -8q-13 0 -20.5 9.5t-5.5 22.5q1 10 10 18t20 8zM480 665q13 0 20.5 -9.5t5.5 -22.5q-1 -10 -10 -18t-20 -8q-13 0 -20.5 9.5t-5.5 22.5q1 10 10 18t20 8zM372 510q85 1 171 -41q4 -1 3 -5
l-50 -359q-11 -79 66 -80h3l-3 -25h-19q-48 0 -71 22.5t-18 65.5l3 20q-48 -57 -103.5 -87.5t-108.5 -30.5q-82 0 -127 68.5t-27 194.5q11 82 52.5 141t100 87t128.5 29zM375 479q-94 -1 -160.5 -60.5t-82.5 -170.5q-15 -109 21.5 -167t102.5 -58q49 0 103 33.5t101 97.5
l43 298q-63 27 -128 27z" />
    <glyph glyph-name="Gcaron" unicode="&#x1e6;" horiz-adv-x="705" 
d="M513 777h-55l-83 142h40l73 -114l106 114h42zM489 709q114 0 215 -61q4 -1 3 -5l-16 -116h-30l7 92q0 5 -3 9q-87 44 -177 44q-80 0 -149 -36t-119.5 -111t-65.5 -178q-20 -147 45.5 -233.5t194.5 -86.5q123 0 213 81l24 166q1 9 -8 10l-179 9l4 31h227q2 0 4 -2t2 -5
l-45 -317h-31l4 62q-96 -72 -221 -72q-150 0 -227.5 100.5t-54.5 261.5q10 69 35 127t62 100t83 71.5t97.5 44t105.5 14.5z" />
    <glyph glyph-name="gcaron" unicode="&#x1e7;" horiz-adv-x="601" 
d="M392 577h-56l-82 142h40l73 -114l106 114h41zM372 510q85 1 171 -41q4 -1 3 -5l-64 -453q-7 -55 -29 -96t-53.5 -64.5t-68 -34t-77.5 -10.5q-85 0 -166 42l20 26q72 -37 143 -37q74 0 125.5 42t64.5 135l13 90q-32 -37 -68 -63t-71.5 -38.5t-69.5 -12.5q-82 0 -127 68.5
t-27 194.5q17 123 95 189.5t186 67.5zM375 479q-94 -1 -160.5 -60.5t-82.5 -170.5q-15 -109 21.5 -167t102.5 -58q49 0 103 33.5t101 97.5l43 298q-63 27 -128 27z" />
    <glyph glyph-name="DZ" unicode="&#x1f1;" horiz-adv-x="1341" 
d="M172 700h290q152 0 230.5 -96t56.5 -257q-23 -159 -127.5 -253t-256.5 -94h-291l3 26q1 4 5 4l66 6q4 0 8 4t5 8l85 606q1 10 -8 11l-64 5q-6 0 -5 7zM1394 670l-533 -633h400q11 0 14 12l17 78h29l-17 -123q-1 -4 -5 -4h-506l4 29l533 634h-371q-12 0 -14 -12l-17 -77
h-29l17 122q0 4 5 4h477zM367 663l-73 -6l-87 -614l72 -6h89q131 0 221.5 84t110.5 231q21 146 -45 228.5t-197 82.5h-91z" />
    <glyph glyph-name="Dz" unicode="&#x1f2;" horiz-adv-x="1257" 
d="M172 700h290q152 0 230.5 -96t56.5 -257q-23 -159 -127.5 -253t-256.5 -94h-291l3 26q1 4 5 4l66 6q4 0 8 4t5 8l85 606q1 10 -8 11l-64 5q-6 0 -5 7zM367 663l-73 -6l-87 -614l72 -6h89q131 0 221.5 84t110.5 232q21 145 -45 227.5t-197 82.5h-91zM1257 478l-387 -450
h287q12 0 14 12l16 71h26l-15 -107q-1 -4 -6 -4h-377l3 22l387 450h-264q-11 0 -14 -12l-16 -71h-25l15 107q0 4 5 4h354z" />
    <glyph glyph-name="dz" unicode="&#x1f3;" horiz-adv-x="1124" 
d="M466 744l106 6q7 0 6 -7l-92 -658q-4 -29 13 -44.5t56 -15.5h3l-3 -25h-19q-48 0 -72 18t-19 51q-82 -79 -178 -79q-90 0 -142 69t-34 194q16 116 80 186.5t148 70.5q51 0 95 -28t74 -83l43 305q1 10 -8 10l-61 3zM1125 478l-388 -450h288q11 0 14 12l16 71h25l-15 -107
q-1 -4 -6 -4h-377l3 22l387 450h-264q-11 0 -14 -12l-16 -71h-25l15 107q1 4 5 4h354zM329 479q-69 0 -125 -61.5t-72 -169.5q-15 -108 28.5 -166.5t116.5 -58.5q91 0 170 85l35 246q-25 63 -66 94t-87 31z" />
    <glyph glyph-name="Oslashacute" unicode="&#x1fe;" horiz-adv-x="783" 
d="M513 777h-42l121 142h55zM651 750l-30 -66q89 -38 130.5 -127t24.5 -210q-23 -160 -128.5 -258.5t-255.5 -98.5q-47 0 -89 11l-23 -51h-50l30 65q-89 39 -130.5 127.5t-24.5 209.5q23 160 128.5 258.5t255.5 98.5q47 0 88 -10l24 51h50zM154 347q-15 -108 17.5 -185
t105.5 -111l284 613q-34 8 -73 8q-131 0 -222 -88t-112 -237zM727 352q16 109 -17 186t-106 111l-284 -613q34 -9 73 -9q131 0 222.5 88.5t111.5 236.5z" />
    <glyph glyph-name="oslashacute" unicode="&#x1ff;" 
d="M393 580h-42l121 142h55zM496 550l-28 -59q65 -28 94.5 -92t17.5 -152q-16 -115 -92.5 -186t-186.5 -71q-33 0 -63 7l-21 -47h-42l27 59q-64 28 -94 92.5t-17 151.5q16 115 92.5 186t186.5 71q33 0 62 -7l22 47h42zM132 247q-10 -75 12.5 -129t71.5 -79l202 434
q-23 6 -49 6q-92 0 -157 -63t-80 -169zM538 253q11 75 -11.5 129t-72.5 79l-202 -434q23 -6 49 -6q92 0 157 63t80 169z" />
    <glyph glyph-name="Scommaaccent" unicode="&#x218;" horiz-adv-x="569" 
d="M413 710q92 0 149 -39q3 -1 2 -4l-16 -117h-29l6 94q0 5 -4 7q-44 23 -109 23q-87 0 -144 -35.5t-65 -92.5q-5 -36 3 -57.5t39.5 -46t102.5 -62.5q82 -42 121 -73t51 -60t7 -71q-12 -83 -90.5 -134t-191.5 -52q-104 0 -170 41q-3 2 -3 5l17 117h29l-6 -92q0 -6 4 -8
q54 -26 131 -26q95 0 157.5 41t72.5 109q2 25 0 42.5t-19 36.5t-45.5 38t-80.5 47q-43 23 -72 40.5t-51.5 34.5t-33 30.5t-18 30.5t-6 33.5t2.5 39.5q10 71 82 115.5t177 44.5zM270 -56q24 0 29.5 -26.5t-7.5 -63.5t-35 -68l-23 10q18 29 26 55q9 28 3 43l-2 -1
q-9 2 -14.5 9.5t-3.5 17.5q1 10 9 16.5t18 7.5z" />
    <glyph glyph-name="scommaaccent" unicode="&#x219;" horiz-adv-x="442" 
d="M319 510q69 0 113 -27q3 -2 3 -5l-15 -103h-25l5 86q1 5 -4 7q-30 14 -73 14q-64 0 -105.5 -25.5t-46.5 -65.5q-5 -36 12.5 -57.5t89.5 -59.5q84 -45 108.5 -74.5t18.5 -74.5q-8 -60 -67.5 -97t-144.5 -37q-73 0 -122 25q-4 1 -3 5l14 102h26l-5 -84q-1 -6 4 -8
q37 -12 84 -12q48 0 85.5 13.5t60.5 38t28 56.5q5 36 -14 58t-89 60q-62 32 -89.5 54t-35 42.5t-3.5 53.5q8 52 60.5 83.5t129.5 31.5zM207 -56q23 0 28.5 -26.5t-7.5 -63.5t-35 -68l-22 10q17 29 25 55q10 28 3 43l-2 -1q-6 1 -10.5 4.5t-6.5 9.5t-1 13q1 10 9 16.5t19 7.5
z" />
    <glyph glyph-name="uni021A" unicode="&#x21a;" horiz-adv-x="640" 
d="M131 700h573q6 0 5 -7l-17 -121h-29l6 83q0 9 -9 9h-223l-87 -618q-1 -10 8 -10l71 -6l-4 -30h-210l3 26q1 4 5 4l67 6q3 0 6 2t5 4.5t2 5.5l87 616h-221q-11 0 -14 -12l-17 -80h-30l18 124q0 4 5 4zM306 -56q23 0 28.5 -26.5t-7.5 -63.5t-35 -68l-22 10q17 29 25 55
q10 28 3 43l-1 -1q-10 2 -15.5 9.5t-3.5 17.5q1 10 9 16.5t19 7.5z" />
    <glyph glyph-name="uni021B" unicode="&#x21b;" horiz-adv-x="376" 
d="M223 500h141l-3 -28l-143 -7l-53 -379q-5 -33 11 -50.5t49 -17.5q47 0 73 35l17 -20q-32 -45 -98 -45q-49 0 -75 26.5t-20 70.5l54 380l-60 4q-6 0 -6 7l4 23h67l17 126l43 2zM173 -56q24 0 29.5 -26.5t-7.5 -63.5t-35 -68l-23 10q18 29 26 55q9 28 3 43l-2 -1
q-9 2 -14.5 9.5t-4.5 17.5q2 10 10 16.5t18 7.5z" />
    <glyph glyph-name="uni0228" unicode="&#x228;" horiz-adv-x="579" 
d="M172 700h442q7 0 6 -7l-17 -122h-29l5 83q1 9 -9 9h-276l-40 -289h243l-5 -35h-243l-43 -302h294q3 0 6 1.5t5 4.5t2 6l18 80h29l-17 -125q-1 -4 -6 -4h-233l-28 -56q10 0 17 -3q27 -5 43 -25.5t11 -47.5q-4 -30 -31.5 -50.5t-63.5 -20.5q-39 0 -62 23l10 24
q22 -19 49 -19q14 0 27 5.5t22 17t12 26.5q4 25 -10.5 37t-38.5 13q-11 0 -23 -2l35 78h-199l3 26q1 4 5 4l66 6q4 0 8 4t5 8l85 606q1 10 -8 11l-64 5q-6 0 -5 7z" />
    <glyph glyph-name="uni0229" unicode="&#x229;" horiz-adv-x="539" 
d="M354 510q87 0 136 -45.5t47 -114.5q-4 -127 -211 -164q-76 -13 -194 -15q6 -71 47.5 -110.5t108.5 -39.5q106 0 180 67l16 -28q-75 -69 -192 -70l-23 -46q9 0 17 -3q27 -5 42.5 -25.5t11.5 -47.5q-5 -30 -32.5 -50.5t-63.5 -20.5q-39 0 -62 23l10 24q23 -19 50 -19
q14 0 26.5 5.5t22 17t12.5 26.5q3 25 -11.5 37t-38.5 13q-10 0 -23 -2l32 69q-93 9 -140 80.5t-31 181.5q16 116 87.5 186.5t175.5 70.5zM353 481q-84 0 -143.5 -61t-73.5 -161q-4 -30 -4 -58q112 2 185 15q175 31 179 137q1 56 -37.5 92t-105.5 36z" />
    <glyph glyph-name="uni022A" unicode="&#x22a;" horiz-adv-x="783" 
d="M651 911h-264l5 33h264zM432 834q7 0 12 -2.5t8.5 -6.5t5 -10t1.5 -12q-2 -11 -10.5 -18.5t-20.5 -7.5t-20 9.5t-6 21.5q2 11 10.5 18.5t19.5 7.5zM580 834q9 0 15.5 -4t9.5 -11.5t2 -15.5q-2 -11 -10.5 -18.5t-20.5 -7.5t-20 9.5t-6 21.5q1 7 5.5 13t11 9.5t13.5 3.5z
M489 709q152 0 231 -100t56 -262q-23 -160 -128.5 -258.5t-255.5 -98.5q-152 0 -230.5 100.5t-56.5 261.5q23 160 128.5 258.5t255.5 98.5zM488 672q-131 0 -222 -88t-112 -237q-14 -97 11 -169.5t84 -111.5t144 -39q131 0 222.5 88.5t111.5 236.5q21 147 -44.5 233.5
t-194.5 86.5z" />
    <glyph glyph-name="uni022B" unicode="&#x22b;" 
d="M534 722h-264l4 33h264zM317 665q13 0 20.5 -9.5t6.5 -22.5q-2 -10 -10.5 -18t-20.5 -8t-19.5 9.5t-6.5 22.5q2 10 10.5 18t19.5 8zM466 665q12 0 20 -9.5t6 -22.5q-2 -10 -10.5 -18t-19.5 -8q-13 0 -20.5 9.5t-6.5 22.5q2 10 10.5 18t20.5 8zM370 510q111 0 168.5 -72.5
t41.5 -190.5q-16 -115 -92.5 -186t-186.5 -71q-112 0 -169.5 73t-40.5 190q16 115 92.5 186t186.5 71zM369 479q-92 0 -157 -63t-80 -169q-14 -103 32 -164.5t137 -61.5q92 0 157 63t80 169q10 68 -8 119.5t-59.5 79t-101.5 27.5z" />
    <glyph glyph-name="circumflex" unicode="&#x2c6;" horiz-adv-x="355" 
d="M388 577h-40l-73 114l-106 -114h-41l122 142h56z" />
    <glyph glyph-name="caron" unicode="&#x2c7;" horiz-adv-x="355" 
d="M287 577h-56l-82 142h40l73 -114l106 114h41z" />
    <glyph glyph-name="breve" unicode="&#x2d8;" horiz-adv-x="347" 
d="M363 704l35 -3q-7 -52 -48 -88t-93 -36q-54 0 -86 37.5t-25 89.5l36 -3q-6 -41 16 -68t59 -27q24 0 47 12.5t39 35.5t20 50z" />
    <glyph glyph-name="dotaccent" unicode="&#x2d9;" horiz-adv-x="151" 
d="M167 665q8 0 14.5 -4.5t9.5 -11.5t2 -16q-1 -10 -10 -18t-20 -8q-13 0 -20.5 9.5t-5.5 22.5q1 7 5 12.5t11 9.5t14 4z" />
    <glyph glyph-name="ring" unicode="&#x2da;" horiz-adv-x="285" 
d="M244 740q27 0 47.5 -13.5t30 -36t6.5 -48.5q-6 -38 -37 -65.5t-69 -27.5q-41 0 -65.5 29t-18.5 69q6 39 36.5 66t69.5 27zM245 713q-27 0 -49 -20.5t-26 -50.5q-4 -29 11 -47.5t40 -18.5q27 0 48.5 20.5t26.5 50.5q2 19 -4 34t-18.5 23.5t-28.5 8.5z" />
    <glyph glyph-name="ogonek" unicode="&#x2db;" horiz-adv-x="249" 
d="M125 7l48 -1q-95 -45 -105 -116q-4 -28 7 -44.5t34 -16.5q23 -1 62 20l6 -30q-42 -21 -73 -19q-39 0 -58 24.5t-15 61.5q4 33 28 65.5t66 55.5z" />
    <glyph glyph-name="tilde" unicode="&#x2dc;" horiz-adv-x="347" 
d="M362 665l33 -10q-10 -28 -29 -44.5t-42 -18.5q-29 -3 -66 17q-6 4 -16.5 9.5t-16.5 9t-13.5 6t-12.5 2.5q-19 -1 -37 -45l-33 11q23 63 64 63q6 0 13.5 -1.5t16 -5t14 -6t15 -8t12.5 -6.5q34 -18 54 -15q25 3 44 42z" />
    <glyph glyph-name="hungarumlaut" unicode="&#x2dd;" horiz-adv-x="377" 
d="M169 577h-41l118 142h55zM300 577h-41l118 142h54z" />
    <glyph glyph-name="dotbelowcomb" unicode="&#x323;" horiz-adv-x="0" 
d="M60 -96q13 0 20.5 -9.5t5.5 -21.5q-1 -11 -10 -18.5t-20 -7.5q-12 0 -20 9.5t-6 21.5q2 11 10.5 18.5t19.5 7.5z" />
    <glyph glyph-name="commaaccentcomb" unicode="&#x326;" horiz-adv-x="0" 
d="M44 -56q24 0 29.5 -26.5t-7.5 -63.5t-35 -68l-23 10q18 29 26 55q9 28 3 43l-2 -1q-9 2 -14.5 9.5t-3.5 17.5q1 10 9 16.5t18 7.5z" />
    <glyph glyph-name="circumflexbelowcomb" unicode="&#x32d;" horiz-adv-x="0" 
d="M279 -201h-40l-73 114l-106 -114h-41l122 142h56z" />
    <glyph glyph-name="macronbelowcomb" unicode="&#x331;" horiz-adv-x="0" 
d="M293 -132h-264l4 33h264z" />
    <glyph glyph-name="Delta" unicode="&#x394;" 
 />
    <glyph glyph-name="Omega" unicode="&#x3a9;" 
 />
    <glyph glyph-name="mu" unicode="&#x3bc;" 
 />
    <glyph glyph-name="pi" unicode="&#x3c0;" 
 />
    <glyph glyph-name="Bdotbelow" unicode="&#x1e04;" horiz-adv-x="651" 
d="M176 700h291q93 0 143.5 -48.5t38.5 -127.5q-7 -54 -42 -94t-91 -59q67 -16 100.5 -64.5t23.5 -117.5q-12 -85 -81 -137t-172 -52h-309l4 26q0 4 4 4l66 6q5 0 8.5 4t4.5 8l85 606q2 10 -8 11l-64 5q-6 0 -5 7zM371 663l-73 -6l-38 -270h164q74 0 122 37.5t57 101.5
t-28.5 100.5t-110.5 36.5h-93zM255 350l-43 -307l71 -6h107q84 0 138.5 42.5t64.5 115.5q10 72 -32.5 113.5t-125.5 41.5h-180zM307 -96q13 0 20.5 -9.5t6.5 -21.5q-2 -11 -10.5 -18.5t-19.5 -7.5q-13 0 -20.5 9.5t-6.5 21.5q2 11 10.5 18.5t19.5 7.5z" />
    <glyph glyph-name="bdotbelow" unicode="&#x1e05;" horiz-adv-x="608" 
d="M164 716l106 6q8 0 7 -8l-46 -317q46 56 98 84.5t102 28.5q81 0 127.5 -69.5t30.5 -189.5q-19 -133 -96.5 -197t-188.5 -64q-81 0 -165 34l90 652q2 9 -8 10l-61 3zM420 476q-48 1 -99.5 -32t-95.5 -98l-43 -300q62 -25 125 -25q93 0 158 57.5t81 174.5
q15 104 -22.5 163.5t-103.5 59.5zM303 -96q13 0 20.5 -9.5t6.5 -21.5q-2 -11 -10.5 -18.5t-20.5 -7.5t-19.5 9.5t-6.5 21.5q2 11 10.5 18.5t19.5 7.5z" />
    <glyph glyph-name="Ddotbelow" unicode="&#x1e0c;" horiz-adv-x="756" 
d="M172 700h290q152 0 230.5 -96t56.5 -257q-23 -159 -127.5 -253t-256.5 -94h-291l3 26q1 4 5 4l66 6q4 0 8 4t5 8l85 606q1 10 -8 11l-64 5q-6 0 -5 7zM367 663l-73 -6l-87 -614l72 -6h89q131 0 221.5 84t110.5 232q21 145 -45 227.5t-197 82.5h-91zM356 -96
q13 0 20.5 -9.5t6.5 -21.5q-2 -11 -10.5 -18.5t-19.5 -7.5q-13 0 -20.5 9.5t-6.5 21.5q2 11 10.5 18.5t19.5 7.5z" />
    <glyph glyph-name="ddotbelow" unicode="&#x1e0d;" horiz-adv-x="623" 
d="M466 744l106 6q7 0 6 -7l-92 -658q-4 -29 13 -44.5t56 -15.5h3l-3 -25h-19q-48 0 -72 18t-19 51q-82 -79 -178 -79q-90 0 -142 69t-34 194q16 116 80 186.5t148 70.5q51 0 95 -28t74 -83l43 305q1 10 -8 10l-61 3zM329 479q-69 -1 -125 -62t-72 -169
q-15 -108 28.5 -166.5t116.5 -58.5q91 0 170 85l35 246q-25 63 -66 94t-87 31zM297 -96q13 0 20.5 -9.5t6.5 -21.5q-2 -11 -10.5 -18.5t-20.5 -7.5t-20 9.5t-6 21.5q2 11 10.5 18.5t19.5 7.5z" />
    <glyph glyph-name="Dlinebelow" unicode="&#x1e0e;" horiz-adv-x="756" 
d="M172 700h290q152 0 230.5 -96t56.5 -257q-23 -159 -127.5 -253t-256.5 -94h-291l3 26q1 4 5 4l66 6q4 0 8 4t5 8l85 606q1 10 -8 11l-64 5q-6 0 -5 7zM367 663l-73 -6l-87 -614l72 -6h89q131 0 221.5 84t110.5 232q21 145 -45 227.5t-197 82.5h-91zM494 -132h-264l5 33
h264z" />
    <glyph glyph-name="dlinebelow" unicode="&#x1e0f;" horiz-adv-x="623" 
d="M466 744l106 6q7 0 6 -7l-92 -658q-4 -29 13 -44.5t56 -15.5h3l-3 -25h-19q-48 0 -72 18t-19 51q-82 -79 -178 -79q-90 0 -142 69t-34 194q16 116 80 186.5t148 70.5q51 0 95 -28t74 -83l43 305q1 10 -8 10l-61 3zM329 479q-69 -1 -125 -62t-72 -169
q-15 -108 28.5 -166.5t116.5 -58.5q91 0 170 85l35 246q-25 63 -66 94t-87 31zM426 -132h-264l5 33h264z" />
    <glyph glyph-name="Dcircumflexbelow" unicode="&#x1e12;" horiz-adv-x="756" 
d="M172 700h290q152 0 230.5 -96t56.5 -257q-23 -159 -127.5 -253t-256.5 -94h-291l3 26q1 4 5 4l66 6q4 0 8 4t5 8l85 606q1 10 -8 11l-64 5q-6 0 -5 7zM367 663l-73 -6l-87 -614l72 -6h89q131 0 221.5 84t110.5 232q21 145 -45 227.5t-197 82.5h-91zM474 -201h-40l-73 114
l-106 -114h-42l122 142h56z" />
    <glyph glyph-name="dcircumflexbelow" unicode="&#x1e13;" horiz-adv-x="623" 
d="M466 744l106 6q7 0 6 -7l-92 -658q-4 -29 13 -44.5t56 -15.5h3l-3 -25h-19q-48 0 -72 18t-19 51q-82 -79 -178 -79q-90 0 -142 69t-34 194q16 116 80 186.5t148 70.5q51 0 95 -28t74 -83l43 305q1 10 -8 10l-61 3zM329 479q-69 -1 -125 -62t-72 -169
q-15 -108 28.5 -166.5t116.5 -58.5q91 0 170 85l35 246q-25 63 -66 94t-87 31zM414 -201h-40l-73 114l-105 -114h-42l122 142h56z" />
    <glyph glyph-name="Hdotbelow" unicode="&#x1e24;" horiz-adv-x="859" 
d="M879 670l-70 -6q-11 -1 -13 -12l-85 -607q-1 -9 8 -10l70 -5l-4 -30h-220l4 26q0 4 5 4l77 7q12 1 13 12l41 290h-456l-41 -292q-2 -10 8 -10l82 -7l-5 -30h-219l3 26q1 4 5 4l66 6q11 1 13 12l85 607q1 9 -8 10l-64 5q-6 0 -5 7l3 23h220l-4 -30l-82 -7q-12 -1 -13 -12
l-39 -275h456l39 277q1 10 -8 10l-75 7q-7 0 -6 7l4 23h219zM414 -96q13 0 20.5 -9.5t5.5 -21.5q-1 -11 -10 -18.5t-20 -7.5q-13 0 -20.5 9.5t-5.5 21.5q1 11 10 18.5t20 7.5z" />
    <glyph glyph-name="hdotbelow" unicode="&#x1e25;" horiz-adv-x="705" 
d="M178 744l106 6q8 0 7 -7l-50 -352q26 30 56 53t60 37.5t60.5 21.5t59.5 7q74 0 111 -41.5t25 -125.5l-33 -229q-12 -88 67 -89h3l-3 -25h-9q-56 0 -81.5 30t-17.5 85l31 226q20 138 -103 138q-29 0 -58.5 -8t-59.5 -24t-59 -42t-55 -59l-49 -346h-42l99 704q2 10 -8 10
l-61 3zM337 -96q13 0 20.5 -9.5t6.5 -21.5q-2 -11 -10.5 -18.5t-19.5 -7.5q-13 0 -20.5 9.5t-6.5 21.5q2 11 10.5 18.5t19.5 7.5z" />
    <glyph glyph-name="Idieresisacute" unicode="&#x1e2e;" horiz-adv-x="358" 
d="M313 873h-41l121 142h54zM220 834q6 0 11.5 -2.5t9 -6.5t5 -10t0.5 -12q-1 -7 -5 -13t-10.5 -9.5t-14.5 -3.5q-12 0 -20 9.5t-6 21.5q1 7 5.5 13t11 9.5t13.5 3.5zM368 834q9 0 15.5 -4t9.5 -11.5t2 -15.5q-2 -11 -10.5 -18.5t-20.5 -7.5t-20 9.5t-6 21.5q2 11 10.5 18.5
t19.5 7.5zM378 670l-71 -6q-11 -1 -13 -12l-85 -606q-1 -10 8 -10l71 -6l-4 -30h-210l3 26q1 4 5 4l67 6q5 0 8.5 4t4.5 8l85 606q2 10 -8 10l-65 6q-6 0 -5 7l3 23h211z" />
    <glyph glyph-name="idieresisacute" unicode="&#x1e2f;" horiz-adv-x="341" 
d="M273 707h-42l121 142h55zM179 665q13 0 20.5 -9.5t6.5 -22.5q-2 -10 -11 -18t-20 -8q-8 0 -14.5 4.5t-9.5 11.5t-2 16q2 10 10.5 18t19.5 8zM327 665q13 0 20.5 -9.5t6.5 -22.5q-2 -10 -10.5 -18t-20.5 -8t-20 9.5t-6 22.5q1 7 5.5 12.5t11 9.5t13.5 4zM144 499l106 6
q7 0 6 -7l-54 -384q-12 -88 67 -89h6l-3 -25h-13q-55 0 -80.5 30t-18.5 85l49 344q1 10 -9 10l-60 3z" />
    <glyph glyph-name="Ldotbelow" unicode="&#x1e36;" horiz-adv-x="567" 
d="M388 670l-82 -7q-12 -1 -13 -12l-87 -614h282q3 0 6 1.5t5 4.5t2 6l18 80h29l-17 -125q-1 -4 -6 -4h-451l3 26q1 4 5 4l66 6q4 0 8 4t5 8l85 606q1 10 -8 11l-64 5q-6 0 -5 7l3 23h220zM268 -96q13 0 20.5 -9.5t5.5 -21.5q-1 -11 -10 -18.5t-20 -7.5q-12 0 -20 9.5
t-6 21.5q1 11 10 18.5t20 7.5z" />
    <glyph glyph-name="ldotbelow" unicode="&#x1e37;" horiz-adv-x="331" 
d="M178 744l107 6q7 0 6 -7l-89 -629q-12 -88 67 -89h6l-3 -25h-13q-55 0 -80.5 30t-18.5 85l83 589q2 10 -8 10l-61 3zM150 -96q12 0 20 -9.5t6 -21.5q-1 -11 -10 -18.5t-20 -7.5q-13 0 -20.5 9.5t-5.5 21.5q1 11 10 18.5t20 7.5z" />
    <glyph glyph-name="Lcircumflexbelow" unicode="&#x1e3c;" horiz-adv-x="567" 
d="M388 670l-82 -7q-12 -1 -13 -12l-87 -614h282q3 0 6 1.5t5 4.5t2 6l18 80h29l-17 -125q-1 -4 -6 -4h-451l3 26q1 4 5 4l66 6q4 0 8 4t5 8l85 606q1 10 -8 11l-64 5q-6 0 -5 7l3 23h220zM385 -201h-40l-73 114l-106 -114h-41l122 142h56z" />
    <glyph glyph-name="lcircumflexbelow" unicode="&#x1e3d;" horiz-adv-x="331" 
d="M178 744l107 6q7 0 6 -7l-89 -629q-12 -88 67 -89h6l-3 -25h-13q-55 0 -80.5 30t-18.5 85l83 589q2 10 -8 10l-61 3zM267 -201h-40l-73 114l-106 -114h-42l123 142h56z" />
    <glyph glyph-name="Macute" unicode="&#x1e3e;" horiz-adv-x="1024" 
d="M631 777h-42l121 142h55zM973 670l-65 -5q-6 -1 -10 -5t-4 -10l-4 -615l66 -5l-4 -30h-217l4 30l90 8q14 1 14 14l5 573l-321 -624l-31 -1l-149 627l-162 -588l101 -9l-4 -30h-214l4 26q0 4 4 4l59 5q9 1 12 11l167 607q3 11 -8 12l-60 5q-6 0 -5 7l3 23h135l148 -620
l319 620h132z" />
    <glyph glyph-name="macute" unicode="&#x1e3f;" horiz-adv-x="1034" 
d="M602 577h-41l121 142h54zM815 510q69 0 103.5 -41.5t22.5 -125.5l-32 -229q-12 -88 66 -89h4l-4 -25h-9q-55 0 -81 30t-18 85l32 226q19 138 -96 138q-53 0 -104.5 -29t-112.5 -100l-2 -12l-47 -338h-42l48 341q19 138 -96 138q-54 0 -105 -29t-112 -100l-49 -350h-42
l64 459q1 10 -8 10l-61 3l4 27l106 6q3 0 5 -2.5t1 -4.5l-15 -107q60 66 113 92.5t110 26.5q60 0 94.5 -31t34.5 -93q62 69 115.5 96.5t112.5 27.5z" />
    <glyph glyph-name="Ndotaccent" unicode="&#x1e44;" horiz-adv-x="848" 
d="M544 865q8 0 14.5 -4.5t9.5 -11.5t2 -16q-1 -10 -10 -18t-20 -8q-13 0 -20.5 9.5t-5.5 22.5q1 10 10 18t20 8zM874 670l-70 -6q-12 -1 -13 -12l-92 -652h-44l-373 623l-82 -576q-1 -10 8 -10l81 -7l-5 -30h-215l3 26q1 4 5 4l66 6q11 1 13 12l85 606q2 10 -8 11l-64 5
q-6 0 -5 7l3 23h123l375 -626l81 579q2 10 -7 11l-74 6q-7 0 -6 7l4 23h215z" />
    <glyph glyph-name="ndotaccent" unicode="&#x1e45;" horiz-adv-x="700" 
d="M441 665q8 0 14.5 -4.5t9.5 -11.5t2 -16q-1 -10 -10 -18t-20 -8q-13 0 -20.5 9.5t-5.5 22.5q1 10 10 18t20 8zM472 510q73 0 110 -41.5t25 -125.5l-32 -229q-13 -88 66 -89h3l-3 -25h-9q-56 0 -81.5 30t-17.5 85l32 226q19 138 -104 138q-58 0 -119.5 -34t-111.5 -99
l-49 -346h-42l64 459q1 10 -8 10l-61 3l4 27l106 6q8 0 6 -7l-15 -107q53 60 114.5 89.5t122.5 29.5z" />
    <glyph glyph-name="Ndotbelow" unicode="&#x1e46;" horiz-adv-x="848" 
d="M874 670l-70 -6q-12 -1 -13 -12l-92 -652h-44l-373 623l-82 -576q-1 -10 8 -10l81 -7l-5 -30h-215l3 26q1 4 5 4l66 6q11 1 13 12l85 606q2 10 -8 11l-64 5q-6 0 -5 7l3 23h123l375 -626l81 579q2 10 -7 11l-74 6q-7 0 -6 7l4 23h215zM409 -96q13 0 20.5 -9.5t5.5 -21.5
q-1 -11 -10 -18.5t-20 -7.5q-13 0 -20.5 9.5t-5.5 21.5q1 11 10 18.5t20 7.5z" />
    <glyph glyph-name="ndotbelow" unicode="&#x1e47;" horiz-adv-x="700" 
d="M472 510q73 0 110 -41.5t25 -125.5l-32 -229q-13 -88 66 -89h3l-3 -25h-9q-56 0 -81.5 30t-17.5 85l32 226q19 138 -104 138q-58 0 -119.5 -34t-111.5 -99l-49 -346h-42l64 459q1 10 -8 10l-61 3l4 27l106 6q8 0 6 -7l-15 -107q53 60 114.5 89.5t122.5 29.5zM334 -96
q13 0 20.5 -9.5t5.5 -21.5q-1 -11 -10 -18.5t-20 -7.5q-12 0 -20 9.5t-6 21.5q1 11 10 18.5t20 7.5z" />
    <glyph glyph-name="Ncircumflexbelow" unicode="&#x1e4a;" horiz-adv-x="848" 
d="M874 670l-70 -6q-12 -1 -13 -12l-92 -652h-44l-373 623l-82 -576q-1 -10 8 -10l81 -7l-5 -30h-215l3 26q1 4 5 4l66 6q11 1 13 12l85 606q2 10 -8 11l-64 5q-6 0 -5 7l3 23h123l375 -626l81 579q2 10 -7 11l-74 6q-7 0 -6 7l4 23h215zM526 -201h-40l-73 114l-106 -114
h-41l122 142h56z" />
    <glyph glyph-name="ncircumflexbelow" unicode="&#x1e4b;" horiz-adv-x="700" 
d="M472 510q73 0 110 -41.5t25 -125.5l-32 -229q-13 -88 66 -89h3l-3 -25h-9q-56 0 -81.5 30t-17.5 85l32 226q19 138 -104 138q-58 0 -119.5 -34t-111.5 -99l-49 -346h-42l64 459q1 10 -8 10l-61 3l4 27l106 6q8 0 6 -7l-15 -107q53 60 114.5 89.5t122.5 29.5zM451 -201
h-40l-73 114l-106 -114h-41l122 142h56z" />
    <glyph glyph-name="Otildeacute" unicode="&#x1e4c;" horiz-adv-x="783" 
d="M525 872h-42l121 142h55zM604 842l33 -10q-9 -28 -28 -44.5t-43 -19.5q-29 -2 -65 18q-7 4 -17.5 9.5t-16.5 9t-13 6t-13 2.5q-18 -1 -36 -45l-33 11q22 63 63 63q7 0 14.5 -1.5t15.5 -5t13.5 -6t15.5 -8t13 -6.5q34 -18 53 -15q25 2 44 42zM489 709q152 0 231 -100
t56 -262q-15 -105 -67.5 -186t-135 -126t-181.5 -45q-152 0 -230.5 100.5t-56.5 262.5q23 159 128.5 257.5t255.5 98.5zM488 672q-131 0 -222 -88t-112 -237q-14 -97 11 -169.5t84 -111.5t144 -39q131 0 222.5 88.5t111.5 237.5q21 146 -44.5 232.5t-194.5 86.5z" />
    <glyph glyph-name="otildeacute" unicode="&#x1e4d;" 
d="M411 705h-42l121 142h55zM488 665l33 -10q-9 -28 -28 -44.5t-43 -18.5q-29 -3 -65 17q-7 4 -17.5 9.5t-16.5 9t-13 6t-12 2.5q-19 -1 -37 -45l-33 11q22 63 63 63q4 0 9 -0.5t9.5 -2t9.5 -3t9 -3.5l9 -4.5l9 -4.5t9 -5t8 -4q34 -18 53 -15q25 3 44 42zM370 510
q111 0 168.5 -72.5t41.5 -190.5q-16 -115 -92.5 -186t-186.5 -71q-112 0 -169.5 73t-40.5 190q16 115 92.5 186t186.5 71zM369 479q-92 0 -157 -63t-80 -169q-14 -103 32 -164.5t137 -61.5q92 0 157 63t80 169q15 103 -31.5 164.5t-137.5 61.5z" />
    <glyph glyph-name="Omacrongrave" unicode="&#x1e50;" horiz-adv-x="783" 
d="M543 872h-40l-94 142h53zM633 779h-264l4 33h264zM489 709q152 0 231 -100t56 -262q-23 -160 -128.5 -258.5t-255.5 -98.5q-152 0 -230.5 100.5t-56.5 261.5q23 160 128.5 258.5t255.5 98.5zM488 672q-131 0 -222 -88t-112 -237q-21 -147 44.5 -233.5t194.5 -86.5
q131 0 222.5 88.5t111.5 236.5q8 50 4.5 92.5t-15.5 78t-33.5 63.5t-50 47t-65.5 29t-79 10z" />
    <glyph glyph-name="omacrongrave" unicode="&#x1e51;" 
d="M429 705h-41l-94 142h53zM518 609h-264l4 33h264zM370 510q111 0 168.5 -72.5t41.5 -190.5q-16 -115 -92.5 -186t-186.5 -71q-112 0 -169.5 73t-40.5 190q16 115 92.5 186t186.5 71zM369 479q-92 0 -157 -63t-80 -169q-14 -103 32 -164.5t137 -61.5q92 0 157 63t80 169
q15 103 -31.5 164.5t-137.5 61.5z" />
    <glyph glyph-name="Omacronacute" unicode="&#x1e52;" horiz-adv-x="783" 
d="M525 872h-42l121 142h55zM633 779h-264l4 33h264zM489 709q152 0 231 -100t56 -262q-23 -160 -128.5 -258.5t-255.5 -98.5q-152 0 -230.5 100.5t-56.5 261.5q23 160 128.5 258.5t255.5 98.5zM488 672q-131 0 -222 -88t-112 -237q-21 -147 44.5 -233.5t194.5 -86.5
q131 0 222.5 88.5t111.5 236.5q21 147 -44.5 233.5t-194.5 86.5z" />
    <glyph glyph-name="omacronacute" unicode="&#x1e53;" 
d="M411 705h-42l121 142h55zM518 609h-264l4 33h264zM370 510q111 0 168.5 -72.5t41.5 -190.5q-16 -115 -92.5 -186t-186.5 -71q-112 0 -169.5 73t-40.5 190q16 115 92.5 186t186.5 71zM369 479q-92 0 -157 -63t-80 -169q-14 -103 32 -164.5t137 -61.5q92 0 157 63t80 169
q15 103 -31.5 164.5t-137.5 61.5z" />
    <glyph glyph-name="Sdotbelow" unicode="&#x1e62;" horiz-adv-x="569" 
d="M413 710q92 0 149 -39q3 -1 2 -4l-16 -117h-29l6 94q0 5 -4 7q-44 23 -109 23q-87 0 -144 -35.5t-65 -92.5q-5 -36 3 -57.5t39.5 -46t102.5 -62.5q82 -42 121 -73t51 -60t7 -71q-12 -83 -90.5 -134t-191.5 -52q-104 0 -170 41q-3 2 -3 5l17 117h29l-6 -92q0 -6 4 -8
q54 -26 131 -26q95 0 157.5 41t72.5 109q2 25 0 42.5t-19 36.5t-45.5 38t-80.5 47q-43 23 -72 40.5t-51.5 34.5t-33 30.5t-18 30.5t-6 33.5t2.5 39.5q10 71 82 115.5t177 44.5zM269 -96q13 0 20.5 -9.5t5.5 -21.5q-1 -11 -10 -18.5t-20 -7.5q-12 0 -20 9.5t-6 21.5
q2 11 10.5 18.5t19.5 7.5z" />
    <glyph glyph-name="sdotbelow" unicode="&#x1e63;" horiz-adv-x="442" 
d="M319 510q69 0 113 -27q3 -2 3 -5l-15 -103h-25l5 86q1 5 -4 7q-30 14 -73 14q-64 0 -105.5 -25.5t-46.5 -65.5q-5 -36 12.5 -57.5t89.5 -59.5q84 -45 108.5 -74.5t18.5 -74.5q-8 -60 -67.5 -97t-144.5 -37q-73 0 -122 25q-4 1 -3 5l14 102h26l-5 -84q-1 -6 4 -8
q37 -12 84 -12q48 0 85.5 13.5t60.5 38t28 56.5q5 36 -14 58t-89 60q-62 32 -89.5 54t-35 42.5t-3.5 53.5q8 52 60.5 83.5t129.5 31.5zM205 -96q13 0 20.5 -9.5t6.5 -21.5q-2 -11 -10.5 -18.5t-19.5 -7.5q-13 0 -20.5 9.5t-6.5 21.5q2 11 10.5 18.5t19.5 7.5z" />
    <glyph glyph-name="Tdotbelow" unicode="&#x1e6c;" horiz-adv-x="640" 
d="M131 700h573q6 0 5 -7l-17 -121h-29l6 83q0 9 -9 9h-223l-87 -618q-1 -10 8 -10l71 -6l-4 -30h-210l3 26q1 4 5 4l67 6q3 0 6 2t5 4.5t2 5.5l87 616h-221q-11 0 -14 -12l-17 -80h-30l18 124q0 4 5 4zM305 -96q12 0 20 -9.5t6 -21.5q-2 -11 -10.5 -18.5t-19.5 -7.5
q-13 0 -20.5 9.5t-6.5 21.5q2 11 10.5 18.5t20.5 7.5z" />
    <glyph glyph-name="tdotbelow" unicode="&#x1e6d;" horiz-adv-x="376" 
d="M223 500h141l-3 -28l-143 -7l-53 -379q-5 -33 11 -50.5t49 -17.5q47 0 73 35l17 -20q-32 -45 -98 -45q-49 0 -75 26.5t-20 70.5l54 380l-60 4q-6 0 -6 7l4 23h67l17 126l43 2zM172 -96q13 0 20.5 -9.5t5.5 -21.5q-1 -11 -10 -18.5t-20 -7.5q-13 0 -20.5 9.5t-5.5 21.5
q1 11 10 18.5t20 7.5z" />
    <glyph glyph-name="Tlinebelow" unicode="&#x1e6e;" horiz-adv-x="640" 
d="M131 700h573q6 0 5 -7l-17 -121h-29l6 83q0 9 -9 9h-223l-87 -618q-1 -10 8 -10l71 -6l-4 -30h-210l3 26q1 4 5 4l67 6q3 0 6 2t5 4.5t2 5.5l87 616h-221q-11 0 -14 -12l-17 -80h-30l18 124q0 4 5 4zM434 -132h-264l4 33h264z" />
    <glyph glyph-name="tlinebelow" unicode="&#x1e6f;" horiz-adv-x="376" 
d="M223 500h141l-3 -28l-143 -7l-53 -379q-5 -33 11 -50.5t49 -17.5q47 0 73 35l17 -20q-32 -45 -98 -45q-49 0 -75 26.5t-20 70.5l54 380l-60 4q-6 0 -6 7l4 23h67l17 126l43 2zM301 -132h-264l5 33h264z" />
    <glyph glyph-name="Tcircumflexbelow" unicode="&#x1e70;" horiz-adv-x="640" 
d="M131 700h573q6 0 5 -7l-17 -121h-29l6 83q0 9 -9 9h-223l-87 -618q-1 -10 8 -10l71 -6l-4 -30h-210l3 26q1 4 5 4l67 6q3 0 6 2t5 4.5t2 5.5l87 616h-221q-11 0 -14 -12l-17 -80h-30l18 124q0 4 5 4zM422 -201h-40l-73 114l-106 -114h-42l123 142h55z" />
    <glyph glyph-name="tcircumflexbelow" unicode="&#x1e71;" horiz-adv-x="376" 
d="M223 500h141l-3 -28l-143 -7l-53 -379q-5 -33 11 -50.5t49 -17.5q47 0 73 35l17 -20q-32 -45 -98 -45q-49 0 -75 26.5t-20 70.5l54 380l-60 4q-6 0 -6 7l4 23h67l17 126l43 2zM289 -201h-40l-73 114l-106 -114h-41l122 142h56z" />
    <glyph glyph-name="Wgrave" unicode="&#x1e80;" horiz-adv-x="1097" 
d="M686 777h-40l-94 142h53zM1163 670l-59 -5l-292 -664l-37 -1l-141 627l-318 -626l-37 -1l-104 660q-1 6 -7 6l-40 4q-6 0 -5 7l3 23h95l92 -626l290 574q7 15 -8 16l-76 7q-6 0 -5 7l3 22h154l135 -625l250 574q6 14 -8 15l-79 7q-6 0 -5 7l3 22h200z" />
    <glyph glyph-name="wgrave" unicode="&#x1e81;" horiz-adv-x="856" 
d="M539 577h-41l-94 142h53zM604 49l165 330q28 56 63.5 88.5t69.5 32.5h5l-2 -25q-14 0 -32 -12.5t-37.5 -37.5t-36.5 -58l-186 -367h-38l-89 438l-214 -438h-38l-101 462q-1 5 -7 6l-35 4q-6 0 -5 6l3 22h79l94 -451l219 451h36z" />
    <glyph glyph-name="Wacute" unicode="&#x1e82;" horiz-adv-x="1097" 
d="M668 777h-41l121 142h55zM1163 670l-59 -5l-292 -664l-37 -1l-141 627l-318 -626l-37 -1l-104 660q-1 6 -7 6l-40 4q-6 0 -5 7l3 23h95l92 -626l290 574q7 15 -8 16l-76 7q-6 0 -5 7l3 22h154l135 -625l250 574q6 14 -8 15l-79 7q-6 0 -5 7l3 22h200z" />
    <glyph glyph-name="wacute" unicode="&#x1e83;" horiz-adv-x="856" 
d="M521 577h-42l121 142h55zM604 49l165 330q28 56 63.5 88.5t69.5 32.5h5l-2 -25q-14 0 -32 -12.5t-37.5 -37.5t-36.5 -58l-186 -367h-38l-89 438l-214 -438h-38l-101 462q-1 5 -7 6l-35 4q-6 0 -5 6l3 22h79l94 -451l219 451h36z" />
    <glyph glyph-name="Wdieresis" unicode="&#x1e84;" horiz-adv-x="1097" 
d="M593 865q13 0 20.5 -9.5t6.5 -22.5q-2 -10 -10.5 -18t-20.5 -8t-20 9.5t-6 22.5q2 10 10.5 18t19.5 8zM741 865q13 0 20.5 -9.5t6.5 -22.5q-2 -10 -10.5 -18t-20.5 -8q-8 0 -14.5 4.5t-9.5 11.5t-2 16q2 10 10.5 18t19.5 8zM1163 670l-59 -5l-292 -664l-37 -1l-141 627
l-318 -626l-37 -1l-104 660q0 6 -7 6l-40 4q-6 0 -5 7l3 23h95l92 -626l290 574q7 15 -8 16l-76 7q-6 0 -5 7l3 22h154l135 -625l250 574q6 14 -8 15l-79 7q-6 0 -5 7l3 22h200z" />
    <glyph glyph-name="wdieresis" unicode="&#x1e85;" horiz-adv-x="856" 
d="M446 665q12 0 20 -9.5t6 -22.5q-2 -10 -10.5 -18t-19.5 -8q-13 0 -20.5 9.5t-6.5 22.5q2 10 10.5 18t20.5 8zM594 665q12 0 20 -9.5t6 -22.5q-2 -10 -10.5 -18t-19.5 -8q-13 0 -20.5 9.5t-6.5 22.5q2 10 10.5 18t20.5 8zM907 500l-2 -25q-22 0 -51.5 -29.5t-54.5 -78.5
l-186 -367h-38l-89 438l-214 -438h-38l-101 462q-1 5 -7 6l-35 4q-6 0 -5 6l3 22h79l94 -451l219 451h36l87 -451l165 330q19 37 41 64.5t46 42t46 14.5h5z" />
    <glyph glyph-name="Zdotbelow" unicode="&#x1e92;" horiz-adv-x="585" 
d="M639 670l-533 -633h399q12 0 14 12l17 78h30l-18 -123q0 -4 -5 -4h-506l4 29l533 634h-371q-11 0 -14 -12l-17 -77h-29l17 122q1 4 6 4h476zM277 -96q13 0 20.5 -9.5t5.5 -21.5q-1 -11 -10 -18.5t-20 -7.5q-12 0 -20 9.5t-6 21.5q1 11 10 18.5t20 7.5z" />
    <glyph glyph-name="zdotbelow" unicode="&#x1e93;" horiz-adv-x="502" 
d="M502 478l-388 -450h288q11 0 14 12l16 71h25l-15 -107q-1 -4 -5 -4h-378l3 22l388 450h-265q-11 0 -14 -12l-15 -71h-26l15 107q1 4 6 4h353zM236 -96q13 0 20.5 -9.5t5.5 -21.5q-1 -11 -10 -18.5t-20 -7.5q-12 0 -20 9.5t-6 21.5q1 7 5 13t11 9.5t14 3.5z" />
    <glyph glyph-name="slongdotaccent" unicode="&#x1e9b;" horiz-adv-x="416" 
d="M369 889q12 0 20 -9.5t6 -21.5q-2 -11 -10.5 -18.5t-19.5 -7.5q-13 0 -20.5 9t-6.5 22q2 11 10.5 18.5t20.5 7.5zM401 750q69 -1 123 -39l-17 -25q-47 32 -102 32q-54 0 -95 -32.5t-50 -93.5l-80 -573q-28 -197 -127 -199h-7l3 25q28 0 53 47t36 130l63 443l-61 4
q-7 0 -6 7l3 21l68 3l14 97q10 74 62 113.5t120 39.5z" />
    <glyph glyph-name="Adotbelow" unicode="&#x1ea0;" horiz-adv-x="760" 
d="M680 35l56 -5l-4 -30h-205l3 25q1 4 5 4l74 7q7 0 12 5.5t3 13.5l-45 162h-347l-99 -180l90 -7l-5 -30h-190l4 26q0 4 4 5l47 4q6 0 10 7l363 657l42 2zM252 254h318l-104 387zM362 -96q13 0 20.5 -9.5t5.5 -21.5q-1 -11 -10 -18.5t-20 -7.5q-13 0 -20.5 9.5t-5.5 21.5
q1 11 10 18.5t20 7.5z" />
    <glyph glyph-name="adotbelow" unicode="&#x1ea1;" horiz-adv-x="630" 
d="M372 510q85 1 171 -41q4 -1 3 -5l-50 -359q-11 -79 66 -80h3l-3 -25h-19q-48 0 -71 22.5t-18 65.5l3 20q-48 -57 -103.5 -87.5t-108.5 -30.5q-82 0 -127 68.5t-27 194.5q17 123 95 189.5t186 67.5zM375 479q-61 -1 -111 -26t-85.5 -77.5t-46.5 -127.5q-15 -109 21.5 -167
t102.5 -58q32 0 66 14t70.5 44t67.5 73l43 298q-63 27 -128 27zM268 -96q12 0 20 -9.5t6 -21.5q-2 -11 -10.5 -18.5t-19.5 -7.5q-13 0 -20.5 9.5t-5.5 21.5q1 11 9.5 18.5t20.5 7.5z" />
    <glyph glyph-name="Ahookabove" unicode="&#x1ea2;" horiz-adv-x="760" 
d="M521 1005q50 0 81.5 -26t25.5 -63q-2 -19 -12 -34.5t-22.5 -25.5t-30.5 -19l-13 -6.5t-11.5 -6t-8.5 -5t-8 -5.5t-5.5 -6t-5 -8t-2.5 -10l-2 -13h-34l2 19q2 13 7 23t16 18.5t18.5 12t25.5 12.5q22 11 34.5 23.5t15.5 35.5q3 25 -17 41t-56 16t-64 -16l-17 22
q34 21 83 21zM680 35l56 -5l-4 -30h-205l3 25q1 4 5 4l74 7q7 0 12 5.5t3 13.5l-45 162h-347l-99 -180l89 -7l-4 -30h-190l4 26q0 4 4 5l47 4q6 0 10 7l363 657l42 2zM252 254h318l-104 387z" />
    <glyph glyph-name="ahookabove" unicode="&#x1ea3;" horiz-adv-x="563" 
d="M354 794q51 0 82 -26t26 -63q-4 -29 -21 -47t-45 -33q-3 -2 -12 -6t-12 -5.5t-9 -5t-8 -6t-5.5 -6.5t-4.5 -8t-2 -9l-2 -13h-34l2 18q1 9 3.5 16.5t8 14t9.5 10.5t14 9.5t14 7.5t17 9q15 6 24.5 13t16.5 18.5t9 27.5q4 25 -16 41t-57 16q-35 -1 -63 -17l-17 23
q33 21 82 21zM326 510q73 0 115 -41.5t30 -129.5l-37 -262q-4 -25 12.5 -38.5t55.5 -13.5h5l-3 -25h-19q-48 0 -72 17t-19 47q-74 -74 -181 -74q-72 0 -111 37t-30 97q7 54 47.5 81.5t131.5 51.5l172 44l6 41q10 73 -20 105t-86 32q-69 -1 -136 -38q-4 -2 -5 -6l-19 -84h-26
l15 107q0 2 2 4q85 47 172 48zM419 273l-160 -42q-76 -20 -107.5 -42t-37.5 -66q-5 -31 7 -54t38.5 -35t64.5 -12q99 0 166 75l5 4z" />
    <glyph glyph-name="Acircumflexacute" unicode="&#x1ea4;" horiz-adv-x="760" 
d="M667 817h-42l121 142h55zM615 748h-40l-73 115l-105 -115h-42l122 143h56zM680 35l56 -5l-4 -30h-205l3 25q1 4 5 4l74 7q7 0 12 5.5t3 13.5l-45 162h-347l-99 -180l90 -7l-5 -30h-190l4 26q0 4 4 5l47 4q6 0 10 7l363 657l42 2zM252 254h318l-104 387z" />
    <glyph glyph-name="acircumflexacute" unicode="&#x1ea5;" horiz-adv-x="630" 
d="M516 700h-41l121 142h54zM496 577h-40l-73 114l-106 -114h-42l123 142h55zM372 510q85 1 171 -41q4 -1 3 -5l-50 -359q-11 -79 66 -80h3l-3 -25h-19q-48 0 -71 22.5t-18 65.5l3 20q-48 -57 -103.5 -87.5t-108.5 -30.5q-82 0 -127 68.5t-27 194.5q8 62 34 111.5t63.5 80.5
t84.5 47.5t99 17.5zM375 479q-94 -1 -160.5 -60.5t-82.5 -170.5q-15 -109 21.5 -167t102.5 -58q49 0 103 33.5t101 97.5l43 298q-63 27 -128 27z" />
    <glyph glyph-name="Acircumflexgrave" unicode="&#x1ea6;" horiz-adv-x="760" 
d="M704 817h-40l-94 142h53zM615 748h-40l-73 115l-105 -115h-42l122 143h56zM680 35l56 -5l-4 -30h-205l3 25q1 4 5 4l74 7q7 0 12 5.5t3 13.5l-45 162h-347l-99 -180l90 -7l-5 -30h-190l4 26q0 4 4 5l47 4q6 0 10 7l363 657l42 2zM252 254h318l-104 387z" />
    <glyph glyph-name="acircumflexgrave" unicode="&#x1ea7;" horiz-adv-x="630" 
d="M516 700h-40l-94 142h53zM496 577h-40l-73 114l-106 -114h-42l123 142h55zM372 510q85 1 171 -41q4 -1 3 -5l-50 -359q-11 -79 66 -80h3l-3 -25h-19q-48 0 -71 22.5t-18 65.5l3 20q-48 -57 -103.5 -87.5t-108.5 -30.5q-82 0 -127 68.5t-27 194.5q8 62 34 111.5t63.5 80.5
t84.5 47.5t99 17.5zM375 479q-94 -1 -160.5 -60.5t-82.5 -170.5q-15 -109 21.5 -167t102.5 -58q49 0 103 33.5t101 97.5l43 298q-63 27 -128 27z" />
    <glyph glyph-name="Acircumflexhookabove" unicode="&#x1ea8;" horiz-adv-x="760" 
d="M707 978q50 0 81.5 -26t26.5 -63q-2 -15 -8 -27t-15.5 -21.5t-19.5 -16.5t-23 -15l-11 -5.5l-10 -5t-8.5 -4.5t-8 -4.5t-5.5 -5t-5 -6.5t-3.5 -6.5t-1.5 -8.5l-2 -13h-34l2 18q1 14 6 24t16.5 18t18.5 12t25 13q23 10 35 23t15 36q4 25 -16 41t-57 16q-35 0 -63 -17
l-18 23q34 21 83 21zM615 748h-40l-73 115l-105 -115h-42l122 143h56zM680 35l56 -5l-4 -30h-205l3 25q1 4 5 4l74 7q3 0 6.5 1.5t5.5 4t3 6t0 7.5l-45 162h-347l-99 -180l90 -7l-5 -30h-190l4 26q0 4 4 5l47 4q6 0 10 7l363 657l42 2zM252 254h318l-104 387z" />
    <glyph glyph-name="acircumflexhookabove" unicode="&#x1ea9;" horiz-adv-x="630" 
d="M529 917q51 0 82 -25.5t26 -63.5q-4 -28 -20.5 -46t-45.5 -33q-3 -2 -12 -6.5t-11.5 -5.5t-9 -5t-8.5 -6t-5 -6t-4.5 -8t-2.5 -10l-2 -12l-34 -1l2 19q2 13 7 23t16 18.5t18.5 12.5t25.5 12q22 11 34.5 24t15.5 35q3 26 -17 41.5t-56 15.5t-64 -16l-17 22q33 21 82 21z
M496 577h-40l-73 114l-106 -114h-42l123 142h55zM372 510q85 1 171 -41q4 -1 3 -5l-50 -359q-11 -79 66 -80h3l-3 -25h-19q-48 0 -71 22.5t-18 65.5l3 20q-48 -57 -103.5 -87.5t-108.5 -30.5q-82 0 -127 68.5t-27 194.5q11 82 52.5 141t100 87t128.5 29zM375 479
q-94 -1 -160.5 -60.5t-82.5 -170.5q-15 -109 21.5 -167t102.5 -58q49 0 103 33.5t101 97.5l43 298q-63 27 -128 27z" />
    <glyph glyph-name="Acircumflextilde" unicode="&#x1eaa;" horiz-adv-x="760" 
d="M616 1002l33 -10q-10 -28 -29 -45t-42 -19q-29 -2 -66 18q-6 3 -16.5 9t-16.5 9t-13.5 5.5t-12.5 2.5q-19 0 -37 -45l-33 11q23 63 64 64q6 0 13.5 -1.5t16 -5.5t14 -6.5t15 -7.5t12.5 -7q34 -17 54 -15q25 3 44 43zM615 748h-40l-73 115l-105 -115h-42l122 143h56z
M680 35l56 -5l-4 -30h-205l3 25q1 4 5 4l74 7q7 0 12 5.5t3 13.5l-45 162h-347l-99 -180l90 -7l-5 -30h-190l4 26q0 4 4 5l47 4q6 0 10 7l363 657l42 2zM252 254h318l-104 387z" />
    <glyph glyph-name="acircumflextilde" unicode="&#x1eab;" horiz-adv-x="630" 
d="M494 816l33 -10q-5 -14 -12 -25t-16.5 -19.5t-20 -13t-22.5 -5.5q-29 -3 -65 17q-7 4 -17.5 9.5t-16.5 9t-13.5 6t-12.5 2.5q-19 -1 -36 -45l-33 11q22 63 63 64q6 0 12.5 -1.5t12 -3.5t12.5 -5.5t11.5 -6t12 -6.5t11.5 -5q34 -17 53 -15q25 3 44 42zM496 577h-40
l-73 114l-106 -114h-42l123 142h55zM372 510q85 1 171 -41q4 -1 3 -5l-50 -359q-11 -79 66 -80h3l-3 -25h-19q-48 0 -71 23t-18 65l3 20q-32 -38 -68.5 -65t-72.5 -40t-71 -13q-82 0 -127 68.5t-27 194.5q17 123 95 189.5t186 67.5zM375 479q-94 -1 -160.5 -60.5
t-82.5 -170.5q-15 -109 21.5 -167t102.5 -58q49 0 103 33.5t101 97.5l43 298q-63 27 -128 27z" />
    <glyph glyph-name="Acircumflexdotbelow" unicode="&#x1eac;" horiz-adv-x="760" 
d="M619 777h-40l-73 114l-105 -114h-42l122 142h56zM680 35l56 -5l-4 -30h-205l3 25q1 4 5 4l74 7q7 0 12 5.5t3 13.5l-45 162h-347l-99 -180l90 -7l-5 -30h-190l4 26q0 4 4 5l47 4q6 0 10 7l363 657l42 2zM252 254h318l-104 387zM362 -96q13 0 20.5 -9.5t5.5 -21.5
q-1 -11 -10 -18.5t-20 -7.5q-13 0 -20.5 9.5t-5.5 21.5q1 11 10 18.5t20 7.5z" />
    <glyph glyph-name="acircumflexdotbelow" unicode="&#x1ead;" horiz-adv-x="630" 
d="M493 577h-40l-73 114l-106 -114h-41l122 142h56zM372 510q85 1 171 -41q4 -1 3 -5l-50 -359q-11 -79 66 -80h3l-3 -25h-19q-48 0 -71 22.5t-18 65.5l3 20q-48 -57 -103.5 -87.5t-108.5 -30.5q-82 0 -127 68.5t-27 194.5q17 123 95 189.5t186 67.5zM375 479
q-94 -1 -160.5 -60.5t-82.5 -170.5q-15 -109 21.5 -167t102.5 -58q32 0 66 14t70.5 44t67.5 73l43 298q-63 27 -128 27zM268 -96q12 0 20 -9.5t6 -21.5q-2 -11 -10.5 -18.5t-19.5 -7.5q-13 0 -20.5 9.5t-5.5 21.5q1 11 9.5 18.5t20.5 7.5z" />
    <glyph glyph-name="Abreveacute" unicode="&#x1eae;" horiz-adv-x="760" 
d="M517 893h-41l121 143h54zM594 876l35 -3q-7 -52 -48 -88t-93 -36q-35 0 -62.5 17t-40.5 46t-8 64l36 -3q-6 -41 16 -68t59 -27q24 0 47 12.5t39 35.5t20 50zM680 35l56 -5l-4 -30h-205l3 25q1 4 5 4l74 7q7 0 12 5.5t3 13.5l-45 162h-347l-99 -180l90 -7l-5 -30h-190
l4 26q0 4 4 5l47 4q6 0 10 7l363 657l42 2zM252 254h318l-104 387z" />
    <glyph glyph-name="abreveacute" unicode="&#x1eaf;" horiz-adv-x="630" 
d="M395 707h-41l121 142h55zM474 704l36 -3q-5 -34 -25.5 -62.5t-51.5 -45t-65 -16.5q-54 0 -86 37.5t-25 89.5l36 -3q-6 -41 16 -68t59 -27q38 0 69 28.5t37 69.5zM372 510q85 1 171 -41q4 -1 3 -5l-50 -359q-11 -79 66 -80h3l-3 -25h-19q-48 0 -71 22.5t-18 65.5l3 20
q-48 -57 -103.5 -87.5t-108.5 -30.5q-82 0 -127 68.5t-27 194.5q17 123 95 189.5t186 67.5zM375 479q-94 -1 -160.5 -60.5t-82.5 -170.5q-15 -109 21.5 -167t102.5 -58q49 0 103 33.5t101 97.5l43 298q-63 27 -128 27z" />
    <glyph glyph-name="Abrevegrave" unicode="&#x1eb0;" horiz-adv-x="760" 
d="M535 893h-40l-94 143h53zM594 876l35 -3q-7 -52 -48 -88t-93 -36q-54 0 -86 37.5t-25 89.5l36 -3q-6 -41 16 -68t59 -27q38 0 69 28.5t37 69.5zM680 35l56 -5l-4 -30h-205l3 25q1 4 5 4l74 7q5 0 8.5 3t5.5 7t1 9l-45 162h-347l-99 -180l90 -7l-5 -30h-190l4 26q0 4 4 5
l47 4q7 0 10 7l363 657l42 2zM252 254h318l-104 387z" />
    <glyph glyph-name="abrevegrave" unicode="&#x1eb1;" horiz-adv-x="630" 
d="M406 707h-40l-94 142h53zM471 704l36 -3q-5 -34 -25.5 -62.5t-51.5 -45t-65 -16.5q-53 0 -85.5 37.5t-24.5 89.5l35 -3q-6 -41 16.5 -68t58.5 -27q38 0 69.5 28.5t36.5 69.5zM372 510q85 1 171 -41q4 -1 3 -5l-50 -359q-11 -79 66 -80h3l-3 -25h-19q-48 0 -71 22.5
t-18 65.5l3 20q-48 -57 -103.5 -87.5t-108.5 -30.5q-82 0 -127 68.5t-27 194.5q17 123 95 189.5t186 67.5zM375 479q-94 -1 -160.5 -60.5t-82.5 -170.5q-15 -109 21.5 -167t102.5 -58q49 0 103 33.5t101 97.5l43 298q-63 27 -128 27z" />
    <glyph glyph-name="Abrevehookabove" unicode="&#x1eb2;" horiz-adv-x="760" 
d="M534 1099q33 0 59 -12t39 -32.5t10 -44.5q-3 -19 -13 -34.5t-22.5 -25.5t-30.5 -19l-13 -6.5t-11.5 -6t-8.5 -5t-8 -5.5t-5.5 -6t-5 -8t-1.5 -10l-2 -13h-34l1 19q2 13 7 23t16.5 18.5t18.5 12l25 12.5q23 10 35 23t15 36q4 25 -16 41t-57 16q-36 0 -63 -16l-18 22
q34 21 83 21zM598 904l35 -3q-3 -25 -16 -48.5t-32 -40t-43.5 -26t-49.5 -9.5q-35 0 -62.5 17t-40.5 46.5t-8 63.5l36 -3q-6 -41 16 -68t59 -27q38 0 69 28.5t37 69.5zM680 35l56 -5l-4 -30h-205l3 25q1 4 5 4l74 7q7 0 12 5.5t3 13.5l-45 162h-347l-99 -180l90 -7l-5 -30
h-190l4 26q0 4 4 5l47 4q6 0 10 7l363 657l42 2zM252 254h318l-104 387z" />
    <glyph glyph-name="abrevehookabove" unicode="&#x1eb3;" horiz-adv-x="630" 
d="M412 917q50 0 81 -25.5t26 -63.5q-3 -19 -12.5 -34.5t-22 -25t-30.5 -19.5l-13 -6.5t-11.5 -5.5t-8.5 -5t-8 -6t-5.5 -6t-5 -8t-2.5 -10l-2 -12l-34 -1l2 19q2 13 7 23t16 18.5t18.5 12.5t25.5 12q22 11 34.5 24t15.5 35q3 26 -17 41.5t-56 15.5t-64 -16l-17 22
q34 21 83 21zM474 704l36 -3q-8 -52 -49 -88t-93 -36q-53 0 -85.5 37.5t-25.5 89.5l36 -3q-6 -41 16 -68t59 -27q25 0 48 12.5t38.5 35.5t19.5 50zM372 510q85 1 171 -41q4 -1 3 -5l-50 -359q-11 -79 66 -80h3l-3 -25h-19q-48 0 -71 22.5t-18 65.5l3 20
q-48 -57 -103.5 -87.5t-108.5 -30.5q-82 0 -127 68.5t-27 194.5q17 123 95 189.5t186 67.5zM375 479q-94 -1 -160.5 -60.5t-82.5 -170.5q-15 -109 21.5 -167t102.5 -58q49 0 103 33.5t101 97.5l43 298q-63 27 -128 27z" />
    <glyph glyph-name="Abrevetilde" unicode="&#x1eb4;" horiz-adv-x="760" 
d="M615 1000l33 -9q-9 -28 -28 -45t-42 -19q-29 -3 -66 18q-6 3 -16.5 9t-16.5 9t-13.5 5.5t-12.5 2.5q-19 0 -37 -45l-33 11q22 63 63 64q7 0 14.5 -1.5t16 -5.5t14 -6.5t15 -8t12.5 -6.5q34 -17 54 -15q25 3 43 42zM594 876l35 -3q-7 -52 -48 -88t-93 -36q-54 0 -86 37.5
t-25 89.5l36 -3q-6 -41 16 -68t59 -27q38 0 69 28.5t37 69.5zM680 35l56 -5l-4 -30h-205l3 25q1 4 5 4l74 7q7 0 12 5.5t3 13.5l-45 162h-347l-99 -180l90 -7l-5 -30h-190l4 26q0 4 4 5l47 4q6 0 10 7l363 657l42 2zM252 254h318l-104 387z" />
    <glyph glyph-name="abrevetilde" unicode="&#x1eb5;" horiz-adv-x="630" 
d="M492 805l33 -10q-9 -27 -28 -44t-42 -19q-29 -3 -66 18q-6 3 -16.5 8.5t-17 9t-13.5 6t-12 2.5q-19 0 -37 -45l-33 11q22 63 63 64q7 0 14.5 -2t16 -5.5t13.5 -6t15 -8t13 -6.5q34 -17 54 -15q25 3 43 42zM474 704l36 -3q-8 -52 -49 -88t-93 -36q-53 0 -85.5 37.5
t-25.5 89.5l36 -3q-6 -41 16 -68t59 -27q25 0 48 12.5t38.5 35.5t19.5 50zM372 510q85 1 171 -41q4 -1 3 -5l-50 -359q-11 -79 66 -80h3l-3 -25h-19q-48 0 -71 22.5t-18 65.5l3 20q-48 -57 -103.5 -87.5t-108.5 -30.5q-82 0 -127 68.5t-27 194.5q17 123 95 189.5t186 67.5z
M375 479q-94 -1 -160.5 -60.5t-82.5 -170.5q-15 -109 21.5 -167t102.5 -58q49 0 103 33.5t101 97.5l43 298q-63 27 -128 27z" />
    <glyph glyph-name="Abrevedotbelow" unicode="&#x1eb6;" horiz-adv-x="760" 
d="M598 904l35 -3q-7 -52 -48 -88t-93 -36q-54 0 -86 37.5t-25 89.5l36 -3q-6 -41 16 -68t59 -27q38 0 69 28.5t37 69.5zM680 35l56 -5l-4 -30h-205l3 25q1 4 5 4l74 7q7 0 12 5.5t3 13.5l-45 162h-347l-99 -180l90 -7l-5 -30h-190l4 26q0 4 4 5l47 3q6 1 10 8l363 657l42 2
zM252 254h318l-104 387zM362 -96q13 0 20.5 -9.5t5.5 -21.5q-1 -11 -10 -18.5t-20 -7.5q-13 0 -20.5 9.5t-5.5 21.5q1 11 10 18.5t20 7.5z" />
    <glyph glyph-name="abrevedotbelow" unicode="&#x1eb7;" horiz-adv-x="630" 
d="M471 704l36 -3q-5 -34 -25.5 -62.5t-51.5 -45t-65 -16.5q-53 0 -85.5 37.5t-24.5 89.5l35 -3q-6 -41 16.5 -68t58.5 -27q38 0 69.5 28.5t36.5 69.5zM372 510q85 1 171 -41q4 -1 3 -5l-50 -359q-11 -79 66 -80h3l-3 -25h-19q-48 0 -71 22.5t-18 65.5l3 20
q-48 -57 -103.5 -87.5t-108.5 -30.5q-82 0 -127 68.5t-27 194.5q17 123 95 189.5t186 67.5zM375 479q-94 -1 -160.5 -60.5t-82.5 -170.5q-15 -109 21.5 -167t102.5 -58q49 0 103 33.5t101 97.5l43 298q-63 27 -128 27zM268 -96q12 0 20 -9.5t6 -21.5q-2 -11 -10.5 -18.5
t-19.5 -7.5q-13 0 -20.5 9.5t-5.5 21.5q1 11 9.5 18.5t20.5 7.5z" />
    <glyph glyph-name="Edotbelow" unicode="&#x1eb8;" horiz-adv-x="579" 
d="M172 700h442q7 0 6 -7l-17 -122h-29l5 83q1 9 -9 9h-276l-40 -289h243l-5 -35h-243l-43 -302h294q3 0 6 1.5t5 4.5t2 6l18 80h29l-17 -125q-1 -4 -6 -4h-463l3 26q1 4 5 4l66 6q4 0 8 4t5 8l85 606q1 10 -8 11l-64 5q-6 0 -5 7zM275 -96q12 0 20 -9.5t6 -21.5
q-2 -11 -10.5 -18.5t-19.5 -7.5q-13 0 -20.5 9.5t-6.5 21.5q2 11 10.5 18.5t20.5 7.5z" />
    <glyph glyph-name="edotbelow" unicode="&#x1eb9;" horiz-adv-x="539" 
d="M354 510q87 0 136 -45.5t47 -114.5q-4 -127 -211 -164q-76 -13 -194 -15q6 -71 47.5 -110.5t108.5 -39.5q106 0 180 67l16 -28q-35 -32 -86 -51t-111 -19q-105 0 -159 73t-37 190q16 116 87.5 186.5t175.5 70.5zM353 481q-84 0 -143.5 -61t-73.5 -161q-4 -30 -4 -58
q112 2 185 15q175 31 179 137q1 56 -37.5 92t-105.5 36zM267 -96q13 0 20.5 -9.5t5.5 -21.5q-1 -11 -10 -18.5t-20 -7.5q-13 0 -20.5 9.5t-5.5 21.5q1 11 10 18.5t20 7.5z" />
    <glyph glyph-name="Ehookabove" unicode="&#x1eba;" horiz-adv-x="579" 
d="M438 1005q33 0 59 -12t39 -32.5t9 -44.5q-4 -28 -20.5 -46t-44.5 -33l-11 -5.5t-10.5 -5t-8.5 -4.5t-7.5 -5t-6 -5t-5 -6t-3 -7t-2.5 -9l-2 -13h-34l2 19q1 8 4 14.5t5.5 11.5t8.5 10.5t9 8t12.5 7.5t12.5 7t15 7q22 10 34.5 23t15.5 36q3 25 -17 41t-56 16t-64 -16
l-17 22q34 21 83 21zM172 700h442q7 0 6 -7l-17 -122h-29l5 83q1 9 -9 9h-276l-40 -289h243l-5 -35h-243l-43 -302h294q4 0 8 3.5t5 8.5l18 80h29l-17 -125q-1 -4 -6 -4h-463l3 26q1 4 5 4l66 6q3 0 5.5 2t4.5 4.5t3 5.5l85 606q1 10 -8 11l-64 5q-6 0 -5 7z" />
    <glyph glyph-name="ehookabove" unicode="&#x1ebb;" horiz-adv-x="548" 
d="M393 794q50 0 81.5 -26t25.5 -63q-2 -20 -12 -35.5t-22.5 -25t-30.5 -19.5q-4 -2 -13 -6t-11.5 -5.5t-8.5 -5t-8 -6t-5.5 -6.5t-5 -8t-2.5 -9l-2 -13h-34l2 18q1 9 4 16.5t8.5 14t9.5 10.5t13.5 9.5t14 7.5t17.5 9q22 10 34.5 23t15.5 36q3 25 -17 41t-56 16
q-36 -1 -64 -17l-17 23q34 21 83 21zM354 510q87 0 136 -45.5t47 -114.5q-4 -127 -211 -164q-76 -13 -194 -15q6 -71 47.5 -110.5t108.5 -39.5q106 0 180 67l16 -28q-35 -32 -86 -51t-111 -19q-105 0 -159 73t-37 190q16 116 87.5 186.5t175.5 70.5zM353 481
q-84 0 -143.5 -61t-73.5 -161q-4 -30 -4 -58q112 2 185 15q175 31 179 137q1 56 -37.5 92t-105.5 36z" />
    <glyph glyph-name="Etilde" unicode="&#x1ebc;" horiz-adv-x="579" 
d="M535 865l33 -10q-10 -28 -28.5 -44.5t-42.5 -18.5q-29 -3 -65 17q-7 4 -17.5 9.5t-16.5 9t-13.5 6t-12.5 2.5q-19 -1 -37 -45l-32 11q22 63 63 63q7 0 14 -1.5t15.5 -5t14 -6t15 -8t12.5 -6.5q35 -18 54 -15q25 3 44 42zM172 700h442q7 0 6 -7l-17 -122h-29l5 83
q1 9 -9 9h-276l-40 -289h243l-5 -35h-243l-43 -302h294q4 0 8 3.5t5 8.5l18 80h29l-17 -125q-1 -4 -6 -4h-463l3 26q1 4 5 4l66 6q3 0 5.5 2t4.5 4.5t3 5.5l85 607q1 9 -8 10l-64 5q-6 0 -5 7z" />
    <glyph glyph-name="etilde" unicode="&#x1ebd;" horiz-adv-x="539" 
d="M471 665l33 -10q-9 -28 -28 -44.5t-43 -18.5q-29 -3 -65 17q-7 4 -17.5 9.5t-16.5 9t-13 6t-12 2.5q-19 -1 -37 -45l-33 11q22 63 63 63q6 0 12.5 -1t12 -3t12.5 -5.5l12 -6t12 -6.5t11 -5q34 -18 53 -15q25 3 44 42zM354 510q58 0 100.5 -21.5t63 -57.5t19.5 -81
q-4 -127 -211 -164q-76 -13 -194 -15q6 -71 47.5 -110.5t108.5 -39.5q106 0 180 67l16 -28q-35 -32 -86 -51t-111 -19q-105 0 -159 73t-37 190q6 45 22 85t40 71.5t54.5 54t68 34.5t78.5 12zM353 481q-84 0 -143.5 -61t-73.5 -161q-4 -30 -4 -58q112 2 185 15
q175 31 179 137q1 37 -15.5 65.5t-50 45.5t-77.5 17z" />
    <glyph glyph-name="Ecircumflexacute" unicode="&#x1ebe;" horiz-adv-x="579" 
d="M609 845h-42l121 142h55zM558 777h-40l-73 114l-106 -114h-42l123 142h55zM172 700h442q7 0 6 -7l-17 -122h-29l5 83q1 9 -9 9h-276l-40 -289h243l-5 -35h-243l-43 -302h294q4 0 8 3.5t5 8.5l18 80h29l-17 -125q-1 -4 -6 -4h-463l3 26q1 4 5 4l66 6q4 0 8 4t5 8l85 606
q1 10 -8 11l-64 5q-6 0 -5 7z" />
    <glyph glyph-name="ecircumflexacute" unicode="&#x1ebf;" horiz-adv-x="547" 
d="M514 700h-41l121 142h55zM494 577h-40l-73 114l-106 -114h-42l123 142h56zM354 510q87 0 136 -45.5t47 -114.5q-4 -127 -211 -164q-76 -13 -194 -15q6 -71 47.5 -110.5t108.5 -39.5q106 0 180 67l16 -28q-35 -32 -86 -51t-111 -19q-105 0 -159 73t-37 190
q16 116 87.5 186.5t175.5 70.5zM353 481q-84 0 -143.5 -61t-73.5 -161q-4 -30 -4 -58q112 2 185 15q175 31 179 137q1 56 -37.5 92t-105.5 36z" />
    <glyph glyph-name="Ecircumflexgrave" unicode="&#x1ec0;" horiz-adv-x="579" 
d="M654 845h-40l-94 142h53zM558 777h-40l-73 114l-106 -114h-42l123 142h55zM172 700h442q7 0 6 -7l-17 -122h-29l5 83q1 9 -9 9h-276l-40 -289h243l-5 -35h-243l-43 -302h294q3 0 6 1.5t5 4.5t2 6l18 80h29l-17 -125q-1 -4 -6 -4h-463l3 26q1 4 5 4l66 6q4 0 8 4t5 8
l85 606q1 10 -8 11l-64 5q-6 0 -5 7z" />
    <glyph glyph-name="ecircumflexgrave" unicode="&#x1ec1;" horiz-adv-x="540" 
d="M514 700h-40l-94 142h53zM494 577h-40l-73 114l-106 -114h-42l123 142h56zM354 510q87 0 136 -45.5t47 -114.5q-4 -127 -211 -164q-76 -13 -194 -15q6 -71 47.5 -110.5t108.5 -39.5q106 0 180 67l16 -28q-35 -32 -86 -51t-111 -19q-105 0 -159 73t-37 190
q16 116 87.5 186.5t175.5 70.5zM353 481q-84 0 -143.5 -61t-73.5 -161q-4 -30 -4 -58q112 2 185 15q175 31 179 137q1 56 -37.5 92t-105.5 36z" />
    <glyph glyph-name="Ecircumflexhookabove" unicode="&#x1ec2;" horiz-adv-x="579" 
d="M653 1005q50 0 81.5 -26t25.5 -63q-4 -28 -20.5 -46t-44.5 -33l-13 -6.5t-11.5 -6t-8.5 -5t-8 -5.5t-5.5 -6t-5 -8t-1.5 -10l-3 -13h-33l1 19q2 11 6.5 20t9 14.5t15 12t16 9.5t20.5 10q22 11 34.5 23.5t15.5 35.5q3 26 -16.5 41.5t-56.5 15.5q-36 0 -64 -16l-17 22
q34 21 83 21zM558 777h-40l-73 114l-106 -114h-42l123 142h55zM172 700h442q7 0 6 -7l-17 -122h-29l5 83q1 9 -9 9h-276l-40 -289h243l-5 -35h-243l-43 -302h294q4 0 8 3.5t5 8.5l18 80h29l-17 -125q-1 -4 -6 -4h-463l3 26q1 4 5 4l66 6q4 0 8 4t5 8l85 607q1 9 -8 10l-64 5
q-6 0 -5 7z" />
    <glyph glyph-name="ecircumflexhookabove" unicode="&#x1ec3;" horiz-adv-x="546" 
d="M526 917q50 0 81.5 -25.5t26.5 -63.5q-4 -28 -21 -46t-45 -33q-4 -2 -12.5 -6.5t-11.5 -5.5t-9 -5t-8 -6t-5.5 -6t-4.5 -8t-2 -10l-2 -12l-34 -1l2 19q1 13 6 23t16.5 18.5t18.5 12.5t25 12q23 11 35 24t15 35q4 26 -16 41.5t-57 15.5q-35 0 -63 -16l-17 22q33 21 82 21z
M492 577h-40l-73 114l-106 -114h-41l122 142h56zM354 510q87 0 136 -45.5t47 -114.5q-4 -127 -211 -164q-76 -13 -194 -15q6 -71 47.5 -110.5t108.5 -39.5q106 0 180 67l16 -28q-35 -32 -86 -51t-111 -19q-105 0 -159 73t-37 190q16 116 87.5 186.5t175.5 70.5zM353 481
q-84 0 -143.5 -61t-73.5 -161q-4 -30 -4 -58q112 2 185 15q175 31 179 137q1 37 -15.5 65.5t-50 45.5t-77.5 17z" />
    <glyph glyph-name="Ecircumflextilde" unicode="&#x1ec4;" horiz-adv-x="579" 
d="M558 1030l33 -10q-10 -28 -28.5 -44.5t-42.5 -19.5q-29 -2 -65 18q-7 3 -17.5 9t-16.5 9t-13.5 6t-12.5 2q-19 0 -36 -44l-33 10q22 63 63 64q7 0 14 -1.5t15.5 -5t14 -6.5t15.5 -8t13 -7q34 -17 53 -14q25 2 44 42zM558 777h-40l-73 114l-106 -114h-42l123 142h55z
M172 700h442q7 0 6 -7l-17 -122h-29l5 83q1 9 -9 9h-276l-40 -289h243l-5 -35h-243l-43 -302h294q4 0 8 3.5t5 8.5l18 80h29l-17 -125q-1 -4 -6 -4h-463l3 26q1 4 5 4l66 6q4 0 8 4t5 8l85 607q1 9 -8 10l-64 5q-6 0 -5 7z" />
    <glyph glyph-name="ecircumflextilde" unicode="&#x1ec5;" horiz-adv-x="540" 
d="M492 816l33 -10q-9 -28 -28 -44.5t-43 -18.5q-29 -3 -65 17q-6 4 -17 9.5t-17 9t-13 6t-12 2.5q-19 -1 -37 -45l-33 11q22 63 63 64q7 0 14.5 -2t16 -5.5t13.5 -6t15 -8t13 -6.5q34 -17 53 -15q25 3 44 42zM494 577h-40l-73 114l-106 -114h-42l123 142h56zM354 510
q87 0 136 -45.5t47 -114.5q-4 -127 -211 -164q-76 -13 -194 -15q6 -71 47.5 -110.5t108.5 -39.5q106 0 180 67l16 -28q-35 -32 -86 -51t-111 -19q-105 0 -159 73t-37 190q16 116 87.5 186.5t175.5 70.5zM353 481q-84 0 -143.5 -61t-73.5 -161q-4 -30 -4 -58q112 2 185 15
q175 31 179 137q1 56 -37.5 92t-105.5 36z" />
    <glyph glyph-name="Ecircumflexdotbelow" unicode="&#x1ec6;" horiz-adv-x="579" 
d="M558 777h-40l-73 114l-106 -114h-42l123 142h55zM172 700h442q7 0 6 -7l-17 -122h-29l5 83q1 9 -9 9h-276l-40 -289h243l-5 -35h-243l-43 -302h294q4 0 8 3.5t5 8.5l18 80h29l-17 -125q-1 -4 -6 -4h-463l3 26q1 4 5 4l66 6q4 0 8 4t5 8l85 607q1 9 -8 10l-64 5q-6 0 -5 7
zM275 -96q12 0 20 -9.5t6 -21.5q-2 -11 -10.5 -18.5t-19.5 -7.5q-13 0 -20.5 9.5t-6.5 21.5q2 11 10.5 18.5t20.5 7.5z" />
    <glyph glyph-name="ecircumflexdotbelow" unicode="&#x1ec7;" horiz-adv-x="539" 
d="M494 577h-40l-73 114l-106 -114h-41l122 142h56zM354 510q87 0 136 -45.5t47 -114.5q-4 -127 -211 -164q-76 -13 -194 -15q6 -71 47.5 -110.5t108.5 -39.5q106 0 180 67l16 -28q-35 -32 -86 -51t-111 -19q-105 0 -159 73t-37 190q16 116 87.5 186.5t175.5 70.5zM353 481
q-84 0 -143.5 -61t-73.5 -161q-4 -30 -4 -58q112 2 185 15q175 31 179 137q1 56 -37.5 92t-105.5 36zM267 -96q13 0 20.5 -9.5t5.5 -21.5q-1 -11 -10 -18.5t-20 -7.5q-13 0 -20.5 9.5t-5.5 21.5q1 11 10 18.5t20 7.5z" />
    <glyph glyph-name="Ihookabove" unicode="&#x1ec8;" horiz-adv-x="358" 
d="M315 1005q33 0 59 -12t39 -32.5t10 -44.5q-4 -28 -20.5 -46t-45.5 -33q-3 -2 -12 -6.5t-11.5 -6t-9 -5t-8.5 -5.5t-5 -6t-4.5 -8t-2.5 -10l-2 -13h-34l2 19q2 13 7 23t16 18.5t18.5 12t24.5 12.5q23 11 35.5 23.5t15.5 35.5q3 25 -17 41t-56 16t-64 -16l-17 22
q33 21 82 21zM378 670l-71 -6q-11 -1 -13 -12l-85 -606q-1 -10 8 -10l71 -6l-4 -30h-210l3 26q1 4 5 4l67 6q5 0 8.5 4t4.5 8l85 606q2 10 -8 10l-65 6q-6 0 -5 7l3 23h211z" />
    <glyph glyph-name="ihookabove" unicode="&#x1ec9;" horiz-adv-x="340" 
d="M271 794q50 0 81.5 -26t26.5 -63q-3 -20 -13 -35.5t-22.5 -25t-30.5 -19.5q-4 -2 -12.5 -6t-11.5 -5.5t-9 -5t-8 -6t-5.5 -6.5t-4.5 -8t-2 -9l-2 -13h-34l2 18q1 9 3.5 16.5t8 14t9.5 10.5t14 9.5t14 7.5t17 9q23 10 35 23t15 36q4 25 -16 41t-57 16q-35 -1 -63 -17
l-17 23q33 21 82 21zM144 499l106 6q7 0 6 -7l-54 -384q-12 -88 67 -89h6l-3 -25h-13q-55 0 -80.5 30t-18.5 85l49 344q1 10 -9 10l-60 3z" />
    <glyph glyph-name="Idotbelow" unicode="&#x1eca;" horiz-adv-x="358" 
d="M378 670l-71 -6q-11 -1 -13 -12l-85 -606q-1 -10 8 -10l71 -6l-4 -30h-210l3 26q1 4 5 4l67 6q5 0 8.5 4t4.5 8l85 606q2 10 -8 10l-65 6q-6 0 -5 7l3 23h211zM164 -96q13 0 20.5 -9.5t6.5 -21.5q-2 -11 -10.5 -18.5t-20.5 -7.5t-19.5 9.5t-6.5 21.5q2 11 10.5 18.5
t19.5 7.5z" />
    <glyph glyph-name="idotbelow" unicode="&#x1ecb;" horiz-adv-x="340" 
d="M261 707q13 0 21 -9.5t6 -23.5q-1 -7 -5.5 -13.5t-11 -10t-14.5 -3.5q-13 0 -21 9.5t-6 23.5q1 11 10.5 19t20.5 8zM144 499l106 6q7 0 6 -7l-54 -384q-12 -88 67 -89h6l-3 -25h-13q-55 0 -80.5 30t-18.5 85l49 344q1 10 -9 10l-60 3zM158 -96q12 0 20 -9.5t6 -21.5
q-2 -11 -10.5 -18.5t-19.5 -7.5q-13 0 -20.5 9.5t-5.5 21.5q1 11 9.5 18.5t20.5 7.5z" />
    <glyph glyph-name="Odotbelow" unicode="&#x1ecc;" horiz-adv-x="783" 
d="M489 709q152 0 231 -100t56 -262q-23 -160 -128.5 -258.5t-255.5 -98.5q-152 0 -230.5 100.5t-56.5 261.5q23 160 128.5 258.5t255.5 98.5zM488 672q-131 0 -222 -88t-112 -237q-21 -147 44.5 -233.5t194.5 -86.5q131 0 222.5 88.5t111.5 236.5q21 147 -44.5 233.5
t-194.5 86.5zM376 -96q12 0 20 -9.5t6 -21.5q-1 -11 -10 -18.5t-20 -7.5q-13 0 -20.5 9.5t-5.5 21.5q1 7 5 13t10.5 9.5t14.5 3.5z" />
    <glyph glyph-name="odotbelow" unicode="&#x1ecd;" 
d="M370 510q111 0 168.5 -72.5t41.5 -190.5q-16 -115 -92.5 -186t-186.5 -71q-112 0 -169.5 73t-40.5 190q16 115 92.5 186t186.5 71zM369 479q-92 0 -157 -63t-80 -169q-14 -103 32 -164.5t137 -61.5q92 0 157 63t80 169q10 68 -8 119.5t-59.5 79t-101.5 27.5zM284 -96
q13 0 20.5 -9.5t6.5 -21.5q-2 -11 -10.5 -18.5t-20.5 -7.5t-20 9.5t-6 21.5q2 11 10.5 18.5t19.5 7.5z" />
    <glyph glyph-name="Ohookabove" unicode="&#x1ece;" horiz-adv-x="783" 
d="M533 1005q50 0 81.5 -26t26.5 -63q-4 -28 -21 -46t-45 -33q-4 -2 -12.5 -6.5t-11.5 -6t-9 -5t-8 -5.5t-5.5 -6t-4.5 -8t-2 -10l-2 -13h-34l2 19q1 13 6 23t16.5 18.5t18.5 12l25 12.5q23 11 35 23.5t15 35.5q4 25 -16 41t-57 16q-35 0 -63 -16l-17 22q33 21 82 21z
M489 709q152 0 231 -100t56 -262q-23 -160 -128.5 -258.5t-255.5 -98.5q-152 0 -230.5 100.5t-56.5 262.5q23 159 128.5 257.5t255.5 98.5zM488 672q-131 0 -222 -88t-112 -237q-21 -147 44.5 -233.5t194.5 -86.5q131 0 222.5 88.5t111.5 237.5q21 146 -44.5 232.5
t-194.5 86.5z" />
    <glyph glyph-name="ohookabove" unicode="&#x1ecf;" 
d="M409 794q51 0 82 -26t26 -63q-4 -29 -21 -47t-45 -33q-3 -2 -12 -6t-11.5 -5.5t-9 -5t-8.5 -6t-5 -6.5t-4.5 -8t-2.5 -9l-2 -13h-34l2 18q1 9 3.5 16.5t8.5 14t9.5 10.5t13.5 9.5t14.5 7.5t16.5 9q23 10 35 23t15 36q4 25 -16 41t-57 16q-35 -1 -63 -17l-17 23
q33 21 82 21zM370 510q111 0 168.5 -72.5t41.5 -190.5q-16 -115 -92.5 -186t-186.5 -71q-112 0 -169.5 73t-40.5 190q16 115 92.5 186t186.5 71zM369 479q-92 0 -157 -63t-80 -169q-14 -103 32 -164.5t137 -61.5q92 0 157 63t80 169q15 103 -31.5 164.5t-137.5 61.5z" />
    <glyph glyph-name="Ocircumflexacute" unicode="&#x1ed0;" horiz-adv-x="783" 
d="M682 817h-41l121 142h54zM626 748h-40l-73 115l-106 -115h-41l122 143h56zM489 709q152 0 231 -100t56 -262q-23 -160 -128.5 -258.5t-255.5 -98.5q-152 0 -230.5 100.5t-56.5 261.5q23 160 128.5 258.5t255.5 98.5zM488 672q-131 0 -222 -88t-112 -237
q-21 -147 44.5 -233.5t194.5 -86.5q131 0 222.5 88.5t111.5 236.5q8 50 4.5 92.5t-15.5 78t-33.5 63.5t-50 47t-65.5 29t-79 10z" />
    <glyph glyph-name="ocircumflexacute" unicode="&#x1ed1;" 
d="M532 700h-42l121 142h55zM511 577h-40l-73 114l-106 -114h-41l122 142h56zM370 510q111 0 168.5 -72.5t41.5 -190.5q-16 -115 -92.5 -186t-186.5 -71q-112 0 -169.5 73t-40.5 190q16 115 92.5 186t186.5 71zM369 479q-92 0 -157 -63t-80 -169q-14 -103 32 -164.5
t137 -61.5q92 0 157 63t80 169q10 68 -8 119.5t-59.5 79t-101.5 27.5z" />
    <glyph glyph-name="Ocircumflexgrave" unicode="&#x1ed2;" horiz-adv-x="783" 
d="M714 817h-40l-94 142h53zM626 748h-40l-73 115l-106 -115h-41l122 143h56zM489 709q152 0 231 -100t56 -262q-23 -160 -128.5 -258.5t-255.5 -98.5q-152 0 -230.5 100.5t-56.5 261.5q23 160 128.5 258.5t255.5 98.5zM488 672q-131 0 -222 -88t-112 -237
q-21 -147 44.5 -233.5t194.5 -86.5q131 0 222.5 88.5t111.5 236.5q8 50 4.5 92.5t-15.5 78t-33.5 63.5t-50 47t-65.5 29t-79 10z" />
    <glyph glyph-name="ocircumflexgrave" unicode="&#x1ed3;" 
d="M531 700h-40l-94 142h53zM511 577h-40l-73 114l-106 -114h-41l122 142h56zM370 510q111 0 168.5 -72.5t41.5 -190.5q-16 -115 -92.5 -186t-186.5 -71q-112 0 -169.5 73t-40.5 190q16 115 92.5 186t186.5 71zM369 479q-92 0 -157 -63t-80 -169q-14 -103 32 -164.5
t137 -61.5q92 0 157 63t80 169q10 68 -8 119.5t-59.5 79t-101.5 27.5z" />
    <glyph glyph-name="Ocircumflexhookabove" unicode="&#x1ed4;" horiz-adv-x="783" 
d="M715 984q34 0 60 -12t39 -32.5t9 -44.5q-4 -28 -20.5 -46.5t-45.5 -33.5q-3 -1 -12 -5.5t-11.5 -6t-8.5 -5t-8.5 -6t-5.5 -6t-4.5 -8t-2.5 -9.5l-2 -13h-34l2 18q1 11 6 20t9 15t15 12.5t16.5 9.5t20.5 10q22 10 34.5 23t15.5 36q3 25 -17 41t-56 16t-64 -17l-17 23
q34 21 82 21zM626 748h-40l-73 115l-106 -115h-41l122 143h56zM489 709q152 0 231 -100t56 -262q-23 -160 -128.5 -258.5t-255.5 -98.5q-152 0 -230.5 100.5t-56.5 262.5q23 159 128.5 257.5t255.5 98.5zM488 672q-131 0 -222 -88t-112 -237q-21 -147 44.5 -233.5
t194.5 -86.5q131 0 222.5 88.5t111.5 236.5q21 147 -44.5 233.5t-194.5 86.5z" />
    <glyph glyph-name="ocircumflexhookabove" unicode="&#x1ed5;" 
d="M545 917q33 0 59 -11.5t39 -32t9 -45.5q-4 -28 -20.5 -46t-44.5 -33l-13 -6.5t-11.5 -5.5t-8.5 -5t-8 -6t-5.5 -6t-5 -8t-1.5 -10l-3 -12l-33 -1l1 19q2 13 7 23t16.5 18.5t18.5 12.5t25 12q22 11 34.5 24t15.5 35q3 26 -16.5 41.5t-56.5 15.5q-36 0 -64 -16l-17 22
q34 21 83 21zM511 577h-40l-73 114l-106 -114h-41l122 142h56zM370 510q111 0 168.5 -72.5t41.5 -190.5q-16 -115 -92.5 -186t-186.5 -71q-112 0 -169.5 73t-40.5 190q16 115 92.5 186t186.5 71zM369 479q-92 0 -157 -63t-80 -169q-14 -103 32 -164.5t137 -61.5q92 0 157 63
t80 169q15 103 -31.5 164.5t-137.5 61.5z" />
    <glyph glyph-name="Ocircumflextilde" unicode="&#x1ed6;" horiz-adv-x="783" 
d="M630 1030l33 -10q-9 -28 -28 -45t-42 -19q-29 -2 -66 18q-5 3 -11.5 6.5t-11 6t-10.5 5.5t-10 4.5t-8.5 2.5t-7.5 1q-19 0 -37 -44l-33 10q22 63 63 64q6 0 12.5 -1.5t12 -3t13 -5t12 -6t12 -6.5t10.5 -6q34 -17 54 -14q25 2 43 42zM630 777h-40l-73 114l-106 -114h-41
l122 142h56zM489 709q152 0 231 -100t56 -262q-23 -160 -128.5 -258.5t-255.5 -98.5q-152 0 -230.5 100.5t-56.5 262.5q23 159 128.5 257.5t255.5 98.5zM488 672q-131 0 -222 -88t-112 -237q-14 -97 11 -169.5t84 -111.5t144 -39q131 0 222.5 88.5t111.5 236.5q11 73 -1 133
t-43.5 101t-81 63.5t-113.5 22.5z" />
    <glyph glyph-name="ocircumflextilde" unicode="&#x1ed7;" 
d="M509 816l33 -10q-9 -28 -28 -44.5t-42 -18.5q-29 -3 -66 17q-6 4 -16.5 9.5t-17 9t-13.5 6t-12 2.5q-19 -1 -37 -45l-33 11q22 63 63 64q6 0 12.5 -1.5t12 -3.5t13 -5.5t12 -6t12 -6.5t10.5 -5q34 -17 53 -15q25 3 44 42zM511 577h-40l-73 114l-106 -114h-41l122 142h56z
M370 510q73 0 125 -33t74 -92.5t11 -137.5q-16 -115 -92.5 -186t-186.5 -71q-112 0 -169.5 73t-40.5 190q16 115 92.5 186t186.5 71zM369 479q-92 0 -157 -63t-80 -169q-14 -103 32 -164.5t137 -61.5q92 0 157 63t80 169q15 104 -31.5 165t-137.5 61z" />
    <glyph glyph-name="Ocircumflexdotbelow" unicode="&#x1ed8;" horiz-adv-x="783" 
d="M630 777h-40l-73 114l-106 -114h-41l122 142h56zM489 709q152 0 231 -100t56 -262q-23 -160 -128.5 -258.5t-255.5 -98.5q-152 0 -230.5 100.5t-56.5 261.5q23 160 128.5 258.5t255.5 98.5zM488 672q-131 0 -222 -88t-112 -237q-21 -147 44.5 -233.5t194.5 -86.5
q131 0 222.5 88.5t111.5 236.5q21 147 -44.5 233.5t-194.5 86.5zM376 -96q12 0 20 -9.5t6 -21.5q-1 -11 -10 -18.5t-20 -7.5q-13 0 -20.5 9.5t-5.5 21.5q1 7 5 13t10.5 9.5t14.5 3.5z" />
    <glyph glyph-name="ocircumflexdotbelow" unicode="&#x1ed9;" 
d="M511 577h-40l-73 114l-106 -114h-41l122 142h56zM370 510q111 0 168.5 -72.5t41.5 -190.5q-16 -115 -92.5 -186t-186.5 -71q-112 0 -169.5 73t-40.5 190q16 115 92.5 186t186.5 71zM369 479q-92 0 -157 -63t-80 -169q-14 -103 32 -164.5t137 -61.5q92 0 157 63t80 169
q10 68 -8 119.5t-59.5 79t-101.5 27.5zM284 -96q13 0 20.5 -9.5t6.5 -21.5q-2 -11 -10.5 -18.5t-20.5 -7.5t-20 9.5t-6 21.5q2 11 10.5 18.5t19.5 7.5z" />
    <glyph glyph-name="Ohornacute" unicode="&#x1eda;" horiz-adv-x="783" 
d="M512 777h-42l121 142h55zM813 831l37 11q24 -59 12 -113q-6 -31 -23 -53t-45 -35t-64 -14q-10 0 -26 1q46 -49 65 -120.5t7 -160.5q-23 -160 -128.5 -258.5t-255.5 -98.5q-152 0 -230.5 100.5t-56.5 261.5q23 160 128.5 258.5t255.5 98.5q94 0 161 -42q31 -15 65 -15
q88 0 108 80q11 47 -10 99zM488 672q-131 0 -222 -88t-112 -237q-21 -147 44.5 -233.5t194.5 -86.5q131 0 222.5 88.5t111.5 236.5q21 147 -44.5 233.5t-194.5 86.5z" />
    <glyph glyph-name="ohornacute" unicode="&#x1edb;" 
d="M393 577h-42l121 142h55zM636 634l32 9q24 -60 12 -115q-11 -45 -45 -72t-89 -29q49 -71 34 -180q-16 -115 -92.5 -186t-186.5 -71q-112 0 -169.5 73t-40.5 190q16 115 92.5 186t186.5 71q98 0 154 -58l18 1q41 1 67 22t35 56q14 48 -8 103zM369 479q-92 0 -157 -63
t-80 -169q-14 -103 32 -164.5t137 -61.5q92 0 157 63t80 169q15 103 -31.5 164.5t-137.5 61.5z" />
    <glyph glyph-name="Ohorngrave" unicode="&#x1edc;" horiz-adv-x="783" 
d="M530 777h-40l-95 142h54zM813 831l37 11q24 -59 12 -113q-10 -46 -43.5 -73.5t-87.5 -28.5q-11 0 -27 1q46 -49 65 -120.5t7 -160.5q-23 -160 -128.5 -258.5t-255.5 -98.5q-152 0 -230.5 100.5t-56.5 261.5q15 106 67.5 187t135 125.5t181.5 44.5q94 0 161 -42
q31 -15 65 -15q88 0 108 80q11 47 -10 99zM488 672q-131 0 -222 -88t-112 -237q-21 -147 44.5 -233.5t194.5 -86.5q131 0 222.5 88.5t111.5 236.5q21 147 -44.5 233.5t-194.5 86.5z" />
    <glyph glyph-name="ohorngrave" unicode="&#x1edd;" 
d="M410 577h-40l-94 142h53zM636 634l32 9q24 -60 12 -115q-11 -45 -45 -72t-89 -29q49 -71 34 -180q-16 -115 -92.5 -186t-186.5 -71q-112 0 -169.5 73t-40.5 190q16 115 92.5 186t186.5 71q98 0 154 -58l18 1q27 1 48 11t34.5 26.5t19.5 39.5q15 48 -8 104zM369 479
q-60 0 -110.5 -28t-83.5 -81t-43 -123q-14 -103 32 -164.5t137 -61.5q92 0 157 63t80 169q15 103 -31.5 164.5t-137.5 61.5z" />
    <glyph glyph-name="Ohornhookabove" unicode="&#x1ede;" horiz-adv-x="783" 
d="M533 1005q50 0 81.5 -26t26.5 -63q-4 -28 -21 -46t-45 -33q-4 -2 -12.5 -6.5t-11.5 -6t-9 -5t-8 -5.5t-5.5 -6t-4.5 -8t-2 -10l-2 -13h-34l2 19q1 13 6 23t16.5 18.5t18.5 12l25 12.5q23 11 35 23.5t15 35.5q4 25 -16 41t-57 16q-35 0 -63 -16l-17 22q33 21 82 21z
M813 831l37 11q24 -59 12 -113q-4 -18 -11.5 -33.5t-19 -28t-26.5 -21t-33.5 -13.5t-39.5 -6q-11 0 -28 1q46 -49 65 -120.5t7 -160.5q-23 -160 -128.5 -258.5t-255.5 -98.5q-152 0 -230.5 100.5t-56.5 261.5q15 106 67.5 187t135 125.5t181.5 44.5q94 0 161 -42
q31 -15 65 -15q88 0 108 80q11 47 -10 99zM488 672q-131 0 -222 -88t-112 -237q-14 -97 11 -169.5t84 -111.5t144 -39q131 0 222.5 88.5t111.5 236.5q21 147 -44.5 233.5t-194.5 86.5z" />
    <glyph glyph-name="ohornhookabove" unicode="&#x1edf;" 
d="M409 794q51 0 82 -26t26 -63q-4 -29 -21 -47t-45 -33q-3 -2 -12 -6t-11.5 -5.5t-9 -5t-8.5 -6t-5 -6.5t-4.5 -8t-2.5 -9l-2 -13h-34l2 18q1 9 3.5 16.5t8.5 14t9.5 10.5t13.5 9.5t14.5 7.5t16.5 9q23 10 35 23t15 36q4 25 -16 41t-57 16q-35 -1 -63 -17l-17 23
q33 21 82 21zM636 634l32 9q24 -60 12 -115q-11 -45 -45 -72t-89 -29q49 -70 34 -180q-16 -115 -92.5 -186t-186.5 -71q-112 0 -169.5 73t-40.5 190q16 115 92.5 186t186.5 71q98 0 154 -58l18 1q20 1 37 6.5t29.5 15.5t21 23.5t13.5 30.5q16 48 -7 105zM369 479
q-92 0 -157 -63t-80 -169q-14 -103 32 -164.5t137 -61.5q92 0 157 63t80 169q10 68 -8 119.5t-59.5 79t-101.5 27.5z" />
    <glyph glyph-name="Ohorntilde" unicode="&#x1ee0;" horiz-adv-x="783" 
d="M607 865l33 -10q-9 -28 -28 -44.5t-42 -18.5q-29 -3 -66 17q-6 4 -16.5 9.5t-17 9t-13.5 6t-12 2.5q-19 -1 -37 -45l-33 11q22 63 63 63q7 0 14.5 -1.5t16 -5t13.5 -6t15 -8t13 -6.5q34 -18 53 -15q25 3 44 42zM813 831l37 11q24 -59 12 -113q-10 -46 -43.5 -73.5
t-86.5 -28.5q-12 0 -28 1q46 -49 65 -120.5t7 -160.5q-23 -160 -128.5 -258.5t-255.5 -98.5q-152 0 -230.5 100.5t-56.5 261.5q23 160 128.5 258.5t255.5 98.5q94 0 161 -42q31 -15 65 -15q88 0 108 80q11 47 -10 99zM488 672q-131 0 -222 -88t-112 -237q-14 -97 11 -169.5
t84 -111.5t144 -39q131 0 222.5 88.5t111.5 236.5q21 147 -44.5 233.5t-194.5 86.5z" />
    <glyph glyph-name="ohorntilde" unicode="&#x1ee1;" 
d="M488 665l33 -10q-9 -28 -28 -44.5t-43 -18.5q-29 -3 -65 17q-7 4 -17.5 9.5t-16.5 9t-13 6t-12 2.5q-19 -1 -37 -45l-33 11q22 63 63 63q7 0 14.5 -1.5t16 -5t13.5 -6t15 -8t13 -6.5q34 -18 53 -15q25 3 44 42zM636 634l32 9q24 -60 12 -115q-11 -45 -45 -72t-89 -29
q49 -70 34 -180q-16 -115 -92.5 -186t-186.5 -71q-112 0 -169.5 73t-40.5 190q16 115 92.5 186t186.5 71q98 0 154 -58l18 1q40 1 65.5 21t35.5 55q16 48 -7 105zM369 479q-92 0 -157 -63t-80 -169q-14 -103 32 -164.5t137 -61.5q92 0 157 63t80 169q15 103 -31.5 164.5
t-137.5 61.5z" />
    <glyph glyph-name="Ohorndotbelow" unicode="&#x1ee2;" horiz-adv-x="783" 
d="M813 831l37 11q24 -59 12 -113q-10 -46 -44 -73.5t-87 -28.5q-11 0 -27 1q46 -49 65 -120.5t7 -160.5q-23 -160 -128.5 -258.5t-255.5 -98.5q-152 0 -230.5 100.5t-56.5 261.5q23 160 128.5 258.5t255.5 98.5q94 0 161 -42q31 -15 65 -15q88 0 108 80q11 47 -10 99z
M488 672q-131 0 -222 -88t-112 -237q-21 -147 44.5 -233.5t194.5 -86.5q131 0 222.5 88.5t111.5 236.5q21 147 -44.5 233.5t-194.5 86.5zM376 -96q12 0 20 -9.5t6 -21.5q-1 -11 -10 -18.5t-20 -7.5q-13 0 -20.5 9.5t-5.5 21.5q1 11 10 18.5t20 7.5z" />
    <glyph glyph-name="ohorndotbelow" unicode="&#x1ee3;" 
d="M636 634l32 9q24 -60 12 -115q-11 -45 -45 -72t-89 -29q49 -71 34 -180q-16 -115 -92.5 -186t-186.5 -71q-112 0 -169.5 73t-40.5 190q16 115 92.5 186t186.5 71q98 0 154 -58l18 1q41 1 67 22t35 56q15 48 -8 103zM369 479q-92 0 -157 -63t-80 -169q-14 -103 32 -164.5
t137 -61.5q92 0 157 63t80 169q15 103 -31.5 164.5t-137.5 61.5zM284 -96q13 0 20.5 -9.5t6.5 -21.5q-2 -11 -10.5 -18.5t-20.5 -7.5t-20 9.5t-6 21.5q2 11 10.5 18.5t19.5 7.5z" />
    <glyph glyph-name="Udotbelow" unicode="&#x1ee4;" horiz-adv-x="833" 
d="M858 670l-70 -6q-11 -1 -13 -12l-53 -382q-18 -126 -101 -203t-201 -77q-120 0 -182.5 78t-44.5 205l53 381q2 9 -8 10l-64 6q-6 0 -5 7l3 23h220l-4 -30l-81 -7q-11 -1 -13 -13l-53 -380q-16 -113 33.5 -178t148.5 -65q100 0 172.5 67t88.5 179l54 380q1 9 -8 10l-88 7
l5 30h215zM400 -96q13 0 20.5 -9.5t5.5 -21.5q-1 -11 -10 -18.5t-20 -7.5q-12 0 -20 9.5t-6 21.5q1 11 10 18.5t20 7.5z" />
    <glyph glyph-name="udotbelow" unicode="&#x1ee5;" horiz-adv-x="690" 
d="M631 500l-55 -392q-11 -81 52 -83h7l-3 -25h-26q-41 1 -60 25.5t-13 70.5l2 12q-53 -59 -114.5 -89t-122.5 -29q-73 0 -110 41.5t-25 125.5l42 299q1 9 -8 10l-72 6l4 28h117q7 0 6 -7l-47 -334q-19 -138 104 -138q58 0 119.5 33.5t111.5 99.5l49 346h42zM330 -96
q13 0 20.5 -9.5t5.5 -21.5q-1 -11 -10 -18.5t-20 -7.5q-13 0 -20.5 9.5t-5.5 21.5q1 11 10 18.5t20 7.5z" />
    <glyph glyph-name="Uhookabove" unicode="&#x1ee6;" horiz-adv-x="833" 
d="M546 1005q50 0 81.5 -26t26.5 -63q-4 -28 -21 -46t-45 -33q-4 -2 -12.5 -6.5t-11.5 -6t-9 -5t-8 -5.5t-5.5 -6t-4.5 -8t-2 -10l-2 -13h-34l2 19q1 13 6 23t16.5 18.5t18.5 12l25 12.5q23 11 35 23.5t15 35.5q4 25 -16 41t-57 16q-35 0 -63 -16l-17 22q33 21 82 21z
M858 670l-70 -6q-11 -1 -13 -12l-53 -382q-18 -126 -101 -203t-201 -77q-120 0 -182.5 78t-44.5 205l53 381q2 9 -8 10l-64 6q-6 0 -5 7l3 23h220l-4 -30l-81 -7q-11 -1 -13 -13l-53 -380q-16 -113 33.5 -178t148.5 -65q100 0 172.5 67t88.5 179l54 380q1 9 -8 10l-88 7
l5 30h215z" />
    <glyph glyph-name="uhookabove" unicode="&#x1ee7;" horiz-adv-x="690" 
d="M450 794q50 0 81 -26t26 -63q-3 -20 -12.5 -35.5t-22 -25t-30.5 -19.5q-4 -2 -13 -6t-11.5 -5.5t-8.5 -5t-8 -6t-5.5 -6.5t-5 -8t-2.5 -9l-2 -13h-34l2 18q1 6 3 11.5t3.5 10t5.5 9t6 7t8.5 7t8.5 6t10 5.5l10 5l12 6q22 10 34.5 23t15.5 36q3 25 -17 41t-56 16
q-36 -1 -64 -17l-17 23q34 21 83 21zM631 500l-55 -392q-11 -81 52 -83h7l-3 -25h-26q-41 1 -60 25.5t-13 70.5l2 12q-36 -40 -76.5 -67t-80.5 -39.5t-80 -11.5q-73 0 -110 41.5t-25 125.5l42 299q1 9 -8 10l-72 6l4 28h117q7 0 6 -7l-47 -334q-19 -138 104 -138
q58 0 119.5 33.5t111.5 99.5l49 346h42z" />
    <glyph glyph-name="Uhornacute" unicode="&#x1ee8;" horiz-adv-x="837" 
d="M537 777h-42l121 142h55zM870 833l27 14q33 -27 40 -63q7 -30 -7.5 -57t-49.5 -44q-22 -9 -47 -11l-45 -4q-11 -2 -12 -13l-54 -384q-18 -127 -101 -204t-201 -77q-120 0 -182.5 78.5t-44.5 204.5l53 381q2 10 -8 11l-64 5q-6 0 -5 7l3 23h220l-4 -30l-81 -7
q-11 -1 -13 -12l-53 -380q-16 -113 33.5 -178.5t148.5 -65.5q100 0 172.5 67t88.5 179l54 380q1 9 -8 10l-87 7l4 30h189q12 2 24 9q24 10 35 30t7 43q-7 30 -32 51z" />
    <glyph glyph-name="uhornacute" unicode="&#x1ee9;" horiz-adv-x="690" 
d="M438 577h-42l121 142h55zM682 640l24 13q35 -29 41 -68q4 -30 -11.5 -56.5t-52.5 -42.5q-25 -10 -54 -10l-53 -368q-11 -81 52 -83h7l-3 -25h-26q-41 1 -60 25.5t-13 70.5l2 12q-53 -59 -114.5 -89t-122.5 -29q-73 0 -110 41.5t-25 125.5l42 299q1 9 -8 10l-72 6l4 28
h117q7 0 6 -7l-47 -334q-19 -138 104 -138q58 0 119.5 33.5t111.5 99.5l43 302q1 9 -8 10l-72 6l4 28h110q26 -2 49 9q27 11 39.5 32t8.5 45q-6 31 -32 54z" />
    <glyph glyph-name="Uhorngrave" unicode="&#x1eea;" horiz-adv-x="837" 
d="M555 777h-40l-95 142h54zM870 833l27 14q33 -27 40 -63q5 -19 0.5 -37.5t-19 -35t-38.5 -28.5q-22 -9 -47 -11l-45 -4q-11 -2 -12 -13l-54 -384q-18 -127 -101 -204t-201 -77q-120 0 -182.5 78.5t-44.5 204.5l53 381q2 10 -8 11l-64 5q-6 0 -5 7l3 23h220l-4 -30l-81 -7
q-11 -1 -13 -12l-53 -380q-16 -113 33.5 -178.5t148.5 -65.5q100 0 172.5 67t88.5 179l54 380q1 9 -8 10l-87 7l4 30h189q12 2 24 9q16 7 27 18.5t14.5 25.5t0.5 29q-7 30 -32 51z" />
    <glyph glyph-name="uhorngrave" unicode="&#x1eeb;" horiz-adv-x="690" 
d="M456 577h-40l-95 142h54zM682 640l24 13q35 -29 41 -68q4 -30 -11.5 -56.5t-52.5 -42.5q-25 -10 -54 -10l-53 -368q-11 -81 52 -83h7l-3 -25h-26q-41 1 -60 25.5t-13 70.5l2 12q-53 -59 -114.5 -89t-122.5 -29q-73 0 -110 41.5t-25 125.5l42 299q1 9 -8 10l-72 6l4 28
h117q7 0 6 -7l-47 -334q-19 -138 104 -138q58 0 119.5 33.5t111.5 99.5l43 302q1 9 -8 10l-72 6l4 28h110q26 -2 49 9q27 11 39.5 32t8.5 45q-6 31 -32 54z" />
    <glyph glyph-name="Uhornhookabove" unicode="&#x1eec;" horiz-adv-x="837" 
d="M546 1005q50 0 81.5 -26t26.5 -63q-4 -28 -21 -46t-45 -33q-4 -2 -12.5 -6.5t-11.5 -6t-9 -5t-8 -5.5t-5.5 -6t-4.5 -8t-2 -10l-2 -13h-34l2 19q1 13 6 23t16.5 18.5t18.5 12l25 12.5q23 11 35 23.5t15 35.5q4 25 -16 41t-57 16q-35 0 -63 -16l-17 22q33 21 82 21z
M870 833l27 14q33 -27 40 -63q7 -30 -7.5 -57t-49.5 -44q-22 -9 -47 -11l-45 -4q-11 -2 -12 -13l-54 -384q-18 -127 -101 -204t-201 -77q-120 0 -182.5 78.5t-44.5 204.5l53 381q2 10 -8 11l-64 5q-6 0 -5 7l3 23h220l-4 -30l-81 -7q-11 -1 -13 -12l-53 -380
q-16 -113 33.5 -178.5t148.5 -65.5q100 0 172.5 67t88.5 179l54 380q1 9 -8 10l-87 7l4 30h189q12 2 24 9q24 10 35 30t7 43q-7 30 -32 51z" />
    <glyph glyph-name="uhornhookabove" unicode="&#x1eed;" horiz-adv-x="690" 
d="M450 794q50 0 81 -26t26 -63q-3 -20 -12.5 -35.5t-22 -25t-30.5 -19.5q-4 -2 -13 -6t-11.5 -5.5t-8.5 -5t-8 -6t-5.5 -6.5t-5 -8t-2.5 -9l-2 -13h-34l2 18q1 6 3 11.5t3.5 10t5.5 9t6 7t8.5 7t8.5 6t10 5.5l10 5l12 6q22 10 34.5 23t15.5 36q3 25 -17 41t-56 16
q-36 -1 -64 -17l-17 23q34 21 83 21zM682 640l24 13q35 -29 41 -68q4 -30 -11.5 -56.5t-52.5 -42.5q-25 -10 -54 -10l-53 -368q-6 -41 7.5 -61.5t44.5 -21.5h7l-3 -25h-26q-41 1 -60 25.5t-13 70.5l2 12q-53 -59 -114.5 -89t-122.5 -29q-73 0 -110 41.5t-25 125.5l42 299
q1 9 -8 10l-72 6l4 28h117q7 0 6 -7l-47 -334q-19 -138 104 -138q58 0 119.5 33.5t111.5 99.5l43 302q1 9 -8 10l-72 6l4 28h110q26 -2 50 9q26 11 38.5 32t8.5 45q-6 31 -32 54z" />
    <glyph glyph-name="Uhorntilde" unicode="&#x1eee;" horiz-adv-x="837" 
d="M632 865l33 -10q-9 -28 -28 -44.5t-42 -18.5q-29 -3 -66 17q-6 4 -16.5 9.5t-17 9t-13.5 6t-12 2.5q-19 -1 -37 -45l-33 11q22 63 63 63q6 0 12.5 -1t12 -3t13 -5.5t12 -6t12 -6.5t10.5 -5q34 -18 53 -15q25 3 44 42zM870 833l27 14q33 -27 40 -63q5 -19 0.5 -37.5
t-19 -35t-38.5 -28.5q-22 -9 -47 -11l-45 -4q-11 -2 -12 -13l-54 -384q-12 -84 -53.5 -147.5t-106 -98.5t-142.5 -35q-120 0 -182.5 78.5t-44.5 204.5l53 381q2 10 -8 11l-64 5q-6 0 -5 7l3 23h220l-4 -30l-81 -7q-11 -1 -13 -12l-53 -380q-16 -113 33.5 -178.5t148.5 -65.5
q100 0 172.5 67t88.5 179l54 380q1 9 -8 10l-87 7l4 30h189q12 2 24 9q24 10 35 30t7 43q-7 30 -32 51z" />
    <glyph glyph-name="uhorntilde" unicode="&#x1eef;" horiz-adv-x="690" 
d="M533 665l33 -10q-6 -18 -16.5 -32t-24.5 -22t-29 -9q-29 -3 -66 17q-6 4 -16.5 9.5t-17 9t-13.5 6t-12 2.5q-19 -1 -37 -45l-33 11q22 63 63 63q7 0 14.5 -1.5t16 -5t13.5 -6t15 -8t13 -6.5q34 -18 53 -15q26 3 44 42zM682 640l24 13q35 -29 41 -68q4 -30 -11.5 -56.5
t-52.5 -42.5q-25 -10 -54 -10l-53 -368q-6 -41 7.5 -61.5t44.5 -21.5h7l-3 -25h-26q-41 1 -60 25.5t-13 70.5l2 12q-53 -59 -114.5 -89t-122.5 -29q-73 0 -110 41.5t-25 125.5l42 299q1 9 -8 10l-72 6l4 28h117q7 0 6 -7l-47 -334q-19 -138 104 -138q58 0 119.5 33.5
t111.5 99.5l43 302q1 9 -8 10l-72 6l4 28h110q26 -2 50 9q26 11 38.5 32t8.5 45q-6 31 -32 54z" />
    <glyph glyph-name="Uhorndotbelow" unicode="&#x1ef0;" horiz-adv-x="837" 
d="M870 833l27 14q33 -27 40 -63q5 -19 0.5 -37.5t-19 -35t-38.5 -28.5q-22 -9 -47 -11l-45 -4q-11 -2 -12 -13l-54 -384q-18 -127 -101 -204t-201 -77q-120 0 -182.5 78.5t-44.5 204.5l53 381q2 10 -8 11l-64 5q-6 0 -5 7l3 23h220l-4 -30l-81 -7q-11 -1 -13 -12l-53 -380
q-16 -113 33.5 -178.5t148.5 -65.5q100 0 172.5 67t88.5 179l54 380q1 9 -8 10l-87 7l4 30h189q12 2 24 9q24 10 35 30t7 43q-7 30 -32 51zM400 -96q13 0 20.5 -9.5t5.5 -21.5q-1 -11 -10 -18.5t-20 -7.5q-12 0 -20 9.5t-6 21.5q1 11 10 18.5t20 7.5z" />
    <glyph glyph-name="uhorndotbelow" unicode="&#x1ef1;" horiz-adv-x="690" 
d="M682 640l24 13q35 -29 41 -68q4 -30 -11.5 -56.5t-52.5 -42.5q-25 -10 -54 -10l-53 -368q-11 -81 52 -83h7l-3 -25h-26q-41 1 -60 25.5t-13 70.5l2 12q-53 -59 -114.5 -89t-122.5 -29q-73 0 -110 41.5t-25 125.5l42 299q1 9 -8 10l-72 6l4 28h117q7 0 6 -7l-47 -334
q-19 -138 104 -138q58 0 119.5 33.5t111.5 99.5l43 302q1 9 -8 10l-72 6l4 28h110q26 -2 50 9q26 11 38.5 32t8.5 45q-6 31 -32 54zM330 -96q13 0 20.5 -9.5t5.5 -21.5q-1 -11 -10 -18.5t-20 -7.5q-13 0 -20.5 9.5t-5.5 21.5q1 11 10 18.5t20 7.5z" />
    <glyph glyph-name="Ygrave" unicode="&#x1ef2;" horiz-adv-x="682" 
d="M480 777h-41l-94 142h53zM749 670l-53 -5l-291 -414l-30 -205q-1 -10 8 -10l72 -6l-4 -30h-211l4 26q0 4 5 4l66 6q12 1 14 12l28 196l-178 418q-1 3 -6 4l-45 4q-6 0 -5 7l3 23h88l175 -408l248 353q5 7 3.5 13t-9.5 6l-75 7q-6 0 -5 7l3 22h199z" />
    <glyph glyph-name="ygrave" unicode="&#x1ef3;" horiz-adv-x="550" 
d="M386 577h-40l-94 142h53zM277 42l185 344q29 53 64 83.5t70 30.5h6l-2 -25q-23 0 -53 -28.5t-56 -76.5l-243 -450q-19 -35 -45 -60.5t-56.5 -39t-62.5 -13.5l-23 -1l3 24l12 2q41 2 80 30t65 76l34 62h-8l-116 463q-1 4 -7 5l-33 4q-6 0 -5 6l3 22h76z" />
    <glyph glyph-name="Ydotbelow" unicode="&#x1ef4;" horiz-adv-x="682" 
d="M749 670l-53 -5l-291 -414l-30 -205q-1 -10 8 -10l72 -6l-4 -30h-211l4 26q0 4 5 4l66 6q12 1 14 12l28 196l-178 418q-1 3 -6 4l-45 4q-6 0 -5 7l3 23h88l175 -408l248 353q5 7 3.5 13t-9.5 6l-75 7q-6 0 -5 7l3 22h199zM327 -96q13 0 20.5 -9.5t6.5 -21.5
q-2 -11 -10.5 -18.5t-20.5 -7.5t-19.5 9.5t-6.5 21.5q2 11 10.5 18.5t19.5 7.5z" />
    <glyph glyph-name="ydotbelow" unicode="&#x1ef5;" horiz-adv-x="555" 
d="M277 42l185 344q29 54 64 84t70 30h6l-2 -25q-15 0 -33.5 -12t-38.5 -36.5t-37 -56.5l-243 -450q-29 -53 -72 -83t-92 -30l-23 -1l3 24l12 2q41 2 80 30t65 76l34 62h-8l-116 463q-1 4 -7 5l-33 4q-6 0 -5 6l3 22h76zM293 -96q12 0 20 -9.5t6 -21.5q-1 -11 -10 -18.5
t-20 -7.5q-13 0 -20.5 9.5t-5.5 21.5q1 11 10 18.5t20 7.5z" />
    <glyph glyph-name="Yhookabove" unicode="&#x1ef6;" horiz-adv-x="682" 
d="M489 1005q50 0 81.5 -26t26.5 -63q-4 -28 -21 -46t-45 -33q-3 -2 -12 -6.5l-12 -6t-9 -5t-8 -5.5t-5.5 -6t-4.5 -8t-2 -10l-2 -13h-34l2 19q1 13 6 23t16.5 18.5t18.5 12l25 12.5q15 7 24.5 13.5t16.5 18t9 27.5q4 25 -16 41t-57 16q-35 0 -63 -16l-17 22q33 21 82 21z
M749 670l-53 -5l-291 -414l-30 -205q-1 -10 8 -10l72 -6l-4 -30h-211l4 26q0 4 5 4l66 6q12 1 14 12l28 196l-178 418q-1 3 -6 4l-45 4q-6 0 -5 7l3 23h88l175 -408l248 353q5 7 3.5 13t-9.5 6l-75 7q-6 0 -5 7l3 22h199z" />
    <glyph glyph-name="yhookabove" unicode="&#x1ef7;" horiz-adv-x="555" 
d="M378 794q51 0 82 -26t26 -63q-3 -20 -13 -35.5t-22 -25t-31 -19.5q-3 -2 -12 -6t-11.5 -5.5t-8.5 -5t-8 -6t-5.5 -6.5t-5 -8t-2.5 -9l-2 -13h-34l2 18q1 8 3.5 15t5.5 12t9 10t9 8t12.5 8t12.5 6.5l15 7.5q22 10 34.5 23t15.5 36q3 25 -17 41t-56 16q-36 -1 -64 -17
l-17 23q34 21 82 21zM602 500l-2 -25q-11 0 -24.5 -7t-27.5 -20.5t-29 -33.5t-28 -44l-243 -450q-29 -53 -72 -83t-92 -30l-23 -1l3 24l12 2q41 2 80 30t65 76l34 62h-8l-116 463q-1 4 -7 5l-33 4q-6 0 -5 6l3 22h76l112 -458l185 344q20 35 42 61t45.5 39.5t46.5 13.5h6z
" />
    <glyph glyph-name="Ytilde" unicode="&#x1ef8;" horiz-adv-x="682" 
d="M557 865l33 -10q-9 -28 -28 -44.5t-43 -18.5q-29 -3 -65 17q-7 4 -17.5 9.5t-16.5 9t-13 6t-12 2.5q-19 -1 -37 -45l-33 11q22 63 63 63q7 0 14.5 -1.5t16 -5t13.5 -6t15 -8t13 -6.5q34 -18 53 -15q25 3 44 42zM749 670l-53 -5l-291 -414l-30 -205q-1 -10 8 -10l72 -6
l-4 -30h-211l4 26q0 4 5 4l66 6q12 1 14 12l28 196l-178 418q-1 3 -6 4l-45 4q-6 0 -5 7l3 23h88l175 -408l248 353q5 7 3.5 13t-9.5 6l-75 7q-6 0 -5 7l3 22h199z" />
    <glyph glyph-name="ytilde" unicode="&#x1ef9;" horiz-adv-x="550" 
d="M463 665l33 -10q-9 -28 -28 -44.5t-42 -18.5q-29 -3 -66 17q-6 4 -16.5 9.5t-16.5 9t-13.5 6t-12.5 2.5q-19 -1 -37 -45l-33 11q22 63 64 63q6 0 13.5 -1.5t16 -5t14 -6t15 -8t12.5 -6.5q34 -18 54 -15q25 3 43 42zM277 42l185 344q29 54 64 84t70 30h6l-2 -25
q-23 0 -53 -28.5t-56 -76.5l-243 -450q-19 -35 -45 -60.5t-56.5 -39t-62.5 -13.5l-23 -1l3 24l12 2q41 2 80 30t65 76l34 62h-8l-116 463q-1 4 -7 5l-33 4q-6 0 -5 6l3 22h76z" />
    <glyph glyph-name="endash" unicode="&#x2013;" horiz-adv-x="472" 
d="M457 231h-377l5 37h378z" />
    <glyph glyph-name="emdash" unicode="&#x2014;" horiz-adv-x="688" 
d="M673 231h-593l5 37h593z" />
    <glyph glyph-name="quoteleft" unicode="&#x2018;" horiz-adv-x="156" 
d="M208 726l19 -15q-38 -45 -53 -94q-10 -29 -4 -44h2q10 -2 16 -10.5t4 -20t-11 -19.5t-21 -8q-25 0 -31.5 28.5t8.5 67.5q23 66 71 115z" />
    <glyph glyph-name="quoteright" unicode="&#x2019;" horiz-adv-x="156" 
d="M169 725q26 0 32.5 -28.5t-8.5 -67.5q-23 -65 -71 -115l-19 15q38 45 53 94q10 29 4 45h-2q-10 1 -16 10t-4 20t11 19t20 8z" />
    <glyph glyph-name="quotesinglbase" unicode="&#x201a;" horiz-adv-x="156" 
d="M75 54q26 0 32 -28.5t-8 -67.5q-23 -66 -71 -115l-20 15q38 47 53 94q10 29 5 45l-3 -1q-9 2 -15 11t-4.5 20t10.5 19t21 8z" />
    <glyph glyph-name="quotedblleft" unicode="&#x201c;" horiz-adv-x="296" 
d="M208 726l19 -15q-38 -45 -53 -94q-10 -29 -4 -44h2q10 -2 16 -10.5t4 -20t-11 -19.5t-21 -8q-25 0 -31.5 28.5t8.5 67.5q23 66 71 115zM348 726l19 -15q-38 -45 -53 -94q-10 -29 -4 -44h2q10 -2 15.5 -10.5t4.5 -20.5q-1 -7 -5.5 -13t-11.5 -10t-15 -4q-25 0 -31.5 28.5
t8.5 67.5q23 66 71 115z" />
    <glyph glyph-name="quotedblright" unicode="&#x201d;" horiz-adv-x="296" 
d="M169 725q26 0 32.5 -28.5t-8.5 -67.5q-23 -65 -71 -115l-19 15q38 45 53 94q10 29 4 45h-2q-10 1 -16 10t-4 20t11 19t20 8zM309 725q26 0 32 -28.5t-8 -67.5q-23 -65 -71 -115l-19 15q37 45 52 94q11 29 5 45h-2q-10 1 -16 10t-4 20q1 7 5.5 13t11.5 10t14 4z" />
    <glyph glyph-name="quotedblbase" unicode="&#x201e;" horiz-adv-x="296" 
d="M75 54q26 0 32 -28.5t-8 -67.5q-23 -66 -71 -115l-20 15q38 47 53 94q10 29 5 45l-3 -1q-9 2 -15 11t-4.5 20t10.5 19t21 8zM215 54q26 0 32 -28.5t-8 -67.5q-23 -66 -71 -115l-20 15q38 47 53 94q10 29 4 45l-2 -1q-10 2 -15.5 11t-3.5 20q1 7 5 13t11 10t15 4z" />
    <glyph glyph-name="dagger" unicode="&#x2020;" horiz-adv-x="509" 
d="M345 500h187l-6 -37h-186l-76 -561h-47l82 561h-187l5 37h187l27 215h47z" />
    <glyph glyph-name="daggerdbl" unicode="&#x2021;" horiz-adv-x="509" 
d="M345 500h187l-6 -37h-184l-45 -309h186l-5 -37h-186l-28 -215h-47l32 215h-185l5 37h186l42 309h-185l5 37h187l27 215h47z" />
    <glyph glyph-name="bullet" unicode="&#x2022;" horiz-adv-x="247" 
d="M171 350q21 0 37.5 -11t24.5 -29t5 -40q-3 -20 -15 -37t-30.5 -27t-39.5 -10q-32 0 -52 23.5t-15 56.5q4 30 29 52t56 22z" />
    <glyph glyph-name="ellipsis" unicode="&#x2026;" horiz-adv-x="462" 
d="M236 54q13 0 21 -10t6 -23q-1 -11 -10.5 -19t-20.5 -8q-13 0 -21 10t-7 23q2 11 11 19t21 8zM82 54q14 0 21.5 -10t6.5 -23q-2 -11 -11 -19t-21 -8q-13 0 -21 10t-6 23q1 11 10.5 19t20.5 8zM390 54q13 0 21 -10t6 -23q-1 -11 -10 -19t-21 -8q-13 0 -21 10t-6 23
q1 7 5.5 13t11.5 10t14 4z" />
    </font>
</defs>
</svg>
