<?xml version="1.0" standalone="no"?>
<!DOCTYPE svg PUBLIC "-//W3C//DTD SVG 1.1//EN" "http://www.w3.org/Graphics/SVG/1.1/DTD/svg11.dtd" >
<svg xmlns="http://www.w3.org/2000/svg" xmlns:xlink="http://www.w3.org/1999/xlink" version="1.1">
<metadata>
Created by FontForge 20170731 at Wed Feb 19 12:08:37 2014
 By ,,,
Copyright (c) 2013 by Jonathan Hill. All rights reserved.
</metadata>
<defs>
<font id="Modum-Thin" horiz-adv-x="600" vert-adv-y="1000" >
  <font-face 
    font-family="Modum Thin"
    font-weight="250"
    font-stretch="normal"
    units-per-em="1000"
    panose-1="0 0 3 0 0 0 0 0 0 0"
    ascent="750"
    descent="-250"
    x-height="500"
    cap-height="700"
    bbox="0 -224 1471 1084"
    underline-thickness="50"
    underline-position="-200"
    unicode-range="U+0020-FE6B"
  />
<missing-glyph horiz-adv-x="500" 
d="M0 0v700h500v-700h-500zM250 395l170 255h-340zM280 350l170 -255v510zM80 50h340l-170 255zM50 605v-510l170 255z" />
    <glyph glyph-name="fi" unicode="fi" horiz-adv-x="746" 
d="M299 750q63 -1 117 -36l-11 -12q-50 33 -106 34q-58 0 -97 -35.5t-39 -101.5v-99h415q6 0 6 -5v-464q0 -9 9 -10l78 -6v-15h-175v10q0 5 4 5l56 5q9 1 9 10v438q0 10 -10 11l-190 9l-202 -10v-447q0 -9 9 -10l78 -6v-15h-171v10q0 5 4 5l52 5q9 1 9 10v449l-64 3
q-5 0 -5 5v13h69v99q0 72 45 111.5t110 39.5z" />
    <glyph glyph-name="fl" unicode="fl" horiz-adv-x="736" 
d="M365 739l213 11q6 0 6 -5v-714q0 -9 9 -10l78 -6v-15h-172v10q0 5 5 5l52 5q9 1 9 10v688q0 10 -10 10h-205q-24 8 -51 8q-58 0 -97 -35.5t-39 -101.5v-99h154v-14l-154 -8v-447q0 -9 9 -10l78 -6v-15h-171v10q0 5 4 5l52 5q9 1 9 10v449l-64 3q-5 0 -5 5v13h69v99
q0 72 45 111.5t110 39.5q34 0 66 -11z" />
    <glyph glyph-name="f_f" unicode="ff" horiz-adv-x="831" 
d="M715 750q63 -1 116 -36l-10 -12q-50 33 -106 34q-58 0 -97 -35.5t-39 -101.5v-99h154v-14l-154 -8v-447q0 -9 9 -10l78 -6v-15h-172v10q0 5 5 5l52 5q9 1 9 10v449l-191 10l-206 -11v-447q0 -9 9 -10l78 -6v-15h-172v10q0 5 5 5l52 5q9 1 9 10v449l-64 3q-5 0 -5 5v13h69
v99q0 72 45 111.5t110 39.5q63 -1 117 -36l-11 -12q-50 33 -106 34q-37 0 -67.5 -14.5t-49.5 -46t-19 -76.5v-99h397v99q0 72 44.5 111.5t110.5 39.5z" />
    <glyph glyph-name="f_f_i" unicode="ffi" horiz-adv-x="1161" 
d="M715 750q63 -1 116 -36l-10 -12q-50 33 -106 34q-58 0 -97 -35.5t-39 -101.5v-99h415q5 0 5 -5v-464q0 -9 10 -10l77 -6v-15h-175v10q0 5 5 5l55 5q9 1 9 10v438q0 10 -9 11l-191 10l-201 -11v-447q0 -9 9 -10l78 -6v-15h-172v10q0 5 5 5l52 5q9 1 9 10v449l-191 10
l-206 -11v-447q0 -9 9 -10l78 -6v-15h-172v10q0 5 5 5l52 5q9 1 9 10v449l-64 3q-5 0 -5 5v13h69v99q0 72 45 111.5t110 39.5q63 -1 117 -36l-11 -12q-50 33 -106 34q-37 0 -67.5 -14.5t-49.5 -46t-19 -76.5v-99h397v99q0 72 44.5 111.5t110.5 39.5z" />
    <glyph glyph-name="f_f_l" unicode="ffl" horiz-adv-x="1151" 
d="M781 739l213 11q5 0 5 -5v-714q0 -9 10 -10l77 -6v-15h-171v10q0 5 4 5l52 5q9 1 9 10v688q0 10 -9 10h-205q-25 8 -51 8q-58 0 -97 -35.5t-39 -101.5v-99h154v-14l-154 -8v-447q0 -9 9 -10l78 -6v-15h-172v10q0 5 5 5l52 5q9 1 9 10v449l-191 10l-206 -11v-447
q0 -9 9 -10l78 -6v-15h-172v10q0 5 5 5l52 5q9 1 9 10v449l-64 3q-5 0 -5 5v13h69v99q0 72 45 111.5t110 39.5q63 -1 117 -36l-11 -12q-50 33 -106 34q-58 0 -97 -35.5t-39 -101.5v-99h397v99q0 72 44.5 111.5t110.5 39.5q33 0 66 -11z" />
    <glyph glyph-name=".notdef" horiz-adv-x="500" 
d="M0 0v700h500v-700h-500zM250 395l170 255h-340zM280 350l170 -255v510zM80 50h340l-170 255zM50 605v-510l170 255z" />
    <glyph glyph-name=".null" horiz-adv-x="0" vert-adv-y="0" 
 />
    <glyph glyph-name="nonmarkingreturn" horiz-adv-x="333" 
 />
    <glyph glyph-name="space" unicode=" " horiz-adv-x="300" 
 />
    <glyph glyph-name="exclam" unicode="!" horiz-adv-x="138" 
d="M78 211h-18l-2 489h22zM69 33q8 0 13.5 -5.5t5.5 -13.5t-5.5 -13.5t-13.5 -5.5t-13.5 5.5t-5.5 13.5t5.5 13.5t13.5 5.5z" />
    <glyph glyph-name="quotedbl" unicode="&#x22;" horiz-adv-x="225" 
d="M70 520h-17l-3 197h23zM172 520h-17l-3 197h23z" />
    <glyph glyph-name="numbersign" unicode="#" horiz-adv-x="654" 
d="M465 500h139l-3 -17h-138l-33 -235h138l-2 -17h-139l-32 -231h-23l32 231h-196l-32 -231h-23l32 231h-135l2 17h136l33 235h-136l3 17h135l25 180h23l-25 -180h196l25 180h23zM244 483l-33 -235h196l33 235h-196z" />
    <glyph glyph-name="dollar" unicode="$" horiz-adv-x="558" 
d="M305 774v-86q89 0 148 -35q2 -2 2 -4v-110h-16l-8 100q0 4 -4 7q-50 25 -120 25q-91 0 -145 -37t-54 -97q0 -40 12.5 -63.5t49 -49t119.5 -66.5t123.5 -70t55.5 -55.5t15 -65.5q0 -64 -48.5 -110.5t-129.5 -60.5v-89h-23v85q-28 -2 -44 -2q-97 0 -161 38q-2 1 -2 4v109
h16l7 -99q1 -5 5 -7q56 -28 135 -28q99 0 160 44.5t61 115.5q0 36 -13.5 60t-51 50.5t-116.5 65.5q-85 42 -125 70.5t-54.5 55.5t-14.5 68q0 60 54.5 102.5t143.5 47.5v87h23z" />
    <glyph glyph-name="percent" unicode="%" horiz-adv-x="878" 
d="M268 -17h-25l360 734h25zM203 706q69 0 111 -56t42 -150t-42 -150t-111 -56q-46 0 -80.5 25.5t-53.5 72t-19 108.5q0 94 42 150t111 56zM203 689q-57 0 -93 -51t-36 -137.5t36 -138t93 -51.5t93 51.5t36 138t-36 137.5t-93 51zM675 406q69 0 111 -56t42 -150
q0 -62 -19 -109t-53.5 -72t-80.5 -25q-69 0 -111 56t-42 150q0 46 11 84.5t31 65t48.5 41.5t62.5 15zM675 389q-57 0 -93 -51.5t-36 -138t36 -137.5t93 -51t93 51t36 138q0 57 -17 100.5t-46 66t-66 22.5z" />
    <glyph glyph-name="ampersand" unicode="&#x26;" horiz-adv-x="656" 
d="M263 710q56 0 98 -16.5t64.5 -55t15.5 -93.5q-4 -29 -18.5 -51.5t-53.5 -54.5t-118 -84l-6 -5l245 -234q10 27 10 58v168h24v-168q0 -40 -17 -74l99 -95l-14 -15l-96 92q-28 -43 -81 -67.5t-121 -24.5q-76 0 -130.5 17.5t-84 52.5t-29.5 85q0 56 31.5 97.5t131.5 109.5
l-83 80q-45 44 -45 113q0 49 21.5 86.5t62 58t94.5 20.5zM263 693q-71 0 -112.5 -39.5t-41.5 -108.5q0 -64 37 -101l84 -80l8 5q110 73 142 105.5t37 72.5q10 74 -33 110t-121 36zM481 97l-254 242q-66 -46 -98.5 -76.5t-43.5 -55.5t-11 -62q0 -138 220 -138
q66 0 114.5 23.5t72.5 66.5z" />
    <glyph glyph-name="quotesingle" unicode="'" horiz-adv-x="123" 
d="M70 520h-17l-3 197h23z" />
    <glyph glyph-name="parenleft" unicode="(" horiz-adv-x="325" 
d="M283 729l12 -15q-94 -53 -153 -155q-68 -119 -68 -283q0 -188 89 -315q54 -77 132 -122l-12 -15q-83 48 -139 127q-94 133 -94 325q0 167 71 291q60 104 162 162z" />
    <glyph glyph-name="parenright" unicode=")" horiz-adv-x="325" 
d="M30 714l12 15q101 -58 161 -162q72 -124 72 -291q0 -192 -94 -325q-56 -79 -139 -127l-12 15q77 45 131 122q90 127 90 315q0 164 -69 283q-58 102 -152 155z" />
    <glyph glyph-name="asterisk" unicode="*" horiz-adv-x="384" 
d="M208 593l79 -106l-18 -13l-77 108l-76 -108l-19 13l80 106l-127 39l7 22l126 -43l-2 133h23l-2 -133l125 43l7 -22z" />
    <glyph glyph-name="plus" unicode="+" horiz-adv-x="500" 
d="M258 299h192v-17h-192v-191h-17v191h-191v17h191v191h17v-191z" />
    <glyph glyph-name="comma" unicode="," horiz-adv-x="142" 
d="M63 33q19 0 26 -24t0 -58q-11 -59 -46 -105l-13 8q33 46 40 96q5 29 -5 45h-2q-8 0 -13.5 5.5t-5.5 13.5t5.5 13.5t13.5 5.5z" />
    <glyph glyph-name="hyphen" unicode="-" horiz-adv-x="400" 
d="M350 241h-300v17h300v-17z" />
    <glyph glyph-name="period" unicode="." horiz-adv-x="138" 
d="M69 33q8 0 13.5 -5.5t5.5 -13.5t-5.5 -13.5t-13.5 -5.5t-13.5 5.5t-5.5 13.5t5.5 13.5t13.5 5.5z" />
    <glyph glyph-name="slash" unicode="/" horiz-adv-x="363" 
d="M55 -118h-25l278 860h25z" />
    <glyph glyph-name="zero" unicode="0" horiz-adv-x="620" 
d="M310 690q118 0 189 -95.5t71 -254.5t-71 -254.5t-189 -95.5t-189 95.5t-71 254.5t71 254.5t189 95.5zM310 673q-105 0 -170.5 -90.5t-65.5 -242.5q0 -101 30 -177t83.5 -116t122.5 -40q105 0 170.5 90.5t65.5 242.5t-65.5 242.5t-170.5 90.5z" />
    <glyph glyph-name="one" unicode="1" horiz-adv-x="308" 
d="M185 680v-648q0 -9 9 -10l74 -6v-16h-188v11q0 5 4 5l69 6q9 1 9 10v612q0 4 -3 6t-7 0l-98 -68l-14 14l121 83l2 1h22z" />
    <glyph glyph-name="two" unicode="2" horiz-adv-x="469" 
d="M244 690q47 0 87.5 -17.5t60.5 -50.5q22 -36 22.5 -81t-29.5 -115.5t-96 -160.5q-62 -84 -220 -248h318q9 0 10 9l7 86h15v-112h-379v15q0 2 1 3q164 169 229 257q168 229 101 338q-18 29 -52 44.5t-75 15.5q-58 0 -104.5 -28t-63.5 -81l-22 5q17 58 71 89.5t119 31.5z
" />
    <glyph glyph-name="three" unicode="3" horiz-adv-x="485" 
d="M234 690q79 0 133.5 -43.5t54.5 -122.5q0 -59 -34 -100t-95 -57q67 -17 104.5 -64.5t37.5 -117.5q0 -50 -18 -88.5t-49 -61t-69 -34t-82 -11.5q-100 0 -177 50l13 15q73 -48 165 -48q83 0 138 44t55 134q0 82 -50.5 128t-138.5 46h-61v17h61q82 0 129 39.5t47 108.5
q0 72 -46.5 110.5t-117.5 38.5q-77 0 -143 -44q-4 -3 -4 -7l-8 -101h-15v110q0 2 1 3q76 56 169 56z" />
    <glyph glyph-name="four" unicode="4" horiz-adv-x="516" 
d="M65 184h276v311q0 5 5 5h18v-316h102v-17h-102v-135q0 -9 9 -10l74 -6v-16h-188v11q0 5 5 5l68 6q9 1 9 10v135h-301v17l236 496h26z" />
    <glyph glyph-name="five" unicode="5" horiz-adv-x="476" 
d="M413 663h-283l-27 -306q51 27 120 27q64 0 112 -23.5t74.5 -68t26.5 -103.5q0 -67 -30.5 -113t-77 -66t-106.5 -20q-88 0 -170 41q-2 2 -2 4v110h16l7 -98q1 -6 5 -8q71 -32 144 -32q84 0 137 45t53 137q0 84 -51 131t-138 47q-78 0 -130 -40l-14 14l30 339h304v-17z" />
    <glyph glyph-name="six" unicode="6" horiz-adv-x="504" 
d="M308 689q60 -1 121 -33l-11 -15q-57 30 -110 31q-94 2 -161.5 -84t-72.5 -241v-39q25 54 75 83t116 27q93 -3 147.5 -63t51 -157t-55 -153.5t-134.5 -53.5q-106 3 -167.5 100.5t-56.5 256.5q6 163 79 253.5t179 87.5zM264 401q-74 2 -123.5 -40t-61.5 -118
q16 -108 68 -170.5t128 -64.5q72 -3 117 48t48 142.5t-45 145.5t-131 57z" />
    <glyph glyph-name="seven" unicode="7" horiz-adv-x="472" 
d="M442 680v-17q-87 -110 -171 -298q-80 -180 -122 -365h-24q41 186 124 372q75 168 158 280q3 4 1 7.5t-6 3.5h-330q-9 0 -10 -9l-6 -86h-16v107q0 5 5 5h397z" />
    <glyph glyph-name="eight" unicode="8" horiz-adv-x="526" 
d="M263 690q30 0 57 -5.5t49 -16.5t40 -26.5t30 -34.5t18.5 -42.5t6.5 -49.5q0 -41 -15.5 -74.5t-45 -56t-69.5 -33.5q67 -17 104.5 -63t37.5 -112q0 -84 -58 -135t-155 -51q-64 0 -112.5 23t-74.5 65t-26 98q0 66 37.5 112t104.5 63q-61 16 -95.5 59t-34.5 105q0 79 55 127
t146 48zM263 673q-82 0 -129.5 -42.5t-47.5 -115.5t47.5 -114.5t129.5 -41.5t129.5 41.5t47.5 114.5t-47.5 115.5t-129.5 42.5zM263 342q-58 0 -100.5 -20t-65.5 -57.5t-23 -88.5q0 -78 51 -123.5t138 -45.5t138 45.5t51 123.5t-50.5 122t-138.5 44z" />
    <glyph glyph-name="nine" unicode="9" horiz-adv-x="504" 
d="M229 689q107 -3 168 -100t56 -257q-2 -82 -23.5 -148t-56.5 -108t-80.5 -64t-97.5 -21q-60 2 -120 33l11 15q30 -16 56.5 -23.5t53.5 -7.5q94 -2 161 84t72 241q1 20 1 40q-25 -55 -75 -84t-116 -26q-93 3 -147.5 62.5t-51.5 156.5t55 153.5t134 53.5zM229 673
q-72 2 -117 -49t-48 -142.5t45 -145.5t130 -56q30 -1 56 5t48 19t38.5 32.5t27.5 45t15 56.5q-10 71 -37 123.5t-67.5 81t-90.5 30.5z" />
    <glyph glyph-name="colon" unicode=":" horiz-adv-x="138" 
d="M69 480q8 0 13.5 -5.5t5.5 -13.5t-5.5 -13.5t-13.5 -5.5t-13.5 5.5t-5.5 13.5t5.5 13.5t13.5 5.5zM69 33q8 0 13.5 -5.5t5.5 -13.5t-5.5 -13.5t-13.5 -5.5t-13.5 5.5t-5.5 13.5t5.5 13.5t13.5 5.5z" />
    <glyph glyph-name="semicolon" unicode=";" horiz-adv-x="142" 
d="M63 480q8 0 13.5 -5.5t5.5 -13.5t-5.5 -13.5t-13.5 -5.5t-13.5 5.5t-5.5 13.5t5.5 13.5t13.5 5.5zM63 33q19 0 26 -24t0 -58q-11 -59 -46 -105l-13 8q33 46 40 96q5 29 -5 45h-2q-8 0 -13.5 5.5t-5.5 13.5t5.5 13.5t13.5 5.5z" />
    <glyph glyph-name="less" unicode="&#x3c;" 
d="M550 536l-483 -193l483 -192v-20l-500 199v26l500 199v-19z" />
    <glyph glyph-name="equal" unicode="=" horiz-adv-x="540" 
d="M490 388h-440v17h440v-17zM490 169h-440v17h440v-17z" />
    <glyph glyph-name="greater" unicode="&#x3e;" 
d="M550 356v-26l-500 -199v20l483 192l-483 193v19z" />
    <glyph glyph-name="question" unicode="?" horiz-adv-x="422" 
d="M180 710q89 0 140.5 -38.5t51.5 -99.5q0 -39 -12.5 -63t-46.5 -49.5t-108 -64.5q-55 -29 -80.5 -48t-34.5 -36t-9 -44v-56h-24v56q0 42 26.5 70.5t110.5 72.5q70 37 101 60t42 44.5t11 57.5q0 54 -45.5 87.5t-122.5 33.5q-58 0 -99 -22q-4 -2 -5 -7l-7 -100h-16v110
q0 2 1 3q51 33 126 33zM69 33q8 0 13.5 -5.5t5.5 -13.5t-5.5 -13.5t-13.5 -5.5t-13.5 5.5t-5.5 13.5t5.5 13.5t13.5 5.5z" />
    <glyph glyph-name="at" unicode="@" horiz-adv-x="922" 
d="M460 713q96 0 174 -32t130 -89t80 -136t28 -172q0 -92 -52.5 -146.5t-136.5 -54.5h-97q-5 0 -5 5v39q-51 -51 -132 -51q-85 0 -137 56t-52 146.5t52 146.5t137 56q96 0 155 -78v-298l79 -5q74 0 119.5 49t45.5 135q0 122 -45.5 214.5t-134 145t-208.5 52.5
q-180 0 -283 -113.5t-103 -298.5q0 -186 104 -300t282 -114q62 0 120 15l6 -16q-62 -16 -126 -16q-125 0 -218.5 55.5t-142.5 152.5t-49 223q0 125 47.5 221.5t141.5 152t221 55.5zM449 465q-75 0 -120.5 -50.5t-45.5 -136t45.5 -136t120.5 -51.5q86 0 132 66v242
q-46 66 -132 66z" />
    <glyph glyph-name="A" unicode="A" horiz-adv-x="749" 
d="M663 21l56 -5v-16h-181v10q0 5 4 5l79 7q6 0 8.5 5t0.5 11l-77 185h-363l-82 -200l93 -7v-16h-171v12q0 4 5 4l46 5q5 0 7 5l279 673l15 1zM197 240h349l-174 421z" />
    <glyph glyph-name="B" unicode="B" horiz-adv-x="644" 
d="M85 700h280q91 0 145.5 -46.5t54.5 -123.5q0 -58 -32 -99.5t-89 -58.5q75 -15 117.5 -63.5t42.5 -119.5q0 -86 -60.5 -137.5t-161.5 -51.5h-297v11q0 5 5 5l67 6q9 0 9 10v636q0 10 -9 10l-67 6q-5 0 -5 5v11zM269 683l-80 -7v-299h176q82 0 129 41t47 112t-47 112
t-129 41h-96zM189 360v-336l80 -7h113q61 0 105.5 21t68.5 59.5t24 91.5q0 79 -53 125t-145 46h-193z" />
    <glyph glyph-name="C" unicode="C" horiz-adv-x="651" 
d="M392 710q116 0 199 -61q1 -2 1 -4v-110h-15l-8 101q0 4 -4 7q-74 50 -173 50q-139 0 -223.5 -93.5t-84.5 -249.5t84.5 -249.5t223.5 -93.5q120 0 203 73l16 -13q-88 -77 -219 -77q-150 0 -241 99t-91 261t91 261t241 99z" />
    <glyph glyph-name="D" unicode="D" horiz-adv-x="757" 
d="M80 700h285q151 0 241.5 -95t90.5 -255.5t-90.5 -255t-241.5 -94.5h-285v11q0 5 5 5l67 6q9 0 9 10v636q0 10 -9 10l-67 6q-5 0 -5 5v11zM264 683l-80 -7v-652l80 -7h101q141 0 224.5 89t83.5 244t-83.5 244t-224.5 89h-101z" />
    <glyph glyph-name="E" unicode="E" horiz-adv-x="575" 
d="M80 700h430q5 0 5 -5v-107h-16l-6 86q-1 9 -10 9h-299v-317h256v-17h-256v-332h319q9 0 10 9l6 86h16v-107q0 -5 -5 -5h-450v11q0 5 5 5l67 6q9 0 9 10v636q0 10 -9 10l-67 6q-5 0 -5 5v11z" />
    <glyph glyph-name="F" unicode="F" horiz-adv-x="550" 
d="M80 700h425q5 0 5 -5v-107h-16l-6 86q-1 9 -10 9h-294v-329h235v-17h-235v-313l95 -8v-16h-199v11q0 5 5 5l67 6q9 0 9 10v636q0 9 -9 10l-67 6q-5 0 -5 5v11z" />
    <glyph glyph-name="G" unicode="G" horiz-adv-x="706" 
d="M392 709q111 0 220 -59q2 -1 2 -4v-110h-15l-8 99q0 5 -5 8q-97 49 -194 49q-63 0 -118.5 -22.5t-98 -64.5t-67 -108t-24.5 -147q0 -156 84.5 -249.5t223.5 -93.5q132 0 216 86v186q0 9 -9 10l-195 10v17h222q5 0 5 -5v-311h-18l-5 65q-87 -75 -216 -75q-150 0 -241 99
t-91 261q0 85 26.5 154t72 113.5t105 68t128.5 23.5z" />
    <glyph glyph-name="H" unicode="H" horiz-adv-x="859" 
d="M779 684l-72 -6q-9 0 -9 -10v-636q0 -10 9 -10l72 -6v-16h-198v11q0 5 4 5l81 7q9 1 9 10v316h-491v-316q0 -9 9 -10l85 -7v-16h-198v11q0 5 5 5l67 6q9 0 9 10v636q0 10 -9 10l-67 6q-5 0 -5 5v11h198v-16l-85 -7q-9 -1 -9 -10v-301h491v301q0 9 -9 10l-81 7q-4 0 -4 5
v11h198v-16z" />
    <glyph glyph-name="I" unicode="I" horiz-adv-x="348" 
d="M268 684l-74 -6q-9 -1 -9 -10v-636q0 -9 9 -10l74 -6v-16h-188v11q0 5 5 5l68 6q9 1 9 10v636q0 9 -9 10l-68 6q-5 0 -5 5v11h188v-16z" />
    <glyph glyph-name="J" unicode="J" horiz-adv-x="358" 
d="M278 684l-70 -6q-9 0 -9 -10v-633q0 -85 -43 -146t-118 -86l-8 16q67 22 106 79t39 137v632q0 9 -9 10l-81 7q-5 0 -5 5v11h198v-16z" />
    <glyph glyph-name="K" unicode="K" horiz-adv-x="732" 
d="M684 684l-78 -6l-272 -292l284 -361q2 -2 6 -3l73 -6q5 0 5 -5v-11h-93l-291 369l-134 -144v-192q0 -9 9 -10l85 -7v-16h-198v11q0 5 5 5l67 6q9 0 9 10v636q0 10 -9 10l-67 6q-5 0 -5 5v11h198v-16l-85 -7q-9 -1 -9 -10v-417l378 406q7 7 4 14.5t-12 7.5l-64 6
q-4 0 -4 5v11h198v-16z" />
    <glyph glyph-name="L" unicode="L" horiz-adv-x="563" 
d="M278 684l-85 -7q-9 -1 -9 -10v-650h307q9 0 10 9l6 86h16v-107q0 -5 -5 -5h-438v11q0 5 5 5l67 6q9 0 9 10v636q0 10 -9 10l-67 6q-5 0 -5 5v11h198v-16z" />
    <glyph glyph-name="M" unicode="M" horiz-adv-x="1022" 
d="M867 684l-68 -5q-11 -1 -10 -12l87 -646l66 -5v-16h-198v16l97 8q10 1 9 12l-84 624l-247 -659l-14 -1l-253 663l-86 -638l107 -9v-16h-198v11q0 5 5 5l59 5q8 1 9 8l85 638q2 11 -9 12l-64 5q-4 0 -4 5v11h108l251 -659l246 659h106v-16z" />
    <glyph glyph-name="N" unicode="N" horiz-adv-x="849" 
d="M774 684l-72 -6q-9 0 -9 -10v-668h-23l-491 664v-631q0 -9 9 -10l86 -7v-16h-199v11q0 5 5 5l67 6q9 0 9 10v636q0 10 -9 10l-67 6q-5 0 -5 5v11h104l491 -664v631q0 9 -9 10l-81 7q-4 0 -4 5v11h198v-16z" />
    <glyph glyph-name="O" unicode="O" horiz-adv-x="784" 
d="M392 710q99 0 174.5 -45t116.5 -127t41 -188q0 -162 -91 -261t-241 -99t-241 99t-91 261t91 261t241 99zM392.5 693q-139.5 0 -224 -93.5t-84.5 -249.5t84.5 -249.5t224 -93.5t223.5 93.5t84 249.5t-84 249.5t-223.5 93.5z" />
    <glyph glyph-name="P" unicode="P" horiz-adv-x="620" 
d="M80 700h280q91 0 145.5 -50t54.5 -132q0 -54 -24.5 -95.5t-70 -64t-105.5 -22.5h-176v-303q0 -9 9 -10l85 -7v-16h-198v11q0 5 5 5l67 6q9 0 9 10v636q0 10 -9 10l-67 6q-5 0 -5 5v11zM264 683l-80 -7v-323h176q81 0 128.5 44t47.5 121t-47.5 121t-128.5 44h-96z" />
    <glyph glyph-name="Q" unicode="Q" horiz-adv-x="788" 
d="M838 -103l10 -15q-28 -14 -57 -17t-50 0.5t-49.5 17.5t-42.5 23t-43 29q-74 51 -118 67q-45 -12 -96 -12q-150 0 -241 99t-91 261t91 261t241 99q99 0 174.5 -45t116.5 -127t41 -188q0 -125 -55.5 -214.5t-153.5 -124.5q40 -17 104 -62q25 -17 36 -24t33 -19.5
t36.5 -16.5t34 -7t39 1t40.5 14zM84 350q0 -156 84.5 -249.5t224 -93.5t223.5 93.5t84 249.5t-84 249.5t-223.5 93.5t-224 -93.5t-84.5 -249.5z" />
    <glyph glyph-name="R" unicode="R" horiz-adv-x="667" 
d="M80 700h280q91 0 145.5 -48.5t54.5 -128.5q0 -53 -24.5 -93t-70 -61.5t-105.5 -21.5h-2l197 -322q3 -3 7 -4l65 -5v-16h-80q-2 0 -3 2l-211 345h-149v-314q0 -9 9 -10l85 -7v-16h-198v11q0 5 5 5l67 6q9 0 9 10v636q0 10 -9 10l-67 6q-5 0 -5 5v11zM264 683l-80 -7v-312
h176q81 0 128.5 42.5t47.5 116.5q0 49 -21.5 85.5t-61 55.5t-93.5 19h-96z" />
    <glyph glyph-name="S" unicode="S" horiz-adv-x="572" 
d="M315 710q89 0 150 -37q2 -1 2 -3v-110h-16l-8 99q0 5 -4 7q-52 27 -124 27q-95 0 -150.5 -38.5t-55.5 -99.5q0 -41 13 -65.5t51 -51t122 -68.5q65 -32 103 -55t61 -46.5t30.5 -44.5t7.5 -52q0 -79 -71 -130.5t-183 -51.5q-101 0 -166 39q-2 1 -2 4v109h16l7 -99
q1 -5 5 -7q58 -29 140 -29q104 0 167 45t63 120q0 38 -14 63t-52.5 52t-121.5 68q-68 33 -105 55t-59.5 45.5t-29 44.5t-6.5 55q0 68 63 111.5t167 43.5z" />
    <glyph glyph-name="T" unicode="T" horiz-adv-x="636" 
d="M35 700h566q5 0 5 -5v-107h-16l-7 86q0 9 -10 9h-244v-651q0 -9 9 -10l74 -6v-16h-188v11q0 5 5 5l68 6q9 1 9 10v651h-244q-9 0 -10 -9l-6 -86h-16v107q0 5 5 5z" />
    <glyph glyph-name="U" unicode="U" horiz-adv-x="834" 
d="M759 684l-71 -6q-9 0 -9 -10v-397q0 -126 -71 -203.5t-188.5 -77.5t-188.5 77.5t-71 203.5v397q0 10 -9 10l-66 6q-5 0 -5 5v11h198v-16l-85 -7q-9 -1 -9 -10v-396q0 -121 64.5 -192.5t171.5 -71.5t174.5 72t67.5 192v395q0 9 -9 10l-92 8v16h198v-16z" />
    <glyph glyph-name="V" unicode="V" horiz-adv-x="714" 
d="M684 684l-56 -5l-264 -678l-14 -1l-267 674q-2 5 -8 6l-40 4q-5 0 -5 4v12h69l261 -660l241 622q2 6 -0.5 10.5t-8.5 5.5l-85 7q-4 0 -4 5v10h181v-16z" />
    <glyph glyph-name="W" unicode="W" horiz-adv-x="1081" 
d="M1051 684l-54 -5l-202 -678l-15 -1l-242 664l-244 -663l-14 -1l-200 674q-1 6 -8 6l-37 4q-5 0 -5 5v11h69l192 -656l226 618q2 6 -1 10.5t-9 4.5l-85 8q-4 0 -4 5v10h133l238 -656l183 619q1 4 0 7t-3.5 5t-6.5 2l-88 8q-4 0 -4 5v10h181v-16z" />
    <glyph glyph-name="X" unicode="X" horiz-adv-x="645" 
d="M615 684l-62 -6l-217 -328l220 -326q2 -3 6 -3l53 -5v-16h-66q-3 0 -4 2l-224 331l-204 -310l97 -8v-15h-181v12q0 4 5 4l53 5q5 1 7 4l213 323l-222 328q-2 3 -6 3l-48 5q-5 0 -5 4v12h69l227 -335l194 294q4 7 1 13t-10 7l-73 6q-4 0 -4 5v10h181v-16z" />
    <glyph glyph-name="Y" unicode="Y" horiz-adv-x="676" 
d="M646 684l-54 -5l-239 -426v-221q0 -9 9 -10l73 -6v-16h-187v11q0 5 4 5l69 6q9 1 9 10v215l-243 428q-2 4 -7 5l-45 4q-5 0 -5 4v12h69l244 -426l218 386q4 6 1 11.5t-10 6.5l-83 7q-4 0 -4 5v10h181v-16z" />
    <glyph glyph-name="Z" unicode="Z" horiz-adv-x="582" 
d="M538 683l-469 -666h441q9 0 10 9l7 86h15v-107q0 -5 -5 -5h-497v17l468 666h-410q-9 0 -10 -9l-6 -86h-16v107q0 5 5 5h467v-17z" />
    <glyph glyph-name="bracketleft" unicode="[" horiz-adv-x="246" 
d="M73 700v-810h143v-17h-166v844h166v-17h-143z" />
    <glyph glyph-name="backslash" unicode="\" horiz-adv-x="363" 
d="M333 -118h-25l-278 860h25z" />
    <glyph glyph-name="bracketright" unicode="]" horiz-adv-x="246" 
d="M196 717v-844h-166v17h143v810h-143v17h166z" />
    <glyph glyph-name="asciicircum" unicode="^" horiz-adv-x="467" 
d="M417 396h-20l-163 287l-164 -287h-20l173 304h21z" />
    <glyph glyph-name="underscore" unicode="_" horiz-adv-x="591" 
d="M541 -78h-491v17h491v-17z" />
    <glyph glyph-name="grave" unicode="`" horiz-adv-x="228" 
d="M178 582h-22l-106 135h28z" />
    <glyph glyph-name="a" unicode="a" horiz-adv-x="561" 
d="M256 510q69 0 113 -40t44 -127v-312q0 -9 9 -10l74 -6v-15h-97q-5 0 -5 5v60q-66 -75 -176 -75q-72 0 -115 35t-43 92q0 55 35 82t123 51l176 47v46q0 81 -38 117t-100 36q-69 -1 -138 -39q-3 -2 -4 -7l-8 -93h-14v100q0 2 2 3q77 49 162 50zM394 282l-171 -46
q-82 -22 -113 -46t-31 -73q0 -52 37.5 -82.5t101.5 -30.5q109 0 172 83l4 5v190z" />
    <glyph glyph-name="b" unicode="b" horiz-adv-x="633" 
d="M70 746l82 4q6 0 6 -5v-308q66 73 175 73q108 0 174 -71.5t66 -188.5q0 -67 -20 -117.5t-55.5 -81.5t-81 -46t-100.5 -15q-85 0 -177 34v695q0 9 -10 10l-59 3v14zM333 496q-115 0 -175 -86v-377q83 -29 158 -29q107 0 172.5 60.5t65.5 185.5q0 112 -60.5 179t-160.5 67z
" />
    <glyph glyph-name="c" unicode="c" horiz-adv-x="504" 
d="M300 510q82 0 141 -42q2 -2 2 -4v-100h-15l-8 95q0 4 -4 6q-50 31 -116 31t-116 -30t-77.5 -86t-27.5 -130q0 -112 60.5 -179t160.5 -67q79 0 137 45l12 -11q-62 -48 -149 -48q-72 0 -126.5 32.5t-84 91.5t-29.5 136q0 117 66 188.5t174 71.5z" />
    <glyph glyph-name="d" unicode="d" horiz-adv-x="654" 
d="M408 746l83 4q5 0 5 -5v-714q0 -9 9 -10l74 -6v-15h-97q-5 0 -5 5v60q-66 -75 -177 -75q-108 0 -174 71.5t-66 188.5t66 188.5t174 71.5q111 0 177 -75v283q0 10 -10 11l-59 3v14zM300 496q-66 0 -116 -30t-77.5 -86t-27.5 -130q0 -112 60.5 -179t160.5 -67q116 0 177 88
v316q-61 88 -177 88z" />
    <glyph glyph-name="e" unicode="e" horiz-adv-x="550" 
d="M284 510q105 0 156.5 -64.5t54.5 -180.5v-4q0 -11 -10 -11h-406q0 -112 56.5 -179t148.5 -67q112 0 175 68l14 -10q-20 -21 -47 -37t-64 -25.5t-78 -9.5q-101 0 -162.5 71.5t-61.5 188.5t61.5 188.5t162.5 71.5zM284 496q-89 0 -145 -63t-60 -169h391q6 0 6 6
q-8 226 -192 226z" />
    <glyph glyph-name="f" unicode="f" horiz-adv-x="416" 
d="M299 750q63 -1 117 -36l-11 -12q-50 33 -106 34q-58 0 -97 -35.5t-39 -101.5v-99h154v-14l-154 -8v-447q0 -9 9 -10l78 -6v-15h-171v10q0 5 4 5l52 5q9 1 9 10v449l-64 3q-5 0 -5 5v13h69v99q0 72 45 111.5t110 39.5z" />
    <glyph glyph-name="g" unicode="g" horiz-adv-x="566" 
d="M501 499l-119 -10q41 -20 64 -57.5t23 -86.5q0 -75 -50 -120.5t-134 -45.5q-42 0 -77 13q-37 -8 -57 -24.5t-19 -37.5q0 -37 37 -53t112 -16q102 0 161 -34t59 -108q0 -63 -61 -103t-157 -40t-157 40t-61 103q0 46 35.5 82t97.5 53q-85 17 -85 76q0 16 8.5 29.5t25 24
t40.5 17.5q-41 20 -63.5 57.5t-22.5 86.5t22.5 86.5t64.5 58t97 20.5h216v-11zM285 496q-76 0 -120.5 -41t-44.5 -110.5t44.5 -110.5t120.5 -41t120.5 41t44.5 110.5t-44.5 110.5t-120.5 41zM238 49l-14 -3q-33 -7 -59 -19t-44 -28t-27.5 -36.5t-9.5 -43.5q0 -59 54 -94
t145 -35t145 35t54 94q0 128 -201 128q-23 0 -43 2z" />
    <glyph glyph-name="h" unicode="h" horiz-adv-x="704" 
d="M80 746l82 4q6 0 6 -5v-311q127 76 232 76q35 0 63 -10t49 -29.5t32.5 -52t11.5 -75.5v-312q0 -9 9 -10l74 -6v-15h-97q-5 0 -5 5v338q0 79 -36.5 116t-100.5 37q-103 0 -232 -80v-385q0 -9 9 -10l74 -6v-15h-171v11q0 4 5 4l55 5q9 1 9 10v688q0 10 -10 11l-59 3v14z
" />
    <glyph glyph-name="i" unicode="i" horiz-adv-x="330" 
d="M158.5 700q7.5 0 13 -5.5t5.5 -13.5t-5.5 -13.5t-13 -5.5t-13.5 5.5t-6 13.5t6 13.5t13.5 5.5zM80 500l82 4q6 1 6 -5v-468q0 -9 9 -10l78 -6v-15h-175v11q0 4 5 4l55 5q9 1 9 10v443q0 9 -10 10l-59 3v14z" />
    <glyph glyph-name="j" unicode="j" horiz-adv-x="247" 
d="M153 700q8 0 13.5 -5.5t5.5 -13.5t-5.5 -13.5t-13.5 -5.5t-13.5 5.5t-5.5 13.5t5.5 13.5t13.5 5.5zM75 500l82 4q6 1 6 -5v-602q0 -40 -26 -63.5t-69 -23.5q-42 0 -68 22l12 11q21 -19 56 -19t55.5 19.5t20.5 53.5v576q0 9 -10 10l-59 3v14z" />
    <glyph glyph-name="k" unicode="k" horiz-adv-x="595" 
d="M80 745l82 5q6 0 6 -5v-503l270 225q4 3 2.5 7.5t-6.5 5.5l-62 5q-5 0 -5 5v10h171v-15l-64 -6l-196 -163l232 -294q1 -1 3 -2l62 -5v-15h-67q-4 0 -7 3l-237 301l-96 -80v-193q0 -9 9 -10l78 -6v-15h-171v10q0 5 4 5l52 5q9 1 9 10v688q0 10 -10 10l-59 3v14z" />
    <glyph glyph-name="l" unicode="l" horiz-adv-x="320" 
d="M80 745l82 5q6 0 6 -5v-714q0 -9 9 -10l78 -6v-15h-171v10q0 5 4 5l52 5q9 1 9 10v688q0 10 -10 10l-59 3v14z" />
    <glyph glyph-name="m" unicode="m" horiz-adv-x="1040" 
d="M745 510q67 0 107 -41t40 -126v-312q0 -9 9 -10l74 -6v-15h-97q-5 0 -5 5v338q0 79 -34.5 116t-93.5 37q-98 0 -226 -86q8 -29 8 -67v-312q0 -9 9 -10l75 -6v-15h-98q-5 0 -5 5v338q0 79 -34 116t-94 37q-94 0 -217 -80v-385q0 -9 9 -10l74 -6v-15h-171v11q0 4 5 4l55 5
q9 1 9 10v443q0 9 -10 10l-59 3v14l82 4q6 1 6 -5v-65q121 76 217 76q101 0 134 -84q128 84 231 84z" />
    <glyph glyph-name="n" unicode="n" horiz-adv-x="699" 
d="M395 510q72 0 114 -41t42 -126v-312q0 -9 9 -10l74 -6v-15h-97q-5 0 -5 5v338q0 79 -36.5 116t-100.5 37q-103 0 -232 -80v-385q0 -9 9 -10l74 -6v-15h-171v11q0 4 5 4l55 5q9 1 9 10v443q0 9 -10 10l-59 3v14l82 4q6 1 6 -5v-65q127 76 232 76z" />
    <glyph glyph-name="o" unicode="o" 
d="M300 510q108 0 174 -71.5t66 -188.5t-66 -188.5t-174 -71.5q-72 0 -126.5 32.5t-84 91.5t-29.5 136q0 117 66 188.5t174 71.5zM300 496q-100 0 -160.5 -67t-60.5 -179t60.5 -179t160.5 -67t160.5 67t60.5 179q0 74 -27.5 130t-77.5 86t-116 30z" />
    <glyph glyph-name="p" unicode="p" horiz-adv-x="659" 
d="M359 510q109 0 174.5 -71.5t65.5 -188.5t-65.5 -188.5t-174.5 -71.5q-110 0 -177 75v-224q0 -10 10 -10l74 -6v-15h-169v10q0 5 5 5l52 5q9 2 9 10v630q0 9 -9 10l-60 3v14l83 4q5 1 5 -5v-61q67 75 177 75zM359 496q-116 0 -177 -88v-316q61 -88 177 -88q100 0 160.5 67
t60.5 179t-60.5 179t-160.5 67z" />
    <glyph glyph-name="q" unicode="q" horiz-adv-x="638" 
d="M317 510q85 0 177 -34v-636q0 -8 9 -10l60 -5v-15h-171v10q0 5 4 5l70 6q9 0 9 10v222q-66 -73 -175 -73q-108 0 -174 71.5t-66 188.5q0 67 20 117.5t55.5 81.5t81 46t100.5 15zM317 496q-107 0 -172.5 -60.5t-65.5 -185.5q0 -112 60.5 -179t160.5 -67q115 0 175 86v377
q-83 29 -158 29z" />
    <glyph glyph-name="r" unicode="r" horiz-adv-x="412" 
d="M325 501q26 6 51 8q6 1 6 -5v-97h-15l-6 75q-1 12 -12 9q-11 -2 -22 -5q-74 -20 -164 -91v-364q0 -9 9 -10l74 -6v-15h-171v10q0 5 5 5l55 5q9 1 9 10v443q0 9 -10 10l-59 3v14l82 4q6 1 6 -5v-84q86 66 162 86z" />
    <glyph glyph-name="s" unicode="s" horiz-adv-x="442" 
d="M251 510q65 0 111 -25q3 -1 3 -4v-100h-15l-8 92q0 5 -5 7q-36 16 -86 16q-69 0 -110.5 -27.5t-41.5 -70.5q0 -41 23.5 -64.5t109.5 -66.5q89 -45 117 -73t28 -71q0 -58 -54.5 -95.5t-139.5 -37.5q-67 0 -116 23q-2 1 -2 4v99h15l7 -90q1 -6 6 -8q39 -14 90 -14
q80 0 127.5 32.5t47.5 86.5q0 40 -24.5 64.5t-110.5 67.5q-91 45 -117 71.5t-26 71.5q0 49 47 80.5t124 31.5z" />
    <glyph glyph-name="t" unicode="t" horiz-adv-x="369" 
d="M138 500h146v-14l-146 -8v-403q0 -35 20 -54t56 -19q49 0 68 37l17 -6q-23 -45 -85 -45q-44 0 -69.5 23.5t-25.5 63.5v404l-64 3q-5 0 -5 5v13h69v125l19 1v-126z" />
    <glyph glyph-name="u" unicode="u" horiz-adv-x="689" 
d="M65 500h97q5 0 5 -5v-338q0 -79 36.5 -116t100.5 -37q103 0 232 80v385q0 9 -9 10l-74 6v15h97q5 0 5 -5v-468q0 -10 10 -10l59 -3v-14l-82 -5q-6 0 -6 6v65q-127 -76 -232 -76q-71 0 -113.5 41t-42.5 126v312q0 9 -9 10l-74 6v15z" />
    <glyph glyph-name="v" unicode="v" horiz-adv-x="563" 
d="M533 485l-60 -5l-191 -480h-17l-189 475q-2 5 -7 6l-35 3q-4 1 -4 5v11h56l190 -477l175 440q1 4 0.5 7.5t-3.5 5.5t-7 3l-74 6q-5 0 -5 5v10h171v-15z" />
    <glyph glyph-name="w" unicode="w" horiz-adv-x="855" 
d="M835 485l-56 -5l-174 -480h-17l-165 456l-166 -456h-16l-172 475q-2 5 -8 6l-37 3q-4 1 -4 5v11h59l172 -475l159 438q2 6 -1 10.5t-9 4.5l-78 7q-5 0 -5 5v10h109l172 -475l159 438q2 6 -1 10.5t-9 4.5l-79 7q-4 0 -4 5v10h171v-15z" />
    <glyph glyph-name="x" unicode="x" horiz-adv-x="518" 
d="M485 485l-51 -4l-167 -226l172 -231q3 -3 6 -3l53 -6v-15h-62q-2 0 -3 2l-180 240l-162 -219l101 -8v-15h-172v10q0 5 5 5l41 4q4 0 6 3l172 232l-166 222q-2 3 -5 3l-49 5q-4 1 -4 5v11h64l174 -233l149 201q2 3 0.5 6.5t-5.5 3.5l-84 7q-5 0 -5 5v10h172v-15z" />
    <glyph glyph-name="y" unicode="y" horiz-adv-x="548" 
d="M528 485l-57 -5l-266 -667q-1 -3 -4 -3h-99v15l90 7q6 0 8 6l62 157h-5l-191 480q-2 5 -7 6l-35 3q-4 1 -4 5v11h56l194 -487l179 450q2 6 -1 10.5t-9 4.5l-77 7q-5 0 -5 5v10h171v-15z" />
    <glyph glyph-name="z" unicode="z" horiz-adv-x="503" 
d="M432 486l-344 -472h319q9 0 10 9l6 79h15v-97q0 -5 -5 -5h-368v14l344 472h-297q-9 0 -10 -9l-6 -79h-15v97q0 5 5 5h346v-14z" />
    <glyph glyph-name="braceleft" unicode="{" horiz-adv-x="307" 
d="M256 729q10 0 21 -1l-3 -17q-10 1 -18 1q-47 0 -77 -28t-30 -83v-223q0 -29 -15 -49.5t-40 -31.5q25 -10 40 -31t15 -50v-223q0 -54 30.5 -82.5t76.5 -28.5q4 0 18 2l3 -17q-14 -2 -21 -2q-55 0 -93 33.5t-38 94.5v223q0 34 -21.5 53t-52.5 20v17q31 0 52.5 19t21.5 53
v223q0 61 38 94.5t93 33.5z" />
    <glyph glyph-name="bar" unicode="|" horiz-adv-x="123" 
d="M73 -190h-23v940h23v-940z" />
    <glyph glyph-name="braceright" unicode="}" horiz-adv-x="307" 
d="M51 729q55 0 93 -33.5t38 -94.5v-223q0 -34 21.5 -53t52.5 -19v-17q-31 0 -52.5 -19t-21.5 -54v-223q0 -61 -38 -94.5t-93 -33.5q-7 0 -21 2l3 17q14 -2 18 -2q46 0 76.5 28.5t30.5 82.5v223q0 29 15 50t40 31q-25 11 -40 31.5t-15 49.5v223q0 55 -30.5 83t-76.5 28
q-8 0 -18 -1l-3 17q11 1 21 1z" />
    <glyph glyph-name="asciitilde" unicode="~" horiz-adv-x="546" 
d="M160 331q15 1 37 -6.5t33.5 -13t42.5 -21.5q82 -42 127 -40q55 3 73 55l23 -6q-7 -18 -21 -32.5t-33.5 -23.5t-40.5 -10q-53 -2 -139 42q-3 2 -9 5q-69 35 -92 34q-53 -2 -90 -73l-21 8q41 79 110 82z" />
    <glyph glyph-name="exclamdown" unicode="&#xa1;" horiz-adv-x="138" 
d="M69 510q5 0 9.5 -2.5t7 -7t2.5 -9.5q0 -8 -5.5 -13.5t-13.5 -5.5t-13.5 5.5t-5.5 13.5t5.5 13.5t13.5 5.5zM80 -195h-22l2 489h18z" />
    <glyph glyph-name="cent" unicode="&#xa2;" horiz-adv-x="504" 
d="M437 49l12 -11q-59 -46 -141 -48v-71h-19v71q-104 4 -166.5 75t-62.5 185t62.5 185t166.5 75v71h19v-71q77 -2 133 -42q2 -2 2 -4v-100h-15l-8 95q0 4 -4 6q-50 31 -116 31q-100 0 -160.5 -67t-60.5 -179t60.5 -179t160.5 -67q79 0 137 45z" />
    <glyph glyph-name="sterling" unicode="&#xa3;" horiz-adv-x="481" 
d="M302 710q73 0 136 -31q3 -1 3 -4v-109h-16l-8 97q0 6 -5 8q-52 22 -110 22q-27 0 -52 -5t-47.5 -16t-39.5 -27.5t-28 -39.5t-14 -52q-3 -32 6.5 -62t23 -51t30.5 -51t25 -57h202v-17h-197q5 -22 5 -47q0 -34 -13 -73t-36 -81t-61 -97h335v-17h-361v17q58 83 85 142
t27 109q0 24 -6 47h-106v17h100q-8 23 -25 53t-30 51.5t-22 53t-5 65.5q7 76 65.5 115.5t138.5 39.5z" />
    <glyph glyph-name="currency" unicode="&#xa4;" 
 />
    <glyph glyph-name="yen" unicode="&#xa5;" horiz-adv-x="676" 
d="M646 684l-54 -5l-175 -312h148v-17h-158l-54 -97v-59h212v-17h-212v-145q0 -9 9 -10l73 -6v-16h-187v11q0 5 4 5l69 6q9 1 9 10v145h-209v17h209v53l-59 103h-150v17h141l-175 308q-2 4 -7 5l-45 4q-5 0 -5 4v12h69l244 -426l218 386q4 6 1 11.5t-10 6.5l-83 7q-4 0 -4 5
v10h181v-16z" />
    <glyph glyph-name="brokenbar" unicode="&#xa6;" horiz-adv-x="123" 
d="M73 354h-23v396h23v-396zM73 -190h-23v396h23v-396z" />
    <glyph glyph-name="section" unicode="&#xa7;" horiz-adv-x="458" 
d="M252 709q75 0 125 -31q2 -1 2 -3v-110h-16l-8 100q0 4 -4 7q-41 20 -99 20q-77 0 -122.5 -31t-45.5 -82q0 -33 11 -53t42 -41.5t101 -56.5q105 -52 137.5 -85t32.5 -83q0 -34 -17 -63t-47.5 -50t-71.5 -32q82 -43 109 -73.5t27 -76.5q0 -33 -16 -61.5t-44.5 -49
t-68.5 -32.5t-87 -12q-87 0 -140 33q-2 2 -2 3v110h16l7 -99q1 -5 5 -7q47 -23 114 -23q87 0 139.5 38t52.5 100q0 46 -28.5 74.5t-128.5 77.5q-74 37 -108 61t-46.5 46.5t-12.5 59.5q0 52 45.5 87.5t121.5 41.5q-74 37 -108 60.5t-46.5 46.5t-12.5 59q0 38 23.5 67t67.5 46
t101 17zM259 397h-7q-77 0 -122.5 -31.5t-45.5 -81.5q0 -34 11 -54t42 -41.5t101 -55.5l11 -6q63 11 99 46.5t36 86.5q0 43 -23.5 69.5t-101.5 67.5z" />
    <glyph glyph-name="dieresis" unicode="&#xa8;" horiz-adv-x="272" 
d="M69 655q8 0 13.5 -5.5t5.5 -13.5t-5.5 -13.5t-13.5 -5.5t-13.5 5.5t-5.5 13.5t5.5 13.5t13.5 5.5zM203 655q5 0 9.5 -2.5t7 -7t2.5 -9.5q0 -8 -5.5 -13.5t-13.5 -5.5t-13.5 5.5t-5.5 13.5t5.5 13.5t13.5 5.5z" />
    <glyph glyph-name="copyright" unicode="&#xa9;" horiz-adv-x="820" 
d="M410 710q73 0 139.5 -28.5t115 -76.5t77 -115t28.5 -140q0 -98 -48.5 -181t-131 -131t-180.5 -48t-181 48t-131 131t-48 181q0 73 28.5 140t76.5 115t115 76.5t140 28.5zM410 693q-91 0 -168.5 -45.5t-122.5 -124.5t-45 -173t45 -173t122.5 -124.5t168.5 -45.5t168 45.5
t122.5 124.5t45.5 173t-45.5 173t-122.5 124.5t-168 45.5zM411 541q64 0 109 -33q1 -1 1 -3v-58h-18l-4 52q0 4 -4 6q-36 23 -84 23q-71 0 -114 -48t-43 -130t43 -130t114 -48q60 0 107 40l13 -11q-48 -42 -120 -42q-81 0 -130.5 53t-49.5 138q0 42 13 77.5t36.5 60.5t57 39
t73.5 14z" />
    <glyph glyph-name="ordfeminine" unicode="&#xaa;" horiz-adv-x="370" 
d="M172 706q27 0 48.5 -9.5t35.5 -33.5t14 -60v-189q0 -4 3 -4l47 -4v-12h-61q-7 0 -7 5v29q-40 -40 -103 -40q-45 0 -72 21.5t-27 57.5q0 33 22 50t76 31l104 28v27q0 92 -80 92q-41 -1 -82 -24q-1 0 -1 -3l-5 -58h-15v62q0 2 3 4q47 30 100 30zM252 564l-100 -27
q-48 -13 -66 -27t-18 -43q0 -32 21.5 -50t59.5 -18q64 0 101 50l2 3v112z" />
    <glyph glyph-name="guillemotleft" unicode="&#xab;" horiz-adv-x="440" 
d="M211 426l-137 -174l137 -175h-20l-141 175l141 174h20zM273 252l137 -175h-20l-141 175l141 174h20z" />
    <glyph glyph-name="logicalnot" unicode="&#xac;" horiz-adv-x="700" 
 />
    <glyph glyph-name="registered" unicode="&#xae;" horiz-adv-x="820" 
d="M410 710q73 0 139.5 -28.5t115 -76.5t77 -115t28.5 -140q0 -98 -48.5 -181t-131 -131t-180.5 -48t-181 48t-131 131t-48 181q0 73 28.5 140t76.5 115t115 76.5t140 28.5zM410 693q-91 0 -168.5 -45.5t-122.5 -124.5t-45 -173t45 -173t122.5 -124.5t168.5 -45.5t168 45.5
t122.5 124.5t45.5 173t-45.5 173t-122.5 124.5t-168 45.5zM258 537h153q49 0 79.5 -26t30.5 -69q0 -41 -28.5 -67t-76.5 -28l100 -163q2 -4 7 -5l33 -2v-12h-49q-2 0 -4 2l-111 180h-69v-157q0 -9 9 -10l41 -3v-12h-115v7q0 5 5 5l29 2q9 1 9 10v324q0 9 -9 10l-29 2
q-5 0 -5 5v7zM323 521v-161h88q41 0 64 21.5t23 60.5t-23 60.5t-64 21.5h-50z" />
    <glyph glyph-name="macron" unicode="&#xaf;" horiz-adv-x="346" 
d="M296 617h-246v17h246v-17z" />
    <glyph glyph-name="degree" unicode="&#xb0;" horiz-adv-x="317" 
d="M159 744q45 0 76.5 -32t31.5 -77t-31.5 -76.5t-76.5 -31.5t-77 31.5t-32 76.5t32 77t77 32zM159 727q-35 0 -60 -26.5t-25 -65.5q0 -26 11.5 -47t31 -32.5t42.5 -11.5q35 0 59.5 26t24.5 65t-24.5 65.5t-59.5 26.5z" />
    <glyph glyph-name="plusminus" unicode="&#xb1;" horiz-adv-x="500" 
d="M258 354h192v-17h-192v-191h-17v191h-191v17h191v191h17v-191zM450 0h-400v17h400v-17z" />
    <glyph glyph-name="twosuperior" unicode="&#xb2;" horiz-adv-x="287" 
d="M141 746q29 0 53.5 -10.5t35.5 -29.5q42 -69 -59 -207q-34 -47 -122 -138h166q9 0 9 10l4 45h19v-69h-227v11q0 1 1 2q94 97 131 148q95 129 58 190q-20 33 -69 33q-31 0 -56 -15.5t-35 -47.5l-23 5q10 33 43.5 53t70.5 20z" />
    <glyph glyph-name="threesuperior" unicode="&#xb3;" horiz-adv-x="316" 
d="M146 746q22 0 42.5 -6.5t36 -18.5t25 -30.5t9.5 -42.5q0 -15 -5 -29.5t-13.5 -25.5t-21.5 -20t-29 -14q36 -11 56 -38.5t20 -65.5t-19 -64.5t-47.5 -38t-62.5 -11.5q-60 0 -107 31l12 13q45 -29 95 -29q46 0 75.5 24t29.5 75q0 46 -27 71.5t-76 25.5h-39v15h39
q30 0 51.5 9.5t33 28t11.5 43.5q0 41 -25 62t-64 21q-40 0 -75 -22q-4 -2 -4 -7l-4 -58h-19v65q0 3 2 4q44 33 100 33z" />
    <glyph glyph-name="acute" unicode="&#xb4;" horiz-adv-x="228" 
d="M72 582h-22l100 135h28z" />
    <glyph glyph-name="paragraph" unicode="&#xb6;" horiz-adv-x="535" 
d="M485 684l-72 -6q-9 0 -9 -10v-747h-23v762h-115v-762h-105v11q0 5 4 5l69 6q9 2 9 10v383q-88 2 -140.5 51.5t-52.5 130.5t52.5 130.5t140.5 51.5h242v-16z" />
    <glyph glyph-name="periodcentered" unicode="&#xb7;" horiz-adv-x="138" 
d="M69 328q8 0 13.5 -5.5t5.5 -13.5t-5.5 -13.5t-13.5 -5.5t-13.5 5.5t-5.5 13.5t5.5 13.5t13.5 5.5z" />
    <glyph glyph-name="cedilla" unicode="&#xb8;" horiz-adv-x="237" 
d="M128 5l-20 -64q5 0 16 -2q27 -5 45 -24t18 -44q0 -29 -24 -49t-57 -20q-34 0 -56 20l6 17q23 -20 51 -20q14 0 26 6t20.5 18t9.5 28q0 19 -10 31t-22.5 16.5t-28.5 5.5q-8 0 -20 -2l28 88z" />
    <glyph glyph-name="onesuperior" unicode="&#xb9;" horiz-adv-x="206" 
d="M108 740v-367q0 -9 10 -10l38 -3v-14h-118v9q0 5 5 5l33 3q9 1 9 10v331q0 5 -3 6.5t-7 -0.5l-48 -33l-12 12l73 51h20z" />
    <glyph glyph-name="ordmasculine" unicode="&#xba;" horiz-adv-x="397" 
d="M198.5 706q66.5 0 107.5 -44t41 -115t-41 -115t-107.5 -44t-107.5 44t-41 115t41 115t107.5 44zM198 695q-59 0 -94.5 -40t-35.5 -107.5t35.5 -107.5t95 -40t95 40t35.5 107q0 45 -16 78.5t-45.5 51.5t-69.5 18z" />
    <glyph glyph-name="guillemotright" unicode="&#xbb;" horiz-adv-x="440" 
d="M50 426l141 -174l-141 -175h-20l137 175l-137 174h20zM390 252l-141 -175h-20l137 175l-137 174h20z" />
    <glyph glyph-name="onequarter" unicode="&#xbc;" horiz-adv-x="731" 
d="M203 -17h-26l361 734h25zM143 700v-367q0 -9 10 -10l38 -3v-14h-118v9q0 5 5 5l33 3q9 1 9 10v331q0 5 -3 6.5t-7 -0.5l-48 -33l-12 12l73 51h20zM453 110h147v176q0 5 5 5h18v-181h58v-15h-58v-68q0 -9 9 -10l38 -3v-14h-117v9q0 5 4 5l33 3q10 1 10 10v68h-173v12
l137 287h24z" />
    <glyph glyph-name="onehalf" unicode="&#xbd;" horiz-adv-x="779" 
d="M203 -17h-26l361 734h25zM143 700v-367q0 -9 10 -10l38 -3v-14h-118v9q0 5 5 5l33 3q9 1 9 10v331q0 4 -3 6t-7 -1l-48 -32l-12 12l73 51h20zM624 399q28 0 52.5 -10.5t35.5 -29.5q43 -69 -58 -206q-35 -47 -123 -138h166q9 0 10 9l3 45h19v-69h-227v11q0 1 1 3
q94 96 132 147q94 129 57 190q-20 34 -68 34q-21 0 -38.5 -6.5t-32 -21t-21.5 -36.5l-23 5q10 34 43.5 53.5t71.5 19.5z" />
    <glyph glyph-name="threequarters" unicode="&#xbe;" horiz-adv-x="782" 
d="M249 -17h-25l360 734h25zM166 706q30 0 55.5 -10.5t41.5 -33.5t16 -54t-18.5 -54.5t-50.5 -34.5q36 -11 56 -38.5t20 -65.5q0 -56 -37.5 -85t-91.5 -29q-60 0 -107 31l12 13q45 -29 95 -29q30 0 52.5 9t37.5 32t15 58q0 23 -7 41.5t-20.5 30.5t-32.5 18.5t-43 6.5h-39v15
h39q45 0 70.5 21t25.5 60q0 41 -25 62t-64 21q-40 0 -75 -22q-4 -2 -4 -7l-4 -58h-19v65q0 3 2 4q44 33 100 33zM505 110h146v176q0 5 5 5h18v-181h58v-15h-58v-68q0 -9 9 -10l38 -3v-14h-117v9q0 5 5 5l33 3q9 1 9 10v68h-172v12l136 287h25z" />
    <glyph glyph-name="questiondown" unicode="&#xbf;" horiz-adv-x="422" 
d="M353 510q8 0 13.5 -5.5t5.5 -13.5t-5.5 -13.5t-13.5 -5.5t-13.5 5.5t-5.5 13.5t5.5 13.5t13.5 5.5zM365 294v-56q0 -42 -26.5 -70.5t-110.5 -72.5q-70 -37 -101.5 -60t-42 -44.5t-10.5 -57.5q0 -54 45.5 -87.5t122.5 -33.5q61 0 103 25l8 104h16v-112q-50 -34 -127 -34
q-86 0 -139 39t-53 99q0 39 12 63t46.5 49.5t108.5 64.5q79 42 101.5 65.5t22.5 62.5v56h24z" />
    <glyph glyph-name="Agrave" unicode="&#xc0;" horiz-adv-x="749" 
d="M397 782h-22l-106 135h28zM663 21l56 -5v-16h-181v10q0 5 4 5l79 7q6 0 8.5 5t0.5 11l-77 185h-363l-82 -200l93 -7v-16h-171v11q0 5 5 5l46 5q5 0 7 5l279 673l15 1zM197 240h349l-174 421z" />
    <glyph glyph-name="Aacute" unicode="&#xc1;" horiz-adv-x="749" 
d="M375 782h-22l100 135h28zM663 21l56 -5v-16h-181v10q0 5 4 5l79 7q6 0 8.5 5t0.5 11l-77 185h-363l-82 -200l93 -7v-16h-171v12q0 4 5 4l46 5q5 0 7 5l279 673l15 1zM197 240h349l-174 421z" />
    <glyph glyph-name="Acircumflex" unicode="&#xc2;" horiz-adv-x="749" 
d="M489 782h-22l-92 117l-92 -117h-22l100 135h28zM663 21l56 -5v-16h-181v10q0 5 4 5l79 7q6 0 8.5 5t0.5 11l-77 185h-363l-82 -200l93 -7v-16h-171v12q0 4 5 4l46 5q5 0 7 5l279 673l15 1zM197 240h349l-174 421z" />
    <glyph glyph-name="Atilde" unicode="&#xc3;" horiz-adv-x="749" 
d="M470 858l24 -6q-7 -22 -22.5 -37t-35.5 -17q-28 -2 -68 19q-6 3 -17 9t-17 9.5t-13.5 6.5t-12.5 3q-9 1 -16 -8.5t-12 -35.5l-23 4q13 58 52 56q8 0 18.5 -4t17.5 -7.5t19 -10t16 -8.5q35 -18 53 -17q25 3 37 44zM663 21l56 -5v-16h-181v10q0 5 4 5l79 7q6 0 8.5 5
t0.5 11l-77 185h-363l-82 -200l93 -7v-16h-171v11q0 5 5 5l46 5q5 0 7 5l279 673l15 1zM197 240h349l-174 421z" />
    <glyph glyph-name="Adieresis" unicode="&#xc4;" horiz-adv-x="749" 
d="M308 855q8 0 13.5 -5.5t5.5 -13.5t-5.5 -13.5t-13.5 -5.5t-13.5 5.5t-5.5 13.5q0 5 2.5 9.5t7 7t9.5 2.5zM442 855q8 0 13.5 -5.5t5.5 -13.5t-5.5 -13.5t-13.5 -5.5q-5 0 -9.5 2.5t-7 7t-2.5 9.5q0 8 5.5 13.5t13.5 5.5zM663 21l56 -5v-16h-181v10q0 5 4 5l79 7
q6 0 8.5 5t0.5 11l-77 185h-363l-82 -200l93 -7v-16h-171v12q0 4 5 4l46 5q5 0 7 5l279 673l15 1zM197 240h349l-174 421z" />
    <glyph glyph-name="Aring" unicode="&#xc5;" horiz-adv-x="749" 
d="M375 934q37 0 63 -26t26 -63t-26 -63t-63 -26t-63 26t-26 63t26 63t63 26zM375 917q-27 0 -46 -20.5t-19 -51.5t19 -51.5t46 -20.5t46 20.5t19 51.5q0 21 -9 37.5t-24 25.5t-32 9zM663 21l56 -5v-16h-181v10q0 5 4 5l79 7q6 0 8.5 5t0.5 11l-77 185h-363l-82 -200l93 -7
v-16h-171v11q0 5 5 5l46 5q5 0 7 5l279 673l15 1zM197 240h349l-174 421z" />
    <glyph glyph-name="AE" unicode="&#xc6;" horiz-adv-x="776" 
d="M368 700h353q5 0 5 -5v-107h-16l-6 86q-1 9 -10 9h-299v-317h256v-17h-256v-332h319q9 0 10 9l6 86h16v-107q0 -5 -5 -5h-450v11q0 5 4 5l68 6q9 0 9 10v191h-182l-82 -200l93 -7v-16h-171v12q0 4 5 4l46 5q5 0 7 5zM197 240h175v421z" />
    <glyph glyph-name="Ccedilla" unicode="&#xc7;" horiz-adv-x="651" 
d="M392 710q116 0 199 -61q1 -2 1 -4v-110h-15l-8 101q0 4 -4 7q-74 50 -173 50q-139 0 -223.5 -93.5t-84.5 -249.5t84.5 -249.5t223.5 -93.5q120 0 203 73l16 -13q-88 -77 -219 -77q-28 0 -60 5l-18 -54q6 0 17 -2q27 -5 44.5 -24t17.5 -44q0 -29 -23.5 -49t-56.5 -20
q-34 0 -56 20l5 17q24 -20 52 -20q14 0 26 6t20 18t9 28q0 14 -5 24.5t-14.5 16.5t-19.5 9t-22 3q-7 0 -19 -2l24 76q-117 25 -185 119t-68 233q0 162 91 261t241 99z" />
    <glyph glyph-name="Egrave" unicode="&#xc8;" horiz-adv-x="575" 
d="M342 782h-22l-106 135h28zM80 700h430q5 0 5 -5v-107h-16l-6 86q-1 9 -10 9h-299v-317h256v-17h-256v-332h319q9 0 10 9l6 86h16v-107q0 -5 -5 -5h-450v11q0 5 5 5l67 6q9 0 9 10v636q0 10 -9 10l-67 6q-5 0 -5 5v11z" />
    <glyph glyph-name="Eacute" unicode="&#xc9;" horiz-adv-x="575" 
d="M320 782h-22l100 135h28zM80 700h430q5 0 5 -5v-107h-16l-6 86q-1 9 -10 9h-299v-317h256v-17h-256v-332h319q9 0 10 9l6 86h16v-107q0 -5 -5 -5h-450v11q0 5 5 5l67 6q9 0 9 10v636q0 10 -9 10l-67 6q-5 0 -5 5v11z" />
    <glyph glyph-name="Ecircumflex" unicode="&#xca;" horiz-adv-x="575" 
d="M434 782h-22l-92 117l-92 -117h-22l100 135h28zM80 700h430q5 0 5 -5v-107h-16l-6 86q-1 9 -10 9h-299v-317h256v-17h-256v-332h319q9 0 10 9l6 86h16v-107q0 -5 -5 -5h-450v11q0 5 5 5l67 6q9 0 9 10v636q0 10 -9 10l-67 6q-5 0 -5 5v11z" />
    <glyph glyph-name="Edieresis" unicode="&#xcb;" horiz-adv-x="575" 
d="M253 855q8 0 13.5 -5.5t5.5 -13.5t-5.5 -13.5t-13.5 -5.5q-4 0 -7.5 1.5t-6 4t-4 6t-1.5 7.5q0 8 5.5 13.5t13.5 5.5zM387 855q8 0 13.5 -5.5t5.5 -13.5t-5.5 -13.5t-13.5 -5.5t-13.5 5.5t-5.5 13.5q0 5 2.5 9.5t7 7t9.5 2.5zM80 700h430q5 0 5 -5v-107h-16l-6 86
q-1 9 -10 9h-299v-317h256v-17h-256v-332h319q9 0 10 9l6 86h16v-107q0 -5 -5 -5h-450v11q0 5 5 5l67 6q9 0 9 10v636q0 10 -9 10l-67 6q-5 0 -5 5v11z" />
    <glyph glyph-name="Igrave" unicode="&#xcc;" horiz-adv-x="348" 
d="M196 782h-22l-106 135h28zM268 684l-74 -6q-9 -1 -9 -10v-636q0 -9 9 -10l74 -6v-16h-188v11q0 5 5 5l68 6q9 1 9 10v636q0 9 -9 10l-68 6q-5 0 -5 5v11h188v-16z" />
    <glyph glyph-name="Iacute" unicode="&#xcd;" horiz-adv-x="348" 
d="M174 782h-22l100 135h28zM268 684l-74 -6q-9 -1 -9 -10v-636q0 -9 9 -10l74 -6v-16h-188v11q0 5 5 5l68 6q9 1 9 10v636q0 9 -9 10l-68 6q-5 0 -5 5v11h188v-16z" />
    <glyph glyph-name="Icircumflex" unicode="&#xce;" horiz-adv-x="348" 
d="M288 782h-22l-92 117l-92 -117h-22l100 135h28zM268 684l-74 -6q-9 -1 -9 -10v-636q0 -9 9 -10l74 -6v-16h-188v11q0 5 5 5l68 6q9 1 9 10v636q0 9 -9 10l-68 6q-5 0 -5 5v11h188v-16z" />
    <glyph glyph-name="Idieresis" unicode="&#xcf;" horiz-adv-x="348" 
d="M107 855q8 0 13.5 -5.5t5.5 -13.5t-5.5 -13.5t-13.5 -5.5q-5 0 -9.5 2.5t-7 7t-2.5 9.5q0 8 5.5 13.5t13.5 5.5zM241 855q8 0 13.5 -5.5t5.5 -13.5t-5.5 -13.5t-13.5 -5.5t-13.5 5.5t-5.5 13.5q0 5 2.5 9.5t7 7t9.5 2.5zM268 684l-74 -6q-9 -1 -9 -10v-636q0 -9 9 -10
l74 -6v-16h-188v11q0 5 5 5l68 6q9 1 9 10v636q0 9 -9 10l-68 6q-5 0 -5 5v11h188v-16z" />
    <glyph glyph-name="Eth" unicode="&#xd0;" horiz-adv-x="757" 
d="M80 700h285q151 0 241.5 -95t90.5 -255.5t-90.5 -255t-241.5 -94.5h-285v11q0 5 5 5l67 6q9 0 9 10v309h-111v17h111v310q0 10 -9 10l-67 6q-5 0 -5 5v11zM264 17h101q141 0 224.5 89t83.5 244t-83.5 244t-224.5 89h-101l-80 -7v-318h166v-17h-166v-317z" />
    <glyph glyph-name="Ntilde" unicode="&#xd1;" horiz-adv-x="849" 
d="M520 858l24 -6q-7 -22 -22.5 -37t-35.5 -17q-28 -2 -68 19q-6 3 -17 9t-17 9.5t-13.5 6.5t-12.5 3q-9 1 -16 -8.5t-12 -35.5l-23 4q13 58 52 56q6 0 13.5 -2.5t15.5 -6t14.5 -7t15 -8t12.5 -6.5q35 -18 53 -17q25 3 37 44zM774 684l-72 -6q-9 0 -9 -10v-668h-23l-491 664
v-631q0 -9 9 -10l86 -7v-16h-199v11q0 5 5 5l67 6q9 0 9 10v636q0 10 -9 10l-67 6q-5 0 -5 5v11h104l491 -664v631q0 9 -9 10l-81 7q-4 0 -4 5v11h198v-16z" />
    <glyph glyph-name="Ograve" unicode="&#xd2;" horiz-adv-x="784" 
d="M414 782h-22l-106 135h28zM392 710q99 0 174.5 -45t116.5 -127t41 -188q0 -162 -91 -261t-241 -99t-241 99t-91 261t91 261t241 99zM392.5 693q-139.5 0 -224 -93.5t-84.5 -249.5t84.5 -249.5t224 -93.5t223.5 93.5t84 249.5t-84 249.5t-223.5 93.5z" />
    <glyph glyph-name="Oacute" unicode="&#xd3;" horiz-adv-x="784" 
d="M392 782h-22l100 135h28zM392 710q150 0 241 -99t91 -261t-91 -261t-241 -99t-241 99t-91 261t91 261t241 99zM392.5 693q-139.5 0 -224 -93.5t-84.5 -249.5t84.5 -249.5t224 -93.5t223.5 93.5t84 249.5t-84 249.5t-223.5 93.5z" />
    <glyph glyph-name="Ocircumflex" unicode="&#xd4;" horiz-adv-x="784" 
d="M506 782h-22l-92 117l-92 -117h-22l100 135h28zM392 710q99 0 174.5 -45t116.5 -127t41 -188q0 -162 -91 -261t-241 -99t-241 99t-91 261t91 261t241 99zM392.5 693q-139.5 0 -224 -93.5t-84.5 -249.5t84.5 -249.5t224 -93.5t223.5 93.5t84 249.5t-84 249.5t-223.5 93.5z
" />
    <glyph glyph-name="Otilde" unicode="&#xd5;" horiz-adv-x="784" 
d="M487 858l24 -6q-7 -22 -22.5 -37t-35.5 -17q-28 -2 -68 19q-6 3 -17 9t-17 9.5t-13.5 6.5t-12.5 3q-9 1 -16 -8.5t-12 -35.5l-23 4q13 58 52 56q8 0 18.5 -4t17.5 -7.5t19 -10t16 -8.5q35 -18 53 -17q25 3 37 44zM392 710q150 0 241 -99t91 -261t-91 -261t-241 -99
t-241 99t-91 261t91 261t241 99zM392.5 693q-139.5 0 -224 -93.5t-84.5 -249.5t84.5 -249.5t224 -93.5t223.5 93.5t84 249.5t-84 249.5t-223.5 93.5z" />
    <glyph glyph-name="Odieresis" unicode="&#xd6;" horiz-adv-x="784" 
d="M325 855q8 0 13.5 -5.5t5.5 -13.5t-5.5 -13.5t-13.5 -5.5q-5 0 -9.5 2.5t-7 7t-2.5 9.5q0 8 5.5 13.5t13.5 5.5zM459 855q8 0 13.5 -5.5t5.5 -13.5t-5.5 -13.5t-13.5 -5.5t-13.5 5.5t-5.5 13.5q0 5 2.5 9.5t7 7t9.5 2.5zM392 710q150 0 241 -99t91 -261t-91 -261
t-241 -99t-241 99t-91 261t91 261t241 99zM392.5 693q-139.5 0 -224 -93.5t-84.5 -249.5t84.5 -249.5t224 -93.5t223.5 93.5t84 249.5t-84 249.5t-223.5 93.5z" />
    <glyph glyph-name="multiply" unicode="&#xd7;" horiz-adv-x="395" 
d="M345 426l-136 -136l136 -135l-12 -12l-136 135l-135 -135l-12 12l135 135l-135 136l12 12l135 -135l136 135z" />
    <glyph glyph-name="Oslash" unicode="&#xd8;" horiz-adv-x="784" 
d="M534 750l-20 -61q98 -35 154 -124.5t56 -214.5q0 -162 -91 -261t-241 -99q-53 0 -100 13l-17 -53h-25l20 60q-65 24 -112 71.5t-72.5 116.5t-25.5 152q0 162 91 261t241 99q53 0 100 -14l17 54h25zM84 350q0 -80 23 -145t66 -110t103 -68l211 653q-45 13 -95 13
q-139 0 -223.5 -93.5t-84.5 -249.5zM392 7q140 0 224 93.5t84 249.5q0 79 -23 144.5t-66 110.5t-102 67l-211 -652q44 -13 94 -13z" />
    <glyph glyph-name="Ugrave" unicode="&#xd9;" horiz-adv-x="834" 
d="M439 782h-22l-106 135h28zM759 684l-71 -6q-9 0 -9 -10v-397q0 -126 -71 -203.5t-188.5 -77.5t-188.5 77.5t-71 203.5v397q0 10 -9 10l-66 6q-5 0 -5 5v11h198v-16l-85 -7q-9 -1 -9 -10v-396q0 -121 64.5 -192.5t171.5 -71.5t174.5 72t67.5 192v395q0 9 -9 10l-92 8v16
h198v-16z" />
    <glyph glyph-name="Uacute" unicode="&#xda;" horiz-adv-x="834" 
d="M417 782h-22l100 135h28zM759 684l-71 -6q-9 0 -9 -10v-397q0 -126 -71 -203.5t-188.5 -77.5t-188.5 77.5t-71 203.5v397q0 10 -9 10l-66 6q-5 0 -5 5v11h198v-16l-85 -7q-9 -1 -9 -10v-396q0 -121 64.5 -192.5t171.5 -71.5t174.5 72t67.5 192v395q0 9 -9 10l-92 8v16
h198v-16z" />
    <glyph glyph-name="Ucircumflex" unicode="&#xdb;" horiz-adv-x="834" 
d="M531 782h-22l-92 117l-92 -117h-22l100 135h28zM759 684l-71 -6q-9 0 -9 -10v-397q0 -126 -71 -203.5t-188.5 -77.5t-188.5 77.5t-71 203.5v397q0 10 -9 10l-66 6q-5 0 -5 5v11h198v-16l-85 -7q-9 -1 -9 -10v-396q0 -121 64.5 -192.5t171.5 -71.5t174.5 72t67.5 192v395
q0 9 -9 10l-92 8v16h198v-16z" />
    <glyph glyph-name="Udieresis" unicode="&#xdc;" horiz-adv-x="834" 
d="M350 855q8 0 13.5 -5.5t5.5 -13.5t-5.5 -13.5t-13.5 -5.5q-5 0 -9.5 2.5t-7 7t-2.5 9.5q0 8 5.5 13.5t13.5 5.5zM484 855q8 0 13.5 -5.5t5.5 -13.5t-5.5 -13.5t-13.5 -5.5t-13.5 5.5t-5.5 13.5q0 5 2.5 9.5t7 7t9.5 2.5zM759 684l-71 -6q-9 0 -9 -10v-397
q0 -126 -71 -203.5t-188.5 -77.5t-188.5 77.5t-71 203.5v397q0 10 -9 10l-66 6q-5 0 -5 5v11h198v-16l-85 -7q-9 -1 -9 -10v-396q0 -121 64.5 -192.5t171.5 -71.5t174.5 72t67.5 192v395q0 9 -9 10l-92 8v16h198v-16z" />
    <glyph glyph-name="Yacute" unicode="&#xdd;" horiz-adv-x="676" 
d="M338 782h-22l100 135h28zM646 684l-54 -5l-239 -426v-221q0 -9 9 -10l73 -6v-16h-187v11q0 5 4 5l69 6q9 1 9 10v215l-243 428q-2 4 -7 5l-45 4q-5 0 -5 4v12h69l244 -426l218 386q4 6 1 11.5t-10 6.5l-83 7q-4 0 -4 5v10h181v-16z" />
    <glyph glyph-name="Thorn" unicode="&#xde;" horiz-adv-x="620" 
d="M184 584h176q91 0 145.5 -50t54.5 -132.5t-54.5 -132t-145.5 -49.5h-176v-187q0 -9 9 -10l85 -7v-16h-198v11q0 5 5 5l67 6q9 0 9 10v636q0 10 -9 10l-67 6q-5 0 -5 5v11h104v-116zM184 567v-330h176q81 0 128.5 44t47.5 121t-47.5 121t-128.5 44h-176z" />
    <glyph glyph-name="germandbls" unicode="&#xdf;" horiz-adv-x="644" 
d="M349 750q84 0 134.5 -40.5t50.5 -106.5q0 -39 -18 -63.5t-65 -64.5q-7 -6 -10 -8q-30 -26 -30 -65q0 -44 39 -69q14 -9 41 -25.5t38.5 -24t29.5 -22t25.5 -26t13.5 -29t6 -38.5q0 -80 -62.5 -129t-167.5 -49q-50 0 -93 14v112h15l7 -94q1 -7 8 -8q29 -7 63 -7
q96 0 151 43.5t55 117.5q0 18 -5.5 33.5t-11.5 25.5t-22.5 23.5t-26.5 20.5t-36.5 23t-40.5 25q-50 32 -50 83q0 44 38 78q3 2 9 7q31 26 43.5 38.5t22.5 32.5t10 45q0 60 -43 95t-118 35q-49 0 -85 -17.5t-55.5 -50t-19.5 -76.5v-589h-104v11q0 5 5 5l66 6q9 0 9 10v557
q0 73 50 117t134 44z" />
    <glyph glyph-name="agrave" unicode="&#xe0;" horiz-adv-x="561" 
d="M278 582h-21l-106 135h28zM256 510q33 0 60 -9t49.5 -28t35 -52t12.5 -78v-312q0 -9 9 -10l74 -6v-15h-97q-5 0 -5 5v60q-66 -75 -176 -75q-72 0 -115 35t-43 92q0 55 35 82t123 51l176 47v46q0 81 -38 117t-100 36q-69 -1 -138 -39q-3 -2 -4 -7l-8 -93h-14v100q0 2 2 3
q77 49 162 50zM394 282l-171 -46q-56 -15 -85 -28.5t-44 -35t-15 -55.5q0 -52 37.5 -82.5t101.5 -30.5q109 0 172 83l4 5v190z" />
    <glyph glyph-name="aacute" unicode="&#xe1;" horiz-adv-x="561" 
d="M257 582h-22l100 135h28zM256 510q69 0 113 -40t44 -127v-312q0 -9 9 -10l74 -6v-15h-97q-5 0 -5 5v60q-66 -75 -176 -75q-72 0 -115 35t-43 92q0 23 6 40.5t17.5 30.5t31.5 24t44 19.5t59 18.5l176 47v46q0 81 -38 117t-100 36q-69 -1 -138 -39q-3 -2 -4 -7l-8 -93h-14
v100q0 2 2 3q77 49 162 50zM394 282l-171 -46q-82 -22 -113 -46t-31 -73q0 -52 37.5 -82.5t101.5 -30.5q109 0 172 83l4 5v190z" />
    <glyph glyph-name="acircumflex" unicode="&#xe2;" horiz-adv-x="561" 
d="M370 582h-21l-92 117l-92 -117h-22l100 135h28zM256 510q69 0 113 -40t44 -127v-312q0 -9 9 -10l74 -6v-15h-97q-5 0 -5 5v60q-66 -75 -176 -75q-72 0 -115 35t-43 92q0 55 35 82t123 51l176 47v46q0 81 -38 117t-100 36q-69 -1 -138 -39q-3 -2 -4 -7l-8 -93h-14v100
q0 2 2 3q77 49 162 50zM394 282l-171 -46q-82 -22 -113 -46t-31 -73q0 -52 37.5 -82.5t101.5 -30.5q109 0 172 83l4 5v190z" />
    <glyph glyph-name="atilde" unicode="&#xe3;" horiz-adv-x="561" 
d="M352 658l23 -6q-7 -22 -22 -37t-35 -17q-28 -2 -68 19q-6 3 -17 9t-17.5 9.5t-14 6.5t-12.5 3q-8 1 -15 -8.5t-12 -35.5l-24 4q13 58 53 56q8 0 18.5 -4t17.5 -7.5t19 -10t15 -8.5q35 -18 54 -17q25 3 37 44zM256 510q69 0 113 -40t44 -127v-312q0 -9 9 -10l74 -6v-15
h-97q-5 0 -5 5v60q-66 -75 -176 -75q-72 0 -115 35t-43 92q0 55 35 82t123 51l176 47v46q0 81 -38 117t-100 36q-69 -1 -138 -39q-3 -2 -4 -7l-8 -93h-14v100q0 2 2 3q77 49 162 50zM394 282l-171 -46q-82 -22 -113 -46t-31 -73q0 -52 37.5 -82.5t101.5 -30.5q109 0 172 83
l4 5v190z" />
    <glyph glyph-name="adieresis" unicode="&#xe4;" horiz-adv-x="561" 
d="M190 655q5 0 9.5 -2.5t7 -7t2.5 -9.5q0 -8 -5.5 -13.5t-13.5 -5.5t-13.5 5.5t-5.5 13.5t5.5 13.5t13.5 5.5zM324 655q8 0 13.5 -5.5t5.5 -13.5t-5.5 -13.5t-13.5 -5.5t-13.5 5.5t-5.5 13.5q0 5 2.5 9.5t7 7t9.5 2.5zM256 510q22 0 41 -4t37 -12t32 -21.5t25 -31.5
t16.5 -43t5.5 -55v-312q0 -9 9 -10l74 -6v-15h-97q-5 0 -5 5v60q-66 -75 -176 -75q-72 0 -115 35t-43 92q0 55 35 82t123 51l176 47v46q0 81 -38 117t-100 36q-69 -1 -138 -39q-3 -2 -4 -7l-8 -93h-14v100q0 2 2 3q77 49 162 50zM394 282l-171 -46q-82 -22 -113 -46t-31 -73
q0 -52 37.5 -82.5t101.5 -30.5q109 0 172 83l4 5v190z" />
    <glyph glyph-name="aring" unicode="&#xe5;" horiz-adv-x="561" 
d="M257 734q37 0 63 -26t26 -63t-26 -63t-63 -26t-63 26t-26 63t26 63t63 26zM257 717q-27 0 -46 -20.5t-19 -51.5q0 -20 9 -36.5t23.5 -26t32.5 -9.5q27 0 46 20.5t19 51.5q0 21 -9 37.5t-24 25.5t-32 9zM256 510q69 0 113 -40t44 -127v-312q0 -9 9 -10l74 -6v-15h-97
q-5 0 -5 5v60q-66 -75 -176 -75q-72 0 -115 35t-43 92q0 55 35 82t123 51l176 47v46q0 81 -38 117t-100 36q-69 -1 -138 -39q-3 -2 -4 -7l-8 -93h-14v100q0 2 2 3q77 49 162 50zM394 282l-171 -46q-82 -22 -113 -46t-31 -73q0 -52 37.5 -82.5t101.5 -30.5q109 0 172 83l4 5
v190z" />
    <glyph glyph-name="ae" unicode="&#xe6;" horiz-adv-x="884" 
d="M618 510q71 0 118.5 -31t69 -84.5t23.5 -129.5v-4q1 -11 -10 -11h-405q0 -112 56 -179t148 -67q113 0 176 68l14 -10q-30 -32 -79.5 -52t-110.5 -20q-73 0 -126.5 39t-78.5 108v-51q-46 -54 -89.5 -75t-105.5 -21q-72 0 -115 35t-43 92q0 55 35 82t123 51l176 47v46
q0 81 -38 117t-100 36q-69 -1 -138 -39q-3 -2 -4 -7l-8 -93h-14v100q0 2 2 3q77 49 162 50q65 0 108 -35.5t48 -112.5q25 69 79 108.5t127 39.5zM618 496q-89 0 -144.5 -63t-59.5 -169h391q5 0 5 6q-7 226 -192 226zM394 282l-171 -46q-82 -22 -113 -46t-31 -73
q0 -52 37.5 -82.5t101.5 -30.5q109 0 172 83l4 5v190z" />
    <glyph glyph-name="ccedilla" unicode="&#xe7;" horiz-adv-x="504" 
d="M258 -61q27 -5 44.5 -24t17.5 -44q0 -29 -23.5 -49t-56.5 -20q-34 0 -56 20l5 17q24 -20 52 -20q22 0 38 14t17 38q0 27 -17.5 39.5t-43.5 13.5q-7 0 -19 -2l24 75q-83 19 -131.5 86.5t-48.5 166.5q0 117 66 188.5t174 71.5q82 0 141 -42q2 -2 2 -4v-100h-15l-8 95
q0 4 -4 6q-50 31 -116 31t-116 -30t-77.5 -86t-27.5 -130q0 -112 60.5 -179t160.5 -67q79 0 137 45l12 -11q-62 -48 -149 -48q-22 0 -42 3l-17 -52q6 0 17 -2z" />
    <glyph glyph-name="egrave" unicode="&#xe8;" horiz-adv-x="550" 
d="M297 582h-22l-106 135h28zM284 510q105 0 156.5 -64.5t54.5 -180.5v-4q0 -11 -10 -11h-406q0 -112 56.5 -179t148.5 -67q112 0 175 68l14 -10q-30 -32 -79 -52t-110 -20q-101 0 -162.5 71.5t-61.5 188.5q0 77 27.5 136t78.5 91.5t118 32.5zM284 496q-89 0 -145 -63
t-60 -169h391q6 0 6 6q-8 226 -192 226z" />
    <glyph glyph-name="eacute" unicode="&#xe9;" horiz-adv-x="550" 
d="M275 582h-22l100 135h28zM284 510q105 0 156.5 -64.5t54.5 -180.5v-4q0 -11 -10 -11h-406q0 -112 56.5 -179t148.5 -67q112 0 175 68l14 -10q-20 -21 -47 -37t-64 -25.5t-78 -9.5q-101 0 -162.5 71.5t-61.5 188.5t61.5 188.5t162.5 71.5zM284 496q-89 0 -145 -63
t-60 -169h391q6 0 6 6q-8 226 -192 226z" />
    <glyph glyph-name="ecircumflex" unicode="&#xea;" horiz-adv-x="550" 
d="M389 582h-22l-92 117l-92 -117h-22l100 135h28zM284 510q105 0 156.5 -64.5t54.5 -180.5v-4q0 -11 -10 -11h-406q0 -112 56.5 -179t148.5 -67q112 0 175 68l14 -10q-20 -21 -47 -37t-64 -25.5t-78 -9.5q-101 0 -162.5 71.5t-61.5 188.5t61.5 188.5t162.5 71.5zM284 496
q-89 0 -145 -63t-60 -169h391q6 0 6 6q-8 226 -192 226z" />
    <glyph glyph-name="edieresis" unicode="&#xeb;" horiz-adv-x="550" 
d="M208 655q5 0 9.5 -2.5t7 -7t2.5 -9.5q0 -8 -5.5 -13.5t-13.5 -5.5t-13.5 5.5t-5.5 13.5t5.5 13.5t13.5 5.5zM342 655q8 0 13.5 -5.5t5.5 -13.5t-5.5 -13.5t-13.5 -5.5t-13.5 5.5t-5.5 13.5q0 5 2.5 9.5t7 7t9.5 2.5zM284 510q105 0 156.5 -64.5t54.5 -180.5v-4
q0 -11 -10 -11h-406q0 -112 56.5 -179t148.5 -67q112 0 175 68l14 -10q-20 -21 -47 -37t-64 -25.5t-78 -9.5q-101 0 -162.5 71.5t-61.5 188.5t61.5 188.5t162.5 71.5zM284 496q-89 0 -145 -63t-60 -169h391q6 0 6 6q-8 226 -192 226z" />
    <glyph glyph-name="igrave" unicode="&#xec;" horiz-adv-x="330" 
d="M178 582h-21l-106 135h28zM80 500l82 4q6 1 6 -5v-468q0 -9 9 -10l78 -6v-15h-175v10q0 5 5 5l55 5q9 1 9 10v443q0 9 -10 10l-59 3v14z" />
    <glyph glyph-name="iacute" unicode="&#xed;" horiz-adv-x="330" 
d="M157 582h-22l100 135h28zM80 500l82 4q6 1 6 -5v-468q0 -9 9 -10l78 -6v-15h-175v11q0 4 5 4l55 5q9 1 9 10v443q0 9 -10 10l-59 3v14z" />
    <glyph glyph-name="icircumflex" unicode="&#xee;" horiz-adv-x="330" 
d="M270 582h-21l-92 117l-92 -117h-22l100 135h28zM80 500l82 4q6 1 6 -5v-468q0 -9 9 -10l78 -6v-15h-175v11q0 4 5 4l55 5q9 1 9 10v443q0 9 -10 10l-59 3v14z" />
    <glyph glyph-name="idieresis" unicode="&#xef;" horiz-adv-x="330" 
d="M90 655q7 0 13 -5.5t6 -13.5t-6 -13.5t-13.5 -5.5t-13 5.5t-5.5 13.5q0 5 2.5 9.5t6.5 7t10 2.5zM224 655q8 0 13.5 -5.5t5.5 -13.5t-5.5 -13.5t-13.5 -5.5t-13.5 5.5t-5.5 13.5t5.5 13.5t13.5 5.5zM80 500l82 4q6 1 6 -5v-468q0 -9 9 -10l78 -6v-15h-175v11q0 4 5 4
l55 5q9 1 9 10v443q0 9 -10 10l-59 3v14z" />
    <glyph glyph-name="eth" unicode="&#xf0;" horiz-adv-x="509" 
d="M447 362q12 -159 -44.5 -259t-163.5 -108q-82 -7 -136 47t-62 151t44 159.5t144 69.5q69 5 122 -24.5t79 -87.5q0 25 -2 51q-11 129 -84 222q-17 22 -36 41l-160 -74l-8 13l156 72q-92 83 -218 99l3 14q133 -18 231 -105l111 52l8 -13l-107 -50q19 -19 35 -40
q77 -98 88 -230zM238 9q79 6 130 72.5t60 178.5l-7 22q-14 43 -41 72.5t-65 43t-84 10.5q-85 -7 -131.5 -64.5t-39.5 -149.5t55.5 -141.5t122.5 -43.5z" />
    <glyph glyph-name="ntilde" unicode="&#xf1;" horiz-adv-x="699" 
d="M445 658l24 -6q-4 -11 -9.5 -20.5t-13 -16.5t-16.5 -11.5t-19 -5.5q-28 -2 -68 19q-5 2 -11.5 6t-11.5 6.5t-10.5 5.5t-10 5t-9 3.5t-7.5 1.5q-9 1 -16 -8.5t-12 -35.5l-23 4q13 58 52 56q8 0 18.5 -4t17.5 -7.5t19 -10t16 -8.5q35 -18 53 -17q25 3 37 44zM395 510
q72 0 114 -41t42 -126v-312q0 -9 9 -10l74 -6v-15h-97q-5 0 -5 5v338q0 79 -36.5 116t-100.5 37q-103 0 -232 -80v-385q0 -9 9 -10l74 -6v-15h-171v10q0 5 5 5l55 5q9 1 9 10v443q0 9 -10 10l-59 3v14l82 4q6 1 6 -5v-65q127 76 232 76z" />
    <glyph glyph-name="ograve" unicode="&#xf2;" 
d="M322 582h-22l-106 135h28zM300 510q108 0 174 -71.5t66 -188.5t-66 -188.5t-174 -71.5q-72 0 -126.5 32.5t-84 91.5t-29.5 136q0 117 66 188.5t174 71.5zM300 496q-100 0 -160.5 -67t-60.5 -179t60.5 -179t160.5 -67t160.5 67t60.5 179q0 74 -27.5 130t-77.5 86t-116 30z
" />
    <glyph glyph-name="oacute" unicode="&#xf3;" 
d="M300 582h-22l100 135h28zM300 510q108 0 174 -71.5t66 -188.5t-66 -188.5t-174 -71.5t-174 71.5t-66 188.5t66 188.5t174 71.5zM300 496q-100 0 -160.5 -67t-60.5 -179t60.5 -179t160.5 -67t160.5 67t60.5 179t-60.5 179t-160.5 67z" />
    <glyph glyph-name="ocircumflex" unicode="&#xf4;" 
d="M414 582h-22l-92 117l-92 -117h-22l100 135h28zM300 510q108 0 174 -71.5t66 -188.5t-66 -188.5t-174 -71.5t-174 71.5t-66 188.5t66 188.5t174 71.5zM300 496q-100 0 -160.5 -67t-60.5 -179t60.5 -179t160.5 -67t160.5 67t60.5 179q0 74 -27.5 130t-77.5 86t-116 30z
" />
    <glyph glyph-name="otilde" unicode="&#xf5;" 
d="M395 658l24 -6q-7 -22 -22.5 -37t-35.5 -17q-28 -2 -68 19q-6 3 -17 9t-17 9.5t-13.5 6.5t-12.5 3q-6 0 -10.5 -3t-9 -13t-8.5 -28l-23 4q13 58 52 56q5 0 11.5 -2t12.5 -4t12.5 -5.5t12 -6.5t12 -6.5t10.5 -5.5q35 -18 53 -17q25 3 37 44zM300 510q108 0 174 -71.5
t66 -188.5t-66 -188.5t-174 -71.5t-174 71.5t-66 188.5t66 188.5t174 71.5zM300 496q-100 0 -160.5 -67t-60.5 -179t60.5 -179t160.5 -67t160.5 67t60.5 179t-60.5 179t-160.5 67z" />
    <glyph glyph-name="odieresis" unicode="&#xf6;" 
d="M233 655q5 0 9.5 -2.5t7 -7t2.5 -9.5q0 -8 -5.5 -13.5t-13.5 -5.5t-13.5 5.5t-5.5 13.5t5.5 13.5t13.5 5.5zM367 655q8 0 13.5 -5.5t5.5 -13.5t-5.5 -13.5t-13.5 -5.5t-13.5 5.5t-5.5 13.5q0 5 2.5 9.5t7 7t9.5 2.5zM300 510q71 0 126 -32.5t84.5 -91.5t29.5 -136
q0 -117 -66 -188.5t-174 -71.5t-174 71.5t-66 188.5t66 188.5t174 71.5zM300 496q-100 0 -160.5 -67t-60.5 -179t60.5 -179t160.5 -67t160.5 67t60.5 179t-60.5 179t-160.5 67z" />
    <glyph glyph-name="divide" unicode="&#xf7;" horiz-adv-x="540" 
d="M270 529q8 0 13.5 -5.5t5.5 -13.5t-5.5 -13.5t-13.5 -5.5t-13.5 5.5t-5.5 13.5q0 5 2.5 9.5t7 7t9.5 2.5zM490 339h-440v17h440v-17zM270 204q8 0 13.5 -5.5t5.5 -13.5t-5.5 -13.5t-13.5 -5.5t-13.5 5.5t-5.5 13.5t5.5 13.5t13.5 5.5z" />
    <glyph glyph-name="oslash" unicode="&#xf8;" 
d="M410 550l-19 -56q70 -26 109.5 -90.5t39.5 -153.5q0 -117 -66 -188.5t-174 -71.5q-36 0 -69 9l-16 -49h-25l19 56q-35 13 -62.5 36t-46.5 54t-29.5 70.5t-10.5 83.5q0 117 66 188.5t174 71.5q36 0 69 -9l16 49h25zM79 250q0 -84 35.5 -144.5t98.5 -85.5l152 468
q-31 8 -65 8q-100 0 -160.5 -67t-60.5 -179zM300 4q100 0 160.5 67t60.5 179q0 56 -16.5 102.5t-46.5 78.5t-71 49l-152 -467q31 -9 65 -9z" />
    <glyph glyph-name="ugrave" unicode="&#xf9;" horiz-adv-x="689" 
d="M367 582h-22l-106 135h28zM65 500h97q5 0 5 -5v-338q0 -79 36.5 -116t100.5 -37q103 0 232 80v385q0 9 -9 10l-74 6v15h97q5 0 5 -5v-468q0 -10 10 -10l59 -3v-14l-82 -5q-6 0 -6 6v65q-127 -76 -232 -76q-71 0 -113.5 41t-42.5 126v312q0 9 -9 10l-74 6v15z" />
    <glyph glyph-name="uacute" unicode="&#xfa;" horiz-adv-x="689" 
d="M345 582h-22l100 135h28zM65 500h97q5 0 5 -5v-338q0 -79 36.5 -116t100.5 -37q103 0 232 80v385q0 9 -9 10l-74 6v15h97q5 0 5 -5v-468q0 -10 10 -10l59 -3v-14l-82 -5q-6 0 -6 6v65q-127 -76 -232 -76q-71 0 -113.5 41t-42.5 126v312q0 9 -9 10l-74 6v15z" />
    <glyph glyph-name="ucircumflex" unicode="&#xfb;" horiz-adv-x="689" 
d="M459 582h-22l-92 117l-92 -117h-22l100 135h28zM65 500h97q5 0 5 -5v-338q0 -79 36.5 -116t100.5 -37q103 0 232 80v385q0 9 -9 10l-74 6v15h97q5 0 5 -5v-468q0 -10 10 -10l59 -3v-14l-82 -5q-6 0 -6 6v65q-127 -76 -232 -76q-71 0 -113.5 41t-42.5 126v312q0 9 -9 10
l-74 6v15z" />
    <glyph glyph-name="udieresis" unicode="&#xfc;" horiz-adv-x="689" 
d="M278 655q8 0 13.5 -5.5t5.5 -13.5t-5.5 -13.5t-13.5 -5.5t-13.5 5.5t-5.5 13.5t5.5 13.5t13.5 5.5zM412 655q8 0 13.5 -5.5t5.5 -13.5t-5.5 -13.5t-13.5 -5.5t-13.5 5.5t-5.5 13.5q0 5 2.5 9.5t7 7t9.5 2.5zM65 500h97q5 0 5 -5v-338q0 -79 36.5 -116t100.5 -37
q103 0 232 80v385q0 9 -9 10l-74 6v15h97q5 0 5 -5v-468q0 -10 10 -10l59 -3v-14l-82 -5q-6 0 -6 6v65q-127 -76 -232 -76q-71 0 -113.5 41t-42.5 126v312q0 9 -9 10l-74 6v15z" />
    <glyph glyph-name="yacute" unicode="&#xfd;" horiz-adv-x="548" 
d="M277 582h-22l100 135h28zM528 485l-57 -5l-266 -667q-1 -3 -4 -3h-99v15l90 7q6 0 8 6l62 157h-5l-191 480q-2 5 -7 6l-35 3q-4 1 -4 5v11h56l194 -487l179 450q2 6 -1 10.5t-9 4.5l-77 7q-5 0 -5 5v10h171v-15z" />
    <glyph glyph-name="thorn" unicode="&#xfe;" horiz-adv-x="645" 
d="M80 745l82 5q6 0 6 -5v-310q66 75 177 75q108 0 174 -71.5t66 -188.5t-66 -188.5t-174 -71.5q-111 0 -177 75v-224q0 -10 9 -10l74 -6v-15h-171v10q0 5 5 5l55 5q9 2 9 10v878q0 10 -10 10l-59 3v14zM345 496q-116 0 -177 -88v-316q61 -88 177 -88q100 0 160.5 67
t60.5 179q0 74 -27.5 129.5t-77.5 86t-116 30.5z" />
    <glyph glyph-name="ydieresis" unicode="&#xff;" horiz-adv-x="548" 
d="M210 655q5 0 9.5 -2.5t7 -7t2.5 -9.5q0 -8 -5.5 -13.5t-13.5 -5.5t-13.5 5.5t-5.5 13.5t5.5 13.5t13.5 5.5zM344 655q8 0 13.5 -5.5t5.5 -13.5t-5.5 -13.5t-13.5 -5.5t-13.5 5.5t-5.5 13.5q0 5 2.5 9.5t7 7t9.5 2.5zM528 485l-57 -5l-266 -667q-1 -3 -4 -3h-99v15l90 7
q6 0 8 6l62 157h-5l-191 480q-2 5 -7 6l-35 3q-4 1 -4 5v11h56l194 -487l179 450q2 6 -1 10.5t-9 4.5l-77 7q-5 0 -5 5v10h171v-15z" />
    <glyph glyph-name="Amacron" unicode="&#x100;" horiz-adv-x="749" 
d="M498 817h-246v17h246v-17zM663 21l56 -5v-16h-181v10q0 5 4 5l79 7q6 0 8.5 5t0.5 11l-77 185h-363l-82 -200l93 -7v-16h-171v12q0 4 5 4l46 5q5 0 7 5l279 673l15 1zM197 240h349l-174 421z" />
    <glyph glyph-name="amacron" unicode="&#x101;" horiz-adv-x="561" 
d="M380 617h-246v17h246v-17zM256 510q69 0 113 -40t44 -127v-312q0 -9 9 -10l74 -6v-15h-97q-5 0 -5 5v60q-66 -75 -176 -75q-72 0 -115 35t-43 92q0 55 35 82t123 51l176 47v46q0 81 -38 117t-100 36q-69 -1 -138 -39q-3 -2 -4 -7l-8 -93h-14v100q0 2 2 3q77 49 162 50z
M394 282l-171 -46q-82 -22 -113 -46t-31 -73q0 -52 37.5 -82.5t101.5 -30.5q109 0 172 83l4 5v190z" />
    <glyph glyph-name="Abreve" unicode="&#x102;" horiz-adv-x="749" 
d="M468 900h24q0 -49 -34 -83t-83 -34t-83 34t-34 83h24q0 -43 27 -71.5t66 -28.5t66 28.5t27 71.5zM663 21l56 -5v-16h-181v10q0 5 4 5l79 7q6 0 8.5 5t0.5 11l-77 185h-363l-82 -200l93 -7v-16h-171v12q0 4 5 4l46 5q5 0 7 5l279 673l15 1zM197 240h349l-174 421z" />
    <glyph glyph-name="abreve" unicode="&#x103;" horiz-adv-x="561" 
d="M350 700h24q0 -49 -34.5 -83t-83 -34t-83 34t-34.5 83h24q0 -43 27.5 -71.5t66 -28.5t66 28.5t27.5 71.5zM256 510q22 0 41 -4t37 -12t32 -21.5t25 -31.5t16.5 -43t5.5 -55v-312q0 -9 9 -10l74 -6v-15h-97q-5 0 -5 5v60q-66 -75 -176 -75q-72 0 -115 35t-43 92
q0 55 35 82t123 51l176 47v46q0 81 -38 117t-100 36q-69 -1 -138 -39q-3 -2 -4 -7l-8 -93h-14v100q0 2 2 3q77 49 162 50zM394 282l-171 -46q-56 -15 -85 -28.5t-44 -35t-15 -55.5q0 -52 37.5 -82.5t101.5 -30.5q109 0 172 83l4 5v190z" />
    <glyph glyph-name="Aogonek" unicode="&#x104;" horiz-adv-x="749" 
d="M663 21l56 -5v-16h-147q-65 -43 -66 -103q0 -29 14 -47t38 -18q22 -1 61 21l5 -19q-36 -21 -66 -19q-35 0 -55.5 23.5t-20.5 58.5q1 61 56 103v10q0 5 4 5l79 7q6 0 8.5 5t0.5 11l-77 185h-363l-82 -200l93 -7v-16h-171v12q0 4 5 4l46 5q5 0 7 5l279 673l15 1zM197 240
h349l-174 421z" />
    <glyph glyph-name="aogonek" unicode="&#x105;" horiz-adv-x="561" 
d="M256 510q33 0 60 -9t49.5 -28t35 -52t12.5 -78v-312q0 -9 9 -10l74 -6v-15h-75q-65 -43 -66 -103q0 -29 14.5 -47t37.5 -18q22 -1 61 21l5 -19q-36 -21 -66 -19q-35 0 -55.5 23.5t-20.5 58.5q1 65 63 108v60q-66 -75 -176 -75q-72 0 -115 35t-43 92q0 55 35 82t123 51
l176 47v46q0 81 -38 117t-100 36q-69 -1 -138 -39q-3 -2 -4 -7l-8 -93h-14v100q0 2 2 3q77 49 162 50zM394 282l-171 -46q-82 -22 -113 -46t-31 -73q0 -52 37.5 -82.5t101.5 -30.5q109 0 172 83l4 5v190z" />
    <glyph glyph-name="Cacute" unicode="&#x106;" horiz-adv-x="651" 
d="M383 782h-22l100 135h28zM392 710q116 0 199 -61q1 -2 1 -4v-110h-15l-8 101q0 4 -4 7q-74 50 -173 50q-139 0 -223.5 -93.5t-84.5 -249.5t84.5 -249.5t223.5 -93.5q120 0 203 73l16 -13q-88 -77 -219 -77q-150 0 -241 99t-91 261t91 261t241 99z" />
    <glyph glyph-name="cacute" unicode="&#x107;" horiz-adv-x="504" 
d="M280 582h-22l100 135h28zM300 510q82 0 141 -42q2 -2 2 -4v-100h-15l-8 95q0 4 -4 6q-50 31 -116 31q-100 0 -160.5 -67t-60.5 -179t60.5 -179t160.5 -67q79 0 137 45l12 -11q-62 -48 -149 -48q-108 0 -174 71.5t-66 188.5t66 188.5t174 71.5z" />
    <glyph glyph-name="Cdotaccent" unicode="&#x10a;" horiz-adv-x="651" 
d="M383 855q8 0 13.5 -5.5t5.5 -13.5t-5.5 -13.5t-13.5 -5.5t-13.5 5.5t-5.5 13.5t5.5 13.5t13.5 5.5zM392 710q116 0 199 -61q1 -2 1 -4v-110h-15l-8 101q0 4 -4 7q-74 50 -173 50q-139 0 -223.5 -93.5t-84.5 -249.5t84.5 -249.5t223.5 -93.5q120 0 203 73l16 -13
q-88 -77 -219 -77q-150 0 -241 99t-91 261t91 261t241 99z" />
    <glyph glyph-name="cdotaccent" unicode="&#x10b;" horiz-adv-x="504" 
d="M283 655q8 0 13.5 -5.5t5.5 -13.5q0 -5 -2.5 -9.5t-7 -7t-9.5 -2.5q-8 0 -13.5 5.5t-5.5 13.5t5.5 13.5t13.5 5.5zM300 510q82 0 141 -42q2 -2 2 -4v-100h-15l-8 95q0 4 -4 6q-50 31 -116 31t-116 -30t-77.5 -86t-27.5 -130q0 -112 60.5 -179t160.5 -67q79 0 137 45
l12 -11q-62 -48 -149 -48q-108 0 -174 71.5t-66 188.5t66 188.5t174 71.5z" />
    <glyph glyph-name="Ccaron" unicode="&#x10c;" horiz-adv-x="651" 
d="M397 782h-28l-100 135h22l92 -117l92 117h22zM392 710q116 0 199 -61q1 -2 1 -4v-110h-15l-8 101q0 4 -4 7q-74 50 -173 50q-139 0 -223.5 -93.5t-84.5 -249.5t84.5 -249.5t223.5 -93.5q120 0 203 73l16 -13q-88 -77 -219 -77q-150 0 -241 99t-91 261t91 261t241 99z" />
    <glyph glyph-name="ccaron" unicode="&#x10d;" horiz-adv-x="504" 
d="M294 582h-28l-100 135h22l92 -117l92 117h21zM300 510q82 0 141 -42q2 -2 2 -4v-100h-15l-8 95q0 4 -4 6q-50 31 -116 31t-116 -30t-77.5 -86t-27.5 -130q0 -112 60.5 -179t160.5 -67q79 0 137 45l12 -11q-62 -48 -149 -48q-108 0 -174 71.5t-66 188.5t66 188.5t174 71.5
z" />
    <glyph glyph-name="Dcaron" unicode="&#x10e;" horiz-adv-x="757" 
d="M393 782h-28l-100 135h22l92 -117l92 117h22zM80 700h285q74 0 136 -24.5t105 -69.5t67 -110.5t24 -145.5q0 -161 -90.5 -255.5t-241.5 -94.5h-285v11q0 5 5 5l67 6q9 0 9 10v636q0 10 -9 10l-67 6q-5 0 -5 5v11zM264 683l-80 -7v-652l80 -7h101q141 0 224.5 89t83.5 244
q0 103 -38 178.5t-107.5 115t-162.5 39.5h-101z" />
    <glyph glyph-name="dcaron" unicode="&#x10f;" horiz-adv-x="654" 
d="M408 746l83 4q5 0 5 -5v-714q0 -9 9 -10l74 -6v-15h-97q-5 0 -5 5v60q-66 -75 -177 -75q-108 0 -174 71.5t-66 188.5t66 188.5t174 71.5q111 0 177 -75v283q0 10 -10 11l-59 3v14zM624 750q19 0 26 -24t0 -58q-6 -33 -20 -62l-16 5q14 30 17 56q5 29 -5 45h-2
q-5 0 -9.5 2.5t-7 7t-2.5 9.5q0 7 5.5 12.5t13.5 6.5zM300 496q-100 0 -160.5 -67t-60.5 -179t60.5 -179t160.5 -67q116 0 177 88v316q-61 88 -177 88z" />
    <glyph glyph-name="Dcroat" unicode="&#x110;" horiz-adv-x="757" 
d="M80 700h285q151 0 241.5 -95t90.5 -255.5t-90.5 -255t-241.5 -94.5h-285v11q0 5 5 5l67 6q9 0 9 10v309h-111v17h111v310q0 10 -9 10l-67 6q-5 0 -5 5v11zM264 17h101q141 0 224.5 89t83.5 244t-83.5 244t-224.5 89h-101l-80 -7v-318h166v-17h-166v-317z" />
    <glyph glyph-name="dcroat" unicode="&#x111;" horiz-adv-x="654" 
d="M496 610v-579q0 -9 9 -10l74 -6v-15h-97q-5 0 -5 5v60q-66 -75 -177 -75q-108 0 -174 71.5t-66 188.5t66 188.5t174 71.5q111 0 177 -75v175h-135v14h135v125l14 1q5 0 5 -5v-121h95v-14h-95zM477 92v316q-61 88 -177 88q-100 0 -160.5 -67t-60.5 -179t60.5 -179
t160.5 -67q116 0 177 88z" />
    <glyph glyph-name="Emacron" unicode="&#x112;" horiz-adv-x="575" 
d="M443 817h-246v17h246v-17zM80 700h430q5 0 5 -5v-107h-16l-6 86q-1 9 -10 9h-299v-317h256v-17h-256v-332h319q9 0 10 9l6 86h16v-107q0 -5 -5 -5h-450v11q0 5 5 5l67 6q9 0 9 10v636q0 10 -9 10l-67 6q-5 0 -5 5v11z" />
    <glyph glyph-name="emacron" unicode="&#x113;" horiz-adv-x="550" 
d="M407 617h-246v17h246v-17zM284 510q105 0 156.5 -64.5t54.5 -180.5v-4q0 -11 -10 -11h-406q0 -112 56.5 -179t148.5 -67q112 0 175 68l14 -10q-30 -32 -79 -52t-110 -20q-101 0 -162.5 71.5t-61.5 188.5t61.5 188.5t162.5 71.5zM284 496q-89 0 -145 -63t-60 -169h391
q6 0 6 6q-8 226 -192 226z" />
    <glyph glyph-name="Edotaccent" unicode="&#x116;" horiz-adv-x="575" 
d="M320 855q8 0 13.5 -5.5t5.5 -13.5t-5.5 -13.5t-13.5 -5.5t-13.5 5.5t-5.5 13.5t5.5 13.5t13.5 5.5zM80 700h430q5 0 5 -5v-107h-16l-6 86q-1 9 -10 9h-299v-317h256v-17h-256v-332h319q9 0 10 9l6 86h16v-107q0 -5 -5 -5h-450v11q0 5 5 5l67 6q9 0 9 10v636q0 10 -9 10
l-67 6q-5 0 -5 5v11z" />
    <glyph glyph-name="edotaccent" unicode="&#x117;" horiz-adv-x="550" 
d="M284 655q8 0 13.5 -5.5t5.5 -13.5t-5.5 -13.5t-13.5 -5.5t-13.5 5.5t-5.5 13.5t5.5 13.5t13.5 5.5zM284 510q105 0 156.5 -64.5t54.5 -180.5v-4q0 -11 -10 -11h-406q0 -112 56.5 -179t148.5 -67q112 0 175 68l14 -10q-20 -21 -47 -37t-64 -25.5t-78 -9.5
q-101 0 -162.5 71.5t-61.5 188.5t61.5 188.5t162.5 71.5zM284 496q-89 0 -145 -63t-60 -169h391q6 0 6 6q-8 226 -192 226z" />
    <glyph glyph-name="Eogonek" unicode="&#x118;" horiz-adv-x="575" 
d="M80 700h430q5 0 5 -5v-107h-16l-6 86q-1 9 -10 9h-299v-317h256v-17h-256v-332h319q9 0 10 9l6 86h16v-107q0 -5 -5 -5h-46q-65 -43 -66 -103q0 -29 14 -47t38 -18q22 -1 61 21l5 -19q-36 -21 -66 -19q-35 0 -55.5 23.5t-20.5 58.5q1 61 56 103h-370v11q0 5 5 5l67 6
q9 0 9 10v636q0 10 -9 10l-67 6q-5 0 -5 5v11z" />
    <glyph glyph-name="eogonek" unicode="&#x119;" horiz-adv-x="550" 
d="M284 510q105 0 156.5 -64.5t54.5 -180.5v-4q0 -11 -10 -11h-406q0 -112 56.5 -179t148.5 -67q112 0 175 68l14 -10q-30 -32 -76 -51q-84 -46 -84 -114q0 -19 6 -34t18 -23t27 -8q23 -1 61 21l6 -19q-37 -21 -67 -19q-35 0 -55 23.5t-20 58.5q0 56 48 97q-33 -4 -53 -4
q-101 0 -162.5 71.5t-61.5 188.5t61.5 188.5t162.5 71.5zM284 496q-89 0 -145 -63t-60 -169h391q6 0 6 6q-8 226 -192 226z" />
    <glyph glyph-name="Ecaron" unicode="&#x11a;" horiz-adv-x="575" 
d="M334 782h-28l-100 135h22l92 -117l92 117h22zM80 700h430q5 0 5 -5v-107h-16l-6 86q-1 9 -10 9h-299v-317h256v-17h-256v-332h319q9 0 10 9l6 86h16v-107q0 -5 -5 -5h-450v11q0 5 5 5l67 6q9 0 9 10v636q0 10 -9 10l-67 6q-5 0 -5 5v11z" />
    <glyph glyph-name="ecaron" unicode="&#x11b;" horiz-adv-x="550" 
d="M298 582h-28l-100 135h22l92 -117l92 117h21zM284 510q105 0 156.5 -64.5t54.5 -180.5v-4q0 -11 -10 -11h-406q0 -112 56.5 -179t148.5 -67q112 0 175 68l14 -10q-20 -21 -47 -37t-64 -25.5t-78 -9.5q-101 0 -162.5 71.5t-61.5 188.5t61.5 188.5t162.5 71.5zM284 496
q-89 0 -145 -63t-60 -169h391q6 0 6 6q-8 226 -192 226z" />
    <glyph glyph-name="Gbreve" unicode="&#x11e;" horiz-adv-x="706" 
d="M471 900h24q0 -49 -34.5 -83t-83 -34t-83 34t-34.5 83h24q0 -43 27.5 -71.5t66 -28.5t66 28.5t27.5 71.5zM392 709q111 0 220 -59q2 -1 2 -4v-110h-15l-8 99q0 5 -5 8q-97 49 -194 49q-50 0 -96 -14t-84.5 -42.5t-67 -68.5t-44.5 -96t-16 -121q0 -156 84.5 -249.5
t223.5 -93.5q132 0 216 86v186q0 9 -9 10l-195 10v17h222q5 0 5 -5v-311h-18l-5 65q-87 -75 -216 -75q-150 0 -241 99t-91 261q0 49 9 93t25.5 80t39.5 66t51.5 52t61.5 37.5t69.5 23t75.5 7.5z" />
    <glyph glyph-name="gbreve" unicode="&#x11f;" horiz-adv-x="566" 
d="M376 700h24q0 -49 -34 -83t-83 -34t-83 34t-34 83h24q0 -43 27 -71.5t66 -28.5t66 28.5t27 71.5zM501 499l-119 -10q41 -20 64 -57.5t23 -86.5q0 -75 -50 -120.5t-134 -45.5q-42 0 -77 13q-37 -8 -57 -24.5t-19 -37.5q0 -25 17.5 -40t50 -22t81.5 -7q102 0 161 -34
t59 -108q0 -63 -61 -103t-157 -40t-157 40t-61 103q0 46 35.5 82t97.5 53q-85 17 -85 76q-1 24 18.5 42t55.5 29q-27 13 -46 34t-29.5 49t-10.5 61q0 74 50.5 119.5t133.5 45.5h216v-11zM285 496q-76 0 -120.5 -41t-44.5 -110.5t44.5 -110.5t120.5 -41t120.5 41t44.5 110.5
t-44.5 110.5t-120.5 41zM238 49l-14 -3q-66 -14 -103 -47.5t-37 -79.5q0 -59 54 -94t145 -35t145 35t54 94q0 128 -201 128q-23 0 -43 2z" />
    <glyph glyph-name="Gdotaccent" unicode="&#x120;" horiz-adv-x="706" 
d="M377.5 855q7.5 0 13 -5.5t5.5 -13.5q0 -5 -2.5 -9.5t-6.5 -7t-10 -2.5q-7 0 -13 5.5t-6 13.5t6 13.5t13.5 5.5zM392 709q111 0 220 -59q2 -1 2 -4v-110h-15l-8 99q0 5 -5 8q-97 49 -194 49q-63 0 -118.5 -22.5t-98 -64.5t-67 -108t-24.5 -147q0 -156 84.5 -249.5
t223.5 -93.5q132 0 216 86v186q0 9 -9 10l-195 10v17h222q5 0 5 -5v-311h-18l-5 65q-87 -75 -216 -75q-150 0 -241 99t-91 261q0 85 26.5 154t72 113.5t105 68t128.5 23.5z" />
    <glyph glyph-name="gdotaccent" unicode="&#x121;" horiz-adv-x="566" 
d="M283 655q5 0 9.5 -2.5t7 -7t2.5 -9.5q0 -8 -5.5 -13.5t-13.5 -5.5t-13.5 5.5t-5.5 13.5t5.5 13.5t13.5 5.5zM501 499l-119 -10q41 -20 64 -57.5t23 -86.5q0 -75 -50 -120.5t-134 -45.5q-42 0 -77 13q-24 -6 -41.5 -15t-26 -21t-8.5 -26q0 -25 17.5 -40t50 -22t81.5 -7
q102 0 161 -34t59 -108q0 -63 -61 -103t-157 -40t-157 40t-61 103q0 46 35.5 82t97.5 53q-85 17 -85 76q-1 24 18.5 42t55.5 29q-27 13 -46 34t-29.5 49t-10.5 61q0 74 50.5 119.5t133.5 45.5h216v-11zM285 496q-76 0 -120.5 -41t-44.5 -110.5t44.5 -110.5t120.5 -41
t120.5 41t44.5 110.5t-44.5 110.5t-120.5 41zM238 49l-14 -3q-66 -14 -103 -47.5t-37 -79.5q0 -59 54 -94t145 -35t145 35t54 94q0 128 -201 128q-23 0 -43 2z" />
    <glyph glyph-name="Gcommaaccent" unicode="&#x122;" horiz-adv-x="706" 
d="M392 709q111 0 220 -59q2 -1 2 -4v-110h-15l-8 99q0 5 -5 8q-97 49 -194 49q-63 0 -118.5 -22.5t-98 -64.5t-67 -108t-24.5 -147q0 -156 84.5 -249.5t223.5 -93.5q132 0 216 86v186q0 9 -9 10l-195 10v17h222q5 0 5 -5v-311h-18l-5 65q-87 -75 -216 -75q-150 0 -241 99
t-91 261q0 85 26.5 154t72 113.5t105 68t128.5 23.5zM348 -61q19 0 26 -24t0 -58q-6 -33 -20 -62l-16 5q13 30 17 56q5 29 -5 45h-2q-8 0 -13.5 5.5t-5.5 13.5q0 7 5.5 12.5t13.5 6.5z" />
    <glyph glyph-name="gcommaaccent" unicode="&#x123;" horiz-adv-x="566" 
d="M283 749l16 -5q-14 -30 -17 -56q-5 -29 5 -45h2q8 0 13.5 -5.5t5.5 -13.5t-5.5 -13t-13.5 -6q-19 0 -26 24t0 58q6 33 20 62zM501 499l-119 -10q41 -20 64 -57.5t23 -86.5q0 -75 -50 -120.5t-134 -45.5q-42 0 -77 13q-37 -8 -57 -24.5t-19 -37.5q0 -37 37 -53t112 -16
q102 0 161 -34t59 -108q0 -63 -61 -103t-157 -40t-157 40t-61 103q0 46 35.5 82t97.5 53q-85 17 -85 76q-1 24 18.5 42t55.5 29q-41 20 -63.5 57.5t-22.5 86.5t22.5 86.5t64.5 58t97 20.5h216v-11zM285 496q-76 0 -120.5 -41t-44.5 -110.5t44.5 -110.5t120.5 -41t120.5 41
t44.5 110.5t-44.5 110.5t-120.5 41zM238 49l-14 -3q-43 -9 -74.5 -27t-48.5 -43.5t-17 -56.5q0 -59 54 -94t145 -35t145 35t54 94q0 128 -201 128q-23 0 -43 2z" />
    <glyph glyph-name="Hbar" unicode="&#x126;" horiz-adv-x="859" 
d="M698 540v-508q0 -10 9 -10l72 -6v-16h-198v11q0 5 4 5l81 7q9 1 9 10v316h-491v-316q0 -9 9 -10l85 -7v-16h-198v11q0 5 5 5l67 6q9 0 9 10v508h-161v17h161v111q0 10 -9 10l-67 6q-5 0 -5 5v11h198v-16l-85 -7q-9 -1 -9 -10v-110h491v110q0 9 -9 10l-81 7q-4 0 -4 5v11
h198v-16l-72 -6q-9 0 -9 -10v-111h161v-17h-161zM675 540h-491v-174h491v174z" />
    <glyph glyph-name="hbar" unicode="&#x127;" horiz-adv-x="704" 
d="M639 15v-15h-97q-5 0 -5 5v338q0 53 -18 88t-47.5 50t-71.5 15q-103 0 -232 -80v-385q0 -9 9 -10l74 -6v-15h-171v10q0 5 5 5l55 5q9 1 9 10v587h-149v14h149v87q0 10 -10 11l-59 3v14l82 4q6 0 6 -5v-114h184v-14h-184v-183q127 76 232 76q72 0 114 -41t42 -126v-312
q0 -9 9 -10z" />
    <glyph glyph-name="Itilde" unicode="&#x128;" horiz-adv-x="348" 
d="M269 858l24 -6q-7 -22 -22.5 -37t-35.5 -17q-28 -2 -68 19q-6 3 -17 9t-17 9.5t-13.5 6.5t-12.5 3q-9 1 -16 -8.5t-12 -35.5l-23 4q13 58 52 56q8 0 18.5 -4t17.5 -7.5t19 -10t16 -8.5q35 -18 53 -17q25 3 37 44zM268 684l-74 -6q-9 -1 -9 -10v-636q0 -9 9 -10l74 -6v-16
h-188v11q0 5 5 5l68 6q9 1 9 10v636q0 9 -9 10l-68 6q-5 0 -5 5v11h188v-16z" />
    <glyph glyph-name="itilde" unicode="&#x129;" horiz-adv-x="330" 
d="M252 658l23 -6q-7 -22 -22.5 -37t-34.5 -17q-28 -2 -68 19q-5 2 -11.5 6t-11.5 6.5l-11 5.5l-10 5t-8.5 3.5t-8.5 1.5q-5 0 -9.5 -3t-9.5 -13t-9 -28l-23 4q13 58 53 56q6 0 13.5 -2.5t15.5 -6t14 -7t14.5 -8t12.5 -6.5q35 -18 54 -17q24 3 37 44zM80 500l82 4q6 1 6 -5
v-468q0 -9 9 -10l78 -6v-15h-175v11q0 4 5 4l55 5q9 1 9 10v443q0 9 -10 10l-59 3v14z" />
    <glyph glyph-name="Imacron" unicode="&#x12a;" horiz-adv-x="348" 
d="M297 817h-246v17h246v-17zM268 684l-74 -6q-9 -1 -9 -10v-636q0 -9 9 -10l74 -6v-16h-188v11q0 5 5 5l68 6q9 1 9 10v636q0 9 -9 10l-68 6q-5 0 -5 5v11h188v-16z" />
    <glyph glyph-name="imacron" unicode="&#x12b;" horiz-adv-x="330" 
d="M280 617h-246v17h246v-17zM80 500l82 4q6 1 6 -5v-468q0 -9 9 -10l78 -6v-15h-175v11q0 4 5 4l55 5q9 1 9 10v443q0 9 -10 10l-59 3v14z" />
    <glyph glyph-name="Iogonek" unicode="&#x12e;" horiz-adv-x="348" 
d="M268 684l-74 -6q-9 -1 -9 -10v-636q0 -9 9 -10l74 -6v-16h-27q-68 -43 -68 -104q0 -29 14 -47t38 -18q22 -1 61 21l5 -19q-36 -21 -66 -19q-35 0 -55.5 23.5t-20.5 58.5q0 62 58 104h-127v11q0 5 5 5l68 6q9 1 9 10v636q0 9 -9 10l-68 6q-5 0 -5 5v11h188v-16z" />
    <glyph glyph-name="iogonek" unicode="&#x12f;" horiz-adv-x="330" 
d="M157 655q8 0 13.5 -5.5t5.5 -13.5q0 -5 -2.5 -9.5t-7 -7t-9.5 -2.5q-8 0 -13.5 5.5t-5.5 13.5t5.5 13.5t13.5 5.5zM80 500l82 4q6 1 6 -5v-468q0 -9 9 -10l78 -6v-15h-27q-68 -43 -68 -105q0 -29 14 -47t38 -18q22 -1 61 21l5 -19q-37 -21 -66 -19q-35 0 -55.5 23.5
t-20.5 58.5q0 63 58 105h-114v11q0 4 5 4l55 5q9 1 9 10v443q0 9 -10 10l-59 3v14z" />
    <glyph glyph-name="Idotaccent" unicode="&#x130;" horiz-adv-x="348" 
d="M174 855q8 0 13.5 -5.5t5.5 -13.5t-5.5 -13.5t-13.5 -5.5q-5 0 -9.5 2.5t-7 7t-2.5 9.5q0 8 5.5 13.5t13.5 5.5zM268 684l-74 -6q-9 -1 -9 -10v-636q0 -9 9 -10l74 -6v-16h-188v11q0 5 5 5l68 6q9 1 9 10v636q0 9 -9 10l-68 6q-5 0 -5 5v11h188v-16z" />
    <glyph glyph-name="dotlessi" unicode="&#x131;" horiz-adv-x="330" 
d="M80 500l82 4q6 1 6 -5v-468q0 -9 9 -10l78 -6v-15h-175v11q0 4 5 4l55 5q9 1 9 10v443q0 9 -10 10l-59 3v14z" />
    <glyph glyph-name="IJ" unicode="&#x132;" horiz-adv-x="706" 
d="M268 684l-74 -6q-9 -1 -9 -10v-636q0 -9 9 -10l74 -6v-16h-188v11q0 5 5 5l68 6q9 1 9 10v636q0 9 -9 10l-68 6q-5 0 -5 5v11h188v-16zM626 684l-71 -6q-9 0 -9 -10v-633q0 -85 -42.5 -146t-118.5 -86l-7 16q67 22 105.5 79t38.5 137v632q0 9 -9 10l-81 7q-4 0 -4 5v11
h198v-16z" />
    <glyph glyph-name="ij" unicode="&#x133;" horiz-adv-x="577" 
d="M158.5 700q7.5 0 13 -5.5t5.5 -13.5t-5.5 -13.5t-13 -5.5t-13.5 5.5t-6 13.5t6 13.5t13.5 5.5zM483 700q8 0 13.5 -5.5t5.5 -13.5t-5.5 -13.5t-13.5 -5.5t-13.5 5.5t-5.5 13.5t5.5 13.5t13.5 5.5zM80 500l82 4q6 1 6 -5v-468q0 -9 9 -10l78 -6v-15h-175v11q0 4 5 4l55 5
q9 1 9 10v443q0 9 -10 10l-59 3v14zM404 500l83 4q5 1 5 -5v-602q0 -40 -25.5 -63.5t-69.5 -23.5q-41 0 -67 22l12 11q21 -19 55 -19q36 0 56 19.5t20 53.5v576q0 9 -9 10l-60 3v14z" />
    <glyph glyph-name="Kcommaaccent" unicode="&#x136;" horiz-adv-x="732" 
d="M684 684l-78 -6l-272 -292l284 -361q2 -2 6 -3l73 -6q5 0 5 -5v-11h-93l-291 369l-134 -144v-192q0 -9 9 -10l85 -7v-16h-198v11q0 5 5 5l67 6q9 0 9 10v636q0 10 -9 10l-67 6q-5 0 -5 5v11h198v-16l-85 -7q-9 -1 -9 -10v-417l378 406q7 7 4 14.5t-12 7.5l-64 6
q-4 0 -4 5v11h198v-16zM361 -61q19 0 26 -24t0 -58q-6 -33 -20 -62l-16 5q13 30 17 56q5 29 -5 45h-2q-8 0 -13.5 5.5t-5.5 13.5q0 7 5.5 12.5t13.5 6.5z" />
    <glyph glyph-name="kcommaaccent" unicode="&#x137;" horiz-adv-x="595" 
d="M80 745l82 5q6 0 6 -5v-503l270 225q4 3 2.5 7.5t-6.5 5.5l-62 5q-5 0 -5 5v10h171v-15l-64 -6l-196 -163l232 -294q1 -1 3 -2l62 -5v-15h-67q-4 0 -7 3l-237 301l-96 -80v-193q0 -9 9 -10l78 -6v-15h-171v10q0 5 4 5l52 5q9 1 9 10v688q0 10 -10 10l-59 3v14zM293 -61
q19 0 26 -24t0 -58q-6 -33 -20 -62l-16 5q13 30 17 56q5 29 -5 45h-2q-5 0 -9.5 2.5t-7 7t-2.5 9.5q0 7 5.5 12.5t13.5 6.5z" />
    <glyph glyph-name="Lacute" unicode="&#x139;" horiz-adv-x="563" 
d="M282 782h-22l100 135h28zM278 684l-85 -7q-9 -1 -9 -10v-650h307q9 0 10 9l6 86h16v-107q0 -5 -5 -5h-438v11q0 5 5 5l67 6q9 0 9 10v636q0 10 -9 10l-67 6q-5 0 -5 5v11h198v-16z" />
    <glyph glyph-name="lacute" unicode="&#x13a;" horiz-adv-x="320" 
d="M160 823h-22l100 135h28zM80 745l82 5q6 0 6 -5v-714q0 -9 9 -10l78 -6v-15h-171v11q0 4 4 4l52 5q9 1 9 10v688q0 10 -10 10l-59 3v14z" />
    <glyph glyph-name="Lcommaaccent" unicode="&#x13b;" horiz-adv-x="563" 
d="M278 684l-85 -7q-9 -1 -9 -10v-650h307q9 0 10 9l6 86h16v-107q0 -5 -5 -5h-438v11q0 5 5 5l67 6q9 0 9 10v636q0 10 -9 10l-67 6q-5 0 -5 5v11h198v-16zM277 -61q19 0 26 -24t0 -58q-6 -33 -20 -62l-16 5q13 30 17 56q5 29 -5 45h-2q-5 0 -9.5 2.5t-7 7t-2.5 9.5
q0 7 5.5 12.5t13.5 6.5z" />
    <glyph glyph-name="lcommaaccent" unicode="&#x13c;" horiz-adv-x="320" 
d="M80 745l82 5q6 0 6 -5v-714q0 -9 9 -10l78 -6v-15h-171v10q0 5 4 5l52 5q9 1 9 10v688q0 10 -10 10l-59 3v14zM155 -61q19 0 26 -24t0 -58q-6 -33 -20 -62l-16 5q13 30 17 56q5 29 -5 45h-2q-8 0 -13.5 5.5t-5.5 13.5q0 7 5.5 12.5t13.5 6.5z" />
    <glyph glyph-name="Lcaron" unicode="&#x13d;" horiz-adv-x="563" 
d="M428 710q20 0 26.5 -24t-0.5 -58q-6 -33 -20 -62l-16 5q14 30 17 56q5 29 -5 45h-2q-5 0 -9.5 2.5t-7 7t-2.5 9.5q0 7 5.5 12.5t13.5 6.5zM278 684l-85 -7q-9 -1 -9 -10v-650h307q9 0 10 9l6 86h16v-107q0 -5 -5 -5h-438v11q0 5 5 5l67 6q9 0 9 10v636q0 10 -9 10l-67 6
q-5 0 -5 5v11h198v-16z" />
    <glyph glyph-name="lcaron" unicode="&#x13e;" horiz-adv-x="355" 
d="M306 750q19 0 26 -24t0 -58q-6 -33 -20 -62l-16 5q13 30 17 56q5 29 -5 45h-2q-5 0 -9.5 2.5t-7 7t-2.5 9.5q0 7 5.5 12.5t13.5 6.5zM80 745l82 5q6 0 6 -5v-714q0 -9 9 -10l78 -6v-15h-172v10q0 5 5 5l52 5q9 1 9 10v688q0 10 -10 10l-59 3v14z" />
    <glyph glyph-name="Ldot" unicode="&#x13f;" horiz-adv-x="563" 
d="M278 684l-85 -7q-9 -1 -9 -10v-650h307q9 0 10 9l6 86h16v-107q0 -5 -5 -5h-438v11q0 5 5 5l67 6q9 0 9 10v636q0 10 -9 10l-67 6q-5 0 -5 5v11h198v-16zM468 397q8 0 13.5 -5.5t5.5 -13.5t-5.5 -13.5t-13.5 -5.5t-13.5 5.5t-5.5 13.5t5.5 13.5t13.5 5.5z" />
    <glyph glyph-name="ldot" unicode="&#x140;" horiz-adv-x="360" 
d="M80 745l82 5q6 0 6 -5v-714q0 -9 9 -10l78 -6v-15h-171v10q0 5 4 5l52 5q9 1 9 10v688q0 10 -10 10l-59 3v14zM311 397q8 0 13.5 -5.5t5.5 -13.5t-5.5 -13.5t-13.5 -5.5t-13.5 5.5t-5.5 13.5t5.5 13.5t13.5 5.5z" />
    <glyph glyph-name="Lslash" unicode="&#x141;" horiz-adv-x="565" 
d="M525 112v-107q0 -5 -5 -5h-438v11q0 5 5 5l67 6q9 0 9 10v328l-123 -97v25l123 96v284q0 10 -9 10l-67 6q-5 0 -5 5v11h198v-16l-85 -7q-9 -1 -9 -10v-265l175 138v-25l-175 -137v-361h307q9 0 10 9l6 86h16z" />
    <glyph glyph-name="lslash" unicode="&#x142;" horiz-adv-x="377" 
d="M194 410v-379q0 -9 9 -10l78 -6v-15h-171v10q0 5 4 5l52 5q9 1 9 10v365l-125 -98v22l125 98v301q0 10 -10 10l-59 3v14l82 5q6 0 6 -5v-313l133 104v-22z" />
    <glyph glyph-name="Nacute" unicode="&#x143;" horiz-adv-x="849" 
d="M425 782h-22l100 135h28zM774 684l-72 -6q-9 0 -9 -10v-668h-23l-491 664v-631q0 -9 9 -10l86 -7v-16h-199v11q0 5 5 5l67 6q9 0 9 10v636q0 10 -9 10l-67 6q-5 0 -5 5v11h104l491 -664v631q0 9 -9 10l-81 7q-4 0 -4 5v11h198v-16z" />
    <glyph glyph-name="nacute" unicode="&#x144;" horiz-adv-x="699" 
d="M350 582h-22l100 135h28zM395 510q72 0 114 -41t42 -126v-312q0 -9 9 -10l74 -6v-15h-97q-5 0 -5 5v338q0 79 -36.5 116t-100.5 37q-103 0 -232 -80v-385q0 -9 9 -10l74 -6v-15h-171v11q0 4 5 4l55 5q9 1 9 10v443q0 9 -10 10l-59 3v14l82 4q6 1 6 -5v-65q127 76 232 76z
" />
    <glyph glyph-name="Ncommaaccent" unicode="&#x145;" horiz-adv-x="849" 
d="M774 684l-72 -6q-9 0 -9 -10v-668h-23l-491 664v-631q0 -9 9 -10l86 -7v-16h-199v11q0 5 5 5l67 6q9 0 9 10v636q0 10 -9 10l-67 6q-5 0 -5 5v11h104l491 -664v631q0 9 -9 10l-81 7q-4 0 -4 5v11h198v-16zM420 -61q19 0 26 -24t0 -58q-6 -33 -20 -62l-16 5q13 30 17 56
q5 29 -5 45h-2q-5 0 -9.5 2.5t-7 7t-2.5 9.5q0 7 5.5 12.5t13.5 6.5z" />
    <glyph glyph-name="ncommaaccent" unicode="&#x146;" horiz-adv-x="699" 
d="M395 510q72 0 114 -41t42 -126v-312q0 -9 9 -10l74 -6v-15h-97q-5 0 -5 5v338q0 79 -36.5 116t-100.5 37q-103 0 -232 -80v-385q0 -9 9 -10l74 -6v-15h-171v11q0 4 5 4l55 5q9 1 9 10v443q0 9 -10 10l-59 3v14l82 4q6 1 6 -5v-65q127 76 232 76zM345 -61q19 0 26 -24
t0 -58q-6 -33 -20 -62l-16 5q13 30 17 56q5 29 -5 45h-2q-5 0 -9.5 2.5t-7 7t-2.5 9.5q0 7 5.5 12.5t13.5 6.5z" />
    <glyph glyph-name="Ncaron" unicode="&#x147;" horiz-adv-x="849" 
d="M439 782h-28l-100 135h22l92 -117l92 117h22zM774 684l-72 -6q-9 0 -9 -10v-668h-23l-491 664v-631q0 -9 9 -10l86 -7v-16h-199v11q0 5 5 5l67 6q9 0 9 10v636q0 10 -9 10l-67 6q-5 0 -5 5v11h104l491 -664v631q0 9 -9 10l-81 7q-4 0 -4 5v11h198v-16z" />
    <glyph glyph-name="ncaron" unicode="&#x148;" horiz-adv-x="699" 
d="M364 582h-28l-100 135h22l92 -117l92 117h22zM395 510q72 0 114 -41t42 -126v-312q0 -9 9 -10l74 -6v-15h-97q-5 0 -5 5v338q0 79 -36.5 116t-100.5 37q-103 0 -232 -80v-385q0 -9 9 -10l74 -6v-15h-171v11q0 4 5 4l55 5q9 1 9 10v443q0 9 -10 10l-59 3v14l82 4q6 1 6 -5
v-65q127 76 232 76z" />
    <glyph glyph-name="Eng" unicode="&#x14a;" horiz-adv-x="854" 
d="M774 684l-71 -6q-9 0 -9 -10v-633q0 -85 -42.5 -146t-118.5 -86l-7 16q59 20 97 67.5t45 115.5l-489 662v-631q0 -9 9 -10l86 -7v-16h-199v11q0 5 5 5l67 6q9 0 9 10v636q0 10 -9 10l-67 6q-5 0 -5 5v11h104l491 -664v631q0 9 -9 10l-81 7q-4 0 -4 5v11h198v-16z" />
    <glyph glyph-name="eng" unicode="&#x14b;" horiz-adv-x="709" 
d="M395 510q47 0 81 -17t54.5 -55t20.5 -95v-446q0 -40 -25.5 -63.5t-69.5 -23.5q-42 0 -68 22l13 11q21 -19 55 -19q35 0 55.5 19.5t20.5 53.5v446q0 79 -36.5 116t-100.5 37q-103 0 -232 -80v-385q0 -9 9 -10l74 -6v-15h-171v11q0 4 5 4l55 5q9 1 9 10v443q0 9 -10 10
l-59 3v14l82 4q6 1 6 -5v-65q127 76 232 76z" />
    <glyph glyph-name="Omacron" unicode="&#x14c;" horiz-adv-x="784" 
d="M515 817h-246v17h246v-17zM392 710q150 0 241 -99t91 -261t-91 -261t-241 -99t-241 99t-91 261t91 261t241 99zM392.5 693q-139.5 0 -224 -93.5t-84.5 -249.5t84.5 -249.5t224 -93.5t223.5 93.5t84 249.5t-84 249.5t-223.5 93.5z" />
    <glyph glyph-name="omacron" unicode="&#x14d;" 
d="M423 617h-246v17h246v-17zM300 510q108 0 174 -71.5t66 -188.5t-66 -188.5t-174 -71.5q-72 0 -126.5 32.5t-84 91.5t-29.5 136q0 117 66 188.5t174 71.5zM300 496q-100 0 -160.5 -67t-60.5 -179t60.5 -179t160.5 -67t160.5 67t60.5 179q0 74 -27.5 130t-77.5 86t-116 30z
" />
    <glyph glyph-name="Ohungarumlaut" unicode="&#x150;" horiz-adv-x="784" 
d="M344 782h-22l100 135h28zM454 782h-21l99 135h28zM392 710q99 0 174.5 -45t116.5 -127t41 -188q0 -162 -91 -261t-241 -99t-241 99t-91 261t91 261t241 99zM392.5 693q-139.5 0 -224 -93.5t-84.5 -249.5t84.5 -249.5t224 -93.5t223.5 93.5t84 249.5t-84 249.5
t-223.5 93.5z" />
    <glyph glyph-name="ohungarumlaut" unicode="&#x151;" 
d="M252 582h-22l100 135h28zM362 582h-21l99 135h28zM300 510q108 0 174 -71.5t66 -188.5t-66 -188.5t-174 -71.5t-174 71.5t-66 188.5t66 188.5t174 71.5zM300 496q-100 0 -160.5 -67t-60.5 -179t60.5 -179t160.5 -67t160.5 67t60.5 179q0 74 -27.5 130t-77.5 86t-116 30z
" />
    <glyph glyph-name="OE" unicode="&#x152;" horiz-adv-x="1115" 
d="M392 710q111 0 192 -56.5t116 -156.5v203h350q5 0 5 -5v-107h-16l-7 86q0 9 -10 9h-299v-317h257v-17h-257v-332h319q10 0 10 9l7 86h16v-107q0 -5 -5 -5h-370v202q-35 -99 -116 -155.5t-192 -56.5q-150 0 -241 99t-91 261t91 261t241 99zM392.5 693q-139.5 0 -224 -93.5
t-84.5 -249.5t84.5 -249.5t224 -93.5t223.5 93.5t84 249.5t-84 249.5t-223.5 93.5z" />
    <glyph glyph-name="oe" unicode="&#x153;" horiz-adv-x="1012" 
d="M746 510q70 0 117.5 -31t69 -84.5t23.5 -128.5l1 -5q0 -11 -11 -11h-405q0 -112 56 -179t148 -67q113 0 176 68l14 -10q-30 -32 -79.5 -52t-109.5 -20q-55 0 -99.5 22t-74 62.5t-42.5 95.5q-20 -84 -81 -132t-149 -48q-108 0 -174 71.5t-66 188.5t66 188.5t174 71.5
q88 0 149 -48t81 -132q20 84 77 132t139 48zM300 496q-100 0 -160.5 -67t-60.5 -179t60.5 -179t160.5 -67t160.5 67t60.5 179t-60.5 179t-160.5 67zM745 496q-89 0 -144.5 -63t-59.5 -169h391q5 0 5 6q-7 226 -192 226z" />
    <glyph glyph-name="Racute" unicode="&#x154;" horiz-adv-x="667" 
d="M334 782h-22l100 135h28zM80 700h280q91 0 145.5 -48.5t54.5 -128.5q0 -53 -24.5 -93t-70 -61.5t-105.5 -21.5h-2l197 -322q3 -3 7 -4l65 -5v-16h-80q-2 0 -3 2l-211 345h-149v-314q0 -9 9 -10l85 -7v-16h-198v11q0 5 5 5l67 6q9 0 9 10v636q0 10 -9 10l-67 6q-5 0 -5 5
v11zM264 683l-80 -7v-312h176q82 0 129 42.5t47 116.5t-47 117t-129 43h-96z" />
    <glyph glyph-name="racute" unicode="&#x155;" horiz-adv-x="412" 
d="M206 582h-22l100 135h28zM325 501q26 6 51 8q6 1 6 -5v-97h-15l-6 75q-1 12 -12 9q-11 -2 -22 -5q-74 -20 -164 -91v-364q0 -9 9 -10l74 -6v-15h-171v10q0 5 5 5l55 5q9 1 9 10v443q0 9 -10 10l-59 3v14l82 4q6 1 6 -5v-84q86 66 162 86z" />
    <glyph glyph-name="Rcommaaccent" unicode="&#x156;" horiz-adv-x="667" 
d="M80 700h280q91 0 145.5 -48.5t54.5 -128.5q0 -53 -24.5 -93t-70 -61.5t-105.5 -21.5h-2l197 -322q3 -3 7 -4l65 -5v-16h-80q-2 0 -3 2l-211 345h-149v-314q0 -9 9 -10l85 -7v-16h-198v11q0 5 5 5l67 6q9 0 9 10v636q0 10 -9 10l-67 6q-5 0 -5 5v11zM264 683l-80 -7v-312
h176q81 0 128.5 42.5t47.5 116.5q0 49 -21.5 85.5t-61 55.5t-93.5 19h-96zM329 -61q19 0 26 -24t0 -58q-6 -33 -20 -62l-16 5q13 30 17 56q5 29 -5 45h-2q-8 0 -13.5 5.5t-5.5 13.5q0 7 5.5 12.5t13.5 6.5z" />
    <glyph glyph-name="rcommaaccent" unicode="&#x157;" horiz-adv-x="412" 
d="M325 501q26 6 51 8q6 1 6 -5v-97h-15l-6 75q-1 12 -12 9q-11 -2 -22 -5q-74 -20 -164 -91v-364q0 -9 9 -10l74 -6v-15h-171v10q0 5 5 5l55 5q9 1 9 10v443q0 9 -10 10l-59 3v14l82 4q6 1 6 -5v-84q86 66 162 86zM201 -61q19 0 26 -24t0 -58q-6 -33 -20 -62l-16 5
q13 30 17 56q5 29 -5 45h-2q-8 0 -13.5 5.5t-5.5 13.5q0 7 5.5 12.5t13.5 6.5z" />
    <glyph glyph-name="Rcaron" unicode="&#x158;" horiz-adv-x="667" 
d="M348 782h-28l-100 135h22l92 -117l92 117h22zM80 700h280q91 0 145.5 -48.5t54.5 -128.5q0 -53 -24.5 -93t-70 -61.5t-105.5 -21.5h-2l197 -322q3 -3 7 -4l65 -5v-16h-80q-2 0 -3 2l-211 345h-149v-314q0 -9 9 -10l85 -7v-16h-198v11q0 5 5 5l67 6q9 0 9 10v636
q0 10 -9 10l-67 6q-5 0 -5 5v11zM264 683l-80 -7v-312h176q81 0 128.5 42.5t47.5 116.5t-47.5 117t-128.5 43h-96z" />
    <glyph glyph-name="rcaron" unicode="&#x159;" horiz-adv-x="412" 
d="M220 582h-28l-100 135h22l92 -117l92 117h22zM325 501q26 6 51 8q6 1 6 -5v-97h-15l-6 75q-1 12 -12 9q-11 -2 -22 -5q-74 -20 -164 -91v-364q0 -9 9 -10l74 -6v-15h-171v11q0 4 5 4l55 5q9 1 9 10v443q0 9 -10 10l-59 3v14l82 4q6 1 6 -5v-84q86 66 162 86z" />
    <glyph glyph-name="Sacute" unicode="&#x15a;" horiz-adv-x="572" 
d="M286 782h-22l100 135h28zM315 710q89 0 150 -37q2 -1 2 -3v-110h-16l-8 99q0 5 -4 7q-52 27 -124 27q-95 0 -150.5 -38.5t-55.5 -99.5q0 -41 13 -65.5t51 -51t123 -68.5q85 -43 127.5 -72.5t58 -57t15.5 -68.5q0 -52 -32.5 -93.5t-90 -65t-131.5 -23.5q-101 0 -166 39
q-2 1 -2 4v109h16l7 -99q1 -5 5 -7q58 -29 140 -29q104 0 167 45t63 120q0 38 -14 63t-52.5 52t-121.5 68q-89 44 -130 72.5t-55.5 56t-14.5 71.5q0 33 16.5 61.5t46 49.5t72.5 32.5t95 11.5z" />
    <glyph glyph-name="sacute" unicode="&#x15b;" horiz-adv-x="442" 
d="M221 582h-22l100 135h28zM251 510q65 0 111 -25q3 -1 3 -4v-100h-15l-8 92q0 5 -5 7q-36 16 -86 16q-69 0 -110.5 -27.5t-41.5 -70.5q0 -41 23.5 -64.5t109.5 -66.5q89 -45 117 -73t28 -71q0 -58 -54.5 -95.5t-139.5 -37.5q-67 0 -116 23q-2 1 -2 4v99h15l7 -90
q1 -6 6 -8q39 -14 90 -14q80 0 127.5 32.5t47.5 86.5q0 40 -24.5 64.5t-110.5 67.5q-91 45 -117 71.5t-26 71.5q0 49 47 80.5t124 31.5z" />
    <glyph glyph-name="Scedilla" unicode="&#x15e;" horiz-adv-x="572" 
d="M315 710q89 0 150 -37q2 -1 2 -3v-110h-16l-8 99q0 5 -4 7q-52 27 -124 27q-95 0 -150.5 -38.5t-55.5 -99.5q0 -41 13 -65.5t51 -51t122 -68.5q65 -32 103 -55t61 -46.5t30.5 -44.5t7.5 -52q0 -46 -25.5 -84.5t-72 -63t-107.5 -31.5l-17 -52q6 0 17 -2q27 -5 44.5 -24
t17.5 -44q0 -29 -23.5 -49t-56.5 -20q-34 0 -56 20l5 17q24 -20 52 -20q22 0 38 14t17 38q0 27 -17.5 39.5t-43.5 13.5q-7 0 -19 -2l22 69q-10 -1 -29 -1q-101 0 -166 39q-2 1 -2 4v109h16l7 -99q1 -5 5 -7q58 -29 140 -29q104 0 167 45t63 120q0 38 -14 63t-52.5 52
t-121.5 68q-68 33 -105 55t-59.5 45.5t-29 44.5t-6.5 55q0 68 63 111.5t167 43.5z" />
    <glyph glyph-name="scedilla" unicode="&#x15f;" horiz-adv-x="442" 
d="M251 510q65 0 111 -25q3 -1 3 -4v-100h-15l-8 92q0 5 -5 7q-36 16 -86 16q-69 0 -110.5 -27.5t-41.5 -70.5q0 -41 23.5 -64.5t109.5 -66.5q89 -45 117 -73t28 -71q0 -50 -41 -85.5t-109 -44.5l-17 -52q6 0 17 -2q27 -5 44.5 -24t17.5 -44q0 -29 -23.5 -49t-56.5 -20
q-34 0 -56 20l5 17q24 -20 52 -20q14 0 26 6t20 18t9 28q0 19 -9.5 31t-22.5 16.5t-29 5.5q-7 0 -19 -2l22 69l-24 -1q-67 0 -116 23q-2 1 -2 4v99h15l7 -90q1 -6 6 -8q39 -14 90 -14q80 0 127.5 32.5t47.5 86.5q0 40 -24.5 64.5t-110.5 67.5q-91 45 -117 71.5t-26 71.5
q0 49 47 80.5t124 31.5z" />
    <glyph glyph-name="Scaron" unicode="&#x160;" horiz-adv-x="572" 
d="M300 782h-28l-100 135h22l92 -117l92 117h22zM315 710q89 0 150 -37q2 -1 2 -3v-110h-16l-8 99q0 5 -4 7q-52 27 -124 27q-95 0 -150.5 -38.5t-55.5 -99.5q0 -41 13 -65.5t51 -51t122 -68.5q86 -43 128.5 -72.5t58 -57t15.5 -68.5q0 -52 -32.5 -93.5t-90 -65
t-131.5 -23.5q-101 0 -166 39q-2 1 -2 4v109h16l7 -99q1 -5 5 -7q58 -29 140 -29q104 0 167 45t63 120q0 38 -14 63t-52.5 52t-121.5 68q-89 44 -130 72.5t-55.5 56t-14.5 71.5q0 68 63 111.5t167 43.5z" />
    <glyph glyph-name="scaron" unicode="&#x161;" horiz-adv-x="442" 
d="M235 582h-28l-100 135h22l92 -117l92 117h22zM251 510q65 0 111 -25q3 -1 3 -4v-100h-15l-8 92q0 5 -5 7q-36 16 -86 16q-69 0 -110.5 -27.5t-41.5 -70.5q0 -41 23.5 -64.5t109.5 -66.5q89 -45 117 -73t28 -71q0 -58 -54.5 -95.5t-139.5 -37.5q-67 0 -116 23q-2 1 -2 4
v99h15l7 -90q1 -6 6 -8q39 -14 90 -14q80 0 127.5 32.5t47.5 86.5q0 40 -24.5 64.5t-110.5 67.5q-91 45 -117 71.5t-26 71.5q0 49 47 80.5t124 31.5z" />
    <glyph glyph-name="Tcedilla" unicode="&#x162;" horiz-adv-x="636" 
d="M35 700h566q5 0 5 -5v-107h-16l-7 86q0 9 -10 9h-244v-651q0 -9 9 -10l74 -6v-16h-86l-19 -59q6 0 17 -2q27 -5 44.5 -24t17.5 -44q0 -29 -23.5 -49t-56.5 -20q-34 0 -56 20l5 17q24 -20 52 -20q14 0 26 6t20 18t9 28q0 27 -17.5 39.5t-43.5 13.5q-7 0 -19 -2l25 78h-83
v11q0 5 5 5l68 6q9 1 9 10v651h-244q-9 0 -10 -9l-6 -86h-16v107q0 5 5 5z" />
    <glyph glyph-name="tcedilla" unicode="&#x163;" horiz-adv-x="369" 
d="M138 500h146v-14l-146 -8v-403q0 -35 20 -54t56 -19q49 0 68 37l17 -6q-23 -45 -85 -45q-10 0 -25 2l-16 -49q6 0 17 -2q27 -5 44.5 -24t17.5 -44q0 -29 -23.5 -49t-56.5 -20q-34 0 -56 20l5 17q24 -20 52 -20q14 0 26 6t20 18t9 28q0 19 -9.5 31t-22.5 16.5t-29 5.5
q-7 0 -19 -2l23 73q-52 20 -52 80v404l-64 3q-5 0 -5 5v13h69v125l19 1v-126z" />
    <glyph glyph-name="Tcaron" unicode="&#x164;" horiz-adv-x="636" 
d="M332 782h-28l-100 135h22l92 -117l92 117h22zM35 700h566q5 0 5 -5v-107h-16l-7 86q0 9 -10 9h-244v-651q0 -9 9 -10l74 -6v-16h-188v11q0 5 5 5l68 6q9 1 9 10v651h-244q-9 0 -10 -9l-6 -86h-16v107q0 5 5 5z" />
    <glyph glyph-name="tcaron" unicode="&#x165;" horiz-adv-x="342" 
d="M298 750q19 0 26 -24t-1 -58q-6 -33 -20 -62l-15 5q13 30 17 56q4 29 -5 45h-2q-8 0 -13.5 5.5t-5.5 13.5q0 7 5.5 12.5t13.5 6.5zM138 500h146v-14l-146 -8v-403q0 -35 20 -54t56 -19q49 0 68 37l17 -6q-23 -45 -85 -45q-44 0 -69.5 23.5t-25.5 63.5v404l-64 3
q-5 0 -5 5v13h69v125l19 1v-126z" />
    <glyph glyph-name="Tbar" unicode="&#x166;" horiz-adv-x="636" 
d="M35 700h566q5 0 5 -5v-107h-16l-7 86q0 9 -10 9h-244v-325h112v-16h-112v-310q0 -9 9 -10l74 -6v-16h-188v11q0 5 5 5l68 6q9 1 9 10v310h-111v17h111v324h-244q-9 0 -10 -9l-6 -86h-16v107q0 5 5 5z" />
    <glyph glyph-name="tbar" unicode="&#x167;" horiz-adv-x="369" 
d="M282 39l17 -6q-23 -45 -85 -45q-44 0 -69.5 23.5t-25.5 63.5v232h-69v17h69v155l-64 3q-5 0 -5 5v13h69v125l19 1v-126h146v-14l-146 -8v-154h146v-17h-146v-232q0 -35 20 -54t56 -19q49 0 68 37z" />
    <glyph glyph-name="Utilde" unicode="&#x168;" horiz-adv-x="834" 
d="M512 858l24 -6q-7 -22 -22.5 -37t-35.5 -17q-28 -2 -68 19q-6 3 -17 9t-17 9.5t-13.5 6.5t-12.5 3q-9 1 -16 -8.5t-12 -35.5l-23 4q13 58 52 56q6 0 13.5 -2.5t15.5 -6t14.5 -7t15 -8t12.5 -6.5q35 -18 53 -17q25 3 37 44zM759 684l-71 -6q-9 0 -9 -10v-397
q0 -126 -71 -203.5t-188 -77.5q-78 0 -137 35t-91 99t-32 147v397q0 10 -9 10l-66 6q-5 0 -5 5v11h198v-16l-85 -7q-9 -1 -9 -10v-396q0 -121 64.5 -192.5t171.5 -71.5t174.5 72t67.5 192v395q0 9 -9 10l-92 8v16h198v-16z" />
    <glyph glyph-name="utilde" unicode="&#x169;" horiz-adv-x="689" 
d="M440 658l24 -6q-7 -22 -22.5 -37t-35.5 -17q-28 -2 -68 19q-6 3 -17 9t-17 9.5t-13.5 6.5t-12.5 3q-9 1 -16 -8.5t-12 -35.5l-23 4q13 58 52 56q6 0 13.5 -2.5t15.5 -6t14.5 -7t15 -8t12.5 -6.5q35 -18 53 -17q25 3 37 44zM65 500h97q5 0 5 -5v-338q0 -79 36.5 -116
t100.5 -37q103 0 232 80v385q0 9 -9 10l-74 6v15h97q5 0 5 -5v-468q0 -10 10 -10l59 -3v-14l-82 -5q-6 0 -6 6v65q-127 -76 -232 -76q-71 0 -113.5 41t-42.5 126v312q0 9 -9 10l-74 6v15z" />
    <glyph glyph-name="Umacron" unicode="&#x16a;" horiz-adv-x="834" 
d="M540 817h-246v17h246v-17zM759 684l-71 -6q-9 0 -9 -10v-397q0 -126 -71 -203.5t-188.5 -77.5t-188.5 77.5t-71 203.5v397q0 10 -9 10l-66 6q-5 0 -5 5v11h198v-16l-85 -7q-9 -1 -9 -10v-396q0 -121 64.5 -192.5t171.5 -71.5t174.5 72t67.5 192v395q0 9 -9 10l-92 8v16
h198v-16z" />
    <glyph glyph-name="umacron" unicode="&#x16b;" horiz-adv-x="689" 
d="M468 617h-246v17h246v-17zM65 500h97q5 0 5 -5v-338q0 -79 36.5 -116t100.5 -37q103 0 232 80v385q0 9 -9 10l-74 6v15h97q5 0 5 -5v-468q0 -10 10 -10l59 -3v-14l-82 -5q-6 0 -6 6v65q-127 -76 -232 -76q-71 0 -113.5 41t-42.5 126v312q0 9 -9 10l-74 6v15z" />
    <glyph glyph-name="Uring" unicode="&#x16e;" horiz-adv-x="834" 
d="M417 934q37 0 63 -26t26 -63t-26 -63t-63 -26t-63 26t-26 63t26 63t63 26zM417 917q-13 0 -25 -5.5t-20.5 -15t-14 -22.5t-5.5 -29q0 -31 19 -51.5t46 -20.5t46 20.5t19 51.5q0 21 -9 37.5t-24 25.5t-32 9zM759 684l-71 -6q-9 0 -9 -10v-397q0 -126 -71 -203.5
t-188.5 -77.5t-188.5 77.5t-71 203.5v397q0 10 -9 10l-66 6q-5 0 -5 5v11h198v-16l-85 -7q-9 -1 -9 -10v-396q0 -121 64.5 -192.5t171.5 -71.5t174.5 72t67.5 192v395q0 9 -9 10l-92 8v16h198v-16z" />
    <glyph glyph-name="uring" unicode="&#x16f;" horiz-adv-x="689" 
d="M345 734q37 0 63 -26t26 -63t-26 -63t-63 -26t-63 26t-26 63t26 63t63 26zM345 717q-27 0 -46 -20.5t-19 -51.5q0 -20 9 -36.5t24 -26t32 -9.5q27 0 46 20.5t19 51.5q0 21 -9 37.5t-24 25.5t-32 9zM65 500h97q5 0 5 -5v-338q0 -79 36.5 -116t100.5 -37q103 0 232 80v385
q0 9 -9 10l-74 6v15h97q5 0 5 -5v-468q0 -10 10 -10l59 -3v-14l-82 -5q-6 0 -6 6v65q-127 -76 -232 -76q-71 0 -113.5 41t-42.5 126v312q0 9 -9 10l-74 6v15z" />
    <glyph glyph-name="Uhungarumlaut" unicode="&#x170;" horiz-adv-x="834" 
d="M369 782h-22l100 135h28zM479 782h-21l99 135h28zM759 684l-71 -6q-9 0 -9 -10v-397q0 -126 -71 -203.5t-188.5 -77.5t-188.5 77.5t-71 203.5v397q0 10 -9 10l-66 6q-5 0 -5 5v11h198v-16l-85 -7q-9 -1 -9 -10v-396q0 -121 64.5 -192.5t171.5 -71.5t174.5 72t67.5 192
v395q0 9 -9 10l-92 8v16h198v-16z" />
    <glyph glyph-name="uhungarumlaut" unicode="&#x171;" horiz-adv-x="689" 
d="M297 582h-22l100 135h28zM407 582h-21l99 135h28zM65 500h97q5 0 5 -5v-338q0 -79 36.5 -116t100.5 -37q103 0 232 80v385q0 9 -9 10l-74 6v15h97q5 0 5 -5v-468q0 -10 10 -10l59 -3v-14l-82 -5q-6 0 -6 6v65q-127 -76 -232 -76q-71 0 -113.5 41t-42.5 126v312q0 9 -9 10
l-74 6v15z" />
    <glyph glyph-name="Uogonek" unicode="&#x172;" horiz-adv-x="834" 
d="M278 684l-85 -7q-9 -1 -9 -10v-396q0 -121 64.5 -192.5t171.5 -71.5t174.5 72t67.5 192v395q0 9 -9 10l-92 8v16h198v-16l-71 -6q-9 0 -9 -10v-397q0 -98 -44.5 -168.5t-122.5 -97.5q-78 -45 -78 -111q0 -19 6 -34t18 -23t28 -8q22 -1 61 21l5 -19q-37 -21 -67 -19
q-34 0 -54.5 23.5t-20.5 58.5q0 57 50 99q-20 -3 -40 -3q-118 0 -189 77.5t-71 203.5v397q0 10 -9 10l-66 6q-5 0 -5 5v11h198v-16z" />
    <glyph glyph-name="uogonek" unicode="&#x173;" horiz-adv-x="689" 
d="M65 500h97q5 0 5 -5v-338q0 -79 36.5 -116t100.5 -37q103 0 232 80v385q0 9 -9 10l-74 6v15h97q5 0 5 -5v-468q0 -10 10 -10l59 -3v-14l-60 -4q-63 -42 -63 -101q0 -29 14 -47t38 -18q22 -1 61 21l5 -19q-36 -21 -66 -19q-35 0 -55.5 23.5t-20.5 58.5q0 63 59 106v65
q-127 -76 -232 -76q-71 0 -113.5 41t-42.5 126v312q0 9 -9 10l-74 6v15z" />
    <glyph glyph-name="Wcircumflex" unicode="&#x174;" horiz-adv-x="1081" 
d="M654 782h-22l-92 117l-92 -117h-22l100 135h28zM1051 684l-54 -5l-202 -678l-15 -1l-242 664l-244 -663l-14 -1l-200 674q-1 6 -8 6l-37 4q-5 0 -5 5v11h69l192 -656l226 618q2 6 -1 10.5t-9 4.5l-85 8q-4 0 -4 5v10h133l238 -656l183 619q1 3 0.5 5.5t-2 4.5t-3.5 3
t-5 1l-88 8q-4 0 -4 5v10h181v-16z" />
    <glyph glyph-name="wcircumflex" unicode="&#x175;" horiz-adv-x="855" 
d="M542 582h-22l-92 117l-92 -117h-22l100 135h28zM835 485l-56 -5l-174 -480h-17l-165 456l-166 -456h-16l-172 475q-2 5 -8 6l-37 3q-4 1 -4 5v11h59l172 -475l159 438q2 6 -1 10.5t-9 4.5l-78 7q-5 0 -5 5v10h109l172 -475l159 438q2 6 -1 10.5t-9 4.5l-79 7q-4 0 -4 5
v10h171v-15z" />
    <glyph glyph-name="Ycircumflex" unicode="&#x176;" horiz-adv-x="676" 
d="M452 782h-22l-92 117l-92 -117h-22l100 135h28zM646 684l-54 -5l-239 -426v-221q0 -9 9 -10l73 -6v-16h-187v11q0 5 4 5l69 6q9 1 9 10v215l-243 428q-2 4 -7 5l-45 4q-5 0 -5 4v12h69l244 -426l218 386q4 6 1 11.5t-10 6.5l-83 7q-4 0 -4 5v10h181v-16z" />
    <glyph glyph-name="ycircumflex" unicode="&#x177;" horiz-adv-x="548" 
d="M391 582h-22l-92 117l-92 -117h-22l100 135h28zM528 485l-57 -5l-266 -667q-1 -3 -4 -3h-99v15l90 7q6 0 8 6l62 157h-5l-191 480q-2 5 -7 6l-35 3q-4 1 -4 5v11h56l194 -487l179 450q2 6 -1 10.5t-9 4.5l-77 7q-5 0 -5 5v10h171v-15z" />
    <glyph glyph-name="Ydieresis" unicode="&#x178;" horiz-adv-x="676" 
d="M271 855q8 0 13.5 -5.5t5.5 -13.5t-5.5 -13.5t-13.5 -5.5q-5 0 -9.5 2.5t-7 7t-2.5 9.5q0 8 5.5 13.5t13.5 5.5zM405 855q8 0 13.5 -5.5t5.5 -13.5t-5.5 -13.5t-13.5 -5.5t-13.5 5.5t-5.5 13.5q0 5 2.5 9.5t7 7t9.5 2.5zM646 684l-54 -5l-239 -426v-221q0 -9 9 -10l73 -6
v-16h-187v11q0 5 4 5l69 6q9 1 9 10v215l-243 428q-2 4 -7 5l-45 4q-5 0 -5 4v12h69l244 -426l218 386q4 6 1 11.5t-10 6.5l-83 7q-4 0 -4 5v10h181v-16z" />
    <glyph glyph-name="Zacute" unicode="&#x179;" horiz-adv-x="582" 
d="M291 782h-22l100 135h28zM538 683l-469 -666h441q9 0 10 9l7 86h15v-107q0 -5 -5 -5h-497v17l468 666h-410q-9 0 -10 -9l-6 -86h-16v107q0 5 5 5h467v-17z" />
    <glyph glyph-name="zacute" unicode="&#x17a;" horiz-adv-x="503" 
d="M252 582h-22l100 135h28zM432 486l-344 -472h319q9 0 10 9l6 79h15v-97q0 -5 -5 -5h-368v14l344 472h-297q-9 0 -10 -9l-6 -79h-15v97q0 5 5 5h346v-14z" />
    <glyph glyph-name="Zdotaccent" unicode="&#x17b;" horiz-adv-x="582" 
d="M291 855q8 0 13.5 -5.5t5.5 -13.5t-5.5 -13.5t-13.5 -5.5t-13.5 5.5t-5.5 13.5t5.5 13.5t13.5 5.5zM538 683l-469 -666h441q9 0 10 9l7 86h15v-107q0 -5 -5 -5h-497v17l468 666h-410q-9 0 -10 -9l-6 -86h-16v107q0 5 5 5h467v-17z" />
    <glyph glyph-name="zdotaccent" unicode="&#x17c;" horiz-adv-x="503" 
d="M252 655q5 0 9.5 -2.5t7 -7t2.5 -9.5q0 -8 -5.5 -13.5t-13.5 -5.5q-5 0 -9.5 2.5t-7 7t-2.5 9.5q0 8 5.5 13.5t13.5 5.5zM432 486l-344 -472h319q9 0 10 9l6 79h15v-97q0 -5 -5 -5h-368v14l344 472h-297q-9 0 -10 -9l-6 -79h-15v97q0 5 5 5h346v-14z" />
    <glyph glyph-name="Zcaron" unicode="&#x17d;" horiz-adv-x="582" 
d="M305 782h-28l-100 135h22l92 -117l92 117h22zM538 683l-469 -666h441q9 0 10 9l7 86h15v-107q0 -5 -5 -5h-497v17l468 666h-410q-9 0 -10 -9l-6 -86h-16v107q0 5 5 5h467v-17z" />
    <glyph glyph-name="zcaron" unicode="&#x17e;" horiz-adv-x="503" 
d="M266 582h-28l-100 135h22l92 -117l92 117h22zM432 486l-344 -472h319q9 0 10 9l6 79h15v-97q0 -5 -5 -5h-368v14l344 472h-297q-9 0 -10 -9l-6 -79h-15v97q0 5 5 5h346v-14z" />
    <glyph glyph-name="longs" unicode="&#x17f;" horiz-adv-x="416" 
d="M299 750q63 -1 117 -36l-11 -12q-50 33 -106 34q-58 0 -97 -35.5t-39 -101.5v-568q0 -9 9 -10l78 -6v-15h-171v10q0 5 4 5l52 5q9 1 9 10v449l-64 3q-5 0 -5 5v13h69v99q0 72 45 111.5t110 39.5z" />
    <glyph glyph-name="florin" unicode="&#x192;" horiz-adv-x="416" 
d="M299 750q63 -1 117 -36l-11 -12q-50 33 -106 34q-58 0 -97 -35.5t-39 -101.5v-181h154v-14l-154 -8v-499q0 -38 -23 -61q-24 -23 -65 -26v14q35 3 52 23q17 19 17 50v500l-64 3q-5 1 -5 5v13h69v181q0 72 45 111.5t110 39.5z" />
    <glyph glyph-name="Ohorn" unicode="&#x1a0;" horiz-adv-x="784" 
d="M707 834l21 8q34 -59 27 -115q-3 -28 -17 -49.5t-40.5 -34.5t-63.5 -13q-11 0 -23 2q36 -32 61.5 -74.5t38.5 -95t13 -112.5q0 -162 -91 -261t-241 -99t-241 99t-91 261t91 261t241 99q98 0 174 -45q33 -18 68 -18q44 0 68.5 22t28.5 60q6 51 -24 105zM392.5 693
q-139.5 0 -224 -93.5t-84.5 -249.5t84.5 -249.5t224 -93.5t223.5 93.5t84 249.5t-84 249.5t-223.5 93.5z" />
    <glyph glyph-name="ohorn" unicode="&#x1a1;" 
d="M558 640l17 7q33 -60 27 -115q-5 -44 -36.5 -71t-88.5 -26q63 -71 63 -185q0 -117 -66 -188.5t-174 -71.5t-174 71.5t-66 188.5t66 188.5t174 71.5q98 0 163 -60q9 -1 18 -1q46 -1 71.5 22t30.5 62q6 52 -25 107zM300 496q-100 0 -160.5 -67t-60.5 -179t60.5 -179
t160.5 -67t160.5 67t60.5 179t-60.5 179t-160.5 67z" />
    <glyph glyph-name="Uhorn" unicode="&#x1af;" horiz-adv-x="839" 
d="M756 835l14 14q38 -27 50 -63q9 -28 -2.5 -53.5t-44.5 -40.5q-19 -9 -41 -10l-44 -4q-9 0 -9 -10v-397q0 -126 -71 -203.5t-188 -77.5q-78 0 -137 35t-91 99t-32 147v397q0 10 -9 10l-66 6q-5 0 -5 5v11h198v-16l-85 -7q-9 -1 -9 -10v-396q0 -121 64.5 -192.5
t171.5 -71.5t174.5 72t67.5 192v395q0 9 -9 10l-92 8v16h179q11 2 23 7q24 11 32.5 31t1.5 43q-11 33 -41 54z" />
    <glyph glyph-name="uhorn" unicode="&#x1b0;" horiz-adv-x="689" 
d="M596 642l11 11q38 -27 49 -63q5 -14 4.5 -27.5t-6 -25.5t-17 -23t-28.5 -18q-24 -12 -54 -11v-458q0 -10 10 -10l59 -3v-14l-82 -5q-6 0 -6 6v65q-127 -76 -232 -76q-71 0 -113.5 41t-42.5 126v312q0 9 -9 10l-74 6v15h97q5 0 5 -5v-338q0 -79 36.5 -116t100.5 -37
q103 0 232 80v385q0 9 -9 10l-74 6v15h98q27 -2 50 8q26 12 35.5 33t1.5 44q-11 34 -42 57z" />
    <glyph glyph-name="DZcaron" unicode="&#x1c4;" horiz-adv-x="1340" 
d="M1062 782h-28l-99 135h21l92 -117l92 117h22zM80 700h285q151 0 241.5 -95t90.5 -255.5t-90.5 -255t-241.5 -94.5h-285v11q0 5 5 5l67 6q9 0 9 10v636q0 10 -9 10l-67 6q-5 0 -5 5v11zM1296 683l-469 -666h440q10 0 10 9l7 86h16v-107q0 -5 -5 -5h-498v17l469 666h-410
q-10 0 -10 -9l-7 -86h-16v107q0 5 5 5h468v-17zM264 683l-80 -7v-652l80 -7h101q141 0 224.5 89t83.5 244q0 103 -38 178.5t-107.5 115t-162.5 39.5h-101z" />
    <glyph glyph-name="Dzcaron" unicode="&#x1c5;" horiz-adv-x="1260" 
d="M1023 582h-28l-99 135h21l92 -117l92 117h22zM80 700h285q151 0 241.5 -95t90.5 -255.5t-90.5 -255t-241.5 -94.5h-285v11q0 5 5 5l67 6q9 0 9 10v636q0 10 -9 10l-67 6q-5 0 -5 5v11zM264 683l-80 -7v-652l80 -7h101q141 0 224.5 89t83.5 244t-83.5 244t-224.5 89h-101z
M1189 486l-344 -472h319q9 0 10 9l7 79h14v-97q0 -5 -5 -5h-368v14l345 472h-298q-9 0 -9 -9l-7 -79h-15v97q0 5 5 5h346v-14z" />
    <glyph glyph-name="dzcaron" unicode="&#x1c6;" horiz-adv-x="1158" 
d="M408 746l83 4q5 0 5 -5v-714q0 -9 9 -10l74 -6v-15h-97q-5 0 -5 5v60q-66 -75 -177 -75q-108 0 -174 71.5t-66 188.5t66 188.5t174 71.5q111 0 177 -75v283q0 10 -10 11l-59 3v14zM920 582h-28l-99 135h21l92 -117l92 117h22zM1087 486l-345 -472h319q10 0 10 9l7 79h15
v-97q0 -5 -6 -5h-368v14l345 472h-297q-10 0 -10 -9l-7 -79h-15v97q0 5 5 5h347v-14zM300 496q-66 0 -116 -30t-77.5 -86t-27.5 -130q0 -112 60.5 -179t160.5 -67q116 0 177 88v316q-61 88 -177 88z" />
    <glyph glyph-name="LJ" unicode="&#x1c7;" horiz-adv-x="922" 
d="M842 684l-71 -6q-9 0 -9 -10v-633q0 -56 -19.5 -103t-56 -80t-85.5 -49l-8 16q44 15 76.5 45t50.5 74t18 97v632q0 9 -9 10l-81 7q-5 0 -5 5v11h199v-16zM278 684l-85 -7q-9 -1 -9 -10v-650h307q9 0 10 9l6 86h16v-107q0 -5 -5 -5h-438v11q0 5 5 5l67 6q9 0 9 10v636
q0 10 -9 10l-67 6q-5 0 -5 5v11h198v-16z" />
    <glyph glyph-name="Lj" unicode="&#x1c8;" horiz-adv-x="810" 
d="M716 700q8 0 13.5 -5.5t5.5 -13.5t-5.5 -13.5t-13.5 -5.5t-13.5 5.5t-5.5 13.5q0 5 2.5 9.5t7 7t9.5 2.5zM278 684l-85 -7q-9 -1 -9 -10v-650h307q9 0 10 9l6 86h16v-107q0 -5 -5 -5h-438v11q0 5 5 5l67 6q9 0 9 10v636q0 10 -9 10l-67 6q-5 0 -5 5v11h198v-16zM638 500
l82 4q6 1 6 -5v-602q0 -40 -26 -63.5t-69 -23.5q-42 0 -68 22l13 11q20 -19 55 -19t55.5 19.5t20.5 53.5v576q0 9 -10 10l-59 3v14z" />
    <glyph glyph-name="lj" unicode="&#x1c9;" horiz-adv-x="567" 
d="M80 745l82 5q6 0 6 -5v-714q0 -9 9 -10l78 -6v-15h-171v10q0 5 4 5l52 5q9 1 9 10v688q0 10 -10 10l-59 3v14zM473 700q8 0 13.5 -5.5t5.5 -13.5t-5.5 -13.5t-13.5 -5.5q-5 0 -9.5 2.5t-7 7t-2.5 9.5q0 8 5.5 13.5t13.5 5.5zM394 500l83 4q5 1 5 -5v-602
q0 -40 -25.5 -63.5t-69.5 -23.5q-41 0 -67 22l12 11q21 -19 55 -19q36 0 56 19.5t20 53.5v576q0 9 -9 10l-60 3v14z" />
    <glyph glyph-name="NJ" unicode="&#x1ca;" horiz-adv-x="1208" 
d="M1128 684l-71 -6q-9 0 -9 -10v-633q0 -85 -43 -146t-118 -86l-8 16q44 15 76.5 45t50.5 74t18 97v632q0 9 -9 10l-81 7q-5 0 -5 5v11h199v-16zM774 684l-72 -6q-9 0 -9 -10v-668h-23l-491 664v-631q0 -9 9 -10l86 -7v-16h-199v11q0 5 5 5l67 6q9 0 9 10v636q0 10 -9 10
l-67 6q-5 0 -5 5v11h104l491 -664v631q0 9 -9 10l-81 7q-4 0 -4 5v11h198v-16z" />
    <glyph glyph-name="Nj" unicode="&#x1cb;" horiz-adv-x="1096" 
d="M1002 700q8 0 13.5 -5.5t5.5 -13.5t-5.5 -13.5t-13.5 -5.5q-5 0 -9.5 2.5t-7 7t-2.5 9.5q0 8 5.5 13.5t13.5 5.5zM774 684l-72 -6q-9 0 -9 -10v-668h-23l-491 664v-631q0 -9 9 -10l86 -7v-16h-199v11q0 5 5 5l67 6q9 0 9 10v636q0 10 -9 10l-67 6q-5 0 -5 5v11h104
l491 -664v631q0 9 -9 10l-81 7q-4 0 -4 5v11h198v-16zM924 500l82 4q6 1 6 -5v-602q0 -40 -26 -63.5t-69 -23.5q-42 0 -68 22l12 11q21 -19 56 -19t55.5 19.5t20.5 53.5v576q0 9 -10 10l-59 3v14z" />
    <glyph glyph-name="nj" unicode="&#x1cc;" horiz-adv-x="946" 
d="M852 700q8 0 13.5 -5.5t5.5 -13.5t-5.5 -13.5t-13.5 -5.5q-5 0 -9.5 2.5t-7 7t-2.5 9.5q0 8 5.5 13.5t13.5 5.5zM395 510q72 0 114 -41t42 -126v-312q0 -9 9 -10l74 -6v-15h-97q-5 0 -5 5v338q0 79 -36.5 116t-100.5 37q-103 0 -232 -80v-385q0 -9 9 -10l74 -6v-15h-171
v11q0 4 5 4l55 5q9 1 9 10v443q0 9 -10 10l-59 3v14l82 4q6 1 6 -5v-65q127 76 232 76zM774 500l82 4q6 1 6 -5v-602q0 -40 -26 -63.5t-69 -23.5q-42 0 -68 22l13 11q21 -19 55 -19q35 0 55.5 19.5t20.5 53.5v576q0 9 -10 10l-59 3v14z" />
    <glyph glyph-name="Acaron" unicode="&#x1cd;" horiz-adv-x="749" 
d="M389 782h-28l-100 135h22l92 -117l92 117h22zM663 21l56 -5v-16h-181v10q0 5 4 5l79 7q6 0 8.5 5t0.5 11l-77 185h-363l-82 -200l93 -7v-16h-171v12q0 4 5 4l46 5q5 0 7 5l279 673l15 1zM197 240h349l-174 421z" />
    <glyph glyph-name="acaron" unicode="&#x1ce;" horiz-adv-x="561" 
d="M271 582h-28l-100 135h22l92 -117l92 117h21zM256 510q33 0 60 -9t49.5 -28t35 -52t12.5 -78v-312q0 -9 9 -10l74 -6v-15h-97q-5 0 -5 5v60q-66 -75 -176 -75q-72 0 -115 35t-43 92q0 55 35 82t123 51l176 47v46q0 81 -38 117t-100 36q-69 -1 -138 -39q-3 -2 -4 -7
l-8 -93h-14v100q0 2 2 3q77 49 162 50zM394 282l-171 -46q-82 -22 -113 -46t-31 -73q0 -52 37.5 -82.5t101.5 -30.5q109 0 172 83l4 5v190z" />
    <glyph glyph-name="Icaron" unicode="&#x1cf;" horiz-adv-x="348" 
d="M188 782h-28l-100 135h22l92 -117l92 117h22zM268 684l-74 -6q-9 -1 -9 -10v-636q0 -9 9 -10l74 -6v-16h-188v11q0 5 5 5l68 6q9 1 9 10v636q0 9 -9 10l-68 6q-5 0 -5 5v11h188v-16z" />
    <glyph glyph-name="icaron" unicode="&#x1d0;" horiz-adv-x="330" 
d="M171 582h-28l-100 135h22l92 -117l92 117h21zM80 500l82 4q6 1 6 -5v-468q0 -9 9 -10l78 -6v-15h-175v11q0 4 5 4l55 5q9 1 9 10v443q0 9 -10 10l-59 3v14z" />
    <glyph glyph-name="Ocaron" unicode="&#x1d1;" horiz-adv-x="784" 
d="M406 782h-28l-100 135h22l92 -117l92 117h22zM392 710q150 0 241 -99t91 -261t-91 -261t-241 -99t-241 99t-91 261t91 261t241 99zM392.5 693q-139.5 0 -224 -93.5t-84.5 -249.5t84.5 -249.5t224 -93.5t223.5 93.5t84 249.5t-84 249.5t-223.5 93.5z" />
    <glyph glyph-name="ocaron" unicode="&#x1d2;" 
d="M314 582h-28l-100 135h22l92 -117l92 117h22zM300 510q71 0 126 -32.5t84.5 -91.5t29.5 -136q0 -117 -66 -188.5t-174 -71.5t-174 71.5t-66 188.5t66 188.5t174 71.5zM300 496q-100 0 -160.5 -67t-60.5 -179t60.5 -179t160.5 -67t160.5 67t60.5 179t-60.5 179t-160.5 67z
" />
    <glyph glyph-name="Ucaron" unicode="&#x1d3;" horiz-adv-x="834" 
d="M431 782h-28l-100 135h22l92 -117l92 117h22zM759 684l-71 -6q-9 0 -9 -10v-397q0 -126 -71 -203.5t-188.5 -77.5t-188.5 77.5t-71 203.5v397q0 10 -9 10l-66 6q-5 0 -5 5v11h198v-16l-85 -7q-9 -1 -9 -10v-396q0 -121 64.5 -192.5t171.5 -71.5t174.5 72t67.5 192v395
q0 9 -9 10l-92 8v16h198v-16z" />
    <glyph glyph-name="ucaron" unicode="&#x1d4;" horiz-adv-x="689" 
d="M359 582h-28l-100 135h22l92 -117l92 117h22zM65 500h97q5 0 5 -5v-338q0 -79 36.5 -116t100.5 -37q103 0 232 80v385q0 9 -9 10l-74 6v15h97q5 0 5 -5v-468q0 -10 10 -10l59 -3v-14l-82 -5q-6 0 -6 6v65q-127 -76 -232 -76q-71 0 -113.5 41t-42.5 126v312q0 9 -9 10
l-74 6v15z" />
    <glyph glyph-name="Udieresismacron" unicode="&#x1d5;" horiz-adv-x="834" 
d="M540 970h-246v17h246v-17zM350 855q8 0 13.5 -5.5t5.5 -13.5t-5.5 -13.5t-13.5 -5.5t-13.5 5.5t-5.5 13.5q0 5 2.5 9.5t7 7t9.5 2.5zM484 855q8 0 13.5 -5.5t5.5 -13.5t-5.5 -13.5t-13.5 -5.5q-5 0 -9.5 2.5t-7 7t-2.5 9.5q0 8 5.5 13.5t13.5 5.5zM759 684l-71 -6
q-9 0 -9 -10v-397q0 -126 -71 -203.5t-188.5 -77.5t-188.5 77.5t-71 203.5v397q0 10 -9 10l-66 6q-5 0 -5 5v11h198v-16l-85 -7q-9 -1 -9 -10v-396q0 -121 64.5 -192.5t171.5 -71.5t174.5 72t67.5 192v395q0 9 -9 10l-92 8v16h198v-16z" />
    <glyph glyph-name="udieresismacron" unicode="&#x1d6;" horiz-adv-x="689" 
d="M468 733h-246v17h246v-17zM278 655q8 0 13.5 -5.5t5.5 -13.5t-5.5 -13.5t-13.5 -5.5t-13.5 5.5t-5.5 13.5q0 5 2.5 9.5t7 7t9.5 2.5zM412 655q8 0 13.5 -5.5t5.5 -13.5t-5.5 -13.5t-13.5 -5.5t-13.5 5.5t-5.5 13.5t5.5 13.5t13.5 5.5zM65 500h97q5 0 5 -5v-338
q0 -79 36.5 -116t100.5 -37q103 0 232 80v385q0 9 -9 10l-74 6v15h97q5 0 5 -5v-468q0 -10 10 -10l59 -3v-14l-82 -5q-6 0 -6 6v65q-127 -76 -232 -76q-71 0 -113.5 41t-42.5 126v312q0 9 -9 10l-74 6v15z" />
    <glyph glyph-name="Udieresisacute" unicode="&#x1d7;" horiz-adv-x="834" 
d="M417 917h-22l100 135h28zM350 855q8 0 13.5 -5.5t5.5 -13.5t-5.5 -13.5t-13.5 -5.5t-13.5 5.5t-5.5 13.5q0 5 2.5 9.5t7 7t9.5 2.5zM484 855q8 0 13.5 -5.5t5.5 -13.5t-5.5 -13.5t-13.5 -5.5q-5 0 -9.5 2.5t-7 7t-2.5 9.5q0 8 5.5 13.5t13.5 5.5zM759 684l-71 -6
q-9 0 -9 -10v-397q0 -126 -71 -203.5t-188.5 -77.5t-188.5 77.5t-71 203.5v397q0 10 -9 10l-66 6q-5 0 -5 5v11h198v-16l-85 -7q-9 -1 -9 -10v-396q0 -121 64.5 -192.5t171.5 -71.5t174.5 72t67.5 192v395q0 9 -9 10l-92 8v16h198v-16z" />
    <glyph glyph-name="udieresisacute" unicode="&#x1d8;" horiz-adv-x="689" 
d="M345 700h-22l100 135h28zM278 655q8 0 13.5 -5.5t5.5 -13.5t-5.5 -13.5t-13.5 -5.5t-13.5 5.5t-5.5 13.5q0 5 2.5 9.5t7 7t9.5 2.5zM412 655q8 0 13.5 -5.5t5.5 -13.5t-5.5 -13.5t-13.5 -5.5q-5 0 -9.5 2.5t-7 7t-2.5 9.5q0 8 5.5 13.5t13.5 5.5zM65 500h97q5 0 5 -5
v-338q0 -79 36.5 -116t100.5 -37q103 0 232 80v385q0 9 -9 10l-74 6v15h97q5 0 5 -5v-468q0 -10 10 -10l59 -3v-14l-82 -5q-6 0 -6 6v65q-127 -76 -232 -76q-71 0 -113.5 41t-42.5 126v312q0 9 -9 10l-74 6v15z" />
    <glyph glyph-name="Udieresiscaron" unicode="&#x1d9;" horiz-adv-x="834" 
d="M431 917h-28l-100 135h22l92 -117l92 117h22zM350 855q8 0 13.5 -5.5t5.5 -13.5t-5.5 -13.5t-13.5 -5.5q-5 0 -9.5 2.5t-7 7t-2.5 9.5q0 8 5.5 13.5t13.5 5.5zM484 855q8 0 13.5 -5.5t5.5 -13.5t-5.5 -13.5t-13.5 -5.5t-13.5 5.5t-5.5 13.5q0 5 2.5 9.5t7 7t9.5 2.5z
M759 684l-71 -6q-9 0 -9 -10v-397q0 -126 -71 -203.5t-188.5 -77.5t-188.5 77.5t-71 203.5v397q0 10 -9 10l-66 6q-5 0 -5 5v11h198v-16l-85 -7q-9 -1 -9 -10v-396q0 -121 64.5 -192.5t171.5 -71.5t174.5 72t67.5 192v395q0 9 -9 10l-92 8v16h198v-16z" />
    <glyph glyph-name="udieresiscaron" unicode="&#x1da;" horiz-adv-x="689" 
d="M359 700h-28l-100 135h22l92 -117l92 117h22zM278 655q8 0 13.5 -5.5t5.5 -13.5t-5.5 -13.5t-13.5 -5.5t-13.5 5.5t-5.5 13.5t5.5 13.5t13.5 5.5zM412 655q8 0 13.5 -5.5t5.5 -13.5t-5.5 -13.5t-13.5 -5.5t-13.5 5.5t-5.5 13.5q0 5 2.5 9.5t7 7t9.5 2.5zM65 500h97
q5 0 5 -5v-338q0 -79 36.5 -116t100.5 -37q103 0 232 80v385q0 9 -9 10l-74 6v15h97q5 0 5 -5v-468q0 -10 10 -10l59 -3v-14l-82 -5q-6 0 -6 6v65q-127 -76 -232 -76q-71 0 -113.5 41t-42.5 126v312q0 9 -9 10l-74 6v15z" />
    <glyph glyph-name="Udieresisgrave" unicode="&#x1db;" horiz-adv-x="834" 
d="M439 917h-22l-106 135h28zM350 855q8 0 13.5 -5.5t5.5 -13.5t-5.5 -13.5t-13.5 -5.5q-5 0 -9.5 2.5t-7 7t-2.5 9.5q0 8 5.5 13.5t13.5 5.5zM484 855q8 0 13.5 -5.5t5.5 -13.5t-5.5 -13.5t-13.5 -5.5t-13.5 5.5t-5.5 13.5t5.5 13.5t13.5 5.5zM759 684l-71 -6q-9 0 -9 -10
v-397q0 -126 -71 -203.5t-188.5 -77.5t-188.5 77.5t-71 203.5v397q0 10 -9 10l-66 6q-5 0 -5 5v11h198v-16l-85 -7q-9 -1 -9 -10v-396q0 -121 64.5 -192.5t171.5 -71.5t174.5 72t67.5 192v395q0 9 -9 10l-92 8v16h198v-16z" />
    <glyph glyph-name="udieresisgrave" unicode="&#x1dc;" horiz-adv-x="689" 
d="M367 700h-22l-106 135h28zM278 655q8 0 13.5 -5.5t5.5 -13.5t-5.5 -13.5t-13.5 -5.5t-13.5 5.5t-5.5 13.5t5.5 13.5t13.5 5.5zM412 655q8 0 13.5 -5.5t5.5 -13.5t-5.5 -13.5t-13.5 -5.5t-13.5 5.5t-5.5 13.5q0 5 2.5 9.5t7 7t9.5 2.5zM65 500h97q5 0 5 -5v-338
q0 -79 36.5 -116t100.5 -37q103 0 232 80v385q0 9 -9 10l-74 6v15h97q5 0 5 -5v-468q0 -10 10 -10l59 -3v-14l-82 -5q-6 0 -6 6v65q-127 -76 -232 -76q-71 0 -113.5 41t-42.5 126v312q0 9 -9 10l-74 6v15z" />
    <glyph glyph-name="Adieresismacron" unicode="&#x1de;" horiz-adv-x="749" 
d="M498 884h-246v17h246v-17zM308 820q5 0 9.5 -2.5t7 -7t2.5 -9.5q0 -8 -5.5 -13.5t-13.5 -5.5t-13.5 5.5t-5.5 13t5.5 13.5t13.5 6zM442 820q8 0 13.5 -6t5.5 -13q0 -6 -2.5 -10t-7 -6.5t-9.5 -2.5q-8 0 -13.5 5.5t-5.5 13t5.5 13.5t13.5 6zM663 21l56 -5v-16h-181v10
q0 5 4 5l79 7q6 0 8.5 5t0.5 11l-77 185h-363l-82 -200l93 -7v-16h-171v12q0 4 5 4l46 5q5 0 7 5l279 673l15 1zM197 240h349l-174 421z" />
    <glyph glyph-name="adieresismacron" unicode="&#x1df;" horiz-adv-x="561" 
d="M380 716h-246v17h246v-17zM190 655q8 0 13.5 -5.5t5.5 -13.5t-5.5 -13.5t-13.5 -5.5t-13.5 5.5t-5.5 13.5q0 5 2.5 9.5t7 7t9.5 2.5zM324 655q8 0 13.5 -5.5t5.5 -13.5t-5.5 -13.5t-13.5 -5.5t-13.5 5.5t-5.5 13.5t5.5 13.5t13.5 5.5zM256 510q69 0 113 -40t44 -127v-312
q0 -9 9 -10l74 -6v-15h-97q-5 0 -5 5v60q-66 -75 -176 -75q-72 0 -115 35t-43 92q0 55 35 82t123 51l176 47v46q0 81 -38 117t-100 36q-69 -1 -138 -39q-3 -2 -4 -7l-8 -93h-14v100q0 2 2 3q77 49 162 50zM394 282l-171 -46q-82 -22 -113 -46t-31 -73q0 -52 37.5 -82.5
t101.5 -30.5q109 0 172 83l4 5v190z" />
    <glyph glyph-name="Gcaron" unicode="&#x1e6;" horiz-adv-x="706" 
d="M392 782h-29l-99 135h22l91 -117l92 117h22zM392 709q111 0 220 -59q2 -1 2 -4v-110h-15l-8 99q0 5 -5 8q-97 49 -194 49q-50 0 -96 -14t-84.5 -42.5t-67 -68.5t-44.5 -96t-16 -121q0 -156 84.5 -249.5t223.5 -93.5q132 0 216 86v186q0 9 -9 10l-195 10v17h222q5 0 5 -5
v-311h-18l-5 65q-87 -75 -216 -75q-150 0 -241 99t-91 261q0 49 9 93t25.5 80t39.5 66t51.5 52t61.5 37.5t69.5 23t75.5 7.5z" />
    <glyph glyph-name="gcaron" unicode="&#x1e7;" horiz-adv-x="566" 
d="M297 582h-28l-100 135h22l92 -117l92 117h22zM501 499l-119 -10q41 -20 64 -57.5t23 -86.5q0 -75 -50 -120.5t-134 -45.5q-42 0 -77 13q-37 -8 -57 -24.5t-19 -37.5q0 -25 17.5 -40t50 -22t81.5 -7q102 0 161 -34t59 -108q0 -63 -61 -103t-157 -40t-157 40t-61 103
q0 46 35.5 82t97.5 53q-85 17 -85 76q-1 24 18.5 42t55.5 29q-27 13 -46 34t-29.5 49t-10.5 61q0 74 50.5 119.5t133.5 45.5h216v-11zM285 496q-76 0 -120.5 -41t-44.5 -110.5t44.5 -110.5t120.5 -41t120.5 41t44.5 110.5t-44.5 110.5t-120.5 41zM238 49l-14 -3
q-33 -7 -59 -19t-44 -28t-27.5 -36.5t-9.5 -43.5q0 -59 54 -94t145 -35t145 35t54 94q0 128 -201 128q-23 0 -43 2z" />
    <glyph glyph-name="DZ" unicode="&#x1f1;" horiz-adv-x="1340" 
d="M80 700h285q151 0 241.5 -95t90.5 -255.5t-90.5 -255t-241.5 -94.5h-285v11q0 5 5 5l67 6q9 0 9 10v636q0 10 -9 10l-67 6q-5 0 -5 5v11zM1296 683l-469 -666h440q10 0 10 9l7 86h16v-107q0 -5 -5 -5h-498v17l469 666h-410q-10 0 -10 -9l-7 -86h-16v107q0 5 5 5h468v-17z
M264 683l-80 -7v-652l80 -7h101q141 0 224.5 89t83.5 244q0 103 -38 178.5t-107.5 115t-162.5 39.5h-101z" />
    <glyph glyph-name="Dz" unicode="&#x1f2;" horiz-adv-x="1260" 
d="M80 700h285q151 0 241.5 -95t90.5 -255.5t-90.5 -255t-241.5 -94.5h-285v11q0 5 5 5l67 6q9 0 9 10v636q0 10 -9 10l-67 6q-5 0 -5 5v11zM264 683l-80 -7v-652l80 -7h101q141 0 224.5 89t83.5 244t-83.5 244t-224.5 89h-101zM1189 486l-344 -472h319q9 0 10 9l7 79h14
v-97q0 -5 -5 -5h-368v14l345 472h-298q-9 0 -9 -9l-7 -79h-15v97q0 5 5 5h346v-14z" />
    <glyph glyph-name="dz" unicode="&#x1f3;" horiz-adv-x="1158" 
d="M408 746l83 4q5 0 5 -5v-714q0 -9 9 -10l74 -6v-15h-97q-5 0 -5 5v60q-66 -75 -177 -75q-108 0 -174 71.5t-66 188.5t66 188.5t174 71.5q111 0 177 -75v283q0 10 -10 11l-59 3v14zM1087 486l-345 -472h319q10 0 10 9l7 79h15v-97q0 -5 -6 -5h-368v14l345 472h-297
q-10 0 -10 -9l-7 -79h-15v97q0 5 5 5h347v-14zM300 496q-66 0 -116 -30t-77.5 -86t-27.5 -130q0 -112 60.5 -179t160.5 -67q116 0 177 88v316q-61 88 -177 88z" />
    <glyph glyph-name="Oslashacute" unicode="&#x1fe;" horiz-adv-x="784" 
d="M392 782h-22l100 135h28zM534 750l-20 -61q98 -35 154 -124.5t56 -214.5q0 -162 -91 -261t-241 -99q-53 0 -100 13l-17 -53h-25l20 60q-65 24 -112 71.5t-72.5 116.5t-25.5 152q0 162 91 261t241 99q53 0 100 -14l17 54h25zM84 350q0 -80 23 -145t66 -110t103 -68
l211 653q-45 13 -95 13q-139 0 -223.5 -93.5t-84.5 -249.5zM392 7q140 0 224 93.5t84 249.5q0 119 -50.5 203.5t-140.5 118.5l-211 -652q44 -13 94 -13z" />
    <glyph glyph-name="oslashacute" unicode="&#x1ff;" 
d="M300 582h-22l100 135h28zM410 550l-19 -56q70 -26 109.5 -90.5t39.5 -153.5q0 -117 -66 -188.5t-174 -71.5q-37 0 -69 9l-16 -49h-25l19 56q-70 26 -109.5 90.5t-39.5 153.5q0 117 66 188.5t174 71.5q36 0 69 -9l16 49h25zM79 250q0 -84 35.5 -144.5t98.5 -85.5l152 468
q-31 8 -65 8q-100 0 -160.5 -67t-60.5 -179zM300 4q100 0 160.5 67t60.5 179q0 56 -16.5 102.5t-46.5 78.5t-71 49l-152 -467q31 -9 65 -9z" />
    <glyph glyph-name="Scommaaccent" unicode="&#x218;" horiz-adv-x="572" 
d="M315 710q89 0 150 -37q2 -1 2 -3v-110h-16l-8 99q0 5 -4 7q-52 27 -124 27q-95 0 -150.5 -38.5t-55.5 -99.5q0 -41 13 -65.5t51 -51t122 -68.5q65 -32 103 -55t61 -46.5t30.5 -44.5t7.5 -52q0 -79 -71 -130.5t-183 -51.5q-101 0 -166 39q-2 1 -2 4v109h16l7 -99
q1 -5 5 -7q58 -29 140 -29q104 0 167 45t63 120q0 38 -14 63t-52.5 52t-121.5 68q-68 33 -105 55t-59.5 45.5t-29 44.5t-6.5 55q0 68 63 111.5t167 43.5zM281 -61q19 0 26 -24t0 -58q-6 -33 -20 -62l-16 5q13 30 17 56q5 29 -5 45h-2q-5 0 -9.5 2.5t-7 7t-2.5 9.5
q0 7 5.5 12.5t13.5 6.5z" />
    <glyph glyph-name="scommaaccent" unicode="&#x219;" horiz-adv-x="442" 
d="M251 510q65 0 111 -25q3 -1 3 -4v-100h-15l-8 92q0 5 -5 7q-36 16 -86 16q-69 0 -110.5 -27.5t-41.5 -70.5q0 -41 23.5 -64.5t109.5 -66.5q89 -45 117 -73t28 -71q0 -58 -54.5 -95.5t-139.5 -37.5q-67 0 -116 23q-2 1 -2 4v99h15l7 -90q1 -6 6 -8q39 -14 90 -14
q80 0 127.5 32.5t47.5 86.5q0 40 -24.5 64.5t-110.5 67.5q-91 45 -117 71.5t-26 71.5q0 49 47 80.5t124 31.5zM216 -61q19 0 26 -24t0 -58q-6 -33 -20 -62l-16 5q13 30 17 56q5 29 -5 45h-2q-8 0 -13.5 5.5t-5.5 13.5q0 7 5.5 12.5t13.5 6.5z" />
    <glyph glyph-name="uni021A" unicode="&#x21a;" horiz-adv-x="636" 
d="M35 700h566q5 0 5 -5v-107h-16l-7 86q0 9 -10 9h-244v-651q0 -9 9 -10l74 -6v-16h-188v11q0 5 5 5l68 6q9 1 9 10v651h-244q-9 0 -10 -9l-6 -86h-16v107q0 5 5 5zM313 -61q19 0 26 -24t0 -58q-6 -33 -20 -62l-16 5q13 30 17 56q5 29 -5 45h-2q-8 0 -13.5 5.5t-5.5 13.5
q0 7 5.5 12.5t13.5 6.5z" />
    <glyph glyph-name="uni021B" unicode="&#x21b;" horiz-adv-x="369" 
d="M138 500h146v-14l-146 -8v-403q0 -35 20 -54t56 -19q49 0 68 37l17 -6q-23 -45 -85 -45q-44 0 -69.5 23.5t-25.5 63.5v404l-64 3q-5 0 -5 5v13h69v125l19 1v-126zM179 -61q19 0 26 -24t0 -58q-6 -33 -20 -62l-16 5q13 30 17 56q5 29 -5 45h-2q-8 0 -13.5 5.5t-5.5 13.5
q0 7 5.5 12.5t13.5 6.5z" />
    <glyph glyph-name="uni0228" unicode="&#x228;" horiz-adv-x="575" 
d="M80 700h430q5 0 5 -5v-107h-16l-6 86q-1 9 -10 9h-299v-317h256v-17h-256v-332h319q9 0 10 9l6 86h16v-107q0 -5 -5 -5h-234l-19 -59q6 0 17 -2q27 -5 44.5 -24t17.5 -44q0 -29 -23.5 -49t-56.5 -20q-34 0 -56 20l5 17q24 -20 52 -20q14 0 26 6t20 18t9 28
q0 27 -17.5 39.5t-43.5 13.5q-7 0 -19 -2l25 78h-197v11q0 5 5 5l67 6q9 0 9 10v636q0 10 -9 10l-67 6q-5 0 -5 5v11z" />
    <glyph glyph-name="uni0229" unicode="&#x229;" horiz-adv-x="550" 
d="M284 510q105 0 156.5 -64.5t54.5 -180.5v-4q0 -11 -10 -11h-406q0 -112 56.5 -179t148.5 -67q112 0 175 68l14 -9q-30 -33 -79 -53t-110 -20h-4l-16 -49q6 0 17 -2q27 -5 44.5 -24t17.5 -44q0 -29 -23.5 -49t-56.5 -20q-34 0 -56 20l5 17q24 -20 52 -20q14 0 26 6t20 18
t9 28q0 27 -17.5 39.5t-43.5 13.5q-7 0 -19 -2l22 69q-92 8 -146.5 78.5t-54.5 180.5q0 117 61.5 188.5t162.5 71.5zM284 496q-89 0 -145 -63t-60 -169h391q6 0 6 6q-8 226 -192 226z" />
    <glyph glyph-name="uni022A" unicode="&#x22a;" horiz-adv-x="784" 
d="M515 904h-246v17h246v-17zM325 820q8 0 13.5 -6t5.5 -13.5t-5.5 -13t-13.5 -5.5t-13.5 5.5t-5.5 13.5q0 5 2.5 9.5t7 7t9.5 2.5zM459 820q8 0 13.5 -6t5.5 -13.5t-5.5 -13t-13.5 -5.5t-13.5 5.5t-5.5 13t5.5 13.5t13.5 6zM392 710q150 0 241 -99t91 -261t-91 -261
t-241 -99t-241 99t-91 261t91 261t241 99zM392 693q-139 0 -223.5 -93.5t-84.5 -249.5t84.5 -249.5t224 -93.5t223.5 93.5t84 249.5q0 77 -22 141t-62 108.5t-97.5 69t-126.5 24.5z" />
    <glyph glyph-name="uni022B" unicode="&#x22b;" 
d="M423 717h-246v17h246v-17zM233 655q8 0 13.5 -5.5t5.5 -13.5t-5.5 -13.5t-13.5 -5.5t-13.5 5.5t-5.5 13.5q0 5 2.5 9.5t7 7t9.5 2.5zM367 655q8 0 13.5 -5.5t5.5 -13.5t-5.5 -13.5t-13.5 -5.5t-13.5 5.5t-5.5 13.5t5.5 13.5t13.5 5.5zM300 510q108 0 174 -71.5t66 -188.5
t-66 -188.5t-174 -71.5q-72 0 -126.5 32.5t-84 91.5t-29.5 136q0 117 66 188.5t174 71.5zM300 496q-100 0 -160.5 -67t-60.5 -179t60.5 -179t160.5 -67t160.5 67t60.5 179q0 74 -27.5 130t-77.5 86t-116 30z" />
    <glyph glyph-name="circumflex" unicode="&#x2c6;" horiz-adv-x="327" 
d="M277 582h-22l-91 117l-92 -117h-22l99 135h29z" />
    <glyph glyph-name="caron" unicode="&#x2c7;" horiz-adv-x="327" 
d="M178 582h-29l-99 135h22l92 -117l91 117h22z" />
    <glyph glyph-name="breve" unicode="&#x2d8;" horiz-adv-x="335" 
d="M261 700h24q0 -49 -34.5 -83t-83 -34t-83 34t-34.5 83h24q0 -43 27.5 -71.5t66 -28.5t66 28.5t27.5 71.5z" />
    <glyph glyph-name="dotaccent" unicode="&#x2d9;" horiz-adv-x="138" 
d="M69 655q5 0 9.5 -2.5t7 -7t2.5 -9.5q0 -8 -5.5 -13.5t-13.5 -5.5t-13.5 5.5t-5.5 13.5t5.5 13.5t13.5 5.5z" />
    <glyph glyph-name="ring" unicode="&#x2da;" horiz-adv-x="277" 
d="M139 734q36 0 62 -26t26 -63t-26 -63t-62.5 -26t-62.5 26t-26 63q0 24 12 44.5t32.5 32.5t44.5 12zM138.5 717q-26.5 0 -45.5 -20.5t-19 -51.5t19 -51.5t45.5 -20.5t45.5 20.5t19 51.5t-19 51.5t-45.5 20.5z" />
    <glyph glyph-name="ogonek" unicode="&#x2db;" horiz-adv-x="242" 
d="M130 6h38q-94 -47 -94 -119q0 -29 14 -47t38 -18q22 -1 61 21l5 -19q-37 -21 -66 -19q-35 0 -55.5 23.5t-20.5 58.5q0 34 20.5 66t59.5 53z" />
    <glyph glyph-name="tilde" unicode="&#x2dc;" horiz-adv-x="332" 
d="M261 658l24 -6q-5 -14 -13.5 -26t-20 -19t-24.5 -9q-28 -2 -68 19q-5 3 -13.5 7.5t-14 7.5t-12 6t-11.5 5t-9 2q-9 1 -16 -8.5t-12 -35.5l-23 4q13 58 52 56q6 0 13.5 -2.5t15.5 -6t14.5 -7t14.5 -8t13 -6.5q35 -18 53 -17q25 3 37 44z" />
    <glyph glyph-name="hungarumlaut" unicode="&#x2dd;" horiz-adv-x="338" 
d="M72 582h-22l99 135h29zM182 582h-21l99 135h28z" />
    <glyph glyph-name="dotbelowcomb" unicode="&#x323;" horiz-adv-x="0" 
d="M69 -102q8 0 13.5 -5.5t5.5 -13.5t-5.5 -13.5t-13.5 -5.5t-13.5 5.5t-5.5 13.5t5.5 13.5t13.5 5.5z" />
    <glyph glyph-name="commaaccentcomb" unicode="&#x326;" horiz-adv-x="0" 
d="M49 -61q19 0 26 -24t0 -58q-6 -33 -20 -62l-16 5q13 30 17 56q5 29 -5 45h-2q-8 0 -13.5 5.5t-5.5 13.5q0 17 19 19z" />
    <glyph glyph-name="circumflexbelowcomb" unicode="&#x32d;" horiz-adv-x="0" 
d="M277 -197h-22l-91 117l-92 -117h-22l99 135h29z" />
    <glyph glyph-name="macronbelowcomb" unicode="&#x331;" horiz-adv-x="0" 
d="M296 -124h-246v17h246v-17z" />
    <glyph glyph-name="Delta" unicode="&#x394;" 
 />
    <glyph glyph-name="Omega" unicode="&#x3a9;" 
 />
    <glyph glyph-name="mu" unicode="&#x3bc;" 
 />
    <glyph glyph-name="pi" unicode="&#x3c0;" 
 />
    <glyph glyph-name="Bdotbelow" unicode="&#x1e04;" horiz-adv-x="644" 
d="M85 700h280q91 0 145.5 -46.5t54.5 -123.5q0 -58 -32 -99.5t-89 -58.5q75 -15 117.5 -63.5t42.5 -119.5q0 -86 -60.5 -137.5t-161.5 -51.5h-297v11q0 5 5 5l67 6q9 0 9 10v636q0 10 -9 10l-67 6q-5 0 -5 5v11zM269 683l-80 -7v-299h176q82 0 129 41t47 112t-47 112
t-129 41h-96zM189 360v-336l80 -7h113q61 0 105.5 21t68.5 59.5t24 91.5q0 79 -53 125t-145 46h-193zM322 -102q8 0 13.5 -5.5t5.5 -13.5t-5.5 -13.5t-13.5 -5.5t-13.5 5.5t-5.5 13.5t5.5 13.5t13.5 5.5z" />
    <glyph glyph-name="bdotbelow" unicode="&#x1e05;" horiz-adv-x="633" 
d="M70 746l82 4q6 0 6 -5v-308q66 73 175 73q108 0 174 -71.5t66 -188.5q0 -67 -20 -117.5t-55.5 -81.5t-81 -46t-100.5 -15q-85 0 -177 34v695q0 9 -10 10l-59 3v14zM333 496q-115 0 -175 -86v-377q83 -29 158 -29q107 0 172.5 60.5t65.5 185.5q0 112 -60.5 179t-160.5 67z
M333 -102q8 0 13.5 -5.5t5.5 -13.5q0 -5 -2.5 -9.5t-7 -7t-9.5 -2.5q-8 0 -13.5 5.5t-5.5 13.5t5.5 13.5t13.5 5.5z" />
    <glyph glyph-name="Ddotbelow" unicode="&#x1e0c;" horiz-adv-x="757" 
d="M80 700h285q151 0 241.5 -95t90.5 -255.5t-90.5 -255t-241.5 -94.5h-285v11q0 5 5 5l67 6q9 0 9 10v636q0 10 -9 10l-67 6q-5 0 -5 5v11zM264 683l-80 -7v-652l80 -7h101q141 0 224.5 89t83.5 244t-83.5 244t-224.5 89h-101zM379 -102q8 0 13.5 -5.5t5.5 -13.5
t-5.5 -13.5t-13.5 -5.5t-13.5 5.5t-5.5 13.5q0 4 1.5 7.5t4 6t6 4t7.5 1.5z" />
    <glyph glyph-name="ddotbelow" unicode="&#x1e0d;" horiz-adv-x="654" 
d="M408 746l83 4q5 0 5 -5v-714q0 -9 9 -10l74 -6v-15h-97q-5 0 -5 5v60q-66 -75 -177 -75q-108 0 -174 71.5t-66 188.5t66 188.5t174 71.5q111 0 177 -75v283q0 10 -10 11l-59 3v14zM300 496q-66 0 -116 -30t-77.5 -86t-27.5 -130q0 -112 60.5 -179t160.5 -67q116 0 177 88
v316q-61 88 -177 88zM326 -102q8 0 13.5 -5.5t5.5 -13.5t-5.5 -13.5t-13.5 -5.5t-13.5 5.5t-5.5 13.5q0 4 1.5 7.5t4 6t6 4t7.5 1.5z" />
    <glyph glyph-name="Dlinebelow" unicode="&#x1e0e;" horiz-adv-x="757" 
d="M80 700h285q151 0 241.5 -95t90.5 -255.5t-90.5 -255t-241.5 -94.5h-285v11q0 5 5 5l67 6q9 0 9 10v636q0 10 -9 10l-67 6q-5 0 -5 5v11zM264 683l-80 -7v-652l80 -7h101q141 0 224.5 89t83.5 244t-83.5 244t-224.5 89h-101zM512 -124h-247v17h247v-17z" />
    <glyph glyph-name="dlinebelow" unicode="&#x1e0f;" horiz-adv-x="654" 
d="M408 746l83 4q5 0 5 -5v-714q0 -9 9 -10l74 -6v-15h-97q-5 0 -5 5v60q-66 -75 -177 -75q-108 0 -174 71.5t-66 188.5t66 188.5t174 71.5q111 0 177 -75v283q0 10 -10 11l-59 3v14zM300 496q-66 0 -116 -30t-77.5 -86t-27.5 -130q0 -112 60.5 -179t160.5 -67q116 0 177 88
v316q-61 88 -177 88zM449 -124h-246v17h246v-17z" />
    <glyph glyph-name="Dcircumflexbelow" unicode="&#x1e12;" horiz-adv-x="757" 
d="M80 700h285q151 0 241.5 -95t90.5 -255.5t-90.5 -255t-241.5 -94.5h-285v11q0 5 5 5l67 6q9 0 9 10v636q0 10 -9 10l-67 6q-5 0 -5 5v11zM264 683l-80 -7v-652l80 -7h101q141 0 224.5 89t83.5 244t-83.5 244t-224.5 89h-101zM492 -197h-21l-92 117l-92 -117h-22l100 135
h28z" />
    <glyph glyph-name="dcircumflexbelow" unicode="&#x1e13;" horiz-adv-x="654" 
d="M408 746l83 4q5 0 5 -5v-714q0 -9 9 -10l74 -6v-15h-97q-5 0 -5 5v60q-66 -75 -177 -75q-108 0 -174 71.5t-66 188.5t66 188.5t174 71.5q111 0 177 -75v283q0 10 -10 11l-59 3v14zM300 496q-66 0 -116 -30t-77.5 -86t-27.5 -130q0 -112 60.5 -179t160.5 -67q116 0 177 88
v316q-61 88 -177 88zM439 -197h-21l-92 117l-92 -117h-22l100 135h28z" />
    <glyph glyph-name="Hdotbelow" unicode="&#x1e24;" horiz-adv-x="859" 
d="M779 684l-72 -6q-9 0 -9 -10v-636q0 -10 9 -10l72 -6v-16h-198v11q0 5 4 5l81 7q9 1 9 10v316h-491v-316q0 -9 9 -10l85 -7v-16h-198v11q0 5 5 5l67 6q9 0 9 10v636q0 10 -9 10l-67 6q-5 0 -5 5v11h198v-16l-85 -7q-9 -1 -9 -10v-301h491v301q0 9 -9 10l-81 7q-4 0 -4 5
v11h198v-16zM430 -102q8 0 13.5 -5.5t5.5 -13.5t-5.5 -13.5t-13.5 -5.5t-13.5 5.5t-5.5 13.5q0 5 2.5 9.5t7 7t9.5 2.5z" />
    <glyph glyph-name="hdotbelow" unicode="&#x1e25;" horiz-adv-x="704" 
d="M80 746l82 4q6 0 6 -5v-311q127 76 232 76q35 0 63 -10t49 -29.5t32.5 -52t11.5 -75.5v-312q0 -9 9 -10l74 -6v-15h-97q-5 0 -5 5v338q0 79 -36.5 116t-100.5 37q-103 0 -232 -80v-385q0 -9 9 -10l74 -6v-15h-171v11q0 4 5 4l55 5q9 1 9 10v688q0 10 -10 11l-59 3v14z
M353 -102q7 0 13 -5.5t6 -13.5t-6 -13.5t-13.5 -5.5t-13 5.5t-5.5 13.5q0 4 1.5 7.5t4 6t6 4t7.5 1.5z" />
    <glyph glyph-name="Idieresisacute" unicode="&#x1e2e;" horiz-adv-x="348" 
d="M174 860h-22l100 135h28zM107 820q8 0 13.5 -6t5.5 -13q0 -6 -2.5 -10t-7 -6.5t-9.5 -2.5q-8 0 -13.5 5.5t-5.5 13t5.5 13.5t13.5 6zM241 820q5 0 9.5 -2.5t7 -7t2.5 -9.5q0 -8 -5.5 -13.5t-13.5 -5.5q-5 0 -9.5 2.5t-7 6.5t-2.5 10q0 7 5.5 13t13.5 6zM268 684l-74 -6
q-9 -1 -9 -10v-636q0 -9 9 -10l74 -6v-16h-188v11q0 5 5 5l68 6q9 1 9 10v636q0 9 -9 10l-68 6q-5 0 -5 5v11h188v-16z" />
    <glyph glyph-name="idieresisacute" unicode="&#x1e2f;" horiz-adv-x="330" 
d="M157 700h-22l100 135h28zM89.5 655q7.5 0 13.5 -5.5t6 -13.5t-6 -13.5t-13 -5.5q-6 0 -10 2.5t-6.5 7t-2.5 9.5q0 8 5.5 13.5t13 5.5zM224 655q8 0 13.5 -5.5t5.5 -13.5t-5.5 -13.5t-13.5 -5.5t-13.5 5.5t-5.5 13.5q0 5 2.5 9.5t7 7t9.5 2.5zM80 500l82 4q6 1 6 -5v-468
q0 -9 9 -10l78 -6v-15h-175v11q0 4 5 4l55 5q9 1 9 10v443q0 9 -10 10l-59 3v14z" />
    <glyph glyph-name="Ldotbelow" unicode="&#x1e36;" horiz-adv-x="563" 
d="M278 684l-85 -7q-9 -1 -9 -10v-650h307q9 0 10 9l6 86h16v-107q0 -5 -5 -5h-438v11q0 5 5 5l67 6q9 0 9 10v636q0 10 -9 10l-67 6q-5 0 -5 5v11h198v-16zM282 -102q8 0 13.5 -5.5t5.5 -13.5t-5.5 -13.5t-13.5 -5.5t-13.5 5.5t-5.5 13.5t5.5 13.5t13.5 5.5z" />
    <glyph glyph-name="ldotbelow" unicode="&#x1e37;" horiz-adv-x="320" 
d="M80 745l82 5q6 0 6 -5v-714q0 -9 9 -10l78 -6v-15h-171v10q0 5 4 5l52 5q9 1 9 10v688q0 10 -10 10l-59 3v14zM160 -102q8 0 13.5 -5.5t5.5 -13.5t-5.5 -13.5t-13.5 -5.5t-13.5 5.5t-5.5 13.5t5.5 13.5t13.5 5.5z" />
    <glyph glyph-name="Lcircumflexbelow" unicode="&#x1e3c;" horiz-adv-x="563" 
d="M278 684l-85 -7q-9 -1 -9 -10v-650h307q9 0 10 9l6 86h16v-107q0 -5 -5 -5h-438v11q0 5 5 5l67 6q9 0 9 10v636q0 10 -9 10l-67 6q-5 0 -5 5v11h198v-16zM396 -197h-22l-92 117l-92 -117h-22l100 135h28z" />
    <glyph glyph-name="lcircumflexbelow" unicode="&#x1e3d;" horiz-adv-x="320" 
d="M80 745l82 5q6 0 6 -5v-714q0 -9 9 -10l78 -6v-15h-171v10q0 5 4 5l52 5q9 1 9 10v688q0 10 -10 10l-59 3v14zM274 -197h-22l-92 117l-92 -117h-22l100 135h28z" />
    <glyph glyph-name="Macute" unicode="&#x1e3e;" horiz-adv-x="1022" 
d="M508 782h-22l100 135h28zM867 684l-68 -5q-11 -1 -10 -12l87 -646l66 -5v-16h-198v16l97 8q10 1 9 12l-84 624l-247 -659l-14 -1l-253 663l-86 -638l107 -9v-16h-198v11q0 5 5 5l59 5q8 1 9 8l85 638q2 11 -9 12l-64 5q-4 0 -4 5v11h108l251 -659l246 659h106v-16z" />
    <glyph glyph-name="macute" unicode="&#x1e3f;" horiz-adv-x="1040" 
d="M508 582h-22l100 135h28zM745 510q67 0 107 -41t40 -126v-312q0 -9 9 -10l74 -6v-15h-97q-5 0 -5 5v338q0 79 -34.5 116t-93.5 37q-98 0 -226 -86q8 -29 8 -67v-312q0 -9 9 -10l75 -6v-15h-98q-5 0 -5 5v338q0 79 -34 116t-94 37q-94 0 -217 -80v-385q0 -9 9 -10l74 -6
v-15h-171v11q0 4 5 4l55 5q9 1 9 10v443q0 9 -10 10l-59 3v14l82 4q6 1 6 -5v-65q121 76 217 76q101 0 134 -84q128 84 231 84z" />
    <glyph glyph-name="Ndotaccent" unicode="&#x1e44;" horiz-adv-x="849" 
d="M425 855q8 0 13.5 -5.5t5.5 -13.5t-5.5 -13.5t-13.5 -5.5t-13.5 5.5t-5.5 13.5t5.5 13.5t13.5 5.5zM774 684l-72 -6q-9 0 -9 -10v-668h-23l-491 664v-631q0 -9 9 -10l86 -7v-16h-199v11q0 5 5 5l67 6q9 0 9 10v636q0 10 -9 10l-67 6q-5 0 -5 5v11h104l491 -664v631
q0 9 -9 10l-81 7q-4 0 -4 5v11h198v-16z" />
    <glyph glyph-name="ndotaccent" unicode="&#x1e45;" horiz-adv-x="699" 
d="M350 655q5 0 9.5 -2.5t7 -7t2.5 -9.5q0 -8 -5.5 -13.5t-13.5 -5.5t-13.5 5.5t-5.5 13.5t5.5 13.5t13.5 5.5zM395 510q72 0 114 -41t42 -126v-312q0 -9 9 -10l74 -6v-15h-97q-5 0 -5 5v338q0 79 -36.5 116t-100.5 37q-103 0 -232 -80v-385q0 -9 9 -10l74 -6v-15h-171v11
q0 4 5 4l55 5q9 1 9 10v443q0 9 -10 10l-59 3v14l82 4q6 1 6 -5v-65q127 76 232 76z" />
    <glyph glyph-name="Ndotbelow" unicode="&#x1e46;" horiz-adv-x="849" 
d="M774 684l-72 -6q-9 0 -9 -10v-668h-23l-491 664v-631q0 -9 9 -10l86 -7v-16h-199v11q0 5 5 5l67 6q9 0 9 10v636q0 10 -9 10l-67 6q-5 0 -5 5v11h104l491 -664v631q0 9 -9 10l-81 7q-4 0 -4 5v11h198v-16zM425 -102q8 0 13.5 -5.5t5.5 -13.5q0 -5 -2.5 -9.5t-7 -7
t-9.5 -2.5q-8 0 -13.5 5.5t-5.5 13.5t5.5 13.5t13.5 5.5z" />
    <glyph glyph-name="ndotbelow" unicode="&#x1e47;" horiz-adv-x="699" 
d="M395 510q72 0 114 -41t42 -126v-312q0 -9 9 -10l74 -6v-15h-97q-5 0 -5 5v338q0 79 -36.5 116t-100.5 37q-103 0 -232 -80v-385q0 -9 9 -10l74 -6v-15h-171v11q0 4 5 4l55 5q9 1 9 10v443q0 9 -10 10l-59 3v14l82 4q6 1 6 -5v-65q127 76 232 76zM350 -102q8 0 13.5 -5.5
t5.5 -13.5q0 -5 -2.5 -9.5t-7 -7t-9.5 -2.5q-8 0 -13.5 5.5t-5.5 13.5t5.5 13.5t13.5 5.5z" />
    <glyph glyph-name="Ncircumflexbelow" unicode="&#x1e4a;" horiz-adv-x="849" 
d="M774 684l-72 -6q-9 0 -9 -10v-668h-23l-491 664v-631q0 -9 9 -10l86 -7v-16h-199v11q0 5 5 5l67 6q9 0 9 10v636q0 10 -9 10l-67 6q-5 0 -5 5v11h104l491 -664v631q0 9 -9 10l-81 7q-4 0 -4 5v11h198v-16zM539 -197h-22l-92 117l-92 -117h-22l100 135h28z" />
    <glyph glyph-name="ncircumflexbelow" unicode="&#x1e4b;" horiz-adv-x="699" 
d="M395 510q72 0 114 -41t42 -126v-312q0 -9 9 -10l74 -6v-15h-97q-5 0 -5 5v338q0 79 -36.5 116t-100.5 37q-103 0 -232 -80v-385q0 -9 9 -10l74 -6v-15h-171v11q0 4 5 4l55 5q9 1 9 10v443q0 9 -10 10l-59 3v14l82 4q6 1 6 -5v-65q127 76 232 76zM464 -197h-22l-92 117
l-92 -117h-22l100 135h28z" />
    <glyph glyph-name="Otildeacute" unicode="&#x1e4c;" horiz-adv-x="784" 
d="M392 860h-22l100 135h28zM487 831l24 -5q-7 -23 -22.5 -37.5t-35.5 -16.5q-28 -3 -68 18q-5 3 -13.5 7.5t-14 7.5t-12 6.5t-11.5 5t-9 1.5q-9 1 -16 -8.5t-12 -35.5l-23 4q13 58 52 56q8 0 18.5 -4t17.5 -7.5t19 -10t16 -8.5q35 -18 53 -16q25 2 37 43zM392 710
q150 0 241 -99t91 -261t-91 -261t-241 -99t-241 99t-91 261t91 261t241 99zM392.5 693q-139.5 0 -224 -93.5t-84.5 -249.5t84.5 -249.5t224 -93.5t223.5 93.5t84 249.5t-84 249.5t-223.5 93.5z" />
    <glyph glyph-name="otildeacute" unicode="&#x1e4d;" 
d="M300 700h-22l100 135h28zM395 658l24 -6q-5 -14 -13.5 -26t-20 -19t-24.5 -9q-28 -2 -68 19q-6 3 -17 9t-17 9.5t-13.5 6.5t-12.5 3q-9 1 -16 -8.5t-12 -35.5l-23 4q13 58 52 56q6 0 13.5 -2.5t15.5 -6t14.5 -7t15 -8t12.5 -6.5q35 -18 53 -17q25 3 37 44zM300 510
q108 0 174 -71.5t66 -188.5t-66 -188.5t-174 -71.5q-72 0 -126.5 32.5t-84 91.5t-29.5 136q0 117 66 188.5t174 71.5zM300 496q-100 0 -160.5 -67t-60.5 -179t60.5 -179t160.5 -67t160.5 67t60.5 179q0 74 -27.5 130t-77.5 86t-116 30z" />
    <glyph glyph-name="Omacrongrave" unicode="&#x1e50;" horiz-adv-x="784" 
d="M414 860h-22l-106 135h28zM515 782h-246v17h246v-17zM392 710q150 0 241 -99t91 -261t-91 -261t-241 -99t-241 99t-91 261t91 261t241 99zM392 693q-139 0 -223.5 -93.5t-84.5 -249.5t84.5 -249.5t224 -93.5t223.5 93.5t84 249.5q0 77 -22 141t-62 108.5t-97.5 69
t-126.5 24.5z" />
    <glyph glyph-name="omacrongrave" unicode="&#x1e51;" 
d="M322 700h-22l-106 135h28zM423 617h-246v17h246v-17zM300 510q108 0 174 -71.5t66 -188.5t-66 -188.5t-174 -71.5q-72 0 -126.5 32.5t-84 91.5t-29.5 136q0 117 66 188.5t174 71.5zM300 496q-100 0 -160.5 -67t-60.5 -179t60.5 -179t160.5 -67t160.5 67t60.5 179
q0 74 -27.5 130t-77.5 86t-116 30z" />
    <glyph glyph-name="Omacronacute" unicode="&#x1e52;" horiz-adv-x="784" 
d="M392 860h-22l100 135h28zM515 782h-246v17h246v-17zM392 710q150 0 241 -99t91 -261t-91 -261t-241 -99t-241 99t-91 261t91 261t241 99zM392.5 693q-139.5 0 -224 -93.5t-84.5 -249.5t84.5 -249.5t224 -93.5t223.5 93.5t84 249.5t-84 249.5t-223.5 93.5z" />
    <glyph glyph-name="omacronacute" unicode="&#x1e53;" 
d="M300 700h-22l100 135h28zM423 617h-246v17h246v-17zM300 510q108 0 174 -71.5t66 -188.5t-66 -188.5t-174 -71.5t-174 71.5t-66 188.5t66 188.5t174 71.5zM300 496q-100 0 -160.5 -67t-60.5 -179t60.5 -179t160.5 -67t160.5 67t60.5 179t-60.5 179t-160.5 67z" />
    <glyph glyph-name="Sdotbelow" unicode="&#x1e62;" horiz-adv-x="572" 
d="M315 710q89 0 150 -37q2 -1 2 -3v-110h-16l-8 99q0 5 -4 7q-52 27 -124 27q-95 0 -150.5 -38.5t-55.5 -99.5q0 -41 13 -65.5t51 -51t122 -68.5q65 -32 103 -55t61 -46.5t30.5 -44.5t7.5 -52q0 -79 -71 -130.5t-183 -51.5q-101 0 -166 39q-2 1 -2 4v109h16l7 -99
q1 -5 5 -7q58 -29 140 -29q104 0 167 45t63 120q0 38 -14 63t-52.5 52t-121.5 68q-68 33 -105 55t-59.5 45.5t-29 44.5t-6.5 55q0 68 63 111.5t167 43.5zM286 -102q8 0 13.5 -5.5t5.5 -13.5q0 -5 -2.5 -9.5t-7 -7t-9.5 -2.5q-8 0 -13.5 5.5t-5.5 13.5t5.5 13.5t13.5 5.5z
" />
    <glyph glyph-name="sdotbelow" unicode="&#x1e63;" horiz-adv-x="442" 
d="M251 510q65 0 111 -25q3 -1 3 -4v-100h-15l-8 92q0 5 -5 7q-36 16 -86 16q-69 0 -110.5 -27.5t-41.5 -70.5q0 -41 23.5 -64.5t109.5 -66.5q89 -45 117 -73t28 -71q0 -58 -54.5 -95.5t-139.5 -37.5q-67 0 -116 23q-2 1 -2 4v99h15l7 -90q1 -6 6 -8q39 -14 90 -14
q80 0 127.5 32.5t47.5 86.5q0 40 -24.5 64.5t-110.5 67.5q-91 45 -117 71.5t-26 71.5q0 49 47 80.5t124 31.5zM221 -102q8 0 13.5 -5.5t5.5 -13.5t-5.5 -13.5t-13.5 -5.5q-5 0 -9.5 2.5t-7 7t-2.5 9.5q0 8 5.5 13.5t13.5 5.5z" />
    <glyph glyph-name="Tdotbelow" unicode="&#x1e6c;" horiz-adv-x="636" 
d="M35 700h566q5 0 5 -5v-107h-16l-7 86q0 9 -10 9h-244v-651q0 -9 9 -10l74 -6v-16h-188v11q0 5 5 5l68 6q9 1 9 10v651h-244q-9 0 -10 -9l-6 -86h-16v107q0 5 5 5zM318 -102q4 0 7.5 -1.5t6 -4t4 -6t1.5 -7.5t-1.5 -7.5t-4 -6t-6 -4t-7.5 -1.5q-8 0 -13.5 5.5t-5.5 13.5
q0 4 1.5 7.5t4 6t6 4t7.5 1.5z" />
    <glyph glyph-name="tdotbelow" unicode="&#x1e6d;" horiz-adv-x="369" 
d="M138 500h146v-14l-146 -8v-403q0 -35 20 -54t56 -19q49 0 68 37l17 -6q-23 -45 -85 -45q-44 0 -69.5 23.5t-25.5 63.5v404l-64 3q-5 0 -5 5v13h69v125l19 1v-126zM184 -102q8 0 13.5 -5.5t5.5 -13.5t-5.5 -13.5t-13.5 -5.5t-13.5 5.5t-5.5 13.5q0 5 2.5 9.5t7 7t9.5 2.5z
" />
    <glyph glyph-name="Tlinebelow" unicode="&#x1e6e;" horiz-adv-x="636" 
d="M35 700h566q5 0 5 -5v-107h-16l-7 86q0 9 -10 9h-244v-651q0 -9 9 -10l74 -6v-16h-188v11q0 5 5 5l68 6q9 1 9 10v651h-244q-9 0 -10 -9l-6 -86h-16v107q0 5 5 5zM441 -124h-246v17h246v-17z" />
    <glyph glyph-name="tlinebelow" unicode="&#x1e6f;" horiz-adv-x="369" 
d="M138 500h146v-14l-146 -8v-403q0 -35 20 -54t56 -19q49 0 68 37l17 -6q-23 -45 -85 -45q-44 0 -69.5 23.5t-25.5 63.5v404l-64 3q-5 0 -5 5v13h69v125l19 1v-126zM307 -124h-246v17h246v-17z" />
    <glyph glyph-name="Tcircumflexbelow" unicode="&#x1e70;" horiz-adv-x="636" 
d="M35 700h566q5 0 5 -5v-107h-16l-7 86q0 9 -10 9h-244v-651q0 -9 9 -10l74 -6v-16h-188v11q0 5 5 5l68 6q9 1 9 10v651h-244q-9 0 -10 -9l-6 -86h-16v107q0 5 5 5zM432 -197h-22l-92 117l-92 -117h-22l100 135h28z" />
    <glyph glyph-name="tcircumflexbelow" unicode="&#x1e71;" horiz-adv-x="369" 
d="M138 500h146v-14l-146 -8v-403q0 -35 20 -54t56 -19q49 0 68 37l17 -6q-23 -45 -85 -45q-44 0 -69.5 23.5t-25.5 63.5v404l-64 3q-5 0 -5 5v13h69v125l19 1v-126zM298 -197h-22l-92 117l-92 -117h-22l100 135h28z" />
    <glyph glyph-name="Wgrave" unicode="&#x1e80;" horiz-adv-x="1081" 
d="M562 782h-22l-106 135h28zM1051 684l-54 -5l-202 -678l-15 -1l-242 664l-244 -663l-14 -1l-200 674q-1 6 -8 6l-37 4q-5 0 -5 4v12h69l192 -656l226 618q2 6 -1 10.5t-9 4.5l-85 8q-4 0 -4 5v10h133l238 -656l183 619q1 4 0 7t-3.5 5t-6.5 2l-88 8q-4 0 -4 5v10h181v-16z
" />
    <glyph glyph-name="wgrave" unicode="&#x1e81;" horiz-adv-x="855" 
d="M450 582h-22l-106 135h28zM835 485l-56 -5l-174 -480h-17l-165 456l-166 -456h-16l-172 475q-2 5 -8 6l-37 3q-4 1 -4 5v11h59l172 -475l159 438q2 6 -1 10.5t-9 4.5l-78 7q-5 0 -5 5v10h109l172 -475l159 438q1 3 0.5 5.5t-1.5 4.5t-3.5 3.5t-5.5 1.5l-79 7q-4 0 -4 5
v10h171v-15z" />
    <glyph glyph-name="Wacute" unicode="&#x1e82;" horiz-adv-x="1081" 
d="M540 782h-22l100 135h28zM1051 684l-54 -5l-202 -678l-15 -1l-242 664l-244 -663l-14 -1l-200 674q-1 6 -7 6l-38 4q-5 0 -5 4v12h69l192 -656l226 618q2 6 -1 10.5t-9 4.5l-85 8q-4 0 -4 5v10h133l238 -656l183 619q1 6 -1.5 10t-8.5 4l-88 8q-4 0 -4 5v10h181v-16z" />
    <glyph glyph-name="wacute" unicode="&#x1e83;" horiz-adv-x="855" 
d="M428 582h-22l100 135h28zM835 485l-56 -5l-174 -480h-17l-165 456l-166 -456h-16l-172 475q-2 5 -8 6l-37 3q-4 1 -4 5v11h59l172 -475l159 438q2 6 -1 10.5t-9 4.5l-78 7q-5 0 -5 5v10h109l172 -475l159 438q2 6 -1 10.5t-9 4.5l-79 7q-4 0 -4 5v10h171v-15z" />
    <glyph glyph-name="Wdieresis" unicode="&#x1e84;" horiz-adv-x="1081" 
d="M473 855q8 0 13.5 -5.5t5.5 -13.5t-5.5 -13.5t-13.5 -5.5q-5 0 -9.5 2.5t-7 7t-2.5 9.5q0 8 5.5 13.5t13.5 5.5zM607 855q8 0 13.5 -5.5t5.5 -13.5t-5.5 -13.5t-13.5 -5.5t-13.5 5.5t-5.5 13.5q0 5 2.5 9.5t7 7t9.5 2.5zM1051 684l-54 -5l-202 -678l-15 -1l-242 664
l-244 -663l-14 -1l-200 674q-1 6 -8 6l-37 4q-5 0 -5 5v11h69l192 -656l226 618q2 6 -1 10.5t-9 4.5l-85 8q-4 0 -4 5v10h133l238 -656l183 619q1 3 0.5 5.5t-2 4.5t-3.5 3t-5 1l-88 8q-4 0 -4 5v10h181v-16z" />
    <glyph glyph-name="wdieresis" unicode="&#x1e85;" horiz-adv-x="855" 
d="M361 655q8 0 13.5 -5.5t5.5 -13.5t-5.5 -13.5t-13.5 -5.5t-13.5 5.5t-5.5 13.5t5.5 13.5t13.5 5.5zM495 655q8 0 13.5 -5.5t5.5 -13.5t-5.5 -13.5t-13.5 -5.5t-13.5 5.5t-5.5 13.5q0 5 2.5 9.5t7 7t9.5 2.5zM835 485l-56 -5l-174 -480h-17l-165 456l-166 -456h-16
l-172 475q-2 5 -8 6l-37 3q-4 1 -4 5v11h59l172 -475l159 438q2 6 -1 10.5t-9 4.5l-78 7q-5 0 -5 5v10h109l172 -475l159 438q2 6 -1 10.5t-9 4.5l-79 7q-4 0 -4 5v10h171v-15z" />
    <glyph glyph-name="Zdotbelow" unicode="&#x1e92;" horiz-adv-x="582" 
d="M538 683l-469 -666h441q9 0 10 9l7 86h15v-107q0 -5 -5 -5h-497v17l468 666h-410q-9 0 -10 -9l-6 -86h-16v107q0 5 5 5h467v-17zM291.5 -102q7.5 0 13 -5.5t5.5 -13.5q0 -5 -2.5 -9.5t-6.5 -7t-10 -2.5q-7 0 -13 5.5t-6 13.5t6 13.5t13.5 5.5z" />
    <glyph glyph-name="zdotbelow" unicode="&#x1e93;" horiz-adv-x="503" 
d="M432 486l-344 -472h319q9 0 10 9l6 79h15v-97q0 -5 -5 -5h-368v14l344 472h-297q-9 0 -10 -9l-6 -79h-15v97q0 5 5 5h346v-14zM252.5 -102q7.5 0 13.5 -5.5t6 -13.5q0 -5 -2.5 -9.5t-7 -7t-9.5 -2.5q-8 0 -13.5 5.5t-5.5 13.5t5.5 13.5t13 5.5z" />
    <glyph glyph-name="slongdotaccent" unicode="&#x1e9b;" horiz-adv-x="416" 
d="M245 877q8 0 13.5 -5.5t5.5 -13.5t-5.5 -13.5t-13.5 -5.5q-4 0 -7.5 1.5t-6 4t-4 6t-1.5 7.5q0 8 5.5 13.5t13.5 5.5zM299 750q63 -1 117 -36l-11 -12q-50 33 -106 34q-58 0 -97 -35.5t-39 -101.5v-568q0 -9 9 -10l78 -6v-15h-171v10q0 5 4 5l52 5q9 1 9 10v449l-64 3
q-5 0 -5 5v13h69v99q0 72 45 111.5t110 39.5z" />
    <glyph glyph-name="Adotbelow" unicode="&#x1ea0;" horiz-adv-x="749" 
d="M663 21l56 -5v-16h-181v10q0 5 4 5l79 7q6 0 8.5 5t0.5 11l-77 185h-363l-82 -200l93 -7v-16h-171v12q0 4 5 4l46 5q5 0 7 5l279 673l15 1zM197 240h349l-174 421zM372 -102q8 0 13.5 -5.5t5.5 -13.5q0 -5 -2.5 -9.5t-7 -7t-9.5 -2.5q-8 0 -13.5 5.5t-5.5 13.5t5.5 13.5
t13.5 5.5z" />
    <glyph glyph-name="adotbelow" unicode="&#x1ea1;" horiz-adv-x="561" 
d="M256 510q69 0 113 -40t44 -127v-312q0 -9 9 -10l74 -6v-15h-97q-5 0 -5 5v60q-66 -75 -176 -75q-72 0 -115 35t-43 92q0 55 35 82t123 51l176 47v46q0 81 -38 117t-100 36q-69 -1 -138 -39q-3 -2 -4 -7l-8 -93h-14v100q0 2 2 3q77 49 162 50zM394 282l-171 -46
q-82 -22 -113 -46t-31 -73q0 -52 37.5 -82.5t101.5 -30.5q109 0 172 83l4 5v190zM257 -102q8 0 13.5 -5.5t5.5 -13.5q0 -5 -2.5 -9.5t-7 -7t-9.5 -2.5t-9.5 2.5t-7 7t-2.5 9.5q0 8 5.5 13.5t13.5 5.5z" />
    <glyph glyph-name="Ahookabove" unicode="&#x1ea2;" horiz-adv-x="749" 
d="M367 998q49 0 82.5 -24.5t33.5 -57.5q0 -48 -52 -77q-3 -1 -10.5 -5t-10 -5.5l-7.5 -4.5t-6.5 -5.5t-4 -6.5t-3.5 -8t-1 -10v-12h-24v12q0 11 2.5 19t10.5 15t11 9.5t16.5 9.5t14.5 7q19 11 29.5 24.5t10.5 37.5q0 28 -25.5 46.5t-66.5 18.5q-36 0 -60 -16l-14 14
q29 19 74 19zM663 21l56 -5v-16h-181v10q0 5 4 5l79 7q6 0 8.5 5t0.5 11l-77 185h-363l-82 -200l93 -7v-16h-171v12q0 4 5 4l46 5q5 0 7 5l279 673l15 1zM197 240h349l-174 421z" />
    <glyph glyph-name="ahookabove" unicode="&#x1ea3;" horiz-adv-x="561" 
d="M236 785q49 0 82 -24.5t33 -57.5q0 -48 -51 -76q-4 -2 -11 -6t-9.5 -5.5l-7.5 -4.5t-6.5 -5.5t-4.5 -6t-3.5 -8t-0.5 -9.5v-13h-24v12q0 11 2.5 19t10.5 15t10.5 9.5t16.5 9.5t15 7q19 11 29 24.5t10 37.5q0 28 -25 46.5t-66 18.5q-36 0 -61 -16l-13 14q29 19 74 19z
M256 510q69 0 113 -40t44 -127v-312q0 -9 9 -10l74 -6v-15h-97q-5 0 -5 5v60q-66 -75 -176 -75q-72 0 -115 35t-43 92q0 55 35 82t123 51l176 47v46q0 81 -38 117t-100 36q-69 -1 -138 -39q-3 -2 -4 -7l-8 -93h-14v100q0 2 2 3q77 49 162 50zM394 282l-171 -46
q-82 -22 -113 -46t-31 -73q0 -52 37.5 -82.5t101.5 -30.5q109 0 172 83l4 5v190z" />
    <glyph glyph-name="Acircumflexacute" unicode="&#x1ea4;" horiz-adv-x="749" 
d="M515 812h-22l100 136h28zM489 749h-22l-92 117l-92 -117h-22l100 135h28zM663 21l56 -5v-16h-181v10q0 5 4 5l79 7q6 0 8.5 5t0.5 11l-77 185h-363l-82 -200l93 -7v-16h-171v12q0 4 5 4l46 5q5 0 7 5l279 673l15 1zM197 240h349l-174 421z" />
    <glyph glyph-name="acircumflexacute" unicode="&#x1ea5;" horiz-adv-x="561" 
d="M360 700h-22l100 135h28zM370 582h-21l-92 117l-92 -117h-22l100 135h28zM256 510q69 0 113 -40t44 -127v-312q0 -9 9 -10l74 -6v-15h-97q-5 0 -5 5v60q-66 -75 -176 -75q-72 0 -115 35t-43 92q0 55 35 82t123 51l176 47v46q0 81 -38 117t-100 36q-69 -1 -138 -39
q-3 -2 -4 -7l-8 -93h-14v100q0 2 2 3q77 49 162 50zM394 282l-171 -46q-82 -22 -113 -46t-31 -73q0 -52 37.5 -82.5t101.5 -30.5q109 0 172 83l4 5v190z" />
    <glyph glyph-name="Acircumflexgrave" unicode="&#x1ea6;" horiz-adv-x="749" 
d="M554 812h-21l-106 136h28zM489 749h-22l-92 117l-92 -117h-22l100 135h28zM663 21l56 -5v-16h-181v10q0 5 4 5l79 7q6 0 8.5 5t0.5 11l-77 185h-363l-82 -200l93 -7v-16h-171v12q0 4 5 4l46 5q5 0 7 5l279 673l15 1zM197 240h349l-174 421z" />
    <glyph glyph-name="acircumflexgrave" unicode="&#x1ea7;" horiz-adv-x="561" 
d="M356 700h-22l-106 135h28zM370 582h-21l-92 117l-92 -117h-22l100 135h28zM256 510q69 0 113 -40t44 -127v-312q0 -9 9 -10l74 -6v-15h-97q-5 0 -5 5v60q-66 -75 -176 -75q-72 0 -115 35t-43 92q0 55 35 82t123 51l176 47v46q0 81 -38 117t-100 36q-69 -1 -138 -39
q-3 -2 -4 -7l-8 -93h-14v100q0 2 2 3q77 49 162 50zM394 282l-171 -46q-82 -22 -113 -46t-31 -73q0 -52 37.5 -82.5t101.5 -30.5q109 0 172 83l4 5v190z" />
    <glyph glyph-name="Acircumflexhookabove" unicode="&#x1ea8;" horiz-adv-x="749" 
d="M539 966q48 0 81.5 -24.5t33.5 -57.5q0 -48 -52 -76q-3 -2 -10 -6t-9.5 -5.5l-7.5 -4.5t-7 -5.5t-4.5 -6t-3 -8t-0.5 -9.5v-13h-24v12q0 11 2.5 19t10.5 15t10.5 9.5t16.5 9.5t15 7q19 11 29 24.5t10 37.5q0 28 -25 46.5t-66 18.5q-36 0 -61 -16l-13 14q28 19 74 19z
M489 749h-22l-92 117l-92 -117h-22l100 135h28zM663 21l56 -5v-16h-181v10q0 5 4 5l79 7q6 0 8.5 5t0.5 11l-77 185h-363l-82 -200l93 -7v-16h-171v12q0 4 5 4l46 5q5 0 7 5l279 673l15 1zM197 240h349l-174 421z" />
    <glyph glyph-name="acircumflexhookabove" unicode="&#x1ea9;" horiz-adv-x="561" 
d="M351 904q48 0 81.5 -24.5t33.5 -57.5q0 -48 -52 -77q-3 -1 -10 -5t-9.5 -5.5l-7.5 -4.5t-7 -5.5t-4.5 -6.5t-3.5 -8t-1 -9l1 -13h-24l-1 12q0 11 2.5 19t10.5 15t11 9.5t17 9.5t15 7q18 11 28.5 24.5t10.5 37.5q0 28 -25 46.5t-66 18.5q-37 0 -61 -16l-13 14q28 19 74 19
zM370 582h-21l-92 117l-92 -117h-22l100 135h28zM256 510q69 0 113 -40t44 -127v-312q0 -9 9 -10l74 -6v-15h-97q-5 0 -5 5v60q-66 -75 -176 -75q-72 0 -115 35t-43 92q0 55 35 82t123 51l176 47v46q0 81 -38 117t-100 36q-69 -1 -138 -39q-3 -2 -4 -7l-8 -93h-14v100
q0 2 2 3q77 49 162 50zM394 282l-171 -46q-82 -22 -113 -46t-31 -73q0 -52 37.5 -82.5t101.5 -30.5q109 0 172 83l4 5v190z" />
    <glyph glyph-name="Acircumflextilde" unicode="&#x1eaa;" horiz-adv-x="749" 
d="M470 982l24 -5q-7 -23 -22.5 -37.5t-35.5 -16.5q-28 -3 -68 18q-5 2 -11.5 6t-11.5 6.5t-10.5 5.5t-10 5t-9 3.5t-7.5 1.5q-9 1 -16 -8.5t-12 -35.5l-23 4q13 58 52 56q8 0 18.5 -4t17.5 -7.5t19 -10t16 -8.5q35 -18 53 -17q25 3 37 44zM489 749h-22l-92 117l-92 -117
h-22l100 135h28zM663 21l56 -5v-16h-181v10q0 5 4 5l79 7q6 0 8.5 5t0.5 11l-77 185h-363l-82 -200l93 -7v-16h-171v12q0 4 5 4l46 5q5 0 7 5l279 673l15 1zM197 240h349l-174 421z" />
    <glyph glyph-name="acircumflextilde" unicode="&#x1eab;" horiz-adv-x="561" 
d="M352 799l23 -5q-7 -23 -22 -37.5t-35 -16.5q-28 -3 -68 18q-6 3 -17 9t-17.5 9.5t-14 6.5t-12.5 3q-8 1 -15 -8.5t-12 -35.5l-24 5q13 57 53 55q6 0 13.5 -2t15.5 -6t14.5 -7t14.5 -8t12 -7q35 -18 54 -16q25 2 37 43zM370 582h-21l-92 117l-92 -117h-22l100 135h28z
M256 510q33 0 60 -9t49.5 -28t35 -52t12.5 -78v-312q0 -9 9 -10l74 -6v-15h-97q-5 0 -5 5v60q-66 -75 -176 -75q-72 0 -115 35t-43 92q0 55 35 82t123 51l176 47v46q0 81 -38 117t-99 36q-70 -1 -139 -39q-3 -2 -4 -7l-8 -93h-14v100q0 2 2 3q77 49 162 50zM394 282
l-171 -46q-82 -22 -113 -46t-31 -73q0 -52 37.5 -82.5t101.5 -30.5q109 0 172 83l4 5v190z" />
    <glyph glyph-name="Acircumflexdotbelow" unicode="&#x1eac;" horiz-adv-x="749" 
d="M489 782h-22l-92 117l-92 -117h-22l100 135h28zM663 21l56 -5v-16h-181v10q0 5 4 5l79 7q6 0 8.5 5t0.5 11l-77 185h-363l-82 -200l93 -7v-16h-171v12q0 4 5 4l46 5q5 0 7 5l279 673l15 1zM197 240h349l-174 421zM372 -102q8 0 13.5 -5.5t5.5 -13.5t-5.5 -13.5
t-13.5 -5.5t-13.5 5.5t-5.5 13.5t5.5 13.5t13.5 5.5z" />
    <glyph glyph-name="acircumflexdotbelow" unicode="&#x1ead;" horiz-adv-x="561" 
d="M370 582h-21l-92 117l-92 -117h-22l100 135h28zM256 510q69 0 113 -40t44 -127v-312q0 -9 9 -10l74 -6v-15h-97q-5 0 -5 5v60q-66 -75 -176 -75q-72 0 -115 35t-43 92q0 55 35 82t123 51l176 47v46q0 81 -38 117t-100 36q-69 -1 -138 -39q-3 -2 -4 -7l-8 -93h-14v100
q0 2 2 3q77 49 162 50zM394 282l-171 -46q-82 -22 -113 -46t-31 -73q0 -52 37.5 -82.5t101.5 -30.5q109 0 172 83l4 5v190zM257 -102q8 0 13.5 -5.5t5.5 -13.5q0 -5 -2.5 -9.5t-7 -7t-9.5 -2.5t-9.5 2.5t-7 7t-2.5 9.5q0 8 5.5 13.5t13.5 5.5z" />
    <glyph glyph-name="Abreveacute" unicode="&#x1eae;" horiz-adv-x="749" 
d="M375 884h-22l100 135h28zM468 867h24q0 -48 -34 -82.5t-83 -34.5t-83 34.5t-34 82.5h24q0 -42 27 -71t66 -29q19 0 36 7.5t29.5 21t20 32t7.5 39.5zM663 21l56 -5v-16h-181v10q0 5 4 5l79 7q6 0 8.5 5t0.5 11l-77 185h-363l-82 -200l93 -7v-16h-171v12q0 4 5 4l46 5
q5 0 7 5l279 673l15 1zM197 240h349l-174 421z" />
    <glyph glyph-name="abreveacute" unicode="&#x1eaf;" horiz-adv-x="561" 
d="M257 700h-22l100 135h28zM350 700h24q0 -49 -34.5 -83t-83 -34t-83 34t-34.5 83h24q0 -43 27.5 -71.5t66 -28.5t66 28.5t27.5 71.5zM256 510q69 0 113 -40t44 -127v-312q0 -9 9 -10l74 -6v-15h-97q-5 0 -5 5v60q-66 -75 -176 -75q-72 0 -115 35t-43 92q0 55 35 82t123 51
l176 47v46q0 81 -38 117t-100 36q-69 -1 -138 -39q-3 -2 -4 -7l-8 -93h-14v100q0 2 2 3q77 49 162 50zM394 282l-171 -46q-82 -22 -113 -46t-31 -73q0 -52 37.5 -82.5t101.5 -30.5q109 0 172 83l4 5v190z" />
    <glyph glyph-name="Abrevegrave" unicode="&#x1eb0;" horiz-adv-x="749" 
d="M397 884h-22l-106 135h28zM468 867h24q0 -48 -34 -82.5t-83 -34.5t-83 34.5t-34 82.5h24q0 -42 27 -71t66 -29t66 29t27 71zM663 21l56 -5v-16h-181v10q0 5 4 5l79 7q6 0 8.5 5t0.5 11l-77 185h-363l-82 -200l93 -7v-16h-171v12q0 4 5 4l46 5q5 0 7 5l279 673l15 1z
M197 240h349l-174 421z" />
    <glyph glyph-name="abrevegrave" unicode="&#x1eb1;" horiz-adv-x="561" 
d="M278 700h-21l-106 135h28zM350 700h24q0 -49 -34.5 -83t-82.5 -34q-32 0 -59 15.5t-43 42.5t-16 59h24q0 -43 27.5 -71.5t66.5 -28.5q19 0 36 7.5t29.5 20.5t20 32t7.5 40zM256 510q69 0 113 -40t44 -127v-312q0 -9 9 -10l74 -6v-15h-97q-5 0 -5 5v60q-66 -75 -176 -75
q-72 0 -115 35t-43 92q0 55 35 82t123 51l176 47v46q0 81 -38 117t-100 36q-69 -1 -138 -39q-3 -2 -4 -7l-8 -93h-14v100q0 2 2 3q77 49 162 50zM394 282l-171 -46q-56 -15 -85 -28.5t-44 -35t-15 -55.5q0 -52 37.5 -82.5t101.5 -30.5q109 0 172 83l4 5v190z" />
    <glyph glyph-name="Abrevehookabove" unicode="&#x1eb2;" horiz-adv-x="749" 
d="M367 1084q49 0 82.5 -24.5t33.5 -58.5q0 -47 -52 -76q-3 -2 -10.5 -5.5t-10 -5t-7.5 -5t-6.5 -5.5t-4 -6t-3.5 -8.5t-1 -9.5v-13h-24v13q0 9 2.5 16.5t5.5 12t10 10t11 7.5t13.5 7t12.5 7q19 10 29.5 23.5t10.5 37.5q0 29 -25.5 47.5t-66.5 18.5q-36 0 -60 -16l-14 14
q29 19 74 19zM468 900h24q0 -49 -34 -83t-83 -34t-83 34t-34 83h24q0 -43 27 -71.5t66 -28.5t66 28.5t27 71.5zM663 21l56 -5v-16h-181v10q0 5 4 5l79 7q6 0 8.5 5t0.5 11l-77 185h-363l-82 -200l93 -7v-16h-171v12q0 4 5 4l46 5q5 0 7 5l279 673l15 1zM197 240h349
l-174 421z" />
    <glyph glyph-name="abrevehookabove" unicode="&#x1eb3;" horiz-adv-x="561" 
d="M247 904q49 0 82 -24.5t33 -57.5q0 -48 -51 -77q-4 -1 -11 -5t-9.5 -5.5l-7.5 -4.5t-6.5 -5.5t-4.5 -6.5t-3.5 -8t-0.5 -9v-13h-24v12q0 11 2.5 19t10.5 15t10.5 9.5t16.5 9.5t15 7q9 5 15 10t12 12t9 17t3 23q0 28 -25 46.5t-66 18.5q-36 0 -61 -16l-13 14q29 19 74 19z
M350 700h24q0 -49 -34.5 -83t-82.5 -34q-24 0 -46 9t-37.5 25t-25 37.5t-9.5 45.5h24q0 -43 27.5 -71.5t66.5 -28.5q19 0 36 7.5t29.5 20.5t20 32t7.5 40zM256 510q69 0 113 -40t44 -127v-312q0 -9 9 -10l74 -6v-15h-97q-5 0 -5 5v60q-66 -75 -176 -75q-72 0 -115 35t-43 92
q0 55 35 82t123 51l176 47v46q0 81 -38 117t-100 36q-69 -1 -138 -39q-3 -2 -4 -7l-8 -93h-14v100q0 2 2 3q77 49 162 50zM394 282l-171 -46q-82 -22 -113 -46t-31 -73q0 -52 37.5 -82.5t101.5 -30.5q109 0 172 83l4 5v190z" />
    <glyph glyph-name="Abrevetilde" unicode="&#x1eb4;" horiz-adv-x="749" 
d="M470 982l24 -5q-7 -23 -22.5 -37.5t-35.5 -16.5q-28 -3 -68 18q-5 2 -11.5 6t-11.5 6.5t-10.5 5.5t-10 5t-9 3.5t-7.5 1.5q-9 1 -16 -8.5t-12 -35.5l-23 4q13 58 52 56q8 0 18.5 -4t17.5 -7.5t19 -10t16 -8.5q35 -18 53 -17q25 3 37 44zM468 867h24q0 -48 -34 -82.5
t-83 -34.5q-24 0 -45.5 9.5t-37.5 25t-25 37t-9 45.5h24q0 -42 27 -71t66 -29t66 29t27 71zM663 21l56 -5v-16h-181v10q0 5 4 5l79 7q6 0 8.5 5t0.5 11l-77 185h-363l-82 -200l93 -7v-16h-171v11q0 5 5 5l46 5q5 0 7 5l279 673l15 1zM197 240h349l-174 421z" />
    <glyph glyph-name="abrevetilde" unicode="&#x1eb5;" horiz-adv-x="561" 
d="M352 788l23 -5q-7 -23 -22 -37.5t-35 -16.5q-28 -3 -68 18q-6 3 -17 9t-17.5 9.5t-14 6.5t-12.5 3q-8 1 -15 -8.5t-12 -35.5l-24 4q13 58 53 56q6 0 13.5 -2t15.5 -6t14.5 -7.5t14.5 -8t12 -6.5q35 -18 54 -17q25 3 37 44zM350 700h24q0 -49 -34.5 -83t-83 -34t-83 34
t-34.5 83h24q0 -43 27.5 -71.5t66 -28.5t66 28.5t27.5 71.5zM256 510q69 0 113 -40t44 -127v-312q0 -9 9 -10l74 -6v-15h-97q-5 0 -5 5v60q-66 -75 -176 -75q-72 0 -115 35t-43 92q0 55 35 82t123 51l176 47v46q0 34 -7 60t-19.5 43.5t-30.5 28.5t-37.5 16t-43.5 5
q-69 -1 -138 -39q-3 -2 -4 -7l-8 -93h-14v100q0 2 2 3q77 49 162 50zM394 282l-171 -46q-56 -15 -85 -28.5t-44 -35t-15 -55.5q0 -52 37.5 -82.5t101.5 -30.5q109 0 172 83l4 5v190z" />
    <glyph glyph-name="Abrevedotbelow" unicode="&#x1eb6;" horiz-adv-x="749" 
d="M468 900h24q0 -49 -34 -83t-83 -34t-83 34t-34 83h24q0 -43 27 -71.5t66 -28.5t66 28.5t27 71.5zM663 21l56 -5v-16h-181v10q0 5 4 5l79 7q6 0 8.5 5t0.5 11l-77 185h-363l-82 -200l93 -7v-16h-171v12q0 4 5 4l46 5q5 0 7 5l279 673l15 1zM197 240h349l-174 421z
M372 -102q8 0 13.5 -5.5t5.5 -13.5t-5.5 -13.5t-13.5 -5.5t-13.5 5.5t-5.5 13.5t5.5 13.5t13.5 5.5z" />
    <glyph glyph-name="abrevedotbelow" unicode="&#x1eb7;" horiz-adv-x="561" 
d="M350 700h24q0 -49 -34.5 -83t-83 -34t-83 34t-34.5 83h24q0 -43 27.5 -71.5t66 -28.5t66 28.5t27.5 71.5zM256 510q22 0 41 -4t37 -12t32 -21.5t25 -31.5t16.5 -43t5.5 -55v-312q0 -9 9 -10l74 -6v-15h-97q-5 0 -5 5v60q-66 -75 -176 -75q-72 0 -115 35t-43 92
q0 55 35 82t123 51l176 47v46q0 81 -38 117t-100 36q-69 -1 -138 -39q-3 -2 -4 -7l-8 -93h-14v100q0 2 2 3q77 49 162 50zM394 282l-171 -46q-56 -15 -85 -28.5t-44 -35t-15 -55.5q0 -52 37.5 -82.5t101.5 -30.5q109 0 172 83l4 5v190zM257 -102q8 0 13.5 -5.5t5.5 -13.5
t-5.5 -13.5t-13.5 -5.5t-13.5 5.5t-5.5 13.5t5.5 13.5t13.5 5.5z" />
    <glyph glyph-name="Edotbelow" unicode="&#x1eb8;" horiz-adv-x="575" 
d="M80 700h430q5 0 5 -5v-107h-16l-6 86q-1 9 -10 9h-299v-317h256v-17h-256v-332h319q9 0 10 9l6 86h16v-107q0 -5 -5 -5h-450v11q0 5 5 5l67 6q9 0 9 10v636q0 10 -9 10l-67 6q-5 0 -5 5v11zM288 -102q8 0 13.5 -5.5t5.5 -13.5t-5.5 -13.5t-13.5 -5.5t-13.5 5.5t-5.5 13.5
t5.5 13.5t13.5 5.5z" />
    <glyph glyph-name="edotbelow" unicode="&#x1eb9;" horiz-adv-x="550" 
d="M284 510q105 0 156.5 -64.5t54.5 -180.5v-4q0 -11 -10 -11h-406q0 -112 56.5 -179t148.5 -67q112 0 175 68l14 -10q-20 -21 -47 -37t-64 -25.5t-78 -9.5q-101 0 -162.5 71.5t-61.5 188.5t61.5 188.5t162.5 71.5zM284 496q-89 0 -145 -63t-60 -169h391q6 0 6 6
q-8 226 -192 226zM275 -102q8 0 13.5 -5.5t5.5 -13.5t-5.5 -13.5t-13.5 -5.5t-13.5 5.5t-5.5 13.5q0 4 1.5 7.5t4 6t6 4t7.5 1.5z" />
    <glyph glyph-name="Ehookabove" unicode="&#x1eba;" horiz-adv-x="575" 
d="M287 998q48 0 81.5 -24.5t33.5 -57.5q0 -48 -52 -77q-3 -1 -10 -5t-9.5 -5.5l-7.5 -4.5t-7 -5.5t-4.5 -6.5t-3 -8t-0.5 -10v-12h-24v12q0 9 2.5 16.5t5.5 12.5t10 10l10.5 7.5t13.5 7.5t13 6q19 11 29 24.5t10 37.5q0 28 -25 46.5t-66 18.5q-37 0 -61 -16l-13 14
q28 19 74 19zM80 700h430q5 0 5 -5v-107h-16l-6 86q-1 9 -10 9h-299v-317h256v-17h-256v-332h319q9 0 10 9l6 86h16v-107q0 -5 -5 -5h-450v11q0 5 5 5l67 6q9 0 9 10v636q0 10 -9 10l-67 6q-5 0 -5 5v11z" />
    <glyph glyph-name="ehookabove" unicode="&#x1ebb;" horiz-adv-x="550" 
d="M274 785q49 0 82 -24.5t33 -57.5q0 -48 -51 -76q-4 -2 -11 -6t-9.5 -5.5l-7.5 -4.5t-6.5 -5.5t-4.5 -6t-3.5 -8t-0.5 -9.5v-13h-24v12q0 9 2.5 16.5t5.5 12.5t10 10t11 7.5t13.5 7.5t12.5 6q19 11 29 24.5t10 37.5q0 28 -25 46.5t-66 18.5q-36 0 -61 -16l-13 14
q29 19 74 19zM284 510q105 0 156.5 -64.5t54.5 -180.5v-4q0 -11 -10 -11h-406q0 -112 56.5 -179t148.5 -67q112 0 175 68l14 -10q-30 -32 -79 -52t-110 -20q-67 0 -118 32.5t-78.5 91.5t-27.5 136q0 117 61.5 188.5t162.5 71.5zM284 496q-89 0 -145 -63t-60 -169h391
q6 0 6 6q-8 226 -192 226z" />
    <glyph glyph-name="Etilde" unicode="&#x1ebc;" horiz-adv-x="575" 
d="M415 858l24 -6q-7 -22 -22.5 -37t-35.5 -17q-28 -2 -68 19q-5 3 -13.5 7.5t-14 7.5t-12 6t-11.5 5t-9 2q-9 1 -16 -8.5t-12 -35.5l-23 4q13 58 52 56q6 0 13.5 -2.5t15.5 -6t14.5 -7t15 -8t12.5 -6.5q35 -18 53 -17q25 3 37 44zM80 700h430q5 0 5 -5v-107h-16l-6 86
q-1 9 -10 9h-299v-317h256v-17h-256v-332h319q9 0 10 9l6 86h16v-107q0 -5 -5 -5h-450v11q0 5 5 5l67 6q9 0 9 10v636q0 10 -9 10l-67 6q-5 0 -5 5v11z" />
    <glyph glyph-name="etilde" unicode="&#x1ebd;" horiz-adv-x="550" 
d="M379 658l23 -6q-4 -14 -12.5 -26t-20 -19t-24.5 -9q-28 -2 -68 19q-6 3 -17 9t-17.5 9.5t-14 6.5t-12.5 3q-8 1 -15 -8.5t-12 -35.5l-24 4q13 58 53 56q6 0 13.5 -2.5t15.5 -6t14.5 -7t14.5 -8t12 -6.5q35 -18 54 -17q25 3 37 44zM284 510q105 0 156.5 -64.5t54.5 -180.5
v-4q0 -11 -10 -11h-406q0 -112 56.5 -179t148.5 -67q112 0 175 68l14 -10q-30 -32 -79 -52t-110 -20q-101 0 -162.5 71.5t-61.5 188.5q0 77 27.5 136t78.5 91.5t118 32.5zM284 496q-89 0 -145 -63t-60 -169h391q6 0 6 6q-8 226 -192 226z" />
    <glyph glyph-name="Ecircumflexacute" unicode="&#x1ebe;" horiz-adv-x="575" 
d="M460 846h-22l100 135h28zM434 782h-22l-92 117l-92 -117h-22l100 135h28zM80 700h430q5 0 5 -5v-107h-16l-6 86q-1 9 -10 9h-299v-317h256v-17h-256v-332h319q9 0 10 9l6 86h16v-107q0 -5 -5 -5h-450v11q0 5 5 5l67 6q9 0 9 10v636q0 10 -9 10l-67 6q-5 0 -5 5v11z" />
    <glyph glyph-name="ecircumflexacute" unicode="&#x1ebf;" horiz-adv-x="550" 
d="M387 700h-22l100 135h28zM397 582h-21l-92 117l-92 -117h-22l100 135h28zM284 510q105 0 156.5 -64.5t54.5 -180.5v-4q0 -11 -10 -11h-406q0 -112 56.5 -179t148.5 -67q112 0 175 68l14 -9q-30 -33 -79 -53t-110 -20q-101 0 -162.5 71.5t-61.5 188.5t61.5 188.5
t162.5 71.5zM284 496q-89 0 -145 -63t-60 -169h391q6 0 6 6q-8 226 -192 226z" />
    <glyph glyph-name="Ecircumflexgrave" unicode="&#x1ec0;" horiz-adv-x="575" 
d="M508 846h-21l-106 135h28zM434 782h-22l-92 117l-92 -117h-22l100 135h28zM80 700h430q5 0 5 -5v-107h-16l-6 86q-1 9 -10 9h-299v-317h256v-17h-256v-332h319q9 0 10 9l6 86h16v-107q0 -5 -5 -5h-450v11q0 5 5 5l67 6q9 0 9 10v636q0 10 -9 10l-67 6q-5 0 -5 5v11z" />
    <glyph glyph-name="ecircumflexgrave" unicode="&#x1ec1;" horiz-adv-x="550" 
d="M383 700h-22l-106 135h28zM397 582h-21l-92 117l-92 -117h-22l100 135h28zM284 510q105 0 156.5 -64.5t54.5 -180.5v-4q0 -11 -10 -11h-406q0 -112 56.5 -179t148.5 -67q112 0 175 68l14 -10q-30 -32 -79 -52t-110 -20q-101 0 -162.5 71.5t-61.5 188.5q0 77 27.5 136
t78.5 91.5t118 32.5zM284 496q-89 0 -145 -63t-60 -169h391q6 0 6 6q-8 226 -192 226z" />
    <glyph glyph-name="Ecircumflexhookabove" unicode="&#x1ec2;" horiz-adv-x="575" 
d="M488 998q48 0 81.5 -24.5t33.5 -57.5q0 -48 -52 -76q-3 -2 -10 -6t-9.5 -5.5l-7.5 -4.5t-7 -5.5t-4.5 -6t-3 -8t-0.5 -9.5v-13h-24v12q0 11 2 19t10 15t11 9.5t17 9.5t15 8q19 10 29 23.5t10 37.5q0 28 -25 46.5t-66 18.5q-37 0 -61 -16l-13 14q28 19 74 19zM434 782h-22
l-92 117l-92 -117h-22l100 135h28zM80 700h430q5 0 5 -5v-107h-16l-6 86q-1 9 -10 9h-299v-317h256v-17h-256v-332h319q9 0 10 9l6 86h16v-107q0 -5 -5 -5h-450v11q0 5 5 5l67 6q9 0 9 10v636q0 10 -9 10l-67 6q-5 0 -5 5v11z" />
    <glyph glyph-name="ecircumflexhookabove" unicode="&#x1ec3;" horiz-adv-x="550" 
d="M368 904q48 0 81.5 -24.5t33.5 -57.5q0 -48 -52 -77q-3 -1 -10 -5t-9.5 -5.5l-7.5 -4.5t-7 -5.5t-4.5 -6.5t-3.5 -8t-1 -9l1 -13h-24l-1 12q0 11 2.5 19t10.5 15t11 9.5t17 9.5t15 7q18 11 28.5 24.5t10.5 37.5q0 28 -25 46.5t-66 18.5q-37 0 -61 -16l-13 14q28 19 74 19
zM387 582h-21l-92 117l-92 -117h-22l100 135h28zM284 510q105 0 156.5 -64.5t54.5 -180.5v-4q0 -11 -10 -11h-406q0 -112 56.5 -179t148.5 -67q112 0 175 68l14 -10q-20 -21 -47 -37t-64 -25.5t-78 -9.5q-67 0 -118 32.5t-78.5 91.5t-27.5 136q0 117 61.5 188.5t162.5 71.5z
M284 496q-89 0 -145 -63t-60 -169h391q6 0 6 6q-8 226 -192 226z" />
    <glyph glyph-name="Ecircumflextilde" unicode="&#x1ec4;" horiz-adv-x="575" 
d="M415 1015l24 -5q-7 -23 -22.5 -37.5t-35.5 -16.5q-28 -3 -68 18q-6 3 -17 9t-17 9.5t-13.5 6.5t-12.5 3q-9 1 -16 -8.5t-12 -35.5l-23 5q13 57 52 55q8 0 18.5 -3.5t17.5 -7.5t19 -10.5t16 -8.5q35 -18 53 -16q25 2 37 43zM434 782h-22l-92 117l-92 -117h-22l100 135h28z
M80 700h430q5 0 5 -5v-107h-16l-6 86q-1 9 -10 9h-299v-317h256v-17h-256v-332h319q9 0 10 9l6 86h16v-107q0 -5 -5 -5h-450v11q0 5 5 5l67 6q9 0 9 10v636q0 10 -9 10l-67 6q-5 0 -5 5v11z" />
    <glyph glyph-name="ecircumflextilde" unicode="&#x1ec5;" horiz-adv-x="550" 
d="M379 799l23 -5q-7 -23 -22 -37.5t-35 -16.5q-28 -3 -68 18q-6 3 -17 9t-17.5 9.5t-14 6.5t-12.5 3q-8 1 -15 -8.5t-12 -35.5l-24 5q13 57 53 55q8 0 18.5 -3.5t17.5 -7.5t19 -10.5t15 -8.5q35 -18 54 -16q25 2 37 43zM397 582h-21l-92 117l-92 -117h-22l100 135h28z
M284 510q105 0 156.5 -64.5t54.5 -180.5v-4q0 -11 -10 -11h-406q0 -112 56.5 -179t148.5 -67q112 0 175 68l14 -10q-20 -21 -47 -37t-64 -25.5t-78 -9.5q-101 0 -162.5 71.5t-61.5 188.5t61.5 188.5t162.5 71.5zM284 496q-89 0 -145 -63t-60 -169h391q6 0 6 6
q-8 226 -192 226z" />
    <glyph glyph-name="Ecircumflexdotbelow" unicode="&#x1ec6;" horiz-adv-x="575" 
d="M434 782h-22l-92 117l-92 -117h-22l100 135h28zM80 700h430q5 0 5 -5v-107h-16l-6 86q-1 9 -10 9h-299v-317h256v-17h-256v-332h319q9 0 10 9l6 86h16v-107q0 -5 -5 -5h-450v11q0 5 5 5l67 6q9 0 9 10v636q0 10 -9 10l-67 6q-5 0 -5 5v11zM288 -102q8 0 13.5 -5.5
t5.5 -13.5q0 -5 -2.5 -9.5t-7 -7t-9.5 -2.5q-8 0 -13.5 5.5t-5.5 13.5t5.5 13.5t13.5 5.5z" />
    <glyph glyph-name="ecircumflexdotbelow" unicode="&#x1ec7;" horiz-adv-x="550" 
d="M397 582h-21l-92 117l-92 -117h-22l100 135h28zM284 510q105 0 156.5 -64.5t54.5 -180.5v-4q0 -11 -10 -11h-406q0 -112 56.5 -179t148.5 -67q112 0 175 68l14 -10q-20 -21 -47 -37t-64 -25.5t-78 -9.5q-101 0 -162.5 71.5t-61.5 188.5t61.5 188.5t162.5 71.5zM284 496
q-89 0 -145 -63t-60 -169h391q6 0 6 6q-8 226 -192 226zM275 -102q8 0 13.5 -5.5t5.5 -13.5t-5.5 -13.5t-13.5 -5.5t-13.5 5.5t-5.5 13.5q0 4 1.5 7.5t4 6t6 4t7.5 1.5z" />
    <glyph glyph-name="Ihookabove" unicode="&#x1ec8;" horiz-adv-x="348" 
d="M165 998q48 0 81.5 -24.5t33.5 -57.5q0 -48 -52 -77q-3 -1 -10 -5t-9.5 -5.5l-7.5 -4.5t-7 -5.5t-4.5 -6.5t-3 -8t-0.5 -10v-12h-24v12q0 11 2 19t10 15t11 9.5t17 9.5t15 7q18 11 28.5 24.5t10.5 37.5q0 28 -25 46.5t-66 18.5q-37 0 -61 -16l-13 14q28 19 74 19z
M268 684l-74 -6q-9 -1 -9 -10v-636q0 -9 9 -10l74 -6v-16h-188v11q0 5 5 5l68 6q9 1 9 10v636q0 9 -9 10l-68 6q-5 0 -5 5v11h188v-16z" />
    <glyph glyph-name="ihookabove" unicode="&#x1ec9;" horiz-adv-x="330" 
d="M149 785q48 0 81.5 -24.5t33.5 -57.5q0 -48 -52 -76q-3 -2 -10 -6t-9.5 -5.5l-7.5 -4.5t-7 -5.5t-4.5 -6t-3 -8t-0.5 -9.5v-13h-24v12q0 11 2.5 19t10.5 15t10.5 9.5t16.5 9.5t15 7q19 11 29 24.5t10 37.5q0 28 -25 46.5t-66 18.5q-36 0 -61 -16l-13 14q28 19 74 19z
M80 500l82 4q6 1 6 -5v-468q0 -9 9 -10l78 -6v-15h-175v11q0 4 5 4l55 5q9 1 9 10v443q0 9 -10 10l-59 3v14z" />
    <glyph glyph-name="Idotbelow" unicode="&#x1eca;" horiz-adv-x="348" 
d="M268 684l-74 -6q-9 -1 -9 -10v-636q0 -9 9 -10l74 -6v-16h-188v11q0 5 5 5l68 6q9 1 9 10v636q0 9 -9 10l-68 6q-5 0 -5 5v11h188v-16zM175 -102q8 0 13.5 -5.5t5.5 -13.5t-5.5 -13.5t-13.5 -5.5t-13.5 5.5t-5.5 13.5t5.5 13.5t13.5 5.5z" />
    <glyph glyph-name="idotbelow" unicode="&#x1ecb;" horiz-adv-x="330" 
d="M158.5 700q7.5 0 13 -5.5t5.5 -13.5t-5.5 -13.5t-13.5 -5.5q-5 0 -9 2.5t-7 7t-3 9.5q0 8 6 13.5t13.5 5.5zM80 500l82 4q6 1 6 -5v-468q0 -9 9 -10l78 -6v-15h-175v11q0 4 5 4l55 5q9 1 9 10v443q0 9 -10 10l-59 3v14zM158 -102q8 0 13.5 -5.5t5.5 -13.5t-5.5 -13.5
t-13 -5.5t-13.5 5.5t-6 13.5q0 5 3 9.5t7 7t9 2.5z" />
    <glyph glyph-name="Odotbelow" unicode="&#x1ecc;" horiz-adv-x="784" 
d="M392 710q99 0 174.5 -45t116.5 -127t41 -188q0 -162 -91 -261t-241 -99t-241 99t-91 261t91 261t241 99zM392.5 693q-139.5 0 -224 -93.5t-84.5 -249.5t84.5 -249.5t224 -93.5t223.5 93.5t84 249.5t-84 249.5t-223.5 93.5zM392 -102q8 0 13.5 -5.5t5.5 -13.5
q0 -5 -2.5 -9.5t-7 -7t-9.5 -2.5q-8 0 -13.5 5.5t-5.5 13.5t5.5 13.5t13.5 5.5z" />
    <glyph glyph-name="odotbelow" unicode="&#x1ecd;" 
d="M300 510q108 0 174 -71.5t66 -188.5t-66 -188.5t-174 -71.5q-72 0 -126.5 32.5t-84 91.5t-29.5 136q0 117 66 188.5t174 71.5zM300 496q-100 0 -160.5 -67t-60.5 -179t60.5 -179t160.5 -67t160.5 67t60.5 179q0 74 -27.5 130t-77.5 86t-116 30zM300 -102q7 0 13 -5.5
t6 -13.5t-6 -13.5t-13.5 -5.5t-13 5.5t-5.5 13.5q0 4 1.5 7.5t4 6t6 4t7.5 1.5z" />
    <glyph glyph-name="Ohookabove" unicode="&#x1ece;" horiz-adv-x="784" 
d="M385 998q49 0 82.5 -24.5t33.5 -57.5q0 -48 -52 -77q-3 -1 -10.5 -5t-10 -5.5l-7.5 -4.5t-6.5 -5.5t-4 -6.5t-3.5 -8t-1 -10v-12h-24v12q0 11 2.5 19t10.5 15t11 9.5t16.5 9.5t14.5 7q19 11 29.5 24.5t10.5 37.5q0 28 -25.5 46.5t-66.5 18.5q-36 0 -60 -16l-14 14
q29 19 74 19zM392 710q150 0 241 -99t91 -261t-91 -261t-241 -99t-241 99t-91 261t91 261t241 99zM392.5 693q-139.5 0 -224 -93.5t-84.5 -249.5t84.5 -249.5t224 -93.5t223.5 93.5t84 249.5t-84 249.5t-223.5 93.5z" />
    <glyph glyph-name="ohookabove" unicode="&#x1ecf;" 
d="M290 785q49 0 82 -24.5t33 -57.5q0 -48 -51 -76q-4 -2 -11 -6t-9.5 -5.5l-7.5 -4.5t-6.5 -5.5t-4.5 -6t-3.5 -8t-0.5 -9.5v-13h-24v12q0 11 2.5 19t10.5 15t10.5 9.5t16.5 9.5t15 7q19 11 29 24.5t10 37.5q0 28 -25 46.5t-66 18.5q-36 0 -61 -16l-13 14q29 19 74 19z
M300 510q71 0 126 -32.5t84.5 -91.5t29.5 -136q0 -117 -66 -188.5t-174 -71.5t-174 71.5t-66 188.5t66 188.5t174 71.5zM300 496q-100 0 -160.5 -67t-60.5 -179t60.5 -179t160.5 -67t160.5 67t60.5 179t-60.5 179t-160.5 67z" />
    <glyph glyph-name="Ocircumflexacute" unicode="&#x1ed0;" horiz-adv-x="784" 
d="M537 812h-22l100 136h28zM506 749h-22l-92 117l-92 -117h-22l100 135h28zM392 710q150 0 241 -99t91 -261t-91 -261t-241 -99t-241 99t-91 261t91 261t241 99zM392.5 693q-139.5 0 -224 -93.5t-84.5 -249.5t84.5 -249.5t224 -93.5t223.5 93.5t84 249.5t-84 249.5
t-223.5 93.5z" />
    <glyph glyph-name="ocircumflexacute" unicode="&#x1ed1;" 
d="M403 700h-22l100 135h28zM414 582h-22l-92 117l-92 -117h-22l100 135h28zM300 510q108 0 174 -71.5t66 -188.5t-66 -188.5t-174 -71.5t-174 71.5t-66 188.5t66 188.5t174 71.5zM300 496q-100 0 -160.5 -67t-60.5 -179t60.5 -179t160.5 -67t160.5 67t60.5 179t-60.5 179
t-160.5 67z" />
    <glyph glyph-name="Ocircumflexgrave" unicode="&#x1ed2;" horiz-adv-x="784" 
d="M571 812h-22l-106 136h28zM506 749h-22l-92 117l-92 -117h-22l100 135h28zM392 710q150 0 241 -99t91 -261t-91 -261t-241 -99t-241 99t-91 261t91 261t241 99zM392 693q-139 0 -223.5 -93.5t-84.5 -249.5t84.5 -249.5t224 -93.5t223.5 93.5t84 249.5q0 77 -22 141
t-62 108.5t-97.5 69t-126.5 24.5z" />
    <glyph glyph-name="ocircumflexgrave" unicode="&#x1ed3;" 
d="M399 700h-22l-106 135h28zM414 582h-22l-92 117l-92 -117h-22l100 135h28zM300 510q108 0 174 -71.5t66 -188.5t-66 -188.5t-174 -71.5t-174 71.5t-66 188.5t66 188.5t174 71.5zM300 496q-100 0 -160.5 -67t-60.5 -179t60.5 -179t160.5 -67t160.5 67t60.5 179
q0 74 -27.5 130t-77.5 86t-116 30z" />
    <glyph glyph-name="Ocircumflexhookabove" unicode="&#x1ed4;" horiz-adv-x="784" 
d="M552 973q48 0 81.5 -24.5t33.5 -57.5q0 -48 -52 -76q-3 -2 -10 -6t-9.5 -5.5l-7.5 -4.5t-7 -5.5t-4.5 -6t-3 -8t-0.5 -9.5v-13h-24v12q0 11 2 19t10 15t11 9.5t17 9.5t15 8q19 10 29 23.5t10 37.5q0 28 -25 46.5t-66 18.5q-37 0 -61 -16l-13 15q28 18 74 18zM506 749h-22
l-92 117l-92 -117h-22l100 135h28zM392 710q150 0 241 -99t91 -261t-91 -261t-241 -99t-241 99t-91 261t91 261t241 99zM392.5 693q-139.5 0 -224 -93.5t-84.5 -249.5t84.5 -249.5t224 -93.5t223.5 93.5t84 249.5t-84 249.5t-223.5 93.5z" />
    <glyph glyph-name="ocircumflexhookabove" unicode="&#x1ed5;" 
d="M394 904q48 0 81.5 -24.5t33.5 -57.5q0 -48 -52 -77q-3 -1 -10 -5t-9.5 -5.5l-7.5 -4.5t-7 -5.5t-4.5 -6.5t-3 -8t-0.5 -9v-13h-24v12q0 11 2 19t10 15t11 9.5t17 9.5t15 7q12 7 19.5 13.5t13.5 19t6 29.5q0 28 -25 46.5t-66 18.5q-37 0 -61 -16l-13 14q28 19 74 19z
M414 582h-22l-92 117l-92 -117h-22l100 135h28zM300 510q108 0 174 -71.5t66 -188.5t-66 -188.5t-174 -71.5t-174 71.5t-66 188.5t66 188.5t174 71.5zM300 496q-100 0 -160.5 -67t-60.5 -179t60.5 -179t160.5 -67t160.5 67t60.5 179q0 74 -27.5 130t-77.5 86t-116 30z" />
    <glyph glyph-name="Ocircumflextilde" unicode="&#x1ed6;" horiz-adv-x="784" 
d="M487 1015l24 -5q-7 -23 -22.5 -37.5t-35.5 -16.5q-28 -3 -68 18q-6 3 -17 9t-17 9.5t-13.5 6.5t-12.5 3q-9 1 -16 -8.5t-12 -35.5l-23 5q13 57 52 55q6 0 13.5 -2t15.5 -6t14.5 -7t15 -8t12.5 -7q35 -18 53 -16q25 2 37 43zM506 782h-22l-92 117l-92 -117h-22l100 135h28
zM392 710q150 0 241 -99t91 -261t-91 -261t-241 -99t-241 99t-91 261t91 261t241 99zM392.5 693q-139.5 0 -224 -93.5t-84.5 -249.5t84.5 -249.5t224 -93.5t223.5 93.5t84 249.5t-84 249.5t-223.5 93.5z" />
    <glyph glyph-name="ocircumflextilde" unicode="&#x1ed7;" 
d="M395 799l24 -5q-7 -23 -22.5 -37.5t-35.5 -16.5q-28 -3 -68 18q-6 3 -17 9t-17 9.5t-13.5 6.5t-12.5 3q-6 1 -10.5 -2.5t-9 -13.5t-8.5 -28l-23 5q13 57 52 55q8 0 18.5 -3.5t17.5 -7.5t19 -10.5t16 -8.5q35 -18 53 -16q25 2 37 43zM414 582h-22l-92 117l-92 -117h-22
l100 135h28zM300 510q108 0 174 -71.5t66 -188.5t-66 -188.5t-174 -71.5t-174 71.5t-66 188.5t66 188.5t174 71.5zM300 496q-100 0 -160.5 -67t-60.5 -179t60.5 -179t160.5 -67t160.5 67t60.5 179t-60.5 179t-160.5 67z" />
    <glyph glyph-name="Ocircumflexdotbelow" unicode="&#x1ed8;" horiz-adv-x="784" 
d="M506 782h-22l-92 117l-92 -117h-22l100 135h28zM392 710q99 0 174.5 -45t116.5 -127t41 -188q0 -162 -91 -261t-241 -99t-241 99t-91 261t91 261t241 99zM392.5 693q-139.5 0 -224 -93.5t-84.5 -249.5t84.5 -249.5t224 -93.5t223.5 93.5t84 249.5t-84 249.5t-223.5 93.5z
M392 -102q8 0 13.5 -5.5t5.5 -13.5q0 -5 -2.5 -9.5t-7 -7t-9.5 -2.5q-8 0 -13.5 5.5t-5.5 13.5t5.5 13.5t13.5 5.5z" />
    <glyph glyph-name="ocircumflexdotbelow" unicode="&#x1ed9;" 
d="M414 582h-22l-92 117l-92 -117h-22l100 135h28zM300 510q108 0 174 -71.5t66 -188.5t-66 -188.5t-174 -71.5t-174 71.5t-66 188.5t66 188.5t174 71.5zM300 496q-100 0 -160.5 -67t-60.5 -179t60.5 -179t160.5 -67t160.5 67t60.5 179q0 74 -27.5 130t-77.5 86t-116 30z
M300 -102q7 0 13 -5.5t6 -13.5t-6 -13.5t-13.5 -5.5t-13 5.5t-5.5 13.5q0 4 1.5 7.5t4 6t6 4t7.5 1.5z" />
    <glyph glyph-name="Ohornacute" unicode="&#x1eda;" horiz-adv-x="784" 
d="M392 782h-22l100 135h28zM707 834l21 8q34 -59 27 -115q-3 -28 -17 -49.5t-40.5 -34.5t-63.5 -13q-11 0 -23 2q55 -48 84 -120.5t29 -161.5q0 -162 -91 -261t-241 -99t-241 99t-91 261t91 261t241 99q98 0 174 -45q33 -18 68 -18q44 0 68.5 22t28.5 60q6 51 -24 105z
M392.5 693q-139.5 0 -224 -93.5t-84.5 -249.5t84.5 -249.5t224 -93.5t223.5 93.5t84 249.5t-84 249.5t-223.5 93.5z" />
    <glyph glyph-name="ohornacute" unicode="&#x1edb;" 
d="M300 582h-22l100 135h28zM558 640l17 7q33 -60 27 -115q-5 -44 -36.5 -71t-88.5 -26q63 -71 63 -185q0 -117 -66 -188.5t-174 -71.5q-72 0 -126.5 32.5t-84 91.5t-29.5 136q0 117 66 188.5t174 71.5q98 0 163 -60q9 -1 18 -1q46 -1 71.5 22t30.5 62q6 52 -25 107z
M300 496q-100 0 -160.5 -67t-60.5 -179t60.5 -179t160.5 -67t160.5 67t60.5 179q0 74 -27.5 130t-77.5 86t-116 30z" />
    <glyph glyph-name="Ohorngrave" unicode="&#x1edc;" horiz-adv-x="784" 
d="M414 782h-22l-106 135h28zM707 834l21 8q34 -59 27 -115q-3 -28 -17 -49.5t-40.5 -34.5t-63.5 -13q-11 0 -23 2q36 -32 61.5 -74.5t38.5 -95t13 -112.5q0 -162 -91 -261t-241 -99t-241 99t-91 261t91 261t241 99q98 0 174 -45q33 -18 68 -18q44 0 68.5 22t28.5 60
q6 51 -24 105zM392.5 693q-139.5 0 -224 -93.5t-84.5 -249.5t84.5 -249.5t224 -93.5t223.5 93.5t84 249.5t-84 249.5t-223.5 93.5z" />
    <glyph glyph-name="ohorngrave" unicode="&#x1edd;" 
d="M322 582h-22l-106 135h28zM558 640l17 7q33 -60 27 -115q-5 -44 -36.5 -71t-88.5 -26q63 -71 63 -185q0 -117 -66 -188.5t-174 -71.5t-174 71.5t-66 188.5t66 188.5t174 71.5q98 0 163 -60q9 -1 18 -1q46 -1 71.5 22t30.5 62q6 52 -25 107zM300 496q-100 0 -160.5 -67
t-60.5 -179t60.5 -179t160.5 -67t160.5 67t60.5 179t-60.5 179t-160.5 67z" />
    <glyph glyph-name="Ohornhookabove" unicode="&#x1ede;" horiz-adv-x="784" 
d="M385 998q49 0 82.5 -24.5t33.5 -57.5q0 -48 -52 -77q-3 -1 -10.5 -5t-10 -5.5l-7.5 -4.5t-6.5 -5.5t-4 -6.5t-3.5 -8t-1 -10v-12h-24v12q0 11 2.5 19t10.5 15t11 9.5t16.5 9.5t14.5 7q19 11 29.5 24.5t10.5 37.5q0 28 -25.5 46.5t-66.5 18.5q-36 0 -60 -16l-14 14
q29 19 74 19zM707 834l21 8q34 -59 27 -115q-5 -43 -36 -70t-85 -27q-11 0 -23 2q55 -48 84 -120.5t29 -161.5q0 -162 -91 -261t-241 -99t-241 99t-91 261t91 261t241 99q98 0 174 -45q33 -18 68 -18q44 0 68.5 22t28.5 60q6 51 -24 105zM392.5 693q-139.5 0 -224 -93.5
t-84.5 -249.5t84.5 -249.5t224 -93.5t223.5 93.5t84 249.5t-84 249.5t-223.5 93.5z" />
    <glyph glyph-name="ohornhookabove" unicode="&#x1edf;" 
d="M290 785q49 0 82 -24.5t33 -57.5q0 -48 -51 -76q-4 -2 -11 -6t-9.5 -5.5l-7.5 -4.5t-6.5 -5.5t-4.5 -6t-3.5 -8t-0.5 -9.5v-13h-24v12q0 11 2.5 19t10.5 15t10.5 9.5t16.5 9.5t15 7q19 11 29 24.5t10 37.5q0 28 -25 46.5t-66 18.5q-36 0 -61 -16l-13 14q29 19 74 19z
M558 640l17 7q33 -60 27 -115q-5 -44 -36.5 -71t-88.5 -26q63 -71 63 -185q0 -117 -66 -188.5t-174 -71.5q-72 0 -126.5 32.5t-84 91.5t-29.5 136q0 117 66 188.5t174 71.5q98 0 163 -60q9 -1 18 -1q46 -1 71.5 22t30.5 62q6 52 -25 107zM300 496q-100 0 -160.5 -67
t-60.5 -179t60.5 -179t160.5 -67t160.5 67t60.5 179q0 74 -27.5 130t-77.5 86t-116 30z" />
    <glyph glyph-name="Ohorntilde" unicode="&#x1ee0;" horiz-adv-x="784" 
d="M487 858l24 -6q-7 -22 -22.5 -37t-35.5 -17q-28 -2 -68 19q-6 3 -17 9t-17 9.5t-13.5 6.5t-12.5 3q-9 1 -16 -8.5t-12 -35.5l-23 4q13 58 52 56q8 0 18.5 -4t17.5 -7.5t19 -10t16 -8.5q35 -18 53 -17q25 3 37 44zM707 834l21 8q34 -59 27 -115q-3 -28 -17 -49.5
t-40.5 -34.5t-63.5 -13q-11 0 -23 2q55 -48 84 -120.5t29 -161.5q0 -162 -91 -261t-241 -99t-241 99t-91 261t91 261t241 99q98 0 174 -45q33 -18 68 -18q44 0 68.5 22t28.5 60q6 51 -24 105zM392 693q-139 0 -223.5 -93.5t-84.5 -249.5t84.5 -249.5t224 -93.5t223.5 93.5
t84 249.5q0 103 -38 181t-108 120t-162 42z" />
    <glyph glyph-name="ohorntilde" unicode="&#x1ee1;" 
d="M395 658l24 -6q-7 -22 -22.5 -37t-35.5 -17q-28 -2 -68 19q-6 3 -17 9t-17 9.5t-13.5 6.5t-12.5 3q-6 0 -10.5 -3t-9 -13t-8.5 -28l-23 4q13 58 52 56q5 0 11.5 -2t12.5 -4t12.5 -5.5t12 -6.5t12 -6.5t10.5 -5.5q35 -18 53 -17q25 3 37 44zM558 640l17 7q33 -60 27 -115
q-5 -44 -36.5 -71t-88.5 -26q63 -71 63 -185q0 -117 -66 -188.5t-174 -71.5t-174 71.5t-66 188.5t66 188.5t174 71.5q98 0 163 -60q9 -1 18 -1q46 -1 71.5 22t30.5 62q6 52 -25 107zM300 496q-100 0 -160.5 -67t-60.5 -179t60.5 -179t160.5 -67t160.5 67t60.5 179
q0 74 -27.5 130t-77.5 86t-116 30z" />
    <glyph glyph-name="Ohorndotbelow" unicode="&#x1ee2;" horiz-adv-x="784" 
d="M707 834l21 8q34 -59 27 -115q-3 -28 -17 -49.5t-40.5 -34.5t-63.5 -13q-11 0 -23 2q36 -32 61.5 -74.5t38.5 -95t13 -112.5q0 -162 -91 -261t-241 -99t-241 99t-91 261t91 261t241 99q98 0 174 -45q33 -18 68 -18q44 0 68.5 22t28.5 60q6 51 -24 105zM392.5 693
q-139.5 0 -224 -93.5t-84.5 -249.5t84.5 -249.5t224 -93.5t223.5 93.5t84 249.5t-84 249.5t-223.5 93.5zM392 -102q8 0 13.5 -5.5t5.5 -13.5t-5.5 -13.5t-13.5 -5.5t-13.5 5.5t-5.5 13.5q0 4 1.5 7.5t4 6t6 4t7.5 1.5z" />
    <glyph glyph-name="ohorndotbelow" unicode="&#x1ee3;" 
d="M558 640l17 7q33 -60 27 -115q-5 -44 -36.5 -71t-88.5 -26q63 -71 63 -185q0 -117 -66 -188.5t-174 -71.5t-174 71.5t-66 188.5t66 188.5t174 71.5q98 0 163 -60q9 -1 18 -1q46 -1 71.5 22t30.5 62q6 52 -25 107zM300 496q-100 0 -160.5 -67t-60.5 -179t60.5 -179
t160.5 -67t160.5 67t60.5 179t-60.5 179t-160.5 67zM299.5 -102q7.5 0 13.5 -5.5t6 -13.5q0 -5 -2.5 -9.5t-7 -7t-9.5 -2.5q-8 0 -13.5 5.5t-5.5 13.5t5.5 13.5t13 5.5z" />
    <glyph glyph-name="Udotbelow" unicode="&#x1ee4;" horiz-adv-x="834" 
d="M759 684l-71 -6q-9 0 -9 -10v-397q0 -126 -71 -203.5t-188.5 -77.5t-188.5 77.5t-71 203.5v397q0 10 -9 10l-66 6q-5 0 -5 5v11h198v-16l-85 -7q-9 -1 -9 -10v-396q0 -121 64.5 -192.5t171.5 -71.5t174.5 72t67.5 192v395q0 9 -9 10l-92 8v16h198v-16zM416.5 -102
q7.5 0 13.5 -5.5t6 -13.5q0 -5 -2.5 -9.5t-7 -7t-9.5 -2.5q-8 0 -13.5 5.5t-5.5 13.5t5.5 13.5t13 5.5z" />
    <glyph glyph-name="udotbelow" unicode="&#x1ee5;" horiz-adv-x="689" 
d="M65 500h97q5 0 5 -5v-338q0 -79 36.5 -116t100.5 -37q103 0 232 80v385q0 9 -9 10l-74 6v15h97q5 0 5 -5v-468q0 -10 10 -10l59 -3v-14l-82 -5q-6 0 -6 6v65q-127 -76 -232 -76q-71 0 -113.5 41t-42.5 126v312q0 9 -9 10l-74 6v15zM345 -102q8 0 13.5 -5.5t5.5 -13.5
t-5.5 -13.5t-13.5 -5.5t-13.5 5.5t-5.5 13.5q0 4 1.5 7.5t4 6t6 4t7.5 1.5z" />
    <glyph glyph-name="Uhookabove" unicode="&#x1ee6;" horiz-adv-x="834" 
d="M399 998q48 0 81.5 -24.5t33.5 -57.5q0 -48 -52 -77q-3 -1 -10 -5t-9.5 -5.5l-7.5 -4.5t-7 -5.5t-4.5 -6.5t-3 -8t-0.5 -10v-12h-24v12q0 11 2 19t10 15t11 9.5t17 9.5t15 7q18 11 28.5 24.5t10.5 37.5q0 28 -25 46.5t-66 18.5q-37 0 -61 -16l-13 14q28 19 74 19z
M759 684l-71 -6q-9 0 -9 -10v-397q0 -126 -71 -203.5t-188 -77.5q-78 0 -137 35t-91 99t-32 147v397q0 10 -9 10l-66 6q-5 0 -5 5v11h198v-16l-85 -7q-9 -1 -9 -10v-396q0 -121 64.5 -192.5t171.5 -71.5t174.5 72t67.5 192v395q0 9 -9 10l-92 8v16h198v-16z" />
    <glyph glyph-name="uhookabove" unicode="&#x1ee7;" horiz-adv-x="689" 
d="M334 785q49 0 82 -24.5t33 -57.5q0 -48 -51 -76q-4 -2 -11 -6t-9.5 -5.5l-7.5 -4.5t-6.5 -5.5t-4.5 -6t-3.5 -8t-0.5 -9.5v-13h-24v12q0 11 2.5 19t10.5 15t10.5 9.5t16.5 9.5t15 7q19 11 29 24.5t10 37.5q0 28 -25 46.5t-66 18.5q-36 0 -61 -16l-13 14q29 19 74 19z
M65 500h97q5 0 5 -5v-338q0 -79 36.5 -116t100.5 -37q103 0 232 80v385q0 9 -9 10l-74 6v15h97q5 0 5 -5v-468q0 -10 10 -10l59 -3v-14l-82 -5q-6 0 -6 6v65q-127 -76 -232 -76q-71 0 -113.5 41t-42.5 126v312q0 9 -9 10l-74 6v15z" />
    <glyph glyph-name="Uhornacute" unicode="&#x1ee8;" horiz-adv-x="839" 
d="M417 782h-22l100 135h28zM756 835l14 14q38 -27 50 -63q9 -28 -2.5 -53.5t-44.5 -40.5q-19 -9 -41 -10l-44 -4q-9 0 -9 -10v-397q0 -126 -71 -203.5t-188.5 -77.5t-188.5 77.5t-71 203.5v397q0 10 -9 10l-66 6q-5 0 -5 5v11h198v-16l-85 -7q-9 -1 -9 -10v-396
q0 -121 64.5 -192.5t171.5 -71.5t174.5 72t67.5 192v395q0 9 -9 10l-92 8v16h179q11 2 23 7q24 11 32.5 31t1.5 43q-11 33 -41 54z" />
    <glyph glyph-name="uhornacute" unicode="&#x1ee9;" horiz-adv-x="688" 
d="M345 582h-22l100 135h28zM596 642l11 11q37 -27 49 -63q10 -29 -1.5 -54t-45.5 -40q-24 -12 -54 -11v-458q0 -10 10 -10l59 -3v-14l-82 -5q-6 0 -6 6v65q-127 -76 -232 -76q-71 0 -113.5 41t-42.5 126v312q0 9 -9 10l-74 6v15h97q5 0 5 -5v-338q0 -79 36.5 -116
t100.5 -37q103 0 232 80v385q0 9 -9 10l-74 6v15h98q27 -2 50 8q26 12 35.5 33t1.5 44q-11 34 -42 57z" />
    <glyph glyph-name="Uhorngrave" unicode="&#x1eea;" horiz-adv-x="839" 
d="M439 782h-22l-106 135h28zM756 835l14 14q38 -27 50 -63q9 -28 -2.5 -53.5t-44.5 -40.5q-19 -9 -41 -10l-44 -4q-9 0 -9 -10v-397q0 -126 -71 -203.5t-188 -77.5q-78 0 -137 35t-91 99t-32 147v397q0 10 -9 10l-66 6q-5 0 -5 5v11h198v-16l-85 -7q-9 -1 -9 -10v-396
q0 -121 64.5 -192.5t171.5 -71.5t174.5 72t67.5 192v395q0 9 -9 10l-92 8v16h179q11 2 23 7q24 11 32.5 31t1.5 43q-11 33 -41 54z" />
    <glyph glyph-name="uhorngrave" unicode="&#x1eeb;" horiz-adv-x="688" 
d="M367 582h-22l-106 135h28zM596 641l11 12q38 -27 49 -63q10 -29 -1.5 -54t-45.5 -40q-24 -12 -54 -11v-458q0 -10 10 -10l59 -3v-14l-82 -5q-6 0 -6 6v65q-127 -76 -232 -76q-71 0 -113.5 41t-42.5 126v312q0 9 -9 10l-74 6v15h97q5 0 5 -5v-338q0 -79 36.5 -116
t100.5 -37q103 0 232 80v385q0 9 -9 10l-74 6v15h98q27 -2 50 8q26 12 35.5 33t1.5 44q-11 34 -42 56z" />
    <glyph glyph-name="Uhornhookabove" unicode="&#x1eec;" horiz-adv-x="839" 
d="M399 998q48 0 81.5 -24.5t33.5 -57.5q0 -48 -52 -77q-3 -1 -10 -5t-9.5 -5.5l-7.5 -4.5t-7 -5.5t-4.5 -6.5t-3 -8t-0.5 -10v-12h-24v12q0 11 2 19t10 15t11 9.5t17 9.5t15 7q18 11 28.5 24.5t10.5 37.5q0 28 -25 46.5t-66 18.5q-37 0 -61 -16l-13 14q28 19 74 19z
M756 835l14 14q38 -27 50 -63q9 -28 -2.5 -53.5t-44.5 -40.5q-19 -9 -41 -10l-44 -4q-9 0 -9 -10v-397q0 -126 -71 -203.5t-188.5 -77.5t-188.5 77.5t-71 203.5v397q0 10 -9 10l-66 6q-5 0 -5 5v11h198v-16l-85 -7q-9 -1 -9 -10v-396q0 -121 64.5 -192.5t171.5 -71.5
t174.5 72t67.5 192v395q0 9 -9 10l-92 8v16h179q11 2 23 7q24 11 32.5 31t1.5 43q-11 33 -41 54z" />
    <glyph glyph-name="uhornhookabove" unicode="&#x1eed;" horiz-adv-x="688" 
d="M334 785q49 0 82 -24.5t33 -57.5q0 -48 -51 -76q-4 -2 -11 -6t-9.5 -5.5l-7.5 -4.5t-6.5 -5.5t-4.5 -6t-3.5 -8t-0.5 -9.5v-13h-24v12q0 11 2.5 19t10.5 15t10.5 9.5t16.5 9.5t15 7q19 11 29 24.5t10 37.5q0 28 -25 46.5t-66 18.5q-36 0 -61 -16l-13 14q29 19 74 19z
M596 642l11 11q37 -27 49 -63q10 -29 -1.5 -54t-45.5 -40q-24 -12 -54 -11v-458q0 -10 10 -10l59 -3v-14l-82 -5q-6 0 -6 6v65q-127 -76 -232 -76q-71 0 -113.5 41t-42.5 126v312q0 9 -9 10l-74 6v15h97q5 0 5 -5v-338q0 -79 36.5 -116t100.5 -37q103 0 232 80v385
q0 9 -9 10l-74 6v15h98q27 -2 50 8q26 12 35.5 33t1.5 44q-11 34 -42 57z" />
    <glyph glyph-name="Uhorntilde" unicode="&#x1eee;" horiz-adv-x="839" 
d="M512 858l24 -6q-7 -22 -22.5 -37t-35.5 -17q-28 -2 -68 19q-6 3 -17 9t-17 9.5t-13.5 6.5t-12.5 3q-9 1 -16 -8.5t-12 -35.5l-23 4q13 58 52 56q6 0 13.5 -2.5t15.5 -6t14.5 -7t15 -8t12.5 -6.5q35 -18 53 -17q25 3 37 44zM756 835l14 14q38 -27 50 -63q9 -28 -2.5 -53.5
t-44.5 -40.5q-19 -9 -41 -10l-44 -4q-9 0 -9 -10v-397q0 -126 -71 -203.5t-188 -77.5q-78 0 -137 35t-91 99t-32 147v397q0 10 -9 10l-66 6q-5 0 -5 5v11h198v-16l-85 -7q-9 -1 -9 -10v-396q0 -121 64.5 -192.5t171.5 -71.5t174.5 72t67.5 192v395q0 9 -9 10l-92 8v16h179
q11 2 23 7q24 11 32.5 31t1.5 43q-11 33 -41 54z" />
    <glyph glyph-name="uhorntilde" unicode="&#x1eef;" horiz-adv-x="688" 
d="M440 658l24 -6q-7 -22 -22.5 -37t-35.5 -17q-28 -2 -68 19q-6 3 -17 9t-17 9.5t-13.5 6.5t-12.5 3q-9 1 -16 -8.5t-12 -35.5l-23 4q13 58 52 56q6 0 13.5 -2.5t15.5 -6t14.5 -7t15 -8t12.5 -6.5q35 -18 53 -17q25 3 37 44zM596 642l11 11q37 -27 49 -63q10 -29 -1.5 -54
t-45.5 -40q-24 -12 -54 -11v-458q0 -10 10 -10l59 -3v-14l-82 -5q-6 0 -6 6v65q-127 -76 -232 -76q-71 0 -113.5 41t-42.5 126v312q0 9 -9 10l-74 6v15h97q5 0 5 -5v-338q0 -79 36.5 -116t100.5 -37q103 0 232 80v385q0 9 -9 10l-74 6v15h98q27 -2 50 8q26 12 35.5 33
t1.5 44q-11 34 -42 57z" />
    <glyph glyph-name="Uhorndotbelow" unicode="&#x1ef0;" horiz-adv-x="839" 
d="M756 835l14 14q38 -27 50 -63q9 -28 -2.5 -53.5t-44.5 -40.5q-19 -9 -41 -10l-44 -4q-9 0 -9 -10v-397q0 -126 -71 -203.5t-188 -77.5q-78 0 -137 35t-91 99t-32 147v397q0 10 -9 10l-66 6q-5 0 -5 5v11h198v-16l-85 -7q-9 -1 -9 -10v-396q0 -121 64.5 -192.5
t171.5 -71.5t174.5 72t67.5 192v395q0 9 -9 10l-92 8v16h179q11 2 23 7q24 11 32.5 31t1.5 43q-11 33 -41 54zM417 -102q7 0 13 -5.5t6 -13.5t-6 -13.5t-13.5 -5.5t-13 5.5t-5.5 13.5q0 4 1.5 7.5t4 6t6 4t7.5 1.5z" />
    <glyph glyph-name="uhorndotbelow" unicode="&#x1ef1;" horiz-adv-x="688" 
d="M596 642l11 11q38 -27 49 -63q5 -14 4.5 -27.5t-6 -25.5t-17 -23t-28.5 -18q-24 -12 -54 -11v-458q0 -10 10 -10l59 -3v-14l-82 -5q-6 0 -6 6v65q-127 -76 -232 -76q-71 0 -113.5 41t-42.5 126v312q0 9 -9 10l-74 6v15h97q5 0 5 -5v-338q0 -79 36.5 -116t100.5 -37
q103 0 232 80v385q0 9 -9 10l-74 6v15h98q27 -2 50 8q26 12 35.5 33t1.5 44q-11 34 -42 57zM345 -102q8 0 13.5 -5.5t5.5 -13.5t-5.5 -13.5t-13.5 -5.5t-13.5 5.5t-5.5 13.5q0 4 1.5 7.5t4 6t6 4t7.5 1.5z" />
    <glyph glyph-name="Ygrave" unicode="&#x1ef2;" horiz-adv-x="676" 
d="M360 782h-22l-106 135h28zM646 684l-54 -5l-239 -426v-221q0 -9 9 -10l73 -6v-16h-187v11q0 5 4 5l69 6q9 1 9 10v215l-243 428q-2 4 -7 5l-45 4q-5 0 -5 4v12h69l244 -426l218 386q4 6 1 11.5t-10 6.5l-83 7q-4 0 -4 5v10h181v-16z" />
    <glyph glyph-name="ygrave" unicode="&#x1ef3;" horiz-adv-x="548" 
d="M299 582h-22l-106 135h28zM528 485l-57 -5l-266 -667q-1 -3 -4 -3h-99v15l90 7q6 0 8 6l62 157h-5l-191 480q-2 5 -7 6l-35 3q-4 1 -4 5v11h56l194 -487l179 450q2 6 -1 10.5t-9 4.5l-77 7q-5 0 -5 5v10h171v-15z" />
    <glyph glyph-name="Ydotbelow" unicode="&#x1ef4;" horiz-adv-x="676" 
d="M646 684l-54 -5l-239 -426v-221q0 -9 9 -10l73 -6v-16h-187v11q0 5 4 5l69 6q9 1 9 10v215l-243 428q-2 4 -7 5l-45 4q-5 0 -5 4v12h69l244 -426l218 386q4 6 1 11.5t-10 6.5l-83 7q-4 0 -4 5v10h181v-16zM341.5 -102q7.5 0 13 -5.5t5.5 -13.5t-5.5 -13.5t-13 -5.5
t-13.5 5.5t-6 13.5t6 13.5t13.5 5.5z" />
    <glyph glyph-name="ydotbelow" unicode="&#x1ef5;" horiz-adv-x="548" 
d="M528 485l-57 -5l-266 -667q-1 -3 -4 -3h-99v15l90 7q6 0 8 6l62 157h-5l-191 480q-2 5 -7 6l-35 3q-4 1 -4 5v11h56l194 -487l179 450q2 6 -1 10.5t-9 4.5l-77 7q-5 0 -5 5v10h171v-15zM286.5 -102q7.5 0 13 -5.5t5.5 -13.5t-5.5 -13.5t-13 -5.5t-13.5 5.5t-6 13.5
t6 13.5t13.5 5.5z" />
    <glyph glyph-name="Yhookabove" unicode="&#x1ef6;" horiz-adv-x="676" 
d="M336 998q49 0 82.5 -24.5t33.5 -57.5q0 -48 -52 -77q-3 -1 -10.5 -5t-10 -5.5l-7.5 -4.5t-6.5 -5.5t-4 -6.5t-3.5 -8t-1 -10v-12h-24v12q0 11 2.5 19t10.5 15t11 9.5t16.5 9.5t14.5 7q12 7 20 13.5t14 19t6 29.5q0 18 -11.5 33t-32.5 23.5t-48 8.5q-36 0 -60 -16l-14 14
q29 19 74 19zM646 684l-54 -5l-239 -426v-221q0 -9 9 -10l73 -6v-16h-187v11q0 5 4 5l69 6q9 1 9 10v215l-243 428q-2 4 -7 5l-45 4q-5 0 -5 4v12h69l244 -426l218 386q4 6 1 11.5t-10 6.5l-83 7q-4 0 -4 5v10h181v-16z" />
    <glyph glyph-name="yhookabove" unicode="&#x1ef7;" horiz-adv-x="548" 
d="M257 785q49 0 82 -24.5t33 -57.5q0 -48 -51 -76q-4 -2 -11 -6t-9.5 -5.5l-7.5 -4.5t-6.5 -5.5t-4.5 -6t-3.5 -8t-0.5 -9.5v-13h-24v12q0 11 2.5 19t10.5 15t10.5 9.5t16.5 9.5t15 7q19 11 29 24.5t10 37.5q0 28 -25 46.5t-66 18.5q-36 0 -61 -16l-13 14q29 19 74 19z
M528 485l-57 -5l-266 -667q-1 -3 -4 -3h-99v15l90 7q6 0 8 6l62 157h-5l-191 480q-2 5 -7 6l-35 3q-4 1 -4 5v11h56l194 -487l179 450q2 6 -1 10.5t-9 4.5l-77 7q-5 0 -5 5v10h171v-15z" />
    <glyph glyph-name="Ytilde" unicode="&#x1ef8;" horiz-adv-x="676" 
d="M433 858l24 -6q-7 -22 -22.5 -37t-35.5 -17q-28 -2 -68 19q-6 3 -17 9t-17 9.5t-13.5 6.5t-12.5 3q-6 0 -10.5 -3t-9 -13t-8.5 -28l-23 4q13 58 52 56q6 0 13.5 -2.5t15.5 -6t14.5 -7t15 -8t12.5 -6.5q35 -18 53 -17q25 3 37 44zM646 684l-54 -5l-239 -426v-221
q0 -9 9 -10l73 -6v-16h-187v11q0 5 4 5l69 6q9 1 9 10v215l-243 428q-2 4 -7 5l-45 4q-5 0 -5 4v12h69l244 -426l218 386q4 6 1 11.5t-10 6.5l-83 7q-4 0 -4 5v10h181v-16z" />
    <glyph glyph-name="ytilde" unicode="&#x1ef9;" horiz-adv-x="548" 
d="M372 658l24 -6q-7 -22 -22.5 -37t-35.5 -17q-28 -2 -68 19q-6 3 -17 9t-17 9.5t-13.5 6.5t-12.5 3q-9 1 -16 -8.5t-12 -35.5l-23 4q13 58 52 56q6 0 13.5 -2.5t15.5 -6t14.5 -7t15 -8t12.5 -6.5q35 -18 53 -17q25 3 37 44zM528 485l-57 -5l-266 -667q-1 -3 -4 -3h-99v15
l90 7q6 0 8 6l62 157h-5l-191 480q-2 5 -7 6l-35 3q-4 1 -4 5v11h56l194 -487l179 450q2 6 -1 10.5t-9 4.5l-77 7q-5 0 -5 5v10h171v-15z" />
    <glyph glyph-name="endash" unicode="&#x2013;" horiz-adv-x="464" 
d="M414 241h-364v17h364v-17z" />
    <glyph glyph-name="emdash" unicode="&#x2014;" horiz-adv-x="686" 
d="M636 241h-586v17h586v-17z" />
    <glyph glyph-name="quoteleft" unicode="&#x2018;" horiz-adv-x="142" 
d="M99 721l13 -8q-33 -47 -40 -96q-5 -29 5 -45h2q8 0 13.5 -5.5t5.5 -13.5t-5.5 -13.5t-13.5 -5.5q-19 0 -26 24t0 58q11 59 46 105z" />
    <glyph glyph-name="quoteright" unicode="&#x2019;" horiz-adv-x="142" 
d="M63 721q19 0 26 -24t0 -58q-11 -59 -46 -105l-13 8q33 46 40 96q5 29 -5 45h-2q-5 0 -9.5 2.5t-7 7t-2.5 9.5q0 8 5.5 13.5t13.5 5.5z" />
    <glyph glyph-name="quotesinglbase" unicode="&#x201a;" horiz-adv-x="142" 
d="M63 33q19 0 26 -24t0 -58q-11 -59 -46 -105l-13 8q33 46 40 96q5 29 -5 45h-2q-8 0 -13.5 5.5t-5.5 13.5t5.5 13.5t13.5 5.5z" />
    <glyph glyph-name="quotedblleft" unicode="&#x201c;" horiz-adv-x="269" 
d="M99 721l13 -8q-33 -47 -40 -96q-5 -29 5 -45h2q8 0 13.5 -5.5t5.5 -13.5t-5.5 -13.5t-13.5 -5.5q-19 0 -26 24t0 58q11 59 46 105zM226 721l13 -8q-33 -47 -40 -96q-5 -29 5 -45h2q4 0 7.5 -1.5t6 -4t4 -6t1.5 -7.5q0 -8 -5.5 -13.5t-13.5 -5.5q-20 0 -26.5 24t0.5 58
q11 59 46 105z" />
    <glyph glyph-name="quotedblright" unicode="&#x201d;" horiz-adv-x="269" 
d="M63 721q19 0 26 -24t0 -58q-11 -59 -46 -105l-13 8q33 46 40 96q5 29 -5 45h-2q-5 0 -9.5 2.5t-7 7t-2.5 9.5q0 8 5.5 13.5t13.5 5.5zM190 721q19 0 25.5 -24t-0.5 -58q-11 -59 -46 -105l-12 8q33 46 40 96q4 29 -5 45h-2q-8 0 -13.5 5.5t-5.5 13.5q0 5 2.5 9.5t6.5 7
t10 2.5z" />
    <glyph glyph-name="quotedblbase" unicode="&#x201e;" horiz-adv-x="269" 
d="M63 33q19 0 26 -24t0 -58q-11 -59 -46 -105l-13 8q33 46 40 96q5 29 -5 45h-2q-8 0 -13.5 5.5t-5.5 13.5t5.5 13.5t13.5 5.5zM190 33q19 0 25.5 -24t-0.5 -58q-11 -59 -46 -105l-12 8q33 46 40 96q4 29 -5 45h-2q-8 0 -13.5 5.5t-5.5 13.5t5.5 13.5t13.5 5.5z" />
    <glyph glyph-name="dagger" unicode="&#x2020;" horiz-adv-x="501" 
d="M260 500h191v-17h-191l2 -581h-23l2 581h-191v17h191l-2 217h23z" />
    <glyph glyph-name="daggerdbl" unicode="&#x2021;" horiz-adv-x="501" 
d="M260 500h191v-17h-189l-2 -347h191v-17h-191l2 -217h-23l2 217h-191v17h191l-2 347h-189v17h191l-2 217h23z" />
    <glyph glyph-name="bullet" unicode="&#x2022;" horiz-adv-x="217" 
d="M108.5 320q24.5 0 41.5 -17.5t17 -41.5t-17 -41.5t-41.5 -17.5t-41.5 17.5t-17 41.5t17 41.5t41.5 17.5z" />
    <glyph glyph-name="ellipsis" unicode="&#x2026;" horiz-adv-x="418" 
d="M69 33q8 0 13.5 -5.5t5.5 -13.5t-5.5 -13.5t-13.5 -5.5t-13.5 5.5t-5.5 13.5t5.5 13.5t13.5 5.5zM208 33q8 0 13.5 -5.5t5.5 -13.5t-5.5 -13.5t-13.5 -5.5t-13.5 5.5t-5.5 13.5t5.5 13.5t13.5 5.5zM349 33q5 0 9 -2.5t7 -7t3 -9.5q0 -8 -6 -13.5t-13.5 -5.5t-13 5.5
t-5.5 13.5t5.5 13.5t13.5 5.5z" />
    <glyph glyph-name="perthousand" unicode="&#x2030;" horiz-adv-x="1263" 
d="M268 -17h-25l360 734h25zM203 706q69 0 111 -56t42 -150t-42 -150t-111 -56q-46 0 -80.5 25.5t-53.5 72t-19 108.5q0 94 42 150t111 56zM203 689q-57 0 -93 -51t-36 -137.5t36 -138t93 -51.5t93 51.5t36 138t-36 137.5t-93 51zM675 406q69 0 111 -56t42 -150t-42 -150
t-111 -56q-46 0 -80.5 25t-53.5 72t-19 109q0 46 11 84.5t31 65t48.5 41.5t62.5 15zM1060 406q69 0 111 -56t42 -150t-42 -150t-111 -56t-111 56t-42 150t42 150t111 56zM675 389q-57 0 -93 -51.5t-36 -138t36 -137.5t93 -51t93 51t36 138q0 57 -17 100.5t-46 66t-66 22.5z
M1060 389q-57 0 -93 -51.5t-36 -138t36 -137.5t93 -51q37 0 66 22.5t46 65.5t17 101q0 86 -36 137.5t-93 51.5z" />
    <glyph glyph-name="guilsinglleft" unicode="&#x2039;" horiz-adv-x="241" 
d="M74 252l137 -175h-20l-141 175l141 174h20z" />
    <glyph glyph-name="guilsinglright" unicode="&#x203a;" horiz-adv-x="241" 
d="M191 252l-141 -175h-20l137 175l-137 174h20z" />
    <glyph glyph-name="fraction" unicode="&#x2044;" horiz-adv-x="486" 
d="M75 -17h-25l360 734h26z" />
    <glyph glyph-name="zerosuperior" unicode="&#x2070;" horiz-adv-x="407" 
d="M203.5 746q69.5 0 111.5 -55.5t42 -146.5q0 -61 -19 -107t-54 -71t-80 -25q-70 0 -112 55.5t-42 147t42 147t111.5 55.5zM204 731q-38 0 -67.5 -22t-46 -65t-16.5 -100q0 -87 36 -137.5t93.5 -50.5t93.5 50.5t36 137.5q0 57 -16.5 100t-45.5 65t-67 22z" />
    <glyph glyph-name="foursuperior" unicode="&#x2074;" horiz-adv-x="299" 
d="M36 456h146v176q0 5 5 5h18v-181h59v-14h-59v-69q0 -9 9 -10l38 -3v-14h-117v9q0 5 5 5l33 3q9 1 9 10v69h-172v12l136 286h25z" />
    <glyph glyph-name="fivesuperior" unicode="&#x2075;" horiz-adv-x="305" 
d="M258 725h-162l-15 -166q27 12 63 12q57 0 91.5 -31t34.5 -83q0 -57 -36 -86.5t-90 -29.5q-50 0 -99 23q-5 3 -5 8v62h19l4 -55q1 -6 5 -8q37 -16 76 -16q46 1 74.5 25.5t28.5 76.5q0 47 -27.5 73t-75.5 26q-44 0 -75 -25l-13 12l18 197h184v-15z" />
    <glyph glyph-name="sixsuperior" unicode="&#x2076;" horiz-adv-x="326" 
d="M203 746q38 -1 74 -21l-10 -13q-35 19 -65 19q-33 1 -61 -18.5t-46.5 -62.5t-20.5 -102v-5q35 50 104 48q55 -2 87.5 -37.5t31 -91t-33 -89t-80.5 -31.5q-63 1 -99.5 58t-33.5 148q3 94 46.5 146.5t106.5 51.5zM177 576q-41 1 -67.5 -21.5t-32.5 -65.5q8 -62 37 -96.5
t70 -36.5q25 0 44.5 12t31.5 36.5t13 58.5q1 52 -24.5 82t-71.5 31z" />
    <glyph glyph-name="sevensuperior" unicode="&#x2077;" horiz-adv-x="290" 
d="M280 740v-12q-50 -62 -98 -171q-46 -103 -70 -211h-24q23 108 72 217q38 86 84 152q3 4 1 7t-6 3h-167q-9 0 -10 -9l-3 -45h-19v64q0 5 5 5h235z" />
    <glyph glyph-name="eightsuperior" unicode="&#x2078;" horiz-adv-x="348" 
d="M177 746q54 0 86.5 -28.5t32.5 -74.5q0 -33 -18 -57.5t-51 -35.5q36 -11 56 -37.5t20 -62.5q0 -49 -34.5 -79t-91.5 -30q-38 0 -67 13.5t-44.5 38.5t-15.5 57q0 36 20 62.5t56 37.5q-32 11 -50.5 35.5t-18.5 57.5q0 18 5.5 34t16 28.5t25 21.5t33 14t40.5 5zM177 731
q-30 0 -51.5 -10t-33 -30t-11.5 -48q0 -41 25.5 -63.5t70.5 -22.5t70.5 22.5t25.5 64t-25.5 64.5t-70.5 23zM176.5 542q-48.5 0 -75.5 -24t-27 -68q0 -30 12.5 -51t35.5 -32t55 -11q48 0 75.5 24.5t27.5 69t-27.5 68.5t-76 24z" />
    <glyph glyph-name="ninesuperior" unicode="&#x2079;" horiz-adv-x="331" 
d="M153 746q42 -1 73 -27t46.5 -72.5t13.5 -107.5q-3 -93 -46 -146t-106 -51q-37 0 -74 21l10 13q34 -19 64 -19q52 -1 89 47t40 136v5q-35 -50 -105 -48q-27 1 -49.5 11t-38 26.5t-23.5 40t-7 50.5q2 56 33 89t80 32zM153 732q-39 1 -63.5 -27t-25.5 -80q-1 -35 10.5 -60
t33 -38.5t51.5 -14.5q41 -1 67.5 21.5t33.5 65.5q-9 62 -37.5 96.5t-69.5 36.5z" />
    <glyph glyph-name="zeroinferior" unicode="&#x2080;" horiz-adv-x="407" 
d="M203.5 249q69.5 0 111.5 -55.5t42 -147.5q0 -91 -42 -146.5t-111.5 -55.5t-111.5 55.5t-42 146.5q0 92 42 147.5t111.5 55.5zM204 234q-38 0 -67.5 -22t-46 -65t-16.5 -101q0 -86 36 -136.5t93.5 -50.5t93.5 50.5t36 136.5q0 87 -36 137.5t-93 50.5z" />
    <glyph glyph-name="oneinferior" unicode="&#x2081;" horiz-adv-x="231" 
d="M133 244v-367q0 -10 10 -10l38 -3v-14h-118v9q0 5 5 5l33 3q9 0 9 10v331q0 4 -3 6t-7 -1l-48 -33l-12 13l73 51h20z" />
    <glyph glyph-name="twoinferior" unicode="&#x2082;" horiz-adv-x="307" 
d="M161 249q29 0 53.5 -10.5t35.5 -29.5q42 -69 -59 -206q-38 -52 -122 -138h166q9 0 9 9l4 45h19v-69h-227v11l1 3q94 97 131 147q95 129 58 190q-20 34 -69 34q-20 0 -38 -6.5t-32.5 -21t-20.5 -36.5l-23 5q10 34 43.5 53.5t70.5 19.5z" />
    <glyph glyph-name="threeinferior" unicode="&#x2083;" horiz-adv-x="326" 
d="M156 249q47 0 80 -26t33 -72q0 -21 -8.5 -38.5t-24 -30.5t-36.5 -20q36 -11 56 -38.5t20 -65.5q0 -56 -37.5 -85t-91.5 -29q-59 0 -107 31l12 13q44 -29 95 -29q46 0 75.5 24t29.5 75q0 31 -12.5 53t-35.5 33t-55 11h-39v14h39q45 0 70.5 21.5t25.5 60.5q0 41 -25 62
t-64 21q-40 0 -75 -22q-4 -3 -4 -7l-4 -58h-19v65q0 2 2 4q44 33 100 33z" />
    <glyph glyph-name="fourinferior" unicode="&#x2084;" horiz-adv-x="329" 
d="M66 -40h146v176q0 5 5 5h18v-181h59v-15h-59v-68q0 -10 9 -10l38 -3v-14h-117v9q0 5 5 5l33 3q9 0 9 10v68h-172v13l136 286h25z" />
    <glyph glyph-name="fiveinferior" unicode="&#x2085;" horiz-adv-x="315" 
d="M268 229h-162l-15 -167q27 12 63 12q57 0 91.5 -31t34.5 -83q0 -38 -18 -65t-46 -39t-62 -12q-50 0 -99 24q-5 2 -5 8v62h19l4 -56q1 -5 5 -8q35 -15 76 -15q46 0 74.5 24.5t28.5 76.5q0 48 -27.5 73.5t-75.5 25.5q-44 0 -75 -24l-13 12l18 196h184v-14z" />
    <glyph glyph-name="sixinferior" unicode="&#x2086;" horiz-adv-x="326" 
d="M203 250q38 -1 74 -21l-10 -13q-35 19 -65 19q-52 1 -88.5 -47t-39.5 -136v-5q35 50 104 48q55 -2 87.5 -37t30.5 -91q-1 -56 -32.5 -89.5t-80.5 -31.5q-63 1 -99.5 58t-33.5 148q3 94 46.5 146.5t106.5 51.5zM177 80q-41 1 -67.5 -21.5t-32.5 -65.5q8 -62 36.5 -96.5
t70.5 -36.5q39 -1 63 27t26 80q1 52 -24.5 82t-71.5 31z" />
    <glyph glyph-name="seveninferior" unicode="&#x2087;" horiz-adv-x="290" 
d="M280 244v-13q-50 -62 -98 -171q-46 -102 -70 -210h-24q24 109 72 216q38 87 84 153q3 3 1 6.5t-6 3.5h-167q-9 0 -10 -9l-3 -46h-19v64q0 6 5 6h235z" />
    <glyph glyph-name="eightinferior" unicode="&#x2088;" horiz-adv-x="353" 
d="M177 249q54 0 86.5 -28.5t32.5 -73.5q0 -34 -18 -58.5t-51 -35.5q36 -11 56 -37.5t20 -62.5q0 -48 -34.5 -78.5t-91.5 -30.5t-92 30.5t-35 78.5q0 36 20 62.5t56 37.5q-32 11 -50.5 35.5t-18.5 58.5q0 45 33 73.5t87 28.5zM177 234q-22 0 -40 -6t-30.5 -17t-19 -27.5
t-6.5 -36.5q0 -42 25.5 -64.5t70.5 -22.5t70.5 22.5t25.5 64t-25.5 64.5t-70.5 23zM176.5 45q-48.5 0 -75.5 -24t-27 -68q0 -29 12.5 -50.5t35.5 -32.5t55 -11q48 0 75.5 25t27.5 69t-27.5 68t-76 24z" />
    <glyph glyph-name="nineinferior" unicode="&#x2089;" horiz-adv-x="336" 
d="M153 250q63 -1 99.5 -58t33.5 -148q-3 -94 -46 -147t-106 -51q-36 0 -74 21l10 13q34 -19 64 -19q52 -2 89 46.5t40 136.5v5q-35 -50 -105 -48q-55 2 -87.5 37.5t-30.5 91t33 89t80 31.5zM153 236q-39 1 -63.5 -27t-26 -80t24.5 -82t71 -31q41 -1 67.5 21.5t33.5 65.5
q-9 62 -37.5 96.5t-69.5 36.5z" />
    <glyph glyph-name="Euro" unicode="&#x20ac;" horiz-adv-x="715" 
d="M659 80l16 -13q-88 -77 -219 -77q-125 0 -210.5 70t-111.5 190h-84v17h81q-7 40 -7 83q0 27 3 53h-77v17h79q19 133 107 211.5t220 78.5q115 0 198 -61q2 -2 2 -4v-110h-16l-7 101q-1 4 -4 7q-74 50 -173 50q-123 0 -204 -73.5t-99 -199.5h379v-17h-381q-3 -26 -3 -53
q0 -43 7 -83h317v-17h-314q25 -113 104 -178t194 -65q120 0 203 73z" />
    <glyph glyph-name="trademark" unicode="&#x2122;" horiz-adv-x="927" 
d="M647 364l125 336h65v-13l-30 -2q-11 -1 -10 -12l44 -331l36 -3v-12h-115v12l46 4q11 1 9 12l-40 302l-124 -330h-15l-127 332l-42 -315l56 -5v-12h-115v8q0 4 5 5l26 2q7 1 8 8l44 323q1 11 -10 12l-26 2q-4 0 -4 5v8h65zM55 700h303q5 0 5 -5v-59h-18l-3 41q-1 9 -10 9
h-114v-334q0 -9 9 -10l34 -3v-12h-109v8q0 4 5 5l29 2q9 1 9 10v334h-114q-9 0 -10 -9l-3 -41h-18v59q0 5 5 5z" />
    <glyph glyph-name="uni2155" unicode="&#x2155;" horiz-adv-x="783" 
d="M203 -17h-26l361 734h25zM143 700v-367q0 -9 10 -10l38 -3v-14h-118v9q0 5 5 5l33 3q9 1 9 10v331q0 4 -3 6t-7 -1l-48 -32l-12 12l73 51h20zM720 379h-162l-15 -167q28 12 63 12q57 0 92 -31t35 -83q0 -57 -36.5 -86.5t-90.5 -29.5q-50 0 -99 24q-5 2 -5 8v62h19l4 -56
q1 -5 6 -8q37 -15 75 -15q46 0 74.5 24.5t28.5 76.5q0 48 -27.5 73.5t-75.5 25.5q-44 0 -74 -24l-13 12l17 196h184v-14z" />
    <glyph glyph-name="uni2156" unicode="&#x2156;" horiz-adv-x="851" 
d="M271 -17h-26l361 734h25zM171 706q29 0 53.5 -10.5t35.5 -29.5q42 -69 -59 -207q-34 -47 -122 -138h166q9 0 9 10l4 45h19v-69h-227v11q0 1 1 2q94 97 131 148q95 129 58 190q-20 33 -69 33q-31 0 -56 -15.5t-35 -47.5l-23 5q10 33 43.5 53t70.5 20zM788 379h-162
l-15 -167q28 12 63 12q57 0 92 -31t35 -83q0 -57 -36.5 -86.5t-90.5 -29.5q-50 0 -99 24q-5 2 -5 8v62h19l4 -56q1 -5 6 -8q37 -15 75 -15q46 0 74.5 24.5t28.5 76.5q0 48 -27.5 73.5t-75.5 25.5q-44 0 -74 -24l-13 12l17 196h184v-14z" />
    <glyph glyph-name="uni2157" unicode="&#x2157;" horiz-adv-x="829" 
d="M249 -17h-25l360 734h25zM166 706q47 0 80 -26t33 -72q0 -31 -18.5 -54.5t-50.5 -34.5q36 -11 56 -38.5t20 -65.5t-19 -64.5t-47.5 -38t-62.5 -11.5q-60 0 -107 31l12 13q45 -29 95 -29q46 0 75.5 24t29.5 75q0 23 -7 41.5t-20.5 30.5t-32.5 18.5t-43 6.5h-39v15h39
q45 0 70.5 21t25.5 60q0 41 -25 62t-64 21q-40 0 -75 -22q-4 -2 -4 -7l-4 -58h-19v65q0 3 2 4q44 33 100 33zM767 379h-163l-14 -167q27 12 63 12q57 0 91.5 -31t34.5 -83q0 -57 -36 -86.5t-91 -29.5q-49 0 -98 24q-5 2 -5 8v62h19l4 -56q0 -5 5 -8q37 -15 75 -15
q47 0 75.5 24.5t28.5 76.5q0 48 -27.5 73.5t-75.5 25.5q-44 0 -75 -24l-13 12l18 196h184v-14z" />
    <glyph glyph-name="uni2158" unicode="&#x2158;" horiz-adv-x="867" 
d="M288 -17h-26l361 734h25zM76 416h146v176q0 5 5 5h18v-181h59v-14h-59v-69q0 -9 9 -10l38 -3v-14h-117v9q0 5 5 5l33 3q9 1 9 10v69h-172v12l136 286h25zM805 379h-163l-14 -167q27 12 63 12q57 0 91.5 -31t34.5 -83q0 -57 -36 -86.5t-91 -29.5q-49 0 -98 24q-5 2 -5 8
v62h19l4 -56q0 -5 5 -8q37 -15 75 -15q47 0 75.5 24.5t28.5 76.5q0 48 -27.5 73.5t-75.5 25.5q-44 0 -75 -24l-13 12l18 196h184v-14z" />
    <glyph glyph-name="uni215A" unicode="&#x215a;" horiz-adv-x="813" 
d="M223 -17h-25l360 734h26zM258 685h-162l-15 -166q27 12 63 12q57 0 91.5 -31t34.5 -83q0 -57 -36 -86.5t-90 -29.5q-50 0 -99 23q-5 3 -5 8v62h19l4 -55q1 -6 5 -8q37 -16 76 -16q29 0 51.5 10t37 33.5t14.5 58.5q0 47 -27.5 73t-75.5 26q-44 0 -75 -25l-13 12l18 197
h184v-15zM669 398q38 -1 74 -21l-10 -13q-34 19 -64 19q-52 1 -89 -47t-40 -136v-5q35 50 104 48q55 -2 87.5 -37.5t31 -91t-32.5 -89t-81 -31.5q-63 1 -99 58t-33 148q3 94 46 146.5t106 51.5zM644 228q-41 1 -67.5 -21.5t-33.5 -65.5q9 -62 37.5 -96.5t69.5 -36.5
q39 -1 63 27t26 80q1 35 -10.5 60t-33.5 38.5t-51 14.5z" />
    </font>
</defs>
</svg>
