<?xml version="1.0" standalone="no"?>
<!DOCTYPE svg PUBLIC "-//W3C//DTD SVG 1.1//EN" "http://www.w3.org/Graphics/SVG/1.1/DTD/svg11.dtd" >
<svg xmlns="http://www.w3.org/2000/svg" xmlns:xlink="http://www.w3.org/1999/xlink" version="1.1">
<metadata>
Created by FontForge 20170731 at Wed Feb 19 12:08:21 2014
 By ,,,
Copyright (c) 2013 by Jonathan Hill. All rights reserved.
</metadata>
<defs>
<font id="Modum-Regular" horiz-adv-x="600" vert-adv-y="1000" >
  <font-face 
    font-family="Modum"
    font-weight="400"
    font-stretch="normal"
    units-per-em="1000"
    panose-1="0 0 5 0 0 0 0 0 0 0"
    ascent="750"
    descent="-250"
    x-height="500"
    cap-height="700"
    bbox="-7 -226 1491 1114"
    underline-thickness="50"
    underline-position="-200"
    unicode-range="U+0020-FE6B"
  />
<missing-glyph horiz-adv-x="500" 
d="M0 0v700h500v-700h-500zM250 395l170 255h-340zM280 350l170 -255v510zM80 50h340l-170 255zM50 605v-510l170 255z" />
    <glyph glyph-name="fi" unicode="fi" horiz-adv-x="766" 
d="M296 750q75 -1 137 -41l-19 -40q-56 32 -110 32q-18 0 -35 -4.5t-31 -13.5t-24.5 -22t-16.5 -31.5t-6 -40.5v-89h422q7 0 7 -7v-433q0 -12 12 -13l73 -6v-41h-222v36q0 5 6 6l55 5q11 1 11 12v380q0 13 -12 13l-167 9l-185 -10v-391q0 -12 12 -13l70 -6v-41h-208v36
q0 5 6 6l44 4q11 1 11 12v394l-60 3q-7 0 -7 7v38h67v93q0 76 49 116.5t121 40.5z" />
    <glyph glyph-name="fl" unicode="fl" horiz-adv-x="757" 
d="M374 737l239 13q7 0 7 -7v-683q0 -12 12 -13l73 -6v-41h-219v36q0 5 5 6l53 4q11 1 11 13v628q0 12 -12 13l-153 1l-16 -14q-38 14 -70 14q-49 0 -81 -29t-32 -83v-89h145v-41l-145 -8v-391q0 -12 12 -13l70 -6v-41h-208v36q0 5 6 6l44 4q11 1 11 12v394l-60 3q-7 0 -7 7
v38h67v93q0 76 49 116.5t121 40.5q39 -1 78 -13z" />
    <glyph glyph-name="f_f" unicode="ff" horiz-adv-x="832" 
d="M712 750q75 -1 137 -41l-20 -40q-55 32 -109 32q-49 0 -81 -29t-32 -83v-89h145v-41l-145 -8v-391q0 -12 12 -13l70 -6v-41h-208v36q0 5 5 6l45 4q11 1 11 12v394l-169 9l-182 -10v-391q0 -12 12 -13l70 -6v-41h-208v36q0 5 6 6l44 4q11 1 11 12v394l-60 3q-7 0 -7 7v38
h67v93q0 76 49 116.5t121 40.5q75 -1 137 -41l-19 -40q-56 32 -110 32q-49 0 -81 -29t-32 -83v-89h351v93q0 51 24.5 87.5t62 53t83.5 16.5z" />
    <glyph glyph-name="f_f_i" unicode="ffi" horiz-adv-x="1181" 
d="M712 750q75 -1 137 -41l-20 -40q-55 32 -109 32q-23 0 -43.5 -7t-36 -20.5t-24.5 -35t-9 -49.5v-89h422q7 0 7 -7v-433q0 -12 12 -13l73 -6v-41h-222v36q0 5 6 6l54 5q12 1 12 12v380q0 13 -12 13l-167 9l-185 -10v-391q0 -12 12 -13l70 -6v-41h-208v36q0 5 5 6l45 4
q11 1 11 12v394l-169 9l-182 -10v-391q0 -12 12 -13l70 -6v-41h-208v36q0 5 6 6l44 4q11 1 11 12v394l-60 3q-7 0 -7 7v38h67v93q0 76 49 116.5t121 40.5q75 -1 137 -41l-19 -40q-56 32 -110 32q-49 0 -81 -29t-32 -83v-89h351v93q0 51 24.5 87.5t62 53t83.5 16.5z" />
    <glyph glyph-name="f_f_l" unicode="ffl" horiz-adv-x="1173" 
d="M789 737l240 13q7 0 7 -7v-683q0 -12 12 -13l73 -6v-41h-220v36q0 5 6 6l52 4q12 1 12 13v628q0 12 -12 13l-154 1l-15 -14q-38 14 -70 14q-49 0 -81 -29t-32 -83v-89h145v-41l-145 -8v-391q0 -12 12 -13l70 -6v-41h-208v36q0 5 5 6l45 4q11 1 11 12v394l-169 9l-182 -10
v-391q0 -12 12 -13l70 -6v-41h-208v36q0 5 6 6l44 4q11 1 11 12v394l-60 3q-7 0 -7 7v38h67v93q0 76 49 116.5t121 40.5q75 -1 137 -41l-19 -40q-56 32 -110 32q-31 0 -56 -12t-41 -37.5t-16 -62.5v-89h351v93q0 76 49 116.5t121 40.5q39 -1 77 -13z" />
    <glyph glyph-name=".notdef" horiz-adv-x="500" 
d="M0 0v700h500v-700h-500zM250 395l170 255h-340zM280 350l170 -255v510zM80 50h340l-170 255zM50 605v-510l170 255z" />
    <glyph glyph-name=".null" horiz-adv-x="0" vert-adv-y="0" 
 />
    <glyph glyph-name="nonmarkingreturn" horiz-adv-x="333" 
 />
    <glyph glyph-name="space" unicode=" " horiz-adv-x="300" 
 />
    <glyph glyph-name="exclam" unicode="!" horiz-adv-x="171" 
d="M115 211h-59l-6 489h71zM85.5 75q16.5 0 28.5 -12.5t12 -28.5t-12 -28t-29 -12t-28.5 12t-11.5 28t12 28.5t28.5 12.5z" />
    <glyph glyph-name="quotedbl" unicode="&#x22;" horiz-adv-x="287" 
d="M102 492h-53l-5 227h63zM238 492h-53l-5 227h62z" />
    <glyph glyph-name="numbersign" unicode="#" horiz-adv-x="666" 
d="M497 517h125l-7 -53h-125l-27 -199h124l-7 -53h-124l-29 -212h-67l29 212h-157l-29 -212h-67l29 212h-121l7 53h121l28 199h-121l7 53h121l22 163h67l-23 -163h158l22 163h67zM266 464l-27 -199h157l28 199h-158z" />
    <glyph glyph-name="dollar" unicode="$" horiz-adv-x="557" 
d="M325 774v-80q82 -2 138 -36q3 -1 3 -4v-129h-43l-6 84q-1 7 -7 9q-41 21 -99 21q-51 0 -89 -14t-58.5 -38t-20.5 -56t9.5 -51t41 -40.5t99.5 -55.5q86 -41 129 -72t59.5 -60t16.5 -71q0 -46 -22 -83.5t-60.5 -62t-90.5 -35.5v-93h-62v86q-26 -2 -40 -1q-88 1 -160 37
q-3 2 -3 5l-1 129h43l7 -81q0 -7 6 -10q56 -24 128 -24q80 0 129.5 34.5t49.5 91.5q0 42 -26.5 69t-120.5 73q-70 34 -110 58.5t-62.5 49.5t-28.5 47t-6 56q0 65 54 109.5t141 54.5v83h62z" />
    <glyph glyph-name="percent" unicode="%" horiz-adv-x="901" 
d="M299 -17h-64l361 734h64zM206 706q36 0 66.5 -15t51 -42t32 -65t11.5 -84q0 -92 -44 -149t-117 -57q-49 0 -85.5 26t-56.5 72.5t-20 107.5q0 93 44 149.5t118 56.5zM205.5 665q-45.5 0 -75 -43.5t-29.5 -121.5t29.5 -121t75 -43t75 43t29.5 121t-29.5 121.5t-75 43.5z
M695 406q48 0 85 -26t56.5 -72.5t19.5 -107.5t-19.5 -107.5t-56.5 -72.5t-85 -26q-74 0 -118 57t-44 149t44 149t118 57zM695 364q-30 0 -53 -18t-37 -56t-14 -90q0 -78 29 -121.5t75 -43.5t75 43.5t29 121.5t-29 121t-75 43z" />
    <glyph glyph-name="ampersand" unicode="&#x26;" horiz-adv-x="669" 
d="M270 710q43 0 80 -10.5t64.5 -31.5t40.5 -56t7 -80q-6 -41 -38 -76.5t-129 -101.5l-8 -5l193 -184q8 23 10 51l2 128h53v-159q0 -36 -14 -69l94 -90l-43 -48l-92 88q-20 -23 -48.5 -40t-65 -26t-77.5 -9q-118 0 -186.5 43t-68.5 123q0 55 28.5 95.5t115.5 102.5l-62 60
q-49 47 -49 120q0 79 53 127t140 48zM270 655q-57 0 -90.5 -31.5t-33.5 -86.5q0 -51 30 -81l68 -64l6 4q88 58 113.5 84.5t29.5 58.5q8 59 -26 87.5t-97 28.5zM443 116l-205 197q-78 -53 -101 -83.5t-23 -73.5q0 -113 178 -113q53 0 92.5 19.5t58.5 53.5z" />
    <glyph glyph-name="quotesingle" unicode="'" horiz-adv-x="151" 
d="M102 492h-53l-5 227h63z" />
    <glyph glyph-name="parenleft" unicode="(" horiz-adv-x="347" 
d="M283 734l34 -42q-93 -63 -144 -162q-56 -107 -56 -254q0 -163 71 -277q48 -82 129 -138l-34 -42q-93 57 -151 147q-88 133 -88 310q0 160 72 286q61 108 167 172z" />
    <glyph glyph-name="parenright" unicode=")" horiz-adv-x="347" 
d="M30 692l34 42q106 -64 167 -172q71 -126 71 -286q0 -177 -87 -310q-58 -90 -151 -147l-34 42q81 56 128 138q72 114 72 278q0 146 -56 253q-51 99 -144 162z" />
    <glyph glyph-name="asterisk" unicode="*" horiz-adv-x="422" 
d="M251 567l81 -104l-47 -34l-74 109l-74 -109l-47 34l81 104l-127 37l18 55l124 -45l-4 132h58l-4 -132l123 45l18 -55z" />
    <glyph glyph-name="plus" unicode="+" horiz-adv-x="508" 
d="M283 319h181v-57h-181v-181h-57v181h-182v57h182v181h57v-181z" />
    <glyph glyph-name="comma" unicode="," horiz-adv-x="169" 
d="M76 75q31 0 42.5 -30.5t1.5 -74.5q-15 -73 -65 -127l-27 16q32 48 41 96q4 25 -2 41h-2q-13 3 -21 14t-8 24q0 16 11.5 28t28.5 13z" />
    <glyph glyph-name="hyphen" unicode="-" horiz-adv-x="421" 
d="M377 221h-333v56h333v-56z" />
    <glyph glyph-name="period" unicode="." horiz-adv-x="170" 
d="M85 75q17 0 28.5 -12.5t11.5 -28.5t-11.5 -28t-28.5 -12t-29 12t-12 28t12 28.5t29 12.5z" />
    <glyph glyph-name="slash" unicode="/" horiz-adv-x="404" 
d="M100 -118h-74l278 860h75z" />
    <glyph glyph-name="zero" unicode="0" horiz-adv-x="628" 
d="M314 690q123 0 196.5 -96t73.5 -254t-73.5 -254t-196.5 -96q-81 0 -142.5 43.5t-94.5 123t-33 183.5q0 158 73.5 254t196.5 96zM314.5 633q-87.5 0 -142.5 -77.5t-55 -215.5t55 -215.5t142.5 -77.5t142 77.5t54.5 215.5t-54.5 215.5t-142 77.5z" />
    <glyph glyph-name="one" unicode="1" horiz-adv-x="351" 
d="M232 680l-1 -618q0 -12 12 -13l69 -5v-44h-245v38q0 6 6 6l75 6q12 1 12 13v531q0 5 -4 7.5t-9 -1.5l-91 -62l-23 46l138 95q1 1 2 1h59z" />
    <glyph glyph-name="two" unicode="2" horiz-adv-x="490" 
d="M249 691q35 0 65.5 -8t55 -24t39.5 -39q79 -121 -91 -350q-57 -78 -192 -217h257q12 0 13 11l6 78h43l-1 -142h-408v41q0 2 2 4q154 156 224 256q141 195 86 287q-29 50 -104 49q-46 0 -84.5 -22.5t-51.5 -64.5l-63 8q18 63 76.5 98t127.5 35z" />
    <glyph glyph-name="three" unicode="3" horiz-adv-x="493" 
d="M234 690q85 0 144 -45t59 -127q0 -37 -15 -68t-42 -53.5t-66 -33.5q64 -19 99.5 -64.5t35.5 -111.5q0 -50 -19.5 -89t-52.5 -62t-73 -34.5t-85 -11.5q-103 0 -185 51l22 43q71 -39 153 -39q73 0 120 36t47 110q0 45 -19 77t-54.5 49t-83.5 17h-64v52h65q45 0 78.5 15
t51 43.5t17.5 66.5q0 62 -40 94.5t-101 32.5q-62 -1 -115 -35q-5 -3 -5 -9l-7 -88h-40v125q0 3 3 5q76 54 172 54z" />
    <glyph glyph-name="four" unicode="4" horiz-adv-x="525" 
d="M108 218h216l10 276q0 6 6 6h47v-282h95v-53h-95v-103q0 -12 12 -13l69 -5v-44h-235v38q0 6 6 6l72 6q12 1 12 13v102h-290v44l211 471h71z" />
    <glyph glyph-name="five" unicode="5" horiz-adv-x="487" 
d="M426 627h-263l-21 -248q39 20 92 20q99 0 158 -55t59 -148q0 -52 -18 -92.5t-50 -64.5t-72 -36.5t-85 -12.5q-91 0 -177 44q-3 1 -3 5v125h43l6 -83q1 -7 7 -10q58 -26 119 -26q70 0 114 37.5t44 114.5q0 69 -42 108.5t-114 39.5q-65 0 -108 -33l-43 14l31 354h323v-53z
" />
    <glyph glyph-name="six" unicode="6" horiz-adv-x="519" 
d="M310 689q71 0 138 -39l-21 -47q-60 33 -112 34q-76 1 -130.5 -65.5t-61.5 -188.5q-2 -18 -3 -37q24 42 67 64.5t97 20.5q93 -3 148 -65.5t52 -161.5q-4 -98 -59.5 -157t-144.5 -56q-113 3 -176.5 101t-58.5 256q5 163 80.5 253t184.5 88zM274 377q-31 1 -57.5 -7.5
t-46.5 -25.5t-33.5 -42.5t-17.5 -57.5q8 -61 31 -105.5t57 -68.5t76 -25q60 -2 98 41t40.5 120.5t-38 123t-109.5 47.5z" />
    <glyph glyph-name="seven" unicode="7" horiz-adv-x="489" 
d="M461 680v-49q-83 -105 -158 -280q-74 -174 -107 -351h-72q32 183 115 369q64 143 137 245q3 5 1 9t-8 4h-278q-11 0 -12 -11l-6 -76h-40v133q0 7 6 7h422z" />
    <glyph glyph-name="eight" unicode="8" horiz-adv-x="540" 
d="M270 690q96 0 155 -50t59 -131q0 -58 -31 -100t-86 -61q61 -18 94.5 -62.5t33.5 -107.5q0 -84 -62 -136t-163.5 -52t-163.5 52t-62 136q0 63 34 107.5t95 62.5q-56 19 -86.5 61t-30.5 100q0 54 26.5 95t75 63.5t112.5 22.5zM270 638q-66 0 -105 -35.5t-39 -96t38.5 -95
t105.5 -34.5q33 0 59.5 9t45 25.5t28.5 41t10 54.5q0 60 -38.5 95.5t-104.5 35.5zM270 321q-72 0 -113.5 -36.5t-41.5 -100.5t41.5 -101.5t113.5 -37.5q47 0 82 16.5t54 48.5t19 74q0 64 -41.5 100.5t-113.5 36.5z" />
    <glyph glyph-name="nine" unicode="9" horiz-adv-x="519" 
d="M240 689q112 -3 176 -101t59 -256q-5 -163 -81 -253t-185 -88q-69 0 -138 39l21 47q61 -33 112 -34q50 0 91 27.5t69 86.5t33 141q2 18 2 36q-24 -42 -66.5 -64t-97.5 -20q-93 3 -147.5 65t-51.5 161t59 158t145 55zM237 636q-40 1 -70.5 -17.5t-48.5 -56t-20 -88.5
q-2 -77 38 -123t110 -48q31 -1 57.5 7.5t46.5 25.5t33 42.5t18 58.5q-13 91 -57 144t-107 55z" />
    <glyph glyph-name="colon" unicode=":" horiz-adv-x="170" 
d="M85 483q17 0 28.5 -12t11.5 -28q0 -11 -5 -20t-14.5 -15t-20.5 -6q-17 0 -29 12.5t-12 28.5t12 28t29 12zM85 75q17 0 28.5 -12.5t11.5 -28.5t-11.5 -28t-28.5 -12q-12 0 -21 5.5t-14.5 15t-5.5 19.5q0 16 12 28.5t29 12.5z" />
    <glyph glyph-name="semicolon" unicode=";" horiz-adv-x="169" 
d="M76 483q17 0 29 -12t12 -28q0 -11 -5.5 -20t-15 -15t-20.5 -6q-17 0 -28.5 12.5t-11.5 28.5t11.5 28t28.5 12zM76 75q31 0 42.5 -30.5t1.5 -74.5q-15 -73 -65 -127l-27 16q33 50 42 100q3 23 -3 37h-2q-6 2 -11.5 5.5t-9.5 8.5t-6 11.5t-2 12.5q0 16 11.5 28t28.5 13z
" />
    <glyph glyph-name="less" unicode="&#x3c;" horiz-adv-x="594" 
d="M549 516l-435 -172l435 -171v-64l-505 201v68l505 201v-63z" />
    <glyph glyph-name="equal" unicode="=" horiz-adv-x="553" 
d="M508 368h-464v57h464v-57zM508 149h-464v57h464v-57z" />
    <glyph glyph-name="greater" unicode="&#x3e;" horiz-adv-x="594" 
d="M549 378v-68l-505 -201v64l436 171l-436 172v63z" />
    <glyph glyph-name="question" unicode="?" horiz-adv-x="442" 
d="M196 710q91 0 146.5 -41t55.5 -109q0 -58 -30 -92t-130 -87q-73 -39 -94.5 -61t-22.5 -58l-1 -51h-62l-2 61q-1 46 26 77t111 76q31 16 51 27.5t36 22.5t24 19.5t13 19t6.5 20.5t1.5 25q0 43 -35.5 69t-96.5 26q-53 0 -93 -18q-7 -2 -7 -10l-7 -85h-40l1 124q0 3 2 4
q60 41 147 41zM89 75q17 0 28.5 -12.5t11.5 -28.5t-11.5 -28t-28.5 -12q-11 0 -20.5 5.5t-14.5 15t-5 19.5q0 16 11.5 28.5t28.5 12.5z" />
    <glyph glyph-name="at" unicode="@" horiz-adv-x="949" 
d="M474 713q97 0 178 -32t136.5 -89t85.5 -136.5t30 -172.5q0 -98 -59 -156t-150 -59h-108q-5 0 -6 6l-2 39q-50 -53 -130 -53q-82 0 -132.5 55.5t-50.5 151.5q0 93 55 148.5t142 55.5q101 0 170 -74v-263l62 -3q61 1 98 41t38 111q1 166 -95.5 266.5t-261.5 100.5
q-167 0 -261.5 -104t-94.5 -275q0 -177 96.5 -279.5t259.5 -102.5q61 0 117 15l22 -59q-67 -19 -139 -19q-129 0 -227.5 57.5t-150.5 158t-52 229.5q0 127 51 227t149.5 157.5t229.5 57.5zM464 426q-60 0 -95.5 -42.5t-35.5 -116.5q0 -50 17 -86t47.5 -55t70.5 -19
q64 0 99 49v220q-38 50 -103 50z" />
    <glyph glyph-name="A" unicode="A" horiz-adv-x="771" 
d="M688 49l57 -5v-44h-229v37q0 6 5 6l68 6q8 1 11.5 7t1.5 13l-59 142h-331l-65 -160l88 -7v-44h-209v38q0 6 6 6l45 4q7 1 9 7l264 643l67 3zM234 268h288l-144 352z" />
    <glyph glyph-name="B" unicode="B" horiz-adv-x="658" 
d="M71 700h303q63 0 111.5 -22t75 -62t26.5 -92q0 -53 -27.5 -92.5t-75.5 -58.5q65 -19 102.5 -65.5t37.5 -112.5q0 -87 -64.5 -141t-169.5 -54h-319v38q0 6 6 6l62 5q12 1 12 13v576q0 12 -12 13l-62 5q-6 0 -6 6v38zM286 643l-64 -5v-242h153q66 0 104 33t38 91
q0 38 -17 65.5t-49 42.5t-76 15h-89zM222 339v-277l64 -5h102q76 0 119.5 38t43.5 103.5t-43.5 103t-119.5 37.5h-166z" />
    <glyph glyph-name="C" unicode="C" horiz-adv-x="649" 
d="M392 709q117 0 202 -61q3 -2 3 -5v-127h-43l-7 87q0 6 -6 8q-66 41 -149 41q-120 0 -192.5 -81t-72.5 -221q0 -141 73.5 -222t195.5 -81q108 1 192 68l25 -48q-89 -76 -221 -76q-152 0 -245.5 99.5t-93.5 259.5t93.5 259.5t245.5 99.5z" />
    <glyph glyph-name="D" unicode="D" horiz-adv-x="754" 
d="M67 700h296q154 0 246.5 -95.5t92.5 -254.5t-92.5 -254.5t-246.5 -95.5h-296v38q0 6 6 6l62 5q12 1 12 13v576q0 12 -12 13l-62 5q-6 0 -6 6v38zM283 643l-64 -5v-576l64 -5h80q122 0 193.5 77.5t71.5 215.5t-71.5 215.5t-193.5 77.5h-80z" />
    <glyph glyph-name="E" unicode="E" horiz-adv-x="584" 
d="M67 700h457q7 0 7 -7v-139h-43l-6 77q-1 12 -13 12h-250v-260h229v-54h-229v-272h269q12 0 13 12l6 77h42v-139q0 -7 -6 -7h-476v38q0 6 6 6l62 5q12 1 12 13v576q0 12 -12 13l-62 5q-6 0 -6 6v38z" />
    <glyph glyph-name="F" unicode="F" horiz-adv-x="558" 
d="M67 700h450q7 0 7 -7v-139h-43l-6 77q-1 12 -13 12h-243v-273h210v-54h-210v-265l90 -7v-44h-242v38q0 6 6 6l63 5q11 1 11 13v576q0 12 -11 13l-63 5q-6 0 -6 6v38z" />
    <glyph glyph-name="G" unicode="G" horiz-adv-x="705" 
d="M392 709q114 0 224 -59q3 -2 3 -5v-128h-43l-6 83q-1 7 -7 10q-87 42 -171 42q-115 0 -190 -79t-75 -223q0 -139 72.5 -221t192.5 -82q114 0 185 73v146q0 12 -12 13l-164 8v46h233q7 0 7 -7v-326h-45l-6 61q-85 -70 -207 -70q-149 0 -239.5 99.5t-90.5 259.5
q0 86 27 155t73.5 113.5t107.5 67.5t131 23z" />
    <glyph glyph-name="H" unicode="H" horiz-adv-x="858" 
d="M791 656l-68 -5q-12 -1 -12 -13v-576q0 -12 12 -13l68 -5v-44h-241v38q0 6 6 6l72 6q12 1 12 13v266h-421v-266q0 -12 11 -13l78 -6v-44h-241v38q0 6 6 6l62 5q12 1 12 13v576q0 12 -12 13l-62 5q-6 0 -6 6v38h241v-44l-78 -6q-11 -1 -11 -13v-251h421v251q0 12 -12 13
l-72 6q-6 0 -6 6v38h241v-44z" />
    <glyph glyph-name="I" unicode="I" horiz-adv-x="368" 
d="M301 656l-70 -5q-11 -1 -11 -13v-576q0 -12 11 -13l70 -5v-44h-234v38q0 6 6 6l64 5q11 1 11 13v576q0 12 -11 13l-64 5q-6 0 -6 6v38h234v-44z" />
    <glyph glyph-name="J" unicode="J" horiz-adv-x="375" 
d="M308 656l-68 -5q-11 -1 -11 -13v-601q0 -92 -49.5 -156t-137.5 -87l-16 41q40 14 69 42.5t45 69t16 90.5v600q0 12 -11 13l-72 6q-6 0 -6 6v38h241v-44z" />
    <glyph glyph-name="K" unicode="K" horiz-adv-x="746" 
d="M701 656l-73 -6l-246 -265l252 -330q3 -4 8 -5l73 -6q6 0 6 -6v-38h-135l-251 333l-116 -125v-145q0 -12 11 -13l78 -6v-44h-241v38q0 6 6 6l62 5q12 1 12 13v576q0 12 -12 13l-62 5q-6 0 -6 6v38h240v-44l-77 -6q-11 -1 -11 -13v-353l312 340q7 8 4.5 17t-12.5 10l-46 5
q-5 1 -5 6v38h229v-44z" />
    <glyph glyph-name="L" unicode="L" horiz-adv-x="570" 
d="M308 656l-78 -6q-11 -1 -11 -13v-580h257q12 0 13 12l6 77h42v-139q0 -7 -6 -7h-464v38q0 6 6 6l62 5q12 1 12 13v576q0 12 -12 13l-62 5q-6 0 -6 6v38h241v-44z" />
    <glyph glyph-name="M" unicode="M" horiz-adv-x="1027" 
d="M891 656l-63 -5q-14 -1 -12 -15l79 -587l67 -5v-44h-236v44l84 7q13 1 12 15l-69 523l-220 -588l-46 -1l-223 591l-72 -539l98 -8v-44h-229v38q0 6 6 6l55 5q10 1 11 10l78 577q1 14 -13 15l-57 5q-6 0 -6 6v38h162l220 -580l218 580h156v-44z" />
    <glyph glyph-name="N" unicode="N" horiz-adv-x="848" 
d="M785 656l-68 -5q-12 -1 -12 -13v-638h-66l-430 582v-519q0 -12 12 -13l74 -6v-44h-233v38q0 6 6 6l63 5q12 1 12 13v576q0 12 -12 13l-63 5q-6 0 -6 6v38h142l435 -588v525q0 12 -12 13l-68 6q-6 0 -6 6v38h232v-44z" />
    <glyph glyph-name="O" unicode="O" horiz-adv-x="781" 
d="M390.5 709q152.5 0 246 -99.5t93.5 -259.5t-93.5 -259.5t-246 -99.5t-245.5 99.5t-93 259.5t93 259.5t245.5 99.5zM390.5 652q-120.5 0 -192.5 -81.5t-72 -220.5t72 -221t192.5 -82t192.5 82t72 221t-72 220.5t-192.5 81.5z" />
    <glyph glyph-name="P" unicode="P" horiz-adv-x="635" 
d="M67 700h303q96 0 154.5 -53t58.5 -139.5t-58.5 -139.5t-154.5 -53h-151v-252q0 -12 11 -13l78 -6v-44h-241v38q0 6 6 6l62 5q12 1 12 13v576q0 12 -12 13l-62 5q-6 0 -6 6v38zM285 643l-66 -5v-266h148q68 0 107 36t39 99q0 25 -6.5 46.5t-19 38t-30 28t-40.5 17.5t-50 6
h-82z" />
    <glyph glyph-name="Q" unicode="Q" horiz-adv-x="787" 
d="M804 -82l19 -51q-21 -9 -43 -12.5t-39 -3.5t-38.5 7t-34.5 12t-34 18t-30.5 19.5t-31.5 21.5q-69 50 -113 68q-33 -6 -68 -6q-153 0 -246 99.5t-93 259.5t93 259.5t245.5 99.5t246 -99.5t93.5 -259.5q0 -117 -51.5 -203.5t-142.5 -126.5q25 -15 66 -45q23 -17 33 -24
t30.5 -19.5t33.5 -16.5t31.5 -7.5t36.5 -0.5t37 11zM126 350q0 -139 72 -221t192.5 -82t192.5 82t72 221t-72 220.5t-192.5 81.5t-192.5 -81.5t-72 -220.5z" />
    <glyph glyph-name="R" unicode="R" horiz-adv-x="686" 
d="M67 700h303q96 0 154.5 -51.5t58.5 -135.5q0 -74 -47 -122.5t-128 -55.5l-3 -1l171 -279q3 -5 8 -6l69 -5v-44h-124q-3 0 -5 3l-185 323h-121v-263q0 -12 12 -13l78 -6v-44h-241v38q0 6 6 6l62 5q12 1 12 13v576q0 12 -12 13l-62 5q-6 0 -6 6v38zM284 643l-66 -5v-255
h154q66 0 103.5 35t37.5 95.5t-37.5 95t-103.5 34.5h-88z" />
    <glyph glyph-name="S" unicode="S" horiz-adv-x="567" 
d="M316 710q92 1 156 -37q2 -1 2 -4v-129h-42l-7 84q0 7 -6 9q-43 21 -103 21q-78 0 -125 -30.5t-47 -79.5q0 -33 10 -52.5t42 -42t102 -57.5q88 -42 132 -73.5t60.5 -61t16.5 -72.5q0 -90 -74 -142t-192 -52q-96 0 -178 39q-3 1 -3 5l-1 128h43l7 -80q0 -8 6 -10
q57 -26 132 -26q84 0 134.5 35.5t50.5 95.5q0 31 -11 50t-42 41t-99 55q-58 29 -95 50.5t-61 40t-35.5 38.5t-15.5 39t-4 48q0 76 69.5 123t177.5 47z" />
    <glyph glyph-name="T" unicode="T" horiz-adv-x="644" 
d="M32 700h580q6 0 6 -7v-138h-42l-6 78q-1 12 -13 12h-199v-583q0 -12 12 -13l69 -5v-44h-234v38q0 6 6 6l64 5q11 1 11 13v583h-199q-12 0 -12 -12l-6 -78h-43v138q0 7 6 7z" />
    <glyph glyph-name="U" unicode="U" horiz-adv-x="831" 
d="M769 656l-69 -6q-12 -1 -12 -13v-365q0 -127 -74 -204.5t-196 -77.5q-80 0 -141.5 35t-94.5 99t-33 148v365q0 12 -12 13l-64 5q-6 1 -6 7v37h242v-43l-76 -7q-12 -1 -12 -13v-364q0 -105 55 -165t146 -60q92 0 149.5 60t57.5 165v364q0 12 -11 13l-82 7v43h233v-43z" />
    <glyph glyph-name="V" unicode="V" horiz-adv-x="727" 
d="M702 656l-54 -5l-254 -650l-59 -1l-254 645q-3 7 -10 7l-39 4q-6 0 -6 6v38h113l232 -605l206 536q2 3 1.5 6.5t-2 6.5t-4.5 4.5t-7 1.5l-72 7q-5 0 -5 6v37h214v-44z" />
    <glyph glyph-name="W" unicode="W" horiz-adv-x="1112" 
d="M1086 656l-61 -5l-197 -650l-58 -1l-217 590l-217 -589l-59 -1l-193 644q-2 7 -10 8l-42 4q-6 0 -6 6v38h121l168 -595l192 526q2 8 -1.5 13.5t-10.5 6.5l-69 6q-6 0 -6 6v37h174l208 -595l156 527q1 5 0 9t-4.5 6.5t-7.5 2.5l-72 7q-6 0 -6 6v37h218v-44z" />
    <glyph glyph-name="X" unicode="X" horiz-adv-x="677" 
d="M646 656l-67 -6l-197 -298l202 -298q3 -5 8 -5l59 -5v-44h-109q-3 0 -4 2l-206 304l-165 -256l83 -7v-43h-222v38q0 6 6 6l56 5q5 1 8 5l196 297l-202 296q-3 4 -8 4l-49 5q-6 0 -6 6v38h109l206 -305l152 232q5 8 1.5 16t-13.5 8l-59 6q-6 0 -6 6v37h227v-44z" />
    <glyph glyph-name="Y" unicode="Y" horiz-adv-x="689" 
d="M663 656l-52 -4l-226 -403v-187q0 -12 12 -13l69 -5v-44h-233v38q0 6 6 6l63 5q12 1 12 13v180l-229 404q-3 5 -9 6l-44 4q-6 0 -6 6v38h108l221 -390l179 318q4 8 0 15t-13 8l-68 6q-6 0 -6 6v37h216v-44z" />
    <glyph glyph-name="Z" unicode="Z" horiz-adv-x="587" 
d="M549 658l-418 -602h361q12 0 13 12l5 74h43v-136q0 -6 -6 -6h-513v41l421 602h-335q-12 0 -13 -12l-5 -71h-43v133q0 7 6 7h484v-42z" />
    <glyph glyph-name="bracketleft" unicode="[" horiz-adv-x="280" 
d="M116 665v-744h134v-52h-206v848h206v-52h-134z" />
    <glyph glyph-name="backslash" unicode="\" horiz-adv-x="404" 
d="M379 -118h-75l-278 860h74z" />
    <glyph glyph-name="bracketright" unicode="]" horiz-adv-x="280" 
d="M236 717v-848h-206v52h134v744h-134v52h206z" />
    <glyph glyph-name="asciicircum" unicode="^" horiz-adv-x="515" 
d="M470 394h-68l-145 259l-145 -259h-68l176 306h75z" />
    <glyph glyph-name="underscore" unicode="_" horiz-adv-x="601" 
d="M557 -103h-513v52h513v-52z" />
    <glyph glyph-name="grave" unicode="`" horiz-adv-x="271" 
d="M227 572h-60l-123 149h80z" />
    <glyph glyph-name="a" unicode="a" horiz-adv-x="564" 
d="M256 509q77 1 127 -41t50 -131v-278q0 -11 12 -12l66 -6v-41h-129q-6 0 -6 6l-3 57q-63 -73 -167 -73q-71 0 -114 37.5t-43 97.5q0 57 38 86t128 53l153 41v33q0 65 -32.5 94.5t-85.5 28.5q-59 0 -117 -30q-6 -3 -6 -10l-7 -77h-36v112q0 3 2 4q35 22 80.5 35.5
t89.5 13.5zM368 263l-138 -37q-66 -18 -91 -37t-25 -59q0 -42 30 -66.5t82 -24.5q88 0 139 67l3 4v153z" />
    <glyph glyph-name="b" unicode="b" horiz-adv-x="632" 
d="M57 743l130 7q7 0 7 -7v-300q62 67 163 67q102 0 163.5 -68.5t61.5 -184.5q0 -70 -20.5 -122.5t-57.5 -83.5t-84.5 -46t-105.5 -15q-89 0 -185 34v663q0 13 -12 13l-60 3v40zM337 462q-93 0 -143 -74v-326q65 -24 125 -24q88 0 142 52.5t54 159.5q0 98 -48.5 155
t-129.5 57z" />
    <glyph glyph-name="c" unicode="c" horiz-adv-x="500" 
d="M300 510q83 0 144 -41q3 -2 3 -5v-120h-43l-7 85q0 7 -6 10q-39 23 -91 23q-83 0 -133.5 -57t-50.5 -155q0 -65 23 -113t65 -73.5t97 -25.5q72 0 132 44l21 -44q-63 -48 -154 -48q-113 0 -181.5 72.5t-68.5 187.5q0 76 30.5 135t87.5 92t132 33z" />
    <glyph glyph-name="d" unicode="d" horiz-adv-x="643" 
d="M367 743l130 7q7 0 7 -7v-684q0 -11 11 -12l67 -6v-41h-129q-6 0 -6 6l-3 57q-63 -73 -167 -73q-102 0 -164.5 69.5t-62.5 191.5q0 71 24 128.5t76 94t125 36.5q102 0 164 -69v246q0 12 -12 13l-60 3v40zM295 462q-54 0 -94.5 -25.5t-62.5 -73.5t-22 -112
q0 -97 50.5 -154t133.5 -57q90 0 139 67v279q-50 76 -144 76z" />
    <glyph glyph-name="e" unicode="e" horiz-adv-x="548" 
d="M280 510q112 0 166 -66t57 -183v-11q0 -9 -9 -9l-376 -4q2 -92 49.5 -145.5t123.5 -53.5q97 1 163 64l23 -43q-69 -69 -188 -69q-108 0 -173.5 72.5t-65.5 188t63 187.5t167 72zM281 464q-71 0 -115 -49.5t-48 -135.5h310q8 0 7 9q-9 176 -154 176z" />
    <glyph glyph-name="f" unicode="f" horiz-adv-x="416" 
d="M296 750q75 -1 137 -41l-19 -40q-56 32 -110 32q-49 0 -81 -29t-32 -83v-89h145v-41l-145 -8v-391q0 -12 12 -13l70 -6v-41h-208v36q0 5 6 6l44 4q11 1 11 12v394l-60 3q-7 0 -7 7v38h67v93q0 76 49 116.5t121 40.5z" />
    <glyph glyph-name="g" unicode="g" horiz-adv-x="570" 
d="M518 473l-104 -9q67 -40 67 -124q0 -52 -24 -90.5t-69 -59t-104 -20.5q-42 0 -77 11q-56 -14 -56 -48q0 -32 32.5 -45t103.5 -13q220 0 220 -147q0 -70 -63 -112t-166 -42q-101 0 -165 41.5t-64 107.5q0 42 30 75.5t83 52.5q-68 19 -68 71q0 50 74 76q-80 44 -80 142
q0 77 53 123.5t143 46.5h234v-37zM284 468q-62 0 -97 -34t-35 -94.5t35 -94t97 -33.5t97 33.5t35 94t-35 94.5t-97 34zM240 33l-12 -3q-56 -11 -88 -39t-32 -66q0 -32 21 -56.5t59.5 -37.5t89.5 -13q78 0 124 29t46 78q0 107 -171 107q-16 0 -37 1z" />
    <glyph glyph-name="h" unicode="h" horiz-adv-x="706" 
d="M67 743l131 7q7 0 7 -7v-309q116 76 216 76q69 0 110.5 -41t41.5 -123v-286q0 -12 12 -13l69 -6v-41h-139q-7 0 -7 7v329q0 65 -30 95t-82 30q-85 0 -191 -66v-335q0 -12 11 -13l71 -6v-41h-220v36q0 5 6 6l55 5q12 1 12 12v628q0 12 -13 13l-60 3v40z" />
    <glyph glyph-name="i" unicode="i" horiz-adv-x="350" 
d="M169.5 714q16.5 0 28.5 -12t12 -29t-12 -28.5t-28.5 -11.5t-28.5 11.5t-12 28.5t12 29t28.5 12zM67 498l130 7q7 1 7 -6v-439q0 -12 12 -13l73 -6v-41h-222v36q0 5 6 6l55 5q12 1 12 12v383q0 13 -13 13l-60 3v40z" />
    <glyph glyph-name="j" unicode="j" horiz-adv-x="266" 
d="M160 714q17 0 29 -12t12 -28.5t-12 -28.5t-29 -12t-28.5 12t-11.5 28.5t11.5 28.5t28.5 12zM58 499l130 7q7 0 7 -7v-589q0 -50 -32 -79t-86 -29q-52 0 -84 27l19 36q20 -16 51 -16t49 17t18 49v528q0 12 -12 13l-60 3v40z" />
    <glyph glyph-name="k" unicode="k" horiz-adv-x="618" 
d="M67 743l130 7q7 0 7 -7v-485l216 180q5 5 3.5 10.5t-8.5 6.5l-45 3q-6 1 -6 7v35h209v-41l-63 -6l-177 -145l198 -258q2 -3 6 -3l64 -6v-41h-110q-4 0 -7 4l-193 271l-87 -71v-145q0 -11 12 -12l65 -6v-41h-211v36q0 5 6 6l52 4q12 1 12 13v628q0 12 -13 13l-60 3v40z
" />
    <glyph glyph-name="l" unicode="l" horiz-adv-x="341" 
d="M67 743l130 7q7 0 7 -7v-683q0 -12 12 -13l73 -6v-41h-219v36q0 5 6 6l52 4q12 1 12 13v628q0 12 -13 13l-60 3v40z" />
    <glyph glyph-name="m" unicode="m" horiz-adv-x="1028" 
d="M750 510q66 0 105 -41t39 -123v-286q0 -12 12 -13l69 -6v-41h-139q-7 0 -7 7v329q0 125 -104 125q-81 0 -185 -69q6 -23 6 -59v-273q0 -12 12 -13l69 -6v-41h-139q-7 0 -7 7v329q0 125 -105 125q-77 0 -178 -65v-336q0 -12 12 -13l70 -6v-41h-219v36q0 5 6 6l55 5
q11 1 11 12v383q0 13 -12 13l-60 3v40l130 7q7 1 7 -6v-64q111 75 204 75q99 0 131 -85q54 39 111.5 62t105.5 23z" />
    <glyph glyph-name="n" unicode="n" horiz-adv-x="700" 
d="M415 510q69 0 110.5 -41t41.5 -123v-286q0 -12 11 -13l70 -6v-41h-140q-6 0 -6 7v329q0 65 -30 95t-83 30q-85 0 -191 -66v-335q0 -12 12 -13l70 -6v-41h-219v36q0 5 6 6l55 5q11 1 11 12v383q0 13 -12 13l-60 3v40l130 7q7 1 7 -6v-65q117 76 217 76z" />
    <glyph glyph-name="o" unicode="o" 
d="M300 510q113 0 181.5 -72t68.5 -187.5t-68.5 -188t-181.5 -72.5t-181.5 72.5t-68.5 187.5q0 76 30.5 135t87.5 92t132 33zM300 462q-83 0 -133.5 -57t-50.5 -155q0 -65 23.5 -113t65 -73t95.5 -25q83 0 133.5 57t50.5 154.5t-50.5 154.5t-133.5 57z" />
    <glyph glyph-name="p" unicode="p" horiz-adv-x="654" 
d="M377 510q102 0 164 -69.5t62 -191.5q0 -71 -24 -128.5t-76 -94t-124 -36.5q-102 0 -164 69v-198q0 -12 12 -12l70 -6v-41h-217v35q0 6 6 6l52 5q12 2 12 13v580q0 12 -12 13l-56 3v41l118 3q7 0 7 -6l2 -58q64 73 168 73zM353 460q-90 0 -138 -67v-279q49 -76 144 -76
q81 0 129.5 57t48.5 154t-50.5 154t-133.5 57z" />
    <glyph glyph-name="q" unicode="q" horiz-adv-x="635" 
d="M318 510q89 0 184 -34v-615q0 -11 12 -13l61 -5v-41h-220v35q0 6 6 6l65 6q11 0 11 12v196q-61 -67 -162 -67q-103 0 -164 68.5t-61 184.5q0 70 20.5 122.5t57.5 83.5t84.5 46t105.5 15zM313 462q-88 0 -142.5 -52.5t-54.5 -159.5q0 -98 48.5 -155t130.5 -57q93 0 142 74
v326q-64 24 -124 24z" />
    <glyph glyph-name="r" unicode="r" horiz-adv-x="441" 
d="M362 503q25 5 49 4q6 0 6 -6v-118h-43l-4 60q-1 12 -12 11q-9 0 -23 -5q-62 -18 -137 -79v-310q0 -12 12 -13l70 -6v-41h-219v36q0 5 6 6l55 5q11 1 11 12v383q0 13 -12 13l-60 3v40l130 7q7 1 7 -6v-84q84 73 164 88z" />
    <glyph glyph-name="s" unicode="s" horiz-adv-x="442" 
d="M252 510q68 0 116 -26q3 -1 3 -5v-110h-36l-6 76q-1 8 -7 10q-28 12 -67 12q-56 0 -89.5 -21.5t-33.5 -55.5q0 -23 7 -37t29.5 -30t72.5 -41q89 -44 118 -74t29 -76q0 -65 -56 -103t-146 -38q-66 0 -127 25q-4 1 -4 5v109h36l6 -74q1 -7 7 -10q38 -13 84 -13
q63 0 100.5 25.5t37.5 68.5q0 32 -19.5 51t-88.5 54q-68 34 -99.5 57t-41.5 43.5t-10 54.5q0 55 52.5 89t132.5 34z" />
    <glyph glyph-name="t" unicode="t" horiz-adv-x="383" 
d="M167 500h138v-41l-138 -7v-352q0 -31 18.5 -48t49.5 -17q44 0 65 31l21 -30q-29 -47 -102 -47q-54 0 -85.5 27.5t-31.5 75.5v360l-59 3q-6 0 -6 6v37l65 1v125l65 4v-128z" />
    <glyph glyph-name="u" unicode="u" horiz-adv-x="691" 
d="M52 500h140q6 0 6 -7v-329q0 -65 30 -95.5t83 -30.5q85 0 191 66v336q0 12 -12 13l-70 5v42h140q7 0 7 -7v-436q0 -12 12 -13l60 -3v-40l-130 -7q-7 0 -7 7v64q-117 -75 -217 -75q-69 0 -110.5 41t-41.5 122v287q0 12 -11 13l-70 5v42z" />
    <glyph glyph-name="v" unicode="v" horiz-adv-x="572" 
d="M547 459l-55 -5l-181 -454h-64l-175 448q-3 6 -10 7l-32 3q-6 1 -6 7v35h97l163 -431l145 364q3 7 -0.5 13t-11.5 7l-65 5q-6 1 -6 7v35h201v-41z" />
    <glyph glyph-name="w" unicode="w" horiz-adv-x="856" 
d="M839 459l-52 -5l-166 -454h-59l-137 383l-140 -383h-59l-159 447q-2 7 -10 8l-34 3q-6 1 -6 7v35h100l144 -428l130 362q2 7 -1.5 12.5t-10.5 6.5l-64 5q-6 1 -6 7v35h144l144 -428l130 362q3 7 -1 12.5t-11 6.5l-65 6q-6 0 -6 6v35h195v-41z" />
    <glyph glyph-name="x" unicode="x" horiz-adv-x="538" 
d="M508 459l-55 -5l-145 -196l149 -207q3 -4 8 -4l55 -6v-41h-98q-3 0 -5 3l-155 222l-129 -177l82 -7v-41h-198v36q0 5 6 6l48 4q5 0 8 4l146 200l-143 198q-3 5 -8 5l-49 5q-5 1 -5 7v35h101l150 -219l117 160q3 4 1 8t-7 4l-63 5q-6 1 -6 7v35h195v-41z" />
    <glyph glyph-name="y" unicode="y" horiz-adv-x="561" 
d="M544 459l-54 -5l-258 -649q-2 -3 -6 -3h-143v41l106 8q7 0 10 8l55 137h-12l-177 452q-3 6 -10 7l-32 3q-6 1 -6 7v35h97l166 -438l148 371q2 7 -1.5 13t-11.5 7l-67 5q-5 1 -5 7v35h201v-41z" />
    <glyph glyph-name="z" unicode="z" horiz-adv-x="500" 
d="M436 470l-304 -428h259q12 0 12 12l6 66h36v-113q0 -7 -7 -7h-384v30l304 428h-234q-12 0 -13 -12l-5 -65h-36v112q0 7 6 7h360v-30z" />
    <glyph glyph-name="braceleft" unicode="{" horiz-adv-x="325" 
d="M262 729q16 0 33 -2l-6 -50q-8 1 -17 1q-40 -1 -66 -25t-26 -71l1 -196q0 -21 -8 -38.5t-21 -30t-31 -20.5q27 -12 43.5 -35t16.5 -54v-196q0 -46 25.5 -70.5t66.5 -25.5q3 0 8 0.5t8 0.5l6 -49q-17 -3 -33 -3q-68 0 -108.5 36.5t-40.5 110.5v195q0 32 -19.5 49.5
t-48.5 17.5v45q29 0 48.5 17.5t19.5 49.5v196q0 74 40.5 110.5t108.5 36.5z" />
    <glyph glyph-name="bar" unicode="|" horiz-adv-x="155" 
d="M111 -190h-67v940h67v-940z" />
    <glyph glyph-name="braceright" unicode="}" horiz-adv-x="325" 
d="M63 729q68 0 108.5 -36.5t40.5 -110.5v-196q0 -21 9.5 -36.5t24.5 -23t34 -7.5v-45q-29 0 -48.5 -17.5t-19.5 -49.5v-195q0 -74 -40.5 -110.5t-108.5 -36.5q-16 0 -33 3l5 49q4 0 9.5 -0.5t7.5 -0.5q41 1 66.5 25.5t25.5 70.5v196q0 31 16.5 54t42.5 35q-26 12 -42.5 35
t-16.5 54v196q0 47 -25.5 71t-66.5 25q-8 0 -17 -1l-5 50q17 2 33 2z" />
    <glyph glyph-name="asciitilde" unicode="~" horiz-adv-x="558" 
d="M158 340q40 5 120 -32q76 -36 113 -34q47 2 68 51l55 -12q-5 -28 -19.5 -49.5t-37.5 -33t-51 -12.5q-48 -2 -126 35q-5 2 -18 8t-17.5 8t-14.5 6t-15 5.5t-12.5 4t-13 3t-10.5 0.5q-46 -3 -81 -68l-54 16q36 94 114 104z" />
    <glyph glyph-name="exclamdown" unicode="&#xa1;" horiz-adv-x="171" 
d="M85.5 511q16.5 0 28.5 -12t12 -28t-12 -28.5t-29 -12.5q-11 0 -20 6t-14.5 15t-5.5 20q0 16 12 28t28.5 12zM121 -195h-71l6 489h59z" />
    <glyph glyph-name="cent" unicode="&#xa2;" horiz-adv-x="500" 
d="M433 82l21 -44q-53 -41 -127 -47v-72h-56v72q-101 10 -161 81t-60 178.5t60 178t161 80.5v72h56v-72q67 -6 117 -40q3 -2 3 -5v-120h-43l-7 86q0 6 -6 9q-39 23 -91 23q-83 0 -133.5 -57t-50.5 -155q0 -65 23 -113t65 -73.5t97 -25.5q72 0 132 44z" />
    <glyph glyph-name="sterling" unicode="&#xa3;" horiz-adv-x="491" 
d="M302 710q79 0 145 -34q3 -2 3 -5v-125h-40l-6 81q-1 7 -8 10q-42 17 -89 17q-61 0 -103 -29t-48 -85q-4 -36 8.5 -66.5t35 -65.5t31.5 -61h181v-49h-172q3 -20 1 -42q-2 -42 -24 -90t-67 -113h307v-53h-390v53q49 66 72.5 113.5t26.5 88.5q3 22 0 43h-99v49h87
q-8 20 -30 57t-33 69.5t-7 71.5q8 82 70 123.5t148 41.5z" />
    <glyph glyph-name="currency" unicode="&#xa4;" 
 />
    <glyph glyph-name="yen" unicode="&#xa5;" horiz-adv-x="689" 
d="M663 656l-52 -4l-148 -265h119v-49h-147l-43 -77l-2 -45h192v-49h-197v-105q0 -12 12 -13l69 -5v-44h-233v38q0 6 6 6l63 5q12 1 12 13v105h-200v49h193l-1 40l-46 82h-146v49h118l-147 259q-3 5 -9 6l-44 4q-6 0 -6 6v38h108l221 -390l179 318q4 8 0 15t-13 8l-68 6
q-6 0 -6 6v37h216v-44z" />
    <glyph glyph-name="brokenbar" unicode="&#xa6;" horiz-adv-x="160" 
d="M116 348h-72v402h72v-402zM116 -190h-72v402h72v-402z" />
    <glyph glyph-name="section" unicode="&#xa7;" horiz-adv-x="477" 
d="M265 711q79 0 133 -31q3 -2 3 -6v-125h-41l-7 85q0 7 -7 10q-32 15 -78 15q-31 0 -56.5 -6.5t-43 -18t-27 -28t-9.5 -36.5q0 -27 8 -43t34 -34.5t84 -47.5q106 -52 140 -87.5t34 -88.5q0 -52 -31.5 -90t-87.5 -57q71 -39 95 -70t24 -76q0 -77 -64 -121.5t-167 -44.5
q-83 0 -153 33q-4 2 -4 5v125h42l6 -82q1 -8 8 -11q44 -20 104 -20q69 0 110.5 30t41.5 80q0 37 -22 59t-104 63q-60 30 -94 50.5t-53 42t-24 40.5t-5 49q0 50 38.5 85t103.5 45q-63 33 -93 57.5t-39.5 47t-9.5 58.5q0 64 59.5 104t151.5 40zM263 369h-6q-61 0 -97 -25
t-36 -65q0 -38 21 -59.5t101 -60.5l9 -4q50 9 78.5 37t28.5 68q0 34 -18.5 55t-80.5 54z" />
    <glyph glyph-name="dieresis" unicode="&#xa8;" horiz-adv-x="327" 
d="M82 674q16 0 27.5 -11.5t11.5 -26.5t-11.5 -26.5t-27.5 -11.5t-27 11.5t-11 26.5t11 26.5t27 11.5zM244 674q16 0 27.5 -11.5t11.5 -26.5t-11.5 -26.5t-27.5 -11.5t-27 11.5t-11 26.5t11 26.5t27 11.5z" />
    <glyph glyph-name="copyright" unicode="&#xa9;" horiz-adv-x="811" 
d="M405.5 710q97.5 0 180.5 -48t131.5 -131t48.5 -181t-48.5 -181t-131.5 -131t-181 -48q-73 0 -140 28.5t-115 77t-77 115t-29 139.5q0 98 48.5 181t132 131t181 48zM405 663q-126 0 -216.5 -91.5t-90.5 -221t90.5 -221t217 -91.5t216.5 91.5t90 221.5q0 63 -24.5 121
t-65.5 99.5t-98 66.5t-119 25zM406 537q64 0 111 -34q2 -2 2 -5v-64h-36l-4 42q0 7 -6 10q-30 17 -67 17q-38 0 -67 -18t-45.5 -53t-16.5 -82q0 -72 36 -112.5t95 -40.5q54 0 101 39l18 -31q-48 -42 -121 -42q-81 0 -131 52.5t-50 134.5t50 134.5t131 52.5z" />
    <glyph glyph-name="ordfeminine" unicode="&#xaa;" horiz-adv-x="373" 
d="M172 706q47 0 78 -25.5t31 -79.5v-169q0 -6 6 -6l42 -4v-27h-80q-6 0 -6 5l-2 30q-39 -41 -99 -41q-44 0 -71 23.5t-27 59.5q0 24 12.5 40t33 25.5t57.5 19.5l91 25v20q-1 73 -69 73q-35 0 -70 -19q-3 -1 -3 -4l-4 -48h-26v69q0 2 2 3q48 30 104 30zM238 554l-81 -22
q-39 -10 -54 -21.5t-15 -35.5q0 -25 17.5 -39.5t48.5 -14.5q52 0 82 40l2 2v91z" />
    <glyph glyph-name="guillemotleft" unicode="&#xab;" horiz-adv-x="496" 
d="M246 427l-129 -176l129 -175h-67l-135 175l136 176h66zM338 251l128 -175h-66l-135 175l135 176h66z" />
    <glyph glyph-name="logicalnot" unicode="&#xac;" horiz-adv-x="700" 
 />
    <glyph glyph-name="registered" unicode="&#xae;" horiz-adv-x="811" 
d="M405.5 710q97.5 0 180.5 -48t131.5 -131t48.5 -181t-48.5 -181t-131.5 -131t-181 -48q-73 0 -140 28.5t-115 77t-77 115t-29 139.5q0 98 48.5 181t132 131t181 48zM405 663q-126 0 -216.5 -91.5t-90.5 -221t90.5 -221t217 -91.5t216.5 91.5t90 221.5q0 63 -24.5 121
t-65.5 99.5t-98 66.5t-119 25zM252 531h157q51 0 82 -27t31 -69q0 -37 -24 -61.5t-65 -29.5l85 -139q2 -4 6 -5l33 -3v-22h-66q-3 0 -5 3l-96 161h-53v-128q0 -9 9 -10l35 -3v-23h-129v19q0 4 4 4l27 2q9 1 9 10v283q0 10 -9 10l-27 3q-4 0 -4 4v21zM337 496v-125h71
q32 0 50 16.5t18 47t-18 47.5t-50 17h-41z" />
    <glyph glyph-name="macron" unicode="&#xaf;" horiz-adv-x="370" 
d="M326 601h-282v49h282v-49z" />
    <glyph glyph-name="degree" unicode="&#xb0;" horiz-adv-x="334" 
d="M167 744q34 0 62.5 -16.5t44.5 -45t16 -61.5q0 -51 -36 -87t-87 -36q-34 0 -62 17t-44.5 45t-16.5 61q0 51 36 87t87 36zM167 705q-21 0 -39 -11t-29 -30t-11 -43q0 -36 23.5 -60t56 -24t55.5 24t23 60q0 24 -11 43t-29 30t-39 11z" />
    <glyph glyph-name="plusminus" unicode="&#xb1;" horiz-adv-x="508" 
d="M283 374h181v-57h-181v-171h-57v171h-182v57h182v171h57v-171zM464 -17h-420v57h420v-57z" />
    <glyph glyph-name="twosuperior" unicode="&#xb2;" horiz-adv-x="298" 
d="M147 746q31 0 57.5 -11t39.5 -30q48 -71 -52 -206q-30 -41 -104 -118h132q8 0 9 8l3 41h34v-86h-249v27q0 2 1 3q88 89 129 147q78 108 51 160q-16 27 -54 27q-56 0 -71 -51l-51 7q9 38 45.5 60t79.5 22z" />
    <glyph glyph-name="threesuperior" unicode="&#xb3;" horiz-adv-x="316" 
d="M146 746q51 0 87.5 -27.5t36.5 -74.5q0 -20 -8 -37.5t-22.5 -30.5t-35.5 -21q35 -12 54 -38.5t19 -61.5q0 -57 -41.5 -87t-97.5 -30q-64 0 -114 33l17 31q45 -24 91 -24q40 0 63.5 19t23.5 60q0 25 -9.5 42.5t-28 26.5t-43.5 9h-45v37h45q24 0 41 8t26 23t9 37
q0 34 -20 51.5t-52 17t-59 -16.5q-4 -2 -4 -7l-4 -52h-37v75q0 3 2 4q45 34 106 34z" />
    <glyph glyph-name="acute" unicode="&#xb4;" horiz-adv-x="271" 
d="M104 572h-60l103 149h80z" />
    <glyph glyph-name="paragraph" unicode="&#xb6;" horiz-adv-x="576" 
d="M532 646l-65 -5q-11 -1 -11 -13v-707h-67v722h-101v-722h-143v48q0 6 5 6l60 5q12 2 12 13v327q-82 8 -130 59t-48 129q0 85 54.5 137.5t145.5 54.5h288v-54z" />
    <glyph glyph-name="periodcentered" unicode="&#xb7;" horiz-adv-x="170" 
d="M85 350q17 0 28.5 -12t11.5 -28t-11.5 -28.5t-28.5 -12.5q-11 0 -20.5 6t-15 15t-5.5 20q0 16 12 28t29 12z" />
    <glyph glyph-name="cedilla" unicode="&#xb8;" horiz-adv-x="255" 
d="M149 5l-21 -57q3 0 8 -0.5t7 -1.5q31 -7 49.5 -28t17.5 -48q-1 -32 -27.5 -55t-67.5 -23q-42 2 -71 24l11 33q22 -16 49 -18q22 -1 38 11t17 35q0 16 -8 26.5t-19.5 14.5t-26.5 5q-10 1 -25 -1l30 94z" />
    <glyph glyph-name="onesuperior" unicode="&#xb9;" horiz-adv-x="230" 
d="M143 740v-353q0 -7 7 -8l39 -3v-32h-156v27q0 5 4 5l41 4q8 0 8 8v284q0 4 -3 6t-7 -1l-45 -30l-18 35l84 58h46z" />
    <glyph glyph-name="ordmasculine" unicode="&#xba;" horiz-adv-x="396" 
d="M198.5 706q69.5 0 111.5 -44t42 -114.5t-42 -114.5t-111.5 -44t-112 44t-42.5 114.5t42.5 114.5t112 44zM198 675q-49 0 -79 -34.5t-30 -93.5t30 -93t79 -34q33 0 57.5 15t38 44t13.5 68q0 59 -30 93.5t-79 34.5z" />
    <glyph glyph-name="guillemotright" unicode="&#xbb;" horiz-adv-x="496" 
d="M97 427l135 -176l-135 -175h-67l129 175l-129 176h67zM452 251l-135 -175h-67l129 175l-129 176h67z" />
    <glyph glyph-name="onequarter" unicode="&#xbc;" horiz-adv-x="764" 
d="M239 -17h-64l361 734h64zM174 700v-353q0 -7 8 -8l38 -3v-32h-156v27q0 5 5 5l41 4q7 0 7 8v284q0 4 -3 6t-7 -1l-44 -30l-19 35l85 58h45zM505 132h114l5 156q1 5 5 5h37v-161h54v-35h-54v-55q0 -8 7 -9l39 -3v-30h-150v26q0 4 4 5l39 3q8 0 8 8v55h-166v26l123 273h53z
" />
    <glyph glyph-name="onehalf" unicode="&#xbd;" horiz-adv-x="805" 
d="M239 -17h-64l361 734h64zM174 700v-353q0 -7 8 -8l38 -3v-32h-156v27q0 5 5 5l41 3q7 1 7 9v284q0 4 -3 6t-7 -1l-44 -30l-19 35l85 58h45zM642 402q15 0 29 -2.5t27 -7.5t23.5 -13t17.5 -18q47 -71 -52 -205q-31 -42 -105 -118h133q7 0 8 7l3 42h35v-87h-249v27q0 2 1 3
q88 89 129 148q78 107 50 159q-15 27 -53 27q-57 0 -72 -51l-51 7q9 38 45.5 60t80.5 22z" />
    <glyph glyph-name="threequarters" unicode="&#xbe;" horiz-adv-x="799" 
d="M270 -17h-64l361 734h64zM167 706q50 0 86.5 -27.5t36.5 -74.5q0 -30 -17 -53.5t-48 -35.5q34 -12 53 -38.5t19 -61.5q0 -57 -41 -87t-98 -30q-64 0 -114 33l17 31q45 -24 92 -24q25 0 44 7t31 25.5t12 46.5q0 38 -21.5 58t-60.5 20h-44v37h45q36 0 56 17.5t20 50.5
q0 34 -20.5 51.5t-52.5 17t-58 -16.5q-4 -2 -5 -7l-4 -52h-36v75q0 3 2 4q45 34 106 34zM540 132h114l5 156q0 5 5 5h36v-161h54v-35h-54v-55q0 -8 8 -9l39 -3v-30h-151v26q0 4 5 5l39 3q8 0 8 8v55h-166v26l122 273h54z" />
    <glyph glyph-name="questiondown" unicode="&#xbf;" horiz-adv-x="442" 
d="M353 511q17 0 28.5 -12t11.5 -28t-11.5 -28.5t-28.5 -12.5t-28.5 12.5t-11.5 28.5q0 10 5 19.5t14.5 15t20.5 5.5zM384 294l2 -61q1 -47 -26 -77.5t-111 -75.5q-62 -32 -88 -51.5t-35 -36.5t-9 -46q0 -43 35.5 -69t96.5 -26q57 0 99 20l8 93h39v-127q-61 -42 -149 -42
q-89 0 -145.5 41t-56.5 109q0 58 30 92t130 87q73 39 94.5 61t22.5 58l1 51h62z" />
    <glyph glyph-name="Agrave" unicode="&#xc0;" horiz-adv-x="771" 
d="M424 772h-61l-122 149h80zM688 49l57 -5v-44h-229v37q0 6 5 6l68 6q8 1 11.5 7t1.5 13l-59 142h-331l-65 -160l88 -7v-44h-209v38q0 6 6 6l45 4q7 1 9 7l264 643l67 3zM234 268h288l-144 352z" />
    <glyph glyph-name="Aacute" unicode="&#xc1;" horiz-adv-x="771" 
d="M408 772h-60l102 149h80zM688 49l57 -5v-44h-229v37q0 6 5 6l68 6q8 1 11.5 7t1.5 13l-59 142h-331l-65 -160l88 -7v-44h-209v38q0 6 6 6l45 4q7 1 9 7l264 643l67 3zM234 268h288l-144 352z" />
    <glyph glyph-name="Acircumflex" unicode="&#xc2;" horiz-adv-x="771" 
d="M533 772h-60l-87 111l-87 -111h-60l105 149h83zM688 49l57 -5v-44h-229v37q0 6 5 6l68 6q8 1 11.5 7t1.5 13l-59 142h-331l-65 -160l88 -7v-44h-209v38q0 6 6 6l45 4q7 1 9 7l264 643l67 3zM234 268h288l-144 352z" />
    <glyph glyph-name="Atilde" unicode="&#xc3;" horiz-adv-x="771" 
d="M480 870l45 -9q-5 -34 -23.5 -54t-46.5 -22q-26 -2 -64 14q-10 4 -25 11.5t-25 12t-16 4.5q-5 1 -9 -0.5t-8.5 -6.5t-8.5 -14t-8 -22l-44 12q14 70 62 74q24 2 79 -24q39 -18 57 -15q22 3 35 39zM688 49l57 -5v-44h-229v37q0 6 5 6l68 6q8 1 11.5 7t1.5 13l-59 142h-331
l-65 -160l88 -7v-44h-209v38q0 6 6 6l45 4q7 1 9 7l264 643l67 3zM234 268h288l-144 352z" />
    <glyph glyph-name="Adieresis" unicode="&#xc4;" horiz-adv-x="771" 
d="M305 874q16 0 27 -11.5t11 -26.5t-11 -26.5t-27 -11.5t-27 11.5t-11 26.5t11 26.5t27 11.5zM467 874q16 0 27 -11.5t11 -26.5t-11 -26.5t-27 -11.5q-8 0 -15.5 3t-12.5 8.5t-8 12.5t-3 14q0 15 11.5 26.5t27.5 11.5zM688 49l57 -5v-44h-229v37q0 6 5 6l68 6q8 1 11.5 7
t1.5 13l-59 142h-331l-65 -160l88 -7v-44h-209v38q0 6 6 6l45 4q7 1 9 7l264 643l67 3zM234 268h288l-144 352z" />
    <glyph glyph-name="Aring" unicode="&#xc5;" horiz-adv-x="771" 
d="M385.5 945q42.5 0 72 -29.5t29.5 -71.5t-29.5 -72t-71.5 -30q-28 0 -51.5 14t-37 37.5t-13.5 50.5q0 42 29.5 71.5t72 29.5zM386 909q-25 0 -42.5 -18.5t-17.5 -46.5t17.5 -46.5t42.5 -18.5t42.5 18.5t17.5 46.5t-17.5 46.5t-42.5 18.5zM688 49l57 -5v-44h-229v37
q0 6 5 6l68 6q8 1 11.5 7t1.5 13l-59 142h-331l-65 -160l88 -7v-44h-209v38q0 6 6 6l45 4q7 1 9 7l264 643l67 3zM234 268h288l-144 352z" />
    <glyph glyph-name="AE" unicode="&#xc6;" horiz-adv-x="808" 
d="M351 700h404q7 0 7 -7v-139h-43l-6 77q-1 12 -13 12h-250v-260h229v-54h-229v-272h269q12 0 13 12l6 77h43l-1 -139q0 -7 -6 -7h-476v38q0 6 6 6l63 5q11 1 11 13v149h-166l-65 -160l80 -7v-44h-201v38q0 6 6 6l45 4q7 1 9 7zM234 268h144v352z" />
    <glyph glyph-name="Ccedilla" unicode="&#xc7;" horiz-adv-x="649" 
d="M392 709q117 0 202 -61q3 -2 3 -5v-127h-43l-7 87q0 6 -6 8q-66 41 -149 41q-120 0 -192.5 -81t-72.5 -221q0 -141 73.5 -222t195.5 -81q108 1 192 68l25 -48q-87 -75 -216 -76q-28 0 -56 3l-16 -46q3 0 8 -0.5t7 -1.5q31 -7 49.5 -28t17.5 -48q-1 -32 -27.5 -55
t-67.5 -23q-42 2 -71 24l11 33q22 -16 49 -18q22 -1 38 11t17 35q0 23 -15.5 34t-38.5 12q-10 1 -25 -1l25 79q-115 28 -182 121.5t-67 227.5q0 160 93.5 259.5t245.5 99.5z" />
    <glyph glyph-name="Egrave" unicode="&#xc8;" horiz-adv-x="584" 
d="M353 772h-60l-122 149h79zM67 700h457q7 0 7 -7v-139h-43l-6 77q-1 12 -13 12h-250v-260h229v-54h-229v-272h269q12 0 13 12l6 77h42v-139q0 -7 -6 -7h-476v38q0 6 6 6l62 5q12 1 12 13v576q0 12 -12 13l-62 5q-6 0 -6 6v38z" />
    <glyph glyph-name="Eacute" unicode="&#xc9;" horiz-adv-x="584" 
d="M337 772h-60l103 149h79zM67 700h457q7 0 7 -7v-139h-43l-6 77q-1 12 -13 12h-250v-260h229v-54h-229v-272h269q12 0 13 12l6 77h42v-139q0 -7 -6 -7h-476v38q0 6 6 6l62 5q12 1 12 13v576q0 12 -12 13l-62 5q-6 0 -6 6v38z" />
    <glyph glyph-name="Ecircumflex" unicode="&#xca;" horiz-adv-x="584" 
d="M462 772h-60l-87 111l-87 -111h-60l106 149h83zM67 700h457q7 0 7 -7v-139h-43l-6 77q-1 12 -13 12h-250v-260h229v-54h-229v-272h269q12 0 13 12l6 77h42v-139q0 -7 -6 -7h-476v38q0 6 6 6l62 5q12 1 12 13v576q0 12 -12 13l-62 5q-6 0 -6 6v38z" />
    <glyph glyph-name="Edieresis" unicode="&#xcb;" horiz-adv-x="584" 
d="M234 874q16 0 27 -11.5t11 -26.5t-11 -26.5t-27 -11.5t-27 11.5t-11 26.5q0 10 5 18.5t14 14t19 5.5zM396 874q16 0 27 -11.5t11 -26.5t-11 -26.5t-27 -11.5q-8 0 -15 3t-12 8.5t-8 12.5t-3 14q0 15 11 26.5t27 11.5zM67 700h457q7 0 7 -7v-139h-43l-6 77q-1 12 -13 12
h-250v-260h229v-54h-229v-272h269q12 0 13 12l6 77h42v-139q0 -7 -6 -7h-476v38q0 6 6 6l62 5q12 1 12 13v576q0 12 -12 13l-62 5q-6 0 -6 6v38z" />
    <glyph glyph-name="Igrave" unicode="&#xcc;" horiz-adv-x="368" 
d="M222 772h-60l-122 149h79zM301 656l-70 -5q-11 -1 -11 -13v-576q0 -12 11 -13l70 -5v-44h-234v38q0 6 6 6l64 5q11 1 11 13v576q0 12 -11 13l-64 5q-6 0 -6 6v38h234v-44z" />
    <glyph glyph-name="Iacute" unicode="&#xcd;" horiz-adv-x="368" 
d="M206 772h-60l103 149h79zM301 656l-70 -5q-11 -1 -11 -13v-576q0 -12 11 -13l70 -5v-44h-234v38q0 6 6 6l64 5q11 1 11 13v576q0 12 -11 13l-64 5q-6 0 -6 6v38h234v-44z" />
    <glyph glyph-name="Icircumflex" unicode="&#xce;" horiz-adv-x="368" 
d="M331 772h-60l-87 111l-87 -111h-60l106 149h83zM301 656l-70 -5q-11 -1 -11 -13v-576q0 -12 11 -13l70 -5v-44h-234v38q0 6 6 6l64 5q11 1 11 13v576q0 12 -11 13l-64 5q-6 0 -6 6v38h234v-44z" />
    <glyph glyph-name="Idieresis" unicode="&#xcf;" horiz-adv-x="368" 
d="M103 874q16 0 27 -11.5t11 -26.5t-11 -26.5t-27 -11.5t-27 11.5t-11 26.5t11 26.5t27 11.5zM265 874q16 0 27 -11.5t11 -26.5t-11 -26.5t-27 -11.5t-27 11.5t-11 26.5t11 26.5t27 11.5zM301 656l-70 -5q-11 -1 -11 -13v-576q0 -12 11 -13l70 -5v-44h-234v38q0 6 6 6l64 5
q11 1 11 13v576q0 12 -11 13l-64 5q-6 0 -6 6v38h234v-44z" />
    <glyph glyph-name="Eth" unicode="&#xd0;" horiz-adv-x="754" 
d="M67 700h296q154 0 246.5 -95.5t92.5 -254.5t-92.5 -254.5t-246.5 -95.5h-296v38q0 6 6 6l62 5q12 1 12 13v260h-103v56h103v260q0 12 -12 13l-62 5q-6 0 -6 6v38zM284 57h79q122 0 193.5 77.5t71.5 215.5t-71.5 215.5t-193.5 77.5h-79l-65 -5v-260h140v-56h-140v-260z
" />
    <glyph glyph-name="Ntilde" unicode="&#xd1;" horiz-adv-x="848" 
d="M519 870l44 -9q-4 -34 -23 -54t-47 -22q-26 -2 -64 14q-9 4 -24 11.5t-25 12t-17 4.5q-5 1 -9 -0.5t-8 -6.5t-8 -14t-8 -22l-45 12q14 70 63 74q24 2 79 -24q38 -18 56 -15q22 3 36 39zM785 656l-68 -5q-12 -1 -12 -13v-638h-66l-430 582v-519q0 -12 12 -13l74 -6v-44
h-233v38q0 6 6 6l63 5q12 1 12 13v576q0 12 -12 13l-63 5q-6 0 -6 6v38h142l435 -588v525q0 12 -12 13l-68 6q-6 0 -6 6v38h232v-44z" />
    <glyph glyph-name="Ograve" unicode="&#xd2;" horiz-adv-x="781" 
d="M428 772h-60l-122 149h80zM390.5 709q152.5 0 246 -99.5t93.5 -259.5t-93.5 -259.5t-246 -99.5t-245.5 99.5t-93 259.5t93 259.5t245.5 99.5zM390.5 652q-120.5 0 -192.5 -81.5t-72 -220.5t72 -221t192.5 -82t192.5 82t72 221t-72 220.5t-192.5 81.5z" />
    <glyph glyph-name="Oacute" unicode="&#xd3;" horiz-adv-x="781" 
d="M412 772h-60l103 149h80zM390.5 709q152.5 0 246 -99.5t93.5 -259.5t-93.5 -259.5t-246 -99.5t-245.5 99.5t-93 259.5t93 259.5t245.5 99.5zM391 652q-48 0 -89 -13.5t-73.5 -39t-55.5 -62t-35 -84.5t-12 -103q0 -139 72 -221t192.5 -82t192.5 82t72 221t-72 220.5
t-192 81.5z" />
    <glyph glyph-name="Ocircumflex" unicode="&#xd4;" horiz-adv-x="781" 
d="M537 772h-60l-87 111l-86 -111h-61l106 149h83zM390.5 709q152.5 0 246 -99.5t93.5 -259.5t-93.5 -259.5t-246 -99.5t-245.5 99.5t-93 259.5t93 259.5t245.5 99.5zM391 652q-48 0 -89 -13.5t-73.5 -39t-55.5 -62t-35 -84.5t-12 -103q0 -139 72 -221t192.5 -82t192.5 82
t72 221t-72 220.5t-192 81.5z" />
    <glyph glyph-name="Otilde" unicode="&#xd5;" horiz-adv-x="781" 
d="M485 870l44 -9q-4 -34 -22.5 -54t-46.5 -22q-27 -2 -65 14q-9 4 -24 11.5t-25 12t-16 4.5q-6 1 -10 -0.5t-8 -6.5t-8 -14t-8 -22l-44 12q14 70 62 74q24 2 79 -24q39 -18 57 -15q22 3 35 39zM390.5 709q152.5 0 246 -99.5t93.5 -259.5t-93.5 -259.5t-246 -99.5
t-245.5 99.5t-93 259.5t93 259.5t245.5 99.5zM390.5 652q-120.5 0 -192.5 -81.5t-72 -220.5t72 -221t193 -82q79 0 139 36.5t92.5 105.5t32.5 161q0 139 -72 220.5t-192.5 81.5z" />
    <glyph glyph-name="Odieresis" unicode="&#xd6;" horiz-adv-x="781" 
d="M309 874q16 0 27.5 -11.5t11.5 -26.5t-11.5 -26.5t-27.5 -11.5t-27 11.5t-11 26.5t11 26.5t27 11.5zM471 874q8 0 15.5 -3t12.5 -8.5t8 -12.5t3 -14q0 -15 -11.5 -26.5t-27.5 -11.5q-10 0 -19 5.5t-14 14t-5 18.5q0 15 11 26.5t27 11.5zM390.5 709q152.5 0 246 -99.5
t93.5 -259.5t-93.5 -259.5t-246 -99.5t-245.5 99.5t-93 259.5t93 259.5t245.5 99.5zM390.5 652q-120.5 0 -192.5 -81.5t-72 -220.5t72 -221t192.5 -82t192.5 82t72 221t-72 220.5t-192.5 81.5z" />
    <glyph glyph-name="multiply" unicode="&#xd7;" horiz-adv-x="426" 
d="M381 419l-128 -129l128 -128l-40 -40l-128 128l-128 -128l-41 40l129 128l-129 129l41 40l128 -128l128 128z" />
    <glyph glyph-name="Oslash" unicode="&#xd8;" horiz-adv-x="781" 
d="M557 750l-22 -69q60 -27 104 -74.5t67.5 -113t23.5 -143.5q0 -160 -93.5 -259.5t-245.5 -99.5q-40 0 -77 7l-16 -48h-74l22 69q-60 27 -103.5 74.5t-67 113t-23.5 143.5q0 160 93 259.5t246 99.5q39 0 76 -7l16 48h74zM126 350q0 -98 36.5 -168.5t102.5 -105.5l184 571
q-28 5 -58 5q-121 0 -193 -81.5t-72 -220.5zM391 47q79 0 139 36.5t92.5 105.5t32.5 161q0 97 -36.5 168t-102.5 105l-184 -570q28 -6 59 -6z" />
    <glyph glyph-name="Ugrave" unicode="&#xd9;" horiz-adv-x="831" 
d="M453 772h-60l-122 149h80zM769 656l-69 -6q-12 -1 -12 -13v-365q0 -127 -74 -204.5t-196 -77.5q-80 0 -141.5 35t-94.5 99t-33 148v365q0 12 -12 13l-64 5q-6 1 -6 7v37h242v-43l-76 -7q-12 -1 -12 -13v-364q0 -105 55 -165t146 -60q92 0 149.5 60t57.5 165v364
q0 12 -11 13l-82 7v43h233v-43z" />
    <glyph glyph-name="Uacute" unicode="&#xda;" horiz-adv-x="831" 
d="M438 772h-61l103 149h80zM769 656l-69 -6q-12 -1 -12 -13v-365q0 -127 -74 -204.5t-196 -77.5q-80 0 -141.5 35t-94.5 99t-33 148v365q0 12 -12 13l-64 5q-6 1 -6 7v37h242v-43l-76 -7q-12 -1 -12 -13v-364q0 -105 55 -165t146 -60q92 0 149.5 60t57.5 165v364
q0 12 -11 13l-82 7v43h233v-43z" />
    <glyph glyph-name="Ucircumflex" unicode="&#xdb;" horiz-adv-x="831" 
d="M563 772h-60l-87 111l-87 -111h-60l105 149h83zM769 656l-69 -6q-12 -1 -12 -13v-365q0 -127 -74 -204.5t-196 -77.5q-80 0 -141.5 35t-94.5 99t-33 148v365q0 12 -12 13l-64 5q-6 1 -6 7v37h242v-43l-76 -7q-12 -1 -12 -13v-364q0 -105 55 -165t146 -60q92 0 149.5 60
t57.5 165v364q0 12 -11 13l-82 7v43h233v-43z" />
    <glyph glyph-name="Udieresis" unicode="&#xdc;" horiz-adv-x="831" 
d="M335 874q16 0 27 -11.5t11 -26.5t-11 -26.5t-27 -11.5t-27.5 11.5t-11.5 26.5t11.5 26.5t27.5 11.5zM496.5 874q16.5 0 27.5 -11.5t11 -26.5t-11 -26.5t-27.5 -11.5t-27.5 11.5t-11 26.5t11 26.5t27.5 11.5zM769 656l-69 -6q-12 -1 -12 -13v-365q0 -84 -33 -148
t-94.5 -99t-142 -35t-142 35t-94.5 99t-33 148v365q0 12 -12 13l-64 5q-6 1 -6 7v37h242v-43l-76 -7q-12 -1 -12 -13v-364q0 -105 55 -165t146 -60q92 0 149.5 60t57.5 165v364q0 12 -11 13l-82 7v43h233v-43z" />
    <glyph glyph-name="Yacute" unicode="&#xdd;" horiz-adv-x="689" 
d="M366 772h-60l103 149h79zM663 656l-52 -4l-226 -403v-187q0 -12 12 -13l69 -5v-44h-233v38q0 6 6 6l63 5q12 1 12 13v180l-229 404q-3 5 -9 6l-44 4q-6 0 -6 6v38h108l221 -390l179 318q4 8 0 15t-13 8l-68 6q-6 0 -6 6v37h216v-44z" />
    <glyph glyph-name="Thorn" unicode="&#xde;" horiz-adv-x="635" 
d="M219 598h151q96 0 154.5 -53t58.5 -139.5t-58.5 -139.5t-154.5 -53h-151v-150q0 -12 11 -13l78 -6v-44h-241v38q0 6 6 6l62 5q12 1 12 13v590q0 12 -12 13l-62 5q-6 0 -6 6v38h152v-116zM219 541v-272h148q68 0 107 36.5t39 99.5t-39 99.5t-107 36.5h-148z" />
    <glyph glyph-name="germandbls" unicode="&#xdf;" horiz-adv-x="660" 
d="M351 750q65 0 112.5 -20t71.5 -56.5t24 -84.5q0 -39 -17.5 -64.5t-61.5 -63.5q-27 -25 -26 -60q0 -38 35 -61q7 -5 24.5 -15.5t24 -15t20.5 -14t20 -15.5l15.5 -15.5t14 -17.5t9.5 -19t7 -23t2 -25q0 -85 -66.5 -136.5t-174.5 -51.5q-54 0 -96 14v132h43l5 -77q1 -7 8 -8
q23 -5 49 -5q74 1 116.5 35.5t42.5 94.5q0 13 -2 23t-8 19.5t-12 16.5t-18.5 16t-21.5 15t-27 17.5t-30 19.5q-53 38 -53 95q0 50 39 86q23 21 30.5 27.5t19 20.5t14.5 26t3 29q0 24 -9 43.5t-26.5 33t-42.5 21t-56 7.5q-64 0 -101 -32t-37 -87v-575h-144v38q0 6 6 6l54 5
q12 1 12 12v515q0 39 14 71t40.5 55t66 35.5t87.5 12.5z" />
    <glyph glyph-name="agrave" unicode="&#xe0;" horiz-adv-x="564" 
d="M299 572h-61l-122 149h80zM256 509q77 1 127 -41t50 -131v-278q0 -11 12 -12l66 -6v-41h-129q-6 0 -6 6l-3 57q-63 -73 -167 -73q-47 0 -83 17t-55 48t-19 70q0 57 38 86t128 53l153 41v33q0 65 -32.5 94.5t-85.5 28.5q-59 0 -117 -30q-6 -3 -6 -10l-7 -77h-36v112
q0 3 2 4q35 22 80.5 35.5t89.5 13.5zM368 263l-138 -37q-66 -18 -91 -37t-25 -59q0 -42 30 -66.5t82 -24.5q88 0 139 67l3 4v153z" />
    <glyph glyph-name="aacute" unicode="&#xe1;" horiz-adv-x="564" 
d="M283 572h-60l102 149h80zM256 509q77 1 127 -41t50 -131v-278q0 -11 12 -12l66 -6v-41h-129q-6 0 -6 6l-3 57q-63 -73 -167 -73q-71 0 -114 37.5t-43 97.5q0 57 38 86t128 53l153 41v33q0 65 -32.5 94.5t-85.5 28.5q-59 0 -117 -30q-6 -3 -6 -10l-7 -77h-36v112q0 3 2 4
q35 22 80.5 35.5t89.5 13.5zM368 263l-138 -37q-66 -18 -91 -37t-25 -59q0 -42 30 -66.5t82 -24.5q88 0 139 67l3 4v153z" />
    <glyph glyph-name="acircumflex" unicode="&#xe2;" horiz-adv-x="564" 
d="M408 572h-60l-87 111l-87 -111h-60l105 149h84zM256 509q77 1 127 -41t50 -131v-278q0 -11 12 -12l66 -6v-41h-129q-6 0 -6 6l-3 57q-63 -73 -167 -73q-71 0 -114 37.5t-43 97.5q0 57 38 86t128 53l153 41v33q0 65 -32.5 94.5t-85.5 28.5q-59 0 -117 -30q-6 -3 -6 -10
l-7 -77h-36v112q0 3 2 4q35 22 80.5 35.5t89.5 13.5zM368 263l-138 -37q-66 -18 -91 -37t-25 -59q0 -27 13.5 -48t39 -32t59.5 -11q88 0 139 67l3 4v153z" />
    <glyph glyph-name="atilde" unicode="&#xe3;" horiz-adv-x="564" 
d="M355 670l45 -9q-3 -23 -12.5 -39.5t-24.5 -25.5t-33 -11q-26 -2 -64 14q-9 4 -24 11.5t-25.5 12t-16.5 4.5q-4 1 -7.5 0t-7 -4t-6.5 -8t-6 -12.5t-7 -18.5l-44 12q14 70 63 74q23 2 78 -24q39 -18 57 -15q22 3 35 39zM256 509q77 1 127 -41t50 -131v-278q0 -11 12 -12
l66 -6v-41h-129q-6 0 -6 6l-3 57q-63 -73 -167 -73q-71 0 -114 37.5t-43 97.5q0 57 38 86t128 53l153 41v33q0 65 -32.5 94.5t-85.5 28.5q-59 0 -117 -30q-6 -3 -6 -10l-7 -77h-36v112q0 3 2 4q35 22 80.5 35.5t89.5 13.5zM368 263l-138 -37q-66 -18 -91 -37t-25 -59
q0 -42 30 -66.5t82 -24.5q88 0 139 67l3 4v153z" />
    <glyph glyph-name="adieresis" unicode="&#xe4;" horiz-adv-x="564" 
d="M180 674q16 0 27 -11.5t11 -26.5t-11 -26.5t-27 -11.5t-27 11.5t-11 26.5q0 10 5 18.5t13.5 14t19.5 5.5zM342 674q16 0 27 -11.5t11 -26.5t-11 -26.5t-27 -11.5t-27 11.5t-11 26.5t11 26.5t27 11.5zM256 509q29 0 54.5 -5.5t48 -18.5t39 -32.5t26 -49t9.5 -66.5v-278
q0 -11 12 -12l66 -6v-41h-129q-6 0 -6 6l-3 57q-63 -73 -167 -73q-71 0 -114 37.5t-43 97.5q0 57 38 86t128 53l153 41v33q0 65 -32.5 94.5t-85.5 28.5q-59 0 -117 -30q-6 -3 -6 -10l-7 -77h-36v112q0 3 2 4q35 22 80.5 35.5t89.5 13.5zM368 263l-138 -37q-66 -18 -91 -37
t-25 -59q0 -42 30 -66.5t82 -24.5q88 0 139 67l3 4v153z" />
    <glyph glyph-name="aring" unicode="&#xe5;" horiz-adv-x="564" 
d="M261 745q28 0 51.5 -13.5t36.5 -37t13 -50.5t-13 -50.5t-36.5 -37.5t-51.5 -14q-43 0 -72.5 30t-29.5 72t29.5 71.5t72.5 29.5zM261 709q-25 0 -42.5 -18.5t-17.5 -46.5t17.5 -46.5t42.5 -18.5t42.5 18.5t17.5 46.5t-17.5 46.5t-42.5 18.5zM256 509q77 1 127 -41t50 -131
v-278q0 -11 12 -12l66 -6v-41h-129q-6 0 -6 6l-3 57q-63 -73 -167 -73q-71 0 -114 37.5t-43 97.5q0 57 38 86t128 53l153 41v33q0 65 -32.5 94.5t-85.5 28.5q-59 0 -117 -30q-6 -3 -6 -10l-7 -77h-36v112q0 3 2 4q35 22 80.5 35.5t89.5 13.5zM368 263l-138 -37
q-66 -18 -91 -37t-25 -59q0 -27 13.5 -48t39 -32t59.5 -11q88 0 139 67l3 4v153z" />
    <glyph glyph-name="ae" unicode="&#xe6;" horiz-adv-x="884" 
d="M616 510q112 0 166.5 -66t56.5 -183v-10q0 -10 -10 -10l-375 -4q3 -92 50 -145.5t124 -53.5q97 1 163 64l22 -43q-69 -69 -188 -69q-71 0 -124.5 34t-81.5 94l-2 -38q-48 -49 -95.5 -69.5t-107.5 -20.5q-74 0 -119.5 36t-45.5 99q0 57 38 86t128 53l153 41v33
q0 34 -9.5 58.5t-26 38.5t-37 20t-45.5 6q-59 0 -117 -30q-6 -3 -6 -10l-7 -77h-36v112q0 3 2 4q35 22 80.5 35.5t89.5 13.5q63 1 107.5 -29.5t56.5 -94.5q13 29 32.5 52t44.5 39.5t55 25t64 8.5zM617 464q-71 0 -115 -49.5t-48 -135.5h311q7 0 6 9q-9 176 -154 176z
M368 263l-138 -37q-66 -18 -91 -37.5t-25 -58.5q0 -42 30 -66.5t82 -24.5q88 0 139 67l3 4v153z" />
    <glyph glyph-name="ccedilla" unicode="&#xe7;" horiz-adv-x="500" 
d="M266 -54q31 -7 49 -28t18 -48q-1 -32 -28 -55t-67 -23q-42 2 -71 24l11 33q22 -16 48 -18q23 -1 38.5 11t17.5 35q0 23 -16 34t-38 12q-10 1 -26 -1l25 77q-82 22 -129.5 89t-47.5 162q0 116 68.5 188t181.5 72q83 0 144 -41q3 -2 3 -5v-120h-43l-7 85q0 7 -6 10
q-39 23 -91 23q-83 0 -133.5 -57t-50.5 -155q0 -65 23 -113t65 -73.5t97 -25.5q72 0 132 44l21 -44q-63 -48 -154 -48q-17 0 -34 2l-15 -44q2 0 7 -0.5t8 -1.5z" />
    <glyph glyph-name="egrave" unicode="&#xe8;" horiz-adv-x="548" 
d="M312 572h-61l-122 149h80zM280 510q112 0 166 -66t57 -183v-11q0 -9 -9 -9l-376 -4q2 -92 49.5 -145.5t123.5 -53.5q97 1 163 64l23 -43q-69 -69 -188 -69q-72 0 -126.5 33t-83.5 92t-29 135q0 116 63 188t167 72zM281 464q-71 0 -115 -49.5t-48 -135.5h310q8 0 7 9
q-9 176 -154 176z" />
    <glyph glyph-name="eacute" unicode="&#xe9;" horiz-adv-x="548" 
d="M296 572h-60l102 149h80zM280 510q112 0 166 -66t57 -183v-11q0 -9 -9 -9l-376 -4q2 -92 49.5 -145.5t123.5 -53.5q97 1 163 64l23 -43q-69 -69 -188 -69q-108 0 -173.5 72.5t-65.5 188t63 187.5t167 72zM281 464q-71 0 -115 -49.5t-48 -135.5h310q8 0 7 9
q-9 176 -154 176z" />
    <glyph glyph-name="ecircumflex" unicode="&#xea;" horiz-adv-x="548" 
d="M421 572h-60l-87 111l-87 -111h-60l105 149h84zM280 510q112 0 166 -66t57 -183v-11q0 -9 -9 -9l-376 -4q2 -92 49.5 -145.5t123.5 -53.5q97 1 163 64l23 -43q-69 -69 -188 -69q-108 0 -173.5 72.5t-65.5 188t63 187.5t167 72zM281 464q-71 0 -115 -49.5t-48 -135.5h310
q8 0 7 9q-9 176 -154 176z" />
    <glyph glyph-name="edieresis" unicode="&#xeb;" horiz-adv-x="548" 
d="M193 674q16 0 27 -11.5t11 -26.5t-11 -26.5t-27 -11.5t-27 11.5t-11 26.5q0 10 5 18.5t13.5 14t19.5 5.5zM355 674q16 0 27 -11.5t11 -26.5t-11 -26.5t-27 -11.5q-8 0 -15 3t-12.5 8.5t-8 12.5t-2.5 14q0 15 11 26.5t27 11.5zM280 510q112 0 166 -66t57 -183v-11
q0 -9 -9 -9l-376 -4q2 -92 49.5 -145.5t123.5 -53.5q97 1 163 64l23 -43q-69 -69 -188 -69q-108 0 -173.5 72.5t-65.5 188t63 187.5t167 72zM281 464q-71 0 -115 -49.5t-48 -135.5h310q8 0 7 9q-9 176 -154 176z" />
    <glyph glyph-name="igrave" unicode="&#xec;" horiz-adv-x="351" 
d="M205 572h-60l-122 149h79zM67 498l130 7q7 1 7 -6v-439q0 -12 12 -13l73 -6v-41h-222v36q0 5 6 6l55 5q12 1 12 12v383q0 13 -13 13l-60 3v40z" />
    <glyph glyph-name="iacute" unicode="&#xed;" horiz-adv-x="351" 
d="M189 572h-60l103 149h79zM67 498l130 7q7 1 7 -6v-439q0 -12 12 -13l73 -6v-41h-222v36q0 5 6 6l55 5q12 1 12 12v383q0 13 -13 13l-60 3v40z" />
    <glyph glyph-name="icircumflex" unicode="&#xee;" horiz-adv-x="351" 
d="M314 572h-60l-87 111l-87 -111h-60l106 149h83zM67 498l130 7q7 1 7 -6v-439q0 -12 12 -13l73 -6v-41h-222v36q0 5 6 6l55 5q12 1 12 12v383q0 13 -13 13l-60 3v40z" />
    <glyph glyph-name="idieresis" unicode="&#xef;" horiz-adv-x="351" 
d="M86 674q16 0 27 -11.5t11 -26.5t-11 -26.5t-27 -11.5t-27 11.5t-11 26.5t11 26.5t27 11.5zM248 674q16 0 27 -11.5t11 -26.5t-11 -26.5t-27 -11.5t-27 11.5t-11 26.5t11 26.5t27 11.5zM67 498l130 7q7 1 7 -6v-439q0 -12 12 -13l73 -6v-41h-222v36q0 5 6 6l55 5
q12 1 12 12v383q0 13 -13 13l-60 3v40z" />
    <glyph glyph-name="eth" unicode="&#xf0;" horiz-adv-x="522" 
d="M468 363q9 -104 -14.5 -185.5t-76 -130t-126.5 -53.5q-89 -7 -148 49.5t-66 155.5q-8 96 43.5 158.5t143.5 70.5q58 5 104 -18t71 -68q-1 24 -5 48q-14 110 -80 186l-17 18l-136 -69l-26 35l128 64q-79 61 -186 73l8 51q135 -10 236 -95l105 52l25 -34l-97 -49
q18 -18 33 -39q72 -95 81 -220zM248 47q65 5 106.5 60.5t48.5 147.5l-5 18q-17 54 -58 81.5t-98 23.5q-45 -4 -78 -26.5t-49 -61.5t-12 -89q6 -77 45.5 -118t99.5 -36z" />
    <glyph glyph-name="ntilde" unicode="&#xf1;" horiz-adv-x="700" 
d="M444 670l44 -9q-3 -23 -12.5 -39.5t-24 -25.5t-32.5 -11q-27 -2 -65 14q-9 4 -24 11.5t-25 12t-16 4.5q-5 1 -8 0t-6.5 -4t-6.5 -8t-6.5 -12.5t-6.5 -18.5l-44 12q14 70 62 74q24 2 79 -24q39 -18 56 -15q23 3 36 39zM415 510q26 0 49 -6.5t42 -19t32.5 -31.5t21 -46.5
t7.5 -60.5v-286q0 -12 11 -13l70 -6v-41h-140q-6 0 -6 7v329q0 65 -30 95t-83 30q-85 0 -191 -66v-335q0 -12 12 -13l70 -6v-41h-219v36q0 5 6 6l55 5q11 1 11 12v383q0 13 -12 13l-60 3v40l130 7q7 1 7 -6v-65q117 75 217 76z" />
    <glyph glyph-name="ograve" unicode="&#xf2;" 
d="M338 572h-60l-122 149h79zM300 510q113 0 181.5 -72t68.5 -187.5t-68.5 -188t-181.5 -72.5t-181.5 72.5t-68.5 188t68.5 187.5t181.5 72zM300 462q-83 0 -133.5 -57t-50.5 -154.5t50.5 -154.5t133.5 -57t133.5 57t50.5 154.5t-50.5 154.5t-133.5 57z" />
    <glyph glyph-name="oacute" unicode="&#xf3;" 
d="M322 572h-60l103 149h79zM300 510q75 0 132 -33t87.5 -92t30.5 -135q0 -115 -68.5 -187.5t-181.5 -72.5t-181.5 72.5t-68.5 188t68.5 187.5t181.5 72zM300 462q-83 0 -133.5 -57t-50.5 -154.5t50.5 -154.5t133.5 -57t133.5 57t50.5 154q0 65 -23 113t-64.5 73.5
t-96.5 25.5z" />
    <glyph glyph-name="ocircumflex" unicode="&#xf4;" 
d="M447 572h-60l-87 111l-87 -111h-60l106 149h83zM300 510q113 0 181.5 -72t68.5 -187.5t-68.5 -188t-181.5 -72.5t-181.5 72.5t-68.5 187.5q0 76 30.5 135t87.5 92t132 33zM300 462q-83 0 -133.5 -57t-50.5 -155q0 -65 23.5 -113t65 -73t95.5 -25q83 0 133.5 57t50.5 154
q0 65 -23 113t-64.5 73.5t-96.5 25.5z" />
    <glyph glyph-name="otilde" unicode="&#xf5;" 
d="M395 670l44 -9q-3 -23 -12.5 -39.5t-24 -25.5t-33.5 -11q-26 -2 -64 14q-9 4 -24 11.5t-25 12t-17 4.5q-10 1 -17.5 -8t-15.5 -35l-44 12q13 70 62 74q24 2 79 -24q39 -18 56 -15q22 3 36 39zM300 510q113 0 181.5 -72t68.5 -187.5t-68.5 -188t-181.5 -72.5t-181.5 72.5
t-68.5 187.5q0 76 30.5 135t87.5 92t132 33zM300 462q-83 0 -133.5 -57t-50.5 -155q0 -65 23.5 -113t65 -73t95.5 -25q83 0 133.5 57t50.5 154.5t-50.5 154.5t-133.5 57z" />
    <glyph glyph-name="odieresis" unicode="&#xf6;" 
d="M219 674q16 0 27 -11.5t11 -26.5t-11 -26.5t-27 -11.5t-27 11.5t-11 26.5q0 10 5 18.5t14 14t19 5.5zM381 674q11 0 20 -5.5t13.5 -14t4.5 -18.5q0 -15 -11 -26.5t-27 -11.5q-8 0 -15 3t-12 8.5t-8 12.5t-3 14q0 15 11 26.5t27 11.5zM300 510q75 0 132 -33t87.5 -92
t30.5 -135q0 -115 -68.5 -187.5t-181.5 -72.5t-181.5 72.5t-68.5 188t68.5 187.5t181.5 72zM300 462q-83 0 -133.5 -57t-50.5 -154.5t50.5 -154.5t133.5 -57t133.5 57t50.5 154.5t-50.5 154.5t-133.5 57z" />
    <glyph glyph-name="divide" unicode="&#xf7;" horiz-adv-x="553" 
d="M277 566q11 0 20.5 -5.5t14.5 -15t5 -19.5q0 -16 -11.5 -28.5t-28.5 -12.5t-28.5 12.5t-11.5 28.5q0 10 5 19.5t14.5 15t20.5 5.5zM508 319h-464v57h464v-57zM277 210q17 0 28.5 -12.5t11.5 -28.5t-11.5 -28t-28.5 -12t-28.5 12t-11.5 28t11.5 28.5t28.5 12.5z" />
    <glyph glyph-name="oslash" unicode="&#xf8;" 
d="M426 550l-19 -60q67 -29 105 -92t38 -148q0 -115 -68.5 -187.5t-181.5 -72.5q-28 0 -54 5l-14 -45h-58l20 61q-68 28 -106 91.5t-38 147.5q0 76 30.5 135t87.5 92t132 33q28 0 54 -5l15 45h57zM116 250q0 -67 25 -116t69 -73l129 397q-19 4 -39 4q-83 0 -133.5 -57
t-50.5 -155zM300 39q83 0 133.5 57t50.5 154q0 67 -24.5 116t-68.5 74l-129 -398q18 -3 38 -3z" />
    <glyph glyph-name="ugrave" unicode="&#xf9;" horiz-adv-x="691" 
d="M384 572h-61l-122 149h80zM52 500h140q6 0 6 -7v-329q0 -65 30 -95.5t83 -30.5q85 0 191 66v336q0 12 -12 13l-70 5v42h140q7 0 7 -7v-436q0 -12 12 -13l60 -3v-40l-130 -7q-7 0 -7 7v64q-117 -75 -217 -75q-69 0 -110.5 41t-41.5 122v287q0 12 -11 13l-70 5v42z" />
    <glyph glyph-name="uacute" unicode="&#xfa;" horiz-adv-x="691" 
d="M368 572h-60l102 149h80zM52 500h140q6 0 6 -7v-329q0 -65 30 -95.5t83 -30.5q85 0 191 66v336q0 12 -12 13l-70 5v42h140q7 0 7 -7v-436q0 -12 12 -13l60 -3v-40l-130 -7q-7 0 -7 7v64q-117 -75 -217 -75q-69 0 -110.5 41t-41.5 122v287q0 12 -11 13l-70 5v42z" />
    <glyph glyph-name="ucircumflex" unicode="&#xfb;" horiz-adv-x="691" 
d="M493 572h-60l-87 111l-87 -111h-60l105 149h84zM52 500h140q6 0 6 -7v-329q0 -65 30 -95.5t83 -30.5q85 0 191 66v336q0 12 -12 13l-70 5v42h140q7 0 7 -7v-436q0 -12 12 -13l60 -3v-40l-130 -7q-7 0 -7 7v64q-117 -75 -217 -75q-69 0 -110.5 41t-41.5 122v287
q0 12 -11 13l-70 5v42z" />
    <glyph glyph-name="udieresis" unicode="&#xfc;" horiz-adv-x="691" 
d="M265 674q16 0 27 -11.5t11 -26.5t-11 -26.5t-27 -11.5t-27 11.5t-11 26.5t11 26.5t27 11.5zM427 674q16 0 27 -11.5t11 -26.5t-11 -26.5t-27 -11.5t-27 11.5t-11 26.5t11 26.5t27 11.5zM52 500h140q6 0 6 -7v-329q0 -65 30 -95.5t83 -30.5q85 0 191 66v336q0 12 -12 13
l-70 5v42h140q7 0 7 -7v-436q0 -12 12 -13l60 -3v-40l-130 -7q-7 0 -7 7v64q-117 -75 -217 -75q-69 0 -110.5 41t-41.5 122v287q0 12 -11 13l-70 5v42z" />
    <glyph glyph-name="yacute" unicode="&#xfd;" horiz-adv-x="561" 
d="M305 572h-61l103 149h80zM544 459l-54 -5l-258 -649q-2 -3 -6 -3h-143v41l106 8q7 0 10 8l55 137h-12l-177 452q-3 6 -10 7l-32 3q-6 1 -6 7v35h97l166 -438l148 371q2 7 -1.5 13t-11.5 7l-67 5q-5 1 -5 7v35h201v-41z" />
    <glyph glyph-name="thorn" unicode="&#xfe;" horiz-adv-x="643" 
d="M67 743l130 7q7 0 7 -7v-300q63 67 162 67q103 0 165 -69.5t62 -191.5q0 -72 -24 -129t-76 -93.5t-125 -36.5q-102 0 -164 69v-198q0 -12 12 -12l71 -6v-41h-220v35q0 6 6 6l55 5q12 2 12 13v826q0 12 -13 13l-60 3v40zM343 460q-90 0 -139 -67v-279q50 -76 145 -76
q81 0 129.5 57t48.5 154t-50.5 154t-133.5 57z" />
    <glyph glyph-name="ydieresis" unicode="&#xff;" horiz-adv-x="561" 
d="M202 674q16 0 27 -11.5t11 -26.5t-11 -26.5t-27 -11.5t-27 11.5t-11 26.5q0 10 4.5 18.5t13.5 14t20 5.5zM364 674q16 0 27 -11.5t11 -26.5t-11 -26.5t-27 -11.5t-27.5 11.5t-11.5 26.5t11.5 26.5t27.5 11.5zM544 459l-54 -5l-258 -649q-2 -3 -6 -3h-143v41l106 8
q7 0 10 8l55 137h-12l-177 452q-3 6 -10 7l-32 3q-6 1 -6 7v35h97l166 -438l148 371q2 7 -1.5 13t-11.5 7l-67 5q-5 1 -5 7v35h201v-41z" />
    <glyph glyph-name="Amacron" unicode="&#x100;" horiz-adv-x="771" 
d="M527 801h-282v49h282v-49zM688 49l57 -5v-44h-229v37q0 6 5 6l68 6q8 1 11.5 7t1.5 13l-59 142h-331l-65 -160l88 -7v-44h-209v38q0 6 6 6l45 4q7 1 9 7l264 643l67 3zM234 268h288l-144 352z" />
    <glyph glyph-name="amacron" unicode="&#x101;" horiz-adv-x="564" 
d="M402 601h-282v49h282v-49zM256 509q77 1 127 -41t50 -131v-278q0 -11 12 -12l66 -6v-41h-129q-6 0 -6 6l-3 57q-63 -73 -167 -73q-71 0 -114 37.5t-43 97.5q0 57 38 86t128 53l153 41v33q0 65 -32.5 94.5t-85.5 28.5q-59 0 -117 -30q-6 -3 -6 -10l-7 -77h-36v112q0 3 2 4
q35 22 80.5 35.5t89.5 13.5zM368 263l-138 -37q-66 -18 -91 -37t-25 -59q0 -27 13.5 -48t39 -32t59.5 -11q88 0 139 67l3 4v153z" />
    <glyph glyph-name="Abreve" unicode="&#x102;" horiz-adv-x="771" 
d="M473 905h48q0 -56 -39.5 -95t-96 -39t-96 39t-39.5 95h48q0 -40 26 -66.5t62 -26.5t61.5 26.5t25.5 66.5zM688 49l57 -5v-44h-229v37q0 6 5 6l68 6q8 1 11.5 7t1.5 13l-59 142h-331l-65 -160l88 -7v-44h-209v38q0 6 6 6l45 4q7 1 9 7l264 643l67 3zM234 268h288l-144 352
z" />
    <glyph glyph-name="abreve" unicode="&#x103;" horiz-adv-x="564" 
d="M348 705h48q0 -56 -39 -95t-96 -39q-37 0 -68.5 18t-49 48.5t-17.5 67.5h47q0 -40 26 -66.5t62 -26.5t61.5 26.5t25.5 66.5zM256 509q77 1 127 -41t50 -131v-278q0 -11 12 -12l66 -6v-41h-129q-6 0 -6 6l-3 57q-63 -73 -167 -73q-71 0 -114 37.5t-43 97.5q0 57 38 86
t128 53l153 41v33q0 65 -32.5 94.5t-85.5 28.5q-59 0 -117 -30q-6 -3 -6 -10l-7 -77h-36v112q0 3 2 4q35 22 80.5 35.5t89.5 13.5zM368 263l-138 -37q-66 -18 -91 -37t-25 -59q0 -42 30 -66.5t82 -24.5q88 0 139 67l3 4v153z" />
    <glyph glyph-name="Aogonek" unicode="&#x104;" horiz-adv-x="771" 
d="M688 49l57 -5v-44h-178q-56 -38 -57 -93q0 -28 14.5 -44t38.5 -16q22 -2 55 16l11 -38q-40 -21 -77 -21q-40 0 -64 24.5t-25 61.5q-3 63 53 110v37q0 6 5 6l68 6q8 1 11.5 7t1.5 13l-59 142h-331l-65 -160l88 -7v-44h-209v38q0 6 6 6l45 4q7 1 9 7l264 643l67 3zM234 268
h288l-144 352z" />
    <glyph glyph-name="aogonek" unicode="&#x105;" horiz-adv-x="564" 
d="M256 509q77 1 127 -41t50 -131v-278q0 -11 12 -12l66 -6v-41h-92q-56 -38 -56 -93q0 -28 14.5 -44t38.5 -16q22 -2 55 16l10 -38q-39 -21 -76 -21q-41 0 -64.5 24.5t-25.5 61.5q-1 31 14.5 61.5t46.5 54.5l-3 57q-63 -73 -167 -73q-71 0 -114 37.5t-43 97.5q0 57 38 86
t128 53l153 41v33q0 65 -32.5 94.5t-85.5 28.5q-59 0 -117 -30q-6 -3 -6 -10l-7 -77h-36v112q0 3 2 4q35 22 80.5 35.5t89.5 13.5zM368 263l-138 -37q-66 -18 -91 -37t-25 -59q0 -42 30 -66.5t82 -24.5q88 0 139 67l3 4v153z" />
    <glyph glyph-name="Cacute" unicode="&#x106;" horiz-adv-x="649" 
d="M398 772h-60l102 149h80zM392 709q117 0 202 -61q3 -2 3 -5v-127h-43l-7 86q0 7 -6 9q-66 41 -149 41q-120 0 -192.5 -81t-72.5 -221q0 -141 73.5 -222t195.5 -81q108 1 192 68l25 -48q-89 -76 -221 -76q-152 0 -245.5 99.5t-93.5 259.5t93.5 259.5t245.5 99.5z" />
    <glyph glyph-name="cacute" unicode="&#x107;" horiz-adv-x="500" 
d="M300 572h-60l102 149h80zM300 510q83 0 144 -41q3 -2 3 -5v-120h-43l-7 85q0 7 -6 10q-39 23 -91 23q-83 0 -133.5 -57t-50.5 -155q0 -65 23 -113t65 -73.5t97 -25.5q72 0 132 44l21 -44q-63 -48 -154 -48q-113 0 -181.5 72.5t-68.5 188t68.5 187.5t181.5 72z" />
    <glyph glyph-name="Cdotaccent" unicode="&#x10a;" horiz-adv-x="649" 
d="M376 874q8 0 15 -3t12 -8.5t8 -12.5t3 -14q0 -15 -11 -26.5t-27 -11.5q-8 0 -15.5 3t-12.5 8.5t-7.5 12.5t-2.5 14q0 15 11 26.5t27 11.5zM392 709q117 0 202 -61q3 -2 3 -5v-127h-43l-7 87q0 6 -6 8q-66 41 -149 41q-120 0 -192.5 -81t-72.5 -221q0 -141 73.5 -222
t195.5 -81q108 1 192 68l25 -48q-89 -76 -221 -76q-152 0 -245.5 99.5t-93.5 259.5t93.5 259.5t245.5 99.5z" />
    <glyph glyph-name="cdotaccent" unicode="&#x10b;" horiz-adv-x="500" 
d="M282 674q16 0 27 -11.5t11 -26.5t-11 -26.5t-27 -11.5t-27 11.5t-11 26.5t11 26.5t27 11.5zM300 510q83 0 144 -41q3 -2 3 -5v-120h-43l-7 85q0 7 -6 10q-39 23 -91 23q-83 0 -133.5 -57t-50.5 -155q0 -65 23 -113t65 -73.5t97 -25.5q72 0 132 44l21 -44
q-63 -48 -154 -48q-113 0 -181.5 72.5t-68.5 187.5q0 76 30.5 135t87.5 92t132 33z" />
    <glyph glyph-name="Ccaron" unicode="&#x10c;" horiz-adv-x="649" 
d="M417 772h-83l-105 149h60l87 -111l87 111h60zM392 709q117 0 202 -61q3 -2 3 -5v-127h-43l-7 87q0 6 -6 8q-66 41 -149 41q-120 0 -192.5 -81t-72.5 -221q0 -141 73.5 -222t195.5 -81q108 1 192 68l25 -48q-89 -76 -221 -76q-152 0 -245.5 99.5t-93.5 259.5t93.5 259.5
t245.5 99.5z" />
    <glyph glyph-name="ccaron" unicode="&#x10d;" horiz-adv-x="500" 
d="M320 572h-83l-106 149h60l87 -111l87 111h60zM300 510q83 0 144 -41q3 -2 3 -5v-120h-43l-7 85q0 7 -6 10q-39 23 -91 23q-83 0 -133.5 -57t-50.5 -155q0 -65 23 -113t65 -73.5t97 -25.5q72 0 132 44l21 -44q-63 -48 -154 -48q-113 0 -181.5 72.5t-68.5 188t68.5 187.5
t181.5 72z" />
    <glyph glyph-name="Dcaron" unicode="&#x10e;" horiz-adv-x="754" 
d="M419 772h-83l-106 149h60l87 -111l87 111h60zM67 700h296q154 0 246.5 -95.5t92.5 -254.5t-92.5 -254.5t-246.5 -95.5h-296v38q0 6 6 6l62 5q12 1 12 13v576q0 12 -12 13l-62 5q-6 0 -6 6v38zM283 643l-64 -5v-576l64 -5h80q122 0 193.5 77.5t71.5 215.5t-71.5 215.5
t-193.5 77.5h-80z" />
    <glyph glyph-name="dcaron" unicode="&#x10f;" horiz-adv-x="676" 
d="M630 750q17 0 28 -13t12.5 -33.5t-3.5 -47.5q-9 -40 -31 -75l-30 9q14 30 19 55q4 24 -2 39h-2q-7 2 -13 6.5t-9 11t-3 14.5q0 9 4.5 16.5t12 12.5t17.5 5zM367 743l130 7q7 0 7 -7v-684q0 -11 11 -12l67 -6v-41h-129q-6 0 -6 6l-3 57q-63 -73 -167 -73
q-102 0 -164.5 69.5t-62.5 191.5q0 71 24 128.5t76 94t125 36.5q102 0 164 -69v246q0 12 -12 13l-60 3v40zM295 462q-54 0 -94.5 -25.5t-62.5 -73.5t-22 -112.5t23.5 -112.5t65 -73t95.5 -25q90 0 139 67v279q-50 76 -144 76z" />
    <glyph glyph-name="Dcroat" unicode="&#x110;" horiz-adv-x="754" 
d="M67 700h296q154 0 246.5 -95.5t92.5 -254.5t-92.5 -254.5t-246.5 -95.5h-296v38q0 6 6 6l62 5q12 1 12 13v260h-103v56h103v260q0 12 -12 13l-62 5q-6 0 -6 6v38zM284 57h79q122 0 193.5 77.5t71.5 215.5t-71.5 215.5t-193.5 77.5h-79l-65 -5v-260h140v-56h-140v-260z
" />
    <glyph glyph-name="dcroat" unicode="&#x111;" horiz-adv-x="643" 
d="M504 592v-533q0 -11 11 -12l67 -6v-41h-129q-6 0 -6 6l-3 57q-63 -73 -167 -73q-67 0 -118 30.5t-80 90t-29 140.5q0 71 24 128.5t76 94t125 36.5q102 0 164 -69v151h-132v47h132v108l58 3q7 0 7 -7v-104h87v-47h-87zM439 107v279q-50 76 -144 76q-82 0 -130.5 -57
t-48.5 -154t50.5 -154t133.5 -57q90 0 139 67z" />
    <glyph glyph-name="Emacron" unicode="&#x112;" horiz-adv-x="584" 
d="M458 801h-281v49h281v-49zM67 700h457q7 0 7 -7v-139h-43l-6 77q-1 12 -13 12h-250v-260h229v-54h-229v-272h269q12 0 13 12l6 77h42v-139q0 -7 -6 -7h-476v38q0 6 6 6l62 5q12 1 12 13v576q0 12 -12 13l-62 5q-6 0 -6 6v38z" />
    <glyph glyph-name="emacron" unicode="&#x113;" horiz-adv-x="548" 
d="M421 601h-282v49h282v-49zM280 510q112 0 166 -66t57 -183v-11q0 -9 -9 -9l-376 -4q2 -92 49.5 -145.5t123.5 -53.5q97 1 163 64l23 -43q-69 -69 -188 -69q-108 0 -173.5 72.5t-65.5 188t63 187.5t167 72zM281 464q-71 0 -115 -49.5t-48 -135.5h310q8 0 7 9
q-9 176 -154 176z" />
    <glyph glyph-name="Edotaccent" unicode="&#x116;" horiz-adv-x="584" 
d="M317 874q16 0 27.5 -11.5t11.5 -26.5t-11.5 -26.5t-27.5 -11.5t-27 11.5t-11 26.5t11 26.5t27 11.5zM67 700h457q7 0 7 -7v-139h-43l-6 77q-1 12 -13 12h-250v-260h229v-54h-229v-272h269q12 0 13 12l6 77h42v-139q0 -7 -6 -7h-476v38q0 6 6 6l62 5q12 1 12 13v576
q0 12 -12 13l-62 5q-6 0 -6 6v38z" />
    <glyph glyph-name="edotaccent" unicode="&#x117;" horiz-adv-x="548" 
d="M280 674q16 0 27 -11.5t11 -26.5t-11 -26.5t-27 -11.5t-27 11.5t-11 26.5t11 26.5t27 11.5zM280 510q112 0 166 -66t57 -183v-11q0 -9 -9 -9l-376 -4q2 -92 49.5 -145.5t123.5 -53.5q97 1 163 64l23 -43q-69 -69 -188 -69q-108 0 -173.5 72.5t-65.5 188t63 187.5t167 72z
M281 464q-71 0 -115 -49.5t-48 -135.5h310q8 0 7 9q-9 176 -154 176z" />
    <glyph glyph-name="Eogonek" unicode="&#x118;" horiz-adv-x="584" 
d="M67 700h457q7 0 7 -7v-139h-43l-6 77q-1 12 -13 12h-250v-260h229v-54h-229v-272h269q12 0 13 12l6 77h42v-139q0 -7 -6 -7h-53q-56 -38 -57 -93q0 -28 14.5 -44t38.5 -16q22 -2 55 16l11 -38q-40 -21 -77 -21q-40 0 -64 24.5t-25 61.5q-3 63 53 110h-372v38q0 6 6 6
l62 5q12 1 12 13v576q0 12 -12 13l-62 5q-6 0 -6 6v38z" />
    <glyph glyph-name="eogonek" unicode="&#x119;" horiz-adv-x="548" 
d="M280 510q112 0 166 -66t57 -183v-11q0 -9 -9 -9l-376 -4q2 -92 49.5 -145.5t123.5 -53.5q97 1 163 64l23 -43q-29 -29 -72 -47q-75 -41 -76 -105q0 -28 14.5 -44t38.5 -16q22 -2 55 16l11 -38q-40 -21 -77 -21q-40 0 -64 24.5t-25 61.5q-2 57 45 103q-22 -3 -45 -3
q-105 2 -168.5 74t-63.5 186q0 116 63 188t167 72zM281 464q-71 0 -115 -49.5t-48 -135.5h310q8 0 7 9q-9 176 -154 176z" />
    <glyph glyph-name="Ecaron" unicode="&#x11a;" horiz-adv-x="584" 
d="M359 772h-83l-106 149h61l87 -111l87 111h60zM67 700h457q7 0 7 -7v-139h-43l-6 77q-1 12 -13 12h-250v-260h229v-54h-229v-272h269q12 0 13 12l6 77h42v-139q0 -7 -6 -7h-476v38q0 6 6 6l62 5q12 1 12 13v576q0 12 -12 13l-62 5q-6 0 -6 6v38z" />
    <glyph glyph-name="ecaron" unicode="&#x11b;" horiz-adv-x="548" 
d="M322 572h-83l-106 149h60l87 -111l87 111h60zM280 510q112 0 166 -66t57 -183v-11q0 -9 -9 -9l-376 -4q2 -92 49.5 -145.5t123.5 -53.5q97 1 163 64l23 -43q-69 -69 -188 -69q-108 0 -173.5 72.5t-65.5 188t63 187.5t167 72zM281 464q-71 0 -115 -49.5t-48 -135.5h310
q8 0 7 9q-9 176 -154 176z" />
    <glyph glyph-name="Gbreve" unicode="&#x11e;" horiz-adv-x="705" 
d="M461 905h48q0 -56 -39 -95t-96 -39t-96 39t-39 95h47q0 -40 26 -66.5t62 -26.5t61.5 26.5t25.5 66.5zM392 709q114 0 224 -59q3 -2 3 -5v-128h-43l-6 83q-1 7 -7 10q-87 42 -171 42q-115 0 -190 -79t-75 -223q0 -139 72.5 -221t192.5 -82q114 0 185 73v146q0 12 -12 13
l-164 8v46h233q7 0 7 -7v-326h-45l-6 61q-85 -70 -208 -70q-148 0 -238.5 99.5t-90.5 259.5q0 86 27 155t73.5 113.5t107.5 67.5t131 23z" />
    <glyph glyph-name="gbreve" unicode="&#x11f;" horiz-adv-x="570" 
d="M370 705h47q0 -56 -39 -95t-96 -39t-96 39t-39 95h48q0 -40 25.5 -66.5t61.5 -26.5t62 26.5t26 66.5zM518 473l-104 -9q67 -40 67 -124q0 -78 -53.5 -124t-143.5 -46q-42 0 -77 11q-56 -14 -56 -48q0 -32 32.5 -45t103.5 -13q220 0 220 -147q0 -70 -63 -112t-166 -42
q-101 0 -165 41.5t-64 107.5q0 42 30 75.5t83 52.5q-68 19 -68 71q0 50 74 76q-81 44 -81 142q0 77 53.5 123.5t143.5 46.5h234v-37zM284 468q-62 0 -97 -34t-35 -94.5t35 -94t97 -33.5t97 33.5t35 94t-35 94.5t-97 34zM240 33l-12 -3q-56 -11 -88 -39t-32 -66
q0 -49 46.5 -78t124 -29t123.5 29t46 78q0 107 -171 107q-16 0 -37 1z" />
    <glyph glyph-name="Gdotaccent" unicode="&#x120;" horiz-adv-x="705" 
d="M374 874q16 0 27 -11.5t11 -26.5t-11 -26.5t-27 -11.5t-27 11.5t-11 26.5t11 26.5t27 11.5zM392 709q114 0 224 -59q3 -2 3 -5v-128h-43l-6 83q-1 7 -7 10q-87 42 -171 42q-115 0 -190 -79t-75 -223q0 -139 72.5 -221t192.5 -82q114 0 185 73v146q0 12 -12 13l-164 8v46
h233q7 0 7 -7v-326h-45l-6 61q-85 -70 -207 -70q-149 0 -239.5 99.5t-90.5 259.5q0 86 27 155t73.5 113.5t107.5 67.5t131 23z" />
    <glyph glyph-name="gdotaccent" unicode="&#x121;" horiz-adv-x="570" 
d="M282 674q16 0 27 -11.5t11 -26.5t-11 -26.5t-27 -11.5t-27 11.5t-11 26.5t11 26.5t27 11.5zM518 473l-104 -9q67 -40 67 -124q0 -78 -53.5 -124t-143.5 -46q-42 0 -77 11q-56 -14 -56 -48q0 -32 32.5 -45t103.5 -13q220 0 220 -147q0 -70 -63 -112t-166 -42
q-101 0 -165 41.5t-64 107.5q0 42 30 75.5t83 52.5q-68 19 -68 71q0 50 74 76q-81 44 -81 142q0 77 53.5 123.5t143.5 46.5h234v-37zM284 468q-62 0 -97 -34t-35 -94.5t35 -94t97 -33.5t97 33.5t35 94t-35 94.5t-97 34zM240 33l-12 -3q-56 -11 -88 -39t-32 -66
q0 -49 46.5 -78t124 -29t123.5 29t46 78q0 107 -171 107q-16 0 -37 1z" />
    <glyph glyph-name="Gcommaaccent" unicode="&#x122;" horiz-adv-x="705" 
d="M392 709q114 0 224 -59q3 -2 3 -5v-128h-43l-6 83q-1 7 -7 10q-87 42 -171 42q-115 0 -190 -79t-75 -223q0 -139 72.5 -221t192.5 -82q114 0 185 73v146q0 12 -12 13l-164 8v46h233q7 0 7 -7v-326h-45l-6 61q-85 -70 -207 -70q-149 0 -239.5 99.5t-90.5 259.5
q0 86 27 155t73.5 113.5t107.5 67.5t131 23zM348 -51q26 0 36 -26.5t1 -66.5q-8 -41 -31 -76l-30 9q15 30 19 55t-2 39h-2q-11 3 -18 12t-7 20q0 14 9.5 23.5t24.5 10.5z" />
    <glyph glyph-name="gcommaaccent" unicode="&#x123;" horiz-adv-x="570" 
d="M282 755l29 -9q-14 -30 -18 -55q-5 -24 2 -39h2q11 -3 18 -12t7 -20q0 -9 -4.5 -16.5t-12 -12.5t-17.5 -5q-26 0 -36 27t-1 66q8 40 31 76zM518 473l-104 -9q67 -40 67 -124q0 -78 -53.5 -124t-143.5 -46q-42 0 -77 11q-56 -14 -56 -48q0 -32 32.5 -45t103.5 -13
q220 0 220 -147q0 -70 -63 -112t-166 -42q-101 0 -165 41.5t-64 107.5q0 42 30 75.5t83 52.5q-68 19 -68 71q0 50 74 76q-80 44 -80 142q0 77 53 123.5t143 46.5h234v-37zM284 468q-62 0 -97 -34t-35 -94.5t35 -94t97 -33.5t97 33.5t35 94t-35 94.5t-97 34zM240 33l-12 -3
q-56 -11 -88 -39t-32 -66q0 -32 21 -56.5t59.5 -37.5t89.5 -13q78 0 124 29t46 78q0 106 -171 106q-16 0 -37 2z" />
    <glyph glyph-name="Hbar" unicode="&#x126;" horiz-adv-x="859" 
d="M711 518v-456q0 -12 12 -13l68 -5v-44h-241v38q0 6 6 6l72 6q12 1 12 13v266h-421v-266q0 -12 11 -13l78 -6v-44h-241v38q0 6 6 6l63 5q11 1 11 13v456h-147v37h147v83q0 12 -11 13l-63 5q-6 0 -6 6v38h241v-44l-78 -6q-11 -1 -11 -13v-82h421v82q0 12 -12 13l-72 6
q-6 0 -6 6v38h241v-44l-68 -5q-12 -1 -12 -13v-83h147v-37h-147zM640 518h-421v-132h421v132z" />
    <glyph glyph-name="hbar" unicode="&#x127;" horiz-adv-x="706" 
d="M654 41v-41h-139q-7 0 -7 7v329q0 65 -30 95t-82 30q-85 0 -191 -66v-335q0 -12 11 -13l71 -6v-41h-220v36q0 5 6 6l55 5q12 1 12 12v530h-140v35h140v63q0 12 -13 13l-60 3v40l131 7q7 0 7 -7v-119h169v-35h-169v-155q116 75 216 76q70 0 111 -41t41 -123v-286
q0 -12 12 -13z" />
    <glyph glyph-name="Itilde" unicode="&#x128;" horiz-adv-x="368" 
d="M279 870l44 -9q-4 -34 -23 -54t-47 -22q-26 -2 -64 14q-8 4 -19 9t-18.5 9t-15.5 7t-13 3q-10 1 -17.5 -8t-15.5 -35l-45 12q14 70 63 74q24 2 79 -24q38 -18 56 -15q22 3 36 39zM301 656l-70 -5q-11 -1 -11 -13v-576q0 -12 11 -13l70 -5v-44h-234v38q0 6 6 6l64 5
q11 1 11 13v576q0 12 -11 13l-64 5q-6 0 -6 6v38h234v-44z" />
    <glyph glyph-name="itilde" unicode="&#x129;" horiz-adv-x="351" 
d="M262 670l44 -9q-4 -34 -23 -54t-47 -22q-26 -2 -64 14q-9 4 -24 11.5t-25 12t-17 4.5q-10 1 -17.5 -8t-15.5 -35l-45 12q14 70 63 74q24 2 79 -24q39 -18 56 -15q22 3 36 39zM67 498l130 7q7 1 7 -6v-439q0 -12 12 -13l73 -6v-41h-222v36q0 5 6 6l55 5q12 1 12 12v383
q0 13 -13 13l-60 3v40z" />
    <glyph glyph-name="Imacron" unicode="&#x12a;" horiz-adv-x="368" 
d="M325 801h-282v49h282v-49zM301 656l-70 -5q-11 -1 -11 -13v-576q0 -12 11 -13l70 -5v-44h-234v38q0 6 6 6l64 5q11 1 11 13v576q0 12 -11 13l-64 5q-6 0 -6 6v38h234v-44z" />
    <glyph glyph-name="imacron" unicode="&#x12b;" horiz-adv-x="351" 
d="M308 601h-282v49h282v-49zM67 498l130 7q7 1 7 -6v-439q0 -12 12 -13l73 -6v-41h-222v36q0 5 6 6l55 5q12 1 12 12v383q0 13 -13 13l-60 3v40z" />
    <glyph glyph-name="Iogonek" unicode="&#x12e;" horiz-adv-x="368" 
d="M301 656l-70 -5q-11 -1 -11 -13v-576q0 -12 11 -13l70 -5v-44h-28q-58 -38 -58 -93q0 -28 14.5 -44.5t37.5 -16.5q21 -1 55 17l11 -38q-42 -23 -77 -21q-40 0 -64 24.5t-25 61.5q-2 63 55 110h-155v38q0 6 6 6l64 5q11 1 11 13v576q0 12 -11 13l-64 5q-6 0 -6 6v38h234
v-44z" />
    <glyph glyph-name="iogonek" unicode="&#x12f;" horiz-adv-x="351" 
d="M167 674q16 0 27 -11.5t11 -26.5t-11 -26.5t-27 -11.5t-27 11.5t-11 26.5t11 26.5t27 11.5zM67 498l130 7q7 1 7 -6v-439q0 -12 12 -13l73 -6v-41h-27q-58 -38 -58 -94q0 -28 14.5 -44.5t38.5 -16.5q20 -1 54 17l11 -38q-42 -23 -77 -21q-40 0 -63.5 24.5t-25.5 61.5
q-2 64 55 111h-144v36q0 5 6 6l55 5q12 1 12 12v383q0 13 -13 13l-60 3v40z" />
    <glyph glyph-name="Idotaccent" unicode="&#x130;" horiz-adv-x="368" 
d="M184 874q16 0 27 -11.5t11 -26.5t-11 -26.5t-27 -11.5t-27 11.5t-11 26.5t11 26.5t27 11.5zM301 656l-70 -5q-11 -1 -11 -13v-576q0 -12 11 -13l70 -5v-44h-234v38q0 6 6 6l64 5q11 1 11 13v576q0 12 -11 13l-64 5q-6 0 -6 6v38h234v-44z" />
    <glyph glyph-name="dotlessi" unicode="&#x131;" horiz-adv-x="351" 
d="M67 498l130 7q7 1 7 -6v-439q0 -12 12 -13l73 -6v-41h-222v36q0 5 6 6l55 5q12 1 12 12v383q0 13 -13 13l-60 3v40z" />
    <glyph glyph-name="IJ" unicode="&#x132;" horiz-adv-x="743" 
d="M301 656l-70 -5q-11 -1 -11 -13v-576q0 -12 11 -13l70 -5v-44h-234v38q0 6 6 6l64 5q11 1 11 13v576q0 12 -11 13l-64 5q-6 0 -6 6v38h234v-44zM676 656l-68 -5q-11 -1 -11 -13v-601q0 -92 -49.5 -156t-138.5 -87l-15 41q60 21 95 74.5t35 127.5v600q0 12 -11 13l-72 6
q-6 0 -6 6v38h241v-44z" />
    <glyph glyph-name="ij" unicode="&#x133;" horiz-adv-x="616" 
d="M510 714q17 0 29 -12t12 -28.5t-12 -28.5t-29 -12t-28.5 12t-11.5 28.5t11.5 28.5t28.5 12zM169.5 714q16.5 0 28.5 -12t12 -29t-12 -28.5t-28.5 -11.5t-28.5 11.5t-12 28.5t12 29t28.5 12zM408 499l130 7q7 0 7 -7v-589q0 -50 -32 -79t-86 -29q-52 0 -84 27l18 36
q21 -16 52 -16t49 17t18 49v528q0 12 -12 13l-60 3v40zM67 498l130 7q7 1 7 -6v-439q0 -12 12 -13l73 -6v-41h-222v36q0 5 6 6l55 5q12 1 12 12v383q0 13 -13 13l-60 3v40z" />
    <glyph glyph-name="Kcommaaccent" unicode="&#x136;" horiz-adv-x="746" 
d="M701 656l-73 -6l-246 -265l252 -330q3 -4 8 -5l73 -6q6 0 6 -6v-38h-135l-251 333l-116 -125v-145q0 -12 11 -13l78 -6v-44h-241v38q0 6 6 6l62 5q12 1 12 13v576q0 12 -12 13l-62 5q-6 0 -6 6v38h240v-44l-77 -6q-11 -1 -11 -13v-353l312 340q7 8 4.5 17t-12.5 10l-46 5
q-5 1 -5 6v38h229v-44zM369 -51q27 0 37 -26.5t1 -66.5q-9 -41 -31 -76l-30 9q15 31 19 55.5t-2 38.5h-2q-11 3 -18 12t-7 20q0 14 9.5 23.5t23.5 10.5z" />
    <glyph glyph-name="kcommaaccent" unicode="&#x137;" horiz-adv-x="618" 
d="M67 743l130 7q7 0 7 -7v-485l216 180q5 5 3.5 10.5t-8.5 6.5l-45 3q-6 1 -6 7v35h209v-41l-63 -6l-177 -145l198 -258q2 -3 6 -3l64 -6v-41h-110q-4 0 -7 4l-193 271l-87 -71v-145q0 -11 12 -12l65 -6v-41h-211v36q0 5 6 6l52 4q12 1 12 13v628q0 12 -13 13l-60 3v40z
M305 -51q27 0 37 -26.5t1 -66.5q-9 -41 -31 -76l-30 9q14 31 18.5 55.5t-1.5 38.5h-2q-11 3 -18 12t-7 20q0 14 9.5 23.5t23.5 10.5z" />
    <glyph glyph-name="Lacute" unicode="&#x139;" horiz-adv-x="570" 
d="M307 772h-60l103 149h80zM308 656l-78 -6q-11 -1 -11 -13v-580h257q12 0 13 12l6 77h42v-139q0 -7 -6 -7h-464v38q0 6 6 6l62 5q12 1 12 13v576q0 12 -12 13l-62 5q-6 0 -6 6v38h241v-44z" />
    <glyph glyph-name="lacute" unicode="&#x13a;" horiz-adv-x="341" 
d="M193 814h-60l102 149h80zM67 743l130 7q7 0 7 -7v-683q0 -12 12 -13l73 -6v-41h-219v36q0 5 6 6l52 4q12 1 12 13v628q0 12 -13 13l-60 3v40z" />
    <glyph glyph-name="Lcommaaccent" unicode="&#x13b;" horiz-adv-x="570" 
d="M308 656l-78 -6q-11 -1 -11 -13v-580h257q12 0 13 12l6 77h42v-139q0 -7 -6 -7h-464v38q0 6 6 6l62 5q12 1 12 13v576q0 12 -12 13l-62 5q-6 0 -6 6v38h241v-44zM281 -51q27 0 37 -26.5t1 -66.5q-9 -41 -31 -76l-30 9q15 30 19 55t-2 39h-2q-11 3 -18 12t-7 20
q0 14 9.5 23.5t23.5 10.5z" />
    <glyph glyph-name="lcommaaccent" unicode="&#x13c;" horiz-adv-x="341" 
d="M67 743l130 7q7 0 7 -7v-683q0 -12 12 -13l73 -6v-41h-219v36q0 5 6 6l52 4q12 1 12 13v628q0 12 -13 13l-60 3v40zM167 -51q26 0 36 -26.5t1 -66.5q-8 -41 -31 -76l-29 9q14 31 18.5 55.5t-2.5 38.5h-2q-11 3 -18 12t-7 20q0 14 9.5 23.5t24.5 10.5z" />
    <glyph glyph-name="Lcaron" unicode="&#x13d;" horiz-adv-x="576" 
d="M454 710q27 0 37 -27t1 -67t-31 -75l-30 9q14 30 19 55q4 24 -2 39h-2q-7 2 -13 6.5t-9 11t-3 14.5q0 9 4 16.5t12 12.5t17 5zM308 656l-78 -6q-11 -1 -11 -13v-580h257q12 0 13 12l6 77h42v-139q0 -7 -6 -7h-464v38q0 6 6 6l62 5q12 1 12 13v576q0 12 -12 13l-62 5
q-6 0 -6 6v38h241v-44z" />
    <glyph glyph-name="lcaron" unicode="&#x13e;" horiz-adv-x="401" 
d="M67 743l130 7q7 0 7 -7v-683q0 -12 12 -13l73 -6v-41h-219v36q0 5 6 6l52 4q12 1 12 13v628q0 12 -13 13l-60 3v40zM342 739q27 0 36.5 -27t1.5 -67q-9 -40 -32 -75l-29 9q14 29 19 55q4 24 -2 39h-2q-11 2 -18.5 11t-7.5 21q0 13 10 23t24 11z" />
    <glyph glyph-name="Ldot" unicode="&#x13f;" horiz-adv-x="570" 
d="M308 656l-78 -6q-11 -1 -11 -13v-580h257q12 0 13 12l6 77h42v-139q0 -7 -6 -7h-464v38q0 6 6 6l62 5q12 1 12 13v576q0 12 -12 13l-62 5q-6 0 -6 6v38h241v-44zM468 418q17 0 29 -12t12 -28t-12 -28t-29 -12t-28.5 12t-11.5 28t11.5 28t28.5 12z" />
    <glyph glyph-name="ldot" unicode="&#x140;" horiz-adv-x="418" 
d="M67 743l130 7q7 0 7 -7v-683q0 -12 12 -13l73 -6v-41h-219v36q0 5 6 6l52 4q12 1 12 13v628q0 12 -13 13l-60 3v40zM353 418q17 0 29 -12t12 -28t-12 -28t-29 -12q-11 0 -20.5 5.5t-14.5 15t-5 19.5q0 8 3 15.5t8.5 13t13 8.5t15.5 3z" />
    <glyph glyph-name="Lslash" unicode="&#x141;" horiz-adv-x="586" 
d="M553 146v-139q0 -7 -7 -7h-463v38q0 6 6 6l62 5q12 1 12 13v256l-117 -78v66l117 78v254q0 12 -12 13l-62 5q-6 0 -6 6v38h241v-44l-78 -6q-12 -1 -12 -13v-206l164 110v-66l-164 -110v-308h257q12 0 13 12l6 77h43z" />
    <glyph glyph-name="lslash" unicode="&#x142;" horiz-adv-x="382" 
d="M223 400v-340q0 -12 12 -13l73 -6v-41h-219v36q0 5 5 6l53 4q11 1 11 13v298l-114 -77v63l114 76v268q0 12 -12 13l-60 3v40l130 7q7 0 7 -7v-280l120 80v-63z" />
    <glyph glyph-name="Nacute" unicode="&#x143;" horiz-adv-x="848" 
d="M446 772h-60l103 149h79zM785 656l-68 -5q-12 -1 -12 -13v-638h-66l-430 582v-519q0 -12 12 -13l74 -6v-44h-233v38q0 6 6 6l63 5q12 1 12 13v576q0 12 -12 13l-63 5q-6 0 -6 6v38h142l435 -588v525q0 12 -12 13l-68 6q-6 0 -6 6v38h232v-44z" />
    <glyph glyph-name="nacute" unicode="&#x144;" horiz-adv-x="700" 
d="M371 572h-60l103 149h80zM415 510q69 0 110.5 -41t41.5 -123v-286q0 -12 11 -13l70 -6v-41h-140q-6 0 -6 7v329q0 65 -30 95t-83 30q-85 0 -191 -66v-335q0 -12 12 -13l70 -6v-41h-219v36q0 5 6 6l55 5q11 1 11 12v383q0 13 -12 13l-60 3v40l130 7q7 1 7 -6v-65
q117 75 217 76z" />
    <glyph glyph-name="Ncommaaccent" unicode="&#x145;" horiz-adv-x="848" 
d="M785 656l-68 -5q-12 -1 -12 -13v-638h-66l-430 582v-519q0 -12 12 -13l74 -6v-44h-233v38q0 6 6 6l63 5q12 1 12 13v576q0 12 -12 13l-63 5q-6 0 -6 6v38h142l435 -588v525q0 12 -12 13l-68 6q-6 0 -6 6v38h232v-44zM420 -51q27 0 37 -26.5t1 -66.5q-9 -41 -31 -76l-30 9
q14 31 18.5 55.5t-1.5 38.5h-2q-11 3 -18.5 12t-7.5 20q0 14 10 23.5t24 10.5z" />
    <glyph glyph-name="ncommaaccent" unicode="&#x146;" horiz-adv-x="700" 
d="M415 510q69 0 110.5 -41t41.5 -123v-286q0 -12 11 -13l70 -6v-41h-140q-6 0 -6 7v329q0 65 -30 95t-83 30q-85 0 -191 -66v-335q0 -12 12 -13l70 -6v-41h-219v36q0 5 6 6l55 5q11 1 11 12v383q0 13 -12 13l-60 3v40l130 7q7 1 7 -6v-65q117 76 217 76zM345 -51
q27 0 37 -26.5t1 -66.5q-9 -41 -31 -76l-30 9q15 30 19 55t-2 39h-2q-11 3 -18 12t-7 20q0 14 9.5 23.5t23.5 10.5z" />
    <glyph glyph-name="Ncaron" unicode="&#x147;" horiz-adv-x="848" 
d="M466 772h-83l-106 149h60l87 -111l87 111h60zM785 656l-68 -5q-12 -1 -12 -13v-638h-66l-430 582v-519q0 -12 12 -13l74 -6v-44h-233v38q0 6 6 6l63 5q12 1 12 13v576q0 12 -12 13l-63 5q-6 0 -6 6v38h142l435 -588v525q0 12 -12 13l-68 6q-6 0 -6 6v38h232v-44z" />
    <glyph glyph-name="ncaron" unicode="&#x148;" horiz-adv-x="700" 
d="M391 572h-83l-106 149h61l87 -111l87 111h59zM415 510q69 0 110.5 -41t41.5 -123v-286q0 -12 11 -13l70 -6v-41h-140q-6 0 -6 7v329q0 65 -30 95t-83 30q-85 0 -191 -66v-335q0 -12 12 -13l70 -6v-41h-219v36q0 5 6 6l55 5q11 1 11 12v383q0 13 -12 13l-60 3v40l130 7
q7 1 7 -6v-65q117 76 217 76z" />
    <glyph glyph-name="Eng" unicode="&#x14a;" horiz-adv-x="853" 
d="M785 656l-67 -5q-12 -1 -12 -13v-601q0 -60 -21.5 -108.5t-62.5 -83t-98 -50.5l-16 40q54 19 87.5 62.5t41.5 105.5l-428 579v-519q0 -12 12 -13l74 -6v-44h-233v38q0 6 6 6l63 5q12 1 12 13v576q0 12 -12 13l-63 5q-6 0 -6 6v38h142l435 -588v525q0 12 -12 13l-68 6
q-6 0 -6 6v38h232v-44z" />
    <glyph glyph-name="eng" unicode="&#x14b;" horiz-adv-x="690" 
d="M415 510q69 0 110.5 -41t41.5 -123v-436q0 -33 -14.5 -57.5t-41.5 -37.5t-63 -13q-51 0 -84 27l19 36q20 -16 51 -16t49.5 17t18.5 49v421q0 65 -30 95t-83 30q-85 0 -191 -66v-335q0 -12 12 -13l70 -6v-41h-219v36q0 5 6 6l55 5q11 1 11 12v383q0 13 -12 13l-60 3v40
l130 7q7 1 7 -6v-65q117 76 217 76z" />
    <glyph glyph-name="Omacron" unicode="&#x14c;" horiz-adv-x="781" 
d="M531 801h-281v49h281v-49zM390.5 709q152.5 0 246 -99.5t93.5 -259.5t-93.5 -259.5t-246 -99.5t-245.5 99.5t-93 259.5t93 259.5t245.5 99.5zM390.5 652q-120.5 0 -192.5 -81.5t-72 -220.5t72 -221t192.5 -82t192.5 82t72 221t-72 220.5t-192.5 81.5z" />
    <glyph glyph-name="omacron" unicode="&#x14d;" 
d="M441 601h-282v49h282v-49zM300 510q113 0 181.5 -72t68.5 -187.5t-68.5 -188t-181.5 -72.5t-181.5 72.5t-68.5 187.5q0 76 30.5 135t87.5 92t132 33zM300 462q-83 0 -133.5 -57t-50.5 -155q0 -65 23.5 -113t65 -73t95.5 -25q83 0 133.5 57t50.5 154.5t-50.5 154.5
t-133.5 57z" />
    <glyph glyph-name="Ohungarumlaut" unicode="&#x150;" horiz-adv-x="781" 
d="M339 772h-60l97 149h80zM490 772h-60l97 149h80zM390.5 709q152.5 0 246 -99.5t93.5 -259.5t-93.5 -259.5t-246 -99.5t-245.5 99.5t-93 259.5t93 259.5t245.5 99.5zM390.5 652q-120.5 0 -192.5 -81.5t-72 -220.5t72 -221t192.5 -82t192.5 82t72 221t-72 220.5
t-192.5 81.5z" />
    <glyph glyph-name="ohungarumlaut" unicode="&#x151;" 
d="M249 572h-60l97 149h79zM400 572h-60l97 149h79zM300 510q75 0 132 -33t87.5 -92t30.5 -135q0 -115 -68.5 -187.5t-181.5 -72.5t-181.5 72.5t-68.5 187.5q0 57 18 105t50 82.5t79 53.5t103 19zM300 462q-83 0 -133.5 -57t-50.5 -154.5t50.5 -154.5t133.5 -57t133.5 57
t50.5 154.5t-50.5 154.5t-133.5 57z" />
    <glyph glyph-name="OE" unicode="&#x152;" horiz-adv-x="1092" 
d="M391 709q91 0 160 -42.5t104 -118.5v152h377q7 0 7 -7v-139h-43l-6 77q-1 12 -13 12h-250v-260h229v-54h-229v-272h269q12 0 13 12l6 77h43v-139q0 -7 -7 -7h-396v151q-35 -75 -104 -117.5t-160 -42.5q-153 0 -246 99.5t-93 259.5t93 259.5t246 99.5zM390.5 652
q-120.5 0 -192.5 -81.5t-72 -220.5t72 -221t192.5 -82t192.5 82t72 221t-72 220.5t-192.5 81.5z" />
    <glyph glyph-name="oe" unicode="&#x153;" horiz-adv-x="1005" 
d="M737 510q112 0 166.5 -65.5t56.5 -183.5v-11q0 -9 -9 -9l-376 -4q3 -92 50.5 -145.5t123.5 -53.5q97 1 163 64l23 -43q-70 -69 -189 -69q-79 0 -136 42t-81 115q-25 -73 -85 -115t-144 -42q-113 0 -181.5 72.5t-68.5 188t68.5 187.5t181.5 72q83 0 143 -41.5t85 -114.5
q23 73 78 114.5t131 41.5zM739 464q-71 0 -115 -49.5t-49 -135.5h311q7 0 6 9q-9 176 -153 176zM300 462q-83 0 -133.5 -57t-50.5 -155q0 -65 23.5 -113t65 -73t95.5 -25q83 0 133.5 57t50.5 154.5t-50.5 154.5t-133.5 57z" />
    <glyph glyph-name="Racute" unicode="&#x154;" horiz-adv-x="686" 
d="M365 772h-60l103 149h80zM67 700h303q96 0 154.5 -51.5t58.5 -135.5q0 -74 -47 -122.5t-128 -55.5l-3 -1l171 -279q3 -5 8 -6l69 -5v-44h-124q-3 0 -5 3l-185 323h-121v-263q0 -12 12 -13l78 -6v-44h-241v38q0 6 6 6l62 5q12 1 12 13v576q0 12 -12 13l-62 5q-6 0 -6 6v38
zM284 643l-66 -5v-255h154q66 0 103.5 35t37.5 95.5t-37.5 95t-103.5 34.5h-88z" />
    <glyph glyph-name="racute" unicode="&#x155;" horiz-adv-x="441" 
d="M242 572h-60l102 149h80zM362 503q25 5 49 4q6 0 6 -6v-118h-43l-4 60q-1 12 -12 11q-9 0 -23 -5q-62 -18 -137 -79v-310q0 -12 12 -13l70 -6v-41h-219v36q0 5 6 6l55 5q11 1 11 12v383q0 13 -12 13l-60 3v40l130 7q7 1 7 -6v-84q84 73 164 88z" />
    <glyph glyph-name="Rcommaaccent" unicode="&#x156;" horiz-adv-x="686" 
d="M67 700h303q96 0 154.5 -51.5t58.5 -135.5q0 -74 -47 -122.5t-128 -55.5l-3 -1l171 -279q3 -5 8 -6l69 -5v-44h-124q-3 0 -5 3l-185 323h-121v-263q0 -12 12 -13l78 -6v-44h-241v38q0 6 6 6l62 5q12 1 12 13v576q0 12 -12 13l-62 5q-6 0 -6 6v38zM284 643l-66 -5v-255
h154q66 0 103.5 35t37.5 95.5t-37.5 95t-103.5 34.5h-88zM339 -51q27 0 37 -26.5t1 -66.5q-9 -41 -31 -76l-30 9q15 31 19 55.5t-2 38.5h-2q-11 3 -18 12t-7 20q0 14 9.5 23.5t23.5 10.5z" />
    <glyph glyph-name="rcommaaccent" unicode="&#x157;" horiz-adv-x="441" 
d="M362 503q25 5 49 4q6 0 6 -6v-118h-43l-4 60q-1 12 -12 11q-9 0 -23 -5q-62 -18 -137 -79v-310q0 -12 12 -13l70 -6v-41h-219v36q0 5 6 6l55 5q11 1 11 12v383q0 13 -12 13l-60 3v40l130 7q7 1 7 -6v-84q84 73 164 88zM216 -51q27 0 36.5 -26.5t0.5 -66.5q-8 -41 -31 -76
l-29 9q14 31 18.5 55.5t-2.5 38.5h-1q-12 3 -19 12t-7 20q0 9 4.5 16.5t12 12.5t17.5 5z" />
    <glyph glyph-name="Rcaron" unicode="&#x158;" horiz-adv-x="686" 
d="M385 772h-83l-106 149h60l87 -111l87 111h60zM67 700h303q96 0 154.5 -51.5t58.5 -135.5q0 -74 -47 -122.5t-128 -55.5l-3 -1l171 -279q3 -5 8 -6l69 -5v-44h-124q-3 0 -5 3l-185 323h-121v-263q0 -12 12 -13l78 -6v-44h-241v38q0 6 6 6l62 5q12 1 12 13v576q0 12 -12 13
l-62 5q-6 0 -6 6v38zM284 643l-66 -5v-255h154q66 0 103.5 35t37.5 95.5t-37.5 95t-103.5 34.5h-88z" />
    <glyph glyph-name="rcaron" unicode="&#x159;" horiz-adv-x="441" 
d="M262 572h-84l-105 149h60l87 -111l87 111h60zM362 503q25 5 49 4q6 0 6 -6v-118h-43l-4 60q-1 12 -12 11q-9 0 -23 -5q-62 -18 -137 -79v-310q0 -12 12 -13l70 -6v-41h-219v36q0 5 6 6l55 5q11 1 11 12v383q0 13 -12 13l-60 3v40l130 7q7 1 7 -6v-84q84 73 164 88z" />
    <glyph glyph-name="Sacute" unicode="&#x15a;" horiz-adv-x="567" 
d="M305 772h-60l103 149h80zM316 710q92 1 156 -37q2 -1 2 -4v-129h-42l-7 84q0 7 -6 9q-43 21 -103 21q-78 0 -125 -30.5t-47 -79.5q0 -33 10 -52.5t42 -42t102 -57.5q88 -42 132 -73.5t60.5 -61t16.5 -72.5q0 -90 -74 -142t-192 -52q-96 0 -178 39q-3 1 -3 5l-1 128h43
l7 -80q0 -8 6 -10q57 -26 132 -26q84 0 134.5 35.5t50.5 95.5q0 31 -11 50t-42 41t-99 55q-58 29 -95 50.5t-61 40t-35.5 38.5t-15.5 39t-4 48q0 76 69.5 123t177.5 47z" />
    <glyph glyph-name="sacute" unicode="&#x15b;" horiz-adv-x="442" 
d="M243 572h-60l102 149h80zM252 510q68 0 116 -26q3 -1 3 -5v-110h-36l-6 76q-1 8 -7 10q-28 12 -67 12q-37 0 -65 -10t-43 -27.5t-15 -39.5q0 -33 19 -52.5t90 -55.5q89 -44 118 -74t29 -76q0 -65 -56 -103t-146 -38q-66 0 -127 25q-4 1 -4 5v109h36l6 -74q1 -7 7 -10
q38 -13 84 -13q63 0 100.5 25.5t37.5 68.5q0 32 -19.5 51t-88.5 54q-68 34 -99.5 57t-41.5 43.5t-10 54.5q0 55 52.5 89t132.5 34z" />
    <glyph glyph-name="Scedilla" unicode="&#x15e;" horiz-adv-x="567" 
d="M316 710q92 1 156 -37q2 -1 2 -5v-128h-42l-7 84q0 7 -6 9q-43 21 -103 21q-78 0 -125 -30.5t-47 -79.5q0 -25 4.5 -40.5t21 -33t46 -34.5t82.5 -44q88 -42 132 -73.5t60.5 -61t16.5 -72.5q0 -77 -56 -127.5t-150 -62.5l-17 -47q3 -1 8 -1.5t7 -0.5q31 -7 49.5 -28
t17.5 -48q-1 -32 -27.5 -55t-66.5 -23q-43 2 -72 24l11 33q22 -16 49 -18q23 -1 38.5 11t17.5 35q0 16 -8.5 26.5t-20 14.5t-26.5 5q-9 1 -25 -1l22 70q-9 -1 -29 -1q-93 3 -166 39q-3 1 -3 5l-1 128h43l7 -80q0 -8 6 -10q57 -26 132 -26q84 0 134.5 35.5t50.5 95.5
q0 31 -11 50t-42 41t-99 55q-58 29 -95 50.5t-61 40t-35.5 38.5t-15.5 39t-4 48q0 76 69.5 123t177.5 47z" />
    <glyph glyph-name="scedilla" unicode="&#x15f;" horiz-adv-x="442" 
d="M252 510q68 0 116 -26q3 -1 3 -5v-110h-36l-6 76q-1 8 -7 10q-28 12 -67 12q-56 0 -89.5 -21.5t-33.5 -55.5q0 -33 19 -52.5t90 -55.5q89 -44 118 -74t29 -76q0 -54 -40.5 -90.5t-108.5 -46.5l-17 -47q2 0 7.5 -0.5t7.5 -1.5q31 -7 49.5 -28t17.5 -48q-1 -32 -28 -55
t-67 -23q-42 2 -71 24l11 33q22 -16 49 -18q22 -1 38 11t17 35q0 16 -8.5 26.5t-20 14.5t-25.5 5q-10 1 -26 -1l23 70l-19 -1q-62 1 -118 25q-4 1 -4 5v109h36l6 -74q1 -7 7 -10q38 -13 84 -13q63 0 100.5 25.5t37.5 68.5q0 32 -19.5 51t-88.5 54q-68 34 -99.5 57
t-41.5 43.5t-10 54.5q0 55 52.5 89t132.5 34z" />
    <glyph glyph-name="Scaron" unicode="&#x160;" horiz-adv-x="567" 
d="M325 772h-83l-106 149h61l87 -111l87 111h60zM316 711q92 0 156 -38q2 -1 2 -4v-129h-42l-7 84q0 7 -6 9q-43 21 -103 21q-52 0 -91.5 -14t-60 -39t-20.5 -57q0 -33 10 -52.5t42 -42t102 -57.5q88 -42 132 -73.5t60.5 -61t16.5 -72.5q0 -90 -74 -142t-192 -52
q-96 0 -178 39q-3 1 -3 5l-1 128h43l7 -80q0 -7 6 -10q57 -26 132 -26q84 0 134.5 35.5t50.5 95.5q0 23 -5 38t-21.5 32t-45 34t-80.5 42q-58 29 -95 50.5t-61 40t-35.5 38.5t-15.5 39t-4 48q0 76 69.5 123t177.5 48z" />
    <glyph glyph-name="scaron" unicode="&#x161;" horiz-adv-x="442" 
d="M263 572h-84l-105 149h60l87 -111l87 111h60zM252 510q68 0 116 -26q3 -1 3 -5v-110h-36l-6 76q-1 8 -7 10q-28 12 -67 12q-56 0 -89.5 -21.5t-33.5 -55.5q0 -23 7 -37t29.5 -30t72.5 -41q89 -44 118 -74t29 -76q0 -65 -56 -103t-146 -38q-66 0 -127 25q-4 1 -4 5v109h36
l6 -74q1 -7 7 -10q38 -13 84 -13q63 0 100.5 25.5t37.5 68.5q0 32 -19.5 51t-88.5 54q-68 34 -99.5 57t-41.5 43.5t-10 54.5q0 55 52.5 89t132.5 34z" />
    <glyph glyph-name="Tcedilla" unicode="&#x162;" horiz-adv-x="644" 
d="M32 700h580q6 0 6 -7v-138h-42l-6 78q-1 12 -13 12h-199v-583q0 -12 11 -13l70 -5v-44h-97l-19 -52q3 0 8 -0.5t7 -1.5q31 -7 49.5 -28t17.5 -48q-1 -32 -27.5 -55t-67.5 -23q-42 2 -71 24l11 33q22 -16 49 -18q22 -1 38 11t17 35q0 23 -15.5 34t-38.5 12q-10 1 -25 -1
l25 78h-95v38q0 6 6 6l64 5q11 1 11 13v583h-199q-12 0 -12 -12l-6 -78h-43v138q0 7 6 7z" />
    <glyph glyph-name="tcedilla" unicode="&#x163;" horiz-adv-x="383" 
d="M167 500h138v-41l-138 -7v-352q0 -31 18.5 -48t49.5 -17q44 0 65 31l21 -30q-26 -44 -90 -47q-4 0 -12 0.5t-12 0.5l-15 -42q2 -1 7.5 -1.5t7.5 -0.5q31 -7 49.5 -28t17.5 -48q-1 -32 -28 -55t-67 -23q-42 2 -71 24l11 33q22 -16 49 -18q22 -1 38 11t17 35
q0 16 -8.5 26.5t-20 14.5t-25.5 5q-10 1 -26 -1l24 75q-31 11 -48 35.5t-17 59.5v360l-59 3q-6 0 -6 6v37l65 1v125l65 4v-128z" />
    <glyph glyph-name="Tcaron" unicode="&#x164;" horiz-adv-x="644" 
d="M364 772h-83l-106 149h60l87 -111l87 111h60zM32 700h580q6 0 6 -7v-138h-42l-6 78q-1 12 -13 12h-199v-583q0 -12 12 -13l69 -5v-44h-234v38q0 6 6 6l64 5q11 1 11 13v583h-199q-12 0 -12 -12l-6 -78h-43v138q0 7 6 7z" />
    <glyph glyph-name="tcaron" unicode="&#x165;" horiz-adv-x="382" 
d="M326 750q27 0 37 -27t1 -67t-31 -75l-30 9q14 30 19 55q4 24 -2 39h-2q-7 2 -13 6.5t-9 11t-3 14.5q0 9 4 16.5t12 12.5t17 5zM167 500h138v-41l-138 -7v-352q0 -31 18.5 -48t49.5 -17q44 0 65 31l21 -30q-29 -47 -102 -47q-54 0 -85.5 27.5t-31.5 75.5v360l-59 3
q-6 0 -6 6v37l65 1v125l65 4v-128z" />
    <glyph glyph-name="Tbar" unicode="&#x166;" horiz-adv-x="644" 
d="M618 555h-42l-6 78q-1 12 -13 12h-199v-270h105v-50h-105v-263q0 -12 12 -13l69 -5v-44h-234v38q0 6 6 6l64 5q11 1 11 13v263h-105v50h105v270h-199q-12 0 -12 -12l-6 -78h-43v138q0 7 6 7h580q6 0 6 -7v-138z" />
    <glyph glyph-name="tbar" unicode="&#x167;" horiz-adv-x="383" 
d="M300 66l21 -30q-29 -47 -102 -47q-54 0 -85.5 27.5t-31.5 75.5v187h-65v49h65v124l-59 3q-6 0 -6 6v37l65 1v125l65 4v-128h138v-41l-138 -7v-124h138v-49h-138v-179q0 -31 18.5 -48t49.5 -17q44 0 65 31z" />
    <glyph glyph-name="Utilde" unicode="&#x168;" horiz-adv-x="831" 
d="M510 870l44 -9q-4 -34 -22.5 -54t-46.5 -22q-26 -2 -64 14q-10 4 -25 11.5t-25 12t-16 4.5q-11 1 -18.5 -8t-15.5 -35l-44 12q14 70 62 74q24 2 79 -24q39 -18 57 -15q22 3 35 39zM769 656l-69 -6q-12 -1 -12 -13v-365q0 -127 -74 -204.5t-196 -77.5q-80 0 -141.5 35
t-94.5 99t-33 148v365q0 12 -12 13l-64 5q-6 1 -6 7v37h242v-43l-76 -7q-12 -1 -12 -13v-364q0 -105 55 -165t146 -60q92 0 149.5 60t57.5 165v364q0 12 -11 13l-82 7v43h233v-43z" />
    <glyph glyph-name="utilde" unicode="&#x169;" horiz-adv-x="691" 
d="M440 670l45 -9q-3 -23 -12.5 -39.5t-24.5 -25.5t-33 -11q-26 -2 -64 14q-9 4 -24 11.5t-25.5 12t-16.5 4.5q-10 1 -18 -8t-16 -35l-44 12q14 70 63 74q23 2 78 -24q39 -18 57 -15q22 3 35 39zM52 500h140q6 0 6 -7v-329q0 -65 30 -95.5t83 -30.5q85 0 191 66v336
q0 12 -12 13l-70 5v42h140q7 0 7 -7v-436q0 -12 12 -13l60 -3v-40l-130 -7q-7 0 -7 7v64q-117 -75 -217 -75q-69 0 -110.5 41t-41.5 122v287q0 12 -11 13l-70 5v42z" />
    <glyph glyph-name="Umacron" unicode="&#x16a;" horiz-adv-x="831" 
d="M556 801h-281v49h281v-49zM769 656l-69 -6q-12 -1 -12 -13v-365q0 -127 -74 -204.5t-196 -77.5q-80 0 -141.5 35t-94.5 99t-33 148v365q0 12 -12 13l-64 5q-6 1 -6 7v37h242v-43l-76 -7q-12 -1 -12 -13v-364q0 -105 55 -165t146 -60q92 0 149.5 60t57.5 165v364
q0 12 -11 13l-82 7v43h233v-43z" />
    <glyph glyph-name="umacron" unicode="&#x16b;" horiz-adv-x="691" 
d="M487 601h-282v49h282v-49zM52 500h140q6 0 6 -7v-329q0 -65 30 -95.5t83 -30.5q85 0 191 66v336q0 12 -12 13l-70 5v42h140q7 0 7 -7v-436q0 -12 12 -13l60 -3v-40l-130 -7q-7 0 -7 7v64q-117 -75 -217 -75q-69 0 -110.5 41t-41.5 122v287q0 12 -11 13l-70 5v42z" />
    <glyph glyph-name="Uring" unicode="&#x16e;" horiz-adv-x="831" 
d="M416 945q42 0 71.5 -29.5t29.5 -71.5t-29.5 -72t-71.5 -30q-28 0 -51.5 14t-37 37.5t-13.5 50.5t13.5 50.5t37 37t51.5 13.5zM415.5 909q-24.5 0 -42.5 -18.5t-18 -46.5t18 -46.5t43 -18.5q16 0 29.5 8t22 23t8.5 34q0 28 -18 46.5t-42.5 18.5zM769 656l-69 -6
q-12 -1 -12 -13v-365q0 -127 -74 -204.5t-196 -77.5q-80 0 -141.5 35t-94.5 99t-33 148v365q0 12 -12 13l-64 5q-6 1 -6 7v37h242v-43l-76 -7q-12 -1 -12 -13v-364q0 -105 55 -165t146 -60q92 0 149.5 60t57.5 165v364q0 12 -11 13l-82 7v43h233v-43z" />
    <glyph glyph-name="uring" unicode="&#x16f;" horiz-adv-x="691" 
d="M346 745q28 0 51.5 -13.5t36.5 -37t13 -50.5q0 -42 -29.5 -72t-72 -30t-72 30t-29.5 72q0 27 13.5 50.5t37 37t51.5 13.5zM346 709q-25 0 -42.5 -18.5t-17.5 -46.5t17.5 -46.5t42.5 -18.5t42.5 18.5t17.5 46.5t-17.5 46.5t-42.5 18.5zM52 500h140q6 0 6 -7v-329
q0 -65 30 -95.5t83 -30.5q85 0 191 66v336q0 12 -12 13l-70 5v42h140q7 0 7 -7v-436q0 -12 12 -13l60 -3v-40l-130 -7q-7 0 -7 7v64q-117 -75 -217 -75q-69 0 -110.5 41t-41.5 122v287q0 12 -11 13l-70 5v42z" />
    <glyph glyph-name="Uhungarumlaut" unicode="&#x170;" horiz-adv-x="831" 
d="M364 772h-60l97 149h80zM515 772h-60l97 149h80zM769 656l-69 -6q-12 -1 -12 -13v-365q0 -127 -74 -204.5t-196 -77.5q-80 0 -141.5 35t-94.5 99t-33 148v365q0 12 -12 13l-64 5q-6 1 -6 7v37h242v-43l-76 -7q-12 -1 -12 -13v-364q0 -105 55 -165t146 -60q92 0 149.5 60
t57.5 165v364q0 12 -11 13l-82 7v43h233v-43z" />
    <glyph glyph-name="uhungarumlaut" unicode="&#x171;" horiz-adv-x="691" 
d="M294 572h-60l97 149h80zM445 572h-60l97 149h80zM52 500h140q6 0 6 -7v-329q0 -65 30 -95.5t83 -30.5q85 0 191 66v336q0 12 -12 13l-70 5v42h140q7 0 7 -7v-436q0 -12 12 -13l60 -3v-40l-130 -7q-7 0 -7 7v64q-117 -75 -217 -75q-69 0 -110.5 41t-41.5 122v287
q0 12 -11 13l-70 5v42z" />
    <glyph glyph-name="Uogonek" unicode="&#x172;" horiz-adv-x="831" 
d="M309 656l-76 -7q-12 -1 -12 -12v-365q0 -105 55 -165t146 -60q92 0 149.5 60t57.5 165v364q0 12 -11 13l-82 7v43h233v-43l-69 -6q-12 -1 -12 -13v-365q0 -95 -43 -164t-119 -99q-70 -40 -70 -101q0 -19 6.5 -32.5t18 -21t27.5 -7.5q21 -1 55 17l11 -38q-42 -23 -77 -21
q-40 0 -64 24.5t-25 61.5q-2 57 45 101q-26 -2 -39 -2q-122 2 -193.5 79t-71.5 203v365q0 12 -12 13l-64 5q-6 1 -6 7v37h242v-43z" />
    <glyph glyph-name="uogonek" unicode="&#x173;" horiz-adv-x="691" 
d="M52 500h140q6 0 6 -7v-329q0 -65 30 -95.5t83 -30.5q85 0 191 66v336q0 12 -12 13l-70 5v42h140q7 0 7 -7v-436q0 -12 12 -13l60 -3v-40l-93 -5q-52 -37 -53 -90q0 -28 14.5 -44.5t38.5 -16.5q20 -1 55 17l11 -38q-43 -23 -77 -21q-40 0 -64 24.5t-25 61.5q-3 64 56 112
v64q-117 -75 -217 -75q-69 0 -110.5 41t-41.5 122v287q0 12 -11 13l-70 5v42z" />
    <glyph glyph-name="Wcircumflex" unicode="&#x174;" horiz-adv-x="1112" 
d="M703 772h-60l-87 111l-87 -111h-60l105 149h84zM1086 656l-61 -5l-197 -650l-58 -1l-217 590l-217 -589l-59 -1l-193 644q-2 7 -10 8l-42 4q-6 0 -6 6v38h121l168 -595l192 526q2 8 -1.5 13.5t-10.5 6.5l-69 6q-6 0 -6 6v37h174l208 -595l156 527q2 7 -1.5 12.5
t-10.5 5.5l-72 7q-6 0 -6 6v37h218v-44z" />
    <glyph glyph-name="wcircumflex" unicode="&#x175;" horiz-adv-x="856" 
d="M575 572h-60l-87 111l-87 -111h-60l106 149h83zM839 459l-52 -5l-166 -454h-59l-137 383l-140 -383h-59l-159 447q-2 7 -10 8l-34 3q-6 1 -6 7v35h100l144 -428l130 362q2 7 -1.5 12.5t-10.5 6.5l-64 5q-6 1 -6 7v35h144l144 -428l130 362q3 7 -1 12.5t-11 6.5l-65 6
q-6 0 -6 6v35h195v-41z" />
    <glyph glyph-name="Ycircumflex" unicode="&#x176;" horiz-adv-x="689" 
d="M491 772h-60l-87 111l-87 -111h-60l106 149h83zM663 656l-52 -4l-226 -403v-187q0 -12 12 -13l69 -5v-44h-233v38q0 6 6 6l63 5q12 1 12 13v180l-229 404q-3 5 -9 6l-44 4q-6 0 -6 6v38h108l221 -390l179 318q4 8 0 15t-13 8l-68 6q-6 0 -6 6v37h216v-44z" />
    <glyph glyph-name="ycircumflex" unicode="&#x177;" horiz-adv-x="561" 
d="M430 572h-60l-87 111l-87 -111h-60l105 149h83zM544 459l-54 -5l-258 -649q-2 -3 -6 -3h-143v41l106 8q7 0 10 8l55 137h-12l-177 452q-3 6 -10 7l-32 3q-6 1 -6 7v35h97l166 -438l148 371q2 7 -1.5 13t-11.5 7l-67 5q-5 1 -5 7v35h201v-41z" />
    <glyph glyph-name="Ydieresis" unicode="&#x178;" horiz-adv-x="689" 
d="M263 874q16 0 27 -11.5t11 -26.5t-11 -26.5t-27 -11.5t-27 11.5t-11 26.5t11 26.5t27 11.5zM425 874q8 0 15 -3t12 -8.5t8 -12.5t3 -14q0 -15 -11 -26.5t-27 -11.5t-27 11.5t-11 26.5t11 26.5t27 11.5zM663 656l-52 -4l-226 -403v-187q0 -12 12 -13l69 -5v-44h-233v38
q0 6 6 6l63 5q12 1 12 13v180l-229 404q-3 5 -9 6l-44 4q-6 0 -6 6v38h108l221 -390l179 318q4 8 0 15t-13 8l-68 6q-6 0 -6 6v37h216v-44z" />
    <glyph glyph-name="Zacute" unicode="&#x179;" horiz-adv-x="587" 
d="M315 772h-60l103 149h80zM549 658l-418 -602h361q12 0 13 12l5 74h43v-136q0 -6 -6 -6h-513v41l421 602h-335q-12 0 -13 -12l-5 -71h-43v133q0 7 6 7h484v-42z" />
    <glyph glyph-name="zacute" unicode="&#x17a;" horiz-adv-x="500" 
d="M272 572h-60l103 149h79zM436 470l-304 -428h259q12 0 12 12l6 66h36v-113q0 -7 -7 -7h-384v30l304 428h-234q-12 0 -13 -12l-5 -65h-36v112q0 7 6 7h360v-30z" />
    <glyph glyph-name="Zdotaccent" unicode="&#x17b;" horiz-adv-x="587" 
d="M293 874q16 0 27.5 -11.5t11.5 -26.5t-11.5 -26.5t-27.5 -11.5t-27 11.5t-11 26.5t11 26.5t27 11.5zM549 658l-418 -602h361q12 0 13 12l5 74h43v-136q0 -6 -6 -6h-513v41l421 602h-335q-12 0 -13 -12l-5 -71h-43v133q0 7 6 7h484v-42z" />
    <glyph glyph-name="zdotaccent" unicode="&#x17c;" horiz-adv-x="500" 
d="M250 674q16 0 27 -11.5t11 -26.5t-11 -26.5t-27 -11.5t-27 11.5t-11 26.5t11 26.5t27 11.5zM436 470l-304 -428h259q12 0 12 12l6 66h36v-113q0 -7 -7 -7h-384v30l304 428h-234q-12 0 -13 -12l-5 -65h-36v112q0 7 6 7h360v-30z" />
    <glyph glyph-name="Zcaron" unicode="&#x17d;" horiz-adv-x="587" 
d="M335 772h-83l-106 149h61l87 -111l87 111h60zM549 658l-418 -602h361q12 0 13 12l5 74h43v-136q0 -6 -6 -6h-513v41l421 602h-335q-12 0 -13 -12l-5 -71h-43v133q0 7 6 7h484v-42z" />
    <glyph glyph-name="zcaron" unicode="&#x17e;" horiz-adv-x="500" 
d="M292 572h-83l-106 149h60l87 -111l87 111h60zM436 470l-304 -428h259q12 0 12 12l6 66h36v-113q0 -7 -7 -7h-384v30l304 428h-234q-12 0 -13 -12l-5 -65h-36v112q0 7 6 7h360v-30z" />
    <glyph glyph-name="longs" unicode="&#x17f;" horiz-adv-x="416" 
d="M296 750q75 -1 137 -41l-19 -40q-56 32 -110 32q-49 0 -81 -29t-32 -83v-529q0 -12 12 -13l70 -6v-41h-208v36q0 5 6 6l44 4q11 1 11 12v394l-60 3q-7 0 -7 7v38h67v93q0 76 49 116.5t121 40.5z" />
    <glyph glyph-name="florin" unicode="&#x192;" horiz-adv-x="433" 
d="M313 750q75 -1 137 -41l-20 -40q-55 32 -109 32q-23 0 -43 -7t-36 -20.5t-25 -35t-9 -49.5v-171h145v-41l-145 -8v-459q0 -56 -41 -84q-46 -31 -108 -13l10 38q40 0 56 16q18 16 18 48v455l-60 3q-7 1 -7 7v38h67v175q0 76 49 116.5t121 40.5z" />
    <glyph glyph-name="Ohorn" unicode="&#x1a0;" horiz-adv-x="781" 
d="M684 826l53 18q32 -58 28 -113q-4 -48 -35 -77t-83 -30q-13 -1 -27 1q53 -48 81.5 -118.5t28.5 -156.5q0 -160 -93.5 -259.5t-246 -99.5t-245.5 99.5t-93 259.5t93 259.5t246 99.5q88 0 158 -37q32 -15 67 -15q85 -1 92 72q4 45 -24 97zM390.5 652q-120.5 0 -192.5 -81.5
t-72 -220.5t72 -221t193 -82q79 0 139 36.5t92.5 105.5t32.5 161q0 139 -72 220.5t-192.5 81.5z" />
    <glyph glyph-name="ohorn" unicode="&#x1a1;" 
d="M535 626l46 16q32 -59 28 -113q-3 -47 -33 -75.5t-82 -30.5q56 -69 56 -173q0 -115 -68.5 -187.5t-181.5 -72.5t-181.5 72.5t-68.5 188t68.5 187.5t181.5 72q96 0 161 -54q8 -1 16 0q36 2 56.5 21t24.5 51q6 45 -23 98zM300 462q-83 0 -133.5 -57t-50.5 -154.5
t50.5 -154.5t133.5 -57t133.5 57t50.5 154q0 65 -23 113t-64.5 73.5t-96.5 25.5z" />
    <glyph glyph-name="Uhorn" unicode="&#x1af;" horiz-adv-x="835" 
d="M749 828l38 19q35 -26 48 -62q12 -30 0 -62t-47 -49q-20 -10 -44 -12l-45 -4q-11 -2 -11 -13v-373q0 -83 -33 -147t-94.5 -99t-142.5 -35q-121 0 -195 77.5t-74 203.5v366q0 12 -12 12l-64 6q-6 0 -6 6v38h242v-44l-76 -6q-12 -1 -12 -13v-365q0 -105 55 -165t146 -60
q92 0 149.5 60.5t57.5 164.5v365q0 11 -11 12l-82 7v44h201q11 2 22 7q21 11 28 31t-1 41q-10 29 -37 49z" />
    <glyph glyph-name="uhorn" unicode="&#x1b0;" horiz-adv-x="691" 
d="M587 637l37 17q39 -29 49 -72q7 -33 -7 -61.5t-49 -43.5q-23 -10 -50 -10v-410q0 -12 12 -13l60 -3v-40l-130 -7q-7 0 -7 7v64q-117 -75 -217 -75q-69 0 -110.5 41t-41.5 122v287q0 12 -11 13l-70 5v42h140q6 0 6 -7v-329q0 -65 30 -95.5t83 -30.5q85 0 191 66v336
q0 12 -12 13l-70 5v42l125 -1q25 -1 46 9q12 6 20 14t12 17t5 20t-2 22q-9 31 -39 56z" />
    <glyph glyph-name="DZcaron" unicode="&#x1c4;" horiz-adv-x="1341" 
d="M1089 772h-83l-106 149h61l87 -111l87 111h60zM67 700h296q154 0 246.5 -95.5t92.5 -254.5t-92.5 -254.5t-246.5 -95.5h-296v38q0 6 6 6l62 5q12 1 12 13v576q0 12 -12 13l-62 5q-6 0 -6 6v38zM1303 658l-418 -602h361q12 0 13 12l5 74h43v-136q0 -6 -6 -6h-513v41
l421 602h-335q-12 0 -13 -12l-5 -71h-43v133q0 7 6 7h484v-42zM283 643l-64 -5v-576l64 -5h80q122 0 193.5 77.5t71.5 215.5t-71.5 215.5t-193.5 77.5h-80z" />
    <glyph glyph-name="Dzcaron" unicode="&#x1c5;" horiz-adv-x="1254" 
d="M1046 572h-83l-106 149h60l87 -111l87 111h60zM67 700h296q154 0 246.5 -95.5t92.5 -254.5t-92.5 -254.5t-246.5 -95.5h-296v38q0 6 6 6l62 5q12 1 12 13v576q0 12 -12 13l-62 5q-6 0 -6 6v38zM283 643l-64 -5v-576l64 -5h80q122 0 193.5 77.5t71.5 215.5t-71.5 215.5
t-193.5 77.5h-80zM1190 470l-304 -428h259q12 0 13 12l5 66h36v-113q0 -7 -7 -7h-384v30l304 428h-234q-12 0 -13 -12l-5 -65h-36v112q0 7 7 7h359v-30z" />
    <glyph glyph-name="dzcaron" unicode="&#x1c6;" horiz-adv-x="1143" 
d="M367 743l130 7q7 0 7 -7v-684q0 -11 11 -12l67 -6v-41h-129q-6 0 -6 6l-3 57q-63 -73 -167 -73q-102 0 -164.5 69.5t-62.5 191.5q0 71 24 128.5t76 94t125 36.5q102 0 164 -69v246q0 12 -12 13l-60 3v40zM935 572h-83l-106 149h60l87 -111l87 111h60zM1079 470l-304 -428
h259q12 0 13 12l5 66h36v-113q0 -7 -7 -7h-384v30l304 428h-234q-12 0 -13 -12l-5 -65h-36v112q0 7 7 7h359v-30zM295 462q-54 0 -94.5 -25.5t-62.5 -73.5t-22 -112q0 -97 50.5 -154t133.5 -57q90 0 139 67v279q-50 76 -144 76z" />
    <glyph glyph-name="LJ" unicode="&#x1c7;" horiz-adv-x="946" 
d="M308 656l-78 -6q-11 -1 -11 -13v-580h257q12 0 13 12l6 77h42v-139q0 -7 -6 -7h-464v38q0 6 6 6l62 5q12 1 12 13v576q0 12 -12 13l-62 5q-6 0 -6 6v38h241v-44zM878 656l-67 -5q-12 -1 -12 -13v-601q0 -92 -49.5 -156t-137.5 -87l-16 41q61 21 96 74.5t35 127.5v600
q0 12 -12 13l-72 6q-6 0 -6 6v38h241v-44z" />
    <glyph glyph-name="Lj" unicode="&#x1c8;" horiz-adv-x="836" 
d="M731 714q16 0 28 -12t12 -28.5t-12 -28.5t-28.5 -12t-28.5 12t-12 28q0 11 5.5 20.5t15 15t20.5 5.5zM308 656l-78 -6q-11 -1 -11 -13v-580h257q12 0 13 12l6 77h42v-139q0 -7 -6 -7h-464v38q0 6 6 6l62 5q12 1 12 13v576q0 12 -12 13l-62 5q-6 0 -6 6v38h241v-44z
M628 499l131 7q7 0 7 -7v-589q0 -50 -32 -79t-87 -29q-51 0 -84 27l19 36q20 -16 51 -16t49.5 17t18.5 49v528q0 12 -12 13l-61 3v40z" />
    <glyph glyph-name="lj" unicode="&#x1c9;" horiz-adv-x="607" 
d="M67 743l130 7q7 0 7 -7v-683q0 -12 12 -13l73 -6v-41h-219v36q0 5 6 6l52 4q12 1 12 13v628q0 12 -13 13l-60 3v40zM502 714q11 0 20 -5.5t14.5 -15t5.5 -20.5q0 -16 -12 -28t-28.5 -12t-28.5 12t-12 28.5t12 28.5t29 12zM399 499l131 7q7 0 7 -7v-589q0 -50 -32 -79
t-87 -29q-51 0 -84 27l19 36q20 -16 51 -16t49.5 17t18.5 49v528q0 12 -13 13l-60 3v40z" />
    <glyph glyph-name="NJ" unicode="&#x1ca;" horiz-adv-x="1223" 
d="M785 656l-68 -5q-12 -1 -12 -13v-638h-66l-430 582v-519q0 -12 12 -13l74 -6v-44h-233v38q0 6 6 6l63 5q12 1 12 13v576q0 12 -12 13l-63 5q-6 0 -6 6v38h142l435 -588v525q0 12 -12 13l-68 6q-6 0 -6 6v38h232v-44zM1156 656l-68 -5q-11 -1 -11 -13v-601q0 -92 -50 -156
t-138 -87l-16 41q61 21 96 74.5t35 127.5v600q0 12 -12 13l-71 6q-6 0 -6 6v38h241v-44z" />
    <glyph glyph-name="Nj" unicode="&#x1cb;" horiz-adv-x="1114" 
d="M1008 714q17 0 28.5 -12t11.5 -28.5t-11.5 -28.5t-28.5 -12t-29 12t-12 28.5t12 28.5t29 12zM785 656l-68 -5q-12 -1 -12 -13v-638h-66l-430 582v-519q0 -12 12 -13l74 -6v-44h-233v38q0 6 6 6l63 5q12 1 12 13v576q0 12 -12 13l-63 5q-6 0 -6 6v38h142l435 -588v525
q0 12 -12 13l-68 6q-6 0 -6 6v38h232v-44zM906 499l130 7q7 0 7 -7v-589q0 -50 -32 -79t-86 -29q-52 0 -84 27l18 36q21 -16 52 -16t49 17t18 49v528q0 12 -12 13l-60 3v40z" />
    <glyph glyph-name="nj" unicode="&#x1cc;" horiz-adv-x="966" 
d="M860 714q17 0 29 -12t12 -28.5t-12 -28.5t-29 -12t-29 12t-12 28.5t12 28.5t29 12zM415 510q69 0 110.5 -41t41.5 -123v-286q0 -12 11 -13l70 -6v-41h-140q-6 0 -6 7v329q0 65 -30 95t-83 30q-85 0 -191 -66v-335q0 -12 12 -13l70 -6v-41h-219v36q0 5 6 6l55 5
q11 1 11 12v383q0 13 -12 13l-60 3v40l130 7q7 1 7 -6v-65q117 76 217 76zM758 499l130 7q7 0 7 -7v-589q0 -50 -32 -79t-86 -29q-52 0 -84 27l18 36q21 -16 52 -16t49 17t18 49v528q0 12 -12 13l-60 3v40z" />
    <glyph glyph-name="Acaron" unicode="&#x1cd;" horiz-adv-x="771" 
d="M428 772h-84l-105 149h60l87 -111l87 111h60zM688 49l57 -5v-44h-229v37q0 6 5 6l68 6q8 1 11.5 7t1.5 13l-59 142h-331l-65 -160l88 -7v-44h-209v38q0 6 6 6l45 4q7 1 9 7l264 643l67 3zM234 268h288l-144 352z" />
    <glyph glyph-name="acaron" unicode="&#x1ce;" horiz-adv-x="564" 
d="M303 572h-84l-105 149h60l87 -111l87 111h60zM256 509q77 1 127 -41t50 -131v-278q0 -11 12 -12l66 -6v-41h-129q-6 0 -6 6l-3 57q-63 -73 -167 -73q-71 0 -114 37.5t-43 97.5q0 57 38 86t128 53l153 41v33q0 65 -32.5 94.5t-85.5 28.5q-59 0 -117 -30q-6 -3 -6 -10
l-7 -77h-36v112q0 3 2 4q35 22 80.5 35.5t89.5 13.5zM368 263l-138 -37q-66 -18 -91 -37t-25 -59q0 -27 13.5 -48t39 -32t59.5 -11q88 0 139 67l3 4v153z" />
    <glyph glyph-name="Icaron" unicode="&#x1cf;" horiz-adv-x="368" 
d="M226 772h-83l-106 149h60l87 -111l87 111h60zM301 656l-70 -5q-11 -1 -11 -13v-576q0 -12 11 -13l70 -5v-44h-234v38q0 6 6 6l64 5q11 1 11 13v576q0 12 -11 13l-64 5q-6 0 -6 6v38h234v-44z" />
    <glyph glyph-name="icaron" unicode="&#x1d0;" horiz-adv-x="351" 
d="M209 572h-83l-106 149h60l87 -111l87 111h60zM67 498l130 7q7 1 7 -6v-439q0 -12 12 -13l73 -6v-41h-222v36q0 5 6 6l55 5q12 1 12 12v383q0 13 -13 13l-60 3v40z" />
    <glyph glyph-name="Ocaron" unicode="&#x1d1;" horiz-adv-x="781" 
d="M432 772h-83l-106 149h61l87 -111l87 111h60zM390.5 709q152.5 0 246 -99.5t93.5 -259.5t-93.5 -259.5t-246 -99.5t-245.5 99.5t-93 259.5t93 259.5t245.5 99.5zM390.5 652q-120.5 0 -192.5 -81.5t-72 -220.5t72 -221t192.5 -82t192.5 82t72 221t-72 220.5t-192.5 81.5z
" />
    <glyph glyph-name="ocaron" unicode="&#x1d2;" 
d="M342 572h-83l-106 149h60l87 -111l87 111h60zM300 510q75 0 132 -33t87.5 -92t30.5 -135q0 -115 -68.5 -187.5t-181.5 -72.5t-181.5 72.5t-68.5 188t68.5 187.5t181.5 72zM300 462q-83 0 -133.5 -57t-50.5 -154.5t50.5 -154.5t133.5 -57t133.5 57t50.5 154.5t-50.5 154.5
t-133.5 57z" />
    <glyph glyph-name="Ucaron" unicode="&#x1d3;" horiz-adv-x="831" 
d="M457 772h-83l-105 149h60l87 -111l87 111h60zM769 656l-69 -6q-12 -1 -12 -13v-365q0 -127 -74 -204.5t-196 -77.5q-80 0 -141.5 35t-94.5 99t-33 148v365q0 12 -12 13l-64 5q-6 1 -6 7v37h242v-43l-76 -7q-12 -1 -12 -13v-364q0 -105 55 -165t146 -60q92 0 149.5 60
t57.5 165v364q0 12 -11 13l-82 7v43h233v-43z" />
    <glyph glyph-name="ucaron" unicode="&#x1d4;" horiz-adv-x="691" 
d="M388 572h-84l-105 149h60l87 -111l87 111h60zM52 500h140q6 0 6 -7v-329q0 -65 30 -95.5t83 -30.5q85 0 191 66v336q0 12 -12 13l-70 5v42h140q7 0 7 -7v-436q0 -12 12 -13l60 -3v-40l-130 -7q-7 0 -7 7v64q-117 -75 -217 -75q-69 0 -110.5 41t-41.5 122v287q0 12 -11 13
l-70 5v42z" />
    <glyph glyph-name="Udieresismacron" unicode="&#x1d5;" horiz-adv-x="831" 
d="M556 972h-281v49h281v-49zM335 874q7 0 14.5 -3t12.5 -8.5t8 -12.5t3 -14q0 -15 -11 -26.5t-27 -11.5t-27.5 11.5t-11.5 26.5t11.5 26.5t27.5 11.5zM496.5 874q16.5 0 27.5 -11.5t11 -26.5t-11 -26.5t-27.5 -11.5t-27.5 11.5t-11 26.5t11 26.5t27.5 11.5zM769 656l-69 -6
q-12 -1 -12 -13v-365q0 -127 -74 -204.5t-196 -77.5q-80 0 -141.5 35t-94.5 99t-33 148v365q0 12 -12 13l-64 5q-6 1 -6 7v37h242v-43l-76 -7q-12 -1 -12 -13v-364q0 -105 55 -165t146 -60q92 0 149.5 60t57.5 165v364q0 12 -11 13l-82 7v43h233v-43z" />
    <glyph glyph-name="udieresismacron" unicode="&#x1d6;" horiz-adv-x="691" 
d="M487 747h-282v49h282v-49zM265 674q8 0 15 -3t12 -8.5t8 -12.5t3 -14q0 -15 -11 -26.5t-27 -11.5t-27 11.5t-11 26.5t11 26.5t27 11.5zM427 674q16 0 27 -11.5t11 -26.5t-11 -26.5t-27 -11.5t-27 11.5t-11 26.5t11 26.5t27 11.5zM52 500h140q6 0 6 -7v-329
q0 -65 30 -95.5t83 -30.5q85 0 191 66v336q0 12 -12 13l-70 5v42h140q7 0 7 -7v-436q0 -12 12 -13l60 -3v-40l-130 -7q-7 0 -7 7v64q-117 -75 -217 -75q-69 0 -110.5 41t-41.5 122v287q0 12 -11 13l-70 5v42z" />
    <glyph glyph-name="Udieresisacute" unicode="&#x1d7;" horiz-adv-x="831" 
d="M438 928h-61l103 148h80zM335 874q7 0 14.5 -3t12.5 -8.5t8 -12.5t3 -14q0 -15 -11 -26.5t-27.5 -11.5t-27.5 11.5t-11 26.5t11 26.5t28 11.5zM496.5 874q16.5 0 27.5 -11.5t11 -26.5t-11 -26.5t-27.5 -11.5t-27.5 11.5t-11 26.5t11 26.5t27.5 11.5zM769 656l-69 -6
q-12 -1 -12 -13v-365q0 -127 -74 -204.5t-196 -77.5q-60 0 -110.5 20.5t-85 57t-54 89t-19.5 115.5v365q0 12 -12 13l-64 5q-6 1 -6 7v37h242v-43l-76 -7q-12 -1 -12 -13v-364q0 -105 55 -165t146 -60q92 0 149.5 60t57.5 165v364q0 12 -11 13l-82 7v43h233v-43z" />
    <glyph glyph-name="udieresisacute" unicode="&#x1d8;" horiz-adv-x="691" 
d="M368 714h-60l102 149h80zM265 674q8 0 15 -3t12 -8.5t8 -12.5t3 -14q0 -15 -11 -26.5t-27 -11.5t-27 11.5t-11 26.5t11 26.5t27 11.5zM427 674q16 0 27 -11.5t11 -26.5t-11 -26.5t-27 -11.5t-27 11.5t-11 26.5t11 26.5t27 11.5zM52 500h140q6 0 6 -7v-329q0 -65 30 -95.5
t83 -30.5q85 0 191 66v336q0 12 -12 13l-70 5v42h140q7 0 7 -7v-436q0 -12 12 -13l60 -3v-40l-130 -7q-7 0 -7 7v64q-117 -75 -217 -75q-69 0 -110.5 41t-41.5 122v287q0 12 -11 13l-70 5v42z" />
    <glyph glyph-name="Udieresiscaron" unicode="&#x1d9;" horiz-adv-x="831" 
d="M457 928h-83l-105 148h60l87 -111l87 111h60zM335 874q7 0 14.5 -3t12.5 -8.5t8 -12.5t3 -14q0 -15 -11 -26.5t-27 -11.5t-27.5 11.5t-11.5 26.5t11.5 26.5t27.5 11.5zM496.5 874q16.5 0 27.5 -11.5t11 -26.5t-11 -26.5t-27.5 -11.5t-27.5 11.5t-11 26.5t11 26.5
t27.5 11.5zM769 656l-69 -6q-12 -1 -12 -13v-365q0 -127 -74 -204.5t-196 -77.5q-80 0 -141.5 35t-94.5 99t-33 148v365q0 12 -12 13l-64 5q-6 1 -6 7v37h242v-43l-76 -7q-12 -1 -12 -13v-364q0 -105 55 -165t146 -60q92 0 149.5 60t57.5 165v364q0 12 -11 13l-82 7v43h233
v-43z" />
    <glyph glyph-name="udieresiscaron" unicode="&#x1da;" horiz-adv-x="691" 
d="M388 714h-84l-105 149h60l87 -111l87 111h60zM265 674q8 0 15 -3t12 -8.5t8 -12.5t3 -14q0 -15 -11 -26.5t-27 -11.5t-27 11.5t-11 26.5t11 26.5t27 11.5zM427 674q16 0 27 -11.5t11 -26.5t-11 -26.5t-27 -11.5t-27 11.5t-11 26.5t11 26.5t27 11.5zM52 500h140q6 0 6 -7
v-329q0 -65 30 -95.5t83 -30.5q85 0 191 66v336q0 12 -12 13l-70 5v42h140q7 0 7 -7v-436q0 -12 12 -13l60 -3v-40l-130 -7q-7 0 -7 7v64q-117 -75 -217 -75q-69 0 -110.5 41t-41.5 122v287q0 12 -11 13l-70 5v42z" />
    <glyph glyph-name="Udieresisgrave" unicode="&#x1db;" horiz-adv-x="831" 
d="M453 928h-60l-122 148h80zM335 874q7 0 14.5 -3t12.5 -8.5t8 -12.5t3 -14q0 -15 -11 -26.5t-27.5 -11.5t-27.5 11.5t-11 26.5t11 26.5t28 11.5zM496.5 874q16.5 0 27.5 -11.5t11 -26.5t-11 -26.5t-27.5 -11.5t-27.5 11.5t-11 26.5t11 26.5t27.5 11.5zM769 656l-69 -6
q-12 -1 -12 -13v-365q0 -127 -74 -204.5t-196 -77.5q-60 0 -110.5 20.5t-85 57t-54 89t-19.5 115.5v365q0 12 -12 13l-64 5q-6 1 -6 7v37h242v-43l-76 -7q-12 -1 -12 -13v-364q0 -105 55 -165t146 -60q92 0 149.5 60t57.5 165v364q0 12 -11 13l-82 7v43h233v-43z" />
    <glyph glyph-name="udieresisgrave" unicode="&#x1dc;" horiz-adv-x="691" 
d="M384 714h-61l-122 149h80zM265 674q8 0 15 -3t12 -8.5t8 -12.5t3 -14q0 -15 -11 -26.5t-27 -11.5t-27 11.5t-11 26.5t11 26.5t27 11.5zM427 674q16 0 27 -11.5t11 -26.5t-11 -26.5t-27 -11.5t-27 11.5t-11 26.5t11 26.5t27 11.5zM52 500h140q6 0 6 -7v-329
q0 -65 30 -95.5t83 -30.5q85 0 191 66v336q0 12 -12 13l-70 5v42h140q7 0 7 -7v-436q0 -12 12 -13l60 -3v-40l-130 -7q-7 0 -7 7v64q-117 -75 -217 -75q-69 0 -110.5 41t-41.5 122v287q0 12 -11 13l-70 5v42z" />
    <glyph glyph-name="Adieresismacron" unicode="&#x1de;" horiz-adv-x="771" 
d="M527 904h-282v49h282v-49zM305 849q16 0 27 -11.5t11 -27t-11 -27t-27 -11.5t-27 11.5t-11 27t11 27t27 11.5zM467 849q16 0 27 -11.5t11 -27t-11 -27t-27 -11.5q-8 0 -15.5 3.5t-12.5 8.5t-8 12t-3 15q0 15 11.5 26.5t27.5 11.5zM688 49l57 -5v-44h-229v37q0 6 5 6l68 6
q8 1 11.5 7t1.5 13l-59 142h-331l-65 -160l88 -7v-44h-209v38q0 6 6 6l45 4q7 1 9 7l264 643l67 3zM234 268h288l-144 352z" />
    <glyph glyph-name="adieresismacron" unicode="&#x1df;" horiz-adv-x="564" 
d="M402 726h-282v49h282v-49zM179.5 674q10.5 0 19.5 -5.5t14 -14t5 -18.5q0 -15 -11 -26.5t-27 -11.5t-27 11.5t-11 26.5q0 10 5 18.5t13.5 14t19 5.5zM342 674q16 0 27 -11.5t11 -26.5t-11 -26.5t-27 -11.5t-27 11.5t-11 26.5t11 26.5t27 11.5zM256 509q77 1 127 -41
t50 -131v-278q0 -11 12 -12l66 -6v-41h-129q-6 0 -6 6l-3 57q-63 -73 -167 -73q-71 0 -114 37.5t-43 97.5q0 57 38 86t128 53l153 41v33q0 65 -32.5 94.5t-85.5 28.5q-59 0 -117 -30q-6 -3 -6 -10l-7 -77h-36v112q0 3 2 4q35 22 80.5 35.5t89.5 13.5zM368 263l-138 -37
q-66 -18 -91 -37t-25 -59q0 -42 30 -66.5t82 -24.5q88 0 139 67l3 4v153z" />
    <glyph glyph-name="Gcaron" unicode="&#x1e6;" horiz-adv-x="705" 
d="M416 772h-84l-105 149h60l87 -111l87 111h60zM392 709q114 0 224 -59q3 -2 3 -5v-128h-43l-6 83q-1 7 -7 10q-87 42 -171 42q-115 0 -190 -79t-75 -223q0 -139 72.5 -221t192.5 -82q114 0 185 73v146q0 12 -12 13l-164 8v46h233q7 0 7 -7v-326h-45l-6 61
q-85 -70 -207 -70q-149 0 -239.5 99.5t-90.5 259.5q0 86 27 155t73.5 113.5t107.5 67.5t131 23z" />
    <glyph glyph-name="gcaron" unicode="&#x1e7;" horiz-adv-x="570" 
d="M324 572h-84l-105 149h60l87 -111l87 111h60zM518 473l-104 -9q67 -40 67 -124q0 -78 -53.5 -124t-143.5 -46q-42 0 -77 11q-56 -14 -56 -48q0 -32 32.5 -45t103.5 -13q220 0 220 -147q0 -70 -63 -112t-166 -42q-67 0 -119 19t-81 53t-29 77q0 42 30 75.5t83 52.5
q-68 19 -68 71q0 50 74 76q-80 44 -80 142q0 77 53 123.5t143 46.5h234v-37zM284 468q-62 0 -97 -34t-35 -94.5t35 -94t97 -33.5q41 0 70.5 15t45.5 43.5t16 69.5q0 60 -35 94t-97 34zM240 33l-12 -3q-56 -11 -88 -39t-32 -66q0 -49 46.5 -78t124 -29t123.5 29t46 78
q0 106 -171 106q-16 0 -37 2z" />
    <glyph glyph-name="DZ" unicode="&#x1f1;" horiz-adv-x="1341" 
d="M67 700h296q154 0 246.5 -95.5t92.5 -254.5t-92.5 -254.5t-246.5 -95.5h-296v38q0 6 6 6l62 5q12 1 12 13v576q0 12 -12 13l-62 5q-6 0 -6 6v38zM1303 658l-418 -602h361q12 0 13 12l5 74h43v-136q0 -6 -6 -6h-513v41l421 602h-335q-12 0 -13 -12l-5 -71h-43v133q0 7 6 7
h484v-42zM283 643l-64 -5v-576l64 -5h80q122 0 193.5 77.5t71.5 215.5t-71.5 215.5t-193.5 77.5h-80z" />
    <glyph glyph-name="Dz" unicode="&#x1f2;" horiz-adv-x="1254" 
d="M67 700h296q154 0 246.5 -95.5t92.5 -254.5t-92.5 -254.5t-246.5 -95.5h-296v38q0 6 6 6l62 5q12 1 12 13v576q0 12 -12 13l-62 5q-6 0 -6 6v38zM283 643l-64 -5v-576l64 -5h80q122 0 193.5 77.5t71.5 215.5t-71.5 215.5t-193.5 77.5h-80zM1190 470l-304 -428h259
q12 0 13 12l5 66h36v-113q0 -7 -7 -7h-384v30l304 428h-234q-12 0 -13 -12l-5 -65h-36v112q0 7 7 7h359v-30z" />
    <glyph glyph-name="dz" unicode="&#x1f3;" horiz-adv-x="1143" 
d="M367 743l130 7q7 0 7 -7v-684q0 -11 11 -12l67 -6v-41h-129q-6 0 -6 6l-3 57q-63 -73 -167 -73q-102 0 -164.5 69.5t-62.5 191.5q0 71 24 128.5t76 94t125 36.5q102 0 164 -69v246q0 12 -12 13l-60 3v40zM1079 470l-304 -428h259q12 0 13 12l5 66h36v-113q0 -7 -7 -7
h-384v30l304 428h-234q-12 0 -13 -12l-5 -65h-36v112q0 7 7 7h359v-30zM295 462q-82 0 -130.5 -57t-48.5 -154t50.5 -154t133.5 -57q90 0 139 67v279q-50 76 -144 76z" />
    <glyph glyph-name="Oslashacute" unicode="&#x1fe;" horiz-adv-x="781" 
d="M414 772h-60l102 149h80zM557 750l-22 -69q91 -40 143 -127t52 -204q0 -160 -93.5 -259.5t-245.5 -99.5q-40 0 -77 7l-16 -48h-74l22 69q-91 40 -142.5 127t-51.5 204q0 160 93 259.5t246 99.5q39 0 76 -7l16 48h74zM126 350q0 -98 36.5 -168.5t102.5 -105.5l184 571
q-28 5 -58 5q-121 0 -193 -81.5t-72 -220.5zM391 47q120 0 192 82t72 221q0 49 -9.5 92t-27.5 77t-43.5 60.5t-58.5 43.5l-184 -570q28 -6 59 -6z" />
    <glyph glyph-name="oslashacute" unicode="&#x1ff;" 
d="M322 578h-60l102 148h80zM426 550l-19 -61q44 -18 76.5 -53t49.5 -82.5t17 -103.5q0 -115 -68.5 -187.5t-181.5 -72.5q-28 0 -54 5l-14 -45h-58l20 60q-68 29 -106 92.5t-38 147.5q0 76 30.5 135t87.5 92t132 33q28 0 54 -5l15 45h57zM116 250q0 -67 25 -116t69 -73
l129 397q-19 4 -39 4q-83 0 -133.5 -57t-50.5 -155zM300 39q83 0 133.5 57t50.5 154q0 67 -24.5 116t-68.5 74l-129 -398q18 -3 38 -3z" />
    <glyph glyph-name="Scommaaccent" unicode="&#x218;" horiz-adv-x="567" 
d="M316 710q92 1 156 -37q2 -1 2 -4v-129h-42l-7 84q0 7 -6 9q-43 21 -103 21q-78 0 -125 -30.5t-47 -79.5q0 -33 10 -52.5t42 -42t102 -57.5q88 -42 132 -73.5t60.5 -61t16.5 -72.5q0 -90 -74 -142t-192 -52q-96 0 -178 39q-3 1 -3 5l-1 128h43l7 -80q0 -8 6 -10
q57 -26 132 -26q84 0 134.5 35.5t50.5 95.5q0 31 -11 50t-42 41t-99 55q-58 29 -95 50.5t-61 40t-35.5 38.5t-15.5 39t-4 48q0 76 69.5 123t177.5 47zM280 -51q26 0 36 -26.5t1 -66.5q-9 -41 -31 -76l-30 9q15 30 19 55t-2 39h-2q-7 2 -13 6.5t-9 11.5t-3 14q0 14 9.5 23.5
t24.5 10.5z" />
    <glyph glyph-name="scommaaccent" unicode="&#x219;" horiz-adv-x="442" 
d="M252 510q68 0 116 -26q3 -1 3 -5v-110h-36l-6 76q-1 8 -7 10q-28 12 -67 12q-56 0 -89.5 -21.5t-33.5 -55.5q0 -23 7 -37t29.5 -30t72.5 -41q89 -44 118 -74t29 -76q0 -65 -56 -103t-146 -38q-66 0 -127 25q-4 1 -4 5v109h36l6 -74q1 -7 7 -10q38 -13 84 -13
q63 0 100.5 25.5t37.5 68.5q0 32 -19.5 51t-88.5 54q-68 34 -99.5 57t-41.5 43.5t-10 54.5q0 55 52.5 89t132.5 34zM217 -51q27 0 36.5 -26.5t1.5 -66.5q-9 -41 -32 -76l-29 9q14 31 18.5 55.5t-1.5 38.5h-2q-11 3 -18.5 12t-7.5 20q0 9 4.5 16.5t12.5 12.5t17 5z" />
    <glyph glyph-name="uni021A" unicode="&#x21a;" horiz-adv-x="644" 
d="M32 700h580q6 0 6 -7v-138h-42l-6 78q-1 12 -13 12h-199v-583q0 -12 12 -13l69 -5v-44h-234v38q0 6 6 6l64 5q11 1 11 13v583h-199q-12 0 -12 -12l-6 -78h-43v138q0 7 6 7zM318 -51q27 0 37 -26.5t1 -66.5q-9 -41 -31 -76l-30 9q14 30 18.5 55t-1.5 39h-2q-7 2 -13 6.5
t-9 11.5t-3 14q0 14 9.5 23.5t23.5 10.5z" />
    <glyph glyph-name="uni021B" unicode="&#x21b;" horiz-adv-x="383" 
d="M167 500h138v-41l-138 -7v-352q0 -31 18.5 -48t49.5 -17q44 0 65 31l21 -30q-29 -47 -102 -47q-54 0 -85.5 27.5t-31.5 75.5v360l-59 3q-6 0 -6 6v37l65 1v125l65 4v-128zM187 -51q27 0 37 -26.5t1 -66.5q-9 -41 -32 -76l-29 9q14 30 18.5 55t-1.5 39h-2q-11 3 -18.5 12
t-7.5 20q0 14 10 23.5t24 10.5z" />
    <glyph glyph-name="uni0228" unicode="&#x228;" horiz-adv-x="584" 
d="M67 700h457q7 0 7 -7v-139h-43l-6 77q-1 12 -13 12h-250v-260h229v-54h-229v-272h269q12 0 13 12l6 77h42v-139q0 -7 -6 -7h-231l-19 -52q3 0 8 -0.5t7 -1.5q31 -7 49.5 -28t17.5 -48q-1 -32 -27.5 -55t-67.5 -23q-42 2 -71 24l11 33q22 -16 49 -18q22 -1 38 11t17 35
q0 23 -15.5 34t-38.5 12q-10 1 -25 -1l25 78h-203v38q0 6 6 6l62 5q12 1 12 13v576q0 12 -12 13l-62 5q-6 0 -6 6v38z" />
    <glyph glyph-name="uni0229" unicode="&#x229;" horiz-adv-x="548" 
d="M280 510q112 0 166 -66t57 -183v-11q0 -9 -9 -9l-376 -4q2 -92 49.5 -145.5t123.5 -53.5q97 1 163 64l23 -43q-67 -68 -183 -69h-4l-15 -42q2 0 7 -0.5t8 -1.5q31 -7 49.5 -28t17.5 -48q-1 -32 -28 -55t-67 -23q-42 2 -71 24l11 33q22 -16 48 -18q23 -1 38.5 11t17.5 35
q0 16 -8.5 26.5t-20 14.5t-25.5 5q-10 1 -26 -1l23 72q-91 12 -145 81.5t-54 174.5q0 116 63 188t167 72zM281 464q-71 0 -115 -49.5t-48 -135.5h310q8 0 7 9q-9 176 -154 176z" />
    <glyph glyph-name="uni022A" unicode="&#x22a;" horiz-adv-x="781" 
d="M531 918h-281v49h281v-49zM309 849q16 0 27.5 -11.5t11.5 -27t-11.5 -27t-27.5 -11.5t-27 11.5t-11 27t11 27t27 11.5zM471 849q16 0 27.5 -11.5t11.5 -27t-11.5 -27t-27.5 -11.5q-8 0 -15 3.5t-12 8.5t-8 12t-3 15q0 15 11 26.5t27 11.5zM390.5 709q152.5 0 246 -99.5
t93.5 -259.5t-93.5 -259.5t-246 -99.5t-245.5 99.5t-93 259.5t93 259.5t245.5 99.5zM390.5 652q-120.5 0 -192.5 -81.5t-72 -220.5t72 -221t192.5 -82t192.5 82t72 221t-72 220.5t-192.5 81.5z" />
    <glyph glyph-name="uni022B" unicode="&#x22b;" 
d="M441 726h-282v49h282v-49zM219 674q16 0 27 -11.5t11 -26.5t-11 -26.5t-27 -11.5t-27 11.5t-11 26.5q0 10 5 18.5t14 14t19 5.5zM381 674q8 0 15 -3t12.5 -8.5t8 -12.5t2.5 -14q0 -15 -11 -26.5t-27 -11.5t-27 11.5t-11 26.5t11 26.5t27 11.5zM300 510q113 0 181.5 -72
t68.5 -187.5t-68.5 -188t-181.5 -72.5t-181.5 72.5t-68.5 187.5q0 76 30.5 135t87.5 92t132 33zM300 462q-83 0 -133.5 -57t-50.5 -155q0 -65 23.5 -113t65 -73t95.5 -25q83 0 133.5 57t50.5 154.5t-50.5 154.5t-133.5 57z" />
    <glyph glyph-name="circumflex" unicode="&#x2c6;" horiz-adv-x="383" 
d="M338 572h-60l-87 111l-87 -111h-60l106 149h83z" />
    <glyph glyph-name="caron" unicode="&#x2c7;" horiz-adv-x="383" 
d="M233 572h-83l-106 149h61l87 -111l86 111h60z" />
    <glyph glyph-name="breve" unicode="&#x2d8;" horiz-adv-x="359" 
d="M267 705h48q0 -56 -39.5 -95t-96 -39t-96 39t-39.5 95h48q0 -40 26 -66.5t62 -26.5t61.5 26.5t25.5 66.5z" />
    <glyph glyph-name="dotaccent" unicode="&#x2d9;" horiz-adv-x="165" 
d="M82 674q16 0 27.5 -11.5t11.5 -26.5t-11.5 -26.5t-27.5 -11.5t-27 11.5t-11 26.5q0 7 3 14t8 12.5t12 8.5t15 3z" />
    <glyph glyph-name="ring" unicode="&#x2da;" horiz-adv-x="292" 
d="M145.5 745q42.5 0 72 -29.5t29.5 -71.5t-29.5 -72t-72 -30t-72 30t-29.5 72t29.5 71.5t72 29.5zM146 709q-25 0 -42.5 -18.5t-17.5 -46.5t17.5 -46.5t42.5 -18.5t42.5 18.5t17.5 46.5t-17.5 46.5t-42.5 18.5z" />
    <glyph glyph-name="ogonek" unicode="&#x2db;" horiz-adv-x="255" 
d="M120 6h56q-83 -42 -84 -109q0 -28 14.5 -44t38.5 -16q22 -2 55 16l11 -38q-40 -21 -77 -21q-40 0 -64 24.5t-25 61.5q-2 35 17.5 68.5t57.5 57.5z" />
    <glyph glyph-name="tilde" unicode="&#x2dc;" horiz-adv-x="363" 
d="M276 670l44 -9q-4 -34 -23 -54t-46 -22t-65 14q-8 4 -19 9t-18.5 9t-15.5 7t-13 3q-10 1 -17.5 -8t-15.5 -35l-44 12q13 70 62 74q24 2 79 -24q39 -18 56 -15q22 3 36 39z" />
    <glyph glyph-name="hungarumlaut" unicode="&#x2dd;" horiz-adv-x="416" 
d="M104 572h-60l97 149h80zM255 572h-60l97 149h80z" />
    <glyph glyph-name="dotbelowcomb" unicode="&#x323;" horiz-adv-x="0" 
d="M82 -90q16 0 27.5 -11.5t11.5 -26.5t-11.5 -26.5t-27.5 -11.5t-27 11.5t-11 26.5t11 26.5t27 11.5z" />
    <glyph glyph-name="commaaccentcomb" unicode="&#x326;" horiz-adv-x="0" 
d="M60 -51q26 0 36 -26.5t1 -66.5q-9 -41 -31 -76l-30 9q15 31 19 55.5t-2 38.5h-2q-11 3 -18 12t-7 20q0 14 9.5 23.5t24.5 10.5z" />
    <glyph glyph-name="circumflexbelowcomb" unicode="&#x32d;" horiz-adv-x="0" 
d="M338 -205h-60l-87 111l-87 -111h-60l106 149h83z" />
    <glyph glyph-name="macronbelowcomb" unicode="&#x331;" horiz-adv-x="0" 
d="M326 -140h-282v49h282v-49z" />
    <glyph glyph-name="Delta" unicode="&#x394;" 
 />
    <glyph glyph-name="Omega" unicode="&#x3a9;" 
 />
    <glyph glyph-name="mu" unicode="&#x3bc;" 
 />
    <glyph glyph-name="pi" unicode="&#x3c0;" 
 />
    <glyph glyph-name="Bdotbelow" unicode="&#x1e04;" horiz-adv-x="658" 
d="M71 700h303q63 0 111.5 -22t75 -62t26.5 -92q0 -53 -27.5 -92.5t-75.5 -58.5q65 -19 102.5 -65.5t37.5 -112.5q0 -87 -64.5 -141t-169.5 -54h-319v38q0 6 6 6l62 5q12 1 12 13v576q0 12 -12 13l-62 5q-6 0 -6 6v38zM286 643l-64 -5v-242h153q66 0 104 33t38 91
q0 38 -17 65.5t-49 42.5t-76 15h-89zM222 339v-277l64 -5h102q76 0 119.5 38t43.5 103.5t-43.5 103t-119.5 37.5h-166zM324 -90q11 0 19.5 -5.5t13.5 -14t5 -18.5q0 -15 -11 -26.5t-27 -11.5t-27 11.5t-11 26.5t11 26.5t27 11.5z" />
    <glyph glyph-name="bdotbelow" unicode="&#x1e05;" horiz-adv-x="632" 
d="M57 743l130 7q7 0 7 -7v-300q62 67 163 67q102 0 163.5 -68.5t61.5 -184.5q0 -70 -20.5 -122.5t-57.5 -83.5t-84.5 -46t-105.5 -15q-89 0 -185 34v663q0 13 -12 13l-60 3v40zM337 462q-93 0 -143 -74v-326q65 -24 125 -24q88 0 142 52.5t54 159.5q0 98 -48.5 155
t-129.5 57zM330.5 -90q10.5 0 19 -5.5t13.5 -14t5 -18.5q0 -15 -11 -26.5t-27 -11.5t-27 11.5t-11 26.5q0 10 5 18.5t14 14t19.5 5.5z" />
    <glyph glyph-name="Ddotbelow" unicode="&#x1e0c;" horiz-adv-x="754" 
d="M67 700h296q154 0 246.5 -95.5t92.5 -254.5t-92.5 -254.5t-246.5 -95.5h-296v38q0 6 6 6l62 5q12 1 12 13v576q0 12 -12 13l-62 5q-6 0 -6 6v38zM283 643l-64 -5v-576l64 -5h80q122 0 193.5 77.5t71.5 215.5t-71.5 215.5t-193.5 77.5h-80zM365 -90q16 0 27 -11.5
t11 -26.5t-11 -26.5t-27 -11.5q-10 0 -19 5.5t-14 14t-5 18.5q0 15 11 26.5t27 11.5z" />
    <glyph glyph-name="ddotbelow" unicode="&#x1e0d;" horiz-adv-x="643" 
d="M367 743l130 7q7 0 7 -7v-684q0 -11 11 -12l67 -6v-41h-129q-6 0 -6 6l-3 57q-63 -73 -167 -73q-102 0 -164.5 69.5t-62.5 191.5q0 71 24 128.5t76 94t125 36.5q102 0 164 -69v246q0 12 -12 13l-60 3v40zM295 462q-54 0 -94.5 -25.5t-62.5 -73.5t-22 -112
q0 -97 50.5 -154t133.5 -57q90 0 139 67v279q-50 76 -144 76zM321 -90q16 0 27 -11.5t11 -26.5t-11 -26.5t-27 -11.5t-27 11.5t-11 26.5t11 26.5t27 11.5z" />
    <glyph glyph-name="Dlinebelow" unicode="&#x1e0e;" horiz-adv-x="754" 
d="M67 700h296q154 0 246.5 -95.5t92.5 -254.5t-92.5 -254.5t-246.5 -95.5h-296v38q0 6 6 6l62 5q12 1 12 13v576q0 12 -12 13l-62 5q-6 0 -6 6v38zM283 643l-64 -5v-576l64 -5h80q122 0 193.5 77.5t71.5 215.5t-71.5 215.5t-193.5 77.5h-80zM526 -140h-282v49h282v-49z" />
    <glyph glyph-name="dlinebelow" unicode="&#x1e0f;" horiz-adv-x="643" 
d="M367 743l130 7q7 0 7 -7v-684q0 -11 11 -12l67 -6v-41h-129q-6 0 -6 6l-3 57q-63 -73 -167 -73q-102 0 -164.5 69.5t-62.5 191.5q0 71 24 128.5t76 94t125 36.5q102 0 164 -69v246q0 12 -12 13l-60 3v40zM295 462q-54 0 -94.5 -25.5t-62.5 -73.5t-22 -112
q0 -97 50.5 -154t133.5 -57q90 0 139 67v279q-50 76 -144 76zM462 -140h-282v49h282v-49z" />
    <glyph glyph-name="Dcircumflexbelow" unicode="&#x1e12;" horiz-adv-x="754" 
d="M67 700h296q154 0 246.5 -95.5t92.5 -254.5t-92.5 -254.5t-246.5 -95.5h-296v38q0 6 6 6l62 5q12 1 12 13v576q0 12 -12 13l-62 5q-6 0 -6 6v38zM283 643l-64 -5v-576l64 -5h80q122 0 193.5 77.5t71.5 215.5t-71.5 215.5t-193.5 77.5h-80zM512 -205h-60l-87 111l-87 -111
h-60l106 149h83z" />
    <glyph glyph-name="dcircumflexbelow" unicode="&#x1e13;" horiz-adv-x="643" 
d="M367 743l130 7q7 0 7 -7v-684q0 -11 11 -12l67 -6v-41h-129q-6 0 -6 6l-3 57q-63 -73 -167 -73q-102 0 -164.5 69.5t-62.5 191.5q0 71 24 128.5t76 94t125 36.5q102 0 164 -69v246q0 12 -12 13l-60 3v40zM295 462q-54 0 -94.5 -25.5t-62.5 -73.5t-22 -112
q0 -97 50.5 -154t133.5 -57q90 0 139 67v279q-50 76 -144 76zM468 -205h-60l-87 111l-87 -111h-60l105 149h84z" />
    <glyph glyph-name="Hdotbelow" unicode="&#x1e24;" horiz-adv-x="858" 
d="M791 656l-68 -5q-12 -1 -12 -13v-576q0 -12 12 -13l68 -5v-44h-241v38q0 6 6 6l72 6q12 1 12 13v266h-421v-266q0 -12 11 -13l78 -6v-44h-241v38q0 6 6 6l62 5q12 1 12 13v576q0 12 -12 13l-62 5q-6 0 -6 6v38h241v-44l-78 -6q-11 -1 -11 -13v-251h421v251q0 12 -12 13
l-72 6q-6 0 -6 6v38h241v-44zM429 -90q11 0 19.5 -5.5t13.5 -14t5 -18.5q0 -15 -11 -26.5t-27 -11.5t-27 11.5t-11 26.5t11 26.5t27 11.5z" />
    <glyph glyph-name="hdotbelow" unicode="&#x1e25;" horiz-adv-x="706" 
d="M67 743l131 7q7 0 7 -7v-309q116 76 216 76q69 0 110.5 -41t41.5 -123v-286q0 -12 12 -13l69 -6v-41h-139q-7 0 -7 7v329q0 65 -30 95t-82 30q-85 0 -191 -66v-335q0 -12 11 -13l71 -6v-41h-220v36q0 5 6 6l55 5q12 1 12 12v628q0 12 -13 13l-60 3v40zM353 -90
q16 0 27.5 -11.5t11.5 -26.5t-11.5 -26.5t-27.5 -11.5t-27 11.5t-11 26.5q0 7 3 14t8 12.5t12 8.5t15 3z" />
    <glyph glyph-name="Idieresisacute" unicode="&#x1e2e;" horiz-adv-x="368" 
d="M206 887h-60l103 149h79zM103 849q11 0 19.5 -5.5t13.5 -14t5 -18.5q0 -16 -11 -27.5t-27 -11.5t-27 11.5t-11 27t11 27t27 11.5zM265 849q16 0 27 -11.5t11 -27t-11 -27t-27 -11.5t-27 11.5t-11 27t11 27t27 11.5zM301 656l-70 -5q-11 -1 -11 -13v-576q0 -12 11 -13
l70 -5v-44h-234v38q0 6 6 6l64 5q11 1 11 13v576q0 12 -11 13l-64 5q-6 0 -6 6v38h234v-44z" />
    <glyph glyph-name="idieresisacute" unicode="&#x1e2f;" horiz-adv-x="351" 
d="M189 714h-60l103 149h79zM86 674q16 0 27 -11.5t11 -26.5t-11 -26.5t-27 -11.5t-27 11.5t-11 26.5t11 26.5t27 11.5zM248 674q16 0 27 -11.5t11 -26.5t-11 -26.5t-27 -11.5t-27 11.5t-11 26.5t11 26.5t27 11.5zM67 498l130 7q7 1 7 -6v-439q0 -12 12 -13l73 -6v-41h-222
v36q0 5 6 6l55 5q12 1 12 12v383q0 13 -13 13l-60 3v40z" />
    <glyph glyph-name="Ldotbelow" unicode="&#x1e36;" horiz-adv-x="570" 
d="M308 656l-78 -6q-11 -1 -11 -13v-580h257q12 0 13 12l6 77h42v-139q0 -7 -6 -7h-464v38q0 6 6 6l62 5q12 1 12 13v576q0 12 -12 13l-62 5q-6 0 -6 6v38h241v-44zM285 -90q16 0 27 -11.5t11 -26.5q0 -7 -2.5 -14t-7.5 -12.5t-12.5 -8.5t-15.5 -3q-16 0 -27 11.5t-11 26.5
t11 26.5t27 11.5z" />
    <glyph glyph-name="ldotbelow" unicode="&#x1e37;" horiz-adv-x="341" 
d="M67 743l130 7q7 0 7 -7v-683q0 -12 12 -13l73 -6v-41h-219v36q0 5 6 6l52 4q12 1 12 13v628q0 12 -13 13l-60 3v40zM171 -90q16 0 27 -11.5t11 -26.5t-11 -26.5t-27 -11.5t-27 11.5t-11 26.5t11 26.5t27 11.5z" />
    <glyph glyph-name="Lcircumflexbelow" unicode="&#x1e3c;" horiz-adv-x="570" 
d="M308 656l-78 -6q-11 -1 -11 -13v-580h257q12 0 13 12l6 77h42v-139q0 -7 -6 -7h-464v38q0 6 6 6l62 5q12 1 12 13v576q0 12 -12 13l-62 5q-6 0 -6 6v38h241v-44zM432 -205h-60l-87 111l-87 -111h-60l106 149h83z" />
    <glyph glyph-name="lcircumflexbelow" unicode="&#x1e3d;" horiz-adv-x="341" 
d="M67 743l130 7q7 0 7 -7v-683q0 -12 12 -13l73 -6v-41h-219v36q0 5 6 6l52 4q12 1 12 13v628q0 12 -13 13l-60 3v40zM318 -205h-60l-87 111l-87 -111h-60l105 149h83z" />
    <glyph glyph-name="Macute" unicode="&#x1e3e;" horiz-adv-x="1027" 
d="M534 772h-60l102 149h80zM891 656l-63 -5q-14 -1 -12 -15l79 -587l67 -5v-44h-236v44l84 7q13 1 12 15l-69 523l-220 -588l-46 -1l-223 591l-72 -539l98 -8v-44h-229v38q0 6 6 6l55 5q10 1 11 10l78 577q1 14 -13 15l-57 5q-6 0 -6 6v38h162l220 -580l218 580h156v-44z
" />
    <glyph glyph-name="macute" unicode="&#x1e3f;" horiz-adv-x="1028" 
d="M534 572h-60l102 149h80zM750 510q66 0 105 -41t39 -123v-286q0 -12 12 -13l69 -6v-41h-139q-7 0 -7 7v329q0 125 -104 125q-81 0 -185 -69q6 -23 6 -59v-273q0 -12 12 -13l69 -6v-41h-139q-7 0 -7 7v329q0 125 -105 125q-77 0 -178 -65v-336q0 -12 12 -13l70 -6v-41
h-219v36q0 5 6 6l55 5q11 1 11 12v383q0 13 -12 13l-60 3v40l130 7q7 1 7 -6v-64q111 75 204 75q99 0 131 -85q27 19 55 34.5t55.5 26.5t55 17.5t51.5 6.5z" />
    <glyph glyph-name="Ndotaccent" unicode="&#x1e44;" horiz-adv-x="848" 
d="M424 874q16 0 27 -11.5t11 -26.5t-11 -26.5t-27 -11.5q-8 0 -15 3t-12 8.5t-8 12.5t-3 14q0 15 11 26.5t27 11.5zM785 656l-68 -5q-12 -1 -12 -13v-638h-66l-430 582v-519q0 -12 12 -13l74 -6v-44h-233v38q0 6 6 6l63 5q12 1 12 13v576q0 12 -12 13l-63 5q-6 0 -6 6v38
h142l435 -588v525q0 12 -12 13l-68 6q-6 0 -6 6v38h232v-44z" />
    <glyph glyph-name="ndotaccent" unicode="&#x1e45;" horiz-adv-x="700" 
d="M349 674q16 0 27.5 -11.5t11.5 -26.5t-11.5 -26.5t-27.5 -11.5t-27 11.5t-11 26.5t11 26.5t27 11.5zM415 510q45 0 78.5 -17t53.5 -54.5t20 -92.5v-286q0 -12 11 -13l70 -6v-41h-140q-6 0 -6 7v329q0 65 -30 95t-83 30q-85 0 -191 -66v-335q0 -12 12 -13l70 -6v-41h-219
v36q0 5 6 6l55 5q11 1 11 12v383q0 13 -12 13l-60 3v40l130 7q7 1 7 -6v-65q117 76 217 76z" />
    <glyph glyph-name="Ndotbelow" unicode="&#x1e46;" horiz-adv-x="848" 
d="M785 656l-68 -5q-12 -1 -12 -13v-638h-66l-430 582v-519q0 -12 12 -13l74 -6v-44h-233v38q0 6 6 6l63 5q12 1 12 13v576q0 12 -12 13l-63 5q-6 0 -6 6v38h142l435 -588v525q0 12 -12 13l-68 6q-6 0 -6 6v38h232v-44zM424 -90q11 0 19.5 -5.5t13.5 -14t5 -18.5
q0 -15 -11 -26.5t-27 -11.5t-27 11.5t-11 26.5t11 26.5t27 11.5z" />
    <glyph glyph-name="ndotbelow" unicode="&#x1e47;" horiz-adv-x="700" 
d="M415 510q69 0 110.5 -41t41.5 -123v-286q0 -12 11 -13l70 -6v-41h-140q-6 0 -6 7v329q0 65 -30 95t-83 30q-85 0 -191 -66v-335q0 -12 12 -13l70 -6v-41h-219v36q0 5 6 6l55 5q11 1 11 12v383q0 13 -12 13l-60 3v40l130 7q7 1 7 -6v-65q117 76 217 76zM349 -90
q11 0 20 -5.5t14 -14t5 -18.5q0 -15 -11.5 -26.5t-27.5 -11.5t-27 11.5t-11 26.5t11 26.5t27 11.5z" />
    <glyph glyph-name="Ncircumflexbelow" unicode="&#x1e4a;" horiz-adv-x="848" 
d="M785 656l-68 -5q-12 -1 -12 -13v-638h-66l-430 582v-519q0 -12 12 -13l74 -6v-44h-233v38q0 6 6 6l63 5q12 1 12 13v576q0 12 -12 13l-63 5q-6 0 -6 6v38h142l435 -588v525q0 12 -12 13l-68 6q-6 0 -6 6v38h232v-44zM571 -205h-60l-87 111l-87 -111h-60l106 149h83z" />
    <glyph glyph-name="ncircumflexbelow" unicode="&#x1e4b;" horiz-adv-x="700" 
d="M415 510q69 0 110.5 -41t41.5 -123v-286q0 -12 11 -13l70 -6v-41h-140q-6 0 -6 7v329q0 65 -30 95t-83 30q-85 0 -191 -66v-335q0 -12 12 -13l70 -6v-41h-219v36q0 5 6 6l55 5q11 1 11 12v383q0 13 -12 13l-60 3v40l130 7q7 1 7 -6v-65q117 76 217 76zM496 -205h-60
l-87 111l-87 -111h-60l106 149h83z" />
    <glyph glyph-name="Otildeacute" unicode="&#x1e4c;" horiz-adv-x="781" 
d="M412 883h-60l103 149h80zM485 851l44 -10q-4 -33 -22.5 -53t-46.5 -22q-27 -3 -65 14q-9 4 -24 11.5t-25 12t-16 4.5q-11 1 -18.5 -8t-15.5 -36l-44 12q14 70 62 75q24 1 79 -24q39 -19 57 -16q22 3 35 40zM391 709q152 0 245.5 -99.5t93.5 -259.5t-93.5 -259.5
t-246 -99.5t-245.5 99.5t-93 259.5q0 79 24 145.5t68 113.5t107.5 73.5t139.5 26.5zM390.5 652q-120.5 0 -192.5 -81.5t-72 -220.5t72 -221t193 -82q79 0 139 36.5t92.5 105.5t32.5 161q0 139 -72 220.5t-192.5 81.5z" />
    <glyph glyph-name="otildeacute" unicode="&#x1e4d;" 
d="M322 711h-60l103 149h79zM395 670l44 -9q-4 -34 -23 -54t-46 -22t-65 14q-9 4 -24 11.5t-25 12t-17 4.5q-10 1 -17.5 -8t-15.5 -35l-44 12q13 70 62 74q24 2 79 -24q39 -18 56 -15q22 3 36 39zM300 510q75 0 132 -33t87.5 -92t30.5 -135q0 -115 -68.5 -187.5
t-181.5 -72.5t-181.5 72.5t-68.5 188t68.5 187.5t181.5 72zM300 462q-83 0 -133.5 -57t-50.5 -154.5t50.5 -154.5t133.5 -57t133.5 57t50.5 154q0 65 -23 113t-64.5 73.5t-96.5 25.5z" />
    <glyph glyph-name="Omacrongrave" unicode="&#x1e50;" horiz-adv-x="781" 
d="M428 883h-60l-122 149h80zM531 776h-281v49h281v-49zM390.5 709q152.5 0 246 -99.5t93.5 -259.5t-93.5 -259.5t-246 -99.5t-245.5 99.5t-93 259.5t93 259.5t245.5 99.5zM390.5 652q-120.5 0 -192.5 -81.5t-72 -220.5t72 -221t192.5 -82t192.5 82t72 221t-72 220.5
t-192.5 81.5z" />
    <glyph glyph-name="omacrongrave" unicode="&#x1e51;" 
d="M338 711h-60l-122 149h79zM441 601h-282v49h282v-49zM300 510q113 0 181.5 -72t68.5 -187.5t-68.5 -188t-181.5 -72.5t-181.5 72.5t-68.5 187.5q0 76 30.5 135t87.5 92t132 33zM300 462q-83 0 -133.5 -57t-50.5 -155q0 -65 23.5 -113t65 -73t95.5 -25q83 0 133.5 57
t50.5 154.5t-50.5 154.5t-133.5 57z" />
    <glyph glyph-name="Omacronacute" unicode="&#x1e52;" horiz-adv-x="781" 
d="M412 883h-60l103 149h80zM531 776h-281v49h281v-49zM390.5 709q152.5 0 246 -99.5t93.5 -259.5t-93.5 -259.5t-246 -99.5t-245.5 99.5t-93 259.5t93 259.5t245.5 99.5zM390.5 652q-120.5 0 -192.5 -81.5t-72 -220.5t72 -221t192.5 -82t192.5 82t72 221t-72 220.5
t-192.5 81.5z" />
    <glyph glyph-name="omacronacute" unicode="&#x1e53;" 
d="M322 711h-60l103 149h79zM441 601h-282v49h282v-49zM300 510q75 0 132 -33t87.5 -92t30.5 -135q0 -115 -68.5 -187.5t-181.5 -72.5t-181.5 72.5t-68.5 188t68.5 187.5t181.5 72zM300 462q-83 0 -133.5 -57t-50.5 -154.5t50.5 -154.5t133.5 -57t133.5 57t50.5 154.5
t-50.5 154.5t-133.5 57z" />
    <glyph glyph-name="Sdotbelow" unicode="&#x1e62;" horiz-adv-x="567" 
d="M316 710q92 1 156 -37q2 -1 2 -4v-129h-42l-7 84q0 7 -6 9q-43 21 -103 21q-78 0 -125 -30.5t-47 -79.5q0 -33 10 -52.5t42 -42t102 -57.5q88 -42 132 -73.5t60.5 -61t16.5 -72.5q0 -90 -74 -142t-192 -52q-96 0 -178 39q-3 1 -3 5l-1 128h43l7 -80q0 -8 6 -10
q57 -26 132 -26q84 0 134.5 35.5t50.5 95.5q0 31 -11 50t-42 41t-99 55q-58 29 -95 50.5t-61 40t-35.5 38.5t-15.5 39t-4 48q0 76 69.5 123t177.5 47zM283 -90q16 0 27.5 -11.5t11.5 -26.5t-11.5 -26.5t-27.5 -11.5t-27 11.5t-11 26.5t11 26.5t27 11.5z" />
    <glyph glyph-name="sdotbelow" unicode="&#x1e63;" horiz-adv-x="442" 
d="M252 510q68 0 116 -26q3 -1 3 -5v-110h-36l-6 76q-1 8 -7 10q-28 12 -67 12q-56 0 -89.5 -21.5t-33.5 -55.5q0 -23 7 -37t29.5 -30t72.5 -41q89 -44 118 -74t29 -76q0 -65 -56 -103t-146 -38q-66 0 -127 25q-4 1 -4 5v109h36l6 -74q1 -7 7 -10q38 -13 84 -13
q63 0 100.5 25.5t37.5 68.5q0 32 -19.5 51t-88.5 54q-68 34 -99.5 57t-41.5 43.5t-10 54.5q0 55 52.5 89t132.5 34zM221 -90q16 0 27 -11.5t11 -26.5q0 -10 -5 -18.5t-13.5 -14t-19.5 -5.5q-16 0 -27 11.5t-11 26.5t11 26.5t27 11.5z" />
    <glyph glyph-name="Tdotbelow" unicode="&#x1e6c;" horiz-adv-x="644" 
d="M32 700h580q6 0 6 -7v-138h-42l-6 78q-1 12 -13 12h-199v-583q0 -12 12 -13l69 -5v-44h-234v38q0 6 6 6l64 5q11 1 11 13v583h-199q-12 0 -12 -12l-6 -78h-43v138q0 7 6 7zM322 -90q11 0 19.5 -5.5t13.5 -14t5 -18.5q0 -15 -11 -26.5t-27 -11.5t-27 11.5t-11 26.5
t11 26.5t27 11.5z" />
    <glyph glyph-name="tdotbelow" unicode="&#x1e6d;" horiz-adv-x="383" 
d="M167 500h138v-41l-138 -7v-352q0 -31 18.5 -48t49.5 -17q44 0 65 31l21 -30q-29 -47 -102 -47q-54 0 -85.5 27.5t-31.5 75.5v360l-59 3q-6 0 -6 6v37l65 1v125l65 4v-128zM191 -90q16 0 27 -11.5t11 -26.5q0 -10 -5 -18.5t-13.5 -14t-19.5 -5.5q-16 0 -27 11.5t-11 26.5
t11 26.5t27 11.5z" />
    <glyph glyph-name="Tlinebelow" unicode="&#x1e6e;" horiz-adv-x="644" 
d="M32 700h580q6 0 6 -7v-138h-42l-6 78q-1 12 -13 12h-199v-583q0 -12 12 -13l69 -5v-44h-234v38q0 6 6 6l64 5q11 1 11 13v583h-199q-12 0 -12 -12l-6 -78h-43v138q0 7 6 7zM463 -140h-282v49h282v-49z" />
    <glyph glyph-name="tlinebelow" unicode="&#x1e6f;" horiz-adv-x="383" 
d="M167 500h138v-41l-138 -7v-352q0 -31 18.5 -48t49.5 -17q44 0 65 31l21 -30q-29 -47 -102 -47q-54 0 -85.5 27.5t-31.5 75.5v360l-59 3q-6 0 -6 6v37l65 1v125l65 4v-128zM334 -140h-282v49h282v-49z" />
    <glyph glyph-name="Tcircumflexbelow" unicode="&#x1e70;" horiz-adv-x="644" 
d="M32 700h580q6 0 6 -7v-138h-42l-6 78q-1 12 -13 12h-199v-583q0 -12 12 -13l69 -5v-44h-234v38q0 6 6 6l64 5q11 1 11 13v583h-199q-12 0 -12 -12l-6 -78h-43v138q0 7 6 7zM469 -205h-60l-87 111l-87 -111h-60l106 149h83z" />
    <glyph glyph-name="tcircumflexbelow" unicode="&#x1e71;" horiz-adv-x="383" 
d="M167 500h138v-41l-138 -7v-352q0 -31 18.5 -48t49.5 -17q44 0 65 31l21 -30q-29 -47 -102 -47q-54 0 -85.5 27.5t-31.5 75.5v360l-59 3q-6 0 -6 6v37l65 1v125l65 4v-128zM338 -205h-60l-87 111l-87 -111h-60l105 149h84z" />
    <glyph glyph-name="Wgrave" unicode="&#x1e80;" horiz-adv-x="1112" 
d="M594 772h-61l-122 149h80zM1086 656l-61 -5l-197 -650l-58 -1l-217 591l-217 -590l-59 -1l-193 644q-2 7 -10 8l-42 4q-6 0 -6 6v38h121l168 -595l192 526q2 8 -1.5 13.5t-10.5 6.5l-69 6q-6 0 -6 6v37h174l208 -595l156 527q1 5 0 9t-4.5 6.5t-7.5 2.5l-72 7q-6 0 -6 6
v37h218v-44z" />
    <glyph glyph-name="wgrave" unicode="&#x1e81;" horiz-adv-x="856" 
d="M466 572h-60l-122 149h79zM839 459l-52 -5l-166 -454h-59l-137 383l-140 -383h-59l-159 447q-2 7 -10 8l-34 3q-6 1 -6 7v35h100l144 -428l130 362q2 7 -1.5 12.5t-10.5 6.5l-64 5q-6 1 -6 7v35h144l144 -428l130 362q3 7 -1 12.5t-11 6.5l-65 6q-6 0 -6 6v35h195v-41z
" />
    <glyph glyph-name="Wacute" unicode="&#x1e82;" horiz-adv-x="1112" 
d="M578 772h-60l102 149h80zM1086 656l-61 -5l-197 -650l-58 -1l-216 590l-218 -589l-59 -1l-193 644q-2 7 -10 8l-42 4q-6 0 -6 6v38h121l168 -595l192 526q2 8 -1.5 13.5t-10.5 6.5l-69 6q-6 0 -6 6v37h174l208 -595l156 527q2 7 -1.5 12.5t-10.5 5.5l-72 7q-6 0 -6 6v37
h218v-44z" />
    <glyph glyph-name="wacute" unicode="&#x1e83;" horiz-adv-x="856" 
d="M450 572h-60l103 149h79zM839 459l-52 -5l-166 -454h-59l-137 383l-140 -383h-59l-159 447q-2 7 -10 8l-34 3q-6 1 -6 7v35h100l144 -428l130 362q2 7 -1.5 12.5t-10.5 6.5l-64 5q-6 1 -6 7v35h144l144 -428l130 362q2 5 1 9t-4.5 7t-8.5 3l-65 6q-6 0 -6 6v35h195v-41z
" />
    <glyph glyph-name="Wdieresis" unicode="&#x1e84;" horiz-adv-x="1112" 
d="M475 874q16 0 27 -11.5t11 -26.5t-11 -26.5t-27 -11.5t-27 11.5t-11 26.5t11 26.5t27 11.5zM637 874q16 0 27 -11.5t11 -26.5t-11 -26.5t-27 -11.5t-27 11.5t-11 26.5t11 26.5t27 11.5zM1086 656l-61 -5l-197 -650l-58 -1l-217 590l-217 -589l-59 -1l-193 644q-2 7 -10 8
l-42 4q-6 0 -6 6v38h121l168 -595l192 526q1 4 0.5 7.5t-2 6t-4.5 4t-6 2.5l-69 6q-6 0 -6 6v37h174l208 -595l156 527q1 5 0 9t-4.5 6.5t-7.5 2.5l-72 7q-6 0 -6 6v37h218v-44z" />
    <glyph glyph-name="wdieresis" unicode="&#x1e85;" horiz-adv-x="856" 
d="M347 674q8 0 15.5 -3t12.5 -8.5t7.5 -12.5t2.5 -14q0 -15 -11 -26.5t-27 -11.5t-27 11.5t-11 26.5t11 26.5t27 11.5zM509 674q16 0 27 -11.5t11 -26.5t-11 -26.5t-27 -11.5q-10 0 -19 5.5t-14 14t-5 18.5q0 15 11 26.5t27 11.5zM839 459l-52 -5l-166 -454h-59l-137 383
l-140 -383h-59l-159 447q-2 7 -10 8l-34 3q-6 1 -6 7v35h100l144 -428l130 362q2 7 -1.5 12.5t-10.5 6.5l-64 5q-6 1 -6 7v35h144l144 -428l130 362q3 7 -1 12.5t-11 6.5l-65 6q-6 0 -6 6v35h195v-41z" />
    <glyph glyph-name="Zdotbelow" unicode="&#x1e92;" horiz-adv-x="587" 
d="M549 658l-418 -602h361q12 0 13 12l5 74h43v-136q0 -6 -6 -6h-513v41l421 602h-335q-12 0 -13 -12l-5 -71h-43v133q0 7 6 7h484v-42zM294 -90q16 0 27 -11.5t11 -26.5t-11 -26.5t-27 -11.5q-11 0 -19.5 5.5t-13.5 14t-5 18.5q0 7 3 14t8 12.5t12 8.5t15 3z" />
    <glyph glyph-name="zdotbelow" unicode="&#x1e93;" horiz-adv-x="500" 
d="M436 470l-304 -428h259q12 0 12 12l6 66h36v-113q0 -7 -7 -7h-384v30l304 428h-234q-12 0 -13 -12l-5 -65h-36v112q0 7 6 7h360v-30zM251 -90q10 0 19 -5.5t14 -14t5 -18.5q0 -15 -11 -26.5t-27 -11.5t-27 11.5t-11 26.5t11 26.5t27 11.5z" />
    <glyph glyph-name="slongdotaccent" unicode="&#x1e9b;" horiz-adv-x="416" 
d="M246 901q8 0 15 -3t12 -8.5t8 -12.5t3 -14q0 -16 -11 -27t-27 -11t-27 11t-11 26.5t11 27t27 11.5zM296 750q75 -1 137 -41l-19 -40q-56 32 -110 32q-49 0 -81 -29t-32 -83v-529q0 -12 12 -13l70 -6v-41h-208v36q0 5 6 6l44 4q11 1 11 12v394l-60 3q-7 0 -7 7v38h67v93
q0 76 49 116.5t121 40.5z" />
    <glyph glyph-name="Adotbelow" unicode="&#x1ea0;" horiz-adv-x="771" 
d="M688 49l57 -5v-44h-229v37q0 6 5 6l68 6q8 1 11.5 7t1.5 13l-59 142h-331l-65 -160l88 -7v-44h-209v38q0 6 6 6l45 4q7 1 9 7l264 643l67 3zM234 268h288l-144 352zM383 -90q16 0 27 -11.5t11 -26.5q0 -7 -3 -14t-8 -12.5t-12 -8.5t-15 -3q-16 0 -27 11.5t-11 26.5
t11 26.5t27 11.5z" />
    <glyph glyph-name="adotbelow" unicode="&#x1ea1;" horiz-adv-x="564" 
d="M256 509q77 1 127 -41t50 -131v-278q0 -11 12 -12l66 -6v-41h-129q-6 0 -6 6l-3 57q-63 -73 -167 -73q-71 0 -114 37.5t-43 97.5q0 57 38 86t128 53l153 41v33q0 65 -32.5 94.5t-85.5 28.5q-59 0 -117 -30q-6 -3 -6 -10l-7 -77h-36v112q0 3 2 4q35 22 80.5 35.5
t89.5 13.5zM368 263l-138 -37q-66 -18 -91 -37t-25 -59q0 -42 30 -66.5t82 -24.5q88 0 139 67l3 4v153zM261 -90q11 0 19.5 -5.5t13.5 -14t5 -18.5q0 -15 -11 -26.5t-27 -11.5q-11 0 -19.5 5.5t-13.5 14t-5 18.5q0 15 11 26.5t27 11.5z" />
    <glyph glyph-name="Ahookabove" unicode="&#x1ea2;" horiz-adv-x="771" 
d="M396 1012q51 0 86 -25.5t35 -64.5q0 -21 -8 -37t-20.5 -26.5t-32.5 -21.5q-2 -2 -7 -4q-16 -9 -23 -13.5t-12 -12t-6 -18.5v-16h-44l-1 21q-1 14 3 24.5t14 19.5t18.5 14t27.5 15q22 12 31 23t9 32q0 23 -20 38t-53 14q-33 0 -62 -15l-23 29q35 24 88 24zM688 49l57 -5
v-44h-229v37q0 6 5 6l68 6q8 1 11.5 7t1.5 13l-59 142h-331l-65 -160l88 -7v-44h-209v38q0 6 6 6l45 4q7 1 9 7l264 643l67 3zM234 268h288l-144 352z" />
    <glyph glyph-name="ahookabove" unicode="&#x1ea3;" horiz-adv-x="564" 
d="M253 802q51 0 86 -25.5t35 -64.5q0 -21 -8 -37t-20.5 -26.5t-32.5 -22.5l-6 -3q-13 -7 -18.5 -10t-11.5 -8.5t-8.5 -11.5t-2.5 -15l-1 -15h-43l-2 21q0 14 3.5 24.5t14 19.5t18.5 14t27 15q23 12 32 23t9 31q0 24 -20 38.5t-54 14.5q-32 0 -61 -15l-23 28q35 25 87 25z
M256 509q77 1 127 -41t50 -131v-278q0 -11 12 -12l66 -6v-41h-129q-6 0 -6 6l-3 57q-63 -73 -167 -73q-71 0 -114 37.5t-43 97.5q0 57 38 86t128 53l153 41v33q0 65 -32.5 94.5t-85.5 28.5q-59 0 -117 -30q-6 -3 -6 -10l-7 -77h-36v112q0 3 2 4q35 22 80.5 35.5t89.5 13.5z
M368 263l-138 -37q-66 -18 -91 -37t-25 -59q0 -42 30 -66.5t82 -24.5q88 0 139 67l3 4v153z" />
    <glyph glyph-name="Acircumflexacute" unicode="&#x1ea4;" horiz-adv-x="771" 
d="M588 821h-60l103 149h79zM533 748h-60l-87 111l-87 -111h-60l105 149h83zM688 49l57 -5v-44h-229v37q0 6 5 6l68 6q8 1 11.5 7t1.5 13l-59 142h-331l-65 -160l88 -7v-44h-209v38q0 6 6 6l45 4q7 1 9 7l264 643l67 3zM234 268h288l-144 352z" />
    <glyph glyph-name="acircumflexacute" unicode="&#x1ea5;" horiz-adv-x="564" 
d="M423 700h-60l103 149h79zM408 572h-60l-87 111l-87 -111h-60l105 149h84zM256 509q77 1 127 -41t50 -131v-278q0 -11 12 -12l66 -6v-41h-129q-6 0 -6 6l-3 57q-63 -73 -167 -73q-71 0 -114 37.5t-43 97.5q0 57 38 86t128 53l153 41v33q0 65 -32.5 94.5t-85.5 28.5
q-59 0 -117 -30q-6 -3 -6 -10l-7 -77h-36v112q0 3 2 4q35 22 80.5 35.5t89.5 13.5zM368 263l-138 -37q-66 -18 -91 -37t-25 -59q0 -42 30 -66.5t82 -24.5q88 0 139 67l3 4v153z" />
    <glyph glyph-name="Acircumflexgrave" unicode="&#x1ea6;" horiz-adv-x="771" 
d="M626 821h-60l-123 149h80zM533 748h-60l-87 111l-87 -111h-60l105 149h83zM688 49l57 -5v-44h-229v37q0 6 5 6l68 6q8 1 11.5 7t1.5 13l-59 142h-331l-65 -160l88 -7v-44h-209v38q0 6 6 6l45 4q7 1 9 7l264 643l67 3zM234 268h288l-144 352z" />
    <glyph glyph-name="acircumflexgrave" unicode="&#x1ea7;" horiz-adv-x="564" 
d="M429 700h-61l-122 149h80zM408 572h-60l-87 111l-87 -111h-60l105 149h84zM256 509q29 0 54.5 -5.5t48 -18.5t39 -32.5t26 -49t9.5 -66.5v-278q0 -11 12 -12l66 -6v-41h-129q-6 0 -6 6l-3 57q-63 -73 -167 -73q-71 0 -114 37.5t-43 97.5q0 57 38 86t128 53l153 41v33
q0 65 -32.5 94.5t-85.5 28.5q-59 0 -117 -30q-6 -3 -6 -10l-7 -77h-36v112q0 3 2 4q35 22 80.5 35.5t89.5 13.5zM368 263l-138 -37q-66 -18 -91 -37t-25 -59q0 -42 30 -66.5t82 -24.5q88 0 139 67l3 4v153z" />
    <glyph glyph-name="Acircumflexhookabove" unicode="&#x1ea8;" horiz-adv-x="771" 
d="M604 989q51 0 86 -25.5t35 -64.5q0 -30 -15 -49t-46 -36q-2 -1 -6 -4q-17 -9 -23.5 -13t-12 -12t-5.5 -19l-1 -16h-44l-1 21q0 14 3.5 24.5t14 19.5t18.5 14t27 15q15 9 23 15t13 16t5 24q0 24 -20 38.5t-54 14.5q-32 -1 -61 -16l-23 29q35 24 87 24zM533 748h-60
l-87 111l-87 -111h-60l105 149h83zM688 49l57 -5v-44h-229v37q0 6 5 6l68 6q8 1 11.5 7t1.5 13l-59 142h-331l-65 -160l88 -7v-44h-209v38q0 6 6 6l45 4q7 1 9 7l264 643l67 3zM234 268h288l-144 352z" />
    <glyph glyph-name="acircumflexhookabove" unicode="&#x1ea9;" horiz-adv-x="564" 
d="M402 930q51 0 86 -25.5t35 -64.5q0 -30 -15 -49t-45 -36q-3 -1 -7 -3q-16 -9 -23 -13.5t-12 -12.5t-6 -19v-16h-44l-1 22q-1 9 0.5 17t6.5 14.5t9 11t13 10.5t15 9.5l18 10.5q23 12 32 23t9 31q0 24 -20 38.5t-53 14.5t-62 -16l-23 29q35 24 87 24zM408 572h-60l-87 111
l-87 -111h-60l105 149h84zM256 509q77 1 127 -41t50 -131v-278q0 -11 12 -12l66 -6v-41h-129q-6 0 -6 6l-3 57q-63 -73 -167 -73q-71 0 -114 37.5t-43 97.5q0 57 38 86t128 53l153 41v33q0 65 -32.5 94.5t-85.5 28.5q-59 0 -117 -30q-6 -3 -6 -10l-7 -77h-36v112q0 3 2 4
q35 22 80.5 35.5t89.5 13.5zM368 263l-138 -37q-66 -18 -91 -37t-25 -59q0 -27 13.5 -48t39 -32t59.5 -11q88 0 139 67l3 4v153z" />
    <glyph glyph-name="Acircumflextilde" unicode="&#x1eaa;" horiz-adv-x="771" 
d="M480 1019l45 -10q-3 -16 -9 -30t-15 -23.5t-20.5 -15t-25.5 -6.5q-26 -3 -64 14q-10 4 -25 11.5t-25 12t-16 4.5q-10 1 -18 -8t-16 -36l-44 12q14 70 62 75q24 1 79 -24q39 -18 57 -16q22 3 35 40zM533 748h-60l-87 111l-87 -111h-60l105 149h83zM688 49l57 -5v-44h-229
v37q0 6 5 6l68 6q8 1 11.5 7t1.5 13l-59 142h-331l-65 -160l88 -7v-44h-209v38q0 6 6 6l45 4q7 1 9 7l264 643l67 3zM234 268h288l-144 352z" />
    <glyph glyph-name="acircumflextilde" unicode="&#x1eab;" horiz-adv-x="564" 
d="M355 831l45 -9q-5 -34 -23.5 -54t-46.5 -22q-26 -3 -64 14q-9 4 -24 11.5t-25.5 12t-16.5 4.5q-5 1 -9 -1t-8.5 -6.5t-8.5 -13.5t-8 -22l-44 11q14 70 63 75q23 2 78 -24q39 -18 57 -16q22 4 35 40zM408 572h-60l-87 111l-87 -111h-60l105 149h84zM256 509q77 1 127 -41
t50 -131v-278q0 -11 12 -12l66 -6v-41h-129q-6 0 -6 6l-3 57q-63 -73 -167 -73q-71 0 -114 37.5t-43 97.5q0 57 38 86t128 53l153 41v33q0 65 -32.5 94.5t-85.5 28.5q-59 0 -117 -30q-6 -3 -6 -10l-7 -77h-36v112q0 3 2 4q35 22 80.5 35.5t89.5 13.5zM368 263l-138 -37
q-66 -18 -91 -37t-25 -59q0 -27 13.5 -48t39 -32t59.5 -11q88 0 139 67l3 4v153z" />
    <glyph glyph-name="Acircumflexdotbelow" unicode="&#x1eac;" horiz-adv-x="771" 
d="M533 772h-60l-87 111l-87 -111h-60l105 149h83zM688 49l57 -5v-44h-229v37q0 6 5 6l68 6q8 1 11.5 7t1.5 13l-59 142h-331l-65 -160l88 -7v-44h-209v38q0 6 6 6l45 4q7 1 9 7l264 643l67 3zM234 268h288l-144 352zM383 -90q16 0 27 -11.5t11 -26.5q0 -7 -3 -14t-8 -12.5
t-12 -8.5t-15 -3q-11 0 -19.5 5.5t-13.5 14t-5 18.5q0 15 11 26.5t27 11.5z" />
    <glyph glyph-name="acircumflexdotbelow" unicode="&#x1ead;" horiz-adv-x="564" 
d="M408 572h-60l-87 111l-87 -111h-60l105 149h84zM256 509q77 1 127 -41t50 -131v-278q0 -11 12 -12l66 -6v-41h-129q-6 0 -6 6l-3 57q-63 -73 -167 -73q-71 0 -114 37.5t-43 97.5q0 57 38 86t128 53l153 41v33q0 65 -32.5 94.5t-85.5 28.5q-59 0 -117 -30q-6 -3 -6 -10
l-7 -77h-36v112q0 3 2 4q35 22 80.5 35.5t89.5 13.5zM368 263l-138 -37q-66 -18 -91 -37t-25 -59q0 -27 13.5 -48t39 -32t59.5 -11q88 0 139 67l3 4v153zM261 -90q16 0 27 -11.5t11 -26.5t-11 -26.5t-27 -11.5t-27 11.5t-11 26.5t11 26.5t27 11.5z" />
    <glyph glyph-name="Abreveacute" unicode="&#x1eae;" horiz-adv-x="771" 
d="M408 903h-60l102 149h80zM473 881h48q0 -55 -39.5 -94.5t-96 -39.5t-96 39.5t-39.5 94.5h48q0 -26 12 -47t32 -33t44 -12q36 0 61.5 26.5t25.5 65.5zM688 49l57 -5v-44h-229v37q0 6 5 6l68 6q8 1 11.5 7t1.5 13l-59 142h-331l-65 -160l88 -7v-44h-209v38q0 6 6 6l45 4
q7 1 9 7l264 643l67 3zM234 268h288l-144 352z" />
    <glyph glyph-name="abreveacute" unicode="&#x1eaf;" horiz-adv-x="564" 
d="M283 714h-60l102 149h80zM348 705h48q0 -56 -39 -95t-96 -39t-96 39t-39 95h47q0 -40 26 -66.5t62 -26.5t61.5 26.5t25.5 66.5zM256 509q29 0 54.5 -5.5t48 -18.5t39 -32.5t26 -49t9.5 -66.5v-278q0 -11 12 -12l66 -6v-41h-129q-6 0 -6 6l-3 57q-63 -73 -167 -73
q-71 0 -114 37.5t-43 97.5q0 57 38 86t128 53l153 41v33q0 65 -32.5 94.5t-85.5 28.5q-59 0 -117 -30q-6 -3 -6 -10l-7 -77h-36v112q0 3 2 4q35 22 80.5 35.5t89.5 13.5zM368 263l-138 -37q-66 -18 -91 -37t-25 -59q0 -27 13.5 -48t39 -32t59.5 -11q88 0 139 67l3 4v153z
" />
    <glyph glyph-name="Abrevegrave" unicode="&#x1eb0;" horiz-adv-x="771" 
d="M424 903h-61l-122 149h80zM473 881h48q0 -55 -39.5 -94t-96 -39t-96 39t-39.5 94h48q0 -39 26 -65.5t62 -26.5t61.5 26.5t25.5 65.5zM688 49l57 -5v-44h-229v37q0 6 5 6l68 6q8 1 11.5 7t1.5 13l-59 142h-331l-65 -160l88 -7v-44h-209v38q0 6 6 6l45 4q7 1 9 7l264 643
l67 3zM234 268h288l-144 352z" />
    <glyph glyph-name="abrevegrave" unicode="&#x1eb1;" horiz-adv-x="564" 
d="M299 714h-61l-122 149h80zM348 705h48q0 -56 -39 -95t-96 -39t-96 39t-39 95h47q0 -40 26 -66.5t62 -26.5t61.5 26.5t25.5 66.5zM256 509q77 1 127 -41t50 -131v-278q0 -11 12 -12l66 -6v-41h-129q-6 0 -6 6l-3 57q-63 -73 -167 -73q-47 0 -83 17t-55 48t-19 70
q0 57 38 86t128 53l153 41v33q0 65 -32.5 94.5t-85.5 28.5q-59 0 -117 -30q-6 -3 -6 -10l-7 -77h-36v112q0 3 2 4q35 22 80.5 35.5t89.5 13.5zM368 263l-138 -37q-66 -18 -91 -37t-25 -59q0 -42 30 -66.5t82 -24.5q88 0 139 67l3 4v153z" />
    <glyph glyph-name="Abrevehookabove" unicode="&#x1eb2;" horiz-adv-x="771" 
d="M396 1114q51 0 86 -25.5t35 -64.5q0 -30 -15.5 -49t-45.5 -36q-2 -1 -7 -3q-16 -9 -23 -13.5t-12 -12.5t-6 -19v-16h-44l-1 22q-1 14 3 24t14 19t18.5 14.5t27.5 15.5q15 8 23 14t12.5 16t4.5 24q0 24 -20 38.5t-53 14.5t-62 -16l-23 29q35 24 88 24zM473 905h48
q0 -56 -39.5 -95t-96 -39t-96 39t-39.5 95h48q0 -40 26 -66.5t62 -26.5t61.5 26.5t25.5 66.5zM688 49l57 -5v-44h-229v37q0 6 5 6l68 6q8 1 11.5 7t1.5 13l-59 142h-331l-65 -160l88 -7v-44h-209v38q0 6 6 6l45 4q7 1 9 7l264 643l67 3zM234 268h288l-144 352z" />
    <glyph glyph-name="abrevehookabove" unicode="&#x1eb3;" horiz-adv-x="564" 
d="M270 930q25 0 47.5 -6.5t38.5 -18.5t25.5 -28.5t9.5 -36.5q0 -30 -15 -49t-46 -36l-6 -3q-16 -9 -23 -13.5t-12.5 -12.5t-5.5 -19v-16h-44l-2 22q0 14 3.5 24t14 19t19 14.5t26.5 15.5q12 6 18.5 10.5t12 11t8 14t2.5 18.5q0 24 -20 38.5t-53 14.5t-62 -16l-23 29
q35 24 87 24zM348 705h48q0 -56 -39 -95t-96 -39t-96 39t-39 95h47q0 -40 26 -66.5t62 -26.5t61.5 26.5t25.5 66.5zM256 509q77 1 127 -41t50 -131v-278q0 -11 12 -12l66 -6v-41h-129q-6 0 -6 6l-3 57q-63 -73 -167 -73q-71 0 -114 37.5t-43 97.5q0 57 38 86t128 53l153 41
v33q0 65 -32.5 94.5t-85.5 28.5q-59 0 -117 -30q-6 -3 -6 -10l-7 -77h-36v112q0 3 2 4q35 22 80.5 35.5t89.5 13.5zM368 263l-138 -37q-66 -18 -91 -37t-25 -59q0 -42 30 -66.5t82 -24.5q88 0 139 67l3 4v153z" />
    <glyph glyph-name="Abrevetilde" unicode="&#x1eb4;" horiz-adv-x="771" 
d="M480 1017l45 -10q-3 -16 -9 -30t-15 -23.5t-20.5 -15t-25.5 -6.5q-26 -3 -64 14q-10 4 -25 11.5t-25 12t-16 4.5q-10 1 -18 -8t-16 -36l-44 12q14 70 62 75q24 1 79 -24q39 -19 57 -16q22 3 35 40zM473 881h48q0 -55 -39.5 -94t-96 -39t-96 39t-39.5 94h48
q0 -39 26 -65.5t62 -26.5t61.5 26.5t25.5 65.5zM688 49l57 -5v-44h-229v37q0 6 5 6l68 6q8 1 11.5 7t1.5 13l-59 142h-331l-65 -160l88 -7v-44h-209v38q0 6 6 6l45 4q7 1 9 7l264 643l67 3zM234 268h288l-144 352z" />
    <glyph glyph-name="abrevetilde" unicode="&#x1eb5;" horiz-adv-x="564" 
d="M355 820l45 -10q-5 -33 -23.5 -53t-46.5 -22q-26 -3 -64 14q-9 4 -24 11.5t-25.5 11.5t-16.5 5q-7 1 -12 -2.5t-10.5 -13.5t-11.5 -28l-44 12q14 70 63 75q23 1 78 -24q39 -19 57 -16q22 3 35 40zM348 705h48q0 -56 -39 -95t-96 -39t-96 39t-39 95h47q0 -40 26 -66.5
t62 -26.5t61.5 26.5t25.5 66.5zM256 509q77 1 127 -41t50 -131v-278q0 -11 12 -12l66 -6v-41h-129q-6 0 -6 6l-3 57q-63 -73 -167 -73q-47 0 -83 17t-55 48t-19 70q0 57 38 86t128 53l153 41v33q0 65 -32.5 94.5t-85.5 28.5q-59 0 -117 -30q-6 -3 -6 -10l-7 -77h-36v112
q0 3 2 4q35 22 80.5 35.5t89.5 13.5zM368 263l-138 -37q-66 -18 -91 -37t-25 -59q0 -42 30 -66.5t82 -24.5q88 0 139 67l3 4v153z" />
    <glyph glyph-name="Abrevedotbelow" unicode="&#x1eb6;" horiz-adv-x="771" 
d="M473 905h48q0 -56 -39.5 -95t-96 -39t-96 39t-39.5 95h48q0 -40 26 -66.5t62 -26.5t61.5 26.5t25.5 66.5zM688 49l57 -5v-44h-229v37q0 6 5 6l68 6q8 1 11.5 7t1.5 13l-59 142h-331l-65 -160l88 -7v-44h-209v38q0 6 6 6l45 4q7 1 9 7l264 643l67 3zM234 268h288l-144 352
zM383 -90q16 0 27 -11.5t11 -26.5q0 -7 -3 -14t-8 -12.5t-12 -8.5t-15 -3q-16 0 -27 11.5t-11 26.5t11 26.5t27 11.5z" />
    <glyph glyph-name="abrevedotbelow" unicode="&#x1eb7;" horiz-adv-x="564" 
d="M348 705h48q0 -56 -39 -95t-96 -39q-37 0 -68.5 18t-49 48.5t-17.5 67.5h47q0 -40 26 -66.5t62 -26.5t61.5 26.5t25.5 66.5zM256 509q77 1 127 -41t50 -131v-278q0 -11 12 -12l66 -6v-41h-129q-6 0 -6 6l-3 57q-63 -73 -167 -73q-71 0 -114 37.5t-43 97.5q0 57 38 86
t128 53l153 41v33q0 65 -32.5 94.5t-85.5 28.5q-59 0 -117 -30q-6 -3 -6 -10l-7 -77h-36v112q0 3 2 4q35 22 80.5 35.5t89.5 13.5zM368 263l-138 -37q-66 -18 -91 -37t-25 -59q0 -42 30 -66.5t82 -24.5q88 0 139 67l3 4v153zM261 -90q11 0 19.5 -5.5t13.5 -14t5 -18.5
q0 -15 -11 -26.5t-27 -11.5t-27 11.5t-11 26.5t11 26.5t27 11.5z" />
    <glyph glyph-name="Edotbelow" unicode="&#x1eb8;" horiz-adv-x="584" 
d="M67 700h457q7 0 7 -7v-139h-43l-6 77q-1 12 -13 12h-250v-260h229v-54h-229v-272h269q12 0 13 12l6 77h42v-139q0 -7 -6 -7h-476v38q0 6 6 6l62 5q12 1 12 13v576q0 12 -12 13l-62 5q-6 0 -6 6v38zM292 -90q11 0 19.5 -5.5t13.5 -14t5 -18.5q0 -15 -11 -26.5t-27 -11.5
t-27 11.5t-11 26.5t11 26.5t27 11.5z" />
    <glyph glyph-name="edotbelow" unicode="&#x1eb9;" horiz-adv-x="548" 
d="M280 510q112 0 166 -66t57 -183v-11q0 -9 -9 -9l-376 -4q2 -92 49.5 -145.5t123.5 -53.5q97 1 163 64l23 -43q-69 -69 -188 -69q-108 0 -173.5 72.5t-65.5 188t63 187.5t167 72zM281 464q-71 0 -115 -49.5t-48 -135.5h310q8 0 7 9q-9 176 -154 176zM274 -90
q16 0 27 -11.5t11 -26.5q0 -7 -3 -14t-8 -12.5t-12 -8.5t-15 -3q-11 0 -19.5 5.5t-13.5 14t-5 18.5q0 15 11 26.5t27 11.5z" />
    <glyph glyph-name="Ehookabove" unicode="&#x1eba;" horiz-adv-x="584" 
d="M310 1012q51 0 86 -25.5t35 -64.5q0 -30 -15 -49t-46 -36q-2 -2 -6 -4q-17 -9 -23.5 -13.5t-12 -12t-5.5 -18.5l-1 -16h-44l-1 21q0 14 3.5 24.5t14 19.5t18.5 14t27 15q22 12 31.5 23t9.5 32q0 23 -20.5 38t-53.5 14q-32 0 -62 -15l-23 29q35 24 88 24zM67 700h457
q7 0 7 -7v-139h-43l-6 77q-1 12 -13 12h-250v-260h229v-54h-229v-272h269q12 0 13 12l6 77h42v-139q0 -7 -6 -7h-476v38q0 6 6 6l62 5q12 1 12 13v576q0 12 -12 13l-62 5q-6 0 -6 6v38z" />
    <glyph glyph-name="ehookabove" unicode="&#x1ebb;" horiz-adv-x="564" 
d="M289 802q51 0 86 -25.5t35 -64.5q0 -21 -8 -37t-20 -26.5t-32 -22.5q-3 -1 -7 -3q-16 -9 -23 -13.5t-12 -12t-6 -19.5v-15h-44l-1 21q-1 11 2.5 20.5t7.5 16t14 13.5t16.5 11t21.5 12q23 12 32 23t9 31q0 24 -20 38.5t-53 14.5t-62 -15l-23 28q35 25 87 25zM280 510
q112 0 166 -66t57 -183v-11q0 -9 -9 -9l-376 -4q2 -92 49.5 -145.5t123.5 -53.5q97 1 163 64l23 -43q-69 -69 -188 -69q-108 0 -173.5 72.5t-65.5 188t63 187.5t167 72zM281 464q-71 0 -115 -49.5t-48 -135.5h310q8 0 7 9q-9 176 -154 176z" />
    <glyph glyph-name="Etilde" unicode="&#x1ebc;" horiz-adv-x="584" 
d="M412 870l44 -9q-4 -34 -22.5 -54t-46.5 -22q-27 -2 -65 14q-9 4 -24 11.5t-25 12t-16 4.5q-6 1 -10 -0.5t-8 -6.5t-8 -14t-8 -22l-44 12q14 70 62 74q24 2 79 -24q39 -18 56 -15q23 3 36 39zM67 700h457q7 0 7 -7v-139h-43l-6 77q-1 12 -13 12h-250v-260h229v-54h-229
v-272h269q12 0 13 12l6 77h42v-139q0 -7 -6 -7h-476v38q0 6 6 6l62 5q12 1 12 13v576q0 12 -12 13l-62 5q-6 0 -6 6v38z" />
    <glyph glyph-name="etilde" unicode="&#x1ebd;" horiz-adv-x="548" 
d="M375 670l44 -9q-3 -23 -12.5 -39.5t-24 -25.5t-33.5 -11q-26 -2 -64 14q-9 4 -24 11.5t-25 12t-17 4.5q-4 1 -7 0t-6.5 -4t-7 -8t-6.5 -12.5t-6 -18.5l-45 12q14 70 63 74q24 2 79 -24q39 -18 56 -15q22 3 36 39zM280 510q112 0 166 -66t57 -183v-11q0 -9 -9 -9l-376 -4
q2 -92 49.5 -145.5t123.5 -53.5q97 1 163 64l23 -43q-69 -69 -188 -69q-108 0 -173.5 72.5t-65.5 188t63 187.5t167 72zM281 464q-71 0 -115 -49.5t-48 -135.5h310q8 0 7 9q-9 176 -154 176z" />
    <glyph glyph-name="Ecircumflexacute" unicode="&#x1ebe;" horiz-adv-x="584" 
d="M520 844h-60l102 149h80zM464 772h-60l-86 111l-87 -111h-61l106 149h83zM67 700h457q7 0 7 -7v-139h-43l-6 77q-1 12 -13 12h-250v-260h229v-54h-229v-272h269q12 0 13 12l6 77h42v-139q0 -7 -6 -7h-476v38q0 6 6 6l62 5q12 1 12 13v576q0 12 -12 13l-62 5q-6 0 -6 6v38
z" />
    <glyph glyph-name="ecircumflexacute" unicode="&#x1ebf;" horiz-adv-x="548" 
d="M442 700h-60l103 149h80zM427 572h-60l-87 111l-87 -111h-60l106 149h83zM280 510q112 0 166 -66t57 -183v-11q0 -9 -9 -9l-376 -4q2 -92 49.5 -145.5t123.5 -53.5q97 1 163 64l23 -43q-69 -69 -188 -69q-54 0 -99 19.5t-75.5 53.5t-47.5 82t-17 105q0 76 28 135t80.5 92
t121.5 33zM281 464q-71 0 -115 -49.5t-48 -135.5h310q8 0 7 9q-9 176 -154 176z" />
    <glyph glyph-name="Ecircumflexgrave" unicode="&#x1ec0;" horiz-adv-x="584" 
d="M563 844h-60l-122 149h79zM464 772h-60l-87 111l-86 -111h-61l106 149h83zM67 700h457q7 0 7 -7v-139h-43l-6 77q-1 12 -13 12h-250v-260h229v-54h-229v-272h269q12 0 13 12l6 77h42v-139q0 -7 -6 -7h-476v38q0 6 6 6l62 5q12 1 12 13v576q0 12 -12 13l-62 5q-6 0 -6 6
v38z" />
    <glyph glyph-name="ecircumflexgrave" unicode="&#x1ec1;" horiz-adv-x="548" 
d="M448 700h-60l-122 149h79zM427 572h-60l-87 111l-87 -111h-60l106 149h83zM280 510q112 0 166 -66t57 -183v-11q0 -9 -9 -9l-376 -4q2 -92 49.5 -145.5t123.5 -53.5q97 1 163 64l23 -43q-69 -69 -188 -69q-108 0 -173.5 72.5t-65.5 188t63 187.5t167 72zM281 464
q-71 0 -115 -49.5t-48 -135.5h310q8 0 7 9q-9 176 -154 176z" />
    <glyph glyph-name="Ecircumflexhookabove" unicode="&#x1ec2;" horiz-adv-x="584" 
d="M539 1012q51 0 86 -25.5t35 -64.5q0 -30 -15 -49t-46 -36q-2 -1 -6 -4q-17 -9 -23.5 -13.5t-12 -12t-5.5 -18.5l-1 -16h-43l-2 21q0 12 3 21t7.5 15.5t14 13.5t16.5 11t22 12q23 12 32 23t9 32q0 15 -9 27t-26 19t-39 7q-32 -1 -61 -16l-23 29q35 24 87 24zM464 772h-60
l-86 111l-87 -111h-61l106 149h83zM67 700h457q7 0 7 -7v-139h-43l-6 77q-1 12 -13 12h-250v-260h229v-54h-229v-272h269q12 0 13 12l6 77h42v-139q0 -7 -6 -7h-476v38q0 6 6 6l62 5q12 1 12 13v576q0 12 -12 13l-62 5q-6 0 -6 6v38z" />
    <glyph glyph-name="ecircumflexhookabove" unicode="&#x1ec3;" horiz-adv-x="548" 
d="M415 930q51 0 86 -25.5t35 -64.5q0 -30 -15.5 -49t-45.5 -36l-6 -3q-17 -9 -24 -13.5t-12 -12.5t-6 -19v-16h-44l-1 22q-1 14 3 24t14 19t18.5 14.5t27.5 15.5q11 6 17.5 10.5t12.5 11t8 14t2 18.5q0 24 -20 38.5t-53 14.5t-62 -16l-23 29q35 24 88 24zM420 572h-60
l-87 111l-87 -111h-60l105 149h84zM280 510q112 0 166 -66t57 -183v-11q0 -9 -9 -9l-376 -4q2 -92 49.5 -145.5t123.5 -53.5q97 1 163 64l23 -43q-69 -69 -188 -69q-108 0 -173.5 72.5t-65.5 188t63 187.5t167 72zM281 464q-71 0 -115 -49.5t-48 -135.5h310q8 0 7 9
q-9 176 -154 176z" />
    <glyph glyph-name="Ecircumflextilde" unicode="&#x1ec4;" horiz-adv-x="584" 
d="M412 1042l44 -9q-2 -17 -8 -30.5t-15 -23t-21 -15.5t-25 -7q-27 -2 -65 15q-9 3 -24 10.5t-25 12t-16 5.5q-11 1 -18.5 -8.5t-15.5 -35.5l-44 12q14 70 62 74q24 2 79 -24q39 -18 56 -15q23 3 36 39zM464 772h-60l-86 111l-87 -111h-61l106 149h83zM67 700h457q7 0 7 -7
v-139h-43l-6 77q-1 12 -13 12h-250v-260h229v-54h-229v-272h269q12 0 13 12l6 77h42v-139q0 -7 -6 -7h-476v38q0 6 6 6l62 5q12 1 12 13v576q0 12 -12 13l-62 5q-6 0 -6 6v38z" />
    <glyph glyph-name="ecircumflextilde" unicode="&#x1ec5;" horiz-adv-x="548" 
d="M375 831l44 -9q-2 -17 -8 -31t-15 -23.5t-21 -15t-26 -6.5q-26 -3 -64 14q-9 4 -24 11.5t-25 12t-17 4.5q-10 1 -17.5 -8t-15.5 -35l-45 11q14 70 63 75q24 2 79 -24q39 -18 56 -16q22 4 36 40zM427 572h-60l-87 111l-87 -111h-60l106 149h83zM280 510q112 0 166 -66
t57 -183v-11q0 -9 -9 -9l-376 -4q2 -92 49.5 -145.5t123.5 -53.5q97 1 163 64l23 -43q-69 -69 -188 -69q-108 0 -173.5 72.5t-65.5 188t63 187.5t167 72zM281 464q-71 0 -115 -49.5t-48 -135.5h310q8 0 7 9q-9 176 -154 176z" />
    <glyph glyph-name="Ecircumflexdotbelow" unicode="&#x1ec6;" horiz-adv-x="584" 
d="M464 772h-60l-86 111l-87 -111h-61l106 149h83zM67 700h457q7 0 7 -7v-139h-43l-6 77q-1 12 -13 12h-250v-260h229v-54h-229v-272h269q12 0 13 12l6 77h42v-139q0 -7 -6 -7h-476v38q0 6 6 6l62 5q12 1 12 13v576q0 12 -12 13l-62 5q-6 0 -6 6v38zM292 -90q11 0 19.5 -5.5
t13.5 -14t5 -18.5q0 -15 -11 -26.5t-27 -11.5t-27 11.5t-11 26.5t11 26.5t27 11.5z" />
    <glyph glyph-name="ecircumflexdotbelow" unicode="&#x1ec7;" horiz-adv-x="548" 
d="M427 572h-60l-87 111l-87 -111h-60l106 149h83zM280 510q112 0 166 -66t57 -183v-11q0 -9 -9 -9l-376 -4q2 -92 49.5 -145.5t123.5 -53.5q97 1 163 64l23 -43q-69 -69 -188 -69q-108 0 -173.5 72.5t-65.5 188t63 187.5t167 72zM281 464q-71 0 -115 -49.5t-48 -135.5h310
q8 0 7 9q-9 176 -154 176zM274 -90q16 0 27 -11.5t11 -26.5t-11 -26.5t-27 -11.5q-8 0 -15 3t-12 8.5t-8 12.5t-3 14q0 15 11 26.5t27 11.5z" />
    <glyph glyph-name="Ihookabove" unicode="&#x1ec8;" horiz-adv-x="368" 
d="M188 1012q50 0 85 -25.5t35 -64.5q0 -30 -15 -49t-45 -36q-3 -2 -7 -4q-16 -9 -23 -13.5t-12 -12t-6 -18.5v-16h-44l-1 21q-1 14 3 24.5t14 19.5t18.5 14t26.5 15q23 12 32 23t9 32q0 23 -20 38t-53 14q-33 0 -62 -15l-23 29q35 24 88 24zM301 656l-70 -5q-11 -1 -11 -13
v-576q0 -12 11 -13l70 -5v-44h-234v38q0 6 6 6l64 5q11 1 11 13v576q0 12 -11 13l-64 5q-6 0 -6 6v38h234v-44z" />
    <glyph glyph-name="ihookabove" unicode="&#x1ec9;" horiz-adv-x="350" 
d="M174 802q51 0 86 -25.5t35 -64.5q0 -30 -15 -49.5t-46 -36.5l-6 -3q-17 -9 -23.5 -13.5t-12 -12t-5.5 -19.5l-1 -15h-44l-1 21q0 14 3.5 24.5t14 19.5t18.5 14t27 15q22 12 31.5 23t9.5 31q0 24 -20.5 38.5t-53.5 14.5q-32 0 -62 -15l-23 28q35 25 88 25zM67 498l130 7
q7 1 7 -6v-439q0 -12 12 -13l73 -6v-41h-222v36q0 5 6 6l55 5q12 1 12 12v383q0 13 -13 13l-60 3v40z" />
    <glyph glyph-name="Idotbelow" unicode="&#x1eca;" horiz-adv-x="368" 
d="M301 656l-70 -5q-11 -1 -11 -13v-576q0 -12 11 -13l70 -5v-44h-234v38q0 6 6 6l64 5q11 1 11 13v576q0 12 -11 13l-64 5q-6 0 -6 6v38h234v-44zM185 -90q16 0 27 -11.5t11 -26.5q0 -10 -5 -18.5t-14 -14t-19 -5.5q-16 0 -27 11.5t-11 26.5t11 26.5t27 11.5z" />
    <glyph glyph-name="idotbelow" unicode="&#x1ecb;" horiz-adv-x="350" 
d="M169.5 714q16.5 0 28.5 -12t12 -29t-12 -28.5t-28.5 -11.5t-28.5 11.5t-12 28.5t12 29t28.5 12zM67 498l130 7q7 1 7 -6v-439q0 -12 12 -13l73 -6v-41h-222v36q0 5 6 6l55 5q12 1 12 12v383q0 13 -13 13l-60 3v40zM169 -90q16 0 27 -11.5t11 -26.5q0 -10 -4.5 -18.5
t-13.5 -14t-19.5 -5.5t-19.5 5.5t-14 14t-5 18.5q0 15 11 26.5t27 11.5z" />
    <glyph glyph-name="Odotbelow" unicode="&#x1ecc;" horiz-adv-x="781" 
d="M390.5 709q152.5 0 246 -99.5t93.5 -259.5t-93.5 -259.5t-246 -99.5t-245.5 99.5t-93 259.5t93 259.5t245.5 99.5zM390.5 652q-120.5 0 -192.5 -81.5t-72 -220.5t72 -221t192.5 -82t192.5 82t72 221t-72 220.5t-192.5 81.5zM391 -90q16 0 27 -11.5t11 -26.5t-11 -26.5
t-27.5 -11.5t-27 11.5t-10.5 26.5q0 10 4.5 18.5t13.5 14t20 5.5z" />
    <glyph glyph-name="odotbelow" unicode="&#x1ecd;" 
d="M300 510q113 0 181.5 -72t68.5 -187.5t-68.5 -188t-181.5 -72.5t-181.5 72.5t-68.5 187.5q0 76 30.5 135t87.5 92t132 33zM300 462q-83 0 -133.5 -57t-50.5 -155q0 -65 23.5 -113t65 -73t95.5 -25q83 0 133.5 57t50.5 154.5t-50.5 154.5t-133.5 57zM300 -90
q16 0 27 -11.5t11 -26.5t-11 -26.5t-27 -11.5t-27 11.5t-11 26.5t11 26.5t27 11.5z" />
    <glyph glyph-name="Ohookabove" unicode="&#x1ece;" horiz-adv-x="781" 
d="M402 1012q51 0 86 -25.5t35 -64.5q0 -30 -15 -49t-46 -36q-2 -2 -6 -4q-16 -9 -23 -13.5t-12.5 -12t-5.5 -18.5l-1 -16h-43l-2 21q0 14 3.5 24.5t14 19.5t19 14t26.5 15q23 12 32 23t9 32q0 23 -20 38t-54 14q-32 0 -61 -15l-23 29q35 24 87 24zM390.5 709
q152.5 0 246 -99.5t93.5 -259.5t-93.5 -259.5t-246 -99.5t-245.5 99.5t-93 259.5t93 259.5t245.5 99.5zM390.5 652q-120.5 0 -192.5 -81.5t-72 -220.5t72 -221t193 -82q79 0 139 36.5t92.5 105.5t32.5 161q0 139 -72 220.5t-192.5 81.5z" />
    <glyph glyph-name="ohookabove" unicode="&#x1ecf;" 
d="M309 802q51 0 86 -25.5t35 -64.5q0 -30 -15 -49.5t-45 -36.5q-3 -1 -7 -3q-13 -7 -18.5 -10t-11.5 -8.5t-8.5 -11.5t-2.5 -15v-15h-44l-1 21q-1 14 2.5 24.5t14 19.5t19 14t26.5 15q23 12 32 23t9 31q0 24 -20 38.5t-53 14.5t-62 -15l-23 28q35 25 87 25zM300 510
q113 0 181.5 -72t68.5 -187.5t-68.5 -188t-181.5 -72.5t-181.5 72.5t-68.5 188t68.5 187.5t181.5 72zM300 462q-83 0 -133.5 -57t-50.5 -154.5t50.5 -154.5t133.5 -57t133.5 57t50.5 154.5t-50.5 154.5t-133.5 57z" />
    <glyph glyph-name="Ocircumflexacute" unicode="&#x1ed0;" horiz-adv-x="781" 
d="M597 821h-60l103 149h80zM537 748h-60l-87 111l-86 -111h-61l106 149h83zM390.5 709q152.5 0 246 -99.5t93.5 -259.5t-93.5 -259.5t-246 -99.5t-245.5 99.5t-93 259.5t93 259.5t245.5 99.5zM391 652q-48 0 -89 -13.5t-73.5 -39t-55.5 -62t-35 -84.5t-12 -103
q0 -139 72 -221t192.5 -82t192.5 82t72 221t-72 220.5t-192 81.5z" />
    <glyph glyph-name="ocircumflexacute" unicode="&#x1ed1;" 
d="M462 700h-60l103 149h80zM447 572h-60l-87 111l-87 -111h-60l106 149h83zM300 510q113 0 181.5 -72t68.5 -187.5t-68.5 -188t-181.5 -72.5t-181.5 72.5t-68.5 187.5q0 76 30.5 135t87.5 92t132 33zM300 462q-83 0 -133.5 -57t-50.5 -155q0 -65 23.5 -113t65 -73t95.5 -25
q83 0 133.5 57t50.5 154.5t-50.5 154.5t-133.5 57z" />
    <glyph glyph-name="Ocircumflexgrave" unicode="&#x1ed2;" horiz-adv-x="781" 
d="M629 821h-60l-122 149h80zM537 748h-60l-87 111l-86 -111h-61l106 149h83zM390.5 709q152.5 0 246 -99.5t93.5 -259.5t-93.5 -259.5t-246 -99.5t-245.5 99.5t-93 259.5t93 259.5t245.5 99.5zM390.5 652q-120.5 0 -192.5 -81.5t-72 -220.5t72 -221t192.5 -82t192.5 82
t72 221t-72 220.5t-192.5 81.5z" />
    <glyph glyph-name="ocircumflexgrave" unicode="&#x1ed3;" 
d="M468 700h-60l-122 149h79zM447 572h-60l-87 111l-87 -111h-60l106 149h83zM300 510q113 0 181.5 -72t68.5 -187.5t-68.5 -188t-181.5 -72.5t-181.5 72.5t-68.5 187.5q0 76 30.5 135t87.5 92t132 33zM300 462q-83 0 -133.5 -57t-50.5 -155q0 -65 23.5 -113t65 -73
t95.5 -25q83 0 133.5 57t50.5 154.5t-50.5 154.5t-133.5 57z" />
    <glyph glyph-name="Ocircumflexhookabove" unicode="&#x1ed4;" horiz-adv-x="781" 
d="M607 994q51 0 86 -25.5t35 -64.5q0 -30 -15.5 -49t-45.5 -36q-2 -1 -7 -4q-12 -6 -17.5 -9.5t-12 -9t-8.5 -11.5t-3 -14v-16h-44l-1 22q-1 9 1 16.5t6.5 14.5t8.5 11.5t13 10.5t15 9.5t19 9.5q22 13 31 24t9 31q0 24 -20 38.5t-53 14.5q-33 -1 -62 -16l-23 29
q35 24 88 24zM537 748h-60l-86 111l-87 -111h-61l106 149h83zM390.5 709q152.5 0 246 -99.5t93.5 -259.5t-93.5 -259.5t-246 -99.5t-245.5 99.5t-93 259.5t93 259.5t245.5 99.5zM390.5 652q-120.5 0 -192.5 -81.5t-72 -220.5t72 -221t193 -82q79 0 139 36.5t92.5 105.5
t32.5 161q0 139 -72 220.5t-192.5 81.5z" />
    <glyph glyph-name="ocircumflexhookabove" unicode="&#x1ed5;" horiz-adv-x="601" 
d="M442 930q51 0 86 -25.5t35 -64.5q0 -30 -15 -49t-46 -36l-6 -3q-17 -9 -23.5 -13.5t-12 -12.5t-5.5 -19l-1 -16h-44l-1 22q0 14 3.5 24t14 19t18.5 14.5t27 15.5q11 6 18 10.5t12.5 11t8 14t2.5 18.5q0 24 -20.5 38.5t-53.5 14.5q-32 0 -62 -16l-23 29q35 24 88 24z
M447 572h-60l-87 111l-87 -111h-60l106 149h83zM300 510q113 0 181.5 -72t68.5 -187.5t-68.5 -188t-181.5 -72.5t-181.5 72.5t-68.5 187.5q0 76 30.5 135t87.5 92t132 33zM300 462q-83 0 -133.5 -57t-50.5 -154.5t50.5 -154.5t133.5 -57t133.5 57t50.5 154.5t-50.5 154.5
t-133.5 57z" />
    <glyph glyph-name="Ocircumflextilde" unicode="&#x1ed6;" horiz-adv-x="781" 
d="M485 1042l44 -9q-4 -34 -22.5 -53.5t-46.5 -22.5q-27 -2 -65 14q-9 4 -24 11.5t-25 12t-16 4.5q-11 1 -18.5 -8t-15.5 -35l-44 12q14 70 62 74q24 2 79 -24q39 -18 57 -15q22 3 35 39zM537 772h-60l-86 111l-87 -111h-61l106 149h83zM390.5 709q152.5 0 246 -99.5
t93.5 -259.5t-93.5 -259.5t-246 -99.5t-245.5 99.5t-93 259.5t93 259.5t245.5 99.5zM390.5 652q-120.5 0 -192.5 -81.5t-72 -220.5t72 -221t193 -82q79 0 139 36.5t92.5 105.5t32.5 161q0 139 -72 220.5t-192.5 81.5z" />
    <glyph glyph-name="ocircumflextilde" unicode="&#x1ed7;" 
d="M395 831l44 -9q-4 -34 -23 -54t-47 -22q-26 -3 -64 14q-9 4 -24 11.5t-25 12t-17 4.5q-10 1 -17.5 -8t-15.5 -35l-44 11q13 70 62 75q24 2 79 -24q39 -18 56 -16q22 4 36 40zM447 572h-60l-87 111l-87 -111h-60l106 149h83zM300 510q113 0 181.5 -72t68.5 -187.5
t-68.5 -188t-181.5 -72.5t-181.5 72.5t-68.5 187.5q0 76 30.5 135t87.5 92t132 33zM300 462q-83 0 -133.5 -57t-50.5 -155q0 -65 23.5 -113t65 -73t95.5 -25q83 0 133.5 57t50.5 154.5t-50.5 154.5t-133.5 57z" />
    <glyph glyph-name="Ocircumflexdotbelow" unicode="&#x1ed8;" horiz-adv-x="781" 
d="M537 772h-60l-87 111l-86 -111h-61l106 149h83zM390.5 709q152.5 0 246 -99.5t93.5 -259.5t-93.5 -259.5t-246 -99.5t-245.5 99.5t-93 259.5t93 259.5t245.5 99.5zM391 652q-48 0 -89 -13.5t-73.5 -39t-55.5 -62t-35 -84.5t-12 -103q0 -139 72 -221t192.5 -82t192.5 82
t72 221t-72 220.5t-192 81.5zM391 -90q16 0 27 -11.5t11 -26.5t-11 -26.5t-27.5 -11.5t-27 11.5t-10.5 26.5q0 10 4.5 18.5t13.5 14t20 5.5z" />
    <glyph glyph-name="ocircumflexdotbelow" unicode="&#x1ed9;" 
d="M447 572h-60l-87 111l-87 -111h-60l106 149h83zM300 510q113 0 181.5 -72t68.5 -187.5t-68.5 -188t-181.5 -72.5t-181.5 72.5t-68.5 187.5q0 76 30.5 135t87.5 92t132 33zM300 462q-83 0 -133.5 -57t-50.5 -155q0 -65 23.5 -113t65 -73t95.5 -25q83 0 133.5 57t50.5 154
q0 65 -23 113t-64.5 73.5t-96.5 25.5zM300 -90q16 0 27 -11.5t11 -26.5t-11 -26.5t-27 -11.5t-27 11.5t-11 26.5t11 26.5t27 11.5z" />
    <glyph glyph-name="Ohornacute" unicode="&#x1eda;" horiz-adv-x="781" 
d="M412 772h-60l103 149h80zM684 826l53 18q32 -58 28 -113q-4 -48 -35 -77t-83 -30q-13 -1 -27 1q53 -48 81.5 -118.5t28.5 -156.5q0 -160 -93.5 -259.5t-246 -99.5t-245.5 99.5t-93 259.5t93 259.5t246 99.5q88 0 158 -37q32 -15 67 -15q85 -1 92 72q4 45 -24 97z
M390.5 652q-120.5 0 -192.5 -81.5t-72 -220.5t72 -221t193 -82q79 0 139 36.5t92.5 105.5t32.5 161q0 139 -72 220.5t-192.5 81.5z" />
    <glyph glyph-name="ohornacute" unicode="&#x1edb;" 
d="M322 572h-60l103 149h79zM535 626l46 16q32 -59 28 -113q-3 -47 -33 -75.5t-82 -30.5q56 -69 56 -173q0 -115 -68.5 -187.5t-181.5 -72.5t-181.5 72.5t-68.5 188t68.5 187.5t181.5 72q96 0 161 -54q8 -1 16 0q36 2 56.5 21t24.5 51q6 45 -23 98zM300 462
q-83 0 -133.5 -57t-50.5 -154.5t50.5 -154.5t133.5 -57t133.5 57t50.5 154.5t-50.5 154.5t-133.5 57z" />
    <glyph glyph-name="Ohorngrave" unicode="&#x1edc;" horiz-adv-x="781" 
d="M428 772h-60l-122 149h80zM684 826l53 18q32 -58 28 -113q-4 -48 -35 -77t-83 -30q-13 -1 -27 1q53 -48 81.5 -118.5t28.5 -156.5q0 -160 -93.5 -259.5t-246 -99.5t-245.5 99.5t-93 259.5t93 259.5t246 99.5q88 0 158 -37q32 -15 67 -15q85 -1 92 72q4 45 -24 97z
M391 652q-60 0 -109 -21t-83.5 -60t-53.5 -95.5t-19 -125.5q0 -139 72 -221t192.5 -82t192.5 82t72 221t-72 220.5t-192 81.5z" />
    <glyph glyph-name="ohorngrave" unicode="&#x1edd;" 
d="M338 572h-60l-122 149h79zM535 626l46 16q32 -59 28 -113q-3 -47 -33 -75.5t-82 -30.5q56 -69 56 -173q0 -115 -68.5 -187.5t-181.5 -72.5t-181.5 72.5t-68.5 188t68.5 187.5t181.5 72q96 0 161 -54q8 -1 16 0q36 2 56.5 21t24.5 51q6 45 -23 98zM300 462
q-83 0 -133.5 -57t-50.5 -154.5t50.5 -154.5t133.5 -57t133.5 57t50.5 154.5t-50.5 154.5t-133.5 57z" />
    <glyph glyph-name="Ohornhookabove" unicode="&#x1ede;" horiz-adv-x="781" 
d="M402 1012q51 0 86 -25.5t35 -64.5q0 -30 -15 -49t-46 -36q-2 -2 -6 -4q-16 -9 -23 -13.5t-12.5 -12t-5.5 -18.5l-1 -16h-43l-2 21q0 14 3.5 24.5t14 19.5t19 14t26.5 15q23 12 32 23t9 32q0 23 -20 38t-54 14q-32 0 -61 -15l-23 29q35 24 87 24zM684 826l53 18
q32 -58 28 -113q-4 -48 -35 -77t-83 -30q-13 -1 -27 1q53 -48 81.5 -118.5t28.5 -156.5q0 -160 -93.5 -259.5t-246 -99.5t-245.5 99.5t-93 259.5t93 259.5t246 99.5q88 0 158 -37q32 -15 67 -15q85 -1 92 72q4 45 -24 97zM390.5 652q-120.5 0 -192.5 -81.5t-72 -220.5
t72 -221t192.5 -82t192.5 82t72 221t-72 220.5t-192.5 81.5z" />
    <glyph glyph-name="ohornhookabove" unicode="&#x1edf;" 
d="M309 802q51 0 86 -25.5t35 -64.5q0 -30 -15 -49.5t-45 -36.5q-3 -1 -7 -3q-13 -7 -18.5 -10t-11.5 -8.5t-8.5 -11.5t-2.5 -15v-15h-44l-1 21q-1 14 2.5 24.5t14 19.5t19 14t26.5 15q23 12 32 23t9 31q0 24 -20 38.5t-53 14.5t-62 -15l-23 28q35 25 87 25zM535 626l46 16
q32 -59 28 -113q-2 -23 -10 -42t-22.5 -32.5t-35.5 -22t-47 -9.5q56 -69 56 -173q0 -115 -68.5 -187.5t-181.5 -72.5t-181.5 72.5t-68.5 188t68.5 187.5t181.5 72q96 0 161 -54q8 -1 16 0q25 1 42.5 10.5t26.5 25t12 36.5q6 45 -23 98zM300 462q-83 0 -133.5 -57
t-50.5 -154.5t50.5 -154.5t133.5 -57t133.5 57t50.5 154.5t-50.5 154.5t-133.5 57z" />
    <glyph glyph-name="Ohorntilde" unicode="&#x1ee0;" horiz-adv-x="781" 
d="M485 870l44 -9q-4 -34 -22.5 -54t-46.5 -22q-27 -2 -65 14q-9 4 -24 11.5t-25 12t-16 4.5q-6 1 -10 -0.5t-8 -6.5t-8 -14t-8 -22l-44 12q14 70 62 74q24 2 79 -24q39 -18 57 -15q22 3 35 39zM684 826l53 18q32 -59 28 -113q-2 -24 -11 -43t-23.5 -33.5t-36 -22.5
t-47.5 -8q-13 -1 -27 1q35 -32 59.5 -73.5t37.5 -93t13 -108.5q0 -160 -93.5 -259.5t-246 -99.5t-245.5 99.5t-93 259.5t93 259.5t246 99.5q88 0 158 -37q32 -15 67 -15q85 -1 92 72q4 45 -24 97zM390.5 652q-120.5 0 -192.5 -81.5t-72 -220.5t72 -221t192.5 -82t192.5 82
t72 221t-72 220.5t-192.5 81.5z" />
    <glyph glyph-name="ohorntilde" unicode="&#x1ee1;" 
d="M395 670l44 -9q-3 -23 -12.5 -39.5t-24 -25.5t-33.5 -11q-26 -2 -64 14q-9 4 -24 11.5t-25 12t-17 4.5q-10 1 -17.5 -8t-15.5 -35l-44 12q13 70 62 74q24 2 79 -24q39 -18 56 -15q22 3 36 39zM535 626l46 16q32 -59 28 -113q-2 -31 -15.5 -54t-39 -37t-60.5 -15
q56 -69 56 -173q0 -115 -68.5 -187.5t-181.5 -72.5t-181.5 72.5t-68.5 187.5q0 76 30.5 135t87.5 92t132 33q96 0 161 -54q8 -1 16 0q25 1 42.5 10.5t26.5 25t12 36.5q6 45 -23 98zM300 462q-83 0 -133.5 -57t-50.5 -154.5t50.5 -154.5t133.5 -57t133.5 57t50.5 154.5
t-50.5 154.5t-133.5 57z" />
    <glyph glyph-name="Ohorndotbelow" unicode="&#x1ee2;" horiz-adv-x="781" 
d="M684 826l53 18q32 -58 28 -113q-4 -48 -35 -77t-83 -30q-13 -1 -27 1q53 -48 81.5 -118.5t28.5 -156.5q0 -160 -93.5 -259.5t-246 -99.5t-245.5 99.5t-93 259.5t93 259.5t246 99.5q88 0 158 -37q32 -15 67 -15q85 -1 92 72q4 45 -24 97zM391 652q-60 0 -109 -21
t-83.5 -60t-53.5 -95.5t-19 -125.5q0 -139 72 -221t192.5 -82t192.5 82t72 221t-72 220.5t-192 81.5zM391 -90q10 0 19 -5.5t14 -14t5 -18.5q0 -15 -11 -26.5t-27.5 -11.5t-27.5 11.5t-11 26.5t11 26.5t28 11.5z" />
    <glyph glyph-name="ohorndotbelow" unicode="&#x1ee3;" 
d="M535 626l46 16q32 -59 28 -113q-3 -47 -33 -75.5t-82 -30.5q56 -69 56 -173q0 -115 -68.5 -187.5t-181.5 -72.5t-181.5 72.5t-68.5 188t68.5 187.5t181.5 72q96 0 161 -54q8 -1 16 0q36 2 56.5 21t24.5 51q6 45 -23 98zM300 462q-83 0 -133.5 -57t-50.5 -154.5
t50.5 -154.5t133.5 -57t133.5 57t50.5 154q0 65 -23 113t-64.5 73.5t-96.5 25.5zM300 -90q16 0 27 -11.5t11 -26.5t-11 -26.5t-27 -11.5q-11 0 -19.5 5.5t-13.5 14t-5 18.5q0 7 3 14t8 12.5t12 8.5t15 3z" />
    <glyph glyph-name="Udotbelow" unicode="&#x1ee4;" horiz-adv-x="831" 
d="M769 656l-69 -6q-12 -1 -12 -13v-365q0 -127 -74 -204.5t-196 -77.5q-80 0 -141.5 35t-94.5 99t-33 148v365q0 12 -12 13l-64 5q-6 1 -6 7v37h242v-43l-76 -7q-12 -1 -12 -13v-364q0 -105 55 -165t146 -60q92 0 149.5 60t57.5 165v364q0 12 -11 13l-82 7v43h233v-43z
M415 -90q16 0 27 -11.5t11 -26.5t-11 -26.5t-27 -11.5t-27 11.5t-11 26.5t11 26.5t27 11.5z" />
    <glyph glyph-name="udotbelow" unicode="&#x1ee5;" horiz-adv-x="691" 
d="M52 500h140q6 0 6 -7v-329q0 -65 30 -95.5t83 -30.5q85 0 191 66v336q0 12 -12 13l-70 5v42h140q7 0 7 -7v-436q0 -12 12 -13l60 -3v-40l-130 -7q-7 0 -7 7v64q-117 -75 -217 -75q-69 0 -110.5 41t-41.5 122v287q0 12 -11 13l-70 5v42zM346 -90q16 0 27 -11.5t11 -26.5
t-11 -26.5t-27 -11.5t-27 11.5t-11 26.5q0 10 5 18.5t13.5 14t19.5 5.5z" />
    <glyph glyph-name="Uhookabove" unicode="&#x1ee6;" horiz-adv-x="831" 
d="M415 1012q51 0 86 -25.5t35 -64.5q0 -30 -15.5 -49t-45.5 -36q-2 -2 -6 -4q-17 -9 -23.5 -13.5t-12 -12t-5.5 -18.5l-1 -16h-44l-1 21q0 14 3.5 24.5t14 19.5t18.5 14t27 15q22 12 31.5 23t9.5 32q0 23 -20.5 38t-53.5 14q-32 0 -62 -15l-23 29q35 24 88 24zM769 656
l-69 -6q-12 -1 -12 -13v-365q0 -84 -33 -148t-94.5 -99t-142 -35t-142 35t-94.5 99t-33 148v365q0 12 -12 13l-64 5q-6 1 -6 7v37h242v-43l-76 -7q-12 -1 -12 -13v-364q0 -105 55 -165t146 -60q92 0 149.5 60t57.5 165v364q0 12 -11 13l-82 7v43h233v-43z" />
    <glyph glyph-name="uhookabove" unicode="&#x1ee7;" horiz-adv-x="691" 
d="M346 802q25 0 47.5 -7t38.5 -18.5t25.5 -28.5t9.5 -36q0 -30 -15 -49.5t-46 -36.5l-6 -3q-17 -9 -23.5 -13.5t-12 -12t-5.5 -19.5l-1 -15h-44l-1 21q0 14 3.5 24.5t14 19.5t18.5 14t27 15q22 12 31.5 23t9.5 31q0 16 -9 28t-26 18.5t-39 6.5q-32 0 -62 -15l-22 28
q35 25 87 25zM52 500h140q6 0 6 -7v-329q0 -65 30 -95.5t83 -30.5q85 0 191 66v336q0 12 -12 13l-70 5v42h140q7 0 7 -7v-436q0 -12 12 -13l60 -3v-40l-130 -7q-7 0 -7 7v64q-117 -75 -217 -75q-69 0 -110.5 41t-41.5 122v287q0 12 -11 13l-70 5v42z" />
    <glyph glyph-name="Uhornacute" unicode="&#x1ee8;" horiz-adv-x="835" 
d="M438 772h-61l103 149h80zM749 828l38 19q35 -26 48 -62q12 -30 0 -62t-47 -49q-20 -10 -44 -12l-45 -4q-11 -2 -11 -13v-373q0 -126 -74 -203.5t-195.5 -77.5t-195.5 77.5t-74 203.5v366q0 12 -12 12l-64 6q-6 0 -6 6v38h242v-44l-76 -6q-12 -1 -12 -13v-365
q0 -105 55 -165t146 -60q92 0 149.5 60.5t57.5 164.5v365q0 11 -11 12l-82 7v44h201q11 2 22 7q21 11 28 31t-1 41q-11 29 -37 49z" />
    <glyph glyph-name="uhornacute" unicode="&#x1ee9;" horiz-adv-x="691" 
d="M368 572h-60l102 149h80zM587 637l37 17q39 -29 49 -72q7 -33 -7 -61.5t-49 -43.5q-23 -10 -50 -10v-410q0 -12 12 -13l60 -3v-40l-130 -7q-7 0 -7 7v64q-117 -75 -217 -75q-69 0 -110.5 41t-41.5 122v287q0 12 -11 13l-70 5v42h140q6 0 6 -7v-329q0 -65 30 -95.5
t83 -30.5q85 0 191 66v336q0 12 -12 13l-70 5v42l125 -1q25 -1 46 9q12 6 20 14t12 17t5 20t-2 22q-9 31 -39 56z" />
    <glyph glyph-name="Uhorngrave" unicode="&#x1eea;" horiz-adv-x="835" 
d="M453 772h-60l-122 149h80zM749 828l38 19q35 -26 48 -62q12 -30 0 -62t-47 -49q-20 -10 -44 -12l-45 -4q-11 -2 -11 -13v-373q0 -126 -74 -203.5t-195.5 -77.5t-195.5 77.5t-74 203.5v366q0 12 -12 13l-64 5q-6 0 -6 6v38h242v-44l-76 -6q-12 -1 -12 -13v-365
q0 -105 55 -165t146 -60q92 0 149.5 60.5t57.5 164.5v365q0 11 -11 12l-82 7v44h201q11 2 22 7q21 11 28 31t-1 41q-11 29 -37 49z" />
    <glyph glyph-name="uhorngrave" unicode="&#x1eeb;" horiz-adv-x="691" 
d="M384 572h-61l-122 149h80zM587 637l37 17q39 -29 49 -72q4 -16 2 -31.5t-8 -29t-19 -25t-31 -19.5q-23 -10 -50 -10v-410q0 -12 12 -13l60 -3v-40l-130 -7q-7 0 -7 7v64q-117 -75 -217 -75q-69 0 -110.5 41t-41.5 122v287q0 12 -11 13l-70 5v42h140q6 0 6 -7v-329
q0 -65 30 -95.5t83 -30.5q85 0 191 66v336q0 12 -12 13l-70 5v42l125 -1q25 -1 46 9q23 11 32 30.5t3 42.5q-9 31 -39 56z" />
    <glyph glyph-name="Uhornhookabove" unicode="&#x1eec;" horiz-adv-x="835" 
d="M415 1012q51 0 86 -25.5t35 -64.5q0 -30 -15.5 -49t-45.5 -36q-2 -2 -6 -4q-17 -9 -23.5 -13.5t-12 -12t-5.5 -18.5l-1 -16h-44l-1 21q0 14 3.5 24.5t14 19.5t18.5 14t27 15q22 12 31.5 23t9.5 32q0 23 -20.5 38t-53.5 14q-32 0 -62 -15l-23 29q35 24 88 24zM749 828
l38 19q35 -26 48 -62q12 -30 0 -62t-47 -49q-20 -10 -44 -12l-45 -4q-11 -2 -11 -13v-373q0 -126 -74 -203.5t-195.5 -77.5t-195.5 77.5t-74 203.5v366q0 12 -12 13l-64 5q-6 0 -6 6v38h242v-44l-76 -6q-12 -1 -12 -13v-365q0 -105 55 -165t146 -60q92 0 149.5 60.5
t57.5 164.5v365q0 11 -11 12l-82 7v44h201q11 2 22 7q21 11 28 31t-1 41q-11 29 -37 49z" />
    <glyph glyph-name="uhornhookabove" unicode="&#x1eed;" horiz-adv-x="691" 
d="M346 802q25 0 47.5 -7t38.5 -18.5t25.5 -28.5t9.5 -36q0 -30 -15 -49.5t-46 -36.5l-6 -3q-17 -9 -23.5 -13.5t-12 -12t-5.5 -19.5l-1 -15h-44l-1 21q0 14 3.5 24.5t14 19.5t18.5 14t27 15q22 12 31.5 23t9.5 31q0 16 -9 28t-26 18.5t-39 6.5q-32 0 -62 -15l-22 28
q35 25 87 25zM587 637l37 17q39 -29 49 -72q7 -33 -7 -61.5t-49 -43.5q-23 -10 -50 -10v-410q0 -12 12 -13l60 -3v-40l-130 -7q-7 0 -7 7v64q-117 -75 -217 -75q-69 0 -110.5 41t-41.5 122v287q0 12 -11 13l-70 5v42h140q6 0 6 -7v-329q0 -65 30 -95.5t83 -30.5q85 0 191 66
v336q0 12 -12 13l-70 5v42l125 -1q25 -1 46 9q23 11 32 30.5t3 42.5q-9 31 -39 56z" />
    <glyph glyph-name="Uhorntilde" unicode="&#x1eee;" horiz-adv-x="835" 
d="M510 870l44 -9q-4 -34 -22.5 -54t-46.5 -22q-26 -2 -64 14q-10 4 -25 11.5t-25 12t-16 4.5q-11 1 -18.5 -8t-15.5 -35l-44 12q14 70 62 74q24 2 79 -24q39 -18 57 -15q22 3 35 39zM749 828l38 19q35 -26 48 -62q12 -30 0 -62t-47 -49q-20 -10 -44 -12l-45 -5
q-11 -1 -11 -12v-373q0 -126 -74 -203.5t-195.5 -77.5t-195.5 77.5t-74 203.5v366q0 12 -12 12l-64 6q-6 0 -6 6v38h242v-44l-76 -6q-12 -1 -12 -13v-365q0 -105 55 -165t146 -60q92 0 149.5 60.5t57.5 164.5v365q0 11 -11 12l-82 7v44h201q11 2 22 7q21 11 28 31t-1 41
q-11 29 -37 49z" />
    <glyph glyph-name="uhorntilde" unicode="&#x1eef;" horiz-adv-x="691" 
d="M440 670l45 -9q-3 -23 -12.5 -39.5t-24.5 -25.5t-33 -11q-26 -2 -64 14q-9 4 -24 11.5t-25.5 12t-16.5 4.5q-10 1 -18 -8t-16 -35l-44 12q14 70 63 74q23 2 78 -24q39 -18 57 -15q22 3 35 39zM587 637l37 17q39 -29 49 -72q4 -16 2 -31.5t-8 -29t-19 -25t-31 -19.5
q-23 -10 -50 -10v-410q0 -12 12 -13l60 -3v-40l-130 -7q-7 0 -7 7v64q-117 -75 -217 -75q-69 0 -110.5 41t-41.5 122v287q0 12 -11 13l-70 5v42h140q6 0 6 -7v-329q0 -65 30 -95.5t83 -30.5q85 0 191 66v336q0 12 -12 13l-70 5v42l125 -1q25 -1 46 9q23 11 32 30.5t3 41.5
q-9 32 -39 57z" />
    <glyph glyph-name="Uhorndotbelow" unicode="&#x1ef0;" horiz-adv-x="835" 
d="M749 828l38 19q35 -26 48 -62q12 -30 0 -62t-47 -49q-20 -10 -44 -12l-45 -4q-11 -2 -11 -13v-373q0 -83 -33 -147t-94.5 -99t-142.5 -35q-121 0 -195 77.5t-74 203.5v366q0 12 -12 12l-64 6q-6 0 -6 6v38h242v-44l-76 -6q-12 -1 -12 -13v-365q0 -105 55 -165t146 -60
q92 0 149.5 60.5t57.5 164.5v365q0 11 -11 12l-82 7v44h201q11 2 22 7q21 11 28 31t-1 41q-10 29 -37 49zM415 -90q16 0 27 -11.5t11 -26.5t-11 -26.5t-27 -11.5t-27 11.5t-11 26.5q0 7 2.5 14t7.5 12.5t12.5 8.5t15.5 3z" />
    <glyph glyph-name="uhorndotbelow" unicode="&#x1ef1;" horiz-adv-x="691" 
d="M587 637l37 17q39 -29 49 -72q7 -33 -7 -61.5t-49 -43.5q-23 -10 -50 -10v-410q0 -12 12 -13l60 -3v-40l-130 -7q-7 0 -7 7v64q-117 -75 -217 -75q-69 0 -110.5 41t-41.5 122v287q0 12 -11 13l-70 5v42h140q6 0 6 -7v-329q0 -65 30 -95.5t83 -30.5q85 0 191 66v336
q0 12 -12 13l-70 5v42l125 -1q25 -1 46 9q12 6 20 14t12 17t5 20t-2 22q-9 31 -39 56zM346 -90q11 0 19.5 -5.5t13.5 -14t5 -18.5q0 -15 -11 -26.5t-27 -11.5q-11 0 -19.5 5.5t-13.5 14t-5 18.5q0 6 2 11.5t5.5 10.5t8 8.5t10.5 5.5t12 2z" />
    <glyph glyph-name="Ygrave" unicode="&#x1ef2;" horiz-adv-x="689" 
d="M382 772h-60l-122 149h79zM663 656l-52 -4l-226 -403v-187q0 -12 12 -13l69 -5v-44h-233v38q0 6 6 6l63 5q12 1 12 13v180l-229 404q-3 5 -9 6l-44 4q-6 0 -6 6v38h108l221 -390l179 318q4 8 0 15t-13 8l-68 6q-6 0 -6 6v37h216v-44z" />
    <glyph glyph-name="ygrave" unicode="&#x1ef3;" horiz-adv-x="561" 
d="M320 572h-60l-122 149h80zM544 459l-54 -5l-258 -649q-2 -3 -6 -3h-143v41l106 8q7 0 10 8l55 137h-12l-177 452q-3 6 -10 7l-32 3q-6 1 -6 7v35h97l166 -438l148 371q2 7 -1.5 13t-11.5 7l-67 5q-5 1 -5 7v35h201v-41z" />
    <glyph glyph-name="Ydotbelow" unicode="&#x1ef4;" horiz-adv-x="689" 
d="M663 656l-52 -4l-226 -403v-187q0 -12 12 -13l69 -5v-44h-233v38q0 6 6 6l63 5q12 1 12 13v180l-229 404q-3 5 -9 6l-44 4q-6 0 -6 6v38h108l221 -390l179 318q4 8 0 15t-13 8l-68 6q-6 0 -6 6v37h216v-44zM345 -90q16 0 27 -11.5t11 -26.5t-11 -26.5t-27 -11.5
q-11 0 -20 5.5t-13.5 14t-4.5 18.5q0 15 11 26.5t27 11.5z" />
    <glyph glyph-name="ydotbelow" unicode="&#x1ef5;" horiz-adv-x="561" 
d="M544 459l-54 -5l-258 -649q-2 -3 -6 -3h-143v41l106 8q7 0 10 8l55 137h-12l-177 452q-3 6 -10 7l-32 3q-6 1 -6 7v35h97l166 -438l148 371q2 7 -1.5 13t-11.5 7l-67 5q-5 1 -5 7v35h201v-41zM330 -90q16 0 27.5 -11.5t11.5 -26.5t-11.5 -26.5t-27.5 -11.5t-27 11.5
t-11 26.5t11 26.5t27 11.5z" />
    <glyph glyph-name="Yhookabove" unicode="&#x1ef6;" horiz-adv-x="689" 
d="M363 1012q51 0 86 -25.5t35 -64.5q0 -21 -8 -37t-20 -26.5t-32 -21.5q-3 -2 -7 -4q-16 -9 -23 -13.5t-12 -12t-6 -18.5v-16h-44l-1 21q-1 14 2.5 24.5t14 19.5t19 14t26.5 15q23 12 32 23t9 32q0 23 -20 38t-53 14q-33 0 -62 -15l-23 29q35 24 87 24zM663 656l-52 -4
l-226 -403v-187q0 -12 12 -13l69 -5v-44h-233v38q0 6 6 6l63 5q12 1 12 13v180l-229 404q-3 5 -9 6l-44 4q-6 0 -6 6v38h108l221 -390l179 318q4 8 0 15t-13 8l-68 6q-6 0 -6 6v37h216v-44z" />
    <glyph glyph-name="yhookabove" unicode="&#x1ef7;" horiz-adv-x="561" 
d="M281 802q51 0 86 -25.5t35 -64.5q0 -30 -15 -49.5t-46 -36.5l-6 -3q-17 -9 -23.5 -13.5t-12 -12t-5.5 -19.5l-1 -15h-44l-1 21q0 14 3.5 24.5t14 19.5t18.5 14t27 15q22 12 31.5 23t9.5 31q0 24 -20.5 38.5t-53.5 14.5q-32 0 -62 -15l-23 28q35 25 88 25zM544 459l-54 -5
l-258 -649q-2 -3 -6 -3h-143v41l106 8q7 0 10 8l55 137h-12l-177 452q-3 6 -10 7l-32 3q-6 1 -6 7v35h97l166 -438l148 371q2 7 -1.5 13t-11.5 7l-67 5q-5 1 -5 7v35h201v-41z" />
    <glyph glyph-name="Ytilde" unicode="&#x1ef8;" horiz-adv-x="689" 
d="M439 870l44 -9q-4 -34 -23 -54t-47 -22q-26 -2 -64 14q-9 4 -24 11.5t-25 12t-17 4.5q-10 1 -17.5 -8t-15.5 -35l-45 12q14 70 63 74q24 2 79 -24q39 -18 56 -15q22 3 36 39zM663 656l-52 -4l-226 -403v-187q0 -12 12 -13l69 -5v-44h-233v38q0 6 6 6l63 5q12 1 12 13v180
l-229 404q-3 5 -9 6l-44 4q-6 0 -6 6v38h108l221 -390l179 318q4 8 0 15t-13 8l-68 6q-6 0 -6 6v37h216v-44z" />
    <glyph glyph-name="ytilde" unicode="&#x1ef9;" horiz-adv-x="561" 
d="M377 670l45 -9q-3 -23 -13 -39.5t-24.5 -25.5t-32.5 -11q-26 -2 -64 14q-10 4 -25 11.5t-25 12t-16 4.5q-11 1 -18.5 -8t-15.5 -35l-44 12q14 70 62 74q24 2 79 -24q39 -18 57 -15q22 3 35 39zM544 459l-54 -5l-258 -649q-2 -3 -6 -3h-143v41l106 8q7 0 10 8l55 137h-12
l-177 452q-3 6 -10 7l-32 3q-6 1 -6 7v35h97l166 -438l148 371q2 7 -1.5 13t-11.5 7l-67 5q-5 1 -5 7v35h201v-41z" />
    <glyph glyph-name="endash" unicode="&#x2013;" horiz-adv-x="481" 
d="M436 221h-392v56h392v-56z" />
    <glyph glyph-name="emdash" unicode="&#x2014;" horiz-adv-x="690" 
d="M645 221h-601v56h601v-56z" />
    <glyph glyph-name="quoteleft" unicode="&#x2018;" horiz-adv-x="169" 
d="M115 729l27 -17q-33 -49 -42 -97q-4 -24 2 -39l3 -1q8 -2 14.5 -8t10 -13.5t3.5 -16.5q0 -16 -11.5 -28t-28.5 -12q-16 0 -27 8.5t-16 22.5t-5.5 33t4.5 41q16 72 66 127z" />
    <glyph glyph-name="quoteright" unicode="&#x2019;" horiz-adv-x="169" 
d="M76 729q31 0 42.5 -30.5t1.5 -74.5q-15 -72 -66 -127l-26 17q33 49 41 98q4 23 -2 37l-1 1q-13 3 -21.5 14t-8.5 24q0 11 5 20t14.5 15t20.5 6z" />
    <glyph glyph-name="quotesinglbase" unicode="&#x201a;" horiz-adv-x="169" 
d="M76 75q31 0 42.5 -30.5t1.5 -74.5q-15 -73 -65 -127l-27 16q34 53 42 101q4 23 -3 36h-2q-13 4 -21 14.5t-8 23.5q0 16 11.5 28t28.5 13z" />
    <glyph glyph-name="quotedblleft" unicode="&#x201c;" horiz-adv-x="322" 
d="M115 729l26 -17q-32 -48 -41 -96q-4 -25 2 -40l3 -1q8 -2 14.5 -7.5t10 -13.5t3.5 -17q0 -10 -5 -19.5t-14.5 -15t-20.5 -5.5q-31 0 -42.5 30.5t-1.5 74.5q15 72 66 127zM268 729l27 -17q-34 -51 -42 -99q-4 -24 3 -37l2 -1q13 -3 21 -14t8 -24q0 -16 -12 -28t-29 -12
q-31 0 -42.5 30.5t-1.5 74.5q16 72 66 127z" />
    <glyph glyph-name="quotedblright" unicode="&#x201d;" horiz-adv-x="323" 
d="M76 729q31 0 42.5 -30.5t1.5 -74.5q-15 -72 -65 -127l-27 17q31 47 40 93q5 26 -1 41l-1 2q-13 3 -21.5 14t-8.5 24q0 17 11.5 29t28.5 12zM230 729q20 0 32.5 -14.5t14.5 -38t-4 -52.5q-15 -72 -65 -127l-27 17q32 47 41 95q4 24 -2 39l-1 2q-13 3 -21.5 14t-8.5 24
q0 17 12 29t29 12z" />
    <glyph glyph-name="quotedblbase" unicode="&#x201e;" horiz-adv-x="322" 
d="M230 75q30 0 42 -30.5t1 -74.5q-15 -73 -65 -127l-27 16q32 48 41 96q5 25 -2 40l-1 1q-13 3 -21.5 14t-8.5 24q0 11 5.5 20t14.5 14.5t21 6.5zM76 75q31 0 42.5 -30.5t1.5 -74.5q-15 -73 -65 -127l-27 16q35 53 42 103q4 21 -3 34h-2q-13 3 -21 14t-8 24q0 16 11.5 28
t28.5 13z" />
    <glyph glyph-name="dagger" unicode="&#x2020;" horiz-adv-x="516" 
d="M290 500h182v-57h-182l4 -541h-72l5 541h-183v57h182l-4 213h72z" />
    <glyph glyph-name="daggerdbl" unicode="&#x2021;" horiz-adv-x="516" 
d="M290 500h182v-57h-181l-1 -271h182v-57h-181l3 -213h-72l3 213h-181v57h182l-1 271h-181v57h182l-4 213h72z" />
    <glyph glyph-name="bullet" unicode="&#x2022;" horiz-adv-x="278" 
d="M139 379q39 0 66.5 -27.5t27.5 -66.5t-27.5 -66.5t-66.5 -27.5t-67 27.5t-28 66.5t28 66.5t67 27.5z" />
    <glyph glyph-name="ellipsis" unicode="&#x2026;" horiz-adv-x="506" 
d="M85 75q17 0 28.5 -12.5t11.5 -28.5t-11.5 -28t-28.5 -12t-29 12t-12 28t12 28.5t29 12.5zM252.5 75q16.5 0 28.5 -12.5t12 -28.5t-11.5 -28t-29 -12t-29 12t-11.5 28t12 28.5t28.5 12.5zM421 75q17 0 28.5 -12.5t11.5 -28.5t-11.5 -28t-28.5 -12t-28.5 12t-11.5 28
t11.5 28.5t28.5 12.5z" />
    <glyph glyph-name="perthousand" unicode="&#x2030;" horiz-adv-x="1292" 
d="M299 -17h-64l361 734h64zM206 706q36 0 66.5 -15t51 -42t32 -65t11.5 -84q0 -92 -44 -149t-117 -57q-49 0 -85.5 26t-56.5 72.5t-20 107.5q0 93 44 149.5t118 56.5zM205.5 665q-45.5 0 -75 -43.5t-29.5 -121.5t29.5 -121t75 -43t75 43t29.5 121t-29.5 121.5t-75 43.5z
M695 406q48 0 85 -26t56.5 -72.5t19.5 -107.5t-19.5 -107.5t-56.5 -72.5t-85 -26q-74 0 -118 57t-44 149t44 149t118 57zM1086 406q49 0 85.5 -26t56 -72.5t19.5 -107.5q0 -92 -44 -149t-117 -57t-117.5 57t-44.5 149t44.5 149t117.5 57zM695 364q-30 0 -53 -18t-37 -56
t-14 -90q0 -78 29 -121.5t75 -43.5t75 43.5t29 121.5t-29 121t-75 43zM1086 364q-30 0 -53 -18t-37 -56t-14 -90t14 -90t37 -56.5t53 -18.5q46 0 75 43.5t29 121.5t-29 121t-75 43z" />
    <glyph glyph-name="guilsinglleft" unicode="&#x2039;" horiz-adv-x="276" 
d="M117 251l129 -175h-67l-135 175l135 176h67z" />
    <glyph glyph-name="guilsinglright" unicode="&#x203a;" horiz-adv-x="276" 
d="M232 251l-135 -175h-67l129 175l-129 176h67z" />
    <glyph glyph-name="fraction" unicode="&#x2044;" horiz-adv-x="505" 
d="M104 -17h-64l361 734h64z" />
    <glyph glyph-name="zerosuperior" unicode="&#x2070;" horiz-adv-x="403" 
d="M201.5 746q73.5 0 117.5 -56.5t44 -147.5q0 -59 -19.5 -105.5t-56.5 -72t-85 -25.5q-74 0 -118 56.5t-44 147t44 147t117.5 56.5zM201.5 706q-46.5 0 -75.5 -43t-29 -121t29 -120.5t75.5 -42.5t75.5 42.5t29 120.5t-29 121t-75.5 43z" />
    <glyph glyph-name="foursuperior" unicode="&#x2074;" horiz-adv-x="312" 
d="M67 476h114l5 156q1 5 5 5h37v-161h54v-35h-54v-55q0 -8 7 -9l39 -3v-30h-150v26q0 4 4 4l39 4q8 0 8 8v55h-166v26l123 273h53z" />
    <glyph glyph-name="fivesuperior" unicode="&#x2075;" horiz-adv-x="308" 
d="M264 702h-150l-11 -131q21 8 47 8q59 0 94 -32.5t35 -86.5q0 -59 -39.5 -90.5t-97.5 -31.5q-52 0 -106 27q-4 2 -4 7v73h39l4 -48q0 -5 5 -7q29 -13 59 -13q37 0 60 20.5t23 62.5q0 39 -21.5 60t-60.5 21q-34 0 -59 -21l-35 12l19 208h199v-38z" />
    <glyph glyph-name="sixsuperior" unicode="&#x2076;" horiz-adv-x="330" 
d="M199 746q47 0 87 -26l-16 -35q-39 23 -68 23q-26 1 -47.5 -14t-36.5 -47.5t-18 -78.5v-5q30 37 85 35q56 -2 89.5 -39t31.5 -94t-36 -92t-88 -34q-68 2 -106.5 59.5t-35.5 148.5q3 94 48.5 147t110.5 52zM178 560q-33 1 -54 -17.5t-26 -54.5q7 -51 30 -80.5t56 -30.5
q31 -1 50 22.5t20.5 66.5t-19.5 68t-57 26z" />
    <glyph glyph-name="sevensuperior" unicode="&#x2077;" horiz-adv-x="301" 
d="M292 740v-32q-47 -58 -91 -161q-43 -100 -61 -203h-57q18 106 67 216q32 72 71 130q3 4 1 8t-8 4h-131q-9 0 -10 -9l-3 -41h-38v83q0 5 5 5h255z" />
    <glyph glyph-name="eightsuperior" unicode="&#x2078;" horiz-adv-x="349" 
d="M176 746q38 0 68 -14t46 -38t16 -55q0 -66 -62 -92q32 -13 50.5 -38t18.5 -59q0 -49 -38 -80.5t-99 -31.5t-98.5 31.5t-37.5 80.5q0 34 18 59t51 38q-63 26 -63 92q0 47 36 77t94 30zM176 708q-35 0 -54.5 -18.5t-19.5 -52t19.5 -52t54.5 -18.5t54.5 18.5t19.5 51.5
q0 10 -1.5 18.5t-5 16t-8 13t-10.5 10t-13.5 7.5t-16.5 4.5t-19 1.5zM176 528q-38 0 -59.5 -19.5t-21.5 -55.5q0 -24 10 -41t28 -26t43 -9t43.5 9t28 26t9.5 41q0 36 -21.5 55.5t-59.5 19.5z" />
    <glyph glyph-name="ninesuperior" unicode="&#x2079;" horiz-adv-x="334" 
d="M155 746q68 -2 106.5 -59.5t35.5 -148.5q-3 -94 -48.5 -147t-110.5 -52q-45 0 -87 26l16 35q40 -23 68 -23q40 -1 69 35.5t33 105.5v4q-30 -37 -85 -35q-37 1 -65 18.5t-42.5 47.5t-13.5 67q2 57 36.5 92.5t87.5 33.5zM153 708q-30 1 -49.5 -22.5t-21 -66.5t19.5 -68
t57 -26q22 0 38.5 7.5t27.5 24t15 41.5q-8 51 -31 80t-56 30z" />
    <glyph glyph-name="zeroinferior" unicode="&#x2080;" horiz-adv-x="403" 
d="M201.5 251q73.5 0 117.5 -56t44 -147t-44 -147.5t-117.5 -56.5t-117.5 56.5t-44 147.5t44 147t117.5 56zM201.5 211q-46.5 0 -75.5 -42.5t-29 -121t29 -121t75.5 -42.5t75.5 42.5t29 121t-29 121t-75.5 42.5z" />
    <glyph glyph-name="oneinferior" unicode="&#x2081;" horiz-adv-x="247" 
d="M161 246v-352q0 -9 7 -9l39 -3v-32h-156v27q0 5 4 5l41 4q8 0 8 9v283q0 5 -3.5 6.5t-6.5 -0.5l-45 -31l-18 35l84 58h46z" />
    <glyph glyph-name="twoinferior" unicode="&#x2082;" horiz-adv-x="313" 
d="M162 252q30 0 56.5 -10.5t39.5 -30.5q48 -71 -51 -205q-33 -44 -105 -118h132q8 0 9 7l3 42h34v-87h-249v27q0 3 2 3q87 89 129 148q77 107 50 159q-15 27 -54 27q-56 0 -71 -51l-51 7q9 38 45.5 60t80.5 22z" />
    <glyph glyph-name="threeinferior" unicode="&#x2083;" horiz-adv-x="323" 
d="M153 251q33 1 60.5 -10.5t45.5 -35.5t18 -55q0 -15 -4.5 -29t-13 -25t-20.5 -20t-27 -15q34 -13 53 -39t19 -62q0 -56 -41.5 -86t-97.5 -30q-64 0 -114 33l17 31q45 -25 91 -25q40 0 64 19t24 61q0 37 -21.5 57t-60.5 20h-45v38h45q37 0 57 17.5t20 50.5q0 34 -20.5 51
t-52.5 17t-59 -16q-4 -2 -4 -7l-4 -52h-36v75q0 2 2 4q44 33 105 33z" />
    <glyph glyph-name="fourinferior" unicode="&#x2084;" horiz-adv-x="333" 
d="M89 -18h113l6 156q0 5 5 5h36v-161h54v-35h-54v-55q0 -8 8 -8l38 -4v-30h-150v26q0 5 5 5l39 3q8 0 8 9v54h-166v26l122 273h54z" />
    <glyph glyph-name="fiveinferior" unicode="&#x2085;" horiz-adv-x="315" 
d="M272 208h-151l-11 -131q21 8 47 8q59 -1 94 -33t35 -87q0 -58 -40 -89.5t-97 -31.5q-52 0 -106 27q-4 2 -4 6v74h40l3 -48q1 -4 5 -7q29 -13 59 -13q24 0 42 8t29.5 27t11.5 48q0 39 -21.5 60t-59.5 21q-35 0 -60 -21l-34 12l18 208h200v-38z" />
    <glyph glyph-name="sixinferior" unicode="&#x2086;" horiz-adv-x="330" 
d="M199 252q46 0 87 -26l-16 -35q-39 23 -68 24q-40 0 -69 -36.5t-33 -104.5v-5q30 37 85 35q56 -2 89.5 -39t31.5 -94t-36 -92t-88 -34q-68 2 -106.5 60t-35.5 148q3 94 48.5 147t110.5 52zM178 66q-33 1 -54 -17.5t-26 -54.5q7 -52 30 -80.5t56 -30.5q30 -1 49.5 22.5
t21.5 66.5q1 43 -20 68t-57 26z" />
    <glyph glyph-name="seveninferior" unicode="&#x2087;" horiz-adv-x="301" 
d="M292 246v-32q-47 -58 -91 -161q-43 -100 -61 -203h-57q18 106 67 216q32 72 71 130q3 4 1 8t-8 4h-131q-9 0 -10 -9l-3 -41h-38v83q0 5 5 5h255z" />
    <glyph glyph-name="eightinferior" unicode="&#x2088;" horiz-adv-x="352" 
d="M176 252q38 0 68 -14t46 -38.5t16 -54.5q0 -66 -62 -92q21 -9 36.5 -23t24 -33t8.5 -41q0 -49 -38 -80.5t-99 -31.5t-98.5 31.5t-37.5 80.5q0 34 18 59t51 38q-63 26 -63 92q0 46 36 76.5t94 30.5zM176 214q-35 0 -54.5 -18.5t-19.5 -52.5t19.5 -52t54.5 -18t54.5 18
t19.5 52t-19.5 52.5t-54.5 18.5zM176 33q-38 0 -59.5 -19t-21.5 -55t21.5 -56t59.5 -20q25 0 43.5 8.5t28 26t9.5 41.5q0 36 -21.5 55t-59.5 19z" />
    <glyph glyph-name="nineinferior" unicode="&#x2089;" horiz-adv-x="337" 
d="M155 252q68 -2 106.5 -59.5t35.5 -148.5q-3 -94 -48.5 -147t-110.5 -52q-45 0 -87 26l16 35q39 -23 68 -23q40 -1 69 35.5t33 105.5v4q-30 -37 -85 -35q-56 2 -89.5 39.5t-31.5 94.5q2 56 36.5 91.5t87.5 33.5zM153 214q-30 1 -49.5 -22.5t-21 -66.5t19.5 -68t57 -26
q33 -1 54 17.5t27 55.5q-8 51 -31 80t-56 30z" />
    <glyph glyph-name="Euro" unicode="&#x20ac;" horiz-adv-x="710" 
d="M649 115l25 -48q-89 -76 -221 -76q-124 0 -210 67t-116 182h-85v46h76q-4 31 -4 64q0 22 2 43h-74v46h80q25 123 113.5 196.5t217.5 73.5q117 0 202 -61q3 -2 3 -5v-127h-43l-7 87q0 6 -6 8q-66 41 -149 41q-99 0 -166.5 -56.5t-89.5 -156.5h325v-46h-332q-2 -21 -2 -43
q0 -33 5 -64h273v-46h-264q26 -92 93 -142.5t162 -50.5q108 1 192 68z" />
    <glyph glyph-name="trademark" unicode="&#x2122;" horiz-adv-x="945" 
d="M49 700h318q5 0 5 -4v-80h-36l-3 39q-1 8 -9 8h-90v-300q0 -8 7 -8l35 -4v-29h-137v23q0 4 4 5l32 4q7 1 7 9v300h-90q-8 0 -9 -8l-3 -39h-36v80q0 4 5 4zM658 407l110 293h95v-29l-31 -3q-9 -1 -8 -10l41 -303l36 -3v-30h-139v30l42 3q9 1 8 10l-32 247l-108 -290h-35
l-110 291l-35 -257l52 -4v-30h-135v26q0 4 4 4l28 2q6 1 7 7l40 297q1 9 -8 10l-27 2q-4 1 -4 4v26h97z" />
    <glyph glyph-name="uni2155" unicode="&#x2155;" horiz-adv-x="805" 
d="M239 -17h-64l361 734h64zM174 700v-353q0 -7 8 -8l38 -3v-32h-156v27q0 5 5 5l41 3q7 1 7 9v284q0 4 -3 6t-7 -1l-44 -30l-19 35l85 58h45zM746 358h-150l-11 -131q21 8 47 8q39 0 68 -14.5t45 -41.5t16 -63q0 -59 -39.5 -90.5t-97.5 -31.5q-52 0 -106 26q-4 3 -4 7v74
h39l4 -48q0 -5 5 -7q29 -13 59 -13q37 0 60 20.5t23 62.5q0 39 -21.5 60t-60.5 21q-34 0 -59 -21l-35 12l19 208h199v-38z" />
    <glyph glyph-name="uni2156" unicode="&#x2156;" horiz-adv-x="868" 
d="M301 -17h-64l361 734h64zM175 706q31 0 57.5 -11t39.5 -30q47 -71 -52 -206q-30 -41 -104 -118h132q8 0 8 8l4 41h34v-86h-249v27q0 2 1 3q88 89 129 147q78 108 50 160q-15 27 -53 27q-57 0 -72 -51l-51 7q10 38 46.5 60t79.5 22zM809 358h-150l-12 -131q21 8 48 8
q39 0 68 -14.5t45 -41.5t16 -63q0 -59 -40 -90.5t-97 -31.5q-52 0 -106 26q-5 3 -5 7v74h40l4 -48q0 -5 4 -7q29 -13 60 -13q37 0 60 20.5t23 62.5q0 39 -22 60t-60 21q-34 0 -60 -21l-34 12l18 208h200v-38z" />
    <glyph glyph-name="uni2157" unicode="&#x2157;" horiz-adv-x="836" 
d="M270 -17h-64l361 734h64zM167 706q50 0 86.5 -27.5t36.5 -74.5q0 -30 -17 -53.5t-48 -35.5q34 -12 53 -38.5t19 -61.5q0 -57 -41 -87t-98 -30q-64 0 -114 33l17 31q45 -24 92 -24q25 0 44 7t31 25.5t12 46.5q0 38 -21.5 58t-60.5 20h-44v37h45q36 0 56 17.5t20 50.5
q0 34 -20.5 51.5t-52.5 17t-58 -16.5q-4 -2 -5 -7l-4 -52h-36v75q0 3 2 4q45 34 106 34zM777 358h-150l-11 -131q21 8 47 8q59 -1 94 -33t35 -86q0 -59 -39.5 -90.5t-97.5 -31.5q-52 0 -106 26q-4 3 -4 7v74h40l3 -48q1 -5 5 -7q29 -13 59 -13q37 0 60 20.5t23 62.5
q0 39 -21.5 60t-60.5 21q-34 0 -59 -21l-35 12l19 208h199v-38z" />
    </font>
</defs>
</svg>
