<?xml version="1.0" standalone="no"?>
<!DOCTYPE svg PUBLIC "-//W3C//DTD SVG 1.1//EN" "http://www.w3.org/Graphics/SVG/1.1/DTD/svg11.dtd" >
<svg xmlns="http://www.w3.org/2000/svg" xmlns:xlink="http://www.w3.org/1999/xlink" version="1.1">
<metadata>
Created by FontForge 20170731 at Wed Feb 19 12:07:45 2014
 By ,,,
Copyright (c) 2013 by Jonathan Hill. All rights reserved.
</metadata>
<defs>
<font id="Modum-Medium" horiz-adv-x="565" vert-adv-y="1000" >
  <font-face 
    font-family="Modum Medium"
    font-weight="500"
    font-stretch="normal"
    units-per-em="1000"
    panose-1="0 0 6 0 0 0 0 0 0 0"
    ascent="750"
    descent="-250"
    x-height="499"
    cap-height="700"
    bbox="-18 -227 1511 1130"
    underline-thickness="50"
    underline-position="-200"
    unicode-range="U+0020-FE6B"
  />
<missing-glyph horiz-adv-x="500" 
d="M0 0v700h500v-700h-500zM250 395l170 255h-340zM280 350l170 -255v510zM80 50h340l-170 255zM50 605v-510l170 255z" />
    <glyph glyph-name="fi" unicode="fi" horiz-adv-x="776" 
d="M295 749q81 0 146 -42l-23 -55q-58 32 -111 32q-21 0 -39 -6.5t-32 -18.5t-22 -31t-8 -44v-84h425q8 0 8 -7v-419q0 -13 13 -14l70 -6v-54h-245v48q0 7 6 7l55 5q13 1 13 14v351q0 13 -14 14l-155 8l-176 -9v-364q0 -13 13 -14l66 -6v-54h-227v48q0 7 6 7l41 4
q13 1 13 14v365l-60 4q-6 0 -6 7v51h66v90q0 77 51 118t126 41z" />
    <glyph glyph-name="fl" unicode="fl" horiz-adv-x="768" 
d="M378 736l253 14q8 0 8 -8v-668q0 -13 13 -14l70 -6v-54h-243v48q0 7 6 7l53 5q13 1 13 14v597q0 14 -14 14l-135 2l-16 -20q-44 17 -79 17q-29 0 -51 -10.5t-36 -33.5t-14 -56v-84h140v-55l-140 -7v-364q0 -13 13 -14l66 -6v-54h-227v48q0 7 6 7l41 4q13 1 13 14v365
l-60 4q-6 0 -6 7v51h66v90q0 77 51 118t126 41q42 0 83 -13z" />
    <glyph glyph-name="f_f" unicode="ff" horiz-adv-x="832" 
d="M710 749q81 0 147 -42l-24 -55q-57 32 -110 32q-44 -1 -73 -26t-29 -74v-84h141v-55l-141 -7v-364q0 -13 13 -14l67 -6v-54h-227v48q0 7 6 7l41 4q12 1 12 14v365l-158 9l-169 -9v-364q0 -13 13 -14l66 -6v-54h-227v48q0 7 6 7l41 4q13 1 13 14v365l-60 4q-6 0 -6 7v51
h66v90q0 77 51 118t126 41q81 0 146 -42l-23 -55q-58 32 -111 32q-21 0 -39 -6.5t-32 -18.5t-22 -31t-8 -44v-84h327v90q0 77 51.5 118t125.5 41z" />
    <glyph glyph-name="f_f_i" unicode="ffi" horiz-adv-x="1192" 
d="M710 749q81 0 147 -42l-24 -55q-57 32 -110 32q-29 0 -51.5 -10.5t-36.5 -33.5t-14 -56v-84h426q7 0 7 -7v-419q0 -13 13 -14l71 -6v-54h-245v48q0 7 6 7l54 5q13 1 13 14v351q0 13 -13 14l-155 8l-177 -9v-364q0 -13 13 -14l67 -6v-54h-227v48q0 7 6 7l41 4q12 1 12 14
v365l-158 9l-169 -9v-364q0 -13 13 -14l66 -6v-54h-227v48q0 7 6 7l41 4q13 1 13 14v365l-60 4q-6 0 -6 7v51h66v90q0 77 51 118t126 41q81 0 146 -42l-23 -55q-58 32 -111 32q-21 0 -39 -6.5t-32 -18.5t-22 -31t-8 -44v-84h327v90q0 77 51.5 118t125.5 41z" />
    <glyph glyph-name="f_f_l" unicode="ffl" horiz-adv-x="1184" 
d="M794 736l253 14q7 0 7 -8v-668q0 -13 13 -14l71 -6v-54h-243v48q0 7 6 7l52 5q13 1 13 14v597q0 14 -13 14l-136 2l-15 -20q-44 17 -79 17q-44 -1 -73 -26t-29 -74v-84h141v-55l-141 -7v-364q0 -13 13 -14l67 -6v-54h-227v48q0 7 6 7l41 4q12 1 12 14v365l-158 9l-169 -9
v-364q0 -13 13 -14l66 -6v-54h-227v48q0 7 6 7l41 4q13 1 13 14v365l-60 4q-6 0 -6 7v51h66v90q0 77 51 118t126 41q81 0 146 -42l-23 -55q-58 32 -111 32q-21 0 -39 -6.5t-32 -18.5t-22 -31t-8 -44v-84h327v90q0 77 51.5 118t125.5 41q43 0 84 -13z" />
    <glyph glyph-name=".notdef" horiz-adv-x="500" 
d="M0 0v700h500v-700h-500zM250 395l170 255h-340zM280 350l170 -255v510zM80 50h340l-170 255zM50 605v-510l170 255z" />
    <glyph glyph-name=".null" horiz-adv-x="0" vert-adv-y="0" 
 />
    <glyph glyph-name="nonmarkingreturn" horiz-adv-x="333" 
 />
    <glyph glyph-name="space" unicode=" " horiz-adv-x="300" 
 />
    <glyph glyph-name="exclam" unicode="!" horiz-adv-x="188" 
d="M133 211h-78l-9 489h96zM93.5 95q21.5 0 36.5 -15.5t15 -35.5t-15 -35.5t-36.5 -15.5t-36 15.5t-14.5 35.5t14.5 35.5t36 15.5z" />
    <glyph glyph-name="quotedbl" unicode="&#x22;" horiz-adv-x="318" 
d="M118 478h-71l-5 242h82zM271 478h-71l-6 242h82z" />
    <glyph glyph-name="numbersign" unicode="#" horiz-adv-x="672" 
d="M513 525h118l-9 -71h-118l-25 -181h118l-10 -70h-117l-27 -203h-89l28 203h-138l-28 -203h-89l28 203h-113l9 70h113l25 181h-113l9 71h113l22 155h88l-21 -155h138l21 155h89zM278 454l-25 -181h138l25 181h-138z" />
    <glyph glyph-name="dollar" unicode="$" horiz-adv-x="556" 
d="M334 774v-77q79 -3 134 -36q3 -1 3 -5l1 -138h-57l-6 76q0 8 -7 11q-37 18 -89 18q-69 0 -110.5 -26.5t-41.5 -68.5q0 -28 8 -44.5t36.5 -36.5t90.5 -50q65 -32 105 -56t63.5 -48.5t32 -48t8.5 -55.5q0 -72 -46 -120.5t-125 -66.5v-95h-81v86q-18 -2 -38 0q-81 1 -159 37
q-4 1 -4 6v137h56l6 -71q0 -8 8 -11q55 -23 124 -23q71 0 114 30t43 79q0 38 -23 61t-106 64q-73 36 -115 61.5t-64.5 51.5t-28.5 48.5t-6 58.5q0 45 25 81t68.5 58.5t99.5 30.5v82h81z" />
    <glyph glyph-name="percent" unicode="%" horiz-adv-x="912" 
d="M314 -17h-83l362 734h83zM207.5 706q75.5 0 120.5 -57t45 -148.5t-45 -149t-120.5 -57.5t-120.5 57t-45 149t45 149t120.5 57zM207 653q-40 0 -66 -39.5t-26 -113.5t26 -113t66 -39t66 39t26 113t-26 113.5t-66 39.5zM704.5 406q75.5 0 121 -57t45.5 -149
q0 -60 -20.5 -107t-58 -73t-87.5 -26q-76 0 -121 57t-45 149t45 149t120.5 57zM705 352q-40 0 -66 -39t-26 -113t26 -113.5t66 -39.5t66 39.5t26 113.5t-26 113t-66 39z" />
    <glyph glyph-name="ampersand" unicode="&#x26;" horiz-adv-x="676" 
d="M273 710q35 0 66.5 -6.5t58.5 -21t45 -36t26.5 -52t3.5 -68.5q-4 -28 -17 -50t-45.5 -51t-94.5 -71l-7 -6l165 -158q8 21 11 47l3 108h68v-154q0 -35 -14 -67l93 -88l-58 -65l-91 88q-66 -68 -184 -68q-78 0 -136.5 19.5t-91 58.5t-32.5 95q0 54 26.5 94t107.5 98l-52 50
q-51 49 -51 124q0 81 55 130.5t145 49.5zM273 637q-50 0 -79 -28t-29 -76q0 -45 26 -71l59 -56l6 3q77 52 99.5 74.5t25.5 51.5q5 35 -8.5 58t-38.5 33.5t-61 10.5zM424 126l-181 175q-29 -20 -47.5 -35t-31.5 -28t-19 -25.5t-8.5 -24t-2.5 -27.5q0 -99 157 -99
q47 0 81.5 17t51.5 47z" />
    <glyph glyph-name="quotesingle" unicode="'" horiz-adv-x="165" 
d="M118 478h-71l-5 242h82z" />
    <glyph glyph-name="parenleft" unicode="(" horiz-adv-x="358" 
d="M283 737l45 -56q-92 -69 -139 -166q-51 -101 -51 -238q0 -152 63 -258q44 -82 127 -147l-45 -56q-98 62 -157 158q-84 132 -84 302q0 156 71 283q61 111 170 178z" />
    <glyph glyph-name="parenright" unicode=")" horiz-adv-x="358" 
d="M30 681l45 56q109 -67 170 -178q71 -127 71 -283q0 -170 -84 -302q-59 -96 -157 -158l-45 56q83 65 127 147q63 106 63 258q0 137 -51 238q-47 97 -139 166z" />
    <glyph glyph-name="asterisk" unicode="*" horiz-adv-x="440" 
d="M273 554l81 -103l-61 -44l-73 108l-72 -108l-62 44l81 103l-125 35l23 72l122 -45l-5 131h76l-5 -131l122 45l24 -72z" />
    <glyph glyph-name="plus" unicode="+" horiz-adv-x="512" 
d="M295 329h176v-77h-176v-176h-77v176h-176v77h176v176h77v-176z" />
    <glyph glyph-name="comma" unicode="," horiz-adv-x="183" 
d="M83 95q37 0 51 -33.5t2 -82.5q-18 -78 -76 -138l-34 21q32 48 42 95q5 23 0 39l-2 1q-15 5 -24.5 18t-9.5 29q0 20 14.5 35.5t36.5 15.5z" />
    <glyph glyph-name="hyphen" unicode="-" horiz-adv-x="432" 
d="M390 211h-348v76h348v-76z" />
    <glyph glyph-name="period" unicode="." horiz-adv-x="185" 
d="M92.5 95q21.5 0 36.5 -15.5t15 -35.5t-15 -35.5t-36.5 -15.5t-36 15.5t-14.5 35.5t14.5 35.5t36 15.5z" />
    <glyph glyph-name="slash" unicode="/" horiz-adv-x="425" 
d="M123 -118h-99l278 860h100z" />
    <glyph glyph-name="zero" unicode="0" horiz-adv-x="632" 
d="M316 690q83 0 145.5 -44t96 -123.5t33.5 -182.5q0 -157 -75 -253.5t-200 -96.5t-199.5 96.5t-74.5 253.5q0 103 33 182.5t95.5 123.5t145.5 44zM316 613q-51 0 -90.5 -30t-63.5 -92.5t-24 -150.5q0 -131 50 -202t128 -71q51 0 90.5 29.5t63.5 92.5t24 151
q0 131 -49.5 202t-128.5 71z" />
    <glyph glyph-name="one" unicode="1" horiz-adv-x="373" 
d="M255 680v-603q0 -13 13 -14l67 -5v-58h-275v51q0 7 7 7l79 7q13 1 13 14v489q0 6 -4.5 8.5t-9.5 -0.5l-88 -60l-28 62l146 101q2 1 3 1h77z" />
    <glyph glyph-name="two" unicode="2" horiz-adv-x="501" 
d="M252 691q37 0 69 -8t56.5 -24.5t39.5 -38.5q25 -38 27 -86t-25.5 -115.5t-85.5 -146.5q-55 -74 -179 -202h227q13 0 14 13l6 75h56v-158h-423v54q0 3 2 4q150 151 222 255q128 180 79 263q-26 44 -92 43q-41 0 -75 -20t-46 -57l-83 10q18 66 78.5 102.5t132.5 36.5z" />
    <glyph glyph-name="three" unicode="3" horiz-adv-x="497" 
d="M234 690q42 0 79.5 -11t66.5 -32.5t46.5 -55t17.5 -75.5q0 -55 -31.5 -96t-87.5 -60q62 -19 96 -63.5t34 -108.5q0 -50 -20 -89t-54 -62.5t-75 -35t-86 -11.5q-104 0 -188 52l26 57q70 -34 147 -35q68 0 111 32t43 98q0 60 -38 93.5t-103 33.5h-66v71l67 -1
q62 0 97.5 30.5t35.5 83.5q0 56 -37 85.5t-93 29.5q-54 0 -101 -30q-5 -3 -6 -9l-6 -82h-52v132q0 3 3 5q77 54 174 54z" />
    <glyph glyph-name="four" unicode="4" horiz-adv-x="530" 
d="M129 235h186l15 259q1 6 7 6h62v-265h91v-70h-91v-88q0 -13 13 -14l67 -5v-58h-259v51q0 7 6 7l75 6q13 1 13 15v86h-285v56l199 459h93z" />
    <glyph glyph-name="five" unicode="5" horiz-adv-x="493" 
d="M432 610h-252l-19 -220q34 16 79 16q99 0 159 -56.5t60 -149.5q0 -53 -19 -94t-51.5 -66t-73.5 -37.5t-87 -12.5q-92 0 -181 45q-3 2 -3 5v134h56l6 -76q0 -8 7 -10q53 -24 107 -24q63 1 103 34.5t40 102.5q0 41 -17 71t-48.5 46t-75.5 16q-57 0 -96 -30l-57 14l31 362
h332v-70z" />
    <glyph glyph-name="six" unicode="6" horiz-adv-x="527" 
d="M311 690q76 -1 147 -43l-26 -63q-62 35 -113 35q-21 1 -41.5 -5t-38.5 -18t-33.5 -31t-27.5 -43t-20 -55t-11 -66q-2 -17 -4 -35q24 36 63 54.5t88 16.5q93 -3 148 -66.5t52 -163.5q-4 -99 -61.5 -159t-149.5 -57q-116 3 -181 101.5t-60 255.5q2 83 25 149t60 107.5
t84 63.5t100 22zM279 366q-57 2 -94.5 -30.5t-46.5 -91.5q12 -83 51.5 -131t97.5 -50q54 -2 88.5 37.5t36.5 109.5q1 47 -15 81.5t-46.5 53.5t-71.5 21z" />
    <glyph glyph-name="seven" unicode="7" horiz-adv-x="497" 
d="M471 680v-65q-81 -102 -152 -271q-72 -171 -100 -344h-96q28 181 111 367q59 131 127 228q3 5 0.5 10t-8.5 5h-252q-13 0 -14 -13l-6 -71h-52v147q0 7 8 7h434z" />
    <glyph glyph-name="eight" unicode="8" horiz-adv-x="547" 
d="M273 690q49 0 90.5 -13.5t70 -37.5t44.5 -58t16 -74q0 -57 -29 -98.5t-81 -61.5q57 -20 89 -63.5t32 -103.5q0 -85 -64 -137.5t-168 -52.5t-167.5 52.5t-63.5 137.5q0 60 32 103.5t89 63.5q-52 20 -81 61.5t-29 98.5q0 81 60.5 132t159.5 51zM273.5 620
q-58.5 0 -93 -31.5t-34.5 -86t34 -85.5t93 -31q39 0 67.5 14t44 40.5t15.5 61.5q0 55 -34 86.5t-92.5 31.5zM273 311q-25 0 -46.5 -5.5t-38.5 -15.5t-28.5 -25t-18 -34.5t-6.5 -42.5q0 -38 17 -66t48 -43t73 -15q64 0 101 33.5t37 90.5q0 58 -37 90.5t-101 32.5z" />
    <glyph glyph-name="nine" unicode="9" horiz-adv-x="527" 
d="M245 689q115 -3 180 -101.5t60 -255.5q-1 -55 -12 -103.5t-29.5 -86t-43 -66.5t-54 -47.5t-62.5 -28t-68 -9.5q-75 0 -147 42l26 63q63 -35 113 -35q68 -1 116 56.5t56 162.5q3 17 4 35q-24 -36 -63 -55t-88 -17q-92 3 -147 66.5t-52 163.5q3 99 61 159.5t150 56.5z
M241 617q-55 2 -89 -37t-36.5 -109.5t34 -112t99.5 -43.5q57 -2 94.5 30t45.5 91q-11 83 -51 131.5t-97 49.5z" />
    <glyph glyph-name="colon" unicode=":" horiz-adv-x="185" 
d="M92.5 485q21.5 0 36.5 -15.5t15 -35.5t-15 -35.5t-36 -15.5q-15 0 -26.5 7t-18 19t-6.5 25q0 20 14.5 35.5t36 15.5zM92.5 95q21.5 0 36.5 -15.5t15 -35.5t-15 -35.5t-36.5 -15.5t-36 15.5t-14.5 35.5t14.5 35.5t36 15.5z" />
    <glyph glyph-name="semicolon" unicode=";" horiz-adv-x="183" 
d="M82.5 485q21.5 0 36.5 -15.5t15 -35.5q0 -13 -6.5 -25t-18.5 -19t-26 -7t-26 7t-18.5 19t-6.5 25q0 20 14.5 35.5t36 15.5zM83 95q37 0 51 -33.5t2 -82.5q-18 -78 -76 -138l-34 21q35 53 44 101q3 20 -2 33l-2 1q-15 5 -24.5 18t-9.5 29q0 20 14.5 35.5t36.5 15.5z" />
    <glyph glyph-name="less" unicode="&#x3c;" horiz-adv-x="590" 
d="M549 506l-412 -161l412 -161v-86l-507 202v89l507 202v-85z" />
    <glyph glyph-name="equal" unicode="=" horiz-adv-x="559" 
d="M518 359h-476v76h476v-76zM518 138h-476v77h476v-77z" />
    <glyph glyph-name="greater" unicode="&#x3e;" horiz-adv-x="590" 
d="M549 389v-89l-507 -202v86l411 161l-411 161v85z" />
    <glyph glyph-name="question" unicode="?" horiz-adv-x="452" 
d="M204 710q60 0 106.5 -18.5t73 -54.5t26.5 -84q0 -58 -29.5 -92.5t-125.5 -86.5q-37 -20 -58 -33t-34 -26t-17 -25t-5 -30l-2 -49h-81l-2 64q-2 48 25 80.5t112 77.5q81 42 100.5 62t19.5 57q0 38 -30.5 60.5t-83.5 22.5q-50 0 -89 -16q-8 -3 -9 -11l-6 -79h-52v131
q0 3 3 5q66 45 158 45zM98.5 95q21.5 0 36.5 -15.5t15 -35.5t-15 -35.5t-36.5 -15.5t-36 15.5t-14.5 35.5t14.5 35.5t36 15.5z" />
    <glyph glyph-name="at" unicode="@" horiz-adv-x="962" 
d="M481 713q98 0 180.5 -32.5t139.5 -89.5t88.5 -136.5t31.5 -171.5q0 -41 -11 -76.5t-31.5 -62t-48 -45t-60.5 -28.5t-70 -10h-112q-6 0 -7 6l-3 39q-50 -53 -129 -53q-80 0 -130 55t-50 153q0 94 56.5 149.5t144.5 55.5q103 0 177 -71v-246l54 -3q55 2 88 37.5t33 99.5
q1 102 -40 180t-119 121t-182 43q-107 0 -184.5 -45.5t-117 -127.5t-39.5 -190q0 -173 93 -269t248 -97q62 0 115 16l30 -81q-71 -21 -145 -21q-99 0 -181.5 34t-139 94t-87.5 143t-31 181q0 96 30.5 178.5t86.5 142.5t139 94t183 34zM471 406q-51 0 -82.5 -38.5
t-31.5 -106.5q0 -46 15.5 -79t42.5 -50t62 -17q53 0 83 40v209q-34 42 -89 42z" />
    <glyph glyph-name="A" unicode="A" horiz-adv-x="781" 
d="M700 63l58 -5v-58h-253v51q0 6 6 7l63 5q5 0 9 3.5t5 8t-1 10.5l-49 120h-314l-58 -140l86 -7v-58h-228v51q0 7 6 7l44 4q8 1 11 8l256 627l94 5zM253 281h257l-128 318z" />
    <glyph glyph-name="B" unicode="B" horiz-adv-x="665" 
d="M64 700h314q65 0 115 -22.5t77.5 -63.5t27.5 -94q0 -33 -11.5 -61.5t-32.5 -50t-51 -35.5q62 -20 96.5 -66t34.5 -109q0 -88 -66 -143t-174 -55h-330v51q0 7 6 7l60 5q13 1 13 14v546q0 13 -13 14l-60 5q-6 0 -6 7v51zM295 623l-56 -4v-213h141q39 0 67 13t43 37.5
t15 57.5q0 51 -33.5 80t-91.5 29h-85zM239 329v-248l56 -4h97q67 0 106 34t39 92q0 29 -10 52.5t-28.5 39.5t-46 25t-60.5 9h-153z" />
    <glyph glyph-name="C" unicode="C" horiz-adv-x="648" 
d="M392 709q118 0 204 -62q3 -2 3 -5v-136h-57l-6 80q0 7 -7 10q-62 36 -137 36q-110 0 -176.5 -75.5t-66.5 -206.5q0 -133 68 -208t180 -74q103 0 187 64l30 -65q-90 -76 -222 -76q-154 0 -248.5 100t-94.5 259t94.5 259t248.5 100z" />
    <glyph glyph-name="D" unicode="D" horiz-adv-x="752" 
d="M61 700h302q154 0 248 -96t94 -254t-94 -254t-248 -96h-302v51q0 7 6 7l60 5q13 1 13 14v546q0 13 -13 14l-60 5q-6 0 -6 7v51zM292 623l-56 -4v-538l56 -4h71q111 0 177 71.5t66 201.5q0 86 -30.5 148t-85 93.5t-127.5 31.5h-71z" />
    <glyph glyph-name="E" unicode="E" horiz-adv-x="588" 
d="M61 700h470q7 0 7 -7v-156h-56l-6 73q-1 13 -14 13h-226v-232h216v-72h-216v-242h244q14 0 14 13l6 73h57v-156q0 -7 -8 -7h-488v51q0 7 6 7l60 5q13 1 13 14v546q0 13 -13 14l-60 5q-6 0 -6 7v51z" />
    <glyph glyph-name="F" unicode="F" horiz-adv-x="562" 
d="M61 700h462q7 0 7 -7v-156h-56l-6 73q-1 13 -14 13h-218v-245h199v-72h-199v-241l87 -7v-58h-262v51q0 7 7 7l60 5q13 1 13 14v546q0 13 -13 14l-61 5q-6 0 -6 7v51z" />
    <glyph glyph-name="G" unicode="G" horiz-adv-x="704" 
d="M392 709q115 0 226 -59q3 -2 3 -5v-138h-56l-6 76q0 7 -7 10q-82 39 -160 39q-106 0 -174.5 -73t-68.5 -209q0 -131 66 -206.5t177 -75.5q106 0 169 66v126q0 13 -13 14l-148 8v60h238q8 0 8 -8v-334h-59l-6 58q-84 -67 -203 -67q-148 0 -238.5 100t-90.5 259
q0 86 27.5 155.5t75 113.5t109 67t131.5 23z" />
    <glyph glyph-name="H" unicode="H" horiz-adv-x="858" 
d="M797 642l-67 -5q-13 -1 -13 -14v-546q0 -13 13 -14l67 -5v-58h-262v51q0 7 6 7l68 6q13 1 13 14v241h-386v-241q0 -13 13 -14l74 -6v-58h-262v51q0 7 6 7l60 5q13 1 13 14v546q0 13 -13 14l-60 5q-6 0 -6 7v51h262v-58l-74 -6q-13 -1 -13 -14v-227h386v227q0 13 -13 14
l-68 6q-6 0 -6 7v51h262v-58z" />
    <glyph glyph-name="I" unicode="I" horiz-adv-x="378" 
d="M317 642l-67 -5q-13 -1 -13 -14v-546q0 -13 13 -14l67 -5v-58h-256v51q0 7 6 7l61 5q13 1 13 14v546q0 13 -13 14l-61 5q-6 0 -6 7v51h256v-58z" />
    <glyph glyph-name="J" unicode="J" horiz-adv-x="384" 
d="M323 642l-66 -5q-13 -1 -13 -14v-586q0 -94 -53 -159.5t-147 -87.5l-20 52q57 22 90 73.5t33 121.5v585q0 13 -13 14l-67 6q-7 0 -7 7v51h263v-58z" />
    <glyph glyph-name="K" unicode="K" horiz-adv-x="754" 
d="M709 642l-70 -6l-233 -251l236 -316q3 -4 8 -5l74 -6q6 0 6 -7v-51h-156l-230 316l-108 -117v-121q0 -13 13 -14l74 -6v-58h-262v51q0 7 6 7l60 5q13 1 13 14v546q0 13 -13 14l-60 5q-6 0 -6 7v51h260v-58l-72 -6q-13 -1 -13 -14v-322l280 308q7 9 4.5 18.5t-12.5 11.5
l-37 3q-6 2 -6 7v52h244v-58z" />
    <glyph glyph-name="L" unicode="L" horiz-adv-x="574" 
d="M323 642l-74 -6q-13 -1 -13 -14v-545h232q14 0 14 13l6 73h57v-156q0 -7 -8 -7h-476v51q0 7 6 7l60 5q13 1 13 14v546q0 13 -13 14l-60 5q-6 0 -6 7v51h262v-58z" />
    <glyph glyph-name="M" unicode="M" horiz-adv-x="1029" 
d="M903 642l-60 -5q-6 0 -10 -5t-3 -11l75 -558l67 -5v-58h-256v58l78 6q7 1 10.5 5.5t2.5 11.5l-60 473l-207 -554h-62l-208 556l-66 -490l94 -8v-58h-244v51q0 7 6 7l53 5q11 0 13 11l73 547q1 6 -3 11t-10 5l-54 5q-7 0 -7 7v51h188l205 -540l205 540h180v-58z" />
    <glyph glyph-name="N" unicode="N" horiz-adv-x="847" 
d="M791 642l-67 -5q-13 -1 -13 -14v-623h-88l-399 540v-462q0 -13 13 -14l69 -6v-58h-250v51q0 7 6 7l61 5q13 1 13 14v546q0 13 -13 14l-61 5q-6 0 -6 7v51h161l406 -549v471q0 13 -13 14l-62 6q-7 0 -7 7v51h250v-58z" />
    <glyph glyph-name="O" unicode="O" horiz-adv-x="780" 
d="M390 709q154 0 248 -100t94 -259t-94 -259t-248 -100t-248.5 100t-94.5 259t94.5 259t248.5 100zM390 632q-55 0 -100 -19.5t-76.5 -55.5t-49 -89t-17.5 -118q0 -131 66 -206.5t177 -75.5t177 75.5t66 206.5t-66 206.5t-177 75.5z" />
    <glyph glyph-name="P" unicode="P" horiz-adv-x="642" 
d="M61 700h314q99 0 159.5 -55t60.5 -143t-60.5 -143t-159.5 -55h-139v-226q0 -13 13 -14l74 -6v-58h-262v51q0 7 6 7l60 5q13 1 13 14v546q0 13 -13 14l-60 5q-6 0 -6 7v51zM295 623l-59 -4v-238h135q61 0 96 32.5t35 88.5t-35 88.5t-96 32.5h-76z" />
    <glyph glyph-name="Q" unicode="Q" horiz-adv-x="786" 
d="M787 -72l23 -69q-30 -12 -61 -13t-53 3.5t-52 20t-44 25t-44 31.5q-69 50 -112 69q-26 -4 -54 -4q-154 0 -248.5 100t-94.5 259t94.5 259t248.5 100t248 -100t94 -259q0 -114 -50 -200t-138 -127q18 -12 49 -35q26 -20 38.5 -28.5t35.5 -21.5t39 -16.5t37.5 -3t43.5 9.5z
M147 350q0 -131 66 -206.5t177 -75.5t177 75.5t66 206.5t-66 206.5t-177 75.5t-177 -75.5t-66 -206.5z" />
    <glyph glyph-name="R" unicode="R" horiz-adv-x="696" 
d="M61 700h314q99 0 159.5 -53t60.5 -139q0 -72 -44 -120t-119 -59l-3 -1l157 -259q3 -5 10 -5l70 -6v-58h-145q-4 0 -6 3l-173 313h-106v-238q0 -13 13 -14l74 -6v-58h-262v51q0 7 6 7l60 5q13 1 13 14v546q0 13 -13 14l-60 5q-6 0 -6 7v51zM293 623l-57 -4v-226h142
q58 0 91 31t33 84.5t-33 84t-91 30.5h-85z" />
    <glyph glyph-name="S" unicode="S" horiz-adv-x="564" 
d="M316 711q94 0 159 -38q3 -1 3 -5v-138h-56l-6 76q0 8 -7 11q-38 18 -92 18q-71 0 -113.5 -27t-42.5 -70q0 -29 8.5 -46t37.5 -37.5t93 -50.5q88 -43 133 -75t62 -62.5t17 -74.5q0 -64 -35.5 -110t-96.5 -68.5t-140 -22.5q-93 0 -184 39q-4 2 -4 6v138h56l6 -72
q0 -8 8 -11q56 -23 127 -23q74 0 118 30.5t44 81.5q0 28 -9 44.5t-36.5 35.5t-87.5 49q-75 36 -117.5 62t-65 52.5t-29 49t-6.5 59.5q0 81 73.5 129.5t182.5 49.5z" />
    <glyph glyph-name="T" unicode="T" horiz-adv-x="648" 
d="M31 700h586q8 0 8 -7v-154h-57l-5 74q-1 13 -14 13h-177v-549q0 -13 13 -14l67 -5v-58h-256v51q0 7 6 7l61 5q13 1 13 14v549h-176q-13 0 -14 -13l-6 -74h-56v154q0 7 7 7z" />
    <glyph glyph-name="U" unicode="U" horiz-adv-x="830" 
d="M774 641l-69 -5q-13 -1 -13 -14v-350q0 -83 -33.5 -147t-96 -99.5t-144.5 -35.5q-124 0 -199 77.5t-75 204.5v350q0 13 -13 14l-64 5q-6 0 -6 7v51h264v-58l-72 -6q-13 -1 -13 -14v-349q0 -49 13.5 -88t37.5 -64.5t57.5 -39t74.5 -13.5q85 0 137.5 54.5t52.5 150.5v349
q0 13 -13 14l-76 6v58h250v-58z" />
    <glyph glyph-name="V" unicode="V" horiz-adv-x="734" 
d="M710 642l-52 -4l-249 -638h-82l-247 630q-3 8 -11 8l-39 4q-6 0 -6 7v51h136l216 -578l190 493q3 8 -1 14.5t-13 7.5l-65 5q-7 1 -7 7v51h230v-58z" />
    <glyph glyph-name="W" unicode="W" horiz-adv-x="1128" 
d="M1104 642l-65 -5l-194 -637h-80l-204 554l-204 -554h-82l-189 629q-3 8 -11 9l-45 4q-6 0 -6 7v51h146l157 -564l175 480q3 8 -1.5 14t-12.5 7l-60 5q-7 1 -7 7v51h195l193 -564l142 481q2 8 -2 13.5t-12 6.5l-63 5q-7 1 -7 7v51h237v-58z" />
    <glyph glyph-name="X" unicode="X" horiz-adv-x="693" 
d="M661 642l-69 -6l-186 -283l192 -285q3 -5 9 -5l62 -5v-58h-130q-3 0 -5 3l-196 290l-146 -229l76 -7v-57h-243v51q0 7 7 7l57 5q6 1 10 6l186 283l-192 280q-3 5 -9 5l-48 5q-7 0 -7 7v51h128l196 -290l131 201q6 9 1.5 17.5t-14.5 9.5l-53 4q-7 1 -7 7v51h250v-58z" />
    <glyph glyph-name="Y" unicode="Y" horiz-adv-x="695" 
d="M671 642l-50 -4l-220 -391v-170q0 -13 13 -14l68 -5v-58h-256v51q0 7 6 7l61 5q13 1 13 14v163l-222 392q-4 5 -10 6l-44 4q-6 0 -6 7v51h127l210 -372l159 284q5 9 0.5 16.5t-14.5 8.5l-61 5q-7 1 -7 7v51h233v-58z" />
    <glyph glyph-name="Z" unicode="Z" horiz-adv-x="590" 
d="M555 645l-394 -569h322q13 0 14 13l5 67h56v-149q0 -7 -7 -7h-519v53l396 570h-297q-13 0 -14 -13l-5 -64h-57v147q0 7 8 7h492v-55z" />
    <glyph glyph-name="bracketleft" unicode="[" horiz-adv-x="297" 
d="M137 648v-711h130v-70h-225v850h225v-69h-130z" />
    <glyph glyph-name="backslash" unicode="\" horiz-adv-x="425" 
d="M401 -118h-99l-278 860h99z" />
    <glyph glyph-name="bracketright" unicode="]" horiz-adv-x="297" 
d="M256 717v-850h-226v70h130v711h-130v69h226z" />
    <glyph glyph-name="asciicircum" unicode="^" horiz-adv-x="538" 
d="M497 394h-92l-136 244l-135 -244h-92l176 306h102z" />
    <glyph glyph-name="underscore" unicode="_" horiz-adv-x="606" 
d="M565 -116h-523v71h523v-71z" />
    <glyph glyph-name="grave" unicode="`" horiz-adv-x="293" 
d="M251 567h-79l-130 155h105z" />
    <glyph glyph-name="a" unicode="a" 
d="M256 509q81 0 134 -42.5t53 -131.5v-261q0 -13 13 -14l63 -6v-54h-145q-7 0 -7 6l-4 56q-62 -72 -163 -72q-46 0 -82 18t-55.5 49.5t-19.5 71.5q0 57 40 87t130 55l142 38v27q0 57 -30 82.5t-78 25.5q-54 0 -107 -27q-6 -3 -7 -10l-6 -69h-47v118q0 3 2 4q35 21 82 35
t92 14zM355 254l-121 -33q-58 -15 -80 -32.5t-22 -51.5q0 -37 26.5 -58.5t71.5 -21.5q78 0 122 58l3 4v135z" />
    <glyph glyph-name="b" unicode="b" horiz-adv-x="631" 
d="M51 742l154 8q8 0 8 -8v-296q59 64 156 64q100 0 158.5 -67t58.5 -183q0 -71 -20.5 -124t-58.5 -84.5t-86.5 -46.5t-107.5 -15q-91 0 -188 34v648q0 13 -14 14l-60 3v53zM339 445q-83 0 -126 -68v-300q55 -22 108 -22q79 0 127 48.5t48 146.5q0 91 -42.5 143t-114.5 52z
" />
    <glyph glyph-name="c" unicode="c" horiz-adv-x="497" 
d="M300 510q84 0 146 -40q3 -2 3 -5l-1 -131h-56l-6 81q-1 7 -7 10q-35 20 -79 20q-74 0 -119.5 -52t-45.5 -143t45.5 -143t121.5 -52q67 0 129 43l26 -60q-65 -48 -157 -48q-115 0 -185 72.5t-70 187.5t70 187.5t185 72.5z" />
    <glyph glyph-name="d" unicode="d" horiz-adv-x="637" 
d="M346 742l154 8q8 0 8 -8v-668q0 -13 13 -14l63 -6v-54h-146q-6 0 -6 6l-4 55q-62 -71 -163 -71q-99 0 -159.5 68.5t-60.5 192.5q0 51 12.5 96t38 82t68.5 59t99 22q97 0 157 -66v227q0 14 -14 15l-60 3v53zM292 445q-72 0 -114.5 -52t-42.5 -142t45.5 -141.5t119.5 -51.5
q77 0 120 56v262q-44 69 -128 69z" />
    <glyph glyph-name="e" unicode="e" horiz-adv-x="547" 
d="M278 510q115 0 171 -66.5t57 -184.5l1 -14q0 -8 -8 -8l-362 -7q4 -81 47 -128t111 -47q89 1 157 61l27 -58q-70 -68 -188 -68q-74 0 -130 33.5t-86 92.5t-30 134q0 115 63.5 187.5t169.5 72.5zM280 448q-41 0 -72 -19t-49.5 -55.5t-21.5 -86.5h270q9 0 7 10
q-9 151 -134 151z" />
    <glyph glyph-name="f" unicode="f" horiz-adv-x="416" 
d="M295 749q81 0 146 -42l-23 -55q-58 32 -111 32q-44 -1 -72.5 -26t-28.5 -74v-84h140v-55l-140 -7v-364q0 -13 13 -14l66 -6v-54h-227v48q0 7 6 7l41 4q13 1 13 14v365l-60 4q-6 0 -6 7v51h66v90q0 77 51 118t126 41z" />
    <glyph glyph-name="g" unicode="g" horiz-adv-x="572" 
d="M526 460l-96 -9q57 -38 57 -114q0 -79 -55 -125.5t-148 -46.5q-42 0 -78 10q-46 -12 -45 -40q0 -30 30 -42t99 -12q220 0 220 -148q0 -74 -63.5 -117t-170.5 -43q-69 0 -122.5 19.5t-82.5 54t-29 78.5q0 40 27 72.5t75 51.5q-59 20 -59 69q0 51 73 78q-77 46 -77 141
q0 79 55 126t148 47h242v-50zM283.5 453q-54.5 0 -84.5 -29.5t-30 -86t30 -86.5t84.5 -30t85 30t30.5 86.5t-30.5 86t-85 29.5zM241 25l-11 -2q-52 -10 -81 -35.5t-29 -59.5q0 -29 19 -50.5t54.5 -33.5t82.5 -12q70 0 112.5 26t42.5 70q0 96 -157 96q-10 0 -33 1z" />
    <glyph glyph-name="h" unicode="h" horiz-adv-x="707" 
d="M61 742l154 8q8 0 8 -8v-307q111 74 209 74q68 0 109 -40.5t41 -120.5v-274q0 -13 13 -14l66 -6v-54h-160q-7 0 -7 7v326q0 111 -100 111q-76 0 -171 -59v-311q0 -13 13 -14l68 -6v-54h-243v48q0 7 6 7l55 5q13 1 13 14v597q0 14 -14 15l-60 3v53z" />
    <glyph glyph-name="i" unicode="i" horiz-adv-x="360" 
d="M175 721q21 0 36 -15t15 -36.5t-15 -36.5t-36 -15t-36.5 15t-15.5 36.5t15.5 36.5t36.5 15zM61 498l154 8q8 0 8 -8v-424q0 -13 13 -14l70 -6v-54h-245v48q0 7 6 7l55 5q13 1 13 14v353q0 14 -14 15l-60 3v53z" />
    <glyph glyph-name="j" unicode="j" horiz-adv-x="275" 
d="M163.5 721q21.5 0 36.5 -15t15 -36.5t-15 -36.5t-36.5 -15t-36.5 15t-15 36.5t15 36.5t36.5 15zM50 498l154 8q8 1 8 -7v-583q0 -54 -35.5 -86.5t-94.5 -32.5q-58 0 -93 31l22 48q19 -14 49 -14t47 15.5t17 46.5v504q0 13 -14 14l-60 3v53z" />
    <glyph glyph-name="k" unicode="k" horiz-adv-x="629" 
d="M61 742l154 8q8 0 8 -8v-475l188 157q6 5 4 11t-9 7l-37 3q-6 1 -6 7v48h227v-55l-63 -5l-166 -136l181 -240q2 -3 7 -4l64 -5v-55h-130q-5 0 -7 4l-172 256l-81 -66v-121q0 -13 13 -14l58 -5v-54h-231v48q0 7 6 7l53 5q13 1 13 14v597q0 14 -14 14l-60 4v53z" />
    <glyph glyph-name="l" unicode="l" horiz-adv-x="352" 
d="M61 742l154 8q8 0 8 -8v-668q0 -13 13 -14l70 -6v-54h-243v48q0 7 6 7l53 5q13 1 13 14v597q0 14 -14 14l-60 4v53z" />
    <glyph glyph-name="m" unicode="m" horiz-adv-x="1021" 
d="M753 509q65 0 104 -40.5t39 -120.5v-274q0 -13 13 -14l66 -6v-54h-160q-7 0 -7 7v326q0 111 -93 111q-72 0 -164 -62q5 -19 5 -54v-254q0 -13 13 -14l66 -6v-54h-160q-7 0 -7 7v326q0 111 -93 111q-70 0 -159 -59v-311q0 -13 13 -14l68 -6v-54h-243v48q0 7 6 7l55 5
q13 1 13 14v353q0 14 -14 15l-60 3v53l154 8q8 0 8 -8v-63q106 74 197 74q98 0 130 -84q51 38 107 61t103 23z" />
    <glyph glyph-name="n" unicode="n" horiz-adv-x="700" 
d="M424 509q69 0 110 -40.5t41 -120.5v-274q0 -13 13 -14l66 -6v-54h-160q-7 0 -7 7v326q0 111 -101 111q-75 0 -170 -59v-311q0 -13 13 -14l68 -6v-54h-243v48q0 7 6 7l55 5q13 1 13 14v353q0 14 -14 15l-60 3v53l154 8q8 0 8 -8v-63q111 74 208 74z" />
    <glyph glyph-name="o" unicode="o" horiz-adv-x="601" 
d="M300.5 510q115.5 0 185.5 -72.5t70 -187.5t-70 -187.5t-186 -72.5q-76 0 -134.5 33.5t-89.5 92.5t-31 134q0 115 70 187.5t185.5 72.5zM300.5 445q-74.5 0 -120 -52t-45.5 -142.5t45.5 -142.5t120 -52t120 52t45.5 142.5t-45.5 142.5t-120 52z" />
    <glyph glyph-name="p" unicode="p" horiz-adv-x="651" 
d="M385 510q100 0 160.5 -68.5t60.5 -192.5q0 -51 -13 -96t-38 -82.5t-68 -59t-99 -21.5q-97 0 -157 66v-185q0 -12 13 -14l68 -5v-55h-241v48q0 7 6 7l53 5q13 2 13 14v556q0 13 -13 14l-55 3v54l137 3q7 0 7 -7l4 -55q62 71 162 71zM350 442q-77 0 -119 -56v-262
q44 -69 128 -69q72 0 114.5 52t42.5 142t-45.5 141.5t-120.5 51.5z" />
    <glyph glyph-name="q" unicode="q" horiz-adv-x="634" 
d="M319 510q90 0 188 -34v-605q0 -12 12 -14l61 -5v-55h-243v48q0 7 7 7l62 5q13 2 13 14v183q-60 -64 -156 -64q-100 0 -159 67t-59 183q0 57 14 103t38 77t59 51.5t75 29.5t88 9zM310 445q-78 0 -126.5 -48.5t-48.5 -146.5q0 -91 42.5 -143t114.5 -52q83 0 127 68v300
q-56 22 -109 22z" />
    <glyph glyph-name="r" unicode="r" horiz-adv-x="456" 
d="M381 504q24 4 48 2q5 0 5 -6v-129h-56l-4 52q-1 13 -11 13t-24 -5q-57 -17 -123 -74v-283q0 -13 13 -14l68 -6v-54h-243v48q0 7 6 7l55 5q13 1 13 14v353q0 14 -14 15l-60 3v53l154 8q8 0 8 -8v-84q81 78 165 90z" />
    <glyph glyph-name="s" unicode="s" horiz-adv-x="442" 
d="M253 510q68 0 118 -26q3 -2 3 -5v-116h-46l-6 69q0 8 -8 11q-24 10 -57 10q-49 0 -78.5 -19t-30 -48t16.5 -46.5t81 -49.5q89 -44 118.5 -75.5t29.5 -77.5q0 -69 -57.5 -107t-149.5 -38q-66 0 -133 25q-4 1 -4 6v114h47l5 -66q1 -8 8 -11q37 -12 80 -12q55 0 87.5 22
t32.5 59q0 28 -16.5 44.5t-78.5 47.5q-53 26 -83 45t-46 37.5t-20.5 35t-4.5 43.5q0 58 55 93t137 35z" />
    <glyph glyph-name="t" unicode="t" horiz-adv-x="390" 
d="M182 500h133v-55l-133 -7v-326q0 -29 17 -44.5t47 -16.5q41 0 63 29l23 -42q-32 -49 -110 -49q-59 0 -93.5 30t-34.5 81v338l-56 3q-7 1 -7 8v48l63 1v126l88 5v-129z" />
    <glyph glyph-name="u" unicode="u" horiz-adv-x="692" 
d="M46 499h160q8 0 8 -7v-325q0 -112 100 -112q76 0 171 60v310q0 13 -13 14l-69 6v54h162q7 0 7 -7v-420q0 -13 14 -14l60 -3v-53l-154 -8q-3 -1 -5 1.5t-2 5.5v64q-112 -75 -209 -75q-69 0 -109.5 40.5t-40.5 121.5v273q0 13 -13 14l-67 6v54z" />
    <glyph glyph-name="v" unicode="v" horiz-adv-x="576" 
d="M555 445l-54 -4l-176 -441h-87l-168 434q-3 7 -11 8l-31 3q-6 1 -6 7v48h116l150 -408l130 326q3 8 -1 14.5t-13 7.5l-59 5q-7 1 -7 7v48h217v-55z" />
    <glyph glyph-name="w" unicode="w" horiz-adv-x="857" 
d="M841 445l-50 -4l-161 -441h-81l-123 347l-127 -347h-80l-153 433q-2 8 -11 9l-33 3q-6 1 -6 7v48h120l131 -404l115 323q1 4 0.5 8t-2 6.5t-5 4.5t-7.5 2l-57 5q-6 1 -6 7v48h161l131 -404l115 324q2 5 1 9.5t-5 7.5t-9 4l-58 5q-7 0 -7 7v47h207v-55z" />
    <glyph glyph-name="x" unicode="x" horiz-adv-x="547" 
d="M519 445l-57 -4l-133 -181l137 -195q4 -4 9 -5l56 -6v-54h-116q-4 0 -6 3l-143 214l-112 -157l73 -6v-54h-211v48q0 7 6 7l52 4q5 1 8 5l134 183l-132 188q-3 4 -9 5l-49 5q-6 1 -6 7v48h120l138 -212l100 139q3 5 1 9t-7 5l-53 4q-7 1 -7 7v48h207v-55z" />
    <glyph glyph-name="y" unicode="y" horiz-adv-x="567" 
d="M552 445l-52 -4l-255 -639q-2 -5 -6 -5h-165v55l113 9q8 0 11 8l51 128h-15l-170 437q-3 7 -10 8l-32 3q-6 1 -6 7v48h117l152 -414l132 332q2 6 1 10.5t-5 8t-10 3.5l-61 5q-7 1 -7 7v48h217v-55z" />
    <glyph glyph-name="z" unicode="z" horiz-adv-x="498" 
d="M438 462l-284 -406h229q13 0 14 13l5 60h46v-122q0 -7 -7 -7h-393v38l284 406h-202q-13 0 -15 -13l-4 -59h-47v121q0 7 8 7h366v-38z" />
    <glyph glyph-name="braceleft" unicode="{" horiz-adv-x="334" 
d="M265 729q18 0 39 -2l-7 -67q-8 1 -17 1q-37 -1 -60.5 -23.5t-23.5 -65.5l1 -182q0 -32 -17 -56t-45 -37q28 -13 45 -37t17 -56l-1 -182q0 -43 24 -65.5t62 -23.5q9 0 15 1l7 -66q-21 -3 -39 -3q-74 0 -116 38.5t-42 117.5l1 182q0 31 -19 47.5t-47 16.5v59q18 0 32.5 7
t24 21.5t9.5 35.5l-1 183q0 80 42 118t116 38z" />
    <glyph glyph-name="bar" unicode="|" horiz-adv-x="171" 
d="M130 -190h-88v940h88v-940z" />
    <glyph glyph-name="braceright" unicode="}" horiz-adv-x="334" 
d="M69 729q74 0 115.5 -38t41.5 -118v-183q0 -30 19 -47t47 -17v-59q-28 0 -47 -16.5t-19 -47.5v-182q0 -79 -41.5 -117.5t-115.5 -38.5q-18 0 -39 3l7 66q6 -1 16 -1q38 1 61 23.5t23 65.5v182q0 21 8 40t21.5 32t32.5 21q-28 13 -45 37t-17 56v182q0 44 -23.5 66t-61.5 23
q-7 0 -15 -1l-7 67q21 2 39 2z" />
    <glyph glyph-name="asciitilde" unicode="~" horiz-adv-x="564" 
d="M157 345q45 6 123 -28q73 -33 106 -31q44 2 66 48l70 -14q-4 -50 -35 -79.5t-78 -30.5q-46 -1 -120 31q-6 3 -20.5 9t-20 8.5t-16.5 6.5t-17 5.5t-13.5 3t-13.5 0.5q-43 -3 -77 -65l-69 21q33 101 115 115z" />
    <glyph glyph-name="exclamdown" unicode="&#xa1;" horiz-adv-x="188" 
d="M94 512q14 0 26 -7t18.5 -19t6.5 -25t-6.5 -25t-18.5 -19t-26 -7q-22 0 -36.5 15.5t-14.5 35.5t14.5 35.5t36.5 15.5zM142 -195h-96l9 489h78z" />
    <glyph glyph-name="cent" unicode="&#xa2;" horiz-adv-x="497" 
d="M431 98l26 -60q-51 -38 -121 -46v-73h-75v73q-99 13 -157.5 83.5t-58.5 175t58.5 174.5t157.5 83v73h75v-73q62 -7 110 -38q3 -2 3 -5l-1 -131h-56l-6 81q-1 7 -7 10q-35 20 -79 20q-74 0 -119.5 -52t-45.5 -143t45.5 -143t121.5 -52q67 0 129 43z" />
    <glyph glyph-name="sterling" unicode="&#xa3;" horiz-adv-x="496" 
d="M301 710q83 0 150 -36q3 -1 3 -5v-133h-52l-5 72q-1 9 -9 11q-37 15 -78 15q-55 0 -93 -25.5t-44 -75.5q-3 -32 8 -60.5t32 -61.5t30 -57h170v-65h-158q2 -19 -1 -39q-5 -68 -82 -180h293v-70h-404v70q85 113 93 179q4 21 3 40h-96v65h79q-6 16 -27 52.5t-30.5 67
t-5.5 67.5q6 57 40 96.5t81 56t103 16.5z" />
    <glyph glyph-name="currency" unicode="&#xa4;" horiz-adv-x="600" 
 />
    <glyph glyph-name="yen" unicode="&#xa5;" horiz-adv-x="695" 
d="M671 642l-50 -4l-136 -241h106v-65h-142l-38 -67l-2 -38h182v-65h-190v-85q0 -13 13 -14l68 -5v-58h-256v51q0 7 6 7l61 5q13 1 13 14v85h-196v65h186l-2 34l-40 71h-144v65h107l-133 235q-4 5 -10 6l-44 4q-6 0 -6 7v51h127l210 -372l159 284q5 9 0.5 16.5t-14.5 8.5
l-61 5q-7 1 -7 7v51h233v-58z" />
    <glyph glyph-name="brokenbar" unicode="&#xa6;" horiz-adv-x="179" 
d="M137 345h-95v405h95v-405zM137 -190h-95v405h95v-405z" />
    <glyph glyph-name="section" unicode="&#xa7;" horiz-adv-x="486" 
d="M272 712q81 0 137 -32q4 -2 4 -6v-133h-55l-6 77q0 9 -8 12q-28 13 -67 13q-55 0 -88 -21.5t-33 -55.5q0 -35 19 -55t94 -57q106 -53 141 -89.5t35 -91.5q0 -51 -29.5 -89t-81.5 -58q65 -38 88 -68.5t23 -75.5q0 -82 -66.5 -127t-172.5 -45q-81 0 -160 33q-4 2 -4 6v132
h54l6 -73q0 -9 8 -12q45 -19 100 -19q61 0 97 25.5t36 69.5q0 33 -19.5 52t-91.5 55q-63 31 -98.5 53t-54.5 44.5t-24 41.5t-5 51q0 19 6 36.5t17 32.5t27 27t36.5 21t43.5 14q-57 31 -85 55.5t-36.5 46.5t-8.5 59q0 68 63.5 109t158.5 42zM265 355h-5q-53 0 -84.5 -22
t-31.5 -56t18.5 -52.5t87.5 -52.5l8 -4q43 8 68 32.5t25 59.5q0 30 -16 48t-70 47z" />
    <glyph glyph-name="dieresis" unicode="&#xa8;" horiz-adv-x="354" 
d="M89 684q20 0 34 -14.5t14 -33.5t-14 -33.5t-34 -14.5t-33.5 14.5t-13.5 33.5t13.5 33.5t33.5 14.5zM265 684q20 0 34 -14.5t14 -33.5t-14 -33.5t-34 -14.5t-34 14.5t-14 33.5t14 33.5t34 14.5z" />
    <glyph glyph-name="copyright" unicode="&#xa9;" horiz-adv-x="806" 
d="M403 710q73 0 140 -28.5t115.5 -76.5t77.5 -115t29 -140q0 -98 -49 -181t-132 -131t-181 -48t-181 48t-131.5 131t-48.5 181t48.5 181t131.5 131t181 48zM403 647q-121 0 -206.5 -86.5t-85.5 -209.5t85.5 -210t206.5 -87t207 87t86 210t-86 209.5t-207 86.5zM404 535
q63 0 111 -35q2 -2 2 -5v-68h-45l-3 38q0 8 -7 11q-26 14 -58 14q-52 0 -84 -37t-32 -103q0 -67 32.5 -103.5t86.5 -36.5q50 0 98 38l20 -41q-47 -42 -121 -42q-81 0 -131.5 52t-50.5 133t50.5 133t131.5 52z" />
    <glyph glyph-name="ordfeminine" unicode="&#xaa;" horiz-adv-x="375" 
d="M172 706q32 0 57 -10t41.5 -35t16.5 -61v-159q0 -7 7 -7l39 -4v-34h-89q-6 0 -6 5l-3 30q-37 -41 -96 -41q-44 0 -70.5 24t-26.5 61q0 35 24.5 53.5t79.5 33.5l85 22v17q-1 64 -64 64q-32 0 -64 -16q-3 -1 -3 -6l-4 -42h-32v72q0 2 2 4q48 29 106 29zM231 549l-72 -19
q-34 -9 -47 -19.5t-13 -30.5q0 -23 15.5 -35.5t42.5 -12.5q46 0 72 35l2 2v80z" />
    <glyph glyph-name="guillemotleft" unicode="&#xab;" horiz-adv-x="524" 
d="M264 427l-126 -176l126 -176h-91l-131 176l132 176h90zM369 251l125 -176h-90l-132 176l132 176h90z" />
    <glyph glyph-name="logicalnot" unicode="&#xac;" horiz-adv-x="700" 
 />
    <glyph glyph-name="registered" unicode="&#xae;" horiz-adv-x="806" 
d="M403 710q73 0 140 -28.5t115.5 -76.5t77.5 -115t29 -140q0 -98 -49 -181t-132 -131t-181 -48t-181 48t-131.5 131t-48.5 181t48.5 181t131.5 131t181 48zM403 647q-121 0 -206.5 -86.5t-85.5 -209.5t85.5 -210t206.5 -87t207 87t86 210t-86 209.5t-207 86.5zM249 527h160
q33 0 59 -12.5t40.5 -34t14.5 -49.5q0 -34 -22 -58t-60 -31l77 -127q3 -4 7 -4l32 -3v-28h-74q-4 0 -6 3l-88 152h-45v-114q0 -9 9 -10l33 -3v-28h-137v25q0 3 4 4l26 2q9 1 9 10v263q0 9 -9 10l-26 2q-4 0 -4 4v27zM344 484v-107h63q27 0 42.5 14t15.5 40.5t-15.5 40.5
t-42.5 14h-37z" />
    <glyph glyph-name="macron" unicode="&#xaf;" horiz-adv-x="383" 
d="M341 593h-299v65h299v-65z" />
    <glyph glyph-name="degree" unicode="&#xb0;" horiz-adv-x="343" 
d="M171.5 744q54.5 0 92 -38.5t37.5 -91.5t-37.5 -91.5t-92 -38.5t-92 38.5t-37.5 91.5t37.5 91.5t92 38.5zM171.5 694q-31.5 0 -53.5 -23t-22 -57q0 -23 10 -41t27.5 -28.5t37.5 -10.5q32 0 54 23t22 57t-22 57t-53.5 23z" />
    <glyph glyph-name="plusminus" unicode="&#xb1;" horiz-adv-x="512" 
d="M295 384h176v-77h-176v-161h-77v161h-176v77h176v161h77v-161zM471 -25h-429v76h429v-76z" />
    <glyph glyph-name="twosuperior" unicode="&#xb2;" horiz-adv-x="304" 
d="M150 746q21 0 40 -4.5t35.5 -14t25.5 -23.5q50 -71 -48 -204q-29 -39 -96 -109h116q7 0 8 8l3 39h42v-96h-261v36q0 2 2 3q85 85 128 147q69 96 46 144q-12 24 -46 24q-48 0 -61 -45l-65 8q9 41 47 64t84 23z" />
    <glyph glyph-name="threesuperior" unicode="&#xb3;" horiz-adv-x="316" 
d="M146 746q53 0 91 -28t38 -76q0 -29 -16.5 -52.5t-46.5 -36.5q33 -13 51.5 -38.5t18.5 -59.5q0 -57 -43 -87.5t-101 -30.5q-66 0 -117 34l19 40q45 -22 90 -22q78 -1 78 69q0 34 -18.5 51t-52.5 17h-47v49h48q31 0 48.5 15.5t17.5 45.5t-18 45.5t-47 15.5q-28 0 -50 -13
q-4 -2 -4 -7l-4 -49h-45v79q0 4 2 5q45 34 108 34z" />
    <glyph glyph-name="acute" unicode="&#xb4;" horiz-adv-x="293" 
d="M121 567h-79l104 156h105z" />
    <glyph glyph-name="paragraph" unicode="&#xb6;" horiz-adv-x="597" 
d="M555 627l-61 -5q-13 -1 -13 -14v-687h-88v702h-93v-702h-163v66q0 7 6 7l56 5q13 2 13 14v299q-79 11 -124.5 62.5t-45.5 128.5q0 86 55.5 140.5t147.5 56.5h310v-73z" />
    <glyph glyph-name="periodcentered" unicode="&#xb7;" horiz-adv-x="185" 
d="M92.5 361q21.5 0 36.5 -15.5t15 -35.5t-15 -35.5t-36.5 -15.5t-36 15.5t-14.5 35.5t14.5 35.5t36 15.5z" />
    <glyph glyph-name="cedilla" unicode="&#xb8;" horiz-adv-x="264" 
d="M159 5l-21 -54q6 0 15 -2q33 -7 51.5 -29.5t17.5 -50.5q-2 -33 -30 -57t-72 -24q-45 0 -78 26l13 41q25 -17 47 -17q23 -2 38.5 8.5t17.5 32.5q0 40 -51 44q-11 1 -28 -1l31 97z" />
    <glyph glyph-name="onesuperior" unicode="&#xb9;" horiz-adv-x="242" 
d="M160 740v-345q0 -8 7 -8l39 -3v-41h-176v36q0 5 5 5l44 4q8 0 8 8v260q0 4 -3.5 6t-7.5 -1l-43 -29l-21 46l90 62h58z" />
    <glyph glyph-name="ordmasculine" unicode="&#xba;" horiz-adv-x="396" 
d="M198 706q47 0 82.5 -20.5t54.5 -56.5t19 -81q0 -70 -42.5 -114.5t-113.5 -44.5t-113.5 44.5t-42.5 114t42.5 114t113.5 44.5zM198 665q-45 0 -72 -31.5t-27 -86t27 -85.5t71.5 -31t71.5 31t27 86q0 36 -12.5 62.5t-34.5 40.5t-51 14z" />
    <glyph glyph-name="guillemotright" unicode="&#xbb;" horiz-adv-x="524" 
d="M120 427l132 -176l-132 -176h-90l125 176l-125 176h90zM483 251l-132 -176h-90l125 176l-125 176h90z" />
    <glyph glyph-name="onequarter" unicode="&#xbc;" horiz-adv-x="781" 
d="M256 -17h-83l362 734h83zM189 700v-345q0 -8 7 -8l39 -3v-41h-175v36q0 5 4 5l45 4q7 0 7 8v260q0 4 -3.5 6t-6.5 -1l-43 -29l-21 46l89 62h58zM531 143h98l8 147q0 5 5 5h45v-152h52v-45h-52v-48q0 -8 7 -8l39 -4v-38h-167v34q0 4 5 5l42 3q7 1 7 8v48h-163v33l116 266
h68z" />
    <glyph glyph-name="onehalf" unicode="&#xbd;" horiz-adv-x="818" 
d="M256 -17h-83l362 734h83zM189 700v-345q0 -8 7 -8l39 -3v-41h-175v36q0 5 4 5l45 4q7 0 7 7v261q0 4 -3.5 6t-6.5 -1l-43 -29l-21 46l89 62h58zM651 404q32 0 59.5 -11t41.5 -31q50 -72 -48 -205q-29 -39 -96 -108h116q7 0 7 7l4 39h41v-95h-260v35q0 2 1 3
q86 85 129 148q69 96 46 143q-13 25 -46 25q-48 0 -61 -45l-65 8q8 40 46.5 63t84.5 24z" />
    <glyph glyph-name="threequarters" unicode="&#xbe;" horiz-adv-x="807" 
d="M280 -17h-83l361 734h83zM167 706q25 0 48 -7t41 -19.5t29 -33t11 -44.5q0 -29 -16.5 -52.5t-46.5 -36.5q33 -13 51.5 -38.5t18.5 -59.5q0 -57 -43 -87.5t-101 -30.5q-66 0 -117 34l19 40q45 -22 89 -22q79 -1 79 69q0 34 -18.5 51t-52.5 17h-47v49h47q32 0 49.5 15.5
t17.5 45.5t-18 45.5t-47 15.5q-28 0 -50 -13q-4 -2 -4 -7l-4 -49h-46l1 79q0 4 2 5q45 34 108 34zM557 143h98l8 147q0 5 5 5h45v-152h53v-45h-53v-48q0 -8 7 -8l39 -4v-38h-167v34q0 4 5 5l42 3q7 1 7 8v48h-162v33l115 266h68z" />
    <glyph glyph-name="questiondown" unicode="&#xbf;" horiz-adv-x="452" 
d="M353.5 512q21.5 0 36 -15.5t14.5 -36t-14.5 -35.5t-36 -15t-36.5 15t-15 35.5t15 36t36.5 15.5zM394 294l2 -64q2 -48 -25 -80.5t-112 -77.5q-81 -42 -101 -62.5t-20 -57.5q0 -38 31 -60t84 -22q54 0 97 19l7 87h52v-134q-66 -47 -161 -47q-90 0 -148 42.5t-58 114.5
q0 58 29.5 92.5t125.5 86.5q71 37 91.5 58.5t22.5 55.5l2 49h81z" />
    <glyph glyph-name="Agrave" unicode="&#xc0;" horiz-adv-x="781" 
d="M437 767h-79l-131 155h106zM700 63l58 -5v-58h-253v51q0 6 6 7l63 5q8 1 12 7.5t1 14.5l-49 120h-314l-58 -140l86 -7v-58h-228v51q0 7 6 7l44 4q8 1 11 8l256 627l94 5zM253 281h257l-128 318z" />
    <glyph glyph-name="Aacute" unicode="&#xc1;" horiz-adv-x="781" 
d="M424 767h-79l104 156h105zM700 63l58 -5v-58h-253v51q0 6 6 7l63 5q5 0 9 3.5t5 8t-1 10.5l-49 120h-314l-58 -140l86 -7v-58h-228v51q0 7 6 7l44 4q8 1 11 8l256 627l94 5zM253 281h257l-128 318z" />
    <glyph glyph-name="Acircumflex" unicode="&#xc2;" horiz-adv-x="781" 
d="M555 767h-79l-85 108l-84 -108h-80l109 156h111zM700 63l58 -5v-58h-253v51q0 6 6 7l63 5q8 1 12 7.5t1 14.5l-49 120h-314l-58 -140l86 -7v-58h-228v51q0 7 6 7l44 4q8 1 11 8l256 627l94 5zM253 281h257l-128 318z" />
    <glyph glyph-name="Atilde" unicode="&#xc3;" horiz-adv-x="781" 
d="M485 876l55 -11q-3 -39 -23.5 -61.5t-51.5 -25.5q-26 -2 -63 13q-11 4 -26 11t-25.5 11.5t-17.5 4.5q-11 2 -19 -7t-17 -36l-55 16q14 76 68 83q28 4 82 -20q41 -19 58 -15q21 3 35 37zM700 63l58 -5v-58h-253v51q0 6 6 7l63 5q8 1 12 7.5t1 14.5l-49 120h-314l-58 -140
l86 -7v-58h-228v51q0 7 6 7l44 4q8 1 11 8l256 627l94 5zM253 281h257l-128 318z" />
    <glyph glyph-name="Adieresis" unicode="&#xc4;" horiz-adv-x="781" 
d="M303 884q20 0 34 -14.5t14 -33.5t-14 -33.5t-34 -14.5t-34 14.5t-14 33.5t14 33.5t34 14.5zM479 884q13 0 24 -7t17.5 -18t6.5 -23q0 -19 -14 -33.5t-34 -14.5t-34 14.5t-14 33.5t14 33.5t34 14.5zM700 63l58 -5v-58h-253v51q0 6 6 7l63 5q5 0 9 3.5t5 8t-1 10.5l-49 120
h-314l-58 -140l86 -7v-58h-228v51q0 7 6 7l44 4q8 1 11 8l256 627l94 5zM253 281h257l-128 318z" />
    <glyph glyph-name="Aring" unicode="&#xc5;" horiz-adv-x="781" 
d="M391 951q45 0 76.5 -31.5t31.5 -76t-31.5 -76.5t-76.5 -32t-76.5 32t-31.5 76.5t31.5 76t76.5 31.5zM391 905q-24 0 -41 -17.5t-17 -44.5q0 -17 8 -31.5t21 -22.5t29 -8q24 0 41 18t17 44q0 18 -8 32.5t-21 22t-29 7.5zM700 63l58 -5v-58h-253v51q0 6 6 7l63 5q4 0 7 2
t5 5t2.5 7t-1.5 8l-49 120h-314l-58 -140l86 -7v-58h-228v51q0 7 6 7l44 4q8 1 11 8l256 627l94 5zM253 281h257l-128 318z" />
    <glyph glyph-name="AE" unicode="&#xc6;" horiz-adv-x="824" 
d="M342 700h430q7 0 7 -7l1 -156h-57l-6 73q-1 13 -14 13h-226v-232h216v-72h-216v-242h245q13 0 14 13l5 73h57v-156q0 -7 -8 -7h-488v51q0 7 7 7l60 5q13 1 13 14v128h-158l-58 -140l74 -6v-59h-216v51q0 7 6 7l44 4q8 1 11 8zM253 281h129v318z" />
    <glyph glyph-name="Ccedilla" unicode="&#xc7;" horiz-adv-x="648" 
d="M392 709q118 0 204 -62q3 -2 3 -5v-136h-57l-6 80q0 7 -7 10q-62 36 -137 36q-72 0 -126.5 -33t-85.5 -97.5t-31 -151.5q0 -133 68 -208t180 -74q103 0 187 64l30 -65q-43 -37 -95.5 -56t-119.5 -20q-26 0 -53 3l-16 -43q6 0 15 -2q33 -7 51.5 -29.5t17.5 -50.5
q-2 -33 -30 -57t-72 -24q-45 0 -79 26l14 41q25 -17 47 -17q15 -1 27 3t20 14t9 24q0 40 -51 44q-11 1 -29 -1l26 81q-75 19 -130.5 67t-86 120t-30.5 160q0 159 94.5 259t248.5 100z" />
    <glyph glyph-name="Egrave" unicode="&#xc8;" horiz-adv-x="588" 
d="M359 767h-80l-130 155h105zM61 700h470q7 0 7 -7v-156h-56l-6 73q-1 13 -14 13h-226v-232h216v-72h-216v-242h244q13 0 14 13l6 73h57v-156q0 -7 -8 -7h-488v51q0 7 6 7l60 5q13 1 13 14v546q0 13 -13 14l-60 5q-6 0 -6 7v51z" />
    <glyph glyph-name="Eacute" unicode="&#xc9;" horiz-adv-x="588" 
d="M346 767h-80l104 156h106zM61 700h470q7 0 7 -7v-156h-56l-6 73q-1 13 -14 13h-226v-232h216v-72h-216v-242h244q14 0 14 13l6 73h57v-156q0 -7 -8 -7h-488v51q0 7 6 7l60 5q13 1 13 14v546q0 13 -13 14l-60 5q-6 0 -6 7v51z" />
    <glyph glyph-name="Ecircumflex" unicode="&#xca;" horiz-adv-x="588" 
d="M477 767h-80l-84 108l-85 -108h-79l108 156h111zM61 700h470q7 0 7 -7v-156h-56l-6 73q-1 13 -14 13h-226v-232h216v-72h-216v-242h244q14 0 15 13l5 73h57v-156q0 -7 -8 -7h-488v51q0 7 6 7l60 5q13 1 13 14v546q0 13 -13 14l-60 5q-6 0 -6 7v51z" />
    <glyph glyph-name="Edieresis" unicode="&#xcb;" horiz-adv-x="588" 
d="M225 884q20 0 34 -14.5t14 -33.5t-14 -33.5t-34 -14.5t-34 14.5t-14 33.5t14 33.5t34 14.5zM401 884q20 0 33.5 -14.5t13.5 -33.5q0 -12 -6 -23t-17 -18t-24 -7q-20 0 -34 14.5t-14 33.5t14 33.5t34 14.5zM61 700h470q7 0 7 -7v-156h-56l-6 73q-1 13 -14 13h-226v-232
h216v-72h-216v-242h244q13 0 14 13l6 73h57v-156q0 -7 -8 -7h-488v51q0 7 6 7l60 5q13 1 13 14v546q0 13 -13 14l-60 5q-6 0 -6 7v51z" />
    <glyph glyph-name="Igrave" unicode="&#xcc;" horiz-adv-x="378" 
d="M235 767h-79l-131 155h106zM317 642l-67 -5q-13 -1 -13 -14v-546q0 -13 13 -14l67 -5v-58h-256v51q0 7 6 7l61 5q13 1 13 14v546q0 13 -13 14l-61 5q-6 0 -6 7v51h256v-58z" />
    <glyph glyph-name="Iacute" unicode="&#xcd;" horiz-adv-x="378" 
d="M222 767h-79l104 156h106zM317 642l-67 -5q-13 -1 -13 -14v-546q0 -13 13 -14l67 -5v-58h-256v51q0 7 6 7l61 5q13 1 13 14v546q0 13 -13 14l-61 5q-6 0 -6 7v51h256v-58z" />
    <glyph glyph-name="Icircumflex" unicode="&#xce;" horiz-adv-x="378" 
d="M353 767h-79l-85 108l-84 -108h-79l108 156h111zM317 642l-67 -5q-13 -1 -13 -14v-546q0 -13 13 -14l67 -5v-58h-256v51q0 7 6 7l61 5q13 1 13 14v546q0 13 -13 14l-61 5q-6 0 -6 7v51h256v-58z" />
    <glyph glyph-name="Idieresis" unicode="&#xcf;" horiz-adv-x="378" 
d="M101 884q20 0 34 -14.5t14 -33.5t-14 -33.5t-34 -14.5t-33.5 14.5t-13.5 33.5t13.5 33.5t33.5 14.5zM277 884q20 0 34 -14.5t14 -33.5q0 -12 -6 -23t-17.5 -18t-24.5 -7q-20 0 -34 14.5t-14 33.5t14 33.5t34 14.5zM317 642l-67 -5q-13 -1 -13 -14v-546q0 -13 13 -14
l67 -5v-58h-256v51q0 7 6 7l61 5q13 1 13 14v546q0 13 -13 14l-61 5q-6 0 -6 7v51h256v-58z" />
    <glyph glyph-name="Eth" unicode="&#xd0;" horiz-adv-x="752" 
d="M61 700h302q154 0 248 -96t94 -254t-94 -254t-248 -96h-302v51q0 7 6 7l60 5q13 1 13 14v235h-98v76h98v235q0 13 -13 14l-60 5q-6 0 -6 7v51zM294 77h69q111 0 177 71.5t66 201.5q0 86 -30.5 148t-85 93.5t-127.5 31.5h-69l-58 -4v-231h127v-76h-127v-231z" />
    <glyph glyph-name="Ntilde" unicode="&#xd1;" horiz-adv-x="847" 
d="M518 876l55 -11q-3 -39 -23.5 -61.5t-52.5 -25.5q-26 -2 -63 13q-10 4 -25 11t-26 11.5t-17 4.5q-11 2 -19 -7t-17 -36l-55 16q14 76 67 83q29 4 83 -20q41 -19 58 -15q21 3 35 37zM791 642l-67 -5q-13 -1 -13 -14v-623h-88l-399 540v-462q0 -13 13 -14l69 -6v-58h-250
v51q0 7 6 7l61 5q13 1 13 14v546q0 13 -13 14l-61 5q-6 0 -6 7v51h161l406 -549v471q0 13 -13 14l-62 6q-7 0 -7 7v51h250v-58z" />
    <glyph glyph-name="Ograve" unicode="&#xd2;" horiz-adv-x="780" 
d="M436 767h-80l-130 155h105zM389.5 709q153.5 0 248 -100t94.5 -259t-94 -259t-248 -100t-248.5 100t-94.5 259t94.5 259t248 100zM390 632q-111 0 -177 -75.5t-66 -206.5t66 -206.5t177 -75.5t177 75.5t66 206.5t-66 206.5t-177 75.5z" />
    <glyph glyph-name="Oacute" unicode="&#xd3;" horiz-adv-x="780" 
d="M423 767h-80l104 156h106zM389.5 709q153.5 0 248 -100t94.5 -259t-94 -259t-248 -100t-248.5 100t-94.5 259t94.5 259t248 100zM390 632q-111 0 -177 -75.5t-66 -206.5t66 -206.5t177 -75.5t177 75.5t66 206.5t-66 206.5t-177 75.5z" />
    <glyph glyph-name="Ocircumflex" unicode="&#xd4;" horiz-adv-x="780" 
d="M553 767h-79l-84 108l-85 -108h-79l108 156h111zM389.5 709q153.5 0 248 -100t94.5 -259t-94 -259t-248 -100t-248.5 100t-94.5 259t94.5 259t248 100zM390 632q-73 0 -128 -33.5t-85 -97.5t-30 -151q0 -131 66 -206.5t176.5 -75.5t177 75.5t66.5 206.5t-66 206.5
t-177 75.5z" />
    <glyph glyph-name="Otilde" unicode="&#xd5;" horiz-adv-x="780" 
d="M484 876l55 -11q-3 -39 -23.5 -61.5t-52.5 -25.5q-26 -2 -63 13q-10 4 -25 11t-26 11.5t-17 4.5q-11 2 -19 -7t-17 -36l-55 16q14 76 67 83q29 4 83 -20q41 -19 58 -15q21 3 35 37zM389.5 709q153.5 0 248 -100t94.5 -259t-94 -259t-248 -100t-248.5 100t-94.5 259
t94.5 259t248 100zM390 632q-73 0 -128 -33.5t-85 -97.5t-30 -151q0 -131 66 -206.5t176.5 -75.5t177 75.5t66.5 206.5t-66 206.5t-177 75.5z" />
    <glyph glyph-name="Odieresis" unicode="&#xd6;" horiz-adv-x="780" 
d="M302 884q20 0 33.5 -14.5t13.5 -33.5t-13.5 -33.5t-33.5 -14.5t-34 14.5t-14 33.5t14 33.5t34 14.5zM478 884q13 0 24 -7t17 -18t6 -23q0 -19 -13.5 -33.5t-34 -14.5t-34 14.5t-13.5 33.5t13.5 33.5t34.5 14.5zM390 709q154 0 248 -100t94 -259t-94 -259t-248 -100
t-248.5 100t-94.5 259t94.5 259t248.5 100zM390 632q-55 0 -100 -19.5t-76.5 -55.5t-49 -89t-17.5 -118q0 -131 66 -206.5t177 -75.5t177 75.5t66 206.5t-66 206.5t-177 75.5z" />
    <glyph glyph-name="multiply" unicode="&#xd7;" horiz-adv-x="441" 
d="M399 415l-124 -125l124 -124l-54 -54l-125 124l-124 -124l-54 54l124 124l-124 125l54 54l124 -124l125 124z" />
    <glyph glyph-name="Oslash" unicode="&#xd8;" horiz-adv-x="780" 
d="M569 750l-24 -74q88 -42 137.5 -127.5t49.5 -198.5q0 -159 -94.5 -259t-247.5 -100q-34 0 -65 5l-15 -46h-99l24 74q-88 41 -138 127t-50 199q0 159 94.5 259t248.5 100q33 0 64 -5l15 46h100zM147 350q0 -86 29.5 -149.5t83.5 -97.5l170 526q-19 3 -40 3
q-111 0 -177 -75.5t-66 -206.5zM390 68q110 0 176.5 75.5t66.5 206.5q0 34 -5 65.5t-14.5 58.5t-23.5 50t-31.5 41t-38.5 32l-171 -527q20 -2 41 -2z" />
    <glyph glyph-name="Ugrave" unicode="&#xd9;" horiz-adv-x="830" 
d="M461 767h-80l-130 155h106zM774 641l-69 -5q-13 -1 -13 -14v-350q0 -83 -33.5 -147t-96 -99.5t-144.5 -35.5q-124 0 -199 77.5t-75 204.5v350q0 13 -13 14l-64 5q-6 0 -6 7v51h264v-58l-72 -6q-13 -1 -13 -14v-349q0 -97 50 -151t133 -54q56 0 98.5 23.5t67 70.5
t24.5 111v349q0 13 -13 14l-76 6v58h250v-58z" />
    <glyph glyph-name="Uacute" unicode="&#xda;" horiz-adv-x="830" 
d="M448 767h-80l105 156h105zM774 641l-69 -5q-13 -1 -13 -14v-350q0 -83 -33.5 -147t-96 -99.5t-144.5 -35.5q-124 0 -199 77.5t-75 204.5v350q0 13 -13 14l-64 5q-6 0 -6 7v51h264v-58l-72 -6q-13 -1 -13 -14v-349q0 -49 13.5 -88t37.5 -64.5t57.5 -39t74.5 -13.5
q85 0 137.5 54.5t52.5 150.5v349q0 13 -13 14l-76 6v58h250v-58z" />
    <glyph glyph-name="Ucircumflex" unicode="&#xdb;" horiz-adv-x="830" 
d="M579 767h-80l-84 108l-85 -108h-79l108 156h111zM774 641l-69 -5q-13 -1 -13 -14v-350q0 -83 -33.5 -147t-96 -99.5t-144.5 -35.5t-144.5 35.5t-96 99.5t-33.5 147v350q0 13 -13 14l-64 5q-6 0 -6 7v51h264v-58l-72 -6q-13 -1 -13 -14v-349q0 -97 50 -151t133 -54
q85 0 137.5 54.5t52.5 150.5v349q0 13 -13 14l-76 6v58h250v-58z" />
    <glyph glyph-name="Udieresis" unicode="&#xdc;" horiz-adv-x="830" 
d="M327 884q20 0 34 -14.5t14 -33.5t-14 -33.5t-34 -14.5t-34 14.5t-14 33.5t14 33.5t34 14.5zM503 884q13 0 24 -7t17.5 -18t6.5 -23q0 -19 -14 -33.5t-34 -14.5t-34 14.5t-14 33.5t14 33.5t34 14.5zM774 641l-69 -5q-13 -1 -13 -14v-350q0 -83 -33.5 -147t-96 -99.5
t-144.5 -35.5q-124 0 -199 77.5t-75 204.5v350q0 13 -13 14l-64 5q-6 0 -6 7v51h264v-58l-72 -6q-13 -1 -13 -14v-349q0 -65 23 -111.5t64 -70t96 -23.5q85 0 137.5 54.5t52.5 150.5v349q0 13 -13 14l-76 6v58h250v-58z" />
    <glyph glyph-name="Yacute" unicode="&#xdd;" horiz-adv-x="695" 
d="M380 767h-79l104 156h106zM671 642l-50 -4l-220 -391v-170q0 -13 13 -14l68 -5v-58h-256v51q0 7 6 7l61 5q13 1 13 14v163l-222 392q-3 5 -10 6l-44 4q-6 0 -6 7v51h127l210 -372l159 284q5 9 0.5 16.5t-14.5 8.5l-61 5q-7 1 -7 7v51h233v-58z" />
    <glyph glyph-name="Thorn" unicode="&#xde;" horiz-adv-x="642" 
d="M236 605h139q99 0 159.5 -55t60.5 -143.5t-60.5 -143t-159.5 -54.5h-139v-131q0 -13 13 -14l74 -6v-58h-262v51q0 7 6 7l60 5q13 1 13 14v567q0 13 -13 14l-60 5q-6 1 -6 7v51h175v-116zM236 528v-242h135q61 0 96 32.5t35 88.5t-35 88.5t-96 32.5h-135z" />
    <glyph glyph-name="germandbls" unicode="&#xdf;" horiz-adv-x="668" 
d="M352 750q69 0 119.5 -21t75.5 -58.5t25 -87.5q0 -39 -16.5 -64.5t-55.5 -60.5q-26 -25 -25 -57q1 -36 34 -57q4 -3 12 -8q32 -21 47 -32t34 -29.5t27 -40t8 -48.5q0 -87 -68.5 -140t-178.5 -53q-55 0 -97 14v141h56l5 -67q1 -8 9 -9q19 -3 41 -3q63 1 99.5 31t36.5 83
q0 13 -3.5 24t-8 18.5t-16.5 17.5t-20 15.5t-27.5 18.5l-31.5 21q-55 40 -55 101q0 52 39 91q26 23 34.5 31.5t16.5 24.5t8 35q0 44 -32.5 69t-89.5 25q-59 0 -92 -29t-33 -79v-567h-165v51q0 7 6 7l49 4q13 1 13 14v494q0 82 58 131t162 49z" />
    <glyph glyph-name="agrave" unicode="&#xe0;" 
d="M309 567h-80l-130 155h105zM256 509q81 0 134 -42.5t53 -131.5v-261q0 -13 13 -14l63 -6v-54h-145q-7 0 -7 6l-4 56q-62 -72 -163 -72q-70 0 -113.5 39t-43.5 100q0 57 40 87t130 55l142 38v27q0 39 -15.5 64t-38.5 34.5t-54 9.5q-54 0 -107 -27q-6 -3 -7 -10l-6 -69h-47
v118q0 3 2 5q22 13 50 24t61 17.5t63 6.5zM355 254l-121 -33q-58 -16 -80 -33t-22 -51q0 -37 26.5 -58.5t71.5 -21.5q78 0 122 58l3 4v135z" />
    <glyph glyph-name="aacute" unicode="&#xe1;" 
d="M296 567h-80l104 156h106zM256 509q38 0 70.5 -9.5t59.5 -29.5t42 -54.5t15 -80.5v-261q0 -13 13 -14l63 -6v-54h-145q-7 0 -7 6l-4 56q-62 -72 -163 -72q-46 0 -82 18t-55.5 49.5t-19.5 71.5q0 57 40 87t130 55l142 38v27q0 57 -30 82.5t-78 25.5q-54 0 -107 -27
q-6 -3 -7 -10l-6 -69h-47v118q0 3 2 4q35 21 82 35t92 14zM355 254l-121 -33q-40 -10 -60.5 -20t-31 -25t-10.5 -39q0 -37 26.5 -58.5t71.5 -21.5q78 0 122 58l3 4v135z" />
    <glyph glyph-name="acircumflex" unicode="&#xe2;" 
d="M427 567h-80l-84 108l-85 -108h-79l108 156h111zM256 509q81 0 134 -42.5t53 -131.5v-261q0 -13 13 -14l63 -6v-54h-145q-7 0 -7 6l-4 56q-62 -72 -163 -72q-46 0 -82 18t-55.5 49.5t-19.5 71.5q0 57 40 87t130 55l142 38v27q0 57 -30 82.5t-78 25.5q-54 0 -107 -27
q-6 -3 -7 -10l-6 -69h-47v118q0 3 2 4q35 21 82 35t92 14zM355 254l-121 -33q-58 -16 -80 -33t-22 -51q0 -37 26.5 -58.5t71.5 -21.5q78 0 122 58l3 4v135z" />
    <glyph glyph-name="atilde" unicode="&#xe3;" 
d="M357 676l55 -11q-3 -39 -23.5 -61.5t-52.5 -25.5q-25 -2 -62 13q-11 4 -26 11t-26 11.5t-17 4.5q-5 1 -9.5 -0.5t-9 -6.5t-9 -13.5t-8.5 -22.5l-55 16q14 76 67 83q29 4 83 -20q41 -19 58 -15q21 3 35 37zM256 509q81 0 134 -42.5t53 -131.5v-261q0 -13 13 -14l63 -6v-54
h-145q-7 0 -7 6l-4 56q-62 -72 -163 -72q-46 0 -82 18t-55.5 49.5t-19.5 71.5q0 57 40 87t130 55l142 38v27q0 57 -30 82.5t-78 25.5q-54 0 -107 -27q-6 -3 -7 -10l-6 -69h-47v118q0 3 2 4q35 21 82 35t92 14zM355 254l-121 -33q-58 -16 -80 -33t-22 -51q0 -37 26.5 -58.5
t71.5 -21.5q78 0 122 58l3 4v135z" />
    <glyph glyph-name="adieresis" unicode="&#xe4;" 
d="M175 684q20 0 34 -14.5t14 -33.5t-14 -33.5t-34 -14.5t-34 14.5t-14 33.5t14 33.5t34 14.5zM351 684q20 0 33.5 -14.5t13.5 -33.5t-13.5 -33.5t-33.5 -14.5t-34 14.5t-14 33.5t14 33.5t34 14.5zM256 509q81 0 134 -42.5t53 -131.5v-261q0 -13 13 -14l63 -6v-54h-145
q-7 0 -7 6l-4 56q-62 -72 -163 -72q-46 0 -82 18t-55.5 49.5t-19.5 71.5q0 57 40 87t130 55l142 38v27q0 57 -30 82.5t-78 25.5q-54 0 -107 -27q-6 -3 -7 -10l-6 -69h-47v118q0 3 2 4q35 21 82 35t92 14zM355 254l-121 -33q-58 -16 -80 -33t-22 -51q0 -37 26.5 -58.5
t71.5 -21.5q78 0 122 58l3 4v135z" />
    <glyph glyph-name="aring" unicode="&#xe5;" 
d="M263 751q18 0 34.5 -5.5t29.5 -15.5t23 -23.5t15.5 -29.5t5.5 -34q0 -29 -14 -53.5t-39 -39.5t-55 -15t-55 15t-39 39.5t-14 53.5t14 54t39 39.5t55 14.5zM263 705q-24 0 -41 -17.5t-17 -44t17 -44.5t41 -18t41 18t17 44q0 18 -8 32.5t-21.5 22t-28.5 7.5zM256 509
q81 0 134 -42.5t53 -131.5v-261q0 -13 13 -14l63 -6v-54h-145q-7 0 -7 6l-4 56q-62 -72 -163 -72q-70 0 -113.5 39t-43.5 100q0 57 40 87t130 55l142 38v27q0 39 -15.5 64t-38.5 34.5t-54 9.5q-54 0 -107 -27q-6 -3 -7 -10l-6 -69h-47v118q0 3 2 5q35 20 82 34t92 14z
M355 254l-121 -33q-58 -16 -80 -33t-22 -51q0 -37 26.5 -58.5t71.5 -21.5q78 0 122 58l3 4v135z" />
    <glyph glyph-name="ae" unicode="&#xe6;" horiz-adv-x="884" 
d="M615 510q115 0 171 -66.5t58 -184.5v-12q0 -10 -10 -11l-360 -6q4 -81 47 -128t111 -47q90 1 157 61l27 -58q-70 -68 -188 -68q-70 0 -123 31.5t-83 86.5l-4 -31q-90 -87 -206 -87q-50 0 -87.5 16t-59.5 47.5t-22 75.5q0 57 40 87t130 55l142 38v27q0 30 -8.5 51.5
t-24 33.5t-34 17.5t-41.5 5.5q-54 0 -107 -27q-6 -3 -7 -10l-6 -69h-47v118q0 3 2 5q22 13 50 24t61 17.5t63 6.5q62 0 107 -27.5t61 -85.5q27 54 76.5 84t114.5 30zM617 448q-62 0 -100 -42.5t-43 -118.5h270q9 0 7 10q-9 151 -134 151zM355 254l-121 -33q-58 -16 -80 -33
t-22 -51q0 -37 26.5 -58.5t71.5 -21.5q78 0 122 58l3 4v135z" />
    <glyph glyph-name="ccedilla" unicode="&#xe7;" horiz-adv-x="497" 
d="M270 -51q33 -7 51.5 -29.5t17.5 -50.5q-2 -33 -30 -57t-72 -24q-45 0 -79 26l14 41q25 -17 47 -17q15 -1 27 3t20 14t9 24q0 40 -51 44q-11 1 -29 -1l25 79q-54 15 -93.5 50.5t-60.5 86.5t-21 112q0 115 70 187.5t185 72.5q84 0 146 -40q3 -2 3 -5l-1 -131h-56l-6 81
q-1 7 -7 10q-35 20 -79 20q-74 0 -119.5 -52t-45.5 -143t45.5 -143t121.5 -52q67 0 129 43l26 -60q-65 -48 -157 -48q-15 0 -30 1l-15 -40q5 0 15 -2z" />
    <glyph glyph-name="egrave" unicode="&#xe8;" horiz-adv-x="547" 
d="M319 567h-79l-131 155h106zM278 510q78 0 129.5 -32t74.5 -87t24 -132v-14q1 -8 -7 -8l-362 -7q4 -81 47 -128t111 -47q89 1 157 61l27 -58q-70 -68 -188 -68q-74 0 -130 33.5t-86 92.5t-30 134q0 115 63.5 187.5t169.5 72.5zM280 448q-41 0 -72 -19t-49.5 -55.5
t-21.5 -86.5h270q9 0 7 10q-9 151 -134 151z" />
    <glyph glyph-name="eacute" unicode="&#xe9;" horiz-adv-x="547" 
d="M306 567h-79l104 156h106zM278 510q115 0 171 -66.5t57 -184.5v-14q1 -8 -7 -8l-362 -7q4 -81 47 -128t111 -47q89 1 157 61l27 -58q-70 -68 -188 -68q-112 0 -179 72.5t-67 187.5t63.5 187.5t169.5 72.5zM280 448q-62 0 -100 -42.5t-43 -118.5h270q9 0 7 10
q-9 151 -134 151z" />
    <glyph glyph-name="ecircumflex" unicode="&#xea;" horiz-adv-x="547" 
d="M437 567h-79l-85 108l-84 -108h-79l108 156h111zM278 510q115 0 171 -66.5t57 -184.5v-14q1 -8 -7 -8l-362 -7q4 -81 47 -128t111 -47q89 1 157 61l27 -58q-70 -68 -188 -68q-112 0 -179 72.5t-67 187.5t63.5 187.5t169.5 72.5zM280 448q-62 0 -100 -42.5t-43 -118.5h270
q9 0 7 10q-9 151 -134 151z" />
    <glyph glyph-name="edieresis" unicode="&#xeb;" horiz-adv-x="547" 
d="M185 684q20 0 34 -14.5t14 -33.5t-14 -33.5t-34 -14.5t-33.5 14.5t-13.5 33.5t13.5 33.5t33.5 14.5zM361 684q20 0 34 -14.5t14 -33.5t-14 -33.5t-34 -14.5t-34 14.5t-14 33.5t14 33.5t34 14.5zM278 510q78 0 129.5 -32t74.5 -87t24 -132v-14q1 -8 -7 -8l-362 -7
q4 -81 47 -128t111 -47q89 1 157 61l27 -58q-70 -68 -188 -68q-74 0 -130 33.5t-86 92.5t-30 134q0 115 63.5 187.5t169.5 72.5zM280 448q-41 0 -72 -19t-49.5 -55.5t-21.5 -86.5h270q9 0 7 10q-9 151 -134 151z" />
    <glyph glyph-name="igrave" unicode="&#xec;" horiz-adv-x="362" 
d="M218 567h-79l-131 155h106zM61 498l154 8q8 0 8 -8v-424q0 -13 13 -14l70 -6v-54h-245v48q0 7 6 7l55 5q13 1 13 14v353q0 14 -14 15l-60 3v53z" />
    <glyph glyph-name="iacute" unicode="&#xed;" horiz-adv-x="362" 
d="M205 567h-79l104 156h106zM61 498l154 8q8 0 8 -8v-424q0 -13 13 -14l70 -6v-54h-245v48q0 7 6 7l55 5q13 1 13 14v353q0 14 -14 15l-60 3v53z" />
    <glyph glyph-name="icircumflex" unicode="&#xee;" horiz-adv-x="362" 
d="M336 567h-79l-84 108l-85 -108h-79l108 156h111zM61 498l154 8q8 0 8 -8v-424q0 -13 13 -14l70 -6v-54h-245v48q0 7 6 7l55 5q13 1 13 14v353q0 14 -14 15l-60 3v53z" />
    <glyph glyph-name="idieresis" unicode="&#xef;" horiz-adv-x="362" 
d="M84 684q21 0 34.5 -14.5t13.5 -33.5t-13.5 -33.5t-34 -14.5t-34 14.5t-13.5 33.5q0 12 6 23t17 18t24 7zM260 684q20 0 34 -14.5t14 -33.5t-14 -33.5t-34 -14.5t-33.5 14.5t-13.5 33.5t13.5 33.5t33.5 14.5zM61 498l154 8q8 0 8 -8v-424q0 -13 13 -14l70 -6v-54h-245v48
q0 7 6 7l55 5q13 1 13 14v353q0 14 -14 15l-60 3v53z" />
    <glyph glyph-name="eth" unicode="&#xf0;" horiz-adv-x="529" 
d="M479 364q13 -158 -47.5 -260t-175.5 -111q-92 -7 -153 51t-69 158q-7 95 44.5 158t142.5 71q53 4 95.5 -15.5t67.5 -58.5q-2 24 -7 47q-15 101 -79 168l-5 6l-126 -65l-34 45l114 59q-72 52 -171 62l11 69q136 -7 239 -90l101 52l34 -45l-92 -47q18 -19 32 -40
q69 -94 78 -214zM253 66q58 4 94.5 54t43.5 133l-5 16q-15 48 -51.5 73t-86.5 21q-61 -5 -95 -48t-29 -111q5 -69 40.5 -106t88.5 -32z" />
    <glyph glyph-name="ntilde" unicode="&#xf1;" horiz-adv-x="700" 
d="M443 676l55 -11q-3 -39 -23.5 -61.5t-51.5 -25.5q-26 -2 -63 13q-10 4 -25.5 11t-26 11.5t-16.5 4.5q-8 1 -13.5 -2t-11.5 -13t-12 -28l-55 16q15 76 68 83q28 4 82 -20q41 -19 59 -15q20 3 34 37zM424 509q69 0 110 -40.5t41 -120.5v-274q0 -13 13 -14l66 -6v-54h-160
q-7 0 -7 7v326q0 111 -101 111q-75 0 -170 -59v-311q0 -13 13 -14l68 -6v-54h-243v48q0 7 6 7l55 5q13 1 13 14v353q0 14 -14 15l-60 3v53l154 8q8 0 8 -8v-63q111 74 208 74z" />
    <glyph glyph-name="ograve" unicode="&#xf2;" horiz-adv-x="601" 
d="M346 567h-79l-131 155h106zM300.5 510q115.5 0 185.5 -72.5t70 -187.5t-70 -187.5t-186 -72.5q-76 0 -134.5 33.5t-89.5 92.5t-31 134q0 115 70 187.5t185.5 72.5zM300.5 445q-74.5 0 -120 -52t-45.5 -142.5t45.5 -142.5t120 -52t120 52t45.5 142.5t-45.5 142.5t-120 52z
" />
    <glyph glyph-name="oacute" unicode="&#xf3;" horiz-adv-x="601" 
d="M333 567h-79l104 156h106zM300.5 510q115.5 0 185.5 -72.5t70 -187.5t-70 -187.5t-186 -72.5q-76 0 -134.5 33.5t-89.5 92.5t-31 134q0 115 70 187.5t185.5 72.5zM300.5 445q-74.5 0 -120 -52t-45.5 -142.5t45.5 -142.5t120 -52t120 52t45.5 142.5t-45.5 142.5t-120 52z
" />
    <glyph glyph-name="ocircumflex" unicode="&#xf4;" horiz-adv-x="601" 
d="M464 567h-79l-85 108l-84 -108h-79l108 156h111zM300.5 510q115.5 0 185.5 -72.5t70 -187.5t-70 -187.5t-185.5 -72.5t-185.5 72.5t-70 187.5t70 187.5t185.5 72.5zM300 445q-74 0 -119.5 -52t-45.5 -142.5t45.5 -142.5t120 -52t120 52t45.5 142q0 60 -21 104.5
t-58.5 67.5t-86.5 23z" />
    <glyph glyph-name="otilde" unicode="&#xf5;" horiz-adv-x="601" 
d="M395 676l54 -11q-3 -39 -23 -61.5t-52 -25.5q-26 -2 -63 13q-10 4 -25 11t-26 11.5t-17 4.5q-8 1 -13.5 -2t-11 -13t-12.5 -28l-55 16q15 76 68 83q28 4 83 -20q41 -19 58 -15q21 3 35 37zM300.5 510q115.5 0 185.5 -72.5t70 -187.5t-70 -187.5t-185.5 -72.5t-185.5 72.5
t-70 187.5t70 187.5t185.5 72.5zM300.5 445q-74.5 0 -120 -52t-45.5 -142.5t45.5 -142.5t120 -52t120 52t45.5 142.5t-45.5 142.5t-120 52z" />
    <glyph glyph-name="odieresis" unicode="&#xf6;" horiz-adv-x="601" 
d="M212.5 684q20.5 0 34 -14.5t13.5 -33.5t-13.5 -33.5t-34 -14.5t-34 14.5t-13.5 33.5t13.5 33.5t34 14.5zM388 684q20 0 34 -14.5t14 -33.5t-14 -33.5t-34 -14.5t-34 14.5t-14 33.5t14 33.5t34 14.5zM300.5 510q115.5 0 185.5 -72.5t70 -187.5t-70 -187.5t-186 -72.5
q-76 0 -134.5 33.5t-89.5 92.5t-31 134q0 115 70 187.5t185.5 72.5zM300.5 445q-74.5 0 -120 -52t-45.5 -142.5t45.5 -142.5t120 -52t120 52t45.5 142.5t-45.5 142.5t-120 52z" />
    <glyph glyph-name="divide" unicode="&#xf7;" horiz-adv-x="559" 
d="M280 585q22 0 37 -15.5t15 -35.5q0 -14 -7 -25.5t-18.5 -19t-26.5 -7.5q-21 0 -36 15.5t-15 36.5q0 13 6.5 24.5t18.5 19t26 7.5zM518 309h-476v77h476v-77zM280.5 213q21.5 0 36.5 -15.5t15 -36t-15 -36t-36.5 -15.5t-36.5 15.5t-15 36t15 36t36.5 15.5z" />
    <glyph glyph-name="oslash" unicode="&#xf8;" horiz-adv-x="601" 
d="M435 550l-21 -63q67 -30 104.5 -92t37.5 -145q0 -115 -70 -187.5t-186 -72.5q-24 0 -46 3l-14 -43h-74l20 63q-66 30 -103.5 92.5t-37.5 144.5q0 115 70 187.5t185 72.5q24 0 46 -3l15 43h74zM135 250q0 -117 74 -168l117 361q-13 2 -26 2q-74 0 -119.5 -52t-45.5 -143z
M300 56q75 0 120.5 52t45.5 142q0 118 -74 168l-117 -361q12 -1 25 -1z" />
    <glyph glyph-name="ugrave" unicode="&#xf9;" horiz-adv-x="692" 
d="M392 567h-79l-131 155h106zM46 499h160q8 0 8 -7v-325q0 -112 100 -112q76 0 170 60v310q0 13 -12 14l-69 6v54h162q7 0 7 -7v-420q0 -13 14 -14l60 -3v-53l-154 -8q-3 -1 -5 1.5t-2 5.5v64q-112 -75 -209 -75q-45 0 -78 17t-52.5 54t-19.5 91v273q0 13 -13 14l-67 6v54z
" />
    <glyph glyph-name="uacute" unicode="&#xfa;" horiz-adv-x="692" 
d="M379 567h-79l104 156h106zM46 499h160q8 0 8 -7v-325q0 -112 100 -112q76 0 171 60v310q0 13 -13 14l-69 6v54h162q7 0 7 -7v-420q0 -13 14 -14l60 -3v-53l-154 -8q-3 -1 -5 1.5t-2 5.5v64q-112 -75 -209 -75q-69 0 -109.5 40.5t-40.5 121.5v273q0 13 -13 14l-67 6v54z
" />
    <glyph glyph-name="ucircumflex" unicode="&#xfb;" horiz-adv-x="692" 
d="M510 567h-79l-85 108l-84 -108h-79l108 156h111zM46 499h160q8 0 8 -7v-325q0 -112 100 -112q76 0 171 60v310q0 13 -13 14l-69 6v54h162q7 0 7 -7v-420q0 -13 14 -14l60 -3v-53l-154 -8q-3 -1 -5 1.5t-2 5.5v64q-112 -75 -209 -75q-69 0 -109.5 40.5t-40.5 121.5v273
q0 13 -13 14l-67 6v54z" />
    <glyph glyph-name="udieresis" unicode="&#xfc;" horiz-adv-x="692" 
d="M258 684q20 0 34 -14.5t14 -33.5t-14 -33.5t-34 -14.5t-33.5 14.5t-13.5 33.5t13.5 33.5t33.5 14.5zM434 684q20 0 34 -14.5t14 -33.5t-14 -33.5t-34 -14.5t-34 14.5t-14 33.5t14 33.5t34 14.5zM46 499h160q8 0 8 -7v-325q0 -112 100 -112q76 0 171 60v310q0 13 -13 14
l-69 6v54h162q7 0 7 -7v-420q0 -13 14 -14l60 -3v-53l-154 -8q-3 -1 -5 1.5t-2 5.5v64q-112 -75 -209 -75q-69 0 -109.5 40.5t-40.5 121.5v273q0 13 -13 14l-67 6v54z" />
    <glyph glyph-name="yacute" unicode="&#xfd;" horiz-adv-x="567" 
d="M318 567h-79l104 156h106zM552 445l-52 -4l-255 -639q-2 -5 -6 -5h-165v55l113 9q8 0 11 8l51 128h-15l-170 437q-3 7 -10 8l-32 3q-6 1 -6 7v48h117l152 -414l132 332q3 8 -1 14.5t-13 7.5l-61 5q-7 1 -7 7v48h217v-55z" />
    <glyph glyph-name="thorn" unicode="&#xfe;" horiz-adv-x="642" 
d="M61 742l154 8q8 0 8 -8v-295q61 63 154 63q99 0 159.5 -68.5t60.5 -192.5q0 -41 -7.5 -77.5t-24.5 -70t-41.5 -58t-61.5 -39t-82 -14.5q-97 0 -157 66v-185q0 -12 13 -14l68 -5v-55h-243v48q0 7 6 7l55 5q13 2 13 14v800q0 14 -14 14l-60 4v53zM342 442q-77 0 -119 -56
v-262q43 -69 128 -69q71 0 114 52t43 142t-45.5 141.5t-120.5 51.5z" />
    <glyph glyph-name="ydieresis" unicode="&#xff;" horiz-adv-x="567" 
d="M197.5 684q20.5 0 34 -14.5t13.5 -33.5t-13.5 -33.5t-34 -14.5t-34 14.5t-13.5 33.5t13.5 33.5t34 14.5zM373 684q20 0 34 -14.5t14 -33.5t-14 -33.5t-34 -14.5t-34 14.5t-14 33.5t14 33.5t34 14.5zM552 445l-52 -4l-255 -639q-2 -5 -6 -5h-165v55l113 9q8 0 11 8l51 128
h-15l-170 437q-3 7 -10 8l-32 3q-6 1 -6 7v48h117l152 -414l132 332q2 6 1 10.5t-5 8t-10 3.5l-61 5q-7 1 -7 7v48h217v-55z" />
    <glyph glyph-name="Amacron" unicode="&#x100;" horiz-adv-x="781" 
d="M541 793h-300v65h300v-65zM700 63l58 -5v-58h-253v51q0 6 6 7l63 5q5 0 9 3.5t5 8t-1 10.5l-49 120h-314l-58 -140l86 -7v-58h-228v51q0 7 6 7l44 4q8 1 11 8l256 627l94 5zM253 281h257l-128 318z" />
    <glyph glyph-name="amacron" unicode="&#x101;" 
d="M413 593h-300v65h300v-65zM256 509q81 0 134 -42.5t53 -131.5v-261q0 -13 13 -14l63 -6v-54h-145q-7 0 -7 6l-4 56q-62 -72 -163 -72q-46 0 -82 18t-55.5 49.5t-19.5 71.5q0 57 40 87t130 55l142 38v27q0 57 -30 82.5t-78 25.5q-54 0 -107 -27q-6 -3 -7 -10l-6 -69h-47
v118q0 3 2 4q35 21 82 35t92 14zM355 254l-121 -33q-58 -15 -80 -32.5t-22 -51.5q0 -37 26.5 -58.5t71.5 -21.5q78 0 122 58l3 4v135z" />
    <glyph glyph-name="Abreve" unicode="&#x102;" horiz-adv-x="781" 
d="M476 907h59q0 -59 -41.5 -100.5t-102.5 -41.5t-102.5 41.5t-41.5 100.5h60q0 -38 24.5 -63t59.5 -25q23 0 42.5 11t31 31.5t11.5 45.5zM700 63l58 -5v-58h-253v51q0 6 6 7l63 5q5 0 9 3.5t5 8t-1 10.5l-49 120h-314l-58 -140l86 -7v-58h-228v51q0 7 6 7l44 4q8 1 11 8
l256 627l94 5zM253 281h257l-128 318z" />
    <glyph glyph-name="abreve" unicode="&#x103;" 
d="M347 707h60q0 -59 -41.5 -100.5t-102.5 -41.5t-102.5 41.5t-41.5 100.5h59q0 -38 25 -63t60 -25q23 0 42 11t30.5 31.5t11.5 45.5zM256 509q81 0 134 -42.5t53 -131.5v-261q0 -13 13 -14l63 -6v-54h-145q-7 0 -7 6l-4 56q-62 -72 -163 -72q-46 0 -82 18t-55.5 49.5
t-19.5 71.5q0 57 40 87t130 55l142 38v27q0 57 -30 82.5t-78 25.5q-54 0 -107 -27q-6 -3 -7 -10l-6 -69h-47v118q0 3 2 4q17 11 37 19.5t42.5 15t47 10.5t47.5 4zM355 254l-121 -33q-58 -16 -80 -33t-22 -51q0 -37 26.5 -58.5t71.5 -21.5q78 0 122 58l3 4v135z" />
    <glyph glyph-name="Aogonek" unicode="&#x104;" horiz-adv-x="781" 
d="M700 63l58 -5v-58h-194q-51 -36 -52 -87q0 -18 7 -31.5t19 -20.5t27 -7q20 -1 52 15l14 -48q-44 -22 -82 -22q-43 0 -68.5 25t-27.5 63q-4 64 52 113v51q0 6 6 7l63 5q5 0 9 3.5t5 8t-1 10.5l-49 120h-314l-58 -140l86 -7v-58h-228v51q0 7 6 7l44 4q8 1 11 8l256 627
l94 5zM253 281h257l-128 318z" />
    <glyph glyph-name="aogonek" unicode="&#x105;" 
d="M256 509q38 0 70.5 -9.5t59 -29.5t42 -54.5t15.5 -80.5v-261q0 -13 13 -14l63 -6v-54h-100q-52 -36 -52 -87q0 -27 14.5 -43t38.5 -16q20 -1 52 15l13 -48q-43 -22 -82 -22q-43 0 -68 25t-28 63q0 15 3 30.5t10 31t19 30.5t28 27l-4 56q-62 -72 -163 -72q-46 0 -82 18
t-55.5 49.5t-19.5 71.5q0 57 40 87t130 55l142 38v27q0 57 -30 82.5t-78 25.5q-54 0 -107 -27q-6 -3 -7 -10l-6 -69h-47v118q0 3 2 4q35 21 82 35t92 14zM355 254l-121 -33q-58 -15 -80 -32.5t-22 -51.5q0 -37 26.5 -58.5t71.5 -21.5q78 0 122 58l3 4v135z" />
    <glyph glyph-name="Cacute" unicode="&#x106;" horiz-adv-x="648" 
d="M405 767h-79l104 156h105zM392 709q118 0 204 -62q3 -2 3 -5v-136h-57l-6 80q0 7 -7 10q-62 36 -137 36q-110 0 -176.5 -75.5t-66.5 -206.5q0 -133 68 -208t180 -74q103 0 187 64l30 -65q-90 -76 -222 -76q-154 0 -248.5 100t-94.5 259t94.5 259t248.5 100z" />
    <glyph glyph-name="cacute" unicode="&#x107;" horiz-adv-x="497" 
d="M310 567h-79l104 156h106zM300 510q84 0 146 -40q3 -2 3 -5l-1 -131h-56l-6 81q-1 7 -7 10q-35 20 -79 20q-74 0 -119.5 -52t-45.5 -143t45.5 -143t121.5 -52q67 0 129 43l26 -60q-65 -48 -157 -48q-115 0 -185 72.5t-70 187.5t70 187.5t185 72.5z" />
    <glyph glyph-name="Cdotaccent" unicode="&#x10a;" horiz-adv-x="648" 
d="M372 884q20 0 34 -14.5t14 -33.5t-14 -33.5t-34 -14.5t-34 14.5t-14 33.5q0 12 6 23t17.5 18t24.5 7zM392 709q118 0 204 -62q3 -2 3 -5v-136h-57l-6 80q0 7 -7 10q-62 36 -137 36q-72 0 -126.5 -33t-85.5 -97.5t-31 -151.5q0 -133 68 -208t180 -74q103 0 187 64l30 -65
q-90 -76 -222 -76q-154 0 -248.5 100t-94.5 259t94.5 259t248.5 100z" />
    <glyph glyph-name="cdotaccent" unicode="&#x10b;" horiz-adv-x="497" 
d="M281 684q21 0 34.5 -14.5t13.5 -33.5t-13.5 -33.5t-34.5 -14.5q-13 0 -24 7t-17 18t-6 23t6 23t17 18t24 7zM300 510q84 0 146 -40q3 -2 3 -5l-1 -131h-56l-6 81q-1 7 -7 10q-35 20 -79 20q-74 0 -119.5 -52t-45.5 -143t45.5 -143t121.5 -52q67 0 129 43l26 -60
q-65 -48 -157 -48q-115 0 -185 72.5t-70 187.5t70 187.5t185 72.5z" />
    <glyph glyph-name="Ccaron" unicode="&#x10c;" horiz-adv-x="648" 
d="M428 767h-111l-109 156h80l84 -108l85 108h79zM392 709q118 0 204 -62q3 -2 3 -5v-136h-57l-6 80q0 7 -7 10q-62 36 -137 36q-110 0 -176.5 -75.5t-66.5 -206.5q0 -133 68 -208t180 -74q103 0 187 64l30 -65q-90 -76 -222 -76q-154 0 -248.5 100t-94.5 259t94.5 259
t248.5 100z" />
    <glyph glyph-name="ccaron" unicode="&#x10d;" horiz-adv-x="497" 
d="M333 567h-111l-109 156h80l84 -108l85 108h79zM300 510q84 0 146 -40q3 -2 3 -5l-1 -131h-56l-6 81q-1 7 -7 10q-35 20 -79 20q-74 0 -119.5 -52t-45.5 -143t45.5 -143t121.5 -52q67 0 129 43l26 -60q-65 -48 -157 -48q-115 0 -185 72.5t-70 187.5t70 187.5t185 72.5z
" />
    <glyph glyph-name="Dcaron" unicode="&#x10e;" horiz-adv-x="752" 
d="M432 767h-111l-108 156h79l85 -108l84 108h79zM61 700h302q154 0 248 -96t94 -254t-94 -254t-248 -96h-302v51q0 7 6 7l60 5q13 1 13 14v546q0 13 -13 14l-60 5q-6 0 -6 7v51zM292 623l-56 -4v-538l56 -4h71q111 0 177 71.5t66 201.5t-66 201.5t-177 71.5h-71z" />
    <glyph glyph-name="dcaron" unicode="&#x10f;" horiz-adv-x="687" 
d="M632 750q31 0 42.5 -29t1.5 -70q-10 -44 -37 -83l-36 12q14 29 19 54q4 22 -1 36h-1q-13 4 -21 14.5t-8 24.5q0 16 12 28.5t29 12.5zM346 742l154 8q8 0 8 -8v-668q0 -13 13 -14l63 -6v-54h-146q-6 0 -6 6l-4 55q-62 -71 -163 -71q-99 0 -159.5 68.5t-60.5 192.5
q0 51 12.5 96t38 82t68.5 59t99 22q97 0 157 -66v227q0 14 -14 15l-60 3v53zM292 445q-72 0 -114.5 -52t-42.5 -142t45.5 -141.5t119.5 -51.5q77 0 120 56v262q-44 69 -128 69z" />
    <glyph glyph-name="Dcroat" unicode="&#x110;" horiz-adv-x="752" 
d="M61 700h302q154 0 248 -96t94 -254t-94 -254t-248 -96h-302v51q0 7 6 7l60 5q13 1 13 14v235h-98v76h98v235q0 13 -13 14l-60 5q-6 0 -6 7v51zM294 77h69q111 0 177 71.5t66 201.5q0 86 -30.5 148t-85 93.5t-127.5 31.5h-69l-58 -4v-231h127v-76h-127v-231z" />
    <glyph glyph-name="dcroat" unicode="&#x111;" horiz-adv-x="637" 
d="M508 584v-510q0 -13 13 -14l63 -6v-54h-146q-6 0 -7 6l-3 55q-62 -71 -163 -71q-99 0 -159.5 68.5t-60.5 192.5q0 51 12.5 96t38 82t68.5 59t99 22q97 0 157 -66v140h-131v63h131v98l80 5q8 0 8 -8v-95h82v-63h-82zM420 114v262q-44 69 -128 69q-72 0 -114.5 -52
t-42.5 -142t45.5 -141.5t119.5 -51.5q77 0 120 56z" />
    <glyph glyph-name="Emacron" unicode="&#x112;" horiz-adv-x="588" 
d="M466 793h-300v65h300v-65zM61 700h470q7 0 7 -7v-156h-56l-6 73q-1 13 -14 13h-226v-232h216v-72h-216v-242h244q14 0 15 13l5 73h57v-156q0 -7 -8 -7h-488v51q0 7 6 7l60 5q13 1 13 14v546q0 13 -13 14l-60 5q-6 0 -6 7v51z" />
    <glyph glyph-name="emacron" unicode="&#x113;" horiz-adv-x="547" 
d="M428 593h-299v65h299v-65zM278 510q78 0 129.5 -32t74.5 -87t24 -132v-14q1 -8 -7 -8l-362 -7q4 -81 47 -128t111 -47q89 1 157 61l27 -58q-70 -68 -188 -68q-74 0 -130 33.5t-86 92.5t-30 134q0 115 63.5 187.5t169.5 72.5zM280 448q-41 0 -72 -19t-49.5 -55.5
t-21.5 -86.5h270q9 0 7 10q-9 151 -134 151z" />
    <glyph glyph-name="Edotaccent" unicode="&#x116;" horiz-adv-x="588" 
d="M316 884q20 0 34 -14.5t14 -33.5t-14 -33.5t-34 -14.5t-33.5 14.5t-13.5 33.5q0 12 6 23t17 18t24 7zM61 700h470q7 0 7 -7v-156h-56l-6 73q-1 13 -14 13h-226v-232h216v-72h-216v-242h244q13 0 14 13l6 73h57v-156q0 -7 -8 -7h-488v51q0 7 6 7l60 5q13 1 13 14v546
q0 13 -13 14l-60 5q-6 0 -6 7v51z" />
    <glyph glyph-name="edotaccent" unicode="&#x117;" horiz-adv-x="547" 
d="M278 684q20 0 34 -14.5t14 -33.5t-14 -33.5t-34 -14.5t-33.5 14.5t-13.5 33.5q0 12 6 23t17 18t24 7zM278 510q115 0 171 -66.5t57 -184.5l1 -14q0 -8 -8 -8l-362 -7q4 -81 47 -128t111 -47q89 1 157 61l27 -58q-70 -68 -188 -68q-74 0 -130 33.5t-86 92.5t-30 134
q0 115 63.5 187.5t169.5 72.5zM280 448q-41 0 -72 -19t-49.5 -55.5t-21.5 -86.5h270q9 0 7 10q-9 151 -134 151z" />
    <glyph glyph-name="Eogonek" unicode="&#x118;" horiz-adv-x="588" 
d="M61 700h470q7 0 7 -7v-156h-56l-6 73q-1 13 -14 13h-226v-232h216v-72h-216v-242h244q14 0 15 13l5 73h57v-156q0 -7 -8 -7h-56q-52 -36 -52 -87q0 -18 6.5 -31.5t18.5 -20.5t28 -7q19 -1 52 15l13 -48q-43 -22 -82 -22q-28 0 -50 12t-33 31.5t-13 44.5q-3 64 52 113
h-372v51q0 7 6 7l60 5q13 1 13 14v546q0 13 -13 14l-60 5q-6 0 -6 7v51z" />
    <glyph glyph-name="eogonek" unicode="&#x119;" horiz-adv-x="547" 
d="M278 510q115 0 171 -66.5t57 -184.5l1 -14q0 -8 -8 -8l-362 -7q4 -81 47 -128t111 -47q89 1 157 61l27 -58q-29 -28 -70 -46q-71 -39 -71 -99q0 -27 14.5 -43t38.5 -16q19 -1 51 15l14 -48q-44 -22 -82 -22q-43 0 -68.5 25t-27.5 63q-3 58 44 105q-27 -2 -42 -2
q-107 4 -171 76t-64 184q0 115 63.5 187.5t169.5 72.5zM280 448q-62 0 -100 -42.5t-43 -118.5h270q9 0 7 10q-9 151 -134 151z" />
    <glyph glyph-name="Ecaron" unicode="&#x11a;" horiz-adv-x="588" 
d="M372 767h-111l-109 156h80l84 -108l85 108h79zM61 700h470q7 0 7 -7v-156h-56l-6 73q-1 13 -14 13h-226v-232h216v-72h-216v-242h244q13 0 14 13l6 73h57v-156q0 -7 -8 -7h-488v51q0 7 6 7l60 5q13 1 13 14v546q0 13 -13 14l-60 5q-6 0 -6 7v51z" />
    <glyph glyph-name="ecaron" unicode="&#x11b;" horiz-adv-x="547" 
d="M334 567h-111l-108 156h79l85 -108l84 108h79zM278 510q115 0 171 -66.5t57 -184.5v-14q1 -8 -7 -8l-362 -7q4 -81 47 -128t111 -47q89 1 157 61l27 -58q-70 -68 -188 -68q-74 0 -130 33.5t-86 92.5t-30 134q0 115 63.5 187.5t169.5 72.5zM280 448q-41 0 -72 -19
t-49.5 -55.5t-21.5 -86.5h270q9 0 7 10q-9 151 -134 151z" />
    <glyph glyph-name="Gbreve" unicode="&#x11e;" horiz-adv-x="704" 
d="M457 907h59q0 -59 -41.5 -100.5t-102.5 -41.5t-102.5 41.5t-41.5 100.5h60q0 -38 24.5 -63t59.5 -25q23 0 42.5 11t31 31.5t11.5 45.5zM392 709q115 0 226 -59q3 -2 3 -5v-138h-56l-6 76q0 7 -7 10q-82 39 -160 39q-106 0 -174.5 -73t-68.5 -209q0 -131 66 -206.5
t177 -75.5q106 0 169 66v126q0 13 -13 14l-148 8v60h238q8 0 8 -8v-334h-59l-6 58q-84 -67 -203 -67q-148 0 -238.5 100t-90.5 259q0 86 27.5 155.5t75 113.5t109 67t131.5 23z" />
    <glyph glyph-name="gbreve" unicode="&#x11f;" horiz-adv-x="572" 
d="M366 707h60q0 -59 -42 -100.5t-102.5 -41.5t-102.5 41.5t-42 100.5h60q0 -38 25 -63t60 -25q22 0 41.5 11t31 31.5t11.5 45.5zM526 460l-96 -9q57 -38 57 -114q0 -79 -55 -125.5t-148 -46.5q-42 0 -78 10q-46 -12 -45 -40q0 -30 30 -42t99 -12q220 0 220 -148
q0 -74 -63.5 -117t-170.5 -43q-104 0 -169 43t-65 109q0 40 27 72.5t75 51.5q-59 20 -59 69q0 51 73 78q-77 46 -77 141q0 79 55 126t148 47h242v-50zM284 453q-36 0 -62 -13t-39.5 -39t-13.5 -64q0 -56 30 -86t84.5 -30t85 30t30.5 86q0 38 -14 64t-39.5 39t-61.5 13z
M241 25l-11 -2q-52 -10 -81 -35.5t-29 -59.5q0 -44 42.5 -70t113 -26t113 26t42.5 70q0 96 -157 96q-10 0 -33 1z" />
    <glyph glyph-name="Gdotaccent" unicode="&#x120;" horiz-adv-x="704" 
d="M372 884q20 0 34 -14.5t14 -33.5t-14 -33.5t-34 -14.5q-10 0 -19 4t-15 10.5t-9.5 15.5t-3.5 18q0 19 13.5 33.5t33.5 14.5zM392 709q115 0 226 -59q3 -2 3 -5v-138h-56l-6 76q0 7 -7 10q-82 39 -160 39q-106 0 -174.5 -73t-68.5 -209q0 -131 66 -206.5t177 -75.5
q106 0 169 66v126q0 13 -13 14l-148 8v60h238q8 0 8 -8v-334h-59l-6 58q-84 -67 -203 -67q-148 0 -238.5 100t-90.5 259q0 86 27.5 155.5t75 113.5t109 67t131.5 23z" />
    <glyph glyph-name="gdotaccent" unicode="&#x121;" horiz-adv-x="572" 
d="M281 684q21 0 34.5 -14.5t13.5 -33.5t-13.5 -33.5t-34.5 -14.5q-13 0 -24 7t-17 18t-6 23t6 23t17 18t24 7zM526 460l-96 -9q57 -38 57 -114q0 -79 -55 -125.5t-148 -46.5q-42 0 -78 10q-46 -12 -45 -40q0 -30 30 -42t99 -12q220 0 220 -148q0 -74 -63.5 -117t-170.5 -43
q-69 0 -122.5 19.5t-82.5 54t-29 78.5q0 40 27 72.5t75 51.5q-59 20 -59 69q0 51 73 78q-77 46 -77 141q0 79 55 126t148 47h242v-50zM283.5 453q-54.5 0 -84.5 -29.5t-30 -86t30 -86.5t84.5 -30t85 30t30.5 86.5t-30.5 86t-85 29.5zM241 25l-11 -2q-52 -10 -81 -35.5
t-29 -59.5q0 -29 19 -50.5t54.5 -33.5t82.5 -12q70 0 112.5 26t42.5 70q0 96 -157 96q-10 0 -33 1z" />
    <glyph glyph-name="Gcommaaccent" unicode="&#x122;" horiz-adv-x="704" 
d="M392 709q115 0 226 -59q3 -2 3 -5v-138h-56l-6 76q0 7 -7 10q-82 39 -160 39q-106 0 -174.5 -73t-68.5 -209q0 -131 66 -206.5t177 -75.5q106 0 169 66v126q0 13 -13 14l-148 8v60h238q8 0 8 -8v-334h-59l-6 58q-84 -67 -203 -67q-148 0 -238.5 100t-90.5 259
q0 86 27.5 155.5t75 113.5t109 67t131.5 23zM348 -46q30 0 41.5 -28.5t1.5 -70.5q-10 -44 -37 -82l-36 11q14 28 19 54q4 21 0 36h-2q-13 4 -21 15t-8 24q0 16 12 28.5t30 12.5z" />
    <glyph glyph-name="gcommaaccent" unicode="&#x123;" horiz-adv-x="572" 
d="M281 758l37 -12q-15 -29 -20 -54q-4 -21 1 -36h1q13 -4 21 -14.5t8 -23.5q0 -17 -12 -29t-29 -13q-20 0 -32.5 14t-14.5 36t3 49q10 44 37 83zM526 460l-96 -9q57 -38 57 -114q0 -79 -55 -125.5t-148 -46.5q-42 0 -78 10q-46 -12 -45 -40q0 -30 30 -42t99 -12
q220 0 220 -148q0 -74 -63.5 -117t-170.5 -43q-104 0 -169 43t-65 109q0 40 27 72.5t75 51.5q-59 20 -59 69q0 51 73 78q-77 46 -77 141q0 52 24.5 91.5t70.5 60.5t108 21h242v-50zM284 453q-55 0 -85 -29.5t-30 -86t30 -86.5t84.5 -30t85 30t30.5 86q0 38 -14 64t-39.5 39
t-61.5 13zM241 25l-11 -2q-52 -10 -81 -35.5t-29 -59.5q0 -29 19 -50.5t54.5 -33.5t82.5 -12q70 0 112.5 26t42.5 70q0 96 -157 96q-10 0 -33 1z" />
    <glyph glyph-name="Hbar" unicode="&#x126;" horiz-adv-x="858" 
d="M718 506v-429q0 -13 13 -14l66 -5v-58h-262v51q0 7 6 7l68 6q13 1 13 14v241h-386v-241q0 -13 13 -14l74 -6v-58h-262v51q0 7 7 7l60 5q13 1 13 14v429h-141v48h141v69q0 13 -13 14l-60 5q-7 0 -7 7v51h262v-58l-74 -6q-13 -1 -13 -14v-68h386v68q0 13 -13 14l-68 6
q-6 0 -6 7v51h262v-58l-66 -5q-13 -1 -13 -14v-69h140v-48h-140zM622 506h-386v-111h386v111z" />
    <glyph glyph-name="hbar" unicode="&#x127;" horiz-adv-x="707" 
d="M661 54v-54h-160q-7 0 -7 7v326q0 111 -100 111q-76 0 -171 -59v-311q0 -13 13 -14l68 -6v-54h-243v48q0 7 6 7l55 5q13 1 13 14v501h-135v45h135v51q0 14 -13 15l-61 3v53l154 8q8 0 8 -8v-122h162v-45h-162v-140q111 74 209 74q68 0 109 -40.5t41 -120.5v-274
q0 -13 13 -14z" />
    <glyph glyph-name="Itilde" unicode="&#x128;" horiz-adv-x="378" 
d="M283 876l55 -11q-3 -39 -23.5 -61.5t-51.5 -25.5q-26 -2 -63 13q-10 4 -25.5 11t-26 11.5t-16.5 4.5q-12 2 -20 -7t-17 -36l-55 16q15 76 68 83q28 4 83 -20q40 -19 58 -15q21 3 34 37zM317 642l-67 -5q-13 -1 -13 -14v-546q0 -13 13 -14l67 -5v-58h-256v51q0 7 6 7l61 5
q13 1 13 14v546q0 13 -13 14l-61 5q-6 0 -6 7v51h256v-58z" />
    <glyph glyph-name="itilde" unicode="&#x129;" horiz-adv-x="362" 
d="M267 676l55 -11q-3 -39 -23.5 -61.5t-52.5 -25.5q-26 -2 -63 13q-10 4 -25 11t-26 11.5t-17 4.5q-8 1 -13.5 -2t-11 -13t-12.5 -28l-54 16q14 76 67 83q28 4 83 -20q41 -19 58 -15q21 3 35 37zM61 498l154 8q8 0 8 -8v-424q0 -13 13 -14l70 -6v-54h-245v48q0 7 6 7l55 5
q13 1 13 14v353q0 14 -14 15l-60 3v53z" />
    <glyph glyph-name="Imacron" unicode="&#x12a;" horiz-adv-x="378" 
d="M339 793h-300v65h300v-65zM317 642l-67 -5q-13 -1 -13 -14v-546q0 -13 13 -14l67 -5v-58h-256v51q0 7 6 7l61 5q13 1 13 14v546q0 13 -13 14l-61 5q-6 0 -6 7v51h256v-58z" />
    <glyph glyph-name="imacron" unicode="&#x12b;" horiz-adv-x="362" 
d="M322 593h-299v65h299v-65zM61 498l154 8q8 0 8 -8v-424q0 -13 13 -14l70 -6v-54h-245v48q0 7 6 7l55 5q13 1 13 14v353q0 14 -14 15l-60 3v53z" />
    <glyph glyph-name="Iogonek" unicode="&#x12e;" horiz-adv-x="378" 
d="M317 642l-67 -5q-13 -1 -13 -14v-546q0 -13 13 -14l67 -5v-58h-28q-53 -36 -53 -88q0 -27 14.5 -43t38.5 -16q19 -1 52 15l13 -48q-44 -22 -82 -22q-43 0 -68.5 25t-27.5 63q-4 65 53 114h-168v51q0 7 6 7l61 5q13 1 13 14v546q0 13 -13 14l-61 5q-6 0 -6 7v51h256v-58z
" />
    <glyph glyph-name="iogonek" unicode="&#x12f;" horiz-adv-x="362" 
d="M172 684q20 0 34 -14.5t14 -33.5t-14 -33.5t-34 -14.5q-13 0 -24 7t-17 18t-6 23q0 19 13.5 33.5t33.5 14.5zM61 498l154 8q8 0 8 -8v-424q0 -13 13 -14l70 -6v-54h-27q-53 -36 -53 -88q0 -18 6.5 -31.5t18.5 -20.5t28 -7q22 -2 52 15l13 -48q-41 -22 -82 -22
q-28 0 -50 12t-33 31.5t-13 44.5q-3 65 54 114h-159v48q0 7 6 7l55 5q13 1 13 14v353q0 14 -14 15l-60 3v53z" />
    <glyph glyph-name="Idotaccent" unicode="&#x130;" horiz-adv-x="378" 
d="M189 884q20 0 34 -14.5t14 -33.5t-14 -33.5t-34 -14.5q-10 0 -19 4t-15 10.5t-9.5 15.5t-3.5 18q0 19 13.5 33.5t33.5 14.5zM317 642l-67 -5q-13 -1 -13 -14v-546q0 -13 13 -14l67 -5v-58h-256v51q0 7 6 7l61 5q13 1 13 14v546q0 13 -13 14l-61 5q-6 0 -6 7v51h256v-58z
" />
    <glyph glyph-name="dotlessi" unicode="&#x131;" horiz-adv-x="362" 
d="M61 498l154 8q8 0 8 -8v-424q0 -13 13 -14l70 -6v-54h-245v48q0 7 6 7l55 5q13 1 13 14v353q0 14 -14 15l-60 3v53z" />
    <glyph glyph-name="IJ" unicode="&#x132;" horiz-adv-x="762" 
d="M701 642l-66 -5q-13 -1 -13 -14v-586q0 -94 -53 -159.5t-147 -87.5l-20 52q57 22 90 73.5t33 121.5v585q0 13 -13 14l-67 6q-7 0 -7 7v51h263v-58zM317 642l-67 -5q-13 -1 -13 -14v-546q0 -13 13 -14l67 -5v-58h-256v51q0 7 6 7l61 5q13 1 13 14v546q0 13 -13 14l-61 5
q-6 0 -6 7v51h256v-58z" />
    <glyph glyph-name="ij" unicode="&#x133;" horiz-adv-x="635" 
d="M523.5 721q21.5 0 36.5 -15t15 -36.5t-15 -36.5t-36.5 -15t-36.5 15t-15 36.5t15 36.5t36.5 15zM175 721q21 0 36 -15t15 -36.5t-15 -36.5t-36 -15t-36.5 15t-15.5 36.5t15.5 36.5t36.5 15zM410 498l154 8q8 1 8 -7v-583q0 -54 -35.5 -86.5t-94.5 -32.5q-58 0 -93 31
l22 48q19 -14 49 -14q20 0 33.5 6.5t22 20.5t8.5 35v504q0 13 -14 14l-60 3v53zM61 498l154 8q8 0 8 -8v-424q0 -13 13 -14l70 -6v-54h-245v48q0 7 6 7l55 5q13 1 13 14v353q0 14 -14 15l-60 3v53z" />
    <glyph glyph-name="Kcommaaccent" unicode="&#x136;" horiz-adv-x="754" 
d="M709 642l-70 -6l-233 -251l236 -316q3 -4 8 -5l74 -6q6 0 6 -7v-51h-156l-230 316l-108 -117v-121q0 -13 13 -14l74 -6v-58h-262v51q0 7 6 7l60 5q13 1 13 14v546q0 13 -13 14l-60 5q-6 0 -6 7v51h260v-58l-72 -6q-13 -1 -13 -14v-322l280 308q7 9 4.5 18.5t-12.5 11.5
l-37 3q-6 2 -6 7v52h244v-58zM374 -46q30 0 41.5 -28.5t1.5 -70.5q-10 -44 -37 -82l-36 11q14 28 19 54q5 21 0 36h-2q-6 2 -11.5 6t-9 9t-6 11t-2.5 13q0 16 12 28.5t30 12.5z" />
    <glyph glyph-name="kcommaaccent" unicode="&#x137;" horiz-adv-x="629" 
d="M61 742l154 8q8 0 8 -8v-475l188 157q6 5 4 11t-9 7l-37 3q-6 1 -6 7v48h227v-55l-63 -5l-166 -136l181 -240q2 -3 7 -4l64 -5v-55h-130q-5 0 -7 4l-172 256l-81 -66v-121q0 -13 13 -14l58 -5v-54h-231v48q0 7 6 7l53 5q13 1 13 14v597q0 14 -14 14l-60 4v53zM312 -46
q30 0 41.5 -28.5t1.5 -70.5q-10 -44 -37 -82l-36 11q14 28 19 54q5 21 0 36h-2q-13 4 -21 15t-8 24q0 16 12 28.5t30 12.5z" />
    <glyph glyph-name="Lacute" unicode="&#x139;" horiz-adv-x="574" 
d="M320 767h-79l104 156h105zM323 642l-74 -6q-13 -1 -13 -14v-545h232q13 0 14 13l6 73h57v-156q0 -7 -8 -7h-476v51q0 7 6 7l60 5q13 1 13 14v546q0 13 -13 14l-60 5q-6 0 -6 7v51h262v-58z" />
    <glyph glyph-name="lacute" unicode="&#x13a;" horiz-adv-x="352" 
d="M209 810h-79l104 155h105zM61 742l154 8q8 0 8 -8v-668q0 -13 13 -14l70 -6v-54h-243v48q0 7 6 7l53 5q13 1 13 14v597q0 14 -14 14l-60 4v53z" />
    <glyph glyph-name="Lcommaaccent" unicode="&#x13b;" horiz-adv-x="574" 
d="M323 642l-74 -6q-13 -1 -13 -14v-545h232q14 0 14 13l6 73h57v-156q0 -7 -8 -7h-476v51q0 7 6 7l60 5q13 1 13 14v546q0 13 -13 14l-60 5q-6 0 -6 7v51h262v-58zM284 -46q30 0 41.5 -28.5t1.5 -70.5q-10 -44 -37 -82l-36 11q14 28 19 54q5 21 0 36h-2q-12 4 -20 15t-8 24
q0 8 3 15.5t8.5 13t13 9t16.5 3.5z" />
    <glyph glyph-name="lcommaaccent" unicode="&#x13c;" horiz-adv-x="352" 
d="M61 742l154 8q8 0 8 -8v-668q0 -13 13 -14l70 -6v-54h-243v48q0 7 6 7l53 5q13 1 13 14v597q0 14 -14 14l-60 4v53zM173 -46q30 0 41.5 -28.5t1.5 -70.5q-10 -44 -37 -82l-36 11q14 28 19 54q5 21 0 36h-2q-12 4 -20 15t-8 24q0 10 5 19.5t14.5 15.5t21.5 6z" />
    <glyph glyph-name="Lcaron" unicode="&#x13d;" horiz-adv-x="583" 
d="M467 710q31 0 42.5 -29t1.5 -70q-10 -44 -37 -83l-36 12q14 29 19 54q4 22 0 36h-2q-13 4 -21 14.5t-8 24.5q0 16 12 28.5t29 12.5zM323 642l-74 -6q-13 -1 -13 -14v-545h232q14 0 15 13l5 73h57v-156q0 -7 -8 -7h-476v51q0 7 6 7l60 5q13 1 13 14v546q0 13 -13 14l-60 5
q-6 0 -6 7v51h262v-58z" />
    <glyph glyph-name="lcaron" unicode="&#x13e;" horiz-adv-x="424" 
d="M61 742l154 8q8 0 8 -8v-668q0 -13 13 -14l70 -6v-54h-243v48q0 7 6 7l53 5q13 1 13 14v597q0 14 -14 14l-60 4v53zM360 733q30 0 41.5 -29t2.5 -70q-10 -44 -37 -83l-37 12q15 29 20 54q4 22 -1 36h-1q-9 3 -15.5 8.5t-10 13.5t-3.5 17q0 10 5.5 19.5t15 15.5t20.5 6z
" />
    <glyph glyph-name="Ldot" unicode="&#x13f;" horiz-adv-x="574" 
d="M323 642l-74 -6q-13 -1 -13 -14v-545h232q14 0 14 13l6 73h57v-156q0 -7 -8 -7h-476v51q0 7 6 7l60 5q13 1 13 14v546q0 13 -13 14l-60 5q-6 0 -6 7v51h262v-58zM469 429q21 0 36 -15.5t15 -35.5t-15 -35.5t-36.5 -15.5t-36.5 15.5t-15 35.5q0 13 7 25t18.5 19t26.5 7z
" />
    <glyph glyph-name="ldot" unicode="&#x140;" horiz-adv-x="447" 
d="M61 742l154 8q8 0 8 -8v-668q0 -13 13 -14l70 -6v-54h-243v48q0 7 6 7l53 5q13 1 13 14v597q0 14 -14 14l-60 4v53zM374 429q11 0 20.5 -4t16 -11.5t10.5 -16.5t4 -19q0 -20 -15 -35.5t-36.5 -15.5t-36 15.5t-14.5 35.5t14.5 35.5t36.5 15.5z" />
    <glyph glyph-name="Lslash" unicode="&#x141;" horiz-adv-x="596" 
d="M567 163v-156q0 -7 -7 -7h-477v51q0 7 7 7l60 5q13 1 13 14v221l-114 -70v87l114 70v238q0 13 -13 14l-60 5q-7 0 -7 7v51h263v-58l-75 -6q-13 -1 -13 -14v-178l158 97v-87l-158 -97v-280h233q13 0 14 13l5 73h57z" />
    <glyph glyph-name="lslash" unicode="&#x142;" horiz-adv-x="385" 
d="M238 393v-319q0 -13 13 -14l70 -6v-54h-243v48q0 7 7 7l52 5q13 1 13 14v265l-109 -68v83l109 68v249q0 14 -14 14l-60 4v53l154 8q8 0 8 -8v-265l112 70v-84z" />
    <glyph glyph-name="Nacute" unicode="&#x143;" horiz-adv-x="847" 
d="M457 767h-80l104 156h106zM791 642l-67 -5q-13 -1 -13 -14v-623h-88l-399 540v-462q0 -13 13 -14l69 -6v-58h-250v51q0 7 6 7l61 5q13 1 13 14v546q0 13 -13 14l-61 5q-6 0 -6 7v51h161l406 -549v471q0 13 -13 14l-62 6q-7 0 -7 7v51h250v-58z" />
    <glyph glyph-name="nacute" unicode="&#x144;" horiz-adv-x="700" 
d="M382 567h-79l104 156h105zM424 509q69 0 110 -40.5t41 -120.5v-274q0 -13 13 -14l66 -6v-54h-160q-7 0 -7 7v326q0 111 -101 111q-75 0 -170 -59v-311q0 -13 13 -14l68 -6v-54h-243v48q0 7 6 7l55 5q13 1 13 14v353q0 14 -14 15l-60 3v53l154 8q8 0 8 -8v-63
q111 74 208 74z" />
    <glyph glyph-name="Ncommaaccent" unicode="&#x145;" horiz-adv-x="847" 
d="M791 642l-67 -5q-13 -1 -13 -14v-623h-88l-399 540v-462q0 -13 13 -14l69 -6v-58h-250v51q0 7 6 7l61 5q13 1 13 14v546q0 13 -13 14l-61 5q-6 0 -6 7v51h161l406 -549v471q0 13 -13 14l-62 6q-7 0 -7 7v51h250v-58zM420 -46q31 0 42.5 -28.5t1.5 -70.5q-10 -44 -37 -82
l-36 11q13 28 19 54q4 21 0 36h-2q-9 2 -15.5 8t-10 14t-3.5 17q0 16 12 28.5t29 12.5z" />
    <glyph glyph-name="ncommaaccent" unicode="&#x146;" horiz-adv-x="700" 
d="M424 509q69 0 110 -40.5t41 -120.5v-274q0 -13 13 -14l66 -6v-54h-160q-7 0 -7 7v326q0 111 -101 111q-75 0 -170 -59v-311q0 -13 13 -14l68 -6v-54h-243v48q0 7 6 7l55 5q13 1 13 14v353q0 14 -14 15l-60 3v53l154 8q8 0 8 -8v-63q111 74 208 74zM346 -46
q30 0 41.5 -28.5t1.5 -70.5q-10 -44 -37 -82l-36 11q14 28 20 54q4 21 -1 36h-2q-6 2 -11.5 6t-9 9t-5.5 11t-2 13q0 16 12 28.5t29 12.5z" />
    <glyph glyph-name="Ncaron" unicode="&#x147;" horiz-adv-x="847" 
d="M479 767h-111l-108 156h79l85 -108l84 108h80zM791 642l-67 -5q-13 -1 -13 -14v-623h-88l-399 540v-462q0 -13 13 -14l69 -6v-58h-250v51q0 7 6 7l61 5q13 1 13 14v546q0 13 -13 14l-61 5q-6 0 -6 7v51h161l406 -549v471q0 13 -13 14l-62 6q-7 0 -7 7v51h250v-58z" />
    <glyph glyph-name="ncaron" unicode="&#x148;" horiz-adv-x="700" 
d="M405 567h-111l-109 156h80l84 -108l85 108h79zM424 509q69 0 110 -40.5t41 -120.5v-274q0 -13 13 -14l66 -6v-54h-160q-7 0 -7 7v326q0 111 -101 111q-75 0 -170 -59v-311q0 -13 13 -14l68 -6v-54h-243v48q0 7 6 7l55 5q13 1 13 14v353q0 14 -14 15l-60 3v53l154 8
q8 0 8 -8v-63q111 74 208 74z" />
    <glyph glyph-name="Eng" unicode="&#x14a;" horiz-adv-x="852" 
d="M791 642l-66 -5q-13 -1 -13 -14v-585q0 -93 -51 -158t-142 -88l-19 51q50 18 82 60t39 100l-397 537v-462q0 -13 13 -14l69 -6v-58h-250v51q0 7 6 7l61 5q13 1 13 14v546q0 13 -13 14l-61 5q-6 0 -6 7v51h161l406 -549v471q0 13 -13 14l-62 6q-7 0 -7 7v51h250v-58z" />
    <glyph glyph-name="eng" unicode="&#x14b;" horiz-adv-x="681" 
d="M424 509q45 0 78 -16.5t53 -53.5t20 -91v-432q0 -54 -35.5 -86.5t-94.5 -32.5q-58 0 -93 31l22 48q19 -14 49 -14q19 0 33 6.5t22.5 20.5t8.5 35v409q0 111 -101 111q-75 0 -170 -59v-311q0 -13 13 -14l68 -6v-54h-243v48q0 7 6 7l55 5q13 1 13 14v353q0 14 -14 15l-60 3
v53l154 8q8 0 8 -8v-63q111 74 208 74z" />
    <glyph glyph-name="Omacron" unicode="&#x14c;" horiz-adv-x="780" 
d="M539 793h-299v65h299v-65zM390 709q154 0 248 -100t94 -259t-94 -259t-248 -100t-248.5 100t-94.5 259t94.5 259t248.5 100zM390 632q-55 0 -100 -19.5t-76.5 -55.5t-49 -89t-17.5 -118q0 -131 66 -206.5t177 -75.5t177 75.5t66 206.5t-66 206.5t-177 75.5z" />
    <glyph glyph-name="omacron" unicode="&#x14d;" horiz-adv-x="601" 
d="M450 593h-299v65h299v-65zM300.5 510q115.5 0 185.5 -72.5t70 -187.5t-70 -187.5t-186 -72.5q-76 0 -134.5 33.5t-89.5 92.5t-31 134q0 115 70 187.5t185.5 72.5zM300.5 445q-74.5 0 -120 -52t-45.5 -142.5t45.5 -142.5t120 -52t120 52t45.5 142.5t-45.5 142.5t-120 52z
" />
    <glyph glyph-name="Ohungarumlaut" unicode="&#x150;" horiz-adv-x="780" 
d="M337 767h-80l96 155h105zM508 767h-80l96 155h106zM389.5 709q153.5 0 248 -100t94.5 -259t-94 -259t-248 -100t-248.5 100t-94.5 259t94.5 259t248 100zM390 632q-111 0 -177 -75.5t-66 -206.5t66 -206.5t177 -75.5t177 75.5t66 206.5t-66 206.5t-177 75.5z" />
    <glyph glyph-name="ohungarumlaut" unicode="&#x151;" horiz-adv-x="601" 
d="M247 567h-79l96 155h105zM418 567h-79l96 155h105zM300.5 510q115.5 0 185.5 -72.5t70 -187.5t-70 -187.5t-186 -72.5q-76 0 -134.5 33.5t-89.5 92.5t-31 134q0 115 70 187.5t185.5 72.5zM300.5 445q-74.5 0 -120 -52t-45.5 -142.5t45.5 -142.5t120 -52t120 52
t45.5 142.5t-45.5 142.5t-120 52z" />
    <glyph glyph-name="OE" unicode="&#x152;" horiz-adv-x="1081" 
d="M390 709q82 0 145 -36t98 -99v126h391q7 0 7 -7v-156h-56l-6 73q-1 13 -14 13h-226v-232h216v-72h-216v-242h244q13 0 14 13l6 73h56v-156q0 -7 -7 -7h-409v126q-35 -64 -98 -99.5t-145 -35.5q-154 0 -248.5 100t-94.5 259t94.5 259t248.5 100zM390 632
q-111 0 -177 -75.5t-66 -206.5t66 -206.5t177 -75.5t177 75.5t66 206.5t-66 206.5t-177 75.5z" />
    <glyph glyph-name="oe" unicode="&#x153;" horiz-adv-x="1002" 
d="M733 510q116 0 171.5 -66.5t57.5 -184.5v-14q0 -8 -8 -8l-361 -7q4 -81 46.5 -128t110.5 -47q90 1 158 61l27 -58q-71 -68 -188 -68q-79 0 -136 39t-83 107q-27 -68 -86.5 -107t-141.5 -39q-115 0 -185 72.5t-70 187.5t70 187.5t185 72.5q81 0 140 -38.5t87 -105.5
q24 67 78 105.5t128 38.5zM735 448q-62 0 -100 -42.5t-43 -118.5h271q8 0 7 10q-10 151 -135 151zM300.5 445q-74.5 0 -120 -52t-45.5 -142.5t45.5 -142.5t120 -52t120 52t45.5 142.5t-45.5 142.5t-120 52z" />
    <glyph glyph-name="Racute" unicode="&#x154;" horiz-adv-x="696" 
d="M381 767h-79l104 156h105zM61 700h314q99 0 159.5 -53t60.5 -139q0 -72 -44 -120t-119 -59l-3 -1l157 -259q3 -5 10 -5l70 -6v-58h-145q-4 0 -6 3l-173 313h-106v-238q0 -13 13 -14l74 -6v-58h-262v51q0 7 6 7l60 5q13 1 13 14v546q0 13 -13 14l-60 5q-6 0 -6 7v51z
M293 623l-57 -4v-226h142q58 0 91 31t33 84.5t-33 84t-91 30.5h-85z" />
    <glyph glyph-name="racute" unicode="&#x155;" horiz-adv-x="456" 
d="M260 567h-80l104 156h106zM381 504q24 4 48 2q5 -1 5 -6v-129h-56l-4 52q-1 13 -11 13t-24 -5q-57 -17 -123 -74v-283q0 -13 13 -14l68 -6v-54h-243v48q0 7 6 7l55 5q13 1 13 14v353q0 14 -14 15l-60 3v53l154 8q8 0 8 -8v-84q81 78 165 90z" />
    <glyph glyph-name="Rcommaaccent" unicode="&#x156;" horiz-adv-x="696" 
d="M61 700h314q99 0 159.5 -53t60.5 -139q0 -72 -44 -120t-119 -59l-3 -1l157 -259q3 -5 10 -5l70 -6v-58h-145q-4 0 -6 3l-173 313h-106v-238q0 -13 13 -14l74 -6v-58h-262v51q0 7 6 7l60 5q13 1 13 14v546q0 13 -13 14l-60 5q-6 0 -6 7v51zM293 623l-57 -4v-226h142
q58 0 91 31t33 84.5t-33 84t-91 30.5h-85zM345 -46q30 0 41.5 -28.5t1.5 -70.5q-10 -44 -37 -82l-36 11q14 28 19 54q5 21 0 36h-2q-6 2 -11.5 6t-9 9t-6 11t-2.5 13q0 8 3.5 15.5t9 13t13 9t16.5 3.5z" />
    <glyph glyph-name="rcommaaccent" unicode="&#x157;" horiz-adv-x="456" 
d="M381 504q24 4 48 2q5 0 5 -6v-129h-56l-4 52q-1 13 -11 13t-24 -5q-57 -17 -123 -74v-283q0 -13 13 -14l68 -6v-54h-243v48q0 7 6 7l55 5q13 1 13 14v353q0 14 -14 15l-60 3v53l154 8q8 0 8 -8v-84q81 78 165 90zM223 -46q31 0 42.5 -28.5t1.5 -70.5q-10 -44 -37 -82
l-36 11q13 28 19 54q4 21 0 36h-2q-13 4 -21 15t-8 24q0 10 5.5 19.5t15 15.5t20.5 6z" />
    <glyph glyph-name="Rcaron" unicode="&#x158;" horiz-adv-x="696" 
d="M404 767h-111l-109 156h80l84 -108l85 108h79zM61 700h314q99 0 159.5 -53t60.5 -139q0 -72 -44 -120t-119 -59l-3 -1l157 -259q3 -5 10 -5l70 -6v-58h-145q-4 0 -6 3l-173 313h-106v-238q0 -13 13 -14l74 -6v-58h-262v51q0 7 6 7l60 5q13 1 13 14v546q0 13 -13 14l-60 5
q-6 0 -6 7v51zM293 623l-57 -4v-226h142q58 0 91 31t33 84.5t-33 84t-91 30.5h-85z" />
    <glyph glyph-name="rcaron" unicode="&#x159;" horiz-adv-x="456" 
d="M282 567h-111l-108 156h79l85 -108l84 108h80zM381 504q24 4 48 2q5 0 5 -6v-129h-56l-4 52q-1 13 -11 13t-24 -5q-57 -17 -123 -74v-283q0 -13 13 -14l68 -6v-54h-243v48q0 7 6 7l55 5q13 1 13 14v353q0 14 -14 15l-60 3v53l154 8q8 0 8 -8v-84q81 78 165 90z" />
    <glyph glyph-name="Sacute" unicode="&#x15a;" horiz-adv-x="564" 
d="M315 767h-79l104 156h105zM316 711q94 0 159 -38q3 -1 3 -5v-138h-56l-6 76q0 8 -7 11q-38 18 -92 18q-71 0 -113.5 -27t-42.5 -70q0 -29 8.5 -46t37.5 -37.5t93 -50.5q88 -43 133 -75t62 -62.5t17 -74.5q0 -64 -35.5 -110t-96.5 -68.5t-140 -22.5q-93 0 -184 39
q-4 2 -4 6v138h56l6 -72q0 -8 8 -11q56 -23 127 -23q74 0 118 30.5t44 81.5q0 21 -4 34t-18.5 28t-39.5 29.5t-71 37.5q-75 36 -117.5 62t-65 52.5t-29 49t-6.5 59.5q0 81 73.5 129.5t182.5 49.5z" />
    <glyph glyph-name="sacute" unicode="&#x15b;" horiz-adv-x="442" 
d="M254 567h-79l104 156h105zM253 510q68 0 118 -26q3 -2 3 -5v-116h-46l-6 69q0 8 -8 11q-24 10 -57 10q-49 0 -78.5 -19t-30 -48t16.5 -46.5t81 -49.5q89 -44 118.5 -75.5t29.5 -77.5q0 -69 -57.5 -107t-149.5 -38q-66 0 -133 25q-4 1 -4 6v114h47l5 -66q1 -8 8 -11
q37 -12 80 -12q55 0 87.5 22t32.5 59q0 28 -16.5 44.5t-78.5 47.5q-53 26 -83 45t-46 37.5t-20.5 35t-4.5 43.5q0 58 55 93t137 35z" />
    <glyph glyph-name="Scedilla" unicode="&#x15e;" horiz-adv-x="564" 
d="M316 711q94 0 159 -38q3 -1 3 -5v-138h-56l-6 76q0 8 -7 11q-38 18 -92 18q-71 0 -113.5 -27t-42.5 -70q0 -29 8.5 -46t37.5 -37.5t93 -50.5q88 -43 133 -75t62 -62.5t17 -74.5q0 -81 -56 -132t-150 -64l-17 -45q5 0 14 -2q33 -7 52 -29.5t17 -50.5q-1 -33 -29.5 -57
t-72.5 -24q-45 0 -78 26l13 41q25 -17 48 -17q14 -1 26 3t20 14t9 24q0 40 -51 44q-11 1 -28 -1l22 70h-28q-88 3 -167 38q-4 2 -4 6v138h56l6 -72q0 -8 8 -11q56 -23 127 -23q74 0 118 30.5t44 81.5q0 28 -9 44.5t-36.5 35.5t-87.5 49q-75 36 -117.5 62t-65 52.5t-29 49
t-6.5 59.5q0 81 73.5 129.5t182.5 49.5z" />
    <glyph glyph-name="scedilla" unicode="&#x15f;" horiz-adv-x="442" 
d="M253 510q68 0 118 -26q3 -2 3 -5v-116h-46l-6 69q0 8 -8 11q-24 10 -57 10t-57.5 -8.5t-37.5 -24t-13 -34.5q-1 -29 16 -46.5t81 -49.5q89 -44 118.5 -75.5t29.5 -77.5q0 -38 -19 -68t-52 -48t-78 -25l-17 -45q5 0 14 -2q33 -7 51.5 -29.5t17.5 -50.5q-1 -33 -29.5 -57
t-72.5 -24q-45 0 -78 26l13 41q25 -17 48 -17q22 -2 37.5 8.5t17.5 32.5q0 40 -51 44q-11 1 -28 -1l22 71l-16 -1q-59 1 -120 25q-4 1 -4 6v114h47l5 -66q1 -8 8 -11q37 -12 80 -12q55 0 87.5 22t32.5 59q0 28 -16.5 44.5t-78.5 47.5q-53 26 -83 45t-46 37.5t-20.5 35
t-4.5 43.5q0 58 55 93t137 35z" />
    <glyph glyph-name="Scaron" unicode="&#x160;" horiz-adv-x="564" 
d="M338 767h-111l-109 156h80l84 -108l85 108h79zM316 711q94 0 159 -38q3 -1 3 -5v-138h-56l-6 76q0 8 -7 11q-38 18 -92 18q-71 0 -113.5 -27t-42.5 -70q0 -29 8.5 -46t37.5 -37.5t93 -50.5q88 -43 133 -75t62 -62.5t17 -74.5q0 -95 -75 -148t-197 -53q-93 0 -184 39
q-4 2 -4 6v138h56l6 -72q0 -8 8 -11q56 -23 127 -23q49 0 85.5 13.5t56.5 39t20 59.5q0 28 -9 44.5t-36.5 35.5t-87.5 49q-75 36 -117.5 62t-65 52.5t-29 49t-6.5 59.5q0 81 73.5 129.5t182.5 49.5z" />
    <glyph glyph-name="scaron" unicode="&#x161;" horiz-adv-x="442" 
d="M277 567h-111l-109 156h80l84 -108l85 108h79zM253 510q68 0 118 -26q3 -2 3 -5v-116h-46l-6 69q0 8 -8 11q-24 10 -57 10q-49 0 -78.5 -19t-30 -48t16.5 -46.5t81 -49.5q89 -44 118.5 -75.5t29.5 -77.5q0 -69 -57.5 -107t-149.5 -38q-66 0 -133 25q-4 1 -4 6v114h47
l5 -66q1 -8 8 -11q37 -12 80 -12q55 0 87.5 22t32.5 59q0 28 -16.5 44.5t-78.5 47.5q-53 26 -83 45t-46 37.5t-20.5 35t-4.5 43.5q0 58 55 93t137 35z" />
    <glyph glyph-name="Tcedilla" unicode="&#x162;" horiz-adv-x="648" 
d="M31 700h587q7 0 7 -7v-154h-57l-5 74q-1 13 -14 13h-177v-549q0 -13 13 -14l67 -5v-58h-103l-18 -49q5 0 15 -2q32 -7 51 -29.5t17 -50.5q-1 -22 -13.5 -40t-35.5 -29.5t-52 -11.5q-46 0 -79 26l13 41q25 -17 48 -17q15 -1 26.5 3t19.5 14t9 24q0 40 -50 44q-11 1 -29 -1
l25 78h-100v51q0 7 6 7l61 5q13 1 13 14v549h-176q-13 0 -14 -13l-6 -74h-56v154q0 7 7 7z" />
    <glyph glyph-name="tcedilla" unicode="&#x163;" horiz-adv-x="390" 
d="M182 500h133v-55l-133 -7v-326q0 -29 17 -44.5t47 -16.5q41 0 63 29l23 -42q-28 -43 -92 -48h-24l-15 -39q5 0 15 -2q32 -7 51 -29.5t18 -50.5q-2 -33 -30 -57t-72 -24q-45 0 -79 26l14 41q25 -17 47 -17q23 -2 38.5 8.5t17.5 32.5q0 40 -51 44q-11 1 -29 -1l25 76
q-23 8 -39 22.5t-24.5 34.5t-8.5 45v338l-56 3q-7 1 -7 8v48l63 1v126l88 5v-129z" />
    <glyph glyph-name="Tcaron" unicode="&#x164;" horiz-adv-x="648" 
d="M380 767h-111l-108 156h79l85 -108l84 108h79zM31 700h586q8 0 8 -7v-154h-57l-5 74q-1 13 -14 13h-177v-549q0 -13 13 -14l67 -5v-58h-256v51q0 7 6 7l61 5q13 1 13 14v549h-176q-13 0 -14 -13l-6 -74h-56v154q0 7 7 7z" />
    <glyph glyph-name="tcaron" unicode="&#x165;" horiz-adv-x="402" 
d="M341 750q30 0 41.5 -29t1.5 -70q-10 -44 -37 -83l-36 12q14 29 20 54q4 22 -1 36h-2q-6 2 -11.5 6t-9 9t-5.5 11t-2 13q0 16 11.5 28.5t29.5 12.5zM182 500h133v-55l-133 -7v-326q0 -29 17 -44.5t47 -16.5q41 0 63 29l23 -42q-32 -49 -110 -49q-59 0 -93.5 30t-34.5 81
v338l-56 3q-7 1 -7 8v48l63 1v126l88 5v-129z" />
    <glyph glyph-name="Tbar" unicode="&#x166;" horiz-adv-x="648" 
d="M625 539h-57l-5 74q-1 13 -14 13h-177v-243h102v-66h-102v-240q0 -13 13 -14l67 -5v-58h-256v51q0 7 6 7l61 5q13 1 13 14v240h-102v66h102v243h-176q-13 0 -14 -13l-6 -74h-56v154q0 7 7 7h586q8 0 8 -7v-154z" />
    <glyph glyph-name="tbar" unicode="&#x167;" horiz-adv-x="390" 
d="M309 80l23 -42q-32 -49 -110 -49q-59 0 -93.5 30t-34.5 81v165h-63v65h63v108l-56 3q-7 1 -7 8v48l63 1v126l88 5v-129h133v-55l-133 -7v-108h133v-65h-133v-153q0 -29 17 -44.5t47 -16.5q41 0 63 29z" />
    <glyph glyph-name="Utilde" unicode="&#x168;" horiz-adv-x="830" 
d="M509 876l55 -11q-3 -39 -23.5 -61.5t-52.5 -25.5q-25 -2 -62 13q-11 4 -26 11t-26 11.5t-17 4.5q-11 2 -19 -7t-17 -36l-55 16q14 76 67 83q29 4 83 -20q41 -19 58 -15q21 3 35 37zM774 641l-69 -5q-13 -1 -13 -14v-350q0 -83 -33.5 -147t-96 -99.5t-144.5 -35.5
q-124 0 -199 77.5t-75 204.5v350q0 13 -13 14l-64 5q-6 0 -6 7v51h264v-58l-72 -6q-13 -1 -13 -14v-349q0 -65 23 -111.5t64 -70t96 -23.5q56 0 98.5 23.5t67 70.5t24.5 111v349q0 13 -13 14l-76 6v58h250v-58z" />
    <glyph glyph-name="utilde" unicode="&#x169;" horiz-adv-x="692" 
d="M440 676l55 -11q-3 -39 -23.5 -61.5t-51.5 -25.5q-26 -2 -63 13q-10 4 -25.5 11t-26 11.5t-16.5 4.5q-12 2 -20 -7t-17 -36l-55 16q15 76 68 83q28 4 83 -20q40 -19 58 -15q21 3 34 37zM46 499h160q8 0 8 -7v-325q0 -112 100 -112q76 0 170 60v310q0 13 -12 14l-69 6v54
h162q7 0 7 -7v-420q0 -13 14 -14l60 -3v-53l-154 -8q-3 -1 -5 1.5t-2 5.5v64q-112 -75 -209 -75q-69 0 -109.5 40.5t-40.5 121.5v273q0 13 -13 14l-67 6v54z" />
    <glyph glyph-name="Umacron" unicode="&#x16a;" horiz-adv-x="830" 
d="M565 793h-300v65h300v-65zM774 641l-69 -5q-13 -1 -13 -14v-350q0 -83 -33.5 -147t-96 -99.5t-144.5 -35.5q-124 0 -199 77.5t-75 204.5v350q0 13 -13 14l-64 5q-6 0 -6 7v51h264v-58l-72 -6q-13 -1 -13 -14v-349q0 -97 50 -151t133 -54q85 0 137.5 54.5t52.5 150.5v349
q0 13 -13 14l-76 6v58h250v-58z" />
    <glyph glyph-name="umacron" unicode="&#x16b;" horiz-adv-x="692" 
d="M496 593h-300v65h300v-65zM46 499h160q8 0 8 -7v-325q0 -112 100 -112q76 0 171 60v310q0 13 -13 14l-69 6v54h162q7 0 7 -7v-420q0 -13 14 -14l60 -3v-53l-154 -8q-3 -1 -5 1.5t-2 5.5v64q-112 -75 -209 -75q-69 0 -109.5 40.5t-40.5 121.5v273q0 13 -13 14l-67 6v54z
" />
    <glyph glyph-name="Uring" unicode="&#x16e;" horiz-adv-x="830" 
d="M415 951q30 0 55 -14.5t39 -39.5t14 -54t-14 -53.5t-39 -39.5t-55 -15t-55 15t-39 39.5t-14 53.5t14 54t39 39.5t55 14.5zM415 905q-24 0 -41 -17.5t-17 -44.5q0 -17 8 -31.5t21 -22.5t29 -8q24 0 41 18t17 44q0 18 -8 32.5t-21.5 22t-28.5 7.5zM774 641l-69 -5
q-13 -1 -13 -14v-350q0 -83 -33.5 -147t-96 -99.5t-144.5 -35.5q-124 0 -199 77.5t-75 204.5v350q0 13 -13 14l-64 5q-6 0 -6 7v51h264v-58l-72 -6q-13 -1 -13 -14v-349q0 -97 50 -151t133 -54q56 0 98.5 23.5t67 70.5t24.5 111v349q0 13 -13 14l-76 6v58h250v-58z" />
    <glyph glyph-name="uring" unicode="&#x16f;" horiz-adv-x="692" 
d="M346.5 751q45.5 0 76.5 -31.5t31 -76t-31 -76.5t-76.5 -32t-77 32t-31.5 76.5t31.5 76t77 31.5zM346 705q-24 0 -41 -17.5t-17 -44t17 -44.5t41 -18t41 18t17 44q0 18 -8 32.5t-21 22t-29 7.5zM46 499h160q8 0 8 -7v-325q0 -112 100 -112q76 0 171 60v310q0 13 -13 14
l-69 6v54h162q7 0 7 -7v-420q0 -13 14 -14l60 -3v-53l-154 -8q-3 -1 -5 1.5t-2 5.5v64q-112 -75 -209 -75q-69 0 -109.5 40.5t-40.5 121.5v273q0 13 -13 14l-67 6v54z" />
    <glyph glyph-name="Uhungarumlaut" unicode="&#x170;" horiz-adv-x="830" 
d="M362 767h-80l96 155h106zM533 767h-79l95 155h106zM774 641l-69 -5q-13 -1 -13 -14v-350q0 -83 -33.5 -147t-96 -99.5t-144.5 -35.5q-124 0 -199 77.5t-75 204.5v350q0 13 -13 14l-64 5q-6 0 -6 7v51h264v-58l-72 -6q-13 -1 -13 -14v-349q0 -49 13.5 -88t37.5 -64.5
t57.5 -39t74.5 -13.5q85 0 137.5 54.5t52.5 150.5v349q0 13 -13 14l-76 6v58h250v-58z" />
    <glyph glyph-name="uhungarumlaut" unicode="&#x171;" horiz-adv-x="692" 
d="M293 567h-79l95 155h106zM464 567h-79l96 155h105zM46 499h160q8 0 8 -7v-325q0 -112 100 -112q76 0 171 60v310q0 13 -13 14l-69 6v54h162q7 0 7 -7v-420q0 -13 14 -14l60 -3v-53l-154 -8q-3 -1 -5 1.5t-2 5.5v64q-112 -75 -209 -75q-69 0 -109.5 40.5t-40.5 121.5v273
q0 13 -13 14l-67 6v54z" />
    <glyph glyph-name="Uogonek" unicode="&#x172;" horiz-adv-x="830" 
d="M325 641l-72 -6q-13 -1 -13 -14v-349q0 -97 50 -151t133 -54q85 0 137.5 54.5t52.5 150.5v349q0 13 -13 14l-76 6v58h250v-58l-69 -5q-13 -1 -13 -14v-350q0 -93 -42 -161.5t-117 -98.5q-66 -39 -66 -97q-1 -27 14 -43t39 -16q19 -1 51 15l14 -48q-44 -22 -82 -22
q-43 0 -68.5 25t-27.5 63q-3 57 42 103q-25 -2 -38 -2q-124 3 -195.5 80t-71.5 202v350q0 13 -13 14l-64 5q-6 0 -6 7v51h264v-58z" />
    <glyph glyph-name="uogonek" unicode="&#x173;" horiz-adv-x="692" 
d="M46 499h160q8 0 8 -7v-325q0 -112 100 -112q76 0 171 60v310q0 13 -13 14l-69 6v54h162q7 0 7 -7v-420q0 -13 14 -14l60 -3v-53l-109 -6q-47 -35 -48 -84q0 -27 14.5 -43t38.5 -16q22 -2 52 15l14 -48q-41 -22 -82 -22q-29 0 -50.5 12t-33 31.5t-12.5 44.5q-4 65 55 115
v64q-112 -75 -209 -75q-69 0 -109.5 40.5t-40.5 121.5v273q0 13 -13 14l-67 6v54z" />
    <glyph glyph-name="Wcircumflex" unicode="&#x174;" horiz-adv-x="1128" 
d="M727 767h-79l-84 108l-85 -108h-79l108 156h111zM1104 642l-65 -5l-194 -637h-80l-204 554l-204 -554h-82l-189 629q-3 8 -11 9l-45 4q-6 0 -6 7v51h146l157 -564l175 480q3 8 -1.5 14t-12.5 7l-60 5q-7 1 -7 7v51h195l193 -564l142 481q2 8 -2 13.5t-12 6.5l-63 5
q-7 1 -7 7v51h237v-58z" />
    <glyph glyph-name="wcircumflex" unicode="&#x175;" horiz-adv-x="857" 
d="M592 567h-79l-85 108l-84 -108h-79l108 156h111zM841 445l-50 -4l-161 -441h-81l-123 347l-127 -347h-80l-153 433q-2 8 -11 9l-33 3q-6 1 -6 7v48h120l131 -404l115 323q2 8 -2 14.5t-12 6.5l-57 5q-6 1 -6 7v48h161l131 -404l115 324q3 7 -1 13.5t-12 7.5l-58 5
q-7 0 -7 7v47h207v-55z" />
    <glyph glyph-name="Ycircumflex" unicode="&#x176;" horiz-adv-x="695" 
d="M511 767h-79l-85 108l-84 -108h-79l108 156h111zM671 642l-50 -4l-220 -391v-170q0 -13 13 -14l68 -5v-58h-256v51q0 7 6 7l61 5q13 1 13 14v163l-222 392q-3 5 -10 6l-44 4q-6 0 -6 7v51h127l210 -372l159 284q5 9 0.5 16.5t-14.5 8.5l-61 5q-7 1 -7 7v51h233v-58z" />
    <glyph glyph-name="ycircumflex" unicode="&#x177;" horiz-adv-x="567" 
d="M449 567h-79l-84 108l-85 -108h-79l108 156h111zM552 445l-52 -4l-255 -639q-2 -5 -6 -5h-165v55l113 9q8 0 11 8l51 128h-15l-170 437q-3 7 -10 8l-32 3q-6 1 -6 7v48h117l152 -414l132 332q2 6 1 10.5t-5 8t-10 3.5l-61 5q-7 1 -7 7v48h217v-55z" />
    <glyph glyph-name="Ydieresis" unicode="&#x178;" horiz-adv-x="695" 
d="M259 884q20 0 34 -14.5t14 -33.5t-14 -33.5t-34 -14.5t-33.5 14.5t-13.5 33.5t13.5 33.5t33.5 14.5zM435 884q20 0 34 -14.5t14 -33.5t-14 -33.5t-34 -14.5t-34 14.5t-14 33.5t14 33.5t34 14.5zM671 642l-50 -4l-220 -391v-170q0 -13 13 -14l68 -5v-58h-256v51q0 7 6 7
l61 5q13 1 13 14v163l-222 392q-3 5 -10 6l-44 4q-6 0 -6 7v51h127l210 -372l159 284q5 9 0.5 16.5t-14.5 8.5l-61 5q-7 1 -7 7v51h233v-58z" />
    <glyph glyph-name="Zacute" unicode="&#x179;" horiz-adv-x="590" 
d="M328 767h-80l104 156h106zM555 645l-394 -569h322q13 0 14 13l5 67h56v-149q0 -7 -7 -7h-519v53l396 570h-297q-13 0 -14 -13l-5 -64h-57v147q0 7 7 7h493v-55z" />
    <glyph glyph-name="zacute" unicode="&#x17a;" horiz-adv-x="498" 
d="M282 567h-79l104 156h106zM438 462l-284 -406h229q13 0 14 13l5 60h46v-122q0 -7 -7 -7h-393v38l284 406h-202q-13 0 -15 -13l-4 -59h-47v121q0 7 8 7h366v-38z" />
    <glyph glyph-name="Zdotaccent" unicode="&#x17b;" horiz-adv-x="590" 
d="M295 884q20 0 33.5 -14.5t13.5 -33.5t-13.5 -33.5t-33.5 -14.5t-34 14.5t-14 33.5q0 12 6 23t17 18t25 7zM555 645l-394 -569h322q13 0 14 13l5 67h56v-149q0 -7 -7 -7h-519v53l396 570h-297q-13 0 -14 -13l-5 -64h-57v147q0 7 8 7h492v-55z" />
    <glyph glyph-name="zdotaccent" unicode="&#x17c;" horiz-adv-x="498" 
d="M249 684q20 0 34 -14.5t14 -33.5t-14 -33.5t-34 -14.5q-13 0 -24 7t-17 18t-6 23q0 19 13.5 33.5t33.5 14.5zM438 462l-284 -406h229q13 0 14 13l5 60h46v-122q0 -7 -7 -7h-393v38l284 406h-202q-13 0 -15 -13l-4 -59h-47v121q0 7 8 7h366v-38z" />
    <glyph glyph-name="Zcaron" unicode="&#x17d;" horiz-adv-x="590" 
d="M350 767h-111l-108 156h79l85 -108l84 108h80zM555 645l-394 -569h322q13 0 14 13l5 67h56v-149q0 -7 -7 -7h-519v53l396 570h-297q-13 0 -14 -13l-5 -64h-57v147q0 7 8 7h492v-55z" />
    <glyph glyph-name="zcaron" unicode="&#x17e;" horiz-adv-x="498" 
d="M305 567h-111l-108 156h79l85 -108l84 108h79zM438 462l-284 -406h229q13 0 14 13l5 60h46v-122q0 -7 -7 -7h-393v38l284 406h-202q-13 0 -15 -13l-4 -59h-47v121q0 7 8 7h366v-38z" />
    <glyph glyph-name="longs" unicode="&#x17f;" horiz-adv-x="416" 
d="M295 749q81 0 146 -42l-23 -55q-58 32 -111 32q-44 -1 -72.5 -26t-28.5 -74v-510q0 -13 13 -14l66 -6v-54h-227v48q0 7 6 7l41 4q13 1 13 14v365l-60 4q-6 0 -6 7v51h66v90q0 77 51 118t126 41z" />
    <glyph glyph-name="florin" unicode="&#x192;" horiz-adv-x="441" 
d="M320 749q81 0 147 -42l-24 -55q-58 32 -111 32q-44 -1 -72.5 -26t-28.5 -74v-166h140v-55l-140 -7v-440q0 -63 -50 -95q-28 -17 -63 -18.5t-66 12.5l14 50q40 -4 59 12q18 14 18 47v433l-59 3q-7 0 -7 7v51h66v172q0 77 51 118t126 41z" />
    <glyph glyph-name="Ohorn" unicode="&#x1a0;" horiz-adv-x="780" 
d="M673 822l68 23q31 -58 28 -113q-3 -49 -33.5 -79t-81.5 -32q-15 -1 -29 1q107 -100 107 -272q0 -159 -94 -259t-248 -100t-248.5 100t-94.5 259t94.5 259t248.5 100q83 0 151 -34q31 -13 66 -14q84 0 90 68q3 42 -24 93zM390 632q-111 0 -177 -75.5t-66 -206.5t66 -206.5
t177 -75.5t177 75.5t66 206.5t-66 206.5t-177 75.5z" />
    <glyph glyph-name="ohorn" unicode="&#x1a1;" horiz-adv-x="601" 
d="M523 619l62 21q31 -58 28 -113q-3 -47 -32 -76.5t-78 -33.5q53 -68 53 -167q0 -115 -70 -187.5t-185.5 -72.5t-185.5 72.5t-70 187.5t70 187.5t185 72.5q95 0 160 -52l15 2q63 6 71 65q5 42 -23 94zM300.5 445q-74.5 0 -120 -52t-45.5 -142.5t45.5 -142.5t120 -52t120 52
t45.5 142.5t-45.5 142.5t-120 52z" />
    <glyph glyph-name="Uhorn" unicode="&#x1af;" horiz-adv-x="832" 
d="M745 825l50 21q35 -26 47 -61q14 -33 1.5 -67.5t-47.5 -53.5q-21 -10 -45 -12l-47 -5q-12 -2 -12 -14v-360q0 -127 -75 -204.5t-199 -77.5q-62 0 -113 20.5t-86.5 57.5t-55 89.5t-19.5 114.5v349q0 13 -13 15l-64 5q-6 0 -6 7v51h264v-58l-72 -6q-13 -1 -13 -14v-349
q0 -97 50 -151t133 -54q85 0 137.5 54t52.5 151v349q0 13 -13 14l-76 6v58h212q10 2 21 7q20 11 26 30.5t-3 40.5q-10 27 -35 47z" />
    <glyph glyph-name="uhorn" unicode="&#x1b0;" horiz-adv-x="692" 
d="M582 635l50 20q40 -30 49 -77q7 -35 -8.5 -65t-51.5 -45q-22 -10 -49 -10v-386q0 -13 14 -14l60 -3v-53l-154 -8q-3 -1 -5 1.5t-2 5.5v64q-112 -75 -209 -75q-69 0 -109.5 40.5t-40.5 121.5v273q0 13 -13 14l-67 6v54h160q8 0 8 -7v-325q0 -112 100 -112q76 0 170 60v310
q0 13 -12 14l-69 6v54h139q24 0 44 9q22 11 30.5 29.5t2.5 40.5q-8 30 -37 57z" />
    <glyph glyph-name="DZcaron" unicode="&#x1c4;" horiz-adv-x="1342" 
d="M1103 767h-111l-109 156h80l84 -108l85 108h79zM61 700h302q154 0 248 -96t94 -254t-94 -254t-248 -96h-302v51q0 7 6 7l60 5q13 1 13 14v546q0 13 -13 14l-60 5q-6 0 -6 7v51zM1307 645l-393 -569h321q13 0 14 13l5 67h57v-149q0 -7 -7 -7h-520v53l396 570h-297
q-13 0 -14 -13l-5 -64h-56v147q0 7 7 7h492v-55zM292 623l-56 -4v-538l56 -4h71q111 0 177 71.5t66 201.5q0 86 -30.5 148t-85 93.5t-127.5 31.5h-71z" />
    <glyph glyph-name="Dzcaron" unicode="&#x1c5;" horiz-adv-x="1251" 
d="M1058 567h-111l-109 156h80l84 -108l85 108h79zM61 700h302q154 0 248 -96t94 -254t-94 -254t-248 -96h-302v51q0 7 6 7l60 5q13 1 13 14v546q0 13 -13 14l-60 5q-6 0 -6 7v51zM292 623l-56 -4v-538l56 -4h71q111 0 177 71.5t66 201.5q0 86 -30.5 148t-85 93.5
t-127.5 31.5h-71zM1191 462l-284 -406h228q13 0 14 13l5 60h46v-122q0 -7 -7 -7h-393v38l285 406h-203q-13 0 -14 -13l-5 -59h-46v121q0 7 7 7h367v-38z" />
    <glyph glyph-name="dzcaron" unicode="&#x1c6;" horiz-adv-x="1136" 
d="M346 742l154 8q8 0 8 -8v-668q0 -13 13 -14l63 -6v-54h-146q-6 0 -6 6l-4 55q-62 -71 -163 -71q-99 0 -159.5 68.5t-60.5 192.5q0 51 12.5 96t38 82t68.5 59t99 22q97 0 157 -66v227q0 14 -14 15l-60 3v53zM943 567h-111l-109 156h80l84 -108l85 108h79zM1076 462
l-284 -406h228q13 0 14 13l5 60h46v-122q0 -7 -7 -7h-393v38l285 406h-203q-13 0 -14 -13l-5 -59h-46v121q0 7 7 7h367v-38zM292 445q-72 0 -114.5 -52t-42.5 -142t45.5 -141.5t119.5 -51.5q77 0 120 56v262q-44 69 -128 69z" />
    <glyph glyph-name="LJ" unicode="&#x1c7;" horiz-adv-x="958" 
d="M897 642l-66 -5q-13 -1 -13 -14v-586q0 -94 -53 -159.5t-147 -87.5l-20 52q57 22 90 73.5t33 121.5v585q0 13 -13 14l-67 6q-7 0 -7 7v51h263v-58zM323 642l-74 -6q-13 -1 -13 -14v-545h232q14 0 15 13l5 73h57v-156q0 -7 -8 -7h-476v51q0 7 6 7l60 5q13 1 13 14v546
q0 13 -13 14l-60 5q-6 0 -6 7v51h262v-58z" />
    <glyph glyph-name="Lj" unicode="&#x1c8;" horiz-adv-x="849" 
d="M737.5 721q21.5 0 36.5 -15t15 -36.5t-15 -36.5t-36.5 -15t-36.5 15t-15 36.5t15 36.5t36.5 15zM323 642l-74 -6q-13 -1 -13 -14v-545h232q14 0 15 13l5 73h57v-156q0 -7 -8 -7h-476v51q0 7 6 7l60 5q13 1 13 14v546q0 13 -13 14l-60 5q-6 0 -6 7v51h262v-58zM624 498
l154 8q8 1 8 -7v-583q0 -54 -35.5 -86.5t-94.5 -32.5q-58 0 -93 31l22 48q19 -14 49 -14t47 15.5t17 46.5v504q0 13 -14 14l-60 3v53z" />
    <glyph glyph-name="lj" unicode="&#x1c9;" horiz-adv-x="627" 
d="M61 742l154 8q8 0 8 -8v-668q0 -13 13 -14l70 -6v-54h-243v48q0 7 6 7l53 5q13 1 13 14v597q0 14 -14 14l-60 4v53zM516 721q21 0 36 -15t15 -36.5t-15 -36.5t-36 -15t-36.5 15t-15.5 36.5t15.5 36.5t36.5 15zM402 498l154 8q8 1 8 -7v-583q0 -36 -16 -63t-45.5 -41.5
t-68.5 -14.5q-58 0 -92 31l21 48q19 -14 50 -14q19 0 33 6.5t22 20.5t8 35v504q0 13 -14 14l-60 3v53z" />
    <glyph glyph-name="NJ" unicode="&#x1ca;" horiz-adv-x="1231" 
d="M791 642l-67 -5q-13 -1 -13 -14v-623h-88l-399 540v-462q0 -13 13 -14l69 -6v-58h-250v51q0 7 6 7l61 5q13 1 13 14v546q0 13 -13 14l-61 5q-6 0 -6 7v51h161l406 -549v471q0 13 -13 14l-62 6q-7 0 -7 7v51h250v-58zM1170 642l-66 -5q-13 -1 -13 -14v-586
q0 -94 -53 -159.5t-147 -87.5l-20 52q57 22 90 73.5t33 121.5v585q0 13 -13 14l-67 6q-7 0 -7 7v51h263v-58z" />
    <glyph glyph-name="Nj" unicode="&#x1cb;" horiz-adv-x="1122" 
d="M1011 721q14 0 25.5 -7t18.5 -18.5t7 -25.5q0 -22 -15 -37t-36 -15q-14 0 -26 7t-19 19t-7 26q0 21 15 36t37 15zM791 642l-67 -5q-13 -1 -13 -14v-623h-88l-399 540v-462q0 -13 13 -14l69 -6v-58h-250v51q0 7 6 7l61 5q13 1 13 14v546q0 13 -13 14l-61 5q-6 0 -6 7v51
h161l406 -549v471q0 13 -13 14l-62 6q-7 0 -7 7v51h250v-58zM897 498l154 8q8 1 8 -7v-583q0 -54 -35.5 -86.5t-94.5 -32.5q-58 0 -93 31l22 48q19 -14 50 -14q29 0 46 15.5t17 46.5v504q0 13 -14 14l-60 3v53z" />
    <glyph glyph-name="nj" unicode="&#x1cc;" horiz-adv-x="975" 
d="M864 721q21 0 36 -15t15 -36.5t-15 -36.5t-36 -15t-36 15t-15 36.5t15 36.5t36 15zM424 509q69 0 110 -40.5t41 -120.5v-274q0 -13 13 -14l66 -6v-54h-160q-7 0 -7 7v326q0 111 -101 111q-75 0 -170 -59v-311q0 -13 13 -14l68 -6v-54h-243v48q0 7 6 7l55 5q13 1 13 14
v353q0 14 -14 15l-60 3v53l154 8q8 0 8 -8v-63q111 74 208 74zM750 498l154 8q8 1 8 -7v-583q0 -54 -35.5 -86.5t-94.5 -32.5q-58 0 -92 31l21 48q19 -14 50 -14q29 0 46 15.5t17 46.5v504q0 13 -14 14l-60 3v53z" />
    <glyph glyph-name="Acaron" unicode="&#x1cd;" horiz-adv-x="781" 
d="M447 767h-111l-109 156h80l84 -108l85 108h79zM700 63l58 -5v-58h-253v51q0 6 6 7l63 5q5 0 9 3.5t5 8t-1 10.5l-49 120h-314l-58 -140l86 -7v-58h-228v51q0 7 6 7l44 4q8 1 11 8l256 627l94 5zM253 281h257l-128 318z" />
    <glyph glyph-name="acaron" unicode="&#x1ce;" 
d="M318 567h-111l-108 156h80l84 -108l84 108h80zM256 509q38 0 70.5 -9.5t59.5 -29.5t42 -54.5t15 -80.5v-261q0 -13 13 -14l63 -6v-54h-145q-7 0 -7 6l-4 56q-62 -72 -163 -72q-46 0 -82 18t-55.5 49.5t-19.5 71.5q0 57 40 87t130 55l142 38v27q0 57 -30 82.5t-78 25.5
q-54 0 -107 -27q-6 -3 -7 -10l-6 -69h-47v118q0 3 2 4q35 21 82 35t92 14zM355 254l-121 -33q-40 -10 -60.5 -20t-31 -25t-10.5 -39q0 -37 26.5 -58.5t71.5 -21.5q78 0 122 58l3 4v135z" />
    <glyph glyph-name="Icaron" unicode="&#x1cf;" horiz-adv-x="378" 
d="M245 767h-111l-108 156h79l84 -108l85 108h79zM317 642l-67 -5q-13 -1 -13 -14v-546q0 -13 13 -14l67 -5v-58h-256v51q0 7 6 7l61 5q13 1 13 14v546q0 13 -13 14l-61 5q-6 0 -6 7v51h256v-58z" />
    <glyph glyph-name="icaron" unicode="&#x1d0;" horiz-adv-x="362" 
d="M228 567h-111l-108 156h79l85 -108l84 108h79zM61 498l154 8q8 0 8 -8v-424q0 -13 13 -14l70 -6v-54h-245v48q0 7 6 7l55 5q13 1 13 14v353q0 14 -14 15l-60 3v53z" />
    <glyph glyph-name="Ocaron" unicode="&#x1d1;" horiz-adv-x="780" 
d="M445 767h-111l-108 156h79l85 -108l84 108h80zM390 709q154 0 248 -100t94 -259t-94 -259t-248 -100t-248.5 100t-94.5 259t94.5 259t248.5 100zM390 632q-55 0 -100 -19.5t-76.5 -55.5t-49 -89t-17.5 -118q0 -131 66 -206.5t177 -75.5t177 75.5t66 206.5t-66 206.5
t-177 75.5z" />
    <glyph glyph-name="ocaron" unicode="&#x1d2;" horiz-adv-x="601" 
d="M356 567h-111l-108 156h79l85 -108l84 108h79zM300.5 510q115.5 0 185.5 -72.5t70 -187.5t-70 -187.5t-186 -72.5q-76 0 -134.5 33.5t-89.5 92.5t-31 134q0 115 70 187.5t185.5 72.5zM300.5 445q-74.5 0 -120 -52t-45.5 -142.5t45.5 -142.5t120 -52t120 52t45.5 142.5
t-45.5 142.5t-120 52z" />
    <glyph glyph-name="Ucaron" unicode="&#x1d3;" horiz-adv-x="830" 
d="M471 767h-111l-109 156h80l84 -108l85 108h79zM774 641l-69 -5q-13 -1 -13 -14v-350q0 -83 -33.5 -147t-96 -99.5t-144.5 -35.5q-124 0 -199 77.5t-75 204.5v350q0 13 -13 14l-64 5q-6 0 -6 7v51h264v-58l-72 -6q-13 -1 -13 -14v-349q0 -49 13.5 -88t37.5 -64.5t57.5 -39
t74.5 -13.5q85 0 137.5 54.5t52.5 150.5v349q0 13 -13 14l-76 6v58h250v-58z" />
    <glyph glyph-name="ucaron" unicode="&#x1d4;" horiz-adv-x="692" 
d="M402 567h-111l-109 156h80l84 -108l85 108h79zM46 499h160q8 0 8 -7v-325q0 -112 100 -112q76 0 170 60v310q0 13 -12 14l-69 6v54h162q7 0 7 -7v-420q0 -13 14 -14l60 -3v-53l-154 -8q-3 -1 -5 1.5t-2 5.5v64q-112 -75 -209 -75q-69 0 -109.5 40.5t-40.5 121.5v273
q0 13 -13 14l-67 6v54z" />
    <glyph glyph-name="Udieresismacron" unicode="&#x1d5;" horiz-adv-x="830" 
d="M565 972h-300v66h300v-66zM327 884q20 0 34 -14.5t14 -33.5t-14 -33.5t-34 -14.5t-34 14.5t-14 33.5t14 33.5t34 14.5zM503 884q13 0 24 -7t17.5 -18t6.5 -23q0 -19 -14 -33.5t-34 -14.5t-34 14.5t-14 33.5t14 33.5t34 14.5zM774 641l-69 -5q-13 -1 -13 -14v-350
q0 -83 -33.5 -147t-96 -99.5t-144.5 -35.5q-124 0 -199 77.5t-75 204.5v350q0 13 -13 14l-64 5q-6 0 -6 7v51h264v-58l-72 -6q-13 -1 -13 -14v-349q0 -97 50 -151t133 -54q85 0 137.5 54.5t52.5 150.5v349q0 13 -13 14l-76 6v58h250v-58z" />
    <glyph glyph-name="udieresismacron" unicode="&#x1d6;" horiz-adv-x="692" 
d="M496 754h-300v65h300v-65zM258 684q20 0 34 -14.5t14 -33.5t-14 -33.5t-34 -14.5t-33.5 14.5t-13.5 33.5t13.5 33.5t33.5 14.5zM434 684q20 0 34 -14.5t14 -33.5t-14 -33.5t-34 -14.5t-34 14.5t-14 33.5t14 33.5t34 14.5zM46 499h160q8 0 8 -7v-325q0 -112 100 -112
q76 0 170 60v310q0 13 -12 14l-69 6v54h162q7 0 7 -7v-420q0 -13 14 -14l60 -3v-53l-154 -8q-3 -1 -5 1.5t-2 5.5v64q-112 -75 -209 -75q-69 0 -109.5 40.5t-40.5 121.5v273q0 13 -13 14l-67 6v54z" />
    <glyph glyph-name="Udieresisacute" unicode="&#x1d7;" horiz-adv-x="830" 
d="M448 933h-80l105 155h105zM327 884q20 0 34 -14.5t14 -33.5t-14 -33.5t-34 -14.5t-34 14.5t-14 33.5t14 33.5t34 14.5zM503 884q13 0 24 -7t17.5 -18t6.5 -23q0 -19 -14 -33.5t-34 -14.5t-34 14.5t-14 33.5t14 33.5t34 14.5zM774 641l-69 -5q-13 -1 -13 -14v-350
q0 -83 -33.5 -147t-96 -99.5t-144.5 -35.5q-124 0 -199 77.5t-75 204.5v350q0 13 -13 14l-64 5q-6 0 -6 7v51h264v-58l-72 -6q-13 -1 -13 -14v-349q0 -49 13.5 -88t37.5 -64.5t57.5 -39t74.5 -13.5q85 0 137.5 54.5t52.5 150.5v349q0 13 -13 14l-76 6v58h250v-58z" />
    <glyph glyph-name="udieresisacute" unicode="&#x1d8;" horiz-adv-x="692" 
d="M379 721h-79l104 156h106zM258 684q20 0 34 -14.5t14 -33.5t-14 -33.5t-34 -14.5q-13 0 -24 7t-17 18t-6 23q0 19 13.5 33.5t33.5 14.5zM434 684q20 0 34 -14.5t14 -33.5t-14 -33.5t-34 -14.5t-34 14.5t-14 33.5t14 33.5t34 14.5zM46 499h160q8 0 8 -7v-325
q0 -112 100 -112q76 0 171 60v310q0 13 -13 14l-69 6v54h162q7 0 7 -7v-420q0 -13 14 -14l60 -3v-53l-154 -8q-3 -1 -5 1.5t-2 5.5v64q-112 -75 -209 -75q-69 0 -109.5 40.5t-40.5 121.5v273q0 13 -13 14l-67 6v54z" />
    <glyph glyph-name="Udieresiscaron" unicode="&#x1d9;" horiz-adv-x="830" 
d="M471 933h-111l-109 155h80l84 -107l85 107h79zM327 884q20 0 34 -14.5t14 -33.5t-14 -33.5t-34 -14.5t-34 14.5t-14 33.5t14 33.5t34 14.5zM503 884q13 0 24 -7t17.5 -18t6.5 -23q0 -19 -14 -33.5t-34 -14.5t-34 14.5t-14 33.5t14 33.5t34 14.5zM774 641l-69 -5
q-13 -1 -13 -14v-350q0 -83 -33.5 -147t-96 -99.5t-144.5 -35.5q-124 0 -199 77.5t-75 204.5v350q0 13 -13 14l-64 5q-6 0 -6 7v51h264v-58l-72 -6q-13 -1 -13 -14v-349q0 -49 13.5 -88t37.5 -64.5t57.5 -39t74.5 -13.5q85 0 137.5 54.5t52.5 150.5v349q0 13 -13 14l-76 6
v58h250v-58z" />
    <glyph glyph-name="udieresiscaron" unicode="&#x1da;" horiz-adv-x="692" 
d="M402 721h-111l-109 156h80l84 -108l85 108h79zM258 684q20 0 34 -14.5t14 -33.5t-14 -33.5t-34 -14.5t-33.5 14.5t-13.5 33.5t13.5 33.5t33.5 14.5zM434 684q20 0 34 -14.5t14 -33.5t-14 -33.5t-34 -14.5t-34 14.5t-14 33.5t14 33.5t34 14.5zM46 499h160q8 0 8 -7v-325
q0 -112 100 -112q76 0 170 60v310q0 13 -12 14l-69 6v54h162q7 0 7 -7v-420q0 -13 14 -14l60 -3v-53l-154 -8q-3 -1 -5 1.5t-2 5.5v64q-112 -75 -209 -75q-69 0 -109.5 40.5t-40.5 121.5v273q0 13 -13 14l-67 6v54z" />
    <glyph glyph-name="Udieresisgrave" unicode="&#x1db;" horiz-adv-x="830" 
d="M461 933h-80l-130 155h106zM327 884q20 0 34 -14.5t14 -33.5t-14 -33.5t-34 -14.5t-34 14.5t-14 33.5t14 33.5t34 14.5zM503 884q13 0 24 -7t17.5 -18t6.5 -23q0 -19 -14 -33.5t-34 -14.5t-34 14.5t-14 33.5t14 33.5t34 14.5zM774 641l-69 -5q-13 -1 -13 -14v-350
q0 -83 -33.5 -147t-96 -99.5t-144.5 -35.5q-124 0 -199 77.5t-75 204.5v350q0 13 -13 14l-64 5q-6 0 -6 7v51h264v-58l-72 -6q-13 -1 -13 -14v-349q0 -49 13.5 -88t37.5 -64.5t57.5 -39t74.5 -13.5q85 0 137.5 54.5t52.5 150.5v349q0 13 -13 14l-76 6v58h250v-58z" />
    <glyph glyph-name="udieresisgrave" unicode="&#x1dc;" horiz-adv-x="692" 
d="M392 721h-79l-131 156h106zM258 684q20 0 34 -14.5t14 -33.5t-14 -33.5t-34 -14.5t-33.5 14.5t-13.5 33.5t13.5 33.5t33.5 14.5zM434 684q20 0 34 -14.5t14 -33.5t-14 -33.5t-34 -14.5t-34 14.5t-14 33.5t14 33.5t34 14.5zM46 499h160q8 0 8 -7v-325q0 -112 100 -112
q76 0 170 60v310q0 13 -12 14l-69 6v54h162q7 0 7 -7v-420q0 -13 14 -14l60 -3v-53l-154 -8q-3 -1 -5 1.5t-2 5.5v64q-112 -75 -209 -75q-45 0 -78 17t-52.5 54t-19.5 91v273q0 13 -13 14l-67 6v54z" />
    <glyph glyph-name="Adieresismacron" unicode="&#x1de;" horiz-adv-x="781" 
d="M541 914h-300v65h300v-65zM303 863q20 0 34 -14t14 -33t-14 -33.5t-34 -14.5t-34 14.5t-14 33.5t14 33t34 14zM479 863q13 0 24 -6.5t17.5 -17.5t6.5 -23q0 -19 -14 -33.5t-34 -14.5t-34 14.5t-14 33.5t14 33t34 14zM700 63l58 -5v-58h-253v51q0 6 6 7l63 5q5 0 9 3.5
t5 8t-1 10.5l-49 120h-314l-58 -140l86 -7v-58h-228v51q0 7 6 7l44 4q8 1 11 8l256 627l94 5zM253 281h257l-128 318z" />
    <glyph glyph-name="adieresismacron" unicode="&#x1df;" 
d="M413 731h-300v65h300v-65zM175 684q20 0 34 -14.5t14 -33.5t-14 -33.5t-34 -14.5q-10 0 -19 4t-15.5 10.5t-10 15.5t-3.5 18q0 19 14 33.5t34 14.5zM351 684q20 0 33.5 -14.5t13.5 -33.5t-13.5 -33.5t-33.5 -14.5t-34 14.5t-14 33.5t14 33.5t34 14.5zM256 509
q81 0 134 -42.5t53 -131.5v-261q0 -13 13 -14l63 -6v-54h-145q-7 0 -7 6l-4 56q-62 -72 -163 -72q-70 0 -113.5 39t-43.5 100q0 57 40 87t130 55l142 38v27q0 57 -30 82.5t-78 25.5q-54 0 -107 -27q-6 -3 -7 -10l-6 -69h-47v118q0 3 2 4q35 21 82 35t92 14zM355 254
l-121 -33q-58 -16 -80 -33t-22 -51q0 -37 26.5 -58.5t71.5 -21.5q78 0 122 58l3 4v135z" />
    <glyph glyph-name="Gcaron" unicode="&#x1e6;" horiz-adv-x="704" 
d="M428 767h-111l-109 156h80l84 -108l85 108h79zM392 709q115 0 226 -59q3 -2 3 -5v-138h-56l-6 76q0 7 -7 10q-82 39 -160 39q-106 0 -174.5 -73t-68.5 -209q0 -131 66 -206.5t177 -75.5q106 0 169 66v126q0 13 -13 14l-148 8v60h238q8 0 8 -8v-334h-59l-6 58
q-84 -67 -203 -67q-148 0 -238.5 100t-90.5 259q0 86 27.5 155.5t75 113.5t109 67t131.5 23z" />
    <glyph glyph-name="gcaron" unicode="&#x1e7;" horiz-adv-x="572" 
d="M337 567h-111l-108 156h79l85 -108l84 108h79zM526 460l-96 -9q57 -38 57 -114q0 -79 -55 -125.5t-148 -46.5q-42 0 -78 10q-46 -12 -45 -40q0 -30 30 -42t99 -12q220 0 220 -148q0 -74 -63.5 -117t-170.5 -43q-69 0 -122.5 19.5t-82.5 54t-29 78.5q0 40 27 72.5t75 51.5
q-59 20 -59 69q0 51 73 78q-77 46 -77 141q0 79 55 126t148 47h242v-50zM283.5 453q-54.5 0 -84.5 -29.5t-30 -86t30 -86.5t84.5 -30t85 30t30.5 86.5t-30.5 86t-85 29.5zM241 25l-11 -2q-52 -10 -81 -35.5t-29 -59.5q0 -29 19 -50.5t54.5 -33.5t82.5 -12q70 0 112.5 26
t42.5 70q0 96 -157 96q-10 0 -33 1z" />
    <glyph glyph-name="DZ" unicode="&#x1f1;" horiz-adv-x="1342" 
d="M61 700h302q154 0 248 -96t94 -254t-94 -254t-248 -96h-302v51q0 7 6 7l60 5q13 1 13 14v546q0 13 -13 14l-60 5q-6 0 -6 7v51zM1307 645l-393 -569h321q13 0 14 13l5 67h57v-149q0 -7 -7 -7h-520v53l396 570h-297q-13 0 -14 -13l-5 -64h-56v147q0 7 7 7h492v-55z
M292 623l-56 -4v-538l56 -4h71q111 0 177 71.5t66 201.5t-66 201.5t-177 71.5h-71z" />
    <glyph glyph-name="Dz" unicode="&#x1f2;" horiz-adv-x="1251" 
d="M61 700h302q154 0 248 -96t94 -254t-94 -254t-248 -96h-302v51q0 7 6 7l60 5q13 1 13 14v546q0 13 -13 14l-60 5q-6 0 -6 7v51zM292 623l-56 -4v-538l56 -4h71q111 0 177 71.5t66 201.5q0 86 -30.5 148t-85 93.5t-127.5 31.5h-71zM1191 462l-284 -406h228q13 0 14 13
l5 60h46v-122q0 -7 -7 -7h-393v38l285 406h-203q-13 0 -14 -13l-5 -59h-46v121q0 7 7 7h367v-38z" />
    <glyph glyph-name="dz" unicode="&#x1f3;" horiz-adv-x="1136" 
d="M346 742l154 8q8 0 8 -8v-668q0 -13 13 -14l63 -6v-54h-146q-6 0 -6 6l-4 55q-62 -71 -163 -71q-99 0 -159.5 68.5t-60.5 192.5q0 51 12.5 96t38 82t68.5 59t99 22q97 0 157 -66v227q0 14 -14 15l-60 3v53zM1076 462l-284 -406h228q13 0 14 13l5 60h46v-122q0 -7 -7 -7
h-393v38l285 406h-203q-13 0 -14 -13l-5 -59h-46v121q0 7 7 7h367v-38zM292 445q-72 0 -114.5 -52t-42.5 -142t45.5 -141.5t119.5 -51.5q77 0 120 56v262q-44 69 -128 69z" />
    <glyph glyph-name="Oslashacute" unicode="&#x1fe;" horiz-adv-x="780" 
d="M425 767h-79l104 156h105zM569 750l-24 -74q58 -28 100 -75t64.5 -111.5t22.5 -139.5q0 -159 -94.5 -259t-247.5 -100q-34 0 -65 5l-15 -46h-99l24 74q-88 41 -138 127t-50 199q0 159 94.5 259t248.5 100q33 0 64 -5l15 46h100zM147 350q0 -86 29.5 -149.5t83.5 -97.5
l170 526q-19 3 -40 3q-55 0 -100 -19.5t-76.5 -55.5t-49 -89t-17.5 -118zM390 68q110 0 176.5 75.5t66.5 206.5q0 86 -29.5 149.5t-83.5 97.5l-171 -527q20 -2 41 -2z" />
    <glyph glyph-name="oslashacute" unicode="&#x1ff;" horiz-adv-x="601" 
d="M333 575h-79l104 156h105zM435 550l-21 -63q67 -30 104.5 -92t37.5 -145q0 -115 -70 -187.5t-186 -72.5q-24 0 -46 3l-14 -43h-74l20 63q-66 30 -103.5 92.5t-37.5 144.5q0 115 70 187.5t185 72.5q24 0 46 -3l15 43h74zM135 250q0 -117 74 -168l117 361q-13 2 -26 2
q-74 0 -119.5 -52t-45.5 -143zM300 56q75 0 120.5 52t45.5 142q0 118 -74 168l-117 -361q12 -1 25 -1z" />
    <glyph glyph-name="Scommaaccent" unicode="&#x218;" horiz-adv-x="564" 
d="M316 711q94 0 159 -38q3 -1 3 -5v-138h-56l-6 76q0 8 -7 11q-38 18 -92 18q-71 0 -113.5 -27t-42.5 -70q0 -29 8.5 -46t37.5 -37.5t93 -50.5q88 -43 133 -75t62 -62.5t17 -74.5q0 -64 -35.5 -110t-96.5 -68.5t-140 -22.5q-93 0 -184 39q-4 2 -4 6v138h56l6 -72
q0 -8 8 -11q56 -23 127 -23q74 0 118 30.5t44 81.5q0 28 -9 44.5t-36.5 35.5t-87.5 49q-75 36 -117.5 62t-65 52.5t-29 49t-6.5 59.5q0 81 73.5 129.5t182.5 49.5zM279 -46q30 0 41.5 -28.5t1.5 -70.5q-10 -44 -37 -82l-36 11q14 28 20 54q4 22 -1 36h-2q-12 4 -20 15t-8 24
q0 8 3 15.5t8.5 13t13 9t16.5 3.5z" />
    <glyph glyph-name="scommaaccent" unicode="&#x219;" horiz-adv-x="442" 
d="M253 510q68 0 118 -26q3 -2 3 -5v-116h-46l-6 69q0 8 -8 11q-24 10 -57 10q-49 0 -78.5 -19t-30 -48t16.5 -46.5t81 -49.5q89 -44 118.5 -75.5t29.5 -77.5q0 -69 -57.5 -107t-149.5 -38q-66 0 -133 25q-4 1 -4 6v114h47l5 -66q1 -8 8 -11q37 -12 80 -12q55 0 87.5 22
t32.5 59q0 28 -16.5 44.5t-78.5 47.5q-53 26 -83 45t-46 37.5t-20.5 35t-4.5 43.5q0 58 55 93t137 35zM218 -46q30 0 41.5 -28.5t1.5 -70.5q-10 -44 -37 -82l-36 11q14 28 19 54q5 22 0 36h-2q-13 4 -21 15t-8 24q0 16 12 28.5t30 12.5z" />
    <glyph glyph-name="uni021A" unicode="&#x21a;" horiz-adv-x="648" 
d="M31 700h586q8 0 8 -7v-154h-57l-5 74q-1 13 -14 13h-177v-549q0 -13 13 -14l67 -5v-58h-256v51q0 7 6 7l61 5q13 1 13 14v549h-176q-13 0 -14 -13l-6 -74h-56v154q0 7 7 7zM321 -46q30 0 41.5 -28.5t1.5 -70.5q-9 -44 -36 -82l-37 11q14 28 20 54q4 22 -1 36h-2
q-6 2 -11 6t-9 9t-6 11t-2 13q0 8 3 15.5t8.5 13t13 9t16.5 3.5z" />
    <glyph glyph-name="uni021B" unicode="&#x21b;" horiz-adv-x="390" 
d="M182 500h133v-55l-133 -7v-326q0 -29 17 -44.5t47 -16.5q41 0 63 29l23 -42q-32 -49 -110 -49q-59 0 -93.5 30t-34.5 81v338l-56 3q-7 1 -7 8v48l63 1v126l88 5v-129zM191 -46q31 0 42.5 -28.5t1.5 -70.5q-10 -44 -37 -82l-37 11q14 28 20 54q4 21 -1 36h-1q-13 4 -21 15
t-8 24q0 10 5.5 19.5t15 15.5t20.5 6z" />
    <glyph glyph-name="uni0228" unicode="&#x228;" horiz-adv-x="588" 
d="M61 700h470q7 0 7 -7v-156h-56l-6 73q-1 13 -14 13h-226v-232h216v-72h-216v-242h244q14 0 15 13l5 73h57v-156q0 -7 -8 -7h-230l-18 -49q5 0 15 -2q32 -7 51 -29.5t17 -50.5q0 -13 -5 -25t-14 -22t-21 -17.5t-28 -12t-33 -4.5q-46 0 -79 26l13 41q25 -17 48 -17
q15 -1 26.5 3t19.5 14t9 24q0 40 -50 44q-11 1 -29 -1l25 78h-205v51q0 7 6 7l60 5q13 1 13 14v546q0 13 -13 14l-60 5q-6 0 -6 7v51z" />
    <glyph glyph-name="uni0229" unicode="&#x229;" horiz-adv-x="547" 
d="M278 510q78 0 129.5 -32t74.5 -87t24 -132l1 -14q0 -8 -8 -8l-362 -7q4 -81 47 -128t111 -47q89 1 157 61l27 -58q-67 -65 -180 -68h-5l-14 -39q5 0 14 -2q33 -7 52 -29.5t17 -50.5q0 -16 -8 -30.5t-21 -26t-31.5 -18t-40.5 -6.5q-46 0 -79 26l13 41q25 -17 48 -17
q23 -2 38.5 8.5t16.5 32.5q0 40 -50 44q-11 1 -29 -1l23 73q-91 14 -144.5 83.5t-53.5 171.5q0 115 63.5 187.5t169.5 72.5zM280 448q-41 0 -72 -19t-49.5 -55.5t-21.5 -86.5h270q9 0 7 10q-9 151 -134 151z" />
    <glyph glyph-name="uni022A" unicode="&#x22a;" horiz-adv-x="780" 
d="M539 925h-299v65h299v-65zM302 863q20 0 33.5 -14t13.5 -33t-13.5 -33.5t-33.5 -14.5t-34 14.5t-14 33.5t14 33t34 14zM478 863q13 0 24 -6.5t17 -17.5t6 -23q0 -19 -13.5 -33.5t-34 -14.5t-34 14.5t-13.5 33.5t13.5 33t34.5 14zM390 709q154 0 248 -100t94 -259
t-94 -259t-248 -100t-248.5 100t-94.5 259t94.5 259t248.5 100zM390 632q-55 0 -100 -19.5t-76.5 -55.5t-49 -89t-17.5 -118q0 -131 66 -206.5t177 -75.5t177 75.5t66 206.5t-66 206.5t-177 75.5z" />
    <glyph glyph-name="uni022B" unicode="&#x22b;" horiz-adv-x="601" 
d="M450 731h-299v65h299v-65zM212.5 684q20.5 0 34 -14.5t13.5 -33.5t-13.5 -33.5t-34 -14.5t-34 14.5t-13.5 33.5t13.5 33.5t34 14.5zM388 684q20 0 34 -14.5t14 -33.5t-14 -33.5t-34 -14.5t-34 14.5t-14 33.5t14 33.5t34 14.5zM300.5 510q115.5 0 185.5 -72.5t70 -187.5
t-70 -187.5t-186 -72.5q-76 0 -134.5 33.5t-89.5 92.5t-31 134q0 115 70 187.5t185.5 72.5zM300.5 445q-74.5 0 -120 -52t-45.5 -142.5t45.5 -142.5t120 -52t120 52t45.5 142.5t-45.5 142.5t-120 52z" />
    <glyph glyph-name="circumflex" unicode="&#x2c6;" horiz-adv-x="411" 
d="M369 567h-79l-85 108l-84 -108h-79l108 156h111z" />
    <glyph glyph-name="caron" unicode="&#x2c7;" horiz-adv-x="411" 
d="M261 567h-111l-108 156h79l85 -108l84 108h79z" />
    <glyph glyph-name="breve" unicode="&#x2d8;" horiz-adv-x="372" 
d="M270 707h60q0 -59 -41.5 -100.5t-102.5 -41.5t-102.5 41.5t-41.5 100.5h59q0 -38 25 -63t60 -25q23 0 42 11t30.5 31.5t11.5 45.5z" />
    <glyph glyph-name="dotaccent" unicode="&#x2d9;" horiz-adv-x="178" 
d="M89 684q20 0 34 -14.5t14 -33.5t-14 -33.5t-34 -14.5t-33.5 14.5t-13.5 33.5t13.5 33.5t33.5 14.5z" />
    <glyph glyph-name="ring" unicode="&#x2da;" horiz-adv-x="299" 
d="M149.5 751q29.5 0 54.5 -14.5t39 -39.5t14 -54t-14 -53.5t-39 -39.5t-54.5 -15t-54.5 15t-39 39.5t-14 53.5t14 54t39 39.5t54.5 14.5zM149 705q-23 0 -40.5 -17.5t-17.5 -44.5q0 -17 8 -31.5t21.5 -22.5t28.5 -8q24 0 41 18t17 44q0 18 -7.5 32.5t-21 22t-29.5 7.5z" />
    <glyph glyph-name="ogonek" unicode="&#x2db;" horiz-adv-x="262" 
d="M115 6h65q-78 -40 -78 -103q0 -27 14.5 -43t38.5 -16q19 -1 51 15l14 -48q-44 -22 -82 -22q-29 0 -50.5 12t-33 31.5t-12.5 44.5q-2 35 16.5 69.5t56.5 59.5z" />
    <glyph glyph-name="tilde" unicode="&#x2dc;" horiz-adv-x="378" 
d="M283 676l55 -11q-3 -39 -23.5 -61.5t-51.5 -25.5q-26 -2 -63 13q-11 4 -26 11t-25.5 11.5t-17.5 4.5q-11 2 -19 -7t-17 -36l-55 16q14 76 68 83q28 4 82 -20q41 -19 58 -15q21 3 35 37z" />
    <glyph glyph-name="hungarumlaut" unicode="&#x2dd;" horiz-adv-x="455" 
d="M121 567h-79l95 155h106zM292 567h-79l95 155h106z" />
    <glyph glyph-name="dotbelowcomb" unicode="&#x323;" horiz-adv-x="0" 
d="M89 -84q20 0 34 -14.5t14 -33.5t-14 -33t-34 -14t-33.5 14t-13.5 33t13.5 33.5t33.5 14.5z" />
    <glyph glyph-name="commaaccentcomb" unicode="&#x326;" horiz-adv-x="0" 
d="M65 -46q30 0 41.5 -28.5t1.5 -70.5q-10 -44 -36 -82l-37 11q14 28 20 54q4 21 -1 36h-2q-12 4 -20 15t-8 24q0 16 12 28.5t29 12.5z" />
    <glyph glyph-name="circumflexbelowcomb" unicode="&#x32d;" horiz-adv-x="0" 
d="M369 -209h-79l-85 108l-84 -108h-79l108 156h111z" />
    <glyph glyph-name="macronbelowcomb" unicode="&#x331;" horiz-adv-x="0" 
d="M341 -148h-299v66h299v-66z" />
    <glyph glyph-name="Delta" unicode="&#x394;" horiz-adv-x="600" 
 />
    <glyph glyph-name="Omega" unicode="&#x3a9;" horiz-adv-x="600" 
 />
    <glyph glyph-name="mu" unicode="&#x3bc;" horiz-adv-x="600" 
 />
    <glyph glyph-name="pi" unicode="&#x3c0;" horiz-adv-x="600" 
 />
    <glyph glyph-name="Bdotbelow" unicode="&#x1e04;" horiz-adv-x="665" 
d="M64 700h314q65 0 115 -22.5t77.5 -63.5t27.5 -94q0 -33 -11.5 -61.5t-32.5 -50t-51 -35.5q62 -20 96.5 -66t34.5 -109q0 -88 -66 -143t-174 -55h-330v51q0 7 6 7l60 5q13 1 13 14v546q0 13 -13 14l-60 5q-6 0 -6 7v51zM295 623l-56 -4v-213h141q39 0 67 13t43 37.5
t15 57.5q0 51 -33.5 80t-91.5 29h-85zM239 329v-248l56 -4h97q67 0 106 34t39 92q0 29 -10 52.5t-28.5 39.5t-46 25t-60.5 9h-153zM325 -84q20 0 34 -14.5t14 -33.5q0 -12 -6 -22.5t-17.5 -17.5t-24.5 -7q-20 0 -34 14t-14 33q0 12 6.5 23t17.5 18t24 7z" />
    <glyph glyph-name="bdotbelow" unicode="&#x1e05;" horiz-adv-x="631" 
d="M51 742l154 8q8 0 8 -8v-296q59 64 156 64q100 0 158.5 -67t58.5 -183q0 -71 -20.5 -124t-58.5 -84.5t-86.5 -46.5t-107.5 -15q-91 0 -188 34v648q0 13 -14 14l-60 3v53zM339 445q-83 0 -126 -68v-300q55 -22 108 -22q79 0 127 48.5t48 146.5q0 91 -42.5 143t-114.5 52z
M329 -84q20 0 34 -14.5t14 -33.5t-14 -33t-34 -14t-34 14t-14 33t14 33.5t34 14.5z" />
    <glyph glyph-name="Ddotbelow" unicode="&#x1e0c;" horiz-adv-x="752" 
d="M61 700h302q154 0 248 -96t94 -254t-94 -254t-248 -96h-302v51q0 7 6 7l60 5q13 1 13 14v546q0 13 -13 14l-60 5q-6 0 -6 7v51zM292 623l-56 -4v-538l56 -4h71q111 0 177 71.5t66 201.5q0 86 -30.5 148t-85 93.5t-127.5 31.5h-71zM358 -84q20 0 34 -14.5t14 -33.5
q0 -12 -6 -23t-17 -17.5t-25 -6.5q-20 0 -33.5 14t-13.5 33t13.5 33.5t33.5 14.5z" />
    <glyph glyph-name="ddotbelow" unicode="&#x1e0d;" horiz-adv-x="637" 
d="M346 742l154 8q8 0 8 -8v-668q0 -13 13 -14l63 -6v-54h-146q-6 0 -6 6l-4 55q-62 -71 -163 -71q-99 0 -159.5 68.5t-60.5 192.5q0 51 12.5 96t38 82t68.5 59t99 22q97 0 157 -66v227q0 14 -14 15l-60 3v53zM292 445q-72 0 -114.5 -52t-42.5 -142t45.5 -141.5t119.5 -51.5
q77 0 120 56v262q-44 69 -128 69zM318 -84q20 0 34 -14.5t14 -33.5t-14 -33t-34 -14t-33.5 14t-13.5 33q0 12 6 23t17 18t24 7z" />
    <glyph glyph-name="Dlinebelow" unicode="&#x1e0e;" horiz-adv-x="752" 
d="M61 700h302q154 0 248 -96t94 -254t-94 -254t-248 -96h-302v51q0 7 6 7l60 5q13 1 13 14v546q0 13 -13 14l-60 5q-6 0 -6 7v51zM292 623l-56 -4v-538l56 -4h71q111 0 177 71.5t66 201.5q0 86 -30.5 148t-85 93.5t-127.5 31.5h-71zM533 -148h-300v66h300v-66z" />
    <glyph glyph-name="dlinebelow" unicode="&#x1e0f;" horiz-adv-x="637" 
d="M346 742l154 8q8 0 8 -8v-668q0 -13 13 -14l63 -6v-54h-146q-6 0 -6 6l-4 55q-62 -71 -163 -71q-99 0 -159.5 68.5t-60.5 192.5q0 51 12.5 96t38 82t68.5 59t99 22q97 0 157 -66v227q0 14 -14 15l-60 3v53zM292 445q-72 0 -114.5 -52t-42.5 -142t45.5 -141.5t119.5 -51.5
q77 0 120 56v262q-44 69 -128 69zM468 -148h-300v66h300v-66z" />
    <glyph glyph-name="Dcircumflexbelow" unicode="&#x1e12;" horiz-adv-x="752" 
d="M61 700h302q154 0 248 -96t94 -254t-94 -254t-248 -96h-302v51q0 7 6 7l60 5q13 1 13 14v546q0 13 -13 14l-60 5q-6 0 -6 7v51zM292 623l-56 -4v-538l56 -4h71q111 0 177 71.5t66 201.5q0 86 -30.5 148t-85 93.5t-127.5 31.5h-71zM522 -209h-79l-84 108l-85 -108h-79
l108 156h111z" />
    <glyph glyph-name="dcircumflexbelow" unicode="&#x1e13;" horiz-adv-x="637" 
d="M346 742l154 8q8 0 8 -8v-668q0 -13 13 -14l63 -6v-54h-146q-6 0 -6 6l-4 55q-62 -71 -163 -71q-99 0 -159.5 68.5t-60.5 192.5q0 51 12.5 96t38 82t68.5 59t99 22q97 0 157 -66v227q0 14 -14 15l-60 3v53zM292 445q-72 0 -114.5 -52t-42.5 -142t45.5 -141.5t119.5 -51.5
q77 0 120 56v262q-44 69 -128 69zM482 -209h-79l-85 108l-84 -108h-79l108 156h111z" />
    <glyph glyph-name="Hdotbelow" unicode="&#x1e24;" horiz-adv-x="858" 
d="M797 642l-67 -5q-13 -1 -13 -14v-546q0 -13 13 -14l67 -5v-58h-262v51q0 7 6 7l68 6q13 1 13 14v241h-386v-241q0 -13 13 -14l74 -6v-58h-262v51q0 7 6 7l60 5q13 1 13 14v546q0 13 -13 14l-60 5q-6 0 -6 7v51h262v-58l-74 -6q-13 -1 -13 -14v-227h386v227q0 13 -13 14
l-68 6q-6 0 -6 7v51h262v-58zM429 -84q20 0 34 -14.5t14 -33.5q0 -12 -6.5 -22.5t-17.5 -17.5t-24 -7q-20 0 -34 14t-14 33q0 12 6 23t17 18t25 7z" />
    <glyph glyph-name="hdotbelow" unicode="&#x1e25;" horiz-adv-x="707" 
d="M61 742l154 8q8 0 8 -8v-307q111 74 209 74q68 0 109 -40.5t41 -120.5v-274q0 -13 13 -14l66 -6v-54h-160q-7 0 -7 7v326q0 111 -100 111q-76 0 -171 -59v-311q0 -13 13 -14l68 -6v-54h-243v48q0 7 6 7l55 5q13 1 13 14v597q0 14 -14 15l-60 3v53zM354 -84q20 0 34 -14.5
t14 -33.5q0 -12 -6.5 -23t-17.5 -17.5t-24 -6.5q-20 0 -34 14t-14 33q0 12 6 23t17.5 18t24.5 7z" />
    <glyph glyph-name="Idieresisacute" unicode="&#x1e2e;" horiz-adv-x="378" 
d="M222 900h-79l104 156h106zM101 863q20 0 34 -14t14 -33t-14 -33.5t-34 -14.5t-33.5 14.5t-13.5 33.5t13.5 33t33.5 14zM277 863q20 0 34 -14t14 -33t-14 -33.5t-34 -14.5q-13 0 -24 6.5t-17.5 17.5t-6.5 24q0 19 14 33t34 14zM317 642l-67 -5q-13 -1 -13 -14v-546
q0 -13 13 -14l67 -5v-58h-256v51q0 7 6 7l61 5q13 1 13 14v546q0 13 -13 14l-61 5q-6 0 -6 7v51h256v-58z" />
    <glyph glyph-name="idieresisacute" unicode="&#x1e2f;" horiz-adv-x="362" 
d="M205 721h-79l104 156h106zM84 684q21 0 34.5 -14.5t13.5 -33.5t-13.5 -33.5t-34 -14.5t-34 14.5t-13.5 33.5q0 12 6 23t17 18t24 7zM260 684q20 0 34 -14.5t14 -33.5t-14 -33.5t-34 -14.5t-33.5 14.5t-13.5 33.5t13.5 33.5t33.5 14.5zM61 498l154 8q8 0 8 -8v-424
q0 -13 13 -14l70 -6v-54h-245v48q0 7 6 7l55 5q13 1 13 14v353q0 14 -14 15l-60 3v53z" />
    <glyph glyph-name="Ldotbelow" unicode="&#x1e36;" horiz-adv-x="574" 
d="M323 642l-74 -6q-13 -1 -13 -14v-545h232q14 0 14 13l6 73h57v-156q0 -7 -8 -7h-476v51q0 7 6 7l60 5q13 1 13 14v546q0 13 -13 14l-60 5q-6 0 -6 7v51h262v-58zM287 -84q20 0 34 -14.5t14 -33.5q0 -12 -6.5 -23t-17.5 -17.5t-24 -6.5q-20 0 -34 14t-14 33t14 33.5
t34 14.5z" />
    <glyph glyph-name="ldotbelow" unicode="&#x1e37;" horiz-adv-x="352" 
d="M61 742l154 8q8 0 8 -8v-668q0 -13 13 -14l70 -6v-54h-243v48q0 7 6 7l53 5q13 1 13 14v597q0 14 -14 14l-60 4v53zM176 -84q20 0 34 -14.5t14 -33.5t-14 -33t-34 -14t-34 14t-14 33t14 33.5t34 14.5z" />
    <glyph glyph-name="Lcircumflexbelow" unicode="&#x1e3c;" horiz-adv-x="574" 
d="M323 642l-74 -6q-13 -1 -13 -14v-545h232q14 0 14 13l6 73h57v-156q0 -7 -8 -7h-476v51q0 7 6 7l60 5q13 1 13 14v546q0 13 -13 14l-60 5q-6 0 -6 7v51h262v-58zM451 -209h-79l-85 108l-84 -108h-80l109 156h111z" />
    <glyph glyph-name="lcircumflexbelow" unicode="&#x1e3d;" horiz-adv-x="352" 
d="M61 742l154 8q8 0 8 -8v-668q0 -13 13 -14l70 -6v-54h-243v48q0 7 6 7l53 5q13 1 13 14v597q0 14 -14 14l-60 4v53zM340 -209h-79l-85 108l-84 -108h-80l109 156h111z" />
    <glyph glyph-name="Macute" unicode="&#x1e3e;" horiz-adv-x="1029" 
d="M547 767h-80l105 156h105zM903 642l-60 -5q-6 0 -10 -5t-3 -11l75 -558l67 -5v-58h-256v58l78 6q6 1 10 5.5t3 11.5l-60 473l-207 -554h-62l-208 556l-66 -490l94 -8v-58h-244v51q0 7 6 7l53 5q11 0 13 11l73 547q1 4 -0.5 7.5t-5 6t-7.5 2.5l-54 5q-7 0 -7 7v51h188
l205 -540l205 540h180v-58z" />
    <glyph glyph-name="macute" unicode="&#x1e3f;" horiz-adv-x="1021" 
d="M547 567h-79l104 156h105zM753 509q65 0 104 -40.5t39 -120.5v-274q0 -13 13 -14l66 -6v-54h-160q-7 0 -7 7v326q0 111 -93 111q-72 0 -164 -62q5 -19 5 -54v-254q0 -13 13 -14l66 -6v-54h-160q-7 0 -7 7v326q0 111 -93 111q-70 0 -159 -59v-311q0 -13 13 -14l68 -6v-54
h-243v48q0 7 6 7l55 5q13 1 13 14v353q0 14 -14 15l-60 3v53l154 8q8 0 8 -8v-63q106 74 197 74q98 0 130 -84q51 38 107 61t103 23z" />
    <glyph glyph-name="Ndotaccent" unicode="&#x1e44;" horiz-adv-x="847" 
d="M424 884q20 0 33.5 -14.5t13.5 -33.5t-13.5 -33.5t-34 -14.5t-34 14.5t-13.5 33.5q0 12 6 23t17 18t25 7zM791 642l-67 -5q-13 -1 -13 -14v-623h-88l-399 540v-462q0 -13 13 -14l69 -6v-58h-250v51q0 7 6 7l61 5q13 1 13 14v546q0 13 -13 14l-61 5q-6 0 -6 7v51h161
l406 -549v471q0 13 -13 14l-62 6q-7 0 -7 7v51h250v-58z" />
    <glyph glyph-name="ndotaccent" unicode="&#x1e45;" horiz-adv-x="700" 
d="M349 684q20 0 34 -14.5t14 -33.5t-14 -33.5t-34 -14.5t-34 14.5t-14 33.5q0 12 6.5 23t17.5 18t24 7zM424 509q69 0 110 -40.5t41 -120.5v-274q0 -13 13 -14l66 -6v-54h-160q-7 0 -7 7v326q0 111 -101 111q-75 0 -170 -59v-311q0 -13 13 -14l68 -6v-54h-243v48q0 7 6 7
l55 5q13 1 13 14v353q0 14 -14 15l-60 3v53l154 8q8 0 8 -8v-63q111 74 208 74z" />
    <glyph glyph-name="Ndotbelow" unicode="&#x1e46;" horiz-adv-x="847" 
d="M791 642l-67 -5q-13 -1 -13 -14v-623h-88l-399 540v-462q0 -13 13 -14l69 -6v-58h-250v51q0 7 6 7l61 5q13 1 13 14v546q0 13 -13 14l-61 5q-6 0 -6 7v51h161l406 -549v471q0 13 -13 14l-62 6q-7 0 -7 7v51h250v-58zM423.5 -84q20.5 0 34 -14.5t13.5 -33.5q0 -12 -6 -23
t-17 -17.5t-24 -6.5q-20 0 -34 14t-14 33t13.5 33.5t34 14.5z" />
    <glyph glyph-name="ndotbelow" unicode="&#x1e47;" horiz-adv-x="700" 
d="M424 509q69 0 110 -40.5t41 -120.5v-274q0 -13 13 -14l66 -6v-54h-160q-7 0 -7 7v326q0 111 -101 111q-75 0 -170 -59v-311q0 -13 13 -14l68 -6v-54h-243v48q0 7 6 7l55 5q13 1 13 14v353q0 14 -14 15l-60 3v53l154 8q8 0 8 -8v-63q111 74 208 74zM349 -84q20 0 34 -14.5
t14 -33.5t-14 -33t-34 -14t-34 14t-14 33q0 12 6.5 23t17.5 18t24 7z" />
    <glyph glyph-name="Ncircumflexbelow" unicode="&#x1e4a;" horiz-adv-x="847" 
d="M791 642l-67 -5q-13 -1 -13 -14v-623h-88l-399 540v-462q0 -13 13 -14l69 -6v-58h-250v51q0 7 6 7l61 5q13 1 13 14v546q0 13 -13 14l-61 5q-6 0 -6 7v51h161l406 -549v471q0 13 -13 14l-62 6q-7 0 -7 7v51h250v-58zM587 -209h-79l-84 108l-85 -108h-79l108 156h111z" />
    <glyph glyph-name="ncircumflexbelow" unicode="&#x1e4b;" horiz-adv-x="700" 
d="M424 509q69 0 110 -40.5t41 -120.5v-274q0 -13 13 -14l66 -6v-54h-160q-7 0 -7 7v326q0 111 -101 111q-75 0 -170 -59v-311q0 -13 13 -14l68 -6v-54h-243v48q0 7 6 7l55 5q13 1 13 14v353q0 14 -14 15l-60 3v53l154 8q8 0 8 -8v-63q111 74 208 74zM513 -209h-79l-85 108
l-84 -108h-80l109 156h111z" />
    <glyph glyph-name="Otildeacute" unicode="&#x1e4c;" horiz-adv-x="780" 
d="M423 895h-80l104 155h106zM484 861l55 -12q-3 -39 -23.5 -61t-52.5 -25q-26 -3 -63 12q-8 3 -19.5 8.5t-19.5 9t-16 6.5t-13 4q-4 0 -8 -0.5t-7.5 -3.5t-7 -8t-7 -13t-6.5 -18l-55 15q14 76 67 84q29 3 83 -21q41 -18 58 -15q21 4 35 38zM389.5 709q153.5 0 248 -100
t94.5 -259t-94.5 -259t-248 -100t-248 100t-94.5 259t94.5 259t248 100zM390 632q-111 0 -177 -75.5t-66 -206.5t66 -206.5t176.5 -75.5t177 75.5t66.5 206.5t-66 206.5t-177 75.5z" />
    <glyph glyph-name="otildeacute" unicode="&#x1e4d;" horiz-adv-x="601" 
d="M333 716h-79l104 156h106zM395 676l54 -11q-3 -39 -23 -61.5t-52 -25.5q-26 -2 -63 13q-10 4 -25 11t-26 11.5t-17 4.5q-11 2 -19 -7t-18 -36l-55 16q15 76 68 83q28 4 83 -20q41 -19 58 -15q21 3 35 37zM300.5 510q115.5 0 185.5 -72.5t70 -187.5t-70 -187.5
t-185.5 -72.5t-185.5 72.5t-70 187.5t70 187.5t185.5 72.5zM300 445q-74 0 -119.5 -52t-45.5 -142.5t45.5 -142.5t120 -52t120 52t45.5 142q0 60 -21 104.5t-58.5 67.5t-86.5 23z" />
    <glyph glyph-name="Omacrongrave" unicode="&#x1e50;" horiz-adv-x="780" 
d="M436 895h-80l-130 155h105zM539 773h-299v65h299v-65zM389.5 709q153.5 0 248 -100t94.5 -259t-94 -259t-248 -100t-248.5 100t-94.5 259t94.5 259t248 100zM390 632q-111 0 -177 -75.5t-66 -206.5t66 -206.5t177 -75.5t177 75.5t66 206.5t-66 206.5t-177 75.5z" />
    <glyph glyph-name="omacrongrave" unicode="&#x1e51;" horiz-adv-x="601" 
d="M346 716h-79l-131 156h106zM450 593h-299v65h299v-65zM300.5 510q115.5 0 185.5 -72.5t70 -187.5t-70 -187.5t-186 -72.5q-76 0 -134.5 33.5t-89.5 92.5t-31 134q0 115 70 187.5t185.5 72.5zM300.5 445q-74.5 0 -120 -52t-45.5 -142.5t45.5 -142.5t120 -52t120 52
t45.5 142.5t-45.5 142.5t-120 52z" />
    <glyph glyph-name="Omacronacute" unicode="&#x1e52;" horiz-adv-x="780" 
d="M423 895h-80l104 155h106zM539 773h-299v65h299v-65zM389.5 709q153.5 0 248 -100t94.5 -259t-94 -259t-248 -100t-248.5 100t-94.5 259t94.5 259t248 100zM390 632q-111 0 -177 -75.5t-66 -206.5t66 -206.5t177 -75.5t177 75.5t66 206.5t-66 206.5t-177 75.5z" />
    <glyph glyph-name="omacronacute" unicode="&#x1e53;" horiz-adv-x="601" 
d="M333 716h-79l104 156h106zM450 593h-299v65h299v-65zM300.5 510q115.5 0 185.5 -72.5t70 -187.5t-70 -187.5t-186 -72.5q-76 0 -134.5 33.5t-89.5 92.5t-31 134q0 115 70 187.5t185.5 72.5zM300.5 445q-74.5 0 -120 -52t-45.5 -142.5t45.5 -142.5t120 -52t120 52
t45.5 142.5t-45.5 142.5t-120 52z" />
    <glyph glyph-name="Sdotbelow" unicode="&#x1e62;" horiz-adv-x="564" 
d="M316 711q94 0 159 -38q3 -1 3 -5v-138h-56l-6 76q0 8 -7 11q-38 18 -92 18q-71 0 -113.5 -27t-42.5 -70q0 -29 8.5 -46t37.5 -37.5t93 -50.5q88 -43 133 -75t62 -62.5t17 -74.5q0 -64 -35.5 -110t-96.5 -68.5t-140 -22.5q-93 0 -184 39q-4 2 -4 6v138h56l6 -72
q0 -8 8 -11q56 -23 127 -23q74 0 118 30.5t44 81.5q0 28 -9 44.5t-36.5 35.5t-87.5 49q-75 36 -117.5 62t-65 52.5t-29 49t-6.5 59.5q0 81 73.5 129.5t182.5 49.5zM282 -84q20 0 34 -14.5t14 -33.5t-14 -33t-34 -14t-34 14t-14 33t14 33.5t34 14.5z" />
    <glyph glyph-name="sdotbelow" unicode="&#x1e63;" horiz-adv-x="442" 
d="M253 510q68 0 118 -26q3 -2 3 -5v-116h-46l-6 69q0 8 -8 11q-24 10 -57 10q-49 0 -78.5 -19t-30 -48t16.5 -46.5t81 -49.5q89 -44 118.5 -75.5t29.5 -77.5q0 -69 -57.5 -107t-149.5 -38q-66 0 -133 25q-4 1 -4 6v114h47l5 -66q1 -8 8 -11q37 -12 80 -12q55 0 87.5 22
t32.5 59q0 28 -16.5 44.5t-78.5 47.5q-53 26 -83 45t-46 37.5t-20.5 35t-4.5 43.5q0 58 55 93t137 35zM221 -84q20 0 34 -14.5t14 -33.5t-14 -33t-34 -14t-34 14t-14 33t14 33.5t34 14.5z" />
    <glyph glyph-name="Tdotbelow" unicode="&#x1e6c;" horiz-adv-x="648" 
d="M31 700h586q8 0 8 -7v-154h-57l-5 74q-1 13 -14 13h-177v-549q0 -13 13 -14l67 -5v-58h-256v51q0 7 6 7l61 5q13 1 13 14v549h-176q-13 0 -14 -13l-6 -74h-56v154q0 7 7 7zM324 -84q20 0 34 -14.5t14 -33.5t-14 -33t-34 -14t-33.5 14t-13.5 33q0 12 6 23t17 18t24 7z" />
    <glyph glyph-name="tdotbelow" unicode="&#x1e6d;" horiz-adv-x="390" 
d="M182 500h133v-55l-133 -7v-326q0 -29 17 -44.5t47 -16.5q41 0 63 29l23 -42q-32 -49 -110 -49q-59 0 -93.5 30t-34.5 81v338l-56 3q-7 1 -7 8v48l63 1v126l88 5v-129zM194.5 -84q20.5 0 34 -14.5t13.5 -33.5t-13.5 -33t-34 -14t-34 14t-13.5 33t13.5 33.5t34 14.5z" />
    <glyph glyph-name="Tlinebelow" unicode="&#x1e6e;" horiz-adv-x="648" 
d="M31 700h586q8 0 8 -7v-154h-57l-5 74q-1 13 -14 13h-177v-549q0 -13 13 -14l67 -5v-58h-256v51q0 7 6 7l61 5q13 1 13 14v549h-176q-13 0 -14 -13l-6 -74h-56v154q0 7 7 7zM474 -148h-299v66h299v-66z" />
    <glyph glyph-name="tlinebelow" unicode="&#x1e6f;" horiz-adv-x="390" 
d="M182 500h133v-55l-133 -7v-326q0 -29 17 -44.5t47 -16.5q41 0 63 29l23 -42q-32 -49 -110 -49q-59 0 -93.5 30t-34.5 81v338l-56 3q-7 1 -7 8v48l63 1v126l88 5v-129zM347 -148h-299v66h299v-66z" />
    <glyph glyph-name="Tcircumflexbelow" unicode="&#x1e70;" horiz-adv-x="648" 
d="M31 700h586q8 0 8 -7v-154h-57l-5 74q-1 13 -14 13h-177v-549q0 -13 13 -14l67 -5v-58h-256v51q0 7 6 7l61 5q13 1 13 14v549h-176q-13 0 -14 -13l-6 -74h-56v154q0 7 7 7zM488 -209h-79l-85 108l-84 -108h-79l108 156h111z" />
    <glyph glyph-name="tcircumflexbelow" unicode="&#x1e71;" horiz-adv-x="390" 
d="M182 500h133v-55l-133 -7v-326q0 -29 17 -44.5t47 -16.5q41 0 63 29l23 -42q-32 -49 -110 -49q-59 0 -93.5 30t-34.5 81v338l-56 3q-7 1 -7 8v48l63 1v126l88 5v-129zM358 -209h-79l-84 108l-85 -108h-79l108 156h111z" />
    <glyph glyph-name="Wgrave" unicode="&#x1e80;" horiz-adv-x="1128" 
d="M610 767h-80l-130 155h105zM1104 642l-65 -5l-194 -637h-80l-204 554l-204 -554h-82l-189 629q-3 8 -11 9l-45 4q-6 0 -6 7v51h146l157 -564l175 480q3 8 -1.5 14t-12.5 7l-60 5q-7 1 -7 7v51h195l193 -564l142 481q2 8 -2 13.5t-12 6.5l-63 5q-7 1 -7 7v51h237v-58z" />
    <glyph glyph-name="wgrave" unicode="&#x1e81;" horiz-adv-x="857" 
d="M474 567h-79l-131 155h106zM841 445l-50 -4l-161 -441h-81l-123 347l-127 -347h-80l-153 433q-2 8 -11 9l-33 3q-6 1 -6 7v48h120l131 -404l115 323q1 4 0.5 8t-2 6.5t-5 4.5t-7.5 2l-57 5q-6 1 -6 7v48h161l131 -404l115 324q3 7 -1 13.5t-12 7.5l-58 5q-7 0 -7 7v47
h207v-55z" />
    <glyph glyph-name="Wacute" unicode="&#x1e82;" horiz-adv-x="1128" 
d="M597 767h-80l104 156h106zM1104 642l-65 -5l-194 -637h-80l-204 554l-204 -554h-82l-189 629q-3 8 -11 9l-45 4q-6 0 -6 7v51h146l157 -564l175 480q1 5 0 9.5t-4.5 8t-9.5 3.5l-60 5q-7 1 -7 7v51h195l193 -564l142 481q2 8 -2 13.5t-12 6.5l-63 5q-7 1 -7 7v51h237v-58
z" />
    <glyph glyph-name="wacute" unicode="&#x1e83;" horiz-adv-x="857" 
d="M461 567h-79l104 156h106zM841 445l-50 -4l-161 -441h-81l-123 347l-127 -347h-80l-153 433q-2 8 -11 9l-33 3q-6 1 -6 7v48h120l131 -404l115 323q1 6 0 10.5t-4.5 7.5t-9.5 3l-57 5q-6 1 -6 7v48h161l131 -404l115 324q3 7 -1 13.5t-12 7.5l-58 5q-7 0 -7 7v47h207v-55
z" />
    <glyph glyph-name="Wdieresis" unicode="&#x1e84;" horiz-adv-x="1128" 
d="M476 884q13 0 24 -7t17.5 -18t6.5 -23q0 -19 -14 -33.5t-34 -14.5t-34 14.5t-14 33.5t14 33.5t34 14.5zM651.5 884q20.5 0 34 -14.5t13.5 -33.5q0 -12 -6 -23t-17 -18t-24 -7q-21 0 -34.5 14.5t-13.5 33.5t13.5 33.5t34 14.5zM1104 642l-65 -5l-194 -637h-80l-204 554
l-204 -554h-82l-189 629q-3 8 -11 9l-45 4q-6 0 -6 7v51h146l157 -564l175 480q3 8 -1.5 14t-12.5 7l-60 5q-7 1 -7 7v51h195l193 -564l142 481q2 8 -2 13.5t-12 6.5l-63 5q-7 1 -7 7v51h237v-58z" />
    <glyph glyph-name="wdieresis" unicode="&#x1e85;" horiz-adv-x="857" 
d="M340.5 684q20.5 0 34 -14.5t13.5 -33.5t-13.5 -33.5t-34 -14.5t-34 14.5t-13.5 33.5t13.5 33.5t34 14.5zM516 684q14 0 25 -7t17 -18t6 -23q0 -19 -14 -33.5t-34 -14.5t-34 14.5t-14 33.5t14 33.5t34 14.5zM841 445l-50 -4l-161 -441h-81l-123 347l-127 -347h-80
l-153 433q-2 8 -11 9l-33 3q-6 1 -6 7v48h120l131 -404l115 323q1 4 0.5 8t-2 6.5t-5 4.5t-7.5 2l-57 5q-6 1 -6 7v48h161l131 -404l115 324q2 5 1 9.5t-5 7.5t-9 4l-58 5q-7 0 -7 7v47h207v-55z" />
    <glyph glyph-name="Zdotbelow" unicode="&#x1e92;" horiz-adv-x="590" 
d="M555 645l-394 -569h322q13 0 14 13l5 67h56v-149q0 -7 -7 -7h-519v53l396 570h-297q-13 0 -14 -13l-5 -64h-57v147q0 7 8 7h492v-55zM295 -84q20 0 34 -14.5t14 -33.5t-14 -33t-34 -14t-33.5 14t-13.5 33q0 12 6 23t17 18t24 7z" />
    <glyph glyph-name="zdotbelow" unicode="&#x1e93;" horiz-adv-x="498" 
d="M438 462l-284 -406h229q13 0 14 13l5 60h46v-122q0 -7 -7 -7h-393v38l284 406h-202q-13 0 -15 -13l-4 -59h-47v121q0 7 8 7h366v-38zM250 -84q20 0 34 -14.5t14 -33.5t-14 -33t-34 -14t-34 14t-14 33t14 33.5t34 14.5z" />
    <glyph glyph-name="slongdotaccent" unicode="&#x1e9b;" horiz-adv-x="416" 
d="M246 913q20 0 34 -14.5t14 -33.5t-14 -33.5t-34 -14.5t-33.5 14.5t-13.5 33.5t13.5 33.5t33.5 14.5zM295 749q81 0 146 -42l-23 -55q-58 32 -111 32q-44 -1 -72.5 -26t-28.5 -74v-510q0 -13 13 -14l66 -6v-54h-227v48q0 7 6 7l41 4q13 1 13 14v365l-60 4q-6 0 -6 7v51h66
v90q0 77 51 118t126 41z" />
    <glyph glyph-name="Adotbelow" unicode="&#x1ea0;" horiz-adv-x="781" 
d="M700 63l58 -5v-58h-253v51q0 6 6 7l63 5q5 0 9 3.5t5 8t-1 10.5l-49 120h-314l-58 -140l86 -7v-58h-228v51q0 7 6 7l44 4q8 1 11 8l256 627l94 5zM253 281h257l-128 318zM389 -84q20 0 34 -14.5t14 -33.5q0 -12 -6.5 -23t-17.5 -17.5t-24 -6.5q-20 0 -34 14t-14 33
q0 9 3.5 18t10 15.5t15.5 10.5t19 4z" />
    <glyph glyph-name="adotbelow" unicode="&#x1ea1;" 
d="M256 509q81 0 134 -42.5t53 -131.5v-261q0 -13 13 -14l63 -6v-54h-145q-7 0 -7 6l-4 56q-62 -72 -163 -72q-46 0 -82 18t-55.5 49.5t-19.5 71.5q0 57 40 87t130 55l142 38v27q0 57 -30 82.5t-78 25.5q-54 0 -107 -27q-6 -3 -7 -10l-6 -69h-47v118q0 3 2 4q35 21 82 35
t92 14zM355 254l-121 -33q-58 -15 -80 -32.5t-22 -51.5q0 -37 26.5 -58.5t71.5 -21.5q78 0 122 58l3 4v135zM263 -84q20 0 34 -14.5t14 -33.5t-14 -33t-34 -14t-34 14t-14 33t14 33.5t34 14.5z" />
    <glyph glyph-name="Ahookabove" unicode="&#x1ea2;" horiz-adv-x="781" 
d="M410 1019q52 0 87.5 -26t35.5 -68q0 -31 -15.5 -51t-49.5 -39q-21 -11 -28.5 -16t-14 -13.5t-6.5 -19.5l-1 -18h-54l-2 26q-1 28 14 43.5t53 36.5q24 13 32.5 22.5t8.5 28.5q0 21 -17.5 33.5t-46.5 12.5q-31 0 -63 -15l-28 36q39 27 95 27zM700 63l58 -5v-58h-253v51
q0 6 6 7l63 5q8 1 12 7.5t1 14.5l-49 120h-314l-58 -140l86 -7v-58h-228v51q0 7 6 7l44 4q8 1 11 8l256 627l94 5zM253 281h257l-128 318z" />
    <glyph glyph-name="ahookabove" unicode="&#x1ea3;" 
d="M262 810q52 0 87.5 -26t35.5 -68q0 -31 -15.5 -50.5t-49.5 -39.5q-21 -11 -29 -16t-14 -13t-7 -20v-17l-54 -1l-2 27q-1 27 14 43t53 36q16 9 24 15t12.5 14.5t4.5 21.5q0 21 -17.5 34t-47.5 12q-30 0 -62 -15l-28 36q39 27 95 27zM256 509q81 0 134 -42.5t53 -131.5
v-261q0 -13 13 -14l63 -6v-54h-145q-7 0 -7 6l-4 56q-62 -72 -163 -72q-46 0 -82 18t-55.5 49.5t-19.5 71.5q0 57 40 87t130 55l142 38v27q0 57 -30 82.5t-78 25.5q-54 0 -107 -27q-6 -3 -7 -10l-6 -69h-47v118q0 3 2 5q35 20 82 34t92 14zM355 254l-121 -33
q-58 -15 -80 -32.5t-22 -51.5q0 -37 26.5 -58.5t71.5 -21.5q78 0 122 58l3 4v135z" />
    <glyph glyph-name="Acircumflexacute" unicode="&#x1ea4;" horiz-adv-x="781" 
d="M625 825h-79l104 155h105zM555 748h-79l-85 108l-84 -108h-80l109 156h111zM700 63l58 -5v-58h-253v51q0 6 6 7l63 5q8 1 12 7.5t1 14.5l-49 120h-314l-58 -140l86 -7v-58h-228v51q0 7 6 7l44 4q8 1 11 8l256 627l94 5zM253 281h257l-128 318z" />
    <glyph glyph-name="acircumflexacute" unicode="&#x1ea5;" 
d="M455 700h-80l104 156h106zM427 567h-80l-84 108l-85 -108h-79l108 156h111zM256 509q81 0 134 -42.5t53 -131.5v-261q0 -13 13 -14l63 -6v-54h-145q-7 0 -7 6l-4 56q-62 -72 -163 -72q-46 0 -82 18t-55.5 49.5t-19.5 71.5q0 57 40 87t130 55l142 38v27q0 57 -30 82.5
t-78 25.5q-54 0 -107 -27q-6 -3 -7 -10l-6 -69h-47v118q0 3 2 4q35 21 82 35t92 14zM355 254l-121 -33q-58 -15 -80 -32.5t-22 -51.5q0 -37 26.5 -58.5t71.5 -21.5q78 0 122 58l3 4v135z" />
    <glyph glyph-name="Acircumflexgrave" unicode="&#x1ea6;" horiz-adv-x="781" 
d="M661 825h-79l-130 155h105zM555 748h-79l-85 108l-84 -108h-80l109 156h111zM700 63l58 -5v-58h-253v51q0 6 6 7l63 5q4 0 7 2t5 5t2.5 7t-1.5 8l-49 120h-314l-58 -140l86 -7v-58h-228v51q0 7 6 7l44 4q8 1 11 8l256 627l94 5zM253 281h257l-128 318z" />
    <glyph glyph-name="acircumflexgrave" unicode="&#x1ea7;" 
d="M465 700h-79l-131 156h106zM427 567h-80l-84 108l-85 -108h-79l108 156h111zM256 509q81 0 134 -42.5t53 -131.5v-261q0 -13 13 -14l63 -6v-54h-145q-7 0 -7 6l-4 56q-62 -72 -163 -72q-46 0 -82 18t-55.5 49.5t-19.5 71.5q0 57 40 87t130 55l142 38v27q0 57 -30 82.5
t-78 25.5q-54 0 -107 -27q-6 -3 -7 -10l-6 -69h-47v118q0 3 2 4q35 21 82 35t92 14zM355 254l-121 -33q-58 -16 -80 -33t-22 -51q0 -37 26.5 -58.5t71.5 -21.5q78 0 122 58l3 4v135z" />
    <glyph glyph-name="Acircumflexhookabove" unicode="&#x1ea8;" horiz-adv-x="781" 
d="M637 1000q52 0 87.5 -26t35.5 -67q0 -11 -1.5 -20.5t-5.5 -17.5t-9.5 -15t-13 -13.5t-16 -12t-19.5 -11.5q-21 -12 -29 -16.5t-14 -13t-7 -20.5v-17h-54l-2 26q-1 28 14 43.5t53 35.5q24 13 32.5 23t8.5 28q0 22 -17.5 34.5t-47.5 12.5q-30 -1 -62 -15l-28 35
q39 27 95 27zM555 748h-79l-85 108l-84 -108h-80l109 156h111zM700 63l58 -5v-58h-253v51q0 6 6 7l63 5q8 1 12 7.5t1 14.5l-49 120h-314l-58 -140l86 -7v-58h-228v51q0 7 6 7l44 4q8 1 11 8l256 627l94 5zM253 281h257l-128 318z" />
    <glyph glyph-name="acircumflexhookabove" unicode="&#x1ea9;" 
d="M428 943q52 0 88 -26t36 -67q0 -31 -15.5 -51t-49.5 -39q-22 -12 -29.5 -16.5t-13.5 -13t-7 -20.5l-1 -17h-54l-1 26q-1 28 13.5 43.5t52.5 35.5q13 7 20 11.5t12.5 10.5t7.5 13t2 16q0 22 -17.5 34.5t-47.5 12.5q-30 -1 -62 -15l-28 35q38 27 94 27zM427 567h-80
l-84 108l-85 -108h-79l108 156h111zM256 509q38 0 70.5 -9.5t59.5 -29.5t42 -54.5t15 -80.5v-261q0 -13 13 -14l63 -6v-54h-145q-7 0 -7 6l-4 56q-62 -72 -163 -72q-46 0 -82 18t-55.5 49.5t-19.5 71.5q0 57 40 87t130 55l142 38v27q0 57 -30 82.5t-78 25.5q-54 0 -107 -27
q-6 -3 -7 -10l-6 -69h-47v118q0 3 2 4q17 11 37 19.5t42.5 15t47 10.5t47.5 4zM355 254l-121 -33q-58 -16 -80 -33t-22 -51q0 -37 26.5 -58.5t71.5 -21.5q78 0 122 58l3 4v135z" />
    <glyph glyph-name="Acircumflextilde" unicode="&#x1eaa;" horiz-adv-x="781" 
d="M485 1037l55 -11q-3 -39 -23.5 -61.5t-51.5 -24.5q-26 -3 -63 12q-9 3 -20 8t-19 9t-16.5 7t-13.5 4q-11 1 -19 -8t-17 -36l-55 16q14 76 68 84q28 3 82 -21q41 -18 58 -15q21 3 35 37zM555 748h-79l-85 108l-84 -108h-80l109 155h111zM700 63l58 -5v-58h-253v51q0 6 6 7
l63 5q8 1 12 7.5t1 14.5l-49 120h-314l-58 -140l86 -7v-58h-228v51q0 7 6 7l44 4q8 1 11 8l256 627l94 5zM253 281h257l-128 318z" />
    <glyph glyph-name="acircumflextilde" unicode="&#x1eab;" 
d="M357 847l55 -12q-3 -39 -23.5 -61t-52.5 -25q-25 -2 -62 13q-11 3 -26 10.5t-26 12t-17 4.5q-5 1 -9.5 -0.5t-9 -6.5t-9 -14t-8.5 -22l-55 15q14 76 67 84q29 4 83 -20q41 -19 58 -16q21 4 35 38zM427 567h-80l-84 108l-85 -108h-79l108 156h111zM256 509q81 0 134 -42.5
t53 -131.5v-261q0 -13 13 -14l63 -6v-54h-145q-7 0 -7 6l-4 56q-62 -72 -163 -72q-46 0 -82 18t-55.5 49.5t-19.5 71.5q0 57 40 87t130 55l142 38v27q0 57 -30 82.5t-78 25.5q-54 0 -107 -27q-6 -3 -7 -10l-6 -69h-47v118q0 3 2 4q35 21 82 35t92 14zM355 254l-121 -33
q-58 -16 -80 -33t-22 -51q0 -37 26.5 -58.5t71.5 -21.5q78 0 122 58l3 4v135z" />
    <glyph glyph-name="Acircumflexdotbelow" unicode="&#x1eac;" horiz-adv-x="781" 
d="M555 767h-79l-85 108l-84 -108h-80l109 156h111zM700 63l58 -5v-58h-253v51q0 6 6 7l63 5q8 1 12 7.5t1 14.5l-49 120h-314l-58 -140l86 -7v-58h-228v51q0 7 6 7l44 4q8 1 11 8l256 627l94 5zM253 281h257l-128 318zM389 -84q20 0 34 -14.5t14 -33.5t-14 -33t-34 -14
t-34 14t-14 33q0 12 6 23t17 18t25 7z" />
    <glyph glyph-name="acircumflexdotbelow" unicode="&#x1ead;" 
d="M427 567h-80l-84 108l-85 -108h-79l108 156h111zM256 509q81 0 134 -42.5t53 -131.5v-261q0 -13 13 -14l63 -6v-54h-145q-7 0 -7 6l-4 56q-62 -72 -163 -72q-46 0 -82 18t-55.5 49.5t-19.5 71.5q0 57 40 87t130 55l142 38v27q0 57 -30 82.5t-78 25.5q-54 0 -107 -27
q-6 -3 -7 -10l-6 -69h-47v118q0 3 2 4q35 21 82 35t92 14zM355 254l-121 -33q-58 -16 -80 -33t-22 -51q0 -37 26.5 -58.5t71.5 -21.5q78 0 122 58l3 4v135zM263 -84q20 0 34 -14.5t14 -33.5q0 -12 -6 -23t-17.5 -17.5t-24.5 -6.5q-20 0 -34 14t-14 33t14 33.5t34 14.5z" />
    <glyph glyph-name="Abreveacute" unicode="&#x1eae;" horiz-adv-x="781" 
d="M424 912h-79l104 156h105zM476 888h59q0 -59 -41.5 -100.5t-102.5 -41.5t-102.5 41.5t-41.5 100.5h60q0 -37 24.5 -62.5t59.5 -25.5q23 0 42.5 11.5t31 31.5t11.5 45zM700 63l58 -5v-58h-253v51q0 6 6 7l63 5q5 0 9 3.5t5 8t-1 10.5l-49 120h-314l-58 -140l86 -7v-58
h-228v51q0 7 6 7l44 4q8 1 11 8l256 627l94 5zM253 281h257l-128 318z" />
    <glyph glyph-name="abreveacute" unicode="&#x1eaf;" 
d="M296 721h-80l104 156h106zM347 707h60q0 -59 -41.5 -100.5t-102.5 -41.5t-102.5 41.5t-41.5 100.5h59q0 -38 25 -63t60 -25q17 0 32.5 6.5t27 18t18 28.5t6.5 35zM256 509q81 0 134 -42.5t53 -131.5v-261q0 -13 13 -14l63 -6v-54h-145q-7 0 -7 6l-4 56q-62 -72 -163 -72
q-70 0 -113.5 39t-43.5 100q0 57 40 87t130 55l142 38v27q0 57 -30 82.5t-78 25.5q-54 0 -107 -27q-6 -3 -7 -10l-6 -69h-47v118q0 3 2 4q35 21 82 35t92 14zM355 254l-121 -33q-58 -16 -80 -33t-22 -51q0 -37 26.5 -58.5t71.5 -21.5q78 0 122 58l3 4v135z" />
    <glyph glyph-name="Abrevegrave" unicode="&#x1eb0;" horiz-adv-x="781" 
d="M437 912h-79l-131 156h106zM476 888h59q0 -29 -11 -55t-30 -45t-46 -30.5t-57 -11.5q-61 0 -102.5 41.5t-41.5 100.5h60q0 -37 24.5 -62.5t59.5 -25.5q23 0 42.5 11.5t31 32t11.5 44.5zM700 63l58 -5v-58h-253v51q0 6 6 7l63 5q8 1 12 7.5t1 14.5l-49 120h-314l-57 -140
l85 -7v-58h-228v51q0 7 6 7l44 4q8 1 11 8l256 627l94 5zM253 281h257l-128 318z" />
    <glyph glyph-name="abrevegrave" unicode="&#x1eb1;" 
d="M309 721h-80l-130 156h105zM347 707h60q0 -59 -41.5 -100.5t-102.5 -41.5t-102.5 41.5t-41.5 100.5h59q0 -38 25 -63t60 -25q23 0 42 11t30.5 31.5t11.5 45.5zM256 509q81 0 134 -42.5t53 -131.5v-261q0 -13 13 -14l63 -6v-54h-145q-7 0 -7 6l-4 56q-62 -72 -163 -72
q-46 0 -82 18t-55.5 49.5t-19.5 71.5q0 57 40 87t130 55l142 38v27q0 57 -30 82.5t-78 25.5q-54 0 -107 -27q-6 -3 -7 -10l-6 -69h-47v118q0 3 2 4q17 11 37 19.5t42.5 15t47 10.5t47.5 4zM355 254l-121 -33q-58 -16 -80 -33t-22 -51q0 -37 26.5 -58.5t71.5 -21.5
q78 0 122 58l3 4v135z" />
    <glyph glyph-name="Abrevehookabove" unicode="&#x1eb2;" horiz-adv-x="781" 
d="M410 1130q52 0 87.5 -26.5t35.5 -67.5q0 -21 -7.5 -37.5t-21 -28t-36.5 -24.5q-21 -12 -28.5 -16.5t-14 -13t-6.5 -19.5l-1 -18h-54l-2 26q-1 28 14 43.5t53 35.5q24 14 32.5 23.5t8.5 27.5q0 22 -17.5 34.5t-46.5 12.5q-31 -1 -63 -15l-28 36q39 27 95 27zM476 907h59
q0 -59 -41.5 -100.5t-102.5 -41.5t-102.5 41.5t-41.5 100.5h60q0 -38 24.5 -63t59.5 -25q23 0 42.5 11t31 31.5t11.5 45.5zM700 63l58 -5v-58h-253v51q0 6 6 7l63 5q8 1 12 7.5t1 14.5l-49 120h-314l-58 -140l86 -7v-58h-228v51q0 7 6 7l44 4q8 1 11 8l256 627l94 5z
M253 281h257l-128 318z" />
    <glyph glyph-name="abrevehookabove" unicode="&#x1eb3;" 
d="M282 943q52 0 88 -26t36 -67q0 -31 -15.5 -51t-50.5 -39q-21 -12 -28.5 -16.5t-14 -13t-6.5 -20.5l-1 -17h-54l-2 26q0 19 8 33t20.5 23.5t38.5 22.5q17 9 25 15t12 15t4 21q0 14 -7.5 25t-22.5 16.5t-34 5.5q-30 -1 -63 -15l-27 35q38 27 94 27zM347 707h60
q0 -59 -41.5 -100.5t-102.5 -41.5t-102.5 41.5t-41.5 100.5h59q0 -38 25 -63t60 -25q23 0 42 11t30.5 31.5t11.5 45.5zM256 509q38 0 70.5 -9.5t59 -29.5t42 -54.5t15.5 -80.5v-261q0 -13 13 -14l63 -6v-54h-145q-7 0 -7 6l-4 56q-62 -72 -163 -72q-46 0 -82 18t-55.5 49.5
t-19.5 71.5q0 57 40 87t130 55l142 38v27q0 57 -30 82.5t-78 25.5q-54 0 -107 -27q-6 -3 -7 -10l-6 -69h-47v118q0 3 2 4q17 11 37 19.5t42.5 15t47 10.5t47.5 4zM355 254l-121 -33q-58 -16 -80 -33t-22 -51q0 -37 26.5 -58.5t71.5 -21.5q78 0 122 58l3 4v135z" />
    <glyph glyph-name="Abrevetilde" unicode="&#x1eb4;" horiz-adv-x="781" 
d="M485 1034l55 -11q-3 -39 -23.5 -61.5t-51.5 -25.5q-26 -2 -63 13q-11 4 -26 11t-25.5 11.5t-17.5 4.5q-11 2 -19 -7.5t-17 -35.5l-55 16q14 76 68 83q28 4 82 -20q41 -19 58 -15q21 3 35 37zM476 888h59q0 -59 -41.5 -100.5t-102.5 -41.5t-102.5 41.5t-41.5 100.5h60
q0 -37 24.5 -62.5t59.5 -25.5q23 0 42.5 11.5t31 31.5t11.5 45zM700 63l58 -5v-58h-253v51q0 6 6 7l63 5q8 1 12 7.5t1 14.5l-49 120h-314l-58 -140l86 -7v-58h-228v51q0 7 6 7l44 4q8 1 11 8l256 627l94 5zM253 281h257l-128 318z" />
    <glyph glyph-name="abrevetilde" unicode="&#x1eb5;" 
d="M357 836l55 -12q-3 -39 -23.5 -61.5t-52.5 -24.5q-25 -3 -62 12q-9 3 -20.5 8.5t-19.5 9t-16 6.5t-13 4q-5 0 -9.5 -1.5t-9 -6.5t-9 -13.5t-8.5 -22.5l-55 16q14 76 67 84q29 3 83 -21q41 -18 58 -15q21 3 35 38zM347 707h60q0 -59 -41.5 -100.5t-102.5 -41.5
t-102.5 41.5t-41.5 100.5h59q0 -38 25 -63t60 -25q23 0 42 11t30.5 31.5t11.5 45.5zM256 509q81 0 134 -42.5t53 -131.5v-261q0 -13 13 -14l63 -6v-54h-145q-7 0 -7 6l-4 56q-62 -72 -163 -72q-46 0 -82 18t-55.5 49.5t-19.5 71.5q0 57 40 87t130 55l142 38v27
q0 57 -30 82.5t-78 25.5q-54 0 -107 -27q-6 -3 -7 -10l-6 -69h-47v117q0 4 2 5q22 14 50 25t61 17.5t63 6.5zM355 254l-121 -33q-58 -16 -80 -33t-22 -51q0 -25 11.5 -43t34 -27.5t52.5 -9.5q78 0 122 58l3 4v135z" />
    <glyph glyph-name="Abrevedotbelow" unicode="&#x1eb6;" horiz-adv-x="781" 
d="M476 907h59q0 -59 -41.5 -100.5t-102.5 -41.5t-102.5 41.5t-41.5 100.5h60q0 -38 24.5 -63t59.5 -25q23 0 42.5 11t31 31.5t11.5 45.5zM700 63l58 -5v-58h-253v51q0 6 6 7l63 5q5 0 9 3.5t5 8t-1 10.5l-49 120h-314l-58 -140l86 -7v-58h-228v51q0 7 6 7l44 4q8 1 11 8
l256 627l94 5zM253 281h257l-128 318zM389 -84q20 0 34 -14.5t14 -33.5q0 -12 -6.5 -23t-17.5 -17.5t-24 -6.5q-20 0 -34 14t-14 33q0 9 3.5 18t10 15.5t15.5 10.5t19 4z" />
    <glyph glyph-name="abrevedotbelow" unicode="&#x1eb7;" 
d="M347 707h60q0 -59 -41.5 -100.5t-102.5 -41.5t-102.5 41.5t-41.5 100.5h59q0 -38 25 -63t60 -25q23 0 42 11t30.5 31.5t11.5 45.5zM256 509q81 0 134 -42.5t53 -131.5v-261q0 -13 13 -14l63 -6v-54h-145q-7 0 -7 6l-4 56q-62 -72 -163 -72q-46 0 -82 18t-55.5 49.5
t-19.5 71.5q0 57 40 87t130 55l142 38v27q0 57 -30 82.5t-78 25.5q-54 0 -107 -27q-6 -3 -7 -10l-6 -69h-47v118q0 3 2 4q17 11 37 19.5t42.5 15t47 10.5t47.5 4zM355 254l-121 -33q-58 -16 -80 -33t-22 -51q0 -37 26.5 -58.5t71.5 -21.5q78 0 122 58l3 4v135zM263 -84
q20 0 34 -14.5t14 -33.5q0 -12 -6 -23t-17.5 -17.5t-24.5 -6.5q-20 0 -34 14t-14 33t14 33.5t34 14.5z" />
    <glyph glyph-name="Edotbelow" unicode="&#x1eb8;" horiz-adv-x="588" 
d="M61 700h470q7 0 7 -7v-156h-56l-6 73q-1 13 -14 13h-226v-232h216v-72h-216v-242h244q14 0 14 13l6 73h57v-156q0 -7 -8 -7h-488v51q0 7 6 7l60 5q13 1 13 14v546q0 13 -13 14l-60 5q-6 0 -6 7v51zM294 -84q20 0 34 -14.5t14 -33.5t-14 -33t-34 -14t-33.5 14t-13.5 33
t13.5 33.5t33.5 14.5z" />
    <glyph glyph-name="edotbelow" unicode="&#x1eb9;" horiz-adv-x="547" 
d="M278 510q115 0 171 -66.5t57 -184.5l1 -14q0 -8 -8 -8l-362 -7q4 -81 47 -128t111 -47q89 1 157 61l27 -58q-70 -68 -188 -68q-74 0 -130 33.5t-86 92.5t-30 134q0 115 63.5 187.5t169.5 72.5zM280 448q-41 0 -72 -19t-49.5 -55.5t-21.5 -86.5h270q9 0 7 10
q-9 151 -134 151zM273 -84q20 0 34 -14.5t14 -33.5t-14 -33t-34 -14t-33.5 14t-13.5 33q0 12 6 23t17 18t24 7z" />
    <glyph glyph-name="Ehookabove" unicode="&#x1eba;" horiz-adv-x="588" 
d="M322 1019q52 0 87.5 -26t35.5 -68q0 -31 -15.5 -51t-49.5 -39q-22 -11 -29.5 -16t-13.5 -13.5t-7 -19.5l-1 -18h-54l-1 26q-1 20 7 34t21 23t38 23q25 13 33.5 22.5t8.5 28.5q0 21 -17.5 33.5t-47.5 12.5t-62 -15l-28 36q38 27 95 27zM61 700h470q7 0 7 -7v-156h-56
l-6 73q-1 13 -14 13h-226v-232h216v-72h-216v-242h244q13 0 14 13l6 73h57v-156q0 -7 -8 -7h-488v51q0 7 6 7l60 5q13 1 13 14v546q0 13 -13 14l-60 5q-6 0 -6 7v51z" />
    <glyph glyph-name="ehookabove" unicode="&#x1ebb;" horiz-adv-x="571" 
d="M297 810q52 0 88 -26t36 -68q0 -31 -15.5 -50.5t-49.5 -39.5q-22 -11 -29.5 -16t-14 -13t-6.5 -20l-1 -17l-54 -1l-2 27q-1 27 14 43t53 36q24 13 33 22.5t9 28.5q0 14 -8 24.5t-23 16t-34 5.5q-30 0 -62 -15l-28 36q38 27 94 27zM278 510q115 0 171 -66.5t57 -184.5v-14
q1 -8 -7 -8l-362 -7q4 -81 47 -128t111 -47q89 1 157 61l27 -58q-70 -68 -188 -68q-74 0 -130 33.5t-86 92.5t-30 134t28.5 134t81.5 92.5t123 33.5zM280 448q-62 0 -100 -42.5t-43 -118.5h270q9 0 7 10q-9 151 -134 151z" />
    <glyph glyph-name="Etilde" unicode="&#x1ebc;" horiz-adv-x="588" 
d="M410 876l55 -11q-3 -39 -23.5 -61.5t-51.5 -25.5q-26 -2 -63 13q-10 4 -25.5 11t-26 11.5t-16.5 4.5q-12 2 -20 -7t-17 -36l-55 16q15 76 68 83q28 4 82 -20q41 -19 59 -15q20 3 34 37zM61 700h470q7 0 7 -7v-156h-56l-6 73q-1 13 -14 13h-226v-232h216v-72h-216v-242
h244q13 0 14 13l6 73h57v-156q0 -7 -8 -7h-488v51q0 7 6 7l60 5q13 1 13 14v546q0 13 -13 14l-60 5q-6 0 -6 7v51z" />
    <glyph glyph-name="etilde" unicode="&#x1ebd;" horiz-adv-x="547" 
d="M373 676l54 -11q-3 -39 -23 -61.5t-52 -25.5q-26 -2 -63 13q-9 3 -20 8t-19 9t-16 7t-13 3q-11 2 -19 -7t-18 -36l-55 16q15 76 68 83q28 4 83 -20q41 -19 58 -15q21 3 35 37zM278 510q78 0 129.5 -32t74.5 -87t24 -132v-14q1 -8 -7 -8l-362 -7q4 -81 47 -128t111 -47
q89 1 157 61l27 -58q-70 -68 -188 -68q-112 0 -179 72.5t-67 187.5t63.5 187.5t169.5 72.5zM280 448q-62 0 -100 -42.5t-43 -118.5h270q9 0 7 9q-9 152 -134 152z" />
    <glyph glyph-name="Ecircumflexacute" unicode="&#x1ebe;" horiz-adv-x="588" 
d="M550 844h-80l104 155h106zM480 767h-79l-85 108l-84 -108h-80l109 156h111zM61 700h470q7 0 7 -7v-156h-56l-6 73q-1 13 -14 13h-226v-232h216v-72h-216v-242h244q13 0 14 13l6 73h57v-156q0 -7 -8 -7h-488v51q0 7 6 7l60 5q13 1 13 14v546q0 13 -13 14l-60 5q-6 0 -6 7
v51z" />
    <glyph glyph-name="ecircumflexacute" unicode="&#x1ebf;" horiz-adv-x="547" 
d="M470 700h-79l104 156h106zM442 567h-79l-85 108l-84 -108h-79l108 156h111zM278 510q115 0 171 -66.5t57 -184.5v-14q1 -8 -7 -8l-362 -7q4 -81 47 -128t111 -47q89 1 157 61l27 -58q-70 -68 -188 -68q-112 0 -179 72.5t-67 187.5t63.5 187.5t169.5 72.5zM280 448
q-62 0 -100 -42.5t-43 -118.5h270q9 0 7 10q-9 151 -134 151z" />
    <glyph glyph-name="Ecircumflexgrave" unicode="&#x1ec0;" horiz-adv-x="588" 
d="M590 844h-79l-130 155h105zM480 767h-79l-85 108l-84 -108h-80l109 156h111zM61 700h470q7 0 7 -7v-156h-56l-6 73q-1 13 -14 13h-226v-232h216v-72h-216v-242h244q13 0 14 13l6 73h57v-156q0 -7 -8 -7h-488v51q0 7 6 7l60 5q13 1 13 14v546q0 13 -13 14l-60 5q-6 0 -6 7
v51z" />
    <glyph glyph-name="ecircumflexgrave" unicode="&#x1ec1;" horiz-adv-x="547" 
d="M481 700h-80l-130 156h105zM442 567h-79l-85 108l-84 -108h-79l108 156h111zM278 510q115 0 171 -66.5t57 -184.5v-14q1 -8 -7 -8l-362 -7q4 -81 47 -128t111 -47q89 1 157 61l27 -58q-70 -68 -188 -68q-74 0 -130 33.5t-86 92.5t-30 134q0 115 63.5 187.5t169.5 72.5z
M280 448q-62 0 -100 -42.5t-43 -118.5h270q9 0 7 10q-9 151 -134 151z" />
    <glyph glyph-name="Ecircumflexhookabove" unicode="&#x1ec2;" horiz-adv-x="588" 
d="M565 1019q52 0 88 -26t36 -68q0 -31 -16 -51t-50 -39q-21 -11 -28.5 -16t-14 -13t-6.5 -20l-1 -18h-54l-2 26q0 15 3.5 26t13 20.5t20.5 16t30 17.5q24 13 32.5 22.5t8.5 28.5q0 21 -17.5 33.5t-46.5 12.5q-30 0 -63 -15l-28 36q39 27 95 27zM480 767h-79l-85 108
l-84 -108h-80l109 156h111zM61 700h470q7 0 7 -7v-156h-56l-6 73q-1 13 -14 13h-226v-232h216v-72h-216v-242h244q13 0 14 13l6 73h57v-156q0 -7 -8 -7h-488v51q0 7 6 7l60 5q13 1 13 14v546q0 13 -13 14l-60 5q-6 0 -6 7v51z" />
    <glyph glyph-name="ecircumflexhookabove" unicode="&#x1ec3;" horiz-adv-x="547" 
d="M438 943q34 0 62 -11t45 -33t17 -49q0 -31 -15.5 -51t-49.5 -39q-22 -12 -29.5 -16.5t-14 -13t-6.5 -20.5l-1 -17h-54l-2 26q-1 28 14 43.5t53 35.5q24 13 33 23t9 28q0 22 -18 34.5t-47 12.5q-30 -1 -63 -15l-27 35q38 27 94 27zM436 567h-79l-84 108l-85 -108h-79
l108 156h111zM278 510q78 0 129.5 -32t74.5 -87t24 -132v-14q1 -8 -7 -8l-362 -7q4 -81 47 -128t111 -47q89 1 157 61l27 -58q-70 -68 -188 -68q-112 0 -179 72.5t-67 187.5t63.5 187.5t169.5 72.5zM280 448q-41 0 -72 -19t-49.5 -55.5t-21.5 -86.5h270q9 0 7 10
q-9 151 -134 151z" />
    <glyph glyph-name="Ecircumflextilde" unicode="&#x1ec4;" horiz-adv-x="588" 
d="M410 1056l55 -12q-3 -39 -23.5 -61t-51.5 -25q-26 -2 -63 12q-9 4 -20 9t-19 8.5t-16.5 7t-12.5 3.5q-12 1 -20 -8t-17 -35l-55 15q15 76 68 84q28 3 82 -21q41 -18 59 -15q20 4 34 38zM480 767h-79l-85 108l-84 -108h-80l109 156h111zM61 700h470q7 0 7 -7v-156h-56
l-6 73q-1 13 -14 13h-226v-232h216v-72h-216v-242h244q13 0 14 13l6 73h57v-156q0 -7 -8 -7h-488v51q0 7 6 7l60 5q13 1 13 14v546q0 13 -13 14l-60 5q-6 0 -6 7v51z" />
    <glyph glyph-name="ecircumflextilde" unicode="&#x1ec5;" horiz-adv-x="547" 
d="M373 847l54 -12q-3 -39 -23 -61t-52 -25q-26 -2 -63 13q-9 3 -20 8t-19 9t-16 7t-13 3q-11 1 -19 -8t-18 -35l-55 15q15 76 68 84q28 4 83 -20q41 -19 58 -16q21 4 35 38zM442 567h-79l-85 108l-84 -108h-79l108 156h111zM278 510q115 0 171 -66.5t57 -184.5v-14
q1 -8 -7 -8l-362 -7q4 -81 47 -128t111 -47q89 1 157 61l27 -58q-70 -68 -188 -68q-74 0 -130 33.5t-86 92.5t-30 134q0 115 63.5 187.5t169.5 72.5zM280 448q-62 0 -100 -42.5t-43 -118.5h270q9 0 7 10q-9 151 -134 151z" />
    <glyph glyph-name="Ecircumflexdotbelow" unicode="&#x1ec6;" horiz-adv-x="588" 
d="M480 767h-79l-85 108l-84 -108h-80l109 156h111zM61 700h470q7 0 7 -7v-156h-56l-6 73q-1 13 -14 13h-226v-232h216v-72h-216v-242h244q14 0 15 13l5 73h57v-156q0 -7 -8 -7h-488v51q0 7 6 7l60 5q13 1 13 14v546q0 13 -13 14l-60 5q-6 0 -6 7v51zM294 -84q20 0 34 -14.5
t14 -33.5t-14 -33t-34 -14t-33.5 14t-13.5 33q0 12 6 23t17 18t24 7z" />
    <glyph glyph-name="ecircumflexdotbelow" unicode="&#x1ec7;" horiz-adv-x="547" 
d="M442 567h-79l-85 108l-84 -108h-79l108 156h111zM278 510q115 0 171 -66.5t57 -184.5l1 -14q0 -8 -8 -8l-362 -7q4 -81 47 -128t111 -47q89 1 157 61l27 -58q-70 -68 -188 -68q-112 0 -179 72.5t-67 187.5t63.5 187.5t169.5 72.5zM280 448q-41 0 -72 -19t-49.5 -55.5
t-21.5 -86.5h270q9 0 7 10q-9 151 -134 151zM273 -84q20 0 34 -14.5t14 -33.5t-14 -33t-34 -14t-33.5 14t-13.5 33q0 9 3.5 18t9.5 15.5t15 10.5t19 4z" />
    <glyph glyph-name="Ihookabove" unicode="&#x1ec8;" horiz-adv-x="378" 
d="M199 1019q52 0 88 -26t36 -68q0 -31 -16 -51t-50 -39q-21 -11 -28.5 -16t-14 -13.5t-6.5 -19.5l-1 -18h-54l-2 26q-1 28 14 43.5t53 36.5q24 13 32.5 22.5t8.5 28.5q0 21 -17.5 33.5t-46.5 12.5q-31 0 -63 -15l-28 36q39 27 95 27zM317 642l-67 -5q-13 -1 -13 -14v-546
q0 -13 13 -14l67 -5v-58h-256v51q0 7 6 7l61 5q13 1 13 14v546q0 13 -13 14l-61 5q-6 0 -6 7v51h256v-58z" />
    <glyph glyph-name="ihookabove" unicode="&#x1ec9;" horiz-adv-x="360" 
d="M186 810q53 0 88.5 -26t35.5 -68q0 -31 -15.5 -50.5t-49.5 -39.5q-22 -11 -29.5 -16t-13.5 -13t-7 -20l-1 -17l-54 -1l-1 27q-1 19 7 33t21 23t38 23q13 7 20 11.5t12.5 10.5t7.5 12.5t2 16.5q0 21 -17.5 34t-47.5 12q-30 0 -62 -15l-28 36q38 27 94 27zM61 498l154 8
q8 0 8 -8v-424q0 -13 13 -14l70 -6v-54h-245v48q0 7 6 7l55 5q13 1 13 14v353q0 14 -14 15l-60 3v53z" />
    <glyph glyph-name="Idotbelow" unicode="&#x1eca;" horiz-adv-x="378" 
d="M317 642l-67 -5q-13 -1 -13 -14v-546q0 -13 13 -14l67 -5v-58h-256v51q0 7 6 7l61 5q13 1 13 14v546q0 13 -13 14l-61 5q-6 0 -6 7v51h256v-58zM190 -84q20 0 34 -14.5t14 -33.5t-14 -33t-34 -14t-34 14t-14 33t14 33.5t34 14.5z" />
    <glyph glyph-name="idotbelow" unicode="&#x1ecb;" horiz-adv-x="360" 
d="M175 721q21 0 36 -15t15 -36.5t-15 -36.5t-36 -15t-36.5 15t-15.5 36.5t15.5 36.5t36.5 15zM61 498l154 8q8 0 8 -8v-424q0 -13 13 -14l70 -6v-54h-245v48q0 7 6 7l55 5q13 1 13 14v353q0 14 -14 15l-60 3v53zM175 -84q20 0 34 -14.5t14 -33.5t-14 -33t-34 -14t-34 14
t-14 33t14 33.5t34 14.5z" />
    <glyph glyph-name="Odotbelow" unicode="&#x1ecc;" horiz-adv-x="780" 
d="M390 709q154 0 248 -100t94 -259t-94 -259t-248 -100t-248.5 100t-94.5 259t94.5 259t248.5 100zM390 632q-55 0 -100 -19.5t-76.5 -55.5t-49 -89t-17.5 -118q0 -131 66 -206.5t177 -75.5t177 75.5t66 206.5t-66 206.5t-177 75.5zM390 -84q20 0 34 -14.5t14 -33.5
t-14 -33t-34 -14t-34 14t-14 33q0 9 3.5 18t10 15.5t15.5 10.5t19 4z" />
    <glyph glyph-name="odotbelow" unicode="&#x1ecd;" horiz-adv-x="601" 
d="M300.5 510q115.5 0 185.5 -72.5t70 -187.5t-70 -187.5t-186 -72.5q-76 0 -134.5 33.5t-89.5 92.5t-31 134q0 115 70 187.5t185.5 72.5zM300.5 445q-74.5 0 -120 -52t-45.5 -142.5t45.5 -142.5t120 -52t120 52t45.5 142.5t-45.5 142.5t-120 52zM300 -84q20 0 34 -14.5
t14 -33.5q0 -12 -6 -23t-17.5 -17.5t-24.5 -6.5q-20 0 -33.5 14t-13.5 33t13.5 33.5t33.5 14.5z" />
    <glyph glyph-name="Ohookabove" unicode="&#x1ece;" horiz-adv-x="780" 
d="M411 1019q52 0 88 -26t36 -68q0 -31 -16 -51t-50 -39q-21 -11 -28.5 -16t-14 -13.5t-6.5 -19.5l-1 -18h-54l-2 26q-1 28 14 43.5t53 36.5q24 13 32.5 22.5t8.5 28.5q0 21 -17.5 33.5t-46.5 12.5q-31 0 -63 -15l-28 36q39 27 95 27zM390 709q154 0 248 -100t94 -259
t-94 -259t-248 -100t-248.5 100t-94.5 259t94.5 259t248.5 100zM390 632q-55 0 -100 -19.5t-76.5 -55.5t-49 -89t-17.5 -118q0 -131 66 -206.5t177 -75.5t177 75.5t66 206.5t-66 206.5t-177 75.5z" />
    <glyph glyph-name="ohookabove" unicode="&#x1ecf;" horiz-adv-x="601" 
d="M319 810q52 0 88 -26t36 -68q0 -31 -15.5 -50.5t-50.5 -39.5q-21 -11 -28.5 -16t-14 -13t-6.5 -20l-1 -17l-54 -1l-2 27q-1 27 14 43t53 36q24 13 32.5 22.5t8.5 28.5q0 21 -17.5 34t-46.5 12q-30 0 -63 -15l-27 36q38 27 94 27zM300.5 510q115.5 0 185.5 -72.5
t70 -187.5t-70 -187.5t-185.5 -72.5t-185.5 72.5t-70 187.5t70 187.5t185.5 72.5zM300.5 445q-74.5 0 -120 -52t-45.5 -142.5t45.5 -142.5t120 -52t120 52t45.5 142.5t-45.5 142.5t-120 52z" />
    <glyph glyph-name="Ocircumflexacute" unicode="&#x1ed0;" horiz-adv-x="780" 
d="M628 825h-80l104 155h106zM553 748h-79l-84 108l-85 -108h-79l108 156h111zM389.5 709q153.5 0 248 -100t94.5 -259t-94 -259t-248 -100t-248.5 100t-94.5 259t94.5 259t248 100zM390 632q-73 0 -128 -33.5t-85 -97.5t-30 -151q0 -131 66 -206.5t176.5 -75.5t177 75.5
t66.5 206.5t-66 206.5t-177 75.5z" />
    <glyph glyph-name="ocircumflexacute" unicode="&#x1ed1;" horiz-adv-x="601" 
d="M492 700h-79l104 156h106zM464 567h-79l-85 108l-84 -108h-79l108 156h111zM300.5 510q115.5 0 185.5 -72.5t70 -187.5t-70 -187.5t-185.5 -72.5t-185.5 72.5t-70 187.5t70 187.5t185.5 72.5zM300.5 445q-74.5 0 -120 -52t-45.5 -142.5t45.5 -142.5t120 -52t120 52
t45.5 142.5t-45.5 142.5t-120 52z" />
    <glyph glyph-name="Ocircumflexgrave" unicode="&#x1ed2;" horiz-adv-x="780" 
d="M659 825h-80l-130 155h105zM553 748h-79l-84 108l-85 -108h-79l108 156h111zM389.5 709q153.5 0 248 -100t94.5 -259t-94 -259t-248 -100t-248.5 100t-94.5 259t94.5 259t248 100zM390 632q-73 0 -128 -33.5t-85 -97.5t-30 -151q0 -131 66 -206.5t176.5 -75.5t177 75.5
t66.5 206.5t-66 206.5t-177 75.5z" />
    <glyph glyph-name="ocircumflexgrave" unicode="&#x1ed3;" horiz-adv-x="601" 
d="M503 700h-80l-130 156h105zM464 567h-79l-85 108l-84 -108h-79l108 156h111zM300.5 510q115.5 0 185.5 -72.5t70 -187.5t-70 -187.5t-185.5 -72.5t-185.5 72.5t-70 187.5t70 187.5t185.5 72.5zM300.5 445q-74.5 0 -120 -52t-45.5 -142.5t45.5 -142.5t120 -52t120 52
t45.5 142.5t-45.5 142.5t-120 52z" />
    <glyph glyph-name="Ocircumflexhookabove" unicode="&#x1ed4;" horiz-adv-x="780" 
d="M634 1004q52 1 88 -25.5t36 -67.5q0 -21 -8 -37.5t-21.5 -28t-36.5 -24.5q-14 -8 -18.5 -10.5t-12.5 -8t-10.5 -9t-5 -9t-2.5 -12.5l-1 -18h-54l-2 26q-1 28 14 43.5t53 35.5q24 14 32.5 23.5t8.5 27.5q0 22 -17.5 34.5t-46.5 12.5q-30 -1 -63 -15l-27 35q38 27 94 27z
M553 748h-79l-84 108l-85 -108h-79l108 156h111zM389.5 709q153.5 0 248 -100t94.5 -259t-94.5 -259t-248 -100t-248 100t-94.5 259t94.5 259t248 100zM390 632q-111 0 -177 -75.5t-66 -206.5t66 -206.5t176.5 -75.5t177 75.5t66.5 206.5t-66 206.5t-177 75.5z" />
    <glyph glyph-name="ocircumflexhookabove" unicode="&#x1ed5;" horiz-adv-x="601" 
d="M466 943q52 0 88 -26t36 -67q0 -31 -15.5 -51t-50.5 -39q-17 -9 -22.5 -12.5t-13.5 -10t-10.5 -12.5t-2.5 -15l-1 -17h-54l-2 26q-1 28 14 43.5t53 35.5q24 13 32.5 23t8.5 28q0 22 -17.5 34.5t-46.5 12.5q-30 -1 -63 -15l-27 35q38 27 94 27zM464 567h-79l-85 108
l-84 -108h-79l108 156h111zM300.5 510q115.5 0 185.5 -72.5t70 -187.5t-70 -187.5t-185.5 -72.5t-185.5 72.5t-70 187.5t70 187.5t185.5 72.5zM300.5 445q-74.5 0 -120 -52t-45.5 -142.5t45.5 -142.5t120 -52t120 52t45.5 142.5t-45.5 142.5t-120 52z" />
    <glyph glyph-name="Ocircumflextilde" unicode="&#x1ed6;" horiz-adv-x="780" 
d="M484 1056l55 -12q-3 -39 -23.5 -61.5t-52.5 -24.5q-26 -3 -63 12q-8 3 -19.5 8.5t-19.5 9t-16 6.5t-13 4q-7 1 -13 -2.5t-11.5 -13t-11.5 -27.5l-55 15q14 76 67 84q29 3 83 -21q41 -18 58 -15q21 4 35 38zM553 767h-79l-84 108l-85 -108h-79l108 156h111zM389.5 709
q153.5 0 248 -100t94.5 -259t-94.5 -259t-248 -100t-248 100t-94.5 259t94.5 259t248 100zM390 632q-73 0 -128 -33.5t-85 -97.5t-30 -151q0 -131 66 -206.5t176.5 -75.5t177 75.5t66.5 206.5t-66 206.5t-177 75.5z" />
    <glyph glyph-name="ocircumflextilde" unicode="&#x1ed7;" horiz-adv-x="601" 
d="M395 847l54 -12q-3 -39 -23 -61t-52 -25q-26 -2 -63 13q-10 3 -25 10.5t-26 12t-17 4.5q-11 1 -19 -8t-18 -35l-55 15q15 76 68 84q28 4 83 -20q41 -19 58 -16q21 4 35 38zM464 567h-79l-85 108l-84 -108h-79l108 156h111zM300.5 510q115.5 0 185.5 -72.5t70 -187.5
t-70 -187.5t-185.5 -72.5t-185.5 72.5t-70 187.5t70 187.5t185.5 72.5zM300.5 445q-74.5 0 -120 -52t-45.5 -142.5t45.5 -142.5t120 -52t120 52t45.5 142.5t-45.5 142.5t-120 52z" />
    <glyph glyph-name="Ocircumflexdotbelow" unicode="&#x1ed8;" horiz-adv-x="780" 
d="M553 767h-79l-84 108l-85 -108h-79l108 156h111zM389.5 709q153.5 0 248 -100t94.5 -259t-94 -259t-248 -100t-248.5 100t-94.5 259t94.5 259t248 100zM390 632q-73 0 -128 -33.5t-85 -97.5t-30 -151q0 -131 66 -206.5t176.5 -75.5t177 75.5t66.5 206.5t-66 206.5
t-177 75.5zM390 -84q20 0 34 -14.5t14 -33.5t-14 -33t-34 -14t-34 14t-14 33t14 33.5t34 14.5z" />
    <glyph glyph-name="ocircumflexdotbelow" unicode="&#x1ed9;" horiz-adv-x="601" 
d="M464 567h-79l-85 108l-84 -108h-79l108 156h111zM300.5 510q115.5 0 185.5 -72.5t70 -187.5t-70 -187.5t-185.5 -72.5t-185.5 72.5t-70 187.5t70 187.5t185.5 72.5zM300 445q-74 0 -119.5 -52t-45.5 -142.5t45.5 -142.5t120 -52t120 52t45.5 142q0 60 -21 104.5
t-58.5 67.5t-86.5 23zM300 -84q20 0 34 -14.5t14 -33.5t-14 -33t-34 -14t-33.5 14t-13.5 33q0 12 6 23t17 18t24 7z" />
    <glyph glyph-name="Ohornacute" unicode="&#x1eda;" horiz-adv-x="780" 
d="M423 767h-80l104 156h106zM673 822l68 23q31 -58 28 -113q-2 -32 -16 -57t-40 -39t-59 -15q-15 -1 -29 1q107 -100 107 -272q0 -159 -94 -259t-248 -100t-248.5 100t-94.5 259t94.5 259t248.5 100q83 0 151 -34q31 -13 66 -14q84 0 90 68q3 42 -24 93zM390 632
q-111 0 -177 -75.5t-66 -206.5t66 -206.5t177 -75.5q73 0 127.5 33.5t85 97.5t30.5 151q0 131 -66 206.5t-177 75.5z" />
    <glyph glyph-name="ohornacute" unicode="&#x1edb;" horiz-adv-x="600" 
d="M333 567h-79l104 156h106zM523 619l62 21q31 -58 28 -113q-3 -47 -32 -76.5t-78 -33.5q53 -68 53 -167q0 -115 -70 -187.5t-185.5 -72.5t-185.5 72.5t-70 187.5t70 187.5t185 72.5q95 0 160 -52l15 2q63 6 71 65q5 42 -23 94zM300.5 445q-74.5 0 -120 -52t-45.5 -142.5
t45.5 -142.5t120 -52t120 52t45.5 142.5t-45.5 142.5t-120 52z" />
    <glyph glyph-name="Ohorngrave" unicode="&#x1edc;" horiz-adv-x="780" 
d="M436 767h-80l-130 155h105zM673 822l68 23q31 -58 28 -113q-2 -32 -16 -57t-40 -39t-59 -15q-15 -1 -29 1q107 -100 107 -272q0 -159 -94 -259t-248 -100t-248.5 100t-94.5 259t94.5 259t248.5 100q83 0 151 -34q31 -13 66 -14q84 0 90 68q3 42 -24 93zM390 632
q-73 0 -128 -33.5t-85 -97.5t-30 -151q0 -131 66 -206.5t177 -75.5t177 75.5t66 206.5t-66 206.5t-177 75.5z" />
    <glyph glyph-name="ohorngrave" unicode="&#x1edd;" horiz-adv-x="600" 
d="M346 567h-79l-131 155h106zM523 619l62 21q31 -58 28 -113q-3 -47 -32 -76.5t-78 -33.5q53 -68 53 -167q0 -115 -70 -187.5t-186 -72.5q-76 0 -134.5 33.5t-89.5 92.5t-31 134q0 115 70 187.5t185 72.5q95 0 160 -52l15 2q63 6 71 65q5 42 -23 94zM300 445
q-74 0 -119.5 -52t-45.5 -142.5t45.5 -142.5t120 -52t120 52t45.5 142q0 60 -21 104.5t-58.5 67.5t-86.5 23z" />
    <glyph glyph-name="Ohornhookabove" unicode="&#x1ede;" horiz-adv-x="780" 
d="M411 1019q52 0 88 -26t36 -68q0 -31 -16 -51t-50 -39q-21 -11 -28.5 -16t-14 -13.5t-6.5 -19.5l-1 -18h-54l-2 26q-1 28 14 43.5t53 36.5q24 13 32.5 22.5t8.5 28.5q0 21 -17.5 33.5t-46.5 12.5q-31 0 -63 -15l-28 36q39 27 95 27zM673 822l68 23q31 -58 28 -113
q-2 -32 -16 -57t-40 -39t-59 -15q-15 -1 -29 1q107 -100 107 -272q0 -159 -94 -259t-248 -100t-248.5 100t-94.5 259t94.5 259t248.5 100q83 0 151 -34q31 -13 66 -14q84 0 90 68q3 42 -24 93zM390 632q-73 0 -128 -33.5t-85 -97.5t-30 -151q0 -131 66 -206.5t177 -75.5
t177 75.5t66 206.5t-66 206.5t-177 75.5z" />
    <glyph glyph-name="ohornhookabove" unicode="&#x1edf;" horiz-adv-x="600" 
d="M319 810q52 0 88 -26t36 -68q0 -31 -15.5 -50.5t-50.5 -39.5q-21 -11 -28.5 -16t-14 -13t-6.5 -20l-1 -17l-54 -1l-2 27q-1 27 14 43t53 36q24 13 32.5 22.5t8.5 28.5q0 21 -17.5 34t-46.5 12q-30 0 -63 -15l-27 36q38 27 94 27zM523 619l62 21q31 -58 28 -113
q-3 -47 -32 -76.5t-78 -33.5q53 -68 53 -167q0 -115 -70 -187.5t-186 -72.5q-76 0 -134.5 33.5t-89.5 92.5t-31 134q0 115 70 187.5t185 72.5q95 0 160 -52l15 2q63 6 71 65q5 42 -23 94zM300.5 445q-74.5 0 -120 -52t-45.5 -142.5t45.5 -142.5t120 -52t120 52t45.5 142.5
t-45.5 142.5t-120 52z" />
    <glyph glyph-name="Ohorntilde" unicode="&#x1ee0;" horiz-adv-x="780" 
d="M484 876l55 -11q-3 -39 -23.5 -61.5t-52.5 -25.5q-26 -2 -63 13q-10 4 -25 11t-26 11.5t-17 4.5q-11 2 -19 -7t-17 -36l-55 16q14 76 67 83q29 4 83 -20q41 -19 58 -15q21 3 35 37zM673 822l68 23q31 -58 28 -113q-3 -49 -33.5 -79t-81.5 -32q-15 -1 -29 1
q107 -100 107 -272q0 -159 -94 -259t-248 -100t-248.5 100t-94.5 259t94.5 259t248.5 100q83 0 151 -34q31 -13 66 -14q84 0 90 68q3 42 -24 93zM390 632q-111 0 -177 -75.5t-66 -206.5t66 -206.5t176.5 -75.5t177 75.5t66.5 206.5t-66 206.5t-177 75.5z" />
    <glyph glyph-name="ohorntilde" unicode="&#x1ee1;" horiz-adv-x="600" 
d="M395 676l54 -11q-3 -39 -23 -61.5t-52 -25.5q-26 -2 -63 13q-10 4 -25 11t-26 11.5t-17 4.5q-8 1 -13.5 -2t-11 -13t-12.5 -28l-55 16q15 76 68 83q28 4 83 -20q41 -19 58 -15q21 3 35 37zM523 619l62 21q31 -58 28 -113q-3 -47 -32 -76.5t-78 -33.5q53 -68 53 -167
q0 -115 -70 -187.5t-185.5 -72.5t-185.5 72.5t-70 187.5t70 187.5t185 72.5q95 0 160 -52l15 2q63 6 71 65q5 42 -23 94zM300.5 445q-74.5 0 -120 -52t-45.5 -142.5t45.5 -142.5t120 -52t120 52t45.5 142.5t-45.5 142.5t-120 52z" />
    <glyph glyph-name="Ohorndotbelow" unicode="&#x1ee2;" horiz-adv-x="780" 
d="M673 822l68 23q31 -58 28 -113q-3 -49 -33.5 -79t-81.5 -32q-15 -1 -29 1q107 -100 107 -272q0 -159 -94 -259t-248 -100t-248.5 100t-94.5 259t94.5 259t248.5 100q83 0 151 -34q31 -13 66 -14q84 0 90 68q3 42 -24 93zM390 632q-111 0 -177 -75.5t-66 -206.5t66 -206.5
t177 -75.5t177 75.5t66 206.5t-66 206.5t-177 75.5zM390 -84q20 0 34 -14.5t14 -33.5t-14 -33t-34 -14t-34 14t-14 33t14 33.5t34 14.5z" />
    <glyph glyph-name="ohorndotbelow" unicode="&#x1ee3;" horiz-adv-x="600" 
d="M523 619l62 21q31 -58 28 -113q-3 -47 -32 -76.5t-78 -33.5q53 -68 53 -167q0 -115 -70 -187.5t-185.5 -72.5t-185.5 72.5t-70 187.5t70 187.5t185 72.5q95 0 160 -52l15 2q63 6 71 65q5 42 -23 94zM300.5 445q-74.5 0 -120 -52t-45.5 -142.5t45.5 -142.5t120 -52t120 52
t45.5 142.5t-45.5 142.5t-120 52zM300 -84q20 0 34 -14.5t14 -33.5t-14 -33t-34 -14t-33.5 14t-13.5 33q0 12 6 23t17 18t24 7z" />
    <glyph glyph-name="Udotbelow" unicode="&#x1ee4;" horiz-adv-x="830" 
d="M774 641l-69 -5q-13 -1 -13 -14v-350q0 -83 -33.5 -147t-96 -99.5t-144.5 -35.5q-124 0 -199 77.5t-75 204.5v350q0 13 -13 14l-64 5q-6 0 -6 7v51h264v-58l-72 -6q-13 -1 -13 -14v-349q0 -49 13.5 -88t37.5 -64.5t57.5 -39t74.5 -13.5q85 0 137.5 54.5t52.5 150.5v349
q0 13 -13 14l-76 6v58h250v-58zM414 -84q20 0 33.5 -14.5t13.5 -33.5q0 -12 -6 -23t-17 -17.5t-24 -6.5q-20 0 -34 14t-14 33q0 12 6 23t17 18t25 7z" />
    <glyph glyph-name="udotbelow" unicode="&#x1ee5;" horiz-adv-x="692" 
d="M46 499h160q8 0 8 -7v-325q0 -112 100 -112q76 0 171 60v310q0 13 -13 14l-69 6v54h162q7 0 7 -7v-420q0 -13 14 -14l60 -3v-53l-154 -8q-3 -1 -5 1.5t-2 5.5v64q-112 -75 -209 -75q-69 0 -109.5 40.5t-40.5 121.5v273q0 13 -13 14l-67 6v54zM347 -84q20 0 33.5 -14.5
t13.5 -33.5q0 -12 -6 -23t-17 -17.5t-24 -6.5q-21 0 -34.5 14t-13.5 33q0 9 3.5 18t10 15.5t15 10.5t19.5 4z" />
    <glyph glyph-name="Uhookabove" unicode="&#x1ee6;" horiz-adv-x="830" 
d="M423 1019q52 0 88 -26t36 -68q0 -31 -16 -51t-50 -39q-21 -11 -28.5 -16t-14 -13.5t-6.5 -19.5l-1 -18h-54l-2 26q-1 28 14 43.5t53 36.5q24 13 32.5 22.5t8.5 28.5q0 21 -17.5 33.5t-46.5 12.5q-31 0 -63 -15l-28 36q39 27 95 27zM774 641l-69 -5q-13 -1 -13 -14v-350
q0 -83 -33.5 -147t-96 -99.5t-144.5 -35.5q-124 0 -199 77.5t-75 204.5v350q0 13 -13 14l-64 5q-6 0 -6 7v51h264v-58l-72 -6q-13 -1 -13 -14v-349q0 -97 50 -151t133 -54q85 0 137.5 54.5t52.5 150.5v349q0 13 -13 14l-76 6v58h250v-58z" />
    <glyph glyph-name="uhookabove" unicode="&#x1ee7;" horiz-adv-x="692" 
d="M352 810q52 0 88 -26t36 -68q0 -31 -15.5 -50.5t-50.5 -39.5q-21 -11 -28.5 -16t-14 -13t-6.5 -20l-1 -17l-54 -1l-2 27q0 14 3.5 25t13 20.5t20.5 16.5t30 17q17 9 25 15t12 14.5t4 21.5q0 21 -17.5 34t-46.5 12q-30 0 -63 -15l-27 36q38 27 94 27zM46 499h160q8 0 8 -7
v-325q0 -112 100 -112q76 0 170 60v310q0 13 -12 14l-69 6v54h162q7 0 7 -7v-420q0 -13 14 -14l60 -3v-53l-154 -8q-3 -1 -5 1.5t-2 5.5v64q-112 -75 -209 -75q-69 0 -109.5 40.5t-40.5 121.5v273q0 13 -13 14l-67 6v54z" />
    <glyph glyph-name="Uhornacute" unicode="&#x1ee8;" horiz-adv-x="832" 
d="M448 767h-80l105 156h105zM745 825l50 21q35 -26 47 -61q14 -33 1.5 -67.5t-47.5 -53.5q-21 -10 -45 -12l-47 -5q-12 -2 -12 -14v-360q0 -127 -75 -204.5t-199 -77.5t-199 77.5t-75 204.5v349q0 13 -13 15l-64 5q-6 0 -6 7v51h264v-58l-72 -6q-13 -1 -13 -14v-349
q0 -97 50 -151t133 -54q85 0 137.5 54t52.5 151v349q0 13 -13 14l-76 6v58h212q10 2 21 7q20 11 26 30.5t-3 40.5q-10 27 -35 47z" />
    <glyph glyph-name="uhornacute" unicode="&#x1ee9;" horiz-adv-x="692" 
d="M379 567h-79l104 156h106zM582 635l50 20q40 -30 49 -77q7 -35 -8.5 -65t-51.5 -45q-22 -10 -49 -10v-386q0 -13 14 -14l60 -3v-53l-154 -8q-3 -1 -5 1.5t-2 5.5v64q-112 -75 -209 -75q-69 0 -109.5 40.5t-40.5 121.5v273q0 13 -13 14l-67 6v54h160q8 0 8 -7v-325
q0 -112 100 -112q76 0 170 60v310q0 13 -12 14l-69 6v54h139q24 0 44 9q22 11 30.5 29.5t2.5 40.5q-8 30 -37 57z" />
    <glyph glyph-name="Uhorngrave" unicode="&#x1eea;" horiz-adv-x="832" 
d="M461 767h-80l-130 155h106zM745 825l50 21q35 -26 47 -61q14 -33 1.5 -67.5t-47.5 -53.5q-21 -10 -45 -12l-47 -5q-12 -2 -12 -14v-360q0 -127 -75 -204.5t-199 -77.5q-62 0 -113 20.5t-86.5 57.5t-55 89.5t-19.5 114.5v349q0 13 -13 15l-64 5q-6 0 -6 7v51h264v-58
l-72 -6q-13 -1 -13 -14v-349q0 -97 50 -151t133 -54q85 0 137.5 54t52.5 151v349q0 13 -13 14l-76 6v58h212q10 2 21 7q20 11 26 30.5t-3 40.5q-10 27 -35 47z" />
    <glyph glyph-name="uhorngrave" unicode="&#x1eeb;" horiz-adv-x="692" 
d="M392 567h-79l-131 155h106zM582 635l50 20q40 -30 49 -77q7 -35 -8.5 -65t-51.5 -45q-22 -10 -49 -10v-386q0 -13 14 -14l60 -3v-53l-154 -8q-3 -1 -5 1.5t-2 5.5v64q-112 -75 -209 -75q-45 0 -78 17t-52.5 54t-19.5 91v273q0 13 -13 14l-67 6v54h160q8 0 8 -7v-325
q0 -112 100 -112q76 0 170 60v310q0 13 -12 14l-69 6v54h139q24 0 44 9q22 11 30.5 29.5t2.5 40.5q-8 30 -37 57z" />
    <glyph glyph-name="Uhornhookabove" unicode="&#x1eec;" horiz-adv-x="832" 
d="M423 1019q52 0 88 -26t36 -68q0 -31 -16 -51t-50 -39q-21 -11 -28.5 -16t-14 -13.5t-6.5 -19.5l-1 -18h-54l-2 26q-1 28 14 43.5t53 36.5q24 13 32.5 22.5t8.5 28.5q0 21 -17.5 33.5t-46.5 12.5q-31 0 -63 -15l-28 36q39 27 95 27zM745 825l50 21q35 -26 47 -61
q14 -33 1.5 -67.5t-47.5 -53.5q-21 -10 -45 -12l-47 -5q-12 -2 -12 -14v-360q0 -127 -75 -204.5t-199 -77.5t-199 77.5t-75 204.5v349q0 13 -13 15l-64 5q-6 0 -6 7v51h264v-58l-72 -6q-13 -1 -13 -14v-349q0 -97 50 -151t133 -54q56 0 98.5 23.5t67 70.5t24.5 111v349
q0 13 -13 14l-76 6v58h212q10 2 21 7q20 11 26 30.5t-3 40.5q-10 27 -35 47z" />
    <glyph glyph-name="uhornhookabove" unicode="&#x1eed;" horiz-adv-x="692" 
d="M352 810q52 0 88 -26t36 -68q0 -31 -15.5 -50.5t-50.5 -39.5q-21 -11 -28.5 -16t-14 -13t-6.5 -20l-1 -17l-54 -1l-2 27q-1 27 14 43t53 36q24 13 32.5 22.5t8.5 28.5q0 21 -17.5 34t-46.5 12q-30 0 -63 -15l-27 36q38 27 94 27zM582 635l50 20q40 -30 49 -77
q7 -35 -8.5 -65t-51.5 -45q-22 -10 -49 -10v-386q0 -13 14 -14l60 -3v-53l-154 -8q-3 -1 -5 1.5t-2 5.5v64q-112 -75 -209 -75q-69 0 -109.5 40.5t-40.5 121.5v273q0 13 -13 14l-67 6v54h160q8 0 8 -7v-325q0 -112 100 -112q76 0 170 60v310q0 13 -12 14l-69 6v54h139
q24 0 44 10q22 10 30.5 28.5t2.5 40.5q-8 30 -37 57z" />
    <glyph glyph-name="Uhorntilde" unicode="&#x1eee;" horiz-adv-x="832" 
d="M509 876l55 -11q-3 -39 -23.5 -61.5t-52.5 -25.5q-25 -2 -62 13q-11 4 -26 11t-26 11.5t-17 4.5q-11 2 -19 -7t-17 -36l-55 16q14 76 67 83q29 4 83 -20q41 -19 58 -15q21 3 35 37zM745 825l50 21q35 -26 47 -61q14 -33 1.5 -67.5t-47.5 -53.5q-21 -10 -45 -12l-47 -5
q-12 -2 -12 -14v-360q0 -127 -75 -204.5t-199 -77.5t-199 77.5t-75 204.5v349q0 13 -13 15l-64 5q-6 0 -6 7v51h264v-58l-72 -6q-13 -1 -13 -14v-349q0 -98 50 -151.5t133 -53.5q85 0 137.5 54t52.5 151v349q0 13 -13 14l-76 6v58h212q10 2 21 7q20 11 26 30.5t-3 40.5
q-10 27 -35 47z" />
    <glyph glyph-name="uhorntilde" unicode="&#x1eef;" horiz-adv-x="692" 
d="M440 676l55 -11q-3 -39 -23.5 -61.5t-51.5 -25.5q-26 -2 -63 13q-10 4 -25.5 11t-26 11.5t-16.5 4.5q-12 2 -20 -7t-17 -36l-55 16q15 76 68 83q28 4 83 -20q40 -19 58 -15q21 3 34 37zM582 635l50 20q40 -30 49 -77q7 -35 -8.5 -65t-51.5 -45q-22 -10 -49 -10v-386
q0 -13 14 -14l60 -3v-53l-154 -8q-3 -1 -5 1.5t-2 5.5v64q-112 -75 -209 -75q-69 0 -109.5 40.5t-40.5 121.5v273q0 13 -13 14l-67 6v54h160q8 0 8 -7v-325q0 -112 100 -112q76 0 170 60v310q0 13 -13 14l-68 6v54h139q24 0 44 9q22 11 30.5 29.5t2.5 40.5q-8 30 -37 57z
" />
    <glyph glyph-name="Uhorndotbelow" unicode="&#x1ef0;" horiz-adv-x="832" 
d="M745 825l50 21q35 -26 47 -61q14 -33 1.5 -67.5t-47.5 -53.5q-21 -10 -45 -12l-47 -5q-12 -2 -12 -14v-360q0 -127 -75 -204.5t-199 -77.5q-62 0 -113 20.5t-86.5 57.5t-55 89.5t-19.5 114.5v349q0 13 -13 15l-64 5q-6 0 -6 7v51h264v-58l-72 -6q-13 -1 -13 -14v-349
q0 -97 50 -151t133 -54q85 0 137.5 54t52.5 151v349q0 13 -13 14l-76 6v58h212q10 2 21 7q20 11 26 30.5t-3 40.5q-10 27 -35 47zM414 -84q20 0 33.5 -14.5t13.5 -33.5q0 -12 -6 -23t-17 -17.5t-24 -6.5q-20 0 -34 14t-14 33q0 12 6 23t17 18t25 7z" />
    <glyph glyph-name="uhorndotbelow" unicode="&#x1ef1;" horiz-adv-x="692" 
d="M582 635l50 20q40 -30 49 -77q7 -35 -8.5 -65t-51.5 -45q-22 -10 -49 -10v-386q0 -13 14 -14l60 -3v-53l-154 -8q-3 -1 -5 1.5t-2 5.5v64q-112 -75 -209 -75q-69 0 -109.5 40.5t-40.5 121.5v273q0 13 -13 14l-67 6v54h160q8 0 8 -7v-325q0 -112 100 -112q76 0 170 60v310
q0 13 -12 14l-69 6v54h139q24 0 44 9q22 11 30.5 29.5t2.5 40.5q-8 30 -37 57zM346 -84q21 0 34.5 -14.5t13.5 -33.5q0 -12 -6 -22.5t-17 -17.5t-25 -7q-20 0 -33.5 14t-13.5 33q0 12 6 23t17 18t24 7z" />
    <glyph glyph-name="Ygrave" unicode="&#x1ef2;" horiz-adv-x="695" 
d="M393 767h-79l-131 155h106zM671 642l-50 -4l-220 -391v-170q0 -13 13 -14l68 -5v-58h-256v51q0 7 6 7l61 5q13 1 13 14v163l-222 392q-3 5 -10 6l-44 4q-6 0 -6 7v51h127l210 -372l159 284q5 9 0.5 16.5t-14.5 8.5l-61 5q-7 1 -7 7v51h233v-58z" />
    <glyph glyph-name="ygrave" unicode="&#x1ef3;" horiz-adv-x="567" 
d="M331 567h-79l-131 155h106zM552 445l-52 -4l-255 -639q-2 -5 -6 -5h-165v55l113 9q8 0 11 8l51 128h-15l-170 437q-3 7 -10 8l-32 3q-6 1 -6 7v48h117l152 -414l132 332q3 8 -1 14.5t-13 7.5l-61 5q-7 1 -7 7v48h217v-55z" />
    <glyph glyph-name="Ydotbelow" unicode="&#x1ef4;" horiz-adv-x="695" 
d="M671 642l-50 -4l-220 -391v-170q0 -13 13 -14l68 -5v-58h-256v51q0 7 6 7l61 5q13 1 13 14v163l-222 392q-4 5 -10 6l-44 4q-6 0 -6 7v51h127l210 -372l159 284q5 9 0.5 16.5t-14.5 8.5l-61 5q-7 1 -7 7v51h233v-58zM346 -84q20 0 34 -14.5t14 -33.5t-14 -33t-34 -14
t-33.5 14t-13.5 33q0 12 6 23t17 18t24 7z" />
    <glyph glyph-name="ydotbelow" unicode="&#x1ef5;" horiz-adv-x="567" 
d="M552 445l-52 -4l-255 -639q-2 -5 -6 -5h-165v55l113 9q8 0 11 8l51 128h-15l-170 437q-3 7 -10 8l-32 3q-6 1 -6 7v48h117l152 -414l132 332q2 6 1 10.5t-5 8t-10 3.5l-61 5q-7 1 -7 7v48h217v-55zM352 -84q20 0 34 -14.5t14 -33.5t-14 -33t-34 -14t-33.5 14t-13.5 33
t13.5 33.5t33.5 14.5z" />
    <glyph glyph-name="Yhookabove" unicode="&#x1ef6;" horiz-adv-x="695" 
d="M377 1019q52 0 88 -26t36 -68q0 -31 -15.5 -51t-50.5 -39q-17 -9 -22.5 -12.5t-13.5 -9.5t-10.5 -12t-2.5 -15l-1 -18h-54l-2 26q-1 28 14 43.5t53 36.5q24 13 32.5 22.5t8.5 28.5q0 21 -17.5 33.5t-46.5 12.5q-30 0 -63 -15l-27 36q38 27 94 27zM671 642l-50 -4
l-220 -391v-170q0 -13 13 -14l68 -5v-58h-256v51q0 7 6 7l61 5q13 1 13 14v163l-222 392q-4 5 -10 6l-44 4q-6 0 -6 7v51h127l210 -372l159 284q5 9 0.5 16.5t-14.5 8.5l-61 5q-7 1 -7 7v51h233v-58z" />
    <glyph glyph-name="yhookabove" unicode="&#x1ef7;" horiz-adv-x="567" 
d="M293 810q34 0 62 -11.5t45 -33t17 -49.5q0 -31 -16 -50.5t-50 -39.5q-21 -11 -28.5 -16t-14 -13t-6.5 -20l-1 -17l-54 -1l-2 27q-1 27 14 43t53 36q12 7 19 11.5t12.5 10.5t7.5 12.5t2 16.5q0 21 -17.5 34t-46.5 12q-31 0 -63 -15l-28 36q39 27 95 27zM552 445l-52 -4
l-255 -639q-2 -5 -6 -5h-165v55l113 9q8 0 11 8l51 128h-15l-170 437q-3 7 -10 8l-32 3q-6 1 -6 7v48h117l152 -414l132 332q3 8 -1 14.5t-13 7.5l-61 5q-7 1 -7 7v48h217v-55z" />
    <glyph glyph-name="Ytilde" unicode="&#x1ef8;" horiz-adv-x="695" 
d="M441 876l55 -11q-3 -39 -23 -61.5t-52 -25.5q-26 -2 -63 13q-10 4 -25.5 11t-26 11.5t-16.5 4.5q-12 2 -19.5 -7t-17.5 -36l-55 16q15 76 68 83q28 4 83 -20q40 -19 58 -15q21 3 34 37zM671 642l-50 -4l-220 -391v-170q0 -13 13 -14l68 -5v-58h-256v51q0 7 6 7l61 5
q13 1 13 14v163l-222 392q-4 5 -10 6l-44 4q-6 0 -6 7v51h127l210 -372l159 284q5 9 0.5 16.5t-14.5 8.5l-61 5q-7 1 -7 7v51h233v-58z" />
    <glyph glyph-name="ytilde" unicode="&#x1ef9;" horiz-adv-x="567" 
d="M380 676l54 -11q-3 -39 -23 -61.5t-52 -25.5q-26 -2 -63 13q-10 4 -25 11t-26 11.5t-17 4.5q-5 1 -8.5 0t-7 -3.5t-7 -8t-7 -13t-7.5 -18.5l-54 16q14 76 67 83q28 4 83 -20q41 -19 58 -15q21 3 35 37zM552 445l-52 -4l-255 -639q-2 -5 -6 -5h-165v55l113 9q8 0 11 8
l51 128h-15l-170 437q-3 7 -10 8l-32 3q-6 1 -6 7v48h117l152 -414l132 332q3 8 -1 14.5t-13 7.5l-61 5q-7 1 -7 7v48h217v-55z" />
    <glyph glyph-name="endash" unicode="&#x2013;" horiz-adv-x="489" 
d="M448 211h-406v76h406v-76z" />
    <glyph glyph-name="emdash" unicode="&#x2014;" horiz-adv-x="692" 
d="M650 211h-608v76h608v-76z" />
    <glyph glyph-name="quoteleft" unicode="&#x2018;" horiz-adv-x="183" 
d="M122 733l34 -21q-32 -50 -42 -98q-4 -22 1 -37l3 -1q15 -5 24 -18t9 -28q0 -21 -15 -36t-36 -16q-37 0 -51 34t-2 83q18 78 75 138z" />
    <glyph glyph-name="quoteright" unicode="&#x2019;" horiz-adv-x="183" 
d="M83 733q18 0 31.5 -9.5t19.5 -25.5t7 -37t-5 -44q-18 -79 -76 -139l-33 22q33 51 42 98q4 21 -1 34l-1 2q-16 5 -25.5 18.5t-9.5 29.5q0 20 14.5 35.5t36.5 15.5z" />
    <glyph glyph-name="quotesinglbase" unicode="&#x201a;" horiz-adv-x="183" 
d="M83 95q37 0 51 -33.5t2 -82.5q-18 -78 -76 -138l-33 21q34 53 43 102q3 20 -2 32l-2 1q-15 5 -24.5 18t-9.5 29q0 20 14.5 35.5t36.5 15.5z" />
    <glyph glyph-name="quotedblleft" unicode="&#x201c;" horiz-adv-x="349" 
d="M122 733l34 -21q-32 -50 -42 -97q-4 -23 1 -38h2q10 -4 18 -11t12 -16.5t4 -19.5q0 -21 -15 -36t-36 -16q-37 0 -51 34t-2 83q18 78 75 138zM289 733l34 -21q-34 -53 -43 -102q-4 -20 1 -33h3q15 -6 24.5 -19t9.5 -28q0 -10 -4 -19.5t-11 -16.5t-16.5 -11.5t-20.5 -4.5
q-36 0 -50 34t-2 83q17 78 75 138z" />
    <glyph glyph-name="quotedblright" unicode="&#x201d;" horiz-adv-x="349" 
d="M83 733q37 0 51 -34t2 -82q-18 -78 -76 -139l-33 22q30 47 40 92q5 23 0 39v3q-16 5 -25.5 18.5t-9.5 29.5q0 9 4 18.5t10.5 16.5t16 11.5t20.5 4.5zM250 733q36 0 50.5 -34t1.5 -82q-17 -79 -75 -139l-34 22q32 48 42 95q4 22 -1 36v3q-11 3 -19 10t-12.5 17t-4.5 21
q0 20 15 35.5t37 15.5z" />
    <glyph glyph-name="quotedblbase" unicode="&#x201e;" horiz-adv-x="349" 
d="M83 95q37 0 51 -33.5t2 -82.5q-18 -78 -76 -138l-33 21q36 55 44 106q2 18 -3 28l-2 1q-15 5 -24.5 18t-9.5 29q0 20 14.5 35.5t36.5 15.5zM250 95q36 0 50 -33.5t2 -82.5q-17 -78 -75 -138l-34 21q32 48 42 96q4 22 0 37l-1 1q-16 5 -26 18.5t-10 29.5q0 20 15 35.5
t37 15.5z" />
    <glyph glyph-name="dagger" unicode="&#x2020;" horiz-adv-x="524" 
d="M305 500h177v-77h-178l6 -521h-96l5 521h-177v77h177l-5 212h96z" />
    <glyph glyph-name="daggerdbl" unicode="&#x2021;" horiz-adv-x="524" 
d="M305 500h177v-77h-177v-233h177v-76h-175l3 -212h-96l3 212h-175v76h177l-1 233h-176v77h177l-5 212h96z" />
    <glyph glyph-name="bullet" unicode="&#x2022;" horiz-adv-x="308" 
d="M153.5 409q46.5 0 79.5 -33t33 -79.5t-33 -79t-79.5 -32.5t-79 32.5t-32.5 79t32.5 79.5t79 33z" />
    <glyph glyph-name="ellipsis" unicode="&#x2026;" horiz-adv-x="550" 
d="M92.5 95q21.5 0 36.5 -15.5t15 -35.5t-15 -35.5t-36.5 -15.5t-36 15.5t-14.5 35.5t14.5 35.5t36 15.5zM274.5 95q21.5 0 36.5 -15.5t15 -35.5q0 -13 -6.5 -25t-18.5 -19t-26 -7q-22 0 -36.5 15.5t-14.5 35.5t14.5 35.5t36 15.5zM457.5 95q21.5 0 36 -15.5t14.5 -35.5
t-14.5 -35.5t-36 -15.5t-36.5 15.5t-15 35.5t15 35.5t36.5 15.5z" />
    <glyph glyph-name="perthousand" unicode="&#x2030;" horiz-adv-x="1306" 
d="M314 -17h-83l362 734h83zM207.5 706q75.5 0 120.5 -57t45 -148.5t-45 -149t-120.5 -57.5t-120.5 57t-45 149t45 149t120.5 57zM207 653q-40 0 -66 -39.5t-26 -113.5t26 -113t66 -39t66 39t26 113t-26 113.5t-66 39.5zM704.5 406q75.5 0 121 -57t45.5 -149
q0 -60 -20.5 -107t-58 -73t-87.5 -26q-76 0 -121 57t-45 149t45 149t120.5 57zM1099 406q76 0 121 -57t45 -149t-45 -149t-121 -57t-121 57t-45 149t45 149t121 57zM705 352q-40 0 -66 -39t-26 -113t26 -113.5t66 -39.5t66 39.5t26 113.5t-26 113t-66 39zM1099 352
q-40 0 -66 -39t-26 -113t26 -113.5t66 -39.5t66 39.5t26 113.5t-26 113t-66 39z" />
    <glyph glyph-name="guilsinglleft" unicode="&#x2039;" horiz-adv-x="294" 
d="M138 251l125 -176h-90l-131 176l131 176h91z" />
    <glyph glyph-name="guilsinglright" unicode="&#x203a;" horiz-adv-x="294" 
d="M252 251l-132 -176h-90l125 176l-125 176h90z" />
    <glyph glyph-name="fraction" unicode="&#x2044;" horiz-adv-x="515" 
d="M118 -17h-83l362 734h83z" />
    <glyph glyph-name="zerosuperior" unicode="&#x2070;" horiz-adv-x="401" 
d="M200.5 746q75.5 0 121 -57t45.5 -147q0 -60 -20 -106t-58 -72.5t-89 -26.5q-75 0 -120.5 57t-45.5 147.5t45.5 147.5t121 57zM200.5 693q-40.5 0 -66.5 -38.5t-26 -112.5t26 -113t66 -39q27 0 47.5 16t33 51t12.5 85q0 74 -26 112.5t-66.5 38.5z" />
    <glyph glyph-name="foursuperior" unicode="&#x2074;" horiz-adv-x="318" 
d="M83 486h97l8 147q1 4 5 4h46v-151h52v-45h-52v-49q0 -7 7 -8l39 -3v-38h-167v34q0 4 4 4l43 4q7 1 7 8v48h-163v33l115 266h68z" />
    <glyph glyph-name="fivesuperior" unicode="&#x2075;" horiz-adv-x="309" 
d="M268 691h-145l-10 -114q18 7 41 7q59 -2 94 -34.5t35 -88.5q0 -40 -20.5 -69t-52 -42t-68.5 -13q-54 0 -111 28q-4 2 -4 6v80h51l3 -44q0 -5 4 -7q26 -12 52 -12q32 0 52.5 18t20.5 56q0 34 -19 52.5t-52 18.5q-30 0 -53 -18l-45 11l19 214h208v-49z" />
    <glyph glyph-name="sixsuperior" unicode="&#x2076;" horiz-adv-x="332" 
d="M198 746q50 0 93 -28l-19 -46q-42 25 -70 25q-35 1 -59.5 -30t-29.5 -90v-4q28 31 75 29q57 -2 91 -40t32 -96q-2 -57 -38 -93.5t-92 -34.5q-70 2 -109.5 60t-37.5 149q3 94 50 146.5t114 52.5zM179 552q-29 1 -47.5 -15.5t-23.5 -49.5q6 -46 27 -72t49 -27q27 -1 44 20
t18 60t-17.5 61t-49.5 23z" />
    <glyph glyph-name="sevensuperior" unicode="&#x2077;" horiz-adv-x="306" 
d="M298 740v-42q-45 -56 -88 -156q-40 -98 -56 -199h-74q16 105 65 216q29 64 65 118q3 5 0.5 9.5t-8.5 4.5h-114q-9 0 -10 -9l-3 -39h-48v92q0 5 5 5h266z" />
    <glyph glyph-name="eightsuperior" unicode="&#x2078;" horiz-adv-x="349" 
d="M176 746q39 0 70 -14t48 -39t17 -56q0 -63 -59 -91q66 -28 66 -96q0 -49 -39.5 -81t-102.5 -32t-102.5 32t-39.5 81q0 68 66 96q-59 28 -59 91q0 47 37.5 78t97.5 31zM176 697q-30 0 -46.5 -16t-16.5 -46.5t16.5 -46t46.5 -15.5q20 0 34 6.5t21.5 20.5t7.5 34
q0 31 -16.5 47t-46.5 16zM176 521q-33 0 -51.5 -17t-18.5 -49t18.5 -49.5t51.5 -17.5t51.5 17.5t18.5 49.5t-18.5 49t-51.5 17z" />
    <glyph glyph-name="ninesuperior" unicode="&#x2079;" horiz-adv-x="335" 
d="M157 746q70 -2 109.5 -60t36.5 -149q-3 -94 -50 -146.5t-113 -52.5q-49 -1 -94 28l20 46q42 -25 69 -25q35 -1 60 30t29 90l1 4q-28 -31 -75 -29q-29 1 -52.5 11.5t-39 28.5t-24 43t-7.5 53q1 57 37 93.5t93 34.5zM154 696q-27 1 -44 -20t-18.5 -60t17 -61t50.5 -23
q19 -1 33.5 6t24 22t13.5 37q-7 46 -27.5 72t-48.5 27z" />
    <glyph glyph-name="zeroinferior" unicode="&#x2080;" horiz-adv-x="401" 
d="M200.5 253q75.5 0 121 -57t45.5 -148q0 -59 -20 -105t-58 -72.5t-89 -26.5q-75 0 -120.5 57t-45.5 147q0 91 45.5 148t121 57zM200.5 200q-40.5 0 -66.5 -39t-26 -113q0 -73 26 -112t66.5 -39t66.5 39t26 112q0 74 -26 113t-66.5 39z" />
    <glyph glyph-name="oneinferior" unicode="&#x2081;" horiz-adv-x="256" 
d="M174 247v-345q0 -7 7 -7l39 -4v-41h-175v37q0 5 4 5l45 3q7 0 7 8v260q0 5 -3.5 6.5t-6.5 -0.5l-43 -30l-22 46l90 62h58z" />
    <glyph glyph-name="twoinferior" unicode="&#x2082;" horiz-adv-x="316" 
d="M162 254q32 0 59 -11t42 -31q50 -72 -49 -205q-31 -42 -95 -108h115q8 0 8 7l3 39h42v-95h-260v36l1 3q86 85 129 147q69 96 46 143q-13 25 -46 25q-48 0 -61 -45l-66 8q9 40 47.5 63t84.5 24z" />
    <glyph glyph-name="threeinferior" unicode="&#x2083;" horiz-adv-x="322" 
d="M152 253q52 0 90.5 -28t38.5 -76q0 -30 -16.5 -53t-47.5 -36q34 -13 52.5 -38.5t18.5 -60.5q0 -56 -43 -86.5t-101 -30.5q-67 0 -118 34l20 40q46 -23 89 -23q79 0 79 70q0 33 -18.5 50.5t-52.5 17.5h-47v49h47q32 0 49.5 15.5t17.5 45.5t-18 45.5t-47 15.5
q-28 0 -50 -13q-4 -2 -5 -7l-3 -49h-46v79q0 3 3 5q44 33 108 34z" />
    <glyph glyph-name="fourinferior" unicode="&#x2084;" horiz-adv-x="336" 
d="M100 -7h97l9 147q0 5 5 5h45v-152h52v-45h-52v-48q0 -8 7 -8l39 -3v-39h-167v34q0 5 5 5l42 3q7 0 7 8v48h-163v33l116 266h68z" />
    <glyph glyph-name="fiveinferior" unicode="&#x2085;" horiz-adv-x="315" 
d="M274 198h-145l-10 -114q18 7 40 7q60 -2 95 -34.5t35 -88.5q0 -60 -41.5 -92t-100.5 -32q-53 0 -110 28q-4 2 -4 6v80h50l4 -44q0 -4 4 -7q26 -12 52 -12q32 0 52 18t20 55q0 35 -18.5 53.5t-52.5 18.5q-29 0 -52 -18l-45 11l19 214h208v-49z" />
    <glyph glyph-name="sixinferior" unicode="&#x2086;" horiz-adv-x="332" 
d="M198 253q50 0 93 -28l-19 -46q-42 25 -70 25q-35 1 -59.5 -30t-29.5 -89v-5q28 31 75 29q57 -2 91 -40t32 -96q-2 -57 -38 -93t-92 -35q-70 2 -109.5 60.5t-37.5 148.5q3 94 50 147t114 52zM179 59q-29 1 -47.5 -15.5t-23.5 -48.5q6 -46 27 -72.5t49 -27.5q27 -1 44 20
t18 60t-17.5 61t-49.5 23z" />
    <glyph glyph-name="seveninferior" unicode="&#x2087;" horiz-adv-x="306" 
d="M298 247v-42q-45 -56 -88 -156q-40 -96 -56 -199h-74q16 106 65 216q29 64 65 118q3 5 0.5 9.5t-8.5 4.5h-114q-9 0 -10 -9l-3 -39h-48v92q0 5 5 5h266z" />
    <glyph glyph-name="eightinferior" unicode="&#x2088;" horiz-adv-x="352" 
d="M176 253q60 0 97.5 -31t37.5 -78q0 -64 -59 -91q66 -29 66 -96q0 -49 -39.5 -81t-102.5 -32t-102.5 32t-39.5 81q0 68 66 96q-59 27 -59 91q0 47 37.5 78t97.5 31zM176 204q-30 0 -46.5 -16.5t-16.5 -46.5q0 -20 7.5 -34t21.5 -21t34 -7q30 0 46.5 16t16.5 46
q0 20 -7.5 34.5t-21.5 21.5t-34 7zM176 28q-33 0 -51.5 -17t-18.5 -49t18.5 -49.5t51.5 -17.5t51.5 17.5t18.5 49.5t-18.5 49t-51.5 17z" />
    <glyph glyph-name="nineinferior" unicode="&#x2089;" horiz-adv-x="338" 
d="M157 253q70 -2 109.5 -60t36.5 -149q-3 -94 -50 -147t-113 -52q-49 0 -94 28l20 46q43 -25 69 -25q35 -1 59.5 30t29.5 90l1 4q-28 -31 -75 -29q-57 2 -91 40t-32 96q1 57 37 93.5t93 34.5zM154 203q-27 1 -44 -20t-18 -60q-1 -26 7 -45t23.5 -28.5t36.5 -10.5
q29 -1 47.5 15.5t23.5 49.5q-4 23 -11 41.5t-17 31t-22 19.5t-26 7z" />
    <glyph glyph-name="Euro" unicode="&#x20ac;" horiz-adv-x="708" 
d="M644 132l30 -65q-90 -76 -222 -76q-124 0 -210.5 66t-117.5 178h-87v60h75q-3 27 -3 55q0 19 2 38h-74v60h83q27 119 115.5 190t216.5 71q118 0 204 -62q2 -2 2 -5v-136h-56l-6 80q-1 7 -7 10q-62 36 -137 36q-87 0 -148 -48t-84 -136h297v-60h-307q-1 -19 -1 -38
q0 -29 3 -55h251v-60h-238q26 -80 87 -124t145 -43q103 0 187 64z" />
    <glyph glyph-name="trademark" unicode="&#x2122;" horiz-adv-x="954" 
d="M46 700h326q4 0 4 -4v-90h-45l-2 38q-1 8 -8 8h-79v-284q0 -7 7 -7l35 -5v-36h-151v31q0 3 3 3l33 7q7 0 7 7v284h-79q-7 0 -8 -8l-3 -38h-44v90q0 4 4 4zM663 429l103 271h110v-38l-31 -2q-9 -1 -8 -10l39 -289l36 -3v-38h-150v38l40 3q8 1 7 9l-28 219l-100 -269h-45
l-101 270l-31 -228l50 -4v-38h-145v34q0 4 3 4l29 2q6 1 7 7l38 284q1 8 -8 9l-28 2q-3 0 -3 4v34h113z" />
    <glyph glyph-name="uni2155" unicode="&#x2155;" horiz-adv-x="817" 
d="M256 -17h-83l362 734h83zM189 700v-345q0 -8 7 -8l39 -3v-41h-175v36q0 5 4 5l45 4q7 0 7 7v261q0 4 -3.5 6t-6.5 -1l-43 -29l-21 46l89 62h58zM760 348h-145l-10 -114q18 7 40 7q60 -2 95 -34.5t35 -88.5q0 -60 -41.5 -92t-100.5 -32q-53 0 -110 28q-4 2 -4 6v80h51
l3 -44q0 -5 4 -7q25 -12 52 -12q32 0 52.5 18t20.5 56q0 34 -19 52.5t-52 18.5q-30 0 -53 -18l-45 11l19 214h208v-49z" />
    <glyph glyph-name="uni2156" unicode="&#x2156;" horiz-adv-x="877" 
d="M316 -17h-83l362 734h83zM177 706q32 0 59 -11t42 -31q50 -71 -49 -204q-28 -39 -95 -109h115q8 0 8 8l3 39h42v-96h-260v36q0 2 1 3q86 85 129 147q69 96 46 144q-13 24 -46 24q-48 0 -61 -45l-66 8q9 41 47.5 64t84.5 23zM820 348h-145l-10 -114q18 7 40 7
q60 -2 95 -34.5t35 -88.5q0 -60 -41.5 -92t-100.5 -32q-53 0 -110 28q-4 2 -4 6v80h51l3 -44q0 -5 4 -7q25 -12 52 -12q32 0 52.5 18t20.5 56q0 34 -19 52.5t-52 18.5q-30 0 -53 -18l-45 11l19 214h208v-49z" />
    <glyph glyph-name="uni2157" unicode="&#x2157;" horiz-adv-x="840" 
d="M280 -17h-83l361 734h83zM167 706q25 0 48 -7t41 -19.5t29 -33t11 -44.5q0 -29 -16.5 -52.5t-46.5 -36.5q33 -13 51.5 -38.5t18.5 -59.5q0 -57 -43 -87.5t-101 -30.5q-66 0 -117 34l19 40q45 -22 89 -22q79 -1 79 69q0 34 -18.5 51t-52.5 17h-47v49h47q32 0 49.5 15.5
t17.5 45.5t-18 45.5t-47 15.5q-28 0 -50 -13q-4 -2 -4 -7l-4 -49h-46l1 79q0 4 2 5q45 34 108 34zM783 348h-144l-10 -114q18 7 40 7q59 -2 94.5 -34.5t35.5 -88.5q0 -60 -41.5 -92t-100.5 -32q-54 0 -110 28q-4 2 -4 6v80h50l3 -44q1 -5 5 -7q25 -12 51 -12q21 0 37 7
t26 24t10 43q0 34 -19 52.5t-52 18.5q-30 0 -52 -18l-45 11l18 214h208v-49z" />
    <glyph glyph-name="uni2158" unicode="&#x2158;" horiz-adv-x="893" 
d="M332 -17h-83l362 734h83zM115 446h98l8 147q0 4 5 4h45v-151h52v-45h-52v-49q0 -7 7 -8l39 -3v-38h-167v34q0 4 5 4l42 4q7 1 7 8v48h-162v33l115 266h68zM835 348h-144l-10 -114q18 7 40 7q60 -2 95 -34.5t35 -88.5q0 -60 -41.5 -92t-100.5 -32q-53 0 -110 28q-4 2 -4 6
v80h50l4 -44q0 -5 4 -7q25 -12 52 -12q32 0 52 18t20 56q0 34 -19 52.5t-52 18.5q-29 0 -52 -18l-45 11l19 214h207v-49z" />
    </font>
</defs>
</svg>
