<?xml version="1.0" standalone="no"?>
<!DOCTYPE svg PUBLIC "-//W3C//DTD SVG 1.1//EN" "http://www.w3.org/Graphics/SVG/1.1/DTD/svg11.dtd" >
<svg xmlns="http://www.w3.org/2000/svg" xmlns:xlink="http://www.w3.org/1999/xlink" version="1.1">
<metadata>
Created by FontForge 20170731 at Wed Feb 19 12:06:50 2014
 By ,,,
Copyright (c) 2013 by Jonathan Hill. All rights reserved.
</metadata>
<defs>
<font id="Modum-Italic" horiz-adv-x="600" vert-adv-y="1000" >
  <font-face 
    font-family="Modum Italic"
    font-weight="400"
    font-style="italic"
    font-stretch="normal"
    units-per-em="1000"
    panose-1="0 0 5 0 0 0 0 0 0 0"
    ascent="750"
    descent="-250"
    x-height="500"
    cap-height="700"
    bbox="-30 -226 1497 1114"
    underline-thickness="50"
    underline-position="-200"
    unicode-range="U+0020-FE6B"
  />
<missing-glyph horiz-adv-x="500" 
d="M0 0v700h500v-700h-500zM250 395l170 255h-340zM280 350l170 -255v510zM80 50h340l-170 255zM50 605v-510l170 255z" />
    <glyph glyph-name="fi" unicode="fi" horiz-adv-x="766" 
d="M398 750q75 -1 133 -42l-22 -39q-49 32 -103 32q-50 0 -87 -29.5t-45 -84.5l-12 -87h420q8 0 7 -9l-51 -363q-6 -43 10.5 -65.5t54.5 -24.5h7l-5 -38h-20q-62 0 -91 34t-20 96l43 311q2 11 -9 11l-167 9l-186 -10l-61 -433q-28 -196 -142 -198h-12l3 39q28 1 52 44.5
t35 119.5l60 429l-59 3q-7 1 -6 9l5 36h67l13 95q5 38 23 68.5t44 49t57 28t64 9.5z" />
    <glyph glyph-name="fl" unicode="fl" horiz-adv-x="757" 
d="M476 737l241 13q9 0 7 -9l-86 -613q-6 -43 10.5 -65.5t54.5 -24.5h7l-5 -38h-20q-62 0 -91 34t-20 96l78 559q2 11 -9 11l-155 1l-16 -13q-34 13 -66 13q-24 0 -45.5 -7.5t-40 -21t-30.5 -35.5t-16 -50l-12 -87h145l-6 -41l-146 -8l-61 -433q-28 -197 -142 -198h-12l3 39
q28 1 52 44.5t35 119.5l60 429l-59 3q-8 1 -6 9l5 36h67l13 95q11 75 64.5 115t123.5 40q39 -1 78 -13z" />
    <glyph glyph-name="f_f" unicode="ff" horiz-adv-x="832" 
d="M814 750q75 -1 133 -42l-22 -39q-49 32 -103 32q-50 0 -87.5 -29.5t-44.5 -84.5l-13 -87h145l-5 -41l-146 -8l-61 -433q-28 -197 -143 -198h-12l4 39q28 1 52 44.5t34 119.5l61 429l-168 9l-183 -10l-61 -433q-28 -197 -142 -198h-12l3 39q28 1 52 44.5t35 119.5l60 429
l-59 3q-7 1 -6 9l5 36h67l13 95q5 38 23 68.5t44 49t57 28t64 9.5q75 -1 133 -42l-22 -39q-49 32 -103 32q-50 0 -87 -29.5t-45 -84.5l-12 -87h350l14 95q10 75 63.5 115t124.5 40z" />
    <glyph glyph-name="f_f_i" unicode="ffi" horiz-adv-x="1181" 
d="M814 750q75 -1 133 -42l-22 -39q-49 32 -103 32q-50 0 -87.5 -29.5t-44.5 -84.5l-13 -87h421q8 0 7 -9l-51 -363q-12 -87 65 -90h7l-5 -38h-20q-63 0 -91.5 34t-20.5 96l44 311q2 11 -9 11l-167 9l-186 -10l-61 -433q-28 -196 -143 -198h-12l4 39q28 1 52 44.5t34 119.5
l61 429l-168 9l-183 -10l-61 -433q-28 -196 -142 -198h-12l3 39q28 1 52 44.5t35 119.5l60 429l-59 3q-7 1 -6 9l5 36h67l13 95q5 38 23 68.5t44 49t57 28t64 9.5q75 -1 133 -42l-22 -39q-49 32 -103 32q-50 0 -87 -29.5t-45 -84.5l-12 -87h350l14 95q10 75 63.5 115
t124.5 40z" />
    <glyph glyph-name="f_f_l" unicode="ffl" horiz-adv-x="1173" 
d="M891 736l242 14q8 0 7 -9l-86 -613q-4 -28 2 -48t22 -30.5t41 -11.5h7l-5 -38h-20q-63 0 -91.5 34t-20.5 96l79 559q1 11 -9 11l-155 1l-16 -13q-34 13 -66 13q-50 0 -87.5 -29.5t-44.5 -84.5l-13 -87h145l-5 -41l-146 -8l-61 -433q-28 -197 -143 -198h-12l4 39
q18 0 35 19t30.5 56.5t20.5 88.5l61 429l-168 9l-183 -10l-61 -433q-28 -197 -142 -198h-12l3 39q28 1 52 44.5t35 119.5l60 429l-59 3q-7 1 -6 9l5 36h67l13 95q11 75 64.5 115t123.5 40q75 -1 133 -42l-22 -39q-49 32 -103 32q-50 0 -87 -29.5t-45 -84.5l-12 -87h350
l14 95q10 75 63.5 115t124.5 40q39 -1 77 -14z" />
    <glyph glyph-name=".notdef" horiz-adv-x="500" 
d="M0 0v700h500v-700h-500zM250 395l170 255h-340zM280 350l170 -255v510zM80 50h340l-170 255zM50 605v-510l170 255z" />
    <glyph glyph-name=".null" horiz-adv-x="0" vert-adv-y="0" 
 />
    <glyph glyph-name="nonmarkingreturn" horiz-adv-x="333" 
 />
    <glyph glyph-name="space" unicode=" " horiz-adv-x="300" 
 />
    <glyph glyph-name="exclam" unicode="!" horiz-adv-x="171" 
d="M144 211h-58l62 489h72zM93 75q18 0 29 -13.5t8 -31.5q-2 -15 -14 -25.5t-28 -10.5q-18 0 -29 13t-9 31q3 15 15 26t28 11z" />
    <glyph glyph-name="quotedbl" unicode="&#x22;" horiz-adv-x="287" 
d="M171 492h-53l27 227h63zM307 492h-53l27 227h63z" />
    <glyph glyph-name="numbersign" unicode="#" horiz-adv-x="666" 
d="M570 517h125l-15 -53h-124l-56 -199h125l-15 -53h-124l-59 -212h-67l59 212h-157l-59 -212h-67l59 212h-121l14 53h121l56 199h-121l14 53h121l46 163h67l-46 -163h157l46 163h67zM332 464l-56 -199h157l56 199h-157z" />
    <glyph glyph-name="dollar" unicode="$" horiz-adv-x="557" 
d="M433 774l-13 -80q82 -3 134 -39q4 -1 3 -5l-17 -125h-43l6 88q0 6 -5 8q-39 18 -94 18q-78 0 -129 -31t-58 -81q-4 -31 2.5 -49.5t34 -40t90.5 -55.5q118 -60 152.5 -101t26.5 -104q-10 -68 -63 -114.5t-134 -63.5l-14 -92h-62l13 86q-21 -1 -42 0q-93 3 -153 40
q-4 1 -3 5l17 125h43l-6 -85q0 -6 5 -8q54 -22 123 -22q81 0 136.5 36t63.5 94q6 41 -17.5 68t-106.5 72q-53 29 -86 49.5t-55.5 40.5t-30.5 37.5t-11 39.5t2 46q9 64 69 107.5t147 52.5l14 83h61z" />
    <glyph glyph-name="percent" unicode="%" horiz-adv-x="901" 
d="M297 -17h-65l464 734h65zM302 706q74 0 111 -58t24 -152q-13 -91 -64 -146.5t-123 -55.5q-74 0 -111 58t-24 152q13 91 64 146.5t123 55.5zM300 665q-46 0 -81.5 -43.5t-46.5 -122.5q-11 -78 12 -120.5t68 -42.5q46 0 82 43.5t47 121.5t-12.5 121t-68.5 43zM749 406
q74 0 111 -58t24 -152q-13 -91 -64 -146.5t-123 -55.5q-75 0 -111.5 58t-23.5 152q13 91 63.5 146.5t123.5 55.5zM747 364q-46 0 -81.5 -43.5t-46.5 -121.5t12 -121t68 -43q46 0 82 43.5t47 122.5q11 78 -12.5 120.5t-68.5 42.5z" />
    <glyph glyph-name="ampersand" unicode="&#x26;" horiz-adv-x="669" 
d="M366 710q44 0 80 -10.5t61.5 -33t33 -56.5t-3.5 -82q-12 -40 -48.5 -74.5t-142.5 -100.5l-9 -5l166 -181q12 25 18 51l19 126h54l-23 -161q-5 -38 -24 -69l82 -88l-49 -48l-80 87q-35 -35 -86.5 -54.5t-112.5 -19.5q-119 0 -182 44.5t-52 126.5q8 53 41.5 93t130.5 102
l-53 59q-44 48 -33 123q11 77 69 124t144 47zM362 655q-58 0 -95.5 -32t-45.5 -87q-7 -51 18 -80l59 -64l6 4q97 59 126 85t38 59q11 40 -0.5 66.5t-38.5 37.5t-67 11zM458 117l-177 196q-85 -53 -112.5 -83.5t-33.5 -74.5q-8 -56 33 -84t129 -28q53 0 95 19.5t66 54.5z" />
    <glyph glyph-name="quotesingle" unicode="'" horiz-adv-x="151" 
d="M171 492h-53l27 227h63z" />
    <glyph glyph-name="parenleft" unicode="(" horiz-adv-x="347" 
d="M384 735l31 -44q-98 -61 -164 -159q-75 -109 -96 -260q-23 -162 31 -274q36 -79 111 -138l-38 -41q-85 58 -132 155q-68 131 -43 306q23 165 114 290q75 103 186 165z" />
    <glyph glyph-name="parenright" unicode=")" horiz-adv-x="347" 
d="M128 693l38 40q95 -62 141 -171q57 -128 34 -290q-26 -182 -134 -316q-71 -84 -167 -138l-30 44q85 55 145 136q91 115 115 283q20 146 -21 253q-37 96 -121 159z" />
    <glyph glyph-name="asterisk" unicode="*" horiz-adv-x="422" 
d="M330 567l67 -104l-51 -34l-59 109l-89 -109l-43 34l95 104l-121 37l25 55l118 -45l15 132h58l-23 -132l129 45l11 -55z" />
    <glyph glyph-name="plus" unicode="+" horiz-adv-x="508" 
d="M327 319h182l-8 -57h-182l-25 -181h-57l26 181h-182l8 57h182l25 181h57z" />
    <glyph glyph-name="comma" unicode="," horiz-adv-x="169" 
d="M84 75q32 0 40.5 -32.5t-8.5 -76.5q-27 -72 -82 -125l-27 20q36 45 52 91q12 31 7 46h-2q-12 4 -18.5 15t-4.5 25q2 15 14.5 25.5t28.5 11.5z" />
    <glyph glyph-name="hyphen" unicode="-" horiz-adv-x="421" 
d="M408 221h-333l8 56h333z" />
    <glyph glyph-name="period" unicode="." horiz-adv-x="170" 
d="M92 75q18 0 29 -13.5t8 -31.5q-1 -7 -4.5 -13.5t-9 -11.5t-13 -8t-15.5 -3q-18 0 -29 13t-8 31q2 15 14 26t28 11z" />
    <glyph glyph-name="slash" unicode="/" horiz-adv-x="404" 
d="M84 -118h-75l399 860h75z" />
    <glyph glyph-name="zero" unicode="0" horiz-adv-x="628" 
d="M408 690q124 0 184.5 -97.5t38.5 -256.5q-22 -156 -108 -251t-207 -95q-124 0 -185 97.5t-38 256.5q14 103 57.5 181.5t110.5 121.5t147 43zM406 633q-88 0 -155 -78.5t-87 -218.5q-19 -137 24 -213t130 -76q28 0 55.5 8.5t52 25.5t46 42.5t39 58t30 74t19.5 88.5
q19 137 -24.5 213t-129.5 76z" />
    <glyph glyph-name="one" unicode="1" horiz-adv-x="351" 
d="M327 680l-87 -620q-1 -10 9 -11l70 -5l-7 -44h-245l5 40q1 4 5 4l77 7q13 1 15 14l75 531q0 4 -3 5t-8 -2l-101 -61l-17 46l149 95l2 1h61z" />
    <glyph glyph-name="two" unicode="2" horiz-adv-x="490" 
d="M343 691q53 0 93 -19t57 -53q65 -123 -135 -353q-61 -68 -223 -214l254 1q13 0 16 13l17 76h43l-21 -142h-408l6 45q1 1 2 4q167 145 259 255q171 197 130 286q-22 48 -96 47q-47 0 -89.5 -23.5t-61.5 -65.5l-62 12q26 63 88.5 97t130.5 34z" />
    <glyph glyph-name="three" unicode="3" horiz-adv-x="493" 
d="M328 690q86 0 139.5 -46.5t41.5 -129.5q-8 -55 -45.5 -94.5t-98.5 -58.5q60 -18 89.5 -64.5t19.5 -113.5q-9 -65 -49 -110t-92 -64t-112 -19q-103 0 -180 52l26 42q64 -39 146 -39q74 0 127 37t64 113q6 44 -8.5 75t-47 47.5t-80.5 16.5h-66l7 52h64q68 0 113 34.5
t54 94.5q8 60 -27 91.5t-94 30.5q-67 0 -125 -39q-4 -2 -5 -7l-19 -85h-40l19 129q0 2 2 4q83 51 177 51z" />
    <glyph glyph-name="four" unicode="4" horiz-adv-x="525" 
d="M139 218h216l48 278q1 4 6 4h48l-39 -282h95l-8 -53h-95l-14 -105q-2 -10 8 -11l70 -5l-6 -44h-235l5 40q1 4 5 4l74 6q13 1 15 15l14 100h-290l6 44l277 471h72z" />
    <glyph glyph-name="five" unicode="5" horiz-adv-x="487" 
d="M514 627h-262l-58 -248q41 20 93 20q66 0 112.5 -25.5t67 -72.5t12.5 -109q-10 -68 -48 -115t-89 -67t-112 -20q-96 0 -175 47q-4 1 -3 5l17 122h43l-6 -87q-1 -6 5 -8q55 -24 113 -24q71 0 121.5 39t61.5 117q10 68 -25.5 106t-107.5 38q-65 0 -114 -34l-42 15l80 354
h323z" />
    <glyph glyph-name="six" unicode="6" horiz-adv-x="519" 
d="M404 690q70 -1 134 -41l-25 -45q-53 32 -105 33q-78 1 -142 -66.5t-89 -189.5l-9 -35q30 42 75.5 64.5t99.5 20.5q90 -4 138 -67t31 -164q-17 -97 -80 -154.5t-150 -54.5q-113 3 -164 102.5t-24 258.5q28 162 115 250.5t195 87.5zM330 377q-64 2 -111.5 -34.5
t-66.5 -102.5q0 -90 36 -142t98 -54q61 -1 106 43.5t59 122.5q6 39 0.5 69t-21 51.5t-41 33.5t-59.5 13z" />
    <glyph glyph-name="seven" unicode="7" horiz-adv-x="489" 
d="M557 680l-6 -51q-101 -108 -204 -292q-95 -169 -151 -338l-73 1q58 181 161 360q81 138 176 255q3 4 1.5 8t-7.5 4h-273q-13 0 -16 -13l-16 -74h-40l19 135q1 5 5 5h424z" />
    <glyph glyph-name="eight" unicode="8" horiz-adv-x="540" 
d="M364 690q97 0 149.5 -51t41.5 -134q-6 -38 -24 -69.5t-47 -54t-68 -35.5q57 -18 85 -63t19 -109q-12 -82 -80 -133t-168 -51q-103 0 -158.5 53.5t-43.5 138.5q6 41 25.5 74.5t51.5 57t75 36.5q-52 18 -77 61t-17 102q11 80 75.5 128.5t160.5 48.5zM363 638
q-68 0 -112.5 -36.5t-53.5 -98.5q-8 -59 24.5 -92.5t98.5 -33.5q67 0 111.5 36t53.5 98q8 59 -24.5 93t-97.5 34zM318 321q-73 0 -121 -37.5t-57 -103.5q-9 -63 27 -99t106 -36q73 0 121 38.5t57 104.5q9 63 -26.5 98t-106.5 35z" />
    <glyph glyph-name="nine" unicode="9" horiz-adv-x="519" 
d="M333 689q114 -3 164.5 -102t23.5 -259q-28 -161 -115 -250t-195 -87q-69 0 -134 40l25 45q54 -32 105 -33q80 -1 144.5 67.5t87.5 189.5q4 14 8 34q-30 -42 -75 -64t-99 -20q-93 3 -140 66.5t-30 163.5q17 97 80 154.5t150 54.5zM329 636q-61 2 -106 -42.5t-58 -123.5
q-14 -76 19 -120.5t101 -46.5q64 -2 111.5 34.5t66.5 103.5q0 59 -16.5 103t-46.5 67.5t-71 24.5z" />
    <glyph glyph-name="colon" unicode=":" horiz-adv-x="170" 
d="M150 483q18 0 28.5 -13t8.5 -31q-2 -15 -14.5 -26t-27.5 -11q-19 0 -29.5 13.5t-8.5 31.5q2 15 14.5 25.5t28.5 10.5zM92 75q18 0 29 -13.5t8 -31.5q-1 -7 -4.5 -13.5t-9 -11.5t-13 -8t-15.5 -3q-18 0 -29 13t-8 31q2 15 14 26t28 11z" />
    <glyph glyph-name="semicolon" unicode=";" horiz-adv-x="169" 
d="M141 483q18 0 29 -13t8 -31q-2 -15 -14 -26t-28 -11q-18 0 -29 13.5t-8 31.5q2 15 14 25.5t28 10.5zM84 75q32 0 40.5 -32.5t-8.5 -76.5q-27 -72 -82 -125l-27 20q36 45 51 89q14 33 9 48h-3q-11 4 -18 15t-5 25q2 15 14.5 25.5t28.5 11.5z" />
    <glyph glyph-name="less" unicode="&#x3c;" horiz-adv-x="594" 
d="M622 516l-460 -172l411 -171l-8 -64l-477 201l9 68l533 201z" />
    <glyph glyph-name="equal" unicode="=" horiz-adv-x="553" 
d="M560 368h-464l8 57h464zM529 149h-464l8 57h464z" />
    <glyph glyph-name="greater" unicode="&#x3e;" horiz-adv-x="594" 
d="M602 378l-9 -68l-533 -201l8 64l460 171l-411 172l9 63z" />
    <glyph glyph-name="question" unicode="?" horiz-adv-x="442" 
d="M292 710q93 0 143.5 -42t40.5 -112q-8 -57 -42 -90t-140 -87q-81 -41 -105.5 -62.5t-30.5 -56.5l-8 -49h-62l7 63q5 47 35.5 78t120.5 75q33 16 55 27.5t39.5 22.5t27 19.5t16.5 19.5t10 21.5t5 25.5q6 42 -25 66.5t-91 24.5q-55 0 -95 -19q-11 -3 -12 -12l-19 -82h-40
l19 127q0 3 2 5q65 37 149 37zM96 75q18 0 29 -13.5t9 -31.5q-2 -9 -8 -17.5t-15 -13.5t-20 -5q-18 0 -29 13t-8 31q2 15 14 26t28 11z" />
    <glyph glyph-name="at" unicode="@" horiz-adv-x="949" 
d="M571 713q130 0 221.5 -56t130 -154.5t21.5 -223.5q-14 -97 -80.5 -153.5t-157.5 -57.5h-107q-3 0 -5 2.5t-2 5.5l4 35q-56 -51 -135 -51q-83 0 -126.5 57t-30.5 154q13 91 74.5 145.5t147.5 54.5q101 0 161 -75l-35 -262l60 -3q61 1 105 42.5t54 113.5q24 164 -57 263.5
t-245 99.5q-169 0 -279 -105t-135 -278q-24 -176 57.5 -277t242.5 -101q65 0 120 16l17 -60q-64 -19 -139 -19q-130 0 -221 58t-129 159.5t-20 231.5q13 94 54 174.5t103 139t147.5 91.5t183.5 33zM527 426q-61 0 -104 -44t-53 -119q-11 -73 19.5 -114.5t89.5 -41.5
q66 0 109 50l34 220q-31 49 -95 49z" />
    <glyph glyph-name="A" unicode="A" horiz-adv-x="771" 
d="M694 49l57 -5l-6 -44h-229l5 39q1 4 5 5l69 5q8 1 14 7t3 15l-39 140h-330l-88 -160l87 -7l-7 -44h-209l5 40q1 4 5 5l46 3q7 1 12 9l353 641l68 3zM272 268h288l-94 352z" />
    <glyph glyph-name="B" unicode="B" horiz-adv-x="658" 
d="M169 700h302q96 0 148 -50t41 -130q-7 -52 -39.5 -90.5t-84.5 -58.5q62 -18 93 -65.5t22 -114.5q-13 -86 -83.5 -138.5t-176.5 -52.5h-320l5 40q1 4 5 4l63 6q4 0 7.5 2t5.5 5.5t3 6.5l81 576q1 10 -9 11l-62 5q-2 0 -4 3t-2 5zM376 643l-64 -5l-34 -242h152
q66 0 109 33.5t51 91.5q8 57 -25 89.5t-99 32.5h-90zM270 339l-39 -277l63 -5h102q76 0 125 38t58 104q10 65 -28.5 102.5t-114.5 37.5h-166z" />
    <glyph glyph-name="C" unicode="C" horiz-adv-x="649" 
d="M489 709q118 0 195 -65q3 -1 3 -4l-18 -124h-43l6 88q1 5 -1 10q-62 38 -144 38q-121 0 -206 -82.5t-105 -223.5q-20 -139 41.5 -219t181.5 -80q109 1 203 69l22 -50q-99 -75 -230 -75q-154 0 -234 100.5t-57 262.5q22 158 128 256.5t258 98.5z" />
    <glyph glyph-name="D" unicode="D" horiz-adv-x="754" 
d="M166 700h294q154 0 234 -97t57 -257q-22 -158 -127.5 -252t-258.5 -94h-298l6 40q0 4 5 4l63 6q5 0 9.5 4.5t5.5 9.5l81 576q2 10 -8 11l-62 5q-3 0 -5 3t-1 5zM373 643l-65 -5l-81 -576l64 -5h79q121 0 204.5 78.5t103.5 218.5q19 137 -41 213t-182 76h-82z" />
    <glyph glyph-name="E" unicode="E" horiz-adv-x="584" 
d="M166 700h455q8 0 7 -9l-20 -137h-42l5 79q1 10 -10 10h-252l-37 -260h230l-8 -54h-229l-38 -272h267q5 0 10 4t6 10l17 75h43l-20 -141q-1 -5 -6 -5h-477l6 40q0 4 5 4l63 6q5 0 9.5 4.5t5.5 9.5l81 576q2 10 -8 11l-62 5q-7 1 -6 8z" />
    <glyph glyph-name="F" unicode="F" horiz-adv-x="558" 
d="M166 700h448q8 0 7 -9l-20 -137h-42l5 79q1 10 -10 10h-245l-38 -273h210l-7 -54h-211l-37 -265l89 -7l-6 -44h-242l6 40q1 4 5 4l63 6q5 0 10 4.5t5 9.5l81 576q2 10 -8 11l-62 5q-3 0 -5 3t-1 5z" />
    <glyph glyph-name="G" unicode="G" horiz-adv-x="705" 
d="M488 709q116 0 218 -62q4 -2 3 -6l-17 -124h-43l6 85q0 6 -2 10q-84 40 -166 40q-116 0 -203.5 -80t-107.5 -226q-19 -138 40.5 -218.5t179.5 -80.5q114 0 197 75l22 146q1 10 -9 11l-164 8l6 46h232q2 0 4.5 -3t1.5 -6l-45 -324h-45l4 59q-93 -68 -216 -68
q-149 0 -226.5 100.5t-54.5 262.5q12 85 48 153.5t88.5 112t116 66.5t132.5 23z" />
    <glyph glyph-name="H" unicode="H" horiz-adv-x="858" 
d="M883 656l-67 -6q-14 -1 -16 -14l-81 -576q-1 -10 9 -11l69 -5l-6 -44h-241l5 40q1 4 5 4l73 7q14 1 16 14l37 264h-421l-38 -268q-1 -10 9 -11l78 -6l-6 -44h-241l6 40q0 4 5 4l63 6q13 1 15 14l81 576q2 10 -8 11l-62 5q-7 1 -6 8l5 36h241l-6 -44l-78 -7
q-13 -1 -15 -14l-35 -249h421l35 253q2 10 -8 11l-72 6q-7 1 -6 8l5 36h241z" />
    <glyph glyph-name="I" unicode="I" horiz-adv-x="368" 
d="M393 656l-69 -6q-13 -1 -15 -14l-81 -576q-1 -10 9 -11l70 -5l-6 -44h-234l6 40q0 4 5 4l64 6q5 0 10 4.5t5 9.5l81 576q2 10 -8 11l-63 5q-7 1 -6 8l5 36h233z" />
    <glyph glyph-name="J" unicode="J" horiz-adv-x="375" 
d="M400 656l-66 -5q-14 -2 -16 -15l-84 -601q-13 -91 -70.5 -154.5t-148.5 -86.5l-14 41q64 22 107.5 76t53.5 128l84 600q2 10 -8 11l-71 6q-8 1 -7 8l5 36h241z" />
    <glyph glyph-name="K" unicode="K" horiz-adv-x="746" 
d="M793 656l-73 -6l-284 -265l204 -331q2 -3 7 -4l72 -6q8 -1 7 -8l-5 -36h-135l-203 333l-135 -125l-21 -147q-1 -10 9 -11l78 -6l-6 -44h-241l6 40q0 4 5 4l63 6q13 1 15 14l81 576q2 10 -8 11l-62 5q-7 1 -6 8l5 36h239l-6 -44l-76 -6q-13 -2 -15 -15l-50 -351l360 341
q8 8 8 16.5t-10 10.5l-45 4q-7 2 -6 8l5 36h229z" />
    <glyph glyph-name="L" unicode="L" horiz-adv-x="570" 
d="M401 656l-78 -7q-13 -1 -15 -14l-81 -578h255q4 0 7.5 2t6 5t2.5 7l17 75h43l-20 -141q-1 -5 -6 -5h-465l6 40q0 4 5 4l63 6q5 0 9.5 4.5t5.5 9.5l81 576q2 10 -8 11l-62 5q-3 0 -5 3t-1 5l5 36h241z" />
    <glyph glyph-name="M" unicode="M" horiz-adv-x="1027" 
d="M984 656l-63 -5q-7 -1 -11.5 -6t-4.5 -11l-3 -585l66 -5l-6 -44h-236l6 44l83 7q16 2 16 17l6 521l-303 -588l-46 -1l-140 591l-149 -539l97 -8l-6 -44h-229l5 40q1 4 5 4l56 5q5 0 9 4t5 8l159 577q3 12 -8 13l-57 5q-3 0 -5 3t-1 5l5 36h161l138 -580l300 580h157z" />
    <glyph glyph-name="N" unicode="N" horiz-adv-x="848" 
d="M878 656l-68 -6q-13 -1 -15 -14l-90 -636h-65l-349 582l-74 -521q-1 -10 9 -11l75 -6l-6 -44h-233l6 40q0 4 5 4l63 6q14 1 16 14l80 576q2 10 -8 11l-62 5q-2 0 -3.5 1.5t-2.5 3t0 3.5l5 36h141l352 -588l75 527q1 10 -9 11l-68 6q-2 0 -4 3t-2 5l5 36h233z" />
    <glyph glyph-name="O" unicode="O" horiz-adv-x="781" 
d="M487 709q154 0 234 -101t57 -262q-22 -159 -128 -257t-258 -98q-153 0 -233 100.5t-58 262.5q23 158 129 256.5t257 98.5zM485 652q-121 0 -206 -82.5t-105 -223.5q-19 -138 41 -218.5t179 -80.5q80 0 146 37t109 107t56 163q13 91 -10 159t-77 103.5t-133 35.5z" />
    <glyph glyph-name="P" unicode="P" horiz-adv-x="635" 
d="M166 700h301q96 0 147.5 -54.5t39.5 -142.5q-12 -85 -77 -136.5t-161 -51.5h-153l-36 -254q-1 -10 9 -11l78 -6l-6 -44h-241l6 40q0 4 5 4l63 6q5 0 9.5 4.5t5.5 9.5l81 576q2 10 -8 11l-62 5q-3 0 -5 3t-1 5zM375 643l-67 -5l-37 -266h148q68 0 112.5 36.5t53.5 99.5
t-25 99t-102 36h-83z" />
    <glyph glyph-name="Q" unicode="Q" horiz-adv-x="787" 
d="M791 -82l15 -52q-37 -15 -70.5 -16t-64.5 12t-51 26t-50 37q-77 57 -109 72q-34 -6 -69 -6q-153 0 -233 100.5t-58 262.5q23 158 129 256.5t257 98.5q154 0 234 -101t57 -262q-11 -78 -43.5 -143t-82.5 -112t-114 -73q24 -16 58 -46q24 -19 35.5 -27.5t33.5 -20.5
t38.5 -15.5t39.5 -2t48 11.5zM174 346q-12 -91 10.5 -159t77 -104t132.5 -36q122 0 206.5 83t104.5 224q13 91 -10 159t-77 103.5t-133 35.5q-121 0 -206 -82.5t-105 -223.5z" />
    <glyph glyph-name="R" unicode="R" horiz-adv-x="686" 
d="M166 700h301q96 0 148 -53t40 -138q-11 -73 -64 -120t-134 -55l-5 -1l130 -280q2 -3 8 -4l69 -5l-6 -44h-122q-5 0 -5 5l-141 321h-121l-37 -265q-1 -10 9 -11l78 -6l-6 -44h-241l6 40q0 4 5 4l63 6q13 1 15 14l81 576q1 10 -9 11l-61 5q-3 0 -5 3t-1 5zM374 643l-66 -5
l-36 -255h154q43 0 77 16t55.5 45.5t27.5 69.5q8 60 -25 94.5t-98 34.5h-89z" />
    <glyph glyph-name="S" unicode="S" horiz-adv-x="567" 
d="M412 711q94 0 153 -41q3 -1 3 -5l-18 -125h-42l5 87q1 7 -5 9q-40 18 -97 18q-79 1 -131.5 -31.5t-59.5 -82.5q-2 -23 -1.5 -39t15 -32.5t41 -34t75.5 -43.5q83 -43 123 -74.5t53 -61.5t7 -74q-13 -88 -92.5 -139t-192.5 -51q-109 0 -180 42q-4 2 -3 6l17 124h43l-5 -84
q-1 -6 4 -8q55 -24 126 -24q86 0 142.5 37t64.5 98q6 43 -17 70t-111 74q-46 25 -76 43t-53 36t-34 32t-18 31.5t-6 34.5t3 41q11 75 86 120.5t181 46.5z" />
    <glyph glyph-name="T" unicode="T" horiz-adv-x="644" 
d="M129 700h580q8 0 7 -9l-20 -136h-42l5 80q1 10 -10 10h-201l-82 -585q-1 -10 9 -11l70 -5l-6 -44h-234l6 40q0 4 5 4l64 6q5 0 10 4.5t5 9.5l82 581h-197q-14 0 -17 -14l-16 -76h-43l20 140q0 5 5 5z" />
    <glyph glyph-name="U" unicode="U" horiz-adv-x="831" 
d="M861 656l-68 -6q-14 -1 -16 -15l-51 -365q-18 -127 -101.5 -203.5t-204.5 -76.5q-123 0 -186.5 78.5t-45.5 205.5l51 365q1 10 -9 11l-63 5q-3 1 -5 3.5t-1 5.5l5 35h242l-6 -43l-76 -7q-14 -1 -15 -15l-52 -364q-9 -70 8.5 -121t58 -76.5t99.5 -25.5q94 0 161 61t82 166
l51 364q1 10 -8 11l-83 7l6 43h233z" />
    <glyph glyph-name="V" unicode="V" horiz-adv-x="727" 
d="M794 656l-54 -5l-346 -650l-59 -1l-163 647q-1 5 -7 5l-40 4q-7 0 -6 8l5 36h113l146 -605l283 538q8 16 -8 18l-71 6q-7 0 -6 8l5 35h214z" />
    <glyph glyph-name="W" unicode="W" horiz-adv-x="1112" 
d="M1179 656l-62 -5l-288 -650l-58 -1l-134 590l-300 -589l-60 -1l-102 646q-1 5 -8 6l-42 4q-7 0 -6 8l5 36h121l84 -595l266 528q8 16 -7 18l-68 6q-7 0 -6 8l5 35h173l124 -595l230 529q7 15 -7 17l-71 6q-7 0 -6 8l5 35h218z" />
    <glyph glyph-name="X" unicode="X" horiz-adv-x="677" 
d="M738 656l-67 -6l-239 -298l158 -299q2 -4 7 -4l60 -5l-6 -44h-106q-3 0 -4 3l-165 303l-201 -256l81 -7l-6 -43h-222l6 40q0 4 4 5l56 4q6 1 11 7l238 295l-159 297q-2 3 -7 4l-48 4q-7 0 -6 8l5 36h108l162 -305l186 234q6 8 4.5 15t-11.5 8l-59 5q-7 0 -6 8l5 35h227z
" />
    <glyph glyph-name="Y" unicode="Y" horiz-adv-x="689" 
d="M755 656l-52 -4l-282 -403l-27 -189q-2 -10 8 -11l70 -5l-6 -44h-233l6 40q0 4 4 4l65 6q13 1 15 14l25 178l-171 406q-2 3 -8 4l-44 4q-7 0 -6 8l5 36h107l166 -390l224 320q6 8 4 14t-10 7l-68 6q-7 0 -6 8l5 35h215z" />
    <glyph glyph-name="Z" unicode="Z" horiz-adv-x="587" 
d="M642 658l-503 -602h359q13 0 16 14l16 72h43l-19 -138q-1 -4 -6 -4h-514l6 41l504 602h-332q-13 0 -16 -14l-15 -69h-43l19 135q0 5 5 5h486z" />
    <glyph glyph-name="bracketleft" unicode="[" horiz-adv-x="280" 
d="M209 665l-104 -744h134l-7 -52h-206l119 848h206l-7 -52h-135z" />
    <glyph glyph-name="backslash" unicode="\" horiz-adv-x="404" 
d="M362 -118h-74l-157 860h73z" />
    <glyph glyph-name="bracketright" unicode="]" horiz-adv-x="280" 
d="M337 717l-119 -848h-206l7 52h134l105 744h-134l7 52h206z" />
    <glyph glyph-name="asciicircum" unicode="^" horiz-adv-x="515" 
d="M525 394h-67l-108 259l-182 -259h-69l219 306h74z" />
    <glyph glyph-name="underscore" unicode="_" horiz-adv-x="601" 
d="M542 -103h-512l7 52h513z" />
    <glyph glyph-name="grave" unicode="`" horiz-adv-x="271" 
d="M307 572h-59l-102 149h79z" />
    <glyph glyph-name="a" unicode="a" horiz-adv-x="627" 
d="M369 510q88 1 180 -45q4 -1 3 -6l-47 -339q-11 -80 63 -82h4l-6 -38h-35q-47 0 -70.5 22t-20.5 63l2 17q-29 -36 -63.5 -61t-69.5 -38t-69 -13q-82 0 -127 68.5t-27 196.5q17 121 95 187.5t188 67.5zM374 462q-87 -1 -147.5 -56t-75.5 -159q-14 -99 18.5 -152t92.5 -53
q44 1 92.5 31.5t90.5 88.5l41 277q-55 23 -112 23z" />
    <glyph glyph-name="b" unicode="b" horiz-adv-x="612" 
d="M158 719l130 7q9 1 7 -8l-45 -315q44 53 94 80t98 27q79 0 125.5 -69t29.5 -188q-8 -56 -27 -100t-45.5 -74.5t-62 -50.5t-74 -29t-82.5 -9q-84 0 -172 34l89 641q1 11 -9 11l-61 3zM420 457q-43 0 -90 -30.5t-87 -90.5l-42 -276q54 -22 111 -22q84 0 144 54t75 162
q7 50 1 88t-22 63.5t-39 38.5t-51 13z" />
    <glyph glyph-name="c" unicode="c" horiz-adv-x="500" 
d="M369 510q84 0 140 -44q3 -2 2 -5l-16 -117h-42l5 88q0 6 -4 8q-36 22 -86 22q-84 0 -143.5 -58.5t-73.5 -157.5q-14 -97 28 -152.5t124 -55.5q72 0 140 45l18 -46q-69 -47 -159 -47q-114 0 -173.5 73.5t-42.5 190.5q16 114 93.5 185t189.5 71z" />
    <glyph glyph-name="d" unicode="d" horiz-adv-x="621" 
d="M449 743l130 7q9 0 7 -9l-89 -637q-9 -64 65 -66h4l-5 -38h-36q-48 0 -72 18.5t-21 52.5q-25 -26 -54 -44.5t-59.5 -27.5t-60.5 -9q-89 0 -139.5 69t-32.5 196q16 112 77 183.5t149 71.5q49 0 91.5 -26t69.5 -76l41 281q1 10 -9 11l-61 3zM331 462q-63 -1 -114.5 -57.5
t-65.5 -157.5q-14 -99 24 -152t105 -53q83 0 154 82l33 227q-22 56 -58 83.5t-78 27.5z" />
    <glyph glyph-name="e" unicode="e" horiz-adv-x="538" 
d="M354 510q90 0 139.5 -45.5t47.5 -115.5q-4 -126 -209 -163q-70 -12 -181 -16q7 -62 44.5 -97t98.5 -35q97 1 173 65l20 -45q-78 -68 -197 -68q-109 0 -165 73.5t-39 190.5q16 115 88.5 185.5t179.5 70.5zM351 465q-75 0 -127.5 -54.5t-65.5 -141.5q-4 -27 -4 -52
q99 2 163 14q156 28 159 123q1 32 -13.5 57t-43.5 39.5t-68 14.5z" />
    <glyph glyph-name="f" unicode="f" horiz-adv-x="416" 
d="M398 750q75 -1 133 -42l-22 -39q-49 32 -103 32q-50 0 -87 -29.5t-45 -84.5l-12 -87h145l-6 -41l-146 -8l-61 -433q-28 -196 -142 -198h-12l3 39q28 1 52 44.5t35 119.5l60 429l-59 3q-8 1 -6 9l4 33l68 3l13 95q5 38 23 68.5t44 49t57 28t64 9.5z" />
    <glyph glyph-name="g" unicode="g" horiz-adv-x="603" 
d="M369 510q88 1 180 -45q4 -2 3 -6l-64 -456q-7 -54 -29 -94.5t-54 -63t-69 -33t-78 -10.5q-91 0 -172 43l30 39q68 -35 136 -35q67 1 113.5 38.5t58.5 118.5l13 90q-44 -51 -96 -78.5t-101 -27.5q-82 0 -127 68.5t-27 196.5q17 121 95 187.5t188 67.5zM374 462
q-87 -1 -147.5 -56t-75.5 -159q-14 -100 18.5 -152.5t92.5 -52.5q17 0 35 5t37 14.5t37.5 23.5t37.5 33.5t36 43.5l41 277q-55 23 -112 23z" />
    <glyph glyph-name="h" unicode="h" horiz-adv-x="706" 
d="M172 743l129 7q9 0 8 -9l-50 -344q101 113 226 113q74 0 111 -41.5t25 -124.5l-30 -216q-4 -29 2 -48.5t22 -30t41 -11.5h3l-5 -38h-16q-62 0 -91 34t-21 96l30 208q17 124 -93 124q-34 0 -70 -13.5t-73 -41.5t-67 -68l-48 -339h-65l96 689q2 10 -9 11l-61 3z" />
    <glyph glyph-name="i" unicode="i" horiz-adv-x="350" 
d="M267 714q18 0 29 -13.5t8 -31.5q-2 -15 -14.5 -25.5t-28.5 -10.5q-18 0 -29 13t-8 31q2 15 14.5 26t28.5 11zM137 498l130 7q9 1 7 -8l-52 -369q-6 -43 10.5 -65.5t54.5 -24.5h7l-5 -38h-20q-62 0 -91 34t-20 96l44 314q1 11 -9 11l-61 3z" />
    <glyph glyph-name="j" unicode="j" horiz-adv-x="266" 
d="M257 714q18 0 29 -13t9 -32q-2 -10 -8 -18t-15 -13t-20 -5q-18 0 -29 13t-8 31q1 10 7.5 18.5t15.5 13.5t19 5zM128 499l130 7q8 0 7 -9l-83 -589q-6 -49 -41 -77.5t-89 -28.5q-52 0 -82 28l21 34q19 -15 47 -15q33 0 54.5 18t26.5 50l74 528q1 10 -9 11l-62 3z" />
    <glyph glyph-name="k" unicode="k" horiz-adv-x="618" 
d="M172 743l129 7q9 0 8 -9l-69 -483l272 205q49 37 110 37h21l-4 -39q-51 -1 -105 -41l-158 -114l127 -205q37 -61 102 -63l-4 -38h-29q-41 0 -73 21.5t-50 58.5l-118 193l-98 -71l-20 -145q-2 -10 8 -11l66 -5l-6 -41h-211l5 38q1 4 5 4l53 5q13 1 15 14l88 628
q2 10 -9 11l-61 3z" />
    <glyph glyph-name="l" unicode="l" horiz-adv-x="341" 
d="M172 743l129 7q9 0 8 -9l-87 -613q-6 -43 10.5 -65.5t54.5 -24.5h7l-5 -38h-20q-62 0 -91 34t-20 96l78 559q2 10 -9 11l-61 3z" />
    <glyph glyph-name="m" unicode="m" horiz-adv-x="1028" 
d="M814 510q71 0 105.5 -41.5t23.5 -124.5l-31 -216q-12 -87 65 -90h4l-6 -38h-16q-62 0 -91 34t-20 96l29 208q17 124 -85 124q-49 0 -96 -27t-101 -91l-2 -10l-47 -334h-65l48 338q17 124 -85 124q-24 0 -46.5 -6t-47 -19.5t-50 -36.5t-53.5 -56l-49 -344h-65l63 444
q1 11 -9 11l-62 3l6 40l130 7q3 1 5 -2t2 -6l-15 -100q58 63 107.5 88t105.5 25q60 0 94.5 -30t35.5 -90q60 68 110.5 94t107.5 26z" />
    <glyph glyph-name="n" unicode="n" horiz-adv-x="700" 
d="M478 510q75 0 112 -41.5t25 -124.5l-30 -216q-6 -43 10 -66t54 -24h4l-5 -38h-16q-63 0 -92 34t-20 96l29 208q18 124 -92 124q-53 0 -109 -31.5t-101 -91.5l-49 -339h-65l63 444q1 11 -9 11l-62 3l6 40l130 7q8 1 7 -8l-15 -100q100 113 225 113z" />
    <glyph glyph-name="o" unicode="o" 
d="M369 510q75 0 128.5 -33.5t76 -93.5t11.5 -137q-16 -114 -93.5 -185t-189.5 -71q-114 0 -173.5 73.5t-42.5 190.5q16 114 93.5 185t189.5 71zM368 462q-84 0 -143.5 -58.5t-73.5 -157.5q-14 -96 28 -151.5t123 -55.5q85 0 144.5 58t73.5 157q13 96 -28.5 152t-123.5 56z
" />
    <glyph glyph-name="p" unicode="p" horiz-adv-x="622" 
d="M434 510q89 0 139.5 -69t32.5 -196q-16 -111 -77 -182.5t-149 -72.5q-49 0 -91.5 26t-70.5 76l-33 -233q-2 -10 8 -11l71 -5l-5 -41h-217l5 37q0 4 5 4l53 5q13 2 15 15l82 580q1 10 -9 11l-57 3l5 41l118 3q7 0 7 -8l-6 -62q25 25 54 43t59.5 27t60.5 9zM412 458
q-83 -1 -154 -82l-33 -227q22 -56 58 -83.5t78 -27.5q63 1 114.5 57.5t65.5 157.5q14 98 -24 151.5t-105 53.5z" />
    <glyph glyph-name="q" unicode="q" horiz-adv-x="626" 
d="M387 510q84 0 171 -34l-85 -618q-1 -9 9 -10l61 -5l-6 -41h-219l5 37q1 4 5 4l66 6q13 0 15 14l34 234q-44 -53 -94 -80t-98 -27q-80 0 -126 69t-29 188q9 69 36 120.5t66 82t86.5 45.5t102.5 15zM381 462q-85 0 -144.5 -54t-74.5 -162q-14 -95 19 -149t92 -54
q43 0 90 30.5t87 89.5l41 277q-54 22 -110 22z" />
    <glyph glyph-name="r" unicode="r" horiz-adv-x="441" 
d="M482 504q6 -1 5 -7l-17 -114h-42l4 61q1 6 -2.5 9t-9.5 1q-12 -3 -26 -9q-65 -20 -143 -77l-53 -368h-65l63 444q1 11 -9 11l-62 3l6 40l130 7q8 1 7 -8l-12 -81q92 73 171 87q29 5 55 1z" />
    <glyph glyph-name="s" unicode="s" horiz-adv-x="442" 
d="M317 510q72 0 118 -29q3 -1 3 -5l-15 -107h-36l5 79q0 6 -5 8q-26 11 -63 11q-38 0 -68.5 -10.5t-48 -29t-21.5 -41.5q-4 -32 11.5 -51.5t80.5 -53.5q84 -44 109.5 -75t18.5 -78q-9 -63 -68.5 -100t-143.5 -37q-76 0 -132 27q-4 1 -4 6l15 106h36l-5 -77q0 -7 6 -9
q37 -11 79 -11q64 0 106.5 26.5t48.5 70.5q4 31 -12.5 51t-78.5 53q-63 33 -92 56.5t-36 44.5t-3 56q8 54 62.5 86.5t132.5 32.5z" />
    <glyph glyph-name="t" unicode="t" horiz-adv-x="383" 
d="M237 500h138l-6 -41l-138 -7l-50 -354q-4 -31 10.5 -47t45.5 -16q45 0 71 32l19 -32q-35 -46 -106 -46q-55 0 -83.5 28.5t-22.5 76.5l51 358l-57 3q-8 0 -7 8l5 35l65 1l18 125l65 4z" />
    <glyph glyph-name="u" unicode="u" horiz-adv-x="691" 
d="M637 500l-54 -384q-11 -75 49 -76l12 -1l-5 -39h-48q-41 1 -60.5 24.5t-15.5 66.5l1 11q-99 -112 -224 -112q-75 0 -112 41.5t-25 124.5l40 286q2 10 -8 11l-70 6l6 41h137q8 0 7 -9l-46 -329q-18 -124 92 -124q53 0 109 31.5t102 91.5l48 339h65z" />
    <glyph glyph-name="v" unicode="v" horiz-adv-x="572" 
d="M293 69l170 318q29 53 67 83t77 30h11l-4 -39q-24 0 -53.5 -27.5t-54.5 -74.5l-195 -359h-63l-112 450q-2 4 -8 5l-32 4q-7 0 -6 8l5 33h96z" />
    <glyph glyph-name="w" unicode="w" horiz-adv-x="856" 
d="M607 72l152 307q14 28 31 50.5t35 38t37.5 24t39.5 8.5h7l-4 -39q-21 0 -49 -27.5t-50 -72.5l-184 -361h-59l-81 399l-196 -399h-59l-96 449q-1 5 -8 6l-34 4q-7 0 -6 8l4 33h100l83 -427l208 427h51z" />
    <glyph glyph-name="x" unicode="x" horiz-adv-x="538" 
d="M310 281l126 148q60 70 126 71h16l-4 -39q-51 -1 -107 -66l-122 -137l118 -208q2 -3 7 -3l56 -6l-6 -41h-95q-3 0 -5 3l-125 222l-131 -153q-60 -71 -126 -72h-21l4 39q55 2 111 67l129 144l-115 200q-1 3 -6 3l-49 6q-7 0 -6 8l5 33h101z" />
    <glyph glyph-name="y" unicode="y" horiz-adv-x="557" 
d="M286 65l172 322q29 53 66.5 83t75.5 30h11l-4 -39q-23 0 -52 -27.5t-54 -74.5l-240 -444q-28 -53 -72 -82.5t-95 -30.5h-42l5 38l22 2q41 2 78.5 29t63.5 74l30 55h-11l-112 450q-1 4 -7 5l-32 4q-7 0 -6 8l4 33h97z" />
    <glyph glyph-name="z" unicode="z" horiz-adv-x="500" 
d="M503 470l-364 -428h256q13 0 16 14l15 64h36l-17 -115q0 -5 -5 -5h-386l3 30l365 428h-232q-14 0 -16 -14l-15 -63h-36l17 114q0 5 5 5h361z" />
    <glyph glyph-name="braceleft" unicode="{" horiz-adv-x="325" 
d="M361 729q16 0 34 -2l-9 -52q-8 1 -16 1q-27 0 -49 -10t-38.5 -32.5t-20.5 -53.5l-27 -196q-9 -62 -72 -89q24 -11 37.5 -34.5t9.5 -54.5l-28 -196q-7 -47 14.5 -70t61.5 -24q4 0 9.5 0.5t8.5 0.5l2 -50q-24 -2 -32 -2q-69 0 -105 37.5t-26 111.5l28 195q4 32 -12.5 48.5
t-45.5 16.5l3 45q19 0 35.5 8t29 24t15.5 37l27 196q7 50 31 83t58 47.5t77 14.5z" />
    <glyph glyph-name="bar" unicode="|" horiz-adv-x="155" 
d="M84 -190h-66l132 940h66z" />
    <glyph glyph-name="braceright" unicode="}" horiz-adv-x="325" 
d="M162 729q69 0 105.5 -37.5t25.5 -111.5l-27 -196q-5 -32 11.5 -48.5t45.5 -16.5l-3 -45q-18 0 -35 -7.5t-29.5 -23.5t-15.5 -38l-27 -195q-10 -73 -54.5 -109t-111.5 -36q-17 0 -34 3l9 49q19 0 22 1q39 2 67.5 26.5t34.5 69.5l28 196q8 62 71 89q-24 11 -37.5 34.5
t-8.5 54.5l27 196q7 48 -15 71t-61 23q-8 0 -18 -1l-1 50q15 2 31 2z" />
    <glyph glyph-name="asciitilde" unicode="~" horiz-adv-x="558" 
d="M201 340q38 4 115 -33q72 -35 110 -33q50 2 78 52l53 -15q-12 -42 -44 -67t-73 -26q-46 -2 -120 35q-3 2 -8 4q-67 32 -89 30q-49 -2 -93 -69l-53 20q49 94 124 102z" />
    <glyph glyph-name="exclamdown" unicode="&#xa1;" horiz-adv-x="171" 
d="M154 511q18 0 29 -13t9 -31q-1 -7 -5 -13.5t-9.5 -11.5t-13 -8.5t-15.5 -3.5q-18 0 -29 13.5t-8 31.5q2 15 14 25.5t28 10.5zM94 -195h-72l76 489h58z" />
    <glyph glyph-name="cent" unicode="&#xa2;" horiz-adv-x="500" 
d="M408 581l-10 -74q65 -5 111 -41q3 -2 2 -5l-16 -117h-42l5 88q0 6 -4 8q-36 22 -86 22q-84 0 -143.5 -58.5t-73.5 -157.5q-14 -97 28 -152.5t124 -55.5q72 0 140 45l18 -46q-30 -21 -64 -32.5t-71 -12.5l-11 -73h-56l11 74q-100 10 -149.5 81.5t-34.5 179.5
q10 71 44.5 126.5t89.5 89t122 38.5l10 73h56z" />
    <glyph glyph-name="sterling" unicode="&#xa3;" horiz-adv-x="491" 
d="M398 710q78 0 142 -37q4 -2 3 -6l-17 -121h-39l5 84q1 6 -5 8q-39 16 -85 16q-29 0 -56 -7t-50.5 -21t-40 -37.5t-23.5 -52.5q-9 -34 -1 -64t25 -64.5t22 -61.5l182 1l-7 -51h-171q-2 -27 -9 -50q-7 -39 -34 -84t-79 -109h304l-7 -53h-390l7 54q36 42 60 74.5t41 64
t23 59.5q8 24 9 45l-98 -1l7 51h88q-4 17 -12.5 38t-15.5 36t-13.5 37.5t-6.5 42t5 48.5q19 80 86 120.5t151 40.5z" />
    <glyph glyph-name="currency" unicode="&#xa4;" 
 />
    <glyph glyph-name="yen" unicode="&#xa5;" horiz-adv-x="689" 
d="M755 656l-52 -4l-186 -265h119l-6 -49h-147l-54 -77l-7 -45h191l-7 -49h-197l-15 -107q-2 -10 8 -11l70 -5l-6 -44h-233l5 40q1 4 5 4l65 6q11 1 14 13l15 104h-200l7 49h195l4 40l-35 82h-147l7 49h119l-110 261q-2 3 -8 4l-44 4q-7 0 -6 8l5 36h107l166 -390l224 320
q6 8 4 14t-10 7l-68 6q-7 0 -6 8l5 35h215z" />
    <glyph glyph-name="brokenbar" unicode="&#xa6;" horiz-adv-x="160" 
d="M165 348h-72l57 402h71zM89 -190h-71l56 402h72z" />
    <glyph glyph-name="section" unicode="&#xa7;" horiz-adv-x="477" 
d="M357 711q85 0 136 -35q3 -1 3 -5l-17 -122h-42l6 88q0 6 -5 8q-30 14 -74 14q-63 0 -105 -26t-48 -67q-3 -26 2.5 -41.5t28.5 -34.5t76 -47q99 -51 129 -87.5t23 -90.5q-7 -50 -44 -88t-96 -57q65 -39 85 -70.5t13 -77.5q-7 -50 -41.5 -87.5t-87.5 -56t-116 -18.5
q-97 0 -156 36q-4 0 -4 5l18 122h41l-6 -87q0 -5 5 -8q45 -18 100 -18q71 0 117.5 30.5t53.5 81.5q6 37 -14 60t-92 62q-57 29 -88 50.5t-48 42t-18.5 41.5t1.5 50q6 48 49 82.5t111 45.5q-83 48 -105 79.5t-14 85.5q9 63 71.5 101t151.5 39zM315 369h-5q-41 0 -73 -12
t-50.5 -32t-22.5 -47q-5 -38 13 -59t91 -60l8 -4q52 9 84.5 37t38.5 69q5 34 -10.5 55t-73.5 53z" />
    <glyph glyph-name="dieresis" unicode="&#xa8;" horiz-adv-x="327" 
d="M174 674q17 0 27.5 -12.5t7.5 -29.5q-1 -14 -13 -24t-26 -10q-18 0 -28 12.5t-8 29.5q2 14 13.5 24t26.5 10zM336 674q17 0 27.5 -12.5t7.5 -29.5q-2 -14 -13.5 -24t-25.5 -10q-18 0 -28 12.5t-8 29.5q2 14 13.5 24t26.5 10z" />
    <glyph glyph-name="copyright" unicode="&#xa9;" horiz-adv-x="811" 
d="M502 710q99 0 176 -48.5t114 -132.5t23 -183q-14 -97 -73.5 -179t-148.5 -129.5t-186 -47.5q-98 0 -175.5 49t-114.5 132.5t-23 182.5q14 97 73.5 179t148.5 129.5t186 47.5zM502 663q-128 0 -232 -92.5t-123 -223.5q-18 -129 58.5 -218.5t202.5 -89.5q128 0 232 92
t122 224q18 128 -58.5 218t-201.5 90zM479 537q65 0 107 -37q3 -2 2 -5l-8 -61h-36l3 45q0 6 -5 8q-26 16 -62 16q-59 0 -101.5 -42t-52.5 -115q-10 -70 19 -109.5t88 -39.5q54 0 108 40l16 -33q-52 -41 -125 -41q-82 0 -125.5 53.5t-31.5 137.5q12 81 68 132t136 51z" />
    <glyph glyph-name="ordfeminine" unicode="&#xaa;" horiz-adv-x="405" 
d="M294 706q54 1 109 -27q2 0 3.5 -1.5t1.5 -2.5l-29 -206q-6 -47 36 -49h5l-4 -24h-22q-30 0 -45 14.5t-13 39.5l1 3q-54 -63 -119 -63q-51 0 -79 42t-17 120q10 74 57.5 113.5t114.5 40.5zM299 675q-52 0 -89 -33.5t-45 -97.5q-9 -59 10 -90t54 -31q26 0 55.5 18.5
t54.5 53.5l26 167q-32 14 -66 13z" />
    <glyph glyph-name="guillemotleft" unicode="&#xab;" horiz-adv-x="496" 
d="M150 250l106 -174h-65l-111 175l159 176h68zM370 250l106 -174h-65l-111 175l159 176h68z" />
    <glyph glyph-name="logicalnot" unicode="&#xac;" horiz-adv-x="700" 
 />
    <glyph glyph-name="registered" unicode="&#xae;" horiz-adv-x="811" 
d="M502 710q99 0 176 -48.5t114 -132.5t23 -183q-14 -97 -73.5 -179t-148.5 -129.5t-186 -47.5q-98 0 -175.5 49t-114.5 132.5t-23 182.5q14 97 73.5 179t148.5 129.5t186 47.5zM502 663q-128 0 -232 -92.5t-123 -223.5q-18 -129 58.5 -218.5t202.5 -89.5q128 0 232 92
t122 224q18 128 -58.5 218t-201.5 90zM327 531h155q51 0 79 -28.5t22 -71.5q-5 -35 -32 -59t-69 -29l63 -139q1 -3 6 -4l34 -3l-3 -22h-63q-5 0 -7 4l-74 160h-53l-18 -130q-2 -8 6 -8l36 -3l-3 -23h-129l3 19q0 4 4 4l26 3q11 0 12 11l40 283q1 8 -7 9l-26 2q-6 0 -5 6z
M407 496l-18 -125h71q21 0 37 7.5t26.5 22t13.5 35.5q4 30 -11.5 46.5t-46.5 16.5h-42z" />
    <glyph glyph-name="macron" unicode="&#xaf;" horiz-adv-x="370" 
d="M411 601h-282l7 49h282z" />
    <glyph glyph-name="degree" unicode="&#xb0;" horiz-adv-x="334" 
d="M268 744q35 0 61.5 -17.5t39 -46.5t8.5 -63q-5 -32 -24.5 -59.5t-49.5 -43.5t-63 -16q-52 0 -83.5 37.5t-24.5 89.5q7 49 46.5 84t89.5 35zM269 705q-33 0 -61 -25.5t-33 -62.5q-5 -34 14 -57t50 -23q10 0 19.5 2.5t18 6.5t16.5 10t14.5 13.5t12 16t9 18.5t5.5 21
q5 34 -14 57t-51 23z" />
    <glyph glyph-name="plusminus" unicode="&#xb1;" horiz-adv-x="508" 
d="M335 374h181l-8 -57h-181l-24 -171h-57l24 171h-181l8 57h181l24 171h57zM462 -17h-420l8 57h420z" />
    <glyph glyph-name="twosuperior" unicode="&#xb2;" horiz-adv-x="298" 
d="M249 746q33 0 58 -12t35 -34q36 -72 -76 -200q-37 -41 -124 -120h130q9 0 11 9l9 41h35l-13 -86h-249l5 30q0 1 1 4q90 78 149 147q89 102 74 154q-9 28 -47 29q-26 1 -48 -13t-34 -40l-50 11q14 38 52.5 59t81.5 21z" />
    <glyph glyph-name="threesuperior" unicode="&#xb3;" horiz-adv-x="316" 
d="M248 746q33 0 60 -12t41.5 -36.5t10.5 -57.5q-9 -60 -78 -86q32 -12 47.5 -39t10.5 -64q-8 -55 -52 -84t-100 -29q-63 0 -111 34l19 30q40 -24 86 -24q41 0 68.5 20t33.5 63q5 37 -13 55.5t-57 18.5h-46l6 38l43 -1q36 0 59.5 19t28.5 53q5 33 -12.5 49t-48.5 16
q-33 -1 -65 -21q-3 -1 -4 -5l-11 -50h-37l12 79q0 2 1 4q49 30 108 30z" />
    <glyph glyph-name="acute" unicode="&#xb4;" horiz-adv-x="271" 
d="M185 572h-61l124 149h81z" />
    <glyph glyph-name="paragraph" unicode="&#xb6;" horiz-adv-x="576" 
d="M623 646l-64 -5q-13 -1 -15 -15l-99 -705h-67l102 722h-101l-102 -722h-143l7 50q0 4 4 4l61 5q13 2 15 15l48 326q-81 8 -122.5 59.5t-30.5 131.5q12 83 73 134.5t152 53.5h289z" />
    <glyph glyph-name="periodcentered" unicode="&#xb7;" horiz-adv-x="170" 
d="M131 350q18 0 29 -13.5t8 -30.5q-2 -15 -14 -26t-28 -11q-18 0 -29 13.5t-9 31.5q3 14 15 25t28 11z" />
    <glyph glyph-name="cedilla" unicode="&#xb8;" horiz-adv-x="255" 
d="M150 5l-31 -58q10 0 19 -3q27 -7 43 -28t11 -50q-4 -20 -18 -37t-36.5 -27t-48.5 -10q-42 2 -69 25l12 32q23 -18 51 -18q22 0 38 12.5t20 33.5q4 23 -9.5 34t-35.5 13q-14 0 -26 -2l41 94z" />
    <glyph glyph-name="onesuperior" unicode="&#xb9;" horiz-adv-x="230" 
d="M247 740l-50 -351q-1 -10 8 -10l37 -3l-5 -32h-156l4 28q1 4 5 4l40 4q10 0 11 10l40 282q0 4 -2.5 5t-5.5 -1l-50 -29l-14 35l92 58h46z" />
    <glyph glyph-name="ordmasculine" unicode="&#xba;" horiz-adv-x="396" 
d="M294 706q71 0 107.5 -45.5t26.5 -117.5q-6 -45 -29.5 -80t-60.5 -54.5t-82 -19.5q-71 0 -107.5 45.5t-26.5 116.5q10 69 57 112t115 43zM296 675q-51 0 -86.5 -35.5t-44.5 -96.5q-8 -57 16.5 -90t72.5 -33q33 0 60.5 16t46 45.5t24.5 69.5q8 58 -16.5 91t-72.5 33z" />
    <glyph glyph-name="guillemotright" unicode="&#xbb;" horiz-adv-x="496" 
d="M267 251l-159 -175h-68l157 177l-106 174h65zM487 251l-159 -175h-68l157 176l-106 175h65z" />
    <glyph glyph-name="onequarter" unicode="&#xbc;" horiz-adv-x="764" 
d="M237 -17h-65l464 734h65zM272 700l-49 -351q-1 -10 8 -10l36 -3l-4 -32h-156l4 28q0 4 5 4l40 4q9 0 11 10l39 282q1 4 -1.5 5t-6.5 -1l-49 -29l-14 35l91 58h46zM524 132h113l28 157q0 4 5 4h37l-23 -161h54l-5 -35h-54l-8 -56q-1 -7 7 -8l38 -3l-4 -30h-150l3 27
q1 3 5 4l39 3q9 1 10 10l8 53h-166l3 26l161 273h54z" />
    <glyph glyph-name="onehalf" unicode="&#xbd;" horiz-adv-x="805" 
d="M237 -17h-65l464 734h65zM272 700l-49 -351q-1 -10 8 -11l36 -2l-4 -32h-156l4 28q0 4 4 4l41 4q9 0 11 10l39 282q1 4 -1.5 5t-6.5 -1l-49 -29l-14 35l91 58h46zM695 402q33 0 58 -12t35 -33q36 -72 -75 -201q-38 -41 -124 -120h129q9 0 11 10l9 41h35l-12 -87h-249
l4 30q0 1 2 4q89 78 148 147q90 103 74 154q-9 28 -47 29q-26 1 -48 -12.5t-34 -40.5l-50 11q15 38 53.5 59t80.5 21z" />
    <glyph glyph-name="threequarters" unicode="&#xbe;" horiz-adv-x="799" 
d="M268 -17h-65l464 734h65zM263 706q52 0 85.5 -28.5t26.5 -77.5q-9 -60 -78 -86q32 -12 47.5 -39t10.5 -64q-8 -55 -52 -84t-100 -29q-63 0 -111 34l18 30q41 -24 87 -24q41 0 68.5 20t33.5 63q4 25 -3.5 41.5t-24 24.5t-42.5 8h-46l6 38l43 -1q36 0 59.5 19t28.5 53
q5 33 -12.5 49t-48.5 16q-33 -1 -65 -21q-3 -1 -4 -5l-11 -50h-37l12 79q0 2 1 4q49 30 108 30zM559 132h113l27 157q1 4 5 4h37l-22 -161h54l-5 -35h-54l-8 -56q-1 -7 7 -8l38 -3l-4 -30h-151l4 27q1 3 5 4l38 3q10 1 11 10l8 53h-166l3 26l161 273h54z" />
    <glyph glyph-name="questiondown" unicode="&#xbf;" horiz-adv-x="442" 
d="M422 511q18 0 29 -13t8 -31q-2 -15 -14.5 -26t-27.5 -11q-18 0 -29 13.5t-9 31.5q2 15 14.5 25.5t28.5 10.5zM425 294l-7 -63q-5 -47 -35.5 -77.5t-120.5 -75.5q-96 -47 -121.5 -70t-31.5 -66q-4 -27 8.5 -47.5t40 -32t67.5 -11.5q60 0 104 21l21 92h40l-16 -127
q-66 -42 -154 -42q-90 0 -141.5 42.5t-41.5 111.5q8 56 41.5 89.5t140.5 87.5q56 29 82 45.5t38 32.5t16 41l8 49h62z" />
    <glyph glyph-name="Agrave" unicode="&#xc0;" horiz-adv-x="771" 
d="M531 772h-59l-101 149h79zM694 49l57 -5l-6 -44h-229l5 39q1 4 5 5l69 5q8 1 14 7t3 15l-39 140h-330l-88 -160l87 -7l-7 -44h-209l5 40q1 4 5 5l46 3q7 1 12 9l353 641l68 3zM272 268h288l-94 352z" />
    <glyph glyph-name="Aacute" unicode="&#xc1;" horiz-adv-x="771" 
d="M517 772h-62l124 149h81zM694 49l57 -5l-6 -44h-229l5 39q1 4 5 5l69 5q8 1 14 7t3 15l-39 140h-330l-88 -160l87 -7l-7 -44h-209l5 40q1 4 5 5l46 3q7 1 12 9l353 641l68 3zM272 268h288l-94 352z" />
    <glyph glyph-name="Acircumflex" unicode="&#xc2;" horiz-adv-x="771" 
d="M641 772h-59l-71 111l-103 -111h-61l126 149h83zM694 49l57 -5l-6 -44h-229l5 39q1 4 5 5l69 5q8 1 14 7t3 15l-39 140h-330l-88 -160l87 -7l-7 -44h-209l5 40q1 4 5 5l46 3q7 1 12 9l353 641l68 3zM272 268h288l-94 352z" />
    <glyph glyph-name="Atilde" unicode="&#xc3;" horiz-adv-x="771" 
d="M602 872l43 -13q-9 -34 -29 -53t-48 -21q-29 -3 -66 16q-6 4 -17.5 9.5t-17.5 8.5t-13.5 5.5t-13.5 1.5q-19 -1 -38 -44l-43 16q23 68 67 72q6 0 13 -1t12 -2t14 -5t12 -5t13.5 -6t12.5 -6q35 -17 55 -14q25 3 44 41zM694 49l57 -5l-6 -44h-229l5 39q1 4 5 5l69 5
q8 1 14 7t3 15l-39 140h-330l-88 -160l86 -7l-6 -44h-209l5 40q1 4 5 5l46 3q7 1 12 9l353 641l68 3zM272 268h288l-94 352z" />
    <glyph glyph-name="Adieresis" unicode="&#xc4;" horiz-adv-x="771" 
d="M424 874q18 0 28 -12.5t8 -29.5q-2 -14 -13.5 -24t-26.5 -10q-11 0 -20 6t-13 15.5t-2 20.5q1 9 6.5 17t14.5 12.5t18 4.5zM586 874q18 0 28 -12.5t8 -29.5q-2 -14 -13.5 -24t-26.5 -10q-17 0 -27.5 12.5t-7.5 29.5q1 14 13 24t26 10zM694 49l57 -5l-6 -44h-229l5 39
q1 4 5 5l69 5q8 1 14 7t3 15l-39 140h-330l-88 -160l87 -7l-7 -44h-209l5 40q1 4 5 5l46 3q7 1 12 9l353 641l69 3zM272 268h288l-94 352z" />
    <glyph glyph-name="Aring" unicode="&#xc5;" horiz-adv-x="771" 
d="M515 945q29 0 51 -14t32.5 -38.5t6.5 -52.5q-5 -40 -37.5 -69t-74.5 -29q-43 0 -69.5 31.5t-20.5 74.5q6 40 38.5 68.5t73.5 28.5zM517 909q-26 0 -47.5 -20t-25.5 -49q-2 -13 1 -24.5t9.5 -19.5t16 -12.5t21.5 -4.5q17 0 32.5 8.5t26.5 24.5t14 36q4 26 -10.5 43.5
t-37.5 17.5zM694 49l57 -5l-6 -44h-229l5 39q1 4 5 5l69 5q8 1 14 7t3 15l-39 140h-330l-88 -160l87 -7l-7 -44h-209l5 40q1 4 5 5l46 3q7 1 12 9l353 641l68 3zM272 268h288l-94 352z" />
    <glyph glyph-name="AE" unicode="&#xc6;" horiz-adv-x="808" 
d="M448 700h404q8 0 7 -9l-19 -137h-43l5 79q1 10 -10 10h-252l-37 -260h230l-8 -54h-229l-38 -272h267q14 0 16 14l17 75h43l-20 -141q0 -5 -5 -5h-478l6 40q1 4 5 4l63 6q13 1 15 14l21 147h-165l-88 -160l78 -7l-6 -44h-201l5 40q1 4 5 5l46 3q7 1 12 9zM272 268h144
l50 352z" />
    <glyph glyph-name="Ccedilla" unicode="&#xc7;" horiz-adv-x="649" 
d="M489 709q118 0 195 -65q3 -1 3 -4l-18 -124h-43l6 88q1 6 -1 10q-62 38 -144 38q-121 0 -206 -82.5t-105 -223.5q-20 -139 41.5 -219t181.5 -80q109 1 203 69l22 -50q-99 -75 -230 -75q-28 0 -53 3l-25 -47q10 0 18 -3q28 -7 43.5 -28t10.5 -50q-5 -31 -34 -52.5
t-68 -21.5q-42 2 -70 25l13 32q23 -18 51 -18q14 0 26 5.5t20.5 16t11.5 24.5q4 23 -9.5 34t-36.5 13q-13 0 -25 -2l36 80q-111 28 -165 122.5t-35 229.5q22 158 128 256.5t258 98.5z" />
    <glyph glyph-name="Egrave" unicode="&#xc8;" horiz-adv-x="584" 
d="M463 772h-59l-101 149h78zM166 700h455q8 0 7 -9l-20 -137h-42l5 79q1 10 -10 10h-252l-37 -260h230l-8 -54h-229l-38 -272h267q2 0 4.5 0.5t4 2t3.5 3t3 4t1 4.5l17 75h43l-20 -141q-1 -5 -6 -5h-477l6 40q0 4 5 4l63 6q3 0 6.5 2t6 5.5t2.5 6.5l81 576q2 10 -8 11
l-62 5q-7 1 -6 8z" />
    <glyph glyph-name="Eacute" unicode="&#xc9;" horiz-adv-x="584" 
d="M448 772h-61l124 149h81zM166 700h455q8 0 7 -9l-20 -137h-42l5 79q1 10 -10 10h-252l-37 -260h230l-8 -54h-229l-38 -272h267q4 0 7.5 2t6 5t2.5 7l17 75h43l-20 -141q-1 -5 -6 -5h-477l6 40q0 4 5 4l63 6q5 0 9.5 4.5t5.5 9.5l81 576q2 10 -8 11l-62 5q-7 1 -6 8z" />
    <glyph glyph-name="Ecircumflex" unicode="&#xca;" horiz-adv-x="584" 
d="M572 772h-58l-71 111l-103 -111h-62l127 149h83zM166 700h455q8 0 7 -9l-20 -137h-42l5 79q1 10 -10 10h-252l-37 -260h230l-8 -54h-229l-38 -272h267q2 0 4.5 0.5t4 2t3.5 3t3 4t1 4.5l17 75h43l-20 -141q-1 -5 -6 -5h-477l6 40q0 4 5 4l63 6q3 0 6.5 2t6 5.5t2.5 6.5
l81 576q2 10 -8 11l-62 5q-7 1 -6 8z" />
    <glyph glyph-name="Edieresis" unicode="&#xcb;" horiz-adv-x="584" 
d="M356 874q17 0 27.5 -12.5t8.5 -29.5q-2 -14 -13.5 -24t-26.5 -10q-12 0 -20.5 6t-12.5 15.5t-3 20.5q2 14 13.5 24t26.5 10zM518 874q17 0 27.5 -12.5t8.5 -29.5q-2 -14 -13.5 -24t-26.5 -10q-12 0 -20.5 6t-12.5 15.5t-3 20.5q2 14 13.5 24t26.5 10zM166 700h455
q8 0 7 -9l-20 -137h-42l5 79q1 10 -10 10h-252l-37 -260h230l-8 -54h-229l-38 -272h267q5 0 10 4t6 10l17 75h43l-20 -141q-1 -5 -6 -5h-477l6 40q0 4 5 4l63 6q5 0 9.5 4.5t5.5 9.5l81 576q2 10 -8 11l-62 5q-7 1 -6 8z" />
    <glyph glyph-name="Igrave" unicode="&#xcc;" horiz-adv-x="368" 
d="M330 772h-59l-102 149h79zM393 656l-69 -6q-13 -1 -15 -14l-81 -576q-1 -10 9 -11l70 -5l-6 -44h-234l6 40q0 4 5 4l64 6q5 0 10 4.5t5 9.5l81 576q2 10 -8 11l-63 5q-7 1 -6 8l5 36h233z" />
    <glyph glyph-name="Iacute" unicode="&#xcd;" horiz-adv-x="368" 
d="M315 772h-61l123 149h81zM393 656l-69 -6q-13 -1 -15 -14l-81 -576q-1 -10 9 -11l70 -5l-6 -44h-234l6 40q0 4 5 4l64 6q5 0 10 4.5t5 9.5l81 576q2 10 -8 11l-63 5q-7 1 -6 8l5 36h233z" />
    <glyph glyph-name="Icircumflex" unicode="&#xce;" horiz-adv-x="368" 
d="M439 772h-59l-70 111l-104 -111h-61l126 149h84zM393 656l-69 -6q-13 -1 -15 -14l-81 -576q-1 -10 9 -11l70 -5l-6 -44h-234l6 40q0 4 5 4l64 6q3 0 6.5 2t6 5.5t2.5 6.5l81 576q2 10 -8 11l-63 5q-7 1 -6 8l5 36h233z" />
    <glyph glyph-name="Idieresis" unicode="&#xcf;" horiz-adv-x="368" 
d="M223 874q17 0 27.5 -12.5t7.5 -29.5q-1 -9 -6.5 -17t-14.5 -12.5t-19 -4.5q-11 0 -19.5 6t-12.5 15.5t-3 20.5q2 14 13.5 24t26.5 10zM385 874q11 0 20 -6t13 -15.5t2 -20.5q-2 -14 -13.5 -24t-26.5 -10q-17 0 -27 12.5t-8 29.5q2 14 13.5 24t26.5 10zM393 656l-69 -6
q-13 -1 -15 -14l-81 -576q-1 -10 9 -11l70 -5l-6 -44h-234l6 40q1 4 5 4l64 6q3 0 6.5 2t6 5.5t2.5 6.5l81 576q2 10 -8 11l-63 5q-7 1 -6 8l5 36h233z" />
    <glyph glyph-name="Eth" unicode="&#xd0;" horiz-adv-x="754" 
d="M166 700h294q154 0 234 -97t57 -257q-22 -158 -127.5 -252t-258.5 -94h-298l6 40q0 4 5 4l63 6q5 0 9.5 4.5t5.5 9.5l36 258h-103l8 56h103l37 262q2 10 -8 11l-62 5q-3 0 -5 3t-1 5zM678 354q19 137 -41 213t-182 76h-82l-65 -5l-36 -260h140l-8 -56h-140l-37 -260
l64 -5h79q121 0 204.5 78.5t103.5 218.5z" />
    <glyph glyph-name="Ntilde" unicode="&#xd1;" horiz-adv-x="848" 
d="M640 872l44 -13q-9 -34 -29.5 -53t-47.5 -21q-30 -3 -66 16q-7 4 -18 9.5t-17.5 8.5t-14 5.5t-12.5 1.5q-20 -1 -39 -44l-43 16q23 68 67 72q6 0 13.5 -1t12 -2t13.5 -5t12 -5t14 -6t12 -6q36 -17 56 -14q24 3 43 41zM878 656l-68 -6q-13 -1 -15 -14l-90 -636h-65
l-349 582l-74 -521q-1 -10 9 -11l75 -6l-6 -44h-233l6 40q0 4 5 4l63 6q14 1 16 14l80 576q2 10 -8 11l-62 5q-3 0 -5 3t-1 5l5 36h141l352 -588l75 527q1 10 -9 11l-68 6q-2 0 -4 3t-2 5l5 36h233z" />
    <glyph glyph-name="Ograve" unicode="&#xd2;" horiz-adv-x="781" 
d="M536 772h-59l-101 149h78zM487 709q154 0 234 -101t57 -262q-14 -105 -67 -185.5t-136 -125t-183 -44.5q-153 0 -233 100.5t-58 262.5q15 104 68 185t135.5 125.5t182.5 44.5zM485 652q-121 0 -206 -82.5t-105 -223.5q-19 -138 41 -218.5t179 -80.5q122 0 206.5 83
t104.5 224q13 91 -10 159t-77 103.5t-133 35.5z" />
    <glyph glyph-name="Oacute" unicode="&#xd3;" horiz-adv-x="781" 
d="M521 772h-61l124 149h81zM487 709q154 0 234 -101t57 -262q-22 -159 -128 -257t-258 -98q-153 0 -233 100.5t-58 262.5q23 158 129 256.5t257 98.5zM485 652q-121 0 -206 -82.5t-105 -223.5q-19 -138 41 -218.5t179 -80.5q122 0 206.5 83t104.5 224q13 91 -10 159
t-77 103.5t-133 35.5z" />
    <glyph glyph-name="Ocircumflex" unicode="&#xd4;" horiz-adv-x="781" 
d="M645 772h-58l-71 111l-103 -111h-62l127 149h83zM487 709q154 0 234 -101t57 -262q-22 -159 -128 -257t-258 -98q-153 0 -233 100.5t-58 262.5q23 158 129 256.5t257 98.5zM485 652q-121 0 -206 -82.5t-105 -223.5q-7 -56 -2 -102.5t23 -83t46 -61.5t67 -38.5t86 -13.5
q122 0 206.5 83t104.5 224q13 91 -10 159t-77 103.5t-133 35.5z" />
    <glyph glyph-name="Otilde" unicode="&#xd5;" horiz-adv-x="781" 
d="M607 872l43 -13q-9 -34 -29.5 -53t-47.5 -21q-29 -3 -66 16q-5 3 -12 6.5l-12 6t-10.5 5.5t-10 4.5t-9 2.5t-8.5 0q-19 -1 -38 -44l-43 16q23 68 67 72q5 0 10.5 -0.5t11.5 -2t10.5 -3t11.5 -4.5l10.5 -4.5t11.5 -5.5l10 -5q36 -17 56 -14q25 3 44 41zM487 709
q154 0 234 -101t57 -262q-22 -159 -128 -257t-258 -98q-153 0 -233 100.5t-58 262.5q23 158 129 256.5t257 98.5zM485 652q-121 0 -206 -82.5t-105 -223.5q-19 -138 41 -218.5t179 -80.5q122 0 206.5 83t104.5 224q13 91 -10 159t-77 103.5t-133 35.5z" />
    <glyph glyph-name="Odieresis" unicode="&#xd6;" horiz-adv-x="781" 
d="M429 874q17 0 27.5 -12.5t8.5 -29.5q-2 -14 -13.5 -24t-26.5 -10q-12 0 -20.5 6t-12.5 15.5t-3 20.5q2 9 7.5 17t14 12.5t18.5 4.5zM591 874q17 0 27.5 -12.5t8.5 -29.5q-2 -14 -13.5 -24t-26.5 -10q-18 0 -28 12.5t-8 29.5q2 14 13.5 24t26.5 10zM487 709
q154 0 234 -101t57 -262q-14 -105 -67 -185.5t-136 -125t-183 -44.5q-153 0 -233 100.5t-58 262.5q23 158 129 256.5t257 98.5zM485 652q-121 0 -206 -82.5t-105 -223.5q-19 -138 41 -218.5t179 -80.5q80 0 146 37t109 107t56 163q13 91 -10 159t-77 103.5t-133 35.5z" />
    <glyph glyph-name="multiply" unicode="&#xd7;" horiz-adv-x="426" 
d="M440 419l-146 -129l110 -128l-45 -40l-110 128l-146 -128l-36 40l146 128l-110 129l45 40l110 -128l146 128z" />
    <glyph glyph-name="Oslash" unicode="&#xd8;" horiz-adv-x="781" 
d="M663 750l-33 -71q86 -40 125.5 -128t22.5 -205q-14 -105 -67 -185.5t-136 -125t-183 -44.5q-41 0 -78 8l-22 -49h-76l33 71q-85 40 -124.5 127.5t-23.5 205.5q23 158 129 256.5t257 98.5q41 0 78 -8l23 49h75zM174 346q-13 -97 13.5 -167t87.5 -103l265 571q-26 5 -55 5
q-121 0 -206 -82.5t-105 -223.5zM705 354q14 97 -12.5 166.5t-87.5 103.5l-266 -572q26 -5 55 -5q122 0 206.5 83t104.5 224z" />
    <glyph glyph-name="Ugrave" unicode="&#xd9;" horiz-adv-x="831" 
d="M561 772h-59l-101 149h79zM861 656l-68 -6q-14 -1 -16 -15l-51 -365q-18 -127 -101.5 -203.5t-204.5 -76.5q-123 0 -186.5 78.5t-45.5 205.5l51 365q1 10 -9 11l-63 5q-3 1 -5 3.5t-1 5.5l5 35h242l-6 -43l-76 -7q-14 -1 -15 -15l-52 -364q-9 -70 8.5 -121t58 -76.5
t99.5 -25.5q94 0 161 61t82 166l51 364q1 10 -8 11l-83 7l6 43h233z" />
    <glyph glyph-name="Uacute" unicode="&#xda;" horiz-adv-x="831" 
d="M547 772h-62l124 149h81zM861 656l-68 -6q-14 -1 -16 -15l-51 -365q-18 -127 -101.5 -203.5t-204.5 -76.5q-123 0 -186.5 78.5t-45.5 205.5l51 365q1 10 -9 11l-63 5q-3 1 -5 3.5t-1 5.5l5 35h242l-6 -43l-76 -7q-14 -1 -15 -15l-52 -364q-14 -105 31 -164t135 -59
q94 0 161 61t82 166l51 364q1 10 -8 11l-83 7l6 43h233z" />
    <glyph glyph-name="Ucircumflex" unicode="&#xdb;" horiz-adv-x="831" 
d="M670 772h-58l-71 111l-103 -111h-62l127 149h83zM861 656l-68 -6q-14 -1 -16 -15l-51 -365q-18 -127 -101.5 -203.5t-204.5 -76.5q-123 0 -186.5 78.5t-45.5 205.5l51 365q1 10 -9 11l-63 5q-3 1 -5 3.5t-1 5.5l5 35h242l-6 -43l-76 -7q-14 -1 -15 -15l-52 -364
q-14 -105 31 -164t135 -59q94 0 161 61t82 166l51 364q1 10 -8 11l-83 7l6 43h233z" />
    <glyph glyph-name="Udieresis" unicode="&#xdc;" horiz-adv-x="831" 
d="M454 874q17 0 27.5 -12.5t8.5 -29.5q-2 -14 -13.5 -24t-26.5 -10q-12 0 -20.5 6t-12.5 15.5t-2 20.5q1 9 6.5 17t14 12.5t18.5 4.5zM616 874q17 0 27.5 -12.5t8.5 -29.5q-2 -14 -13.5 -24t-26.5 -10q-17 0 -27.5 12.5t-8.5 29.5q2 14 13.5 24t26.5 10zM861 656l-68 -6
q-14 -1 -16 -15l-51 -365q-18 -127 -101.5 -203.5t-204.5 -76.5q-123 0 -186.5 78.5t-45.5 205.5l51 365q1 10 -9 11l-63 5q-2 1 -3.5 2t-2.5 3t0 4l5 35h242l-6 -43l-76 -7q-14 -1 -15 -15l-52 -364q-9 -70 8.5 -121t58 -76.5t99.5 -25.5q94 0 161 61t82 166l51 364
q1 10 -8 11l-83 7l6 43h233z" />
    <glyph glyph-name="Yacute" unicode="&#xdd;" horiz-adv-x="689" 
d="M475 772h-61l123 149h81zM755 656l-52 -4l-282 -403l-27 -189q-2 -10 8 -11l70 -5l-6 -44h-233l6 40q0 4 4 4l65 6q13 1 15 14l25 178l-171 406q-2 3 -8 4l-44 4q-7 0 -6 8l5 36h107l166 -390l224 320q6 8 4 14t-10 7l-68 6q-7 0 -6 8l5 35h215z" />
    <glyph glyph-name="Thorn" unicode="&#xde;" horiz-adv-x="635" 
d="M303 598h150q96 0 147.5 -54.5t39.5 -142.5q-12 -85 -77 -137t-161 -52h-154l-21 -151q-1 -10 9 -11l78 -6l-6 -44h-241l6 40q0 4 5 4l63 6q13 1 15 14l83 590q1 10 -8 11l-62 5q-7 1 -6 8l5 36h151zM295 541l-39 -272h149q68 0 112.5 37t53.5 100q4 31 -2.5 56.5
t-23 42.5t-42.5 26.5t-59 9.5h-149z" />
    <glyph glyph-name="germandbls" unicode="&#xdf;" horiz-adv-x="660" 
d="M453 750q99 0 148.5 -45t40.5 -120q-4 -26 -17.5 -48t-27.5 -35t-47 -40q-37 -30 -41 -65q-4 -38 31 -65q8 -6 25 -17q15 -11 22 -16t20 -15.5t17.5 -16t14 -18t9 -21t4 -24t-1.5 -28.5q-11 -83 -83.5 -133.5t-179.5 -50.5q-51 0 -96 14l17 132h43l-5 -78q-1 -6 5 -7
q23 -5 50 -4q74 2 122 37t56 96q5 34 -11.5 54.5t-61.5 52.5q-17 12 -26 18q-50 38 -42 97q7 48 47 83q3 2 10 7q27 22 39 32.5t22.5 27.5t13.5 39q7 47 -24 74t-93 27q-65 0 -107 -33t-50 -88l-81 -573h-144l5 40q1 4 5 4l56 5q13 1 15 14l72 515q11 79 72 125.5t157 46.5z
" />
    <glyph glyph-name="agrave" unicode="&#xe0;" horiz-adv-x="627" 
d="M401 572h-59l-101 149h78zM369 510q88 1 180 -45q4 -2 3 -6l-47 -338q-11 -81 63 -83h4l-6 -38h-35q-47 0 -70.5 22t-20.5 63l2 17q-44 -54 -97.5 -83t-104.5 -29q-82 0 -127 68.5t-27 196.5q17 121 95 187.5t188 67.5zM374 462q-87 -1 -147.5 -56t-75.5 -159
q-14 -99 18.5 -152t92.5 -53q44 1 92.5 31.5t90.5 88.5l41 277q-55 23 -112 23z" />
    <glyph glyph-name="aacute" unicode="&#xe1;" horiz-adv-x="627" 
d="M386 572h-61l124 149h81zM369 510q88 1 180 -45q4 -1 3 -6l-47 -339q-11 -80 63 -82h4l-6 -38h-35q-47 0 -70.5 22t-20.5 63l2 17q-29 -36 -63.5 -61t-69.5 -38t-69 -13q-82 0 -127 68.5t-27 196.5q17 121 95 187.5t188 67.5zM374 462q-87 -1 -147.5 -56t-75.5 -159
q-14 -99 18.5 -152t92.5 -53q44 1 92.5 31.5t90.5 88.5l41 277q-55 23 -112 23z" />
    <glyph glyph-name="acircumflex" unicode="&#xe2;" horiz-adv-x="627" 
d="M510 572h-59l-70 111l-104 -111h-61l126 149h84zM369 510q88 1 180 -45q4 -2 3 -6l-47 -339q-11 -80 63 -82h4l-6 -38h-35q-47 0 -70.5 22t-20.5 63l2 17q-44 -54 -97.5 -83t-104.5 -29q-82 0 -127 68.5t-27 196.5q11 81 52.5 139.5t100.5 86.5t130 29zM374 462
q-87 -1 -147.5 -56t-75.5 -159q-14 -99 18.5 -152t92.5 -53q44 1 92.5 31.5t90.5 88.5l41 277q-55 23 -112 23z" />
    <glyph glyph-name="atilde" unicode="&#xe3;" horiz-adv-x="627" 
d="M472 672l43 -13q-9 -34 -29.5 -53t-47.5 -21q-30 -3 -66 16q-7 4 -18 9.5l-17 8.5t-14 5.5t-13 1.5q-20 -1 -39 -44l-43 16q24 68 68 72q6 0 13 -1t11.5 -2t14 -5t12.5 -5t13.5 -6t11.5 -6q36 -17 56 -14q24 3 44 41zM369 510q88 1 180 -45q4 -2 3 -6l-47 -338
q-11 -81 63 -83h4l-6 -38h-35q-47 0 -70.5 22t-20.5 63l2 17q-44 -54 -97.5 -83t-104.5 -29q-82 0 -127 68.5t-27 196.5q17 121 95 187.5t188 67.5zM374 462q-42 -1 -79 -14.5t-66.5 -39.5t-50 -67.5t-27.5 -93.5q-14 -99 18.5 -152t92.5 -53q44 1 92.5 31.5t90.5 88.5
l41 277q-55 23 -112 23z" />
    <glyph glyph-name="adieresis" unicode="&#xe4;" horiz-adv-x="627" 
d="M294 674q17 0 27.5 -12.5t7.5 -29.5q-2 -14 -13.5 -24t-25.5 -10q-18 0 -28 12.5t-8 29.5q2 9 7.5 17t14 12.5t18.5 4.5zM456 674q17 0 27.5 -12.5t7.5 -29.5q-2 -14 -13.5 -24t-25.5 -10q-12 0 -20.5 6t-12.5 15.5t-3 20.5q2 14 13.5 24t26.5 10zM369 510q88 1 180 -45
q4 -1 3 -6l-47 -339q-11 -80 63 -82h4l-6 -38h-35q-47 0 -70.5 22t-20.5 63l2 17q-44 -54 -97.5 -83t-104.5 -29q-82 0 -127 68.5t-27 196.5q17 121 95 187.5t188 67.5zM374 462q-87 -1 -147.5 -56t-75.5 -159q-14 -99 18.5 -152t92.5 -53q44 1 92.5 31.5t90.5 88.5l41 277
q-55 23 -112 23z" />
    <glyph glyph-name="aring" unicode="&#xe5;" horiz-adv-x="627" 
d="M385 745q29 0 51 -14t32.5 -38.5t6.5 -52.5q-6 -40 -38.5 -69t-73.5 -29q-44 0 -70 31.5t-20 74.5q6 40 38.5 68.5t73.5 28.5zM386 709q-26 0 -47.5 -20t-25.5 -49q-2 -18 3.5 -32t17.5 -21.5t28 -7.5q10 0 20 3t18.5 9.5t15.5 15t12 19t7 22.5q2 18 -3.5 32t-17.5 21.5
t-28 7.5zM369 510q88 1 180 -45q4 -2 3 -6l-47 -339q-11 -80 63 -82h4l-6 -38h-35q-47 0 -70.5 22t-20.5 63l2 17q-44 -54 -97.5 -83t-104.5 -29q-82 0 -127 68.5t-27 196.5q11 81 52.5 139.5t100.5 86.5t130 29zM374 462q-87 -1 -147.5 -56t-75.5 -159q-14 -99 18.5 -152
t92.5 -53q44 1 92.5 31.5t90.5 88.5l41 277q-55 23 -112 23z" />
    <glyph glyph-name="ae" unicode="&#xe6;" horiz-adv-x="946" 
d="M762 510q60 0 103.5 -21.5t64 -57.5t19.5 -82q-4 -126 -208 -163q-71 -12 -182 -16q7 -62 44.5 -97t97.5 -35q98 1 174 65l20 -45q-78 -68 -197 -68q-75 0 -126 37t-69 101q-125 -138 -250 -138q-88 0 -136.5 68.5t-30.5 196.5q17 121 95 187.5t188 67.5q88 1 180 -45
q4 -1 3 -5l-11 -76q36 60 93 93t128 33zM759 465q-75 0 -127.5 -54.5t-65.5 -141.5q-4 -27 -4 -52q99 2 163 14q156 28 159 123q1 24 -7.5 44t-24 35t-39.5 23.5t-54 8.5zM374 462q-87 -1 -147.5 -56t-75.5 -159q-14 -100 18.5 -152.5t92.5 -52.5q44 1 92.5 31.5t90.5 88.5
l41 277q-55 23 -112 23z" />
    <glyph glyph-name="ccedilla" unicode="&#xe7;" horiz-adv-x="500" 
d="M369 510q84 0 140 -44q3 -2 2 -5l-16 -117h-42l5 88q0 6 -4 8q-36 22 -86 22q-84 0 -143.5 -58.5t-73.5 -157.5q-14 -97 28 -152.5t124 -55.5q72 0 140 45l18 -46q-67 -46 -157 -47q-14 0 -39 2l-23 -45q9 0 18 -3q28 -7 43.5 -28t10.5 -50q-5 -31 -34 -52.5t-68 -21.5
q-42 2 -70 25l13 32q22 -18 51 -18q21 0 37 12.5t21 33.5q3 23 -10.5 34t-35.5 13q-13 0 -26 -2l35 79q-79 22 -117 89.5t-24 163.5q16 114 93.5 185t189.5 71z" />
    <glyph glyph-name="egrave" unicode="&#xe8;" horiz-adv-x="538" 
d="M400 572h-59l-101 149h78zM354 510q90 0 139.5 -45.5t47.5 -115.5q-4 -126 -209 -163q-70 -12 -181 -16q7 -62 44.5 -97t98.5 -35q97 1 173 65l20 -45q-78 -68 -197 -68q-109 0 -165 73.5t-39 190.5q16 115 88.5 185.5t179.5 70.5zM351 465q-75 0 -127.5 -54.5
t-65.5 -141.5q-4 -27 -4 -52q99 2 163 14q156 28 159 123q1 32 -13.5 57t-43.5 39.5t-68 14.5z" />
    <glyph glyph-name="eacute" unicode="&#xe9;" horiz-adv-x="538" 
d="M385 572h-61l124 149h81zM354 510q90 0 139.5 -45.5t47.5 -115.5q-4 -126 -209 -163q-70 -12 -181 -16q7 -62 44.5 -97t97.5 -35q99 1 174 65l20 -45q-78 -68 -197 -68q-109 0 -165 73.5t-39 190.5q16 115 88.5 185.5t179.5 70.5zM351 465q-75 0 -127.5 -54.5
t-65.5 -141.5q-4 -27 -4 -52q99 2 163 14q156 28 159 123q2 49 -32 80t-93 31z" />
    <glyph glyph-name="ecircumflex" unicode="&#xea;" horiz-adv-x="538" 
d="M509 572h-59l-70 111l-103 -111h-62l127 149h83zM354 510q90 0 139.5 -45.5t47.5 -115.5q-4 -126 -209 -163q-70 -12 -181 -16q7 -62 44.5 -97t98.5 -35q97 1 173 65l20 -45q-78 -68 -197 -68q-109 0 -165 73.5t-39 190.5q16 115 88.5 185.5t179.5 70.5zM351 465
q-75 0 -127.5 -54.5t-65.5 -141.5q-4 -27 -4 -52q99 2 163 14q156 28 159 123q1 32 -13.5 57t-43.5 39.5t-68 14.5z" />
    <glyph glyph-name="edieresis" unicode="&#xeb;" horiz-adv-x="538" 
d="M293 674q17 0 27.5 -12.5t7.5 -29.5q-2 -14 -13.5 -24t-25.5 -10q-18 0 -28 12.5t-8 29.5q2 14 13.5 24t26.5 10zM455 674q17 0 27.5 -12.5t7.5 -29.5q-2 -14 -13.5 -24t-25.5 -10q-12 0 -20.5 6t-12.5 15.5t-3 20.5q2 14 13.5 24t26.5 10zM354 510q90 0 139.5 -45.5
t47.5 -115.5q-4 -126 -209 -163q-70 -12 -181 -16q7 -62 44.5 -97t98.5 -35q98 1 173 65l20 -45q-78 -68 -197 -68q-109 0 -165 73.5t-39 190.5q16 115 88.5 185.5t179.5 70.5zM351 465q-75 0 -127.5 -54.5t-65.5 -141.5q-4 -27 -4 -52q99 2 163 14q156 28 159 123
q1 32 -13.5 57t-43.5 39.5t-68 14.5z" />
    <glyph glyph-name="igrave" unicode="&#xec;" horiz-adv-x="351" 
d="M285 572h-59l-102 149h79zM137 498l130 7q2 0 4 -1t3 -3t0 -4l-52 -369q-6 -43 10.5 -65.5t54.5 -24.5h7l-5 -38h-20q-62 0 -91 34t-20 96l44 314q1 11 -9 11l-61 3z" />
    <glyph glyph-name="iacute" unicode="&#xed;" horiz-adv-x="351" 
d="M270 572h-61l123 149h81zM137 498l130 7q2 0 4 -1t3 -3t0 -4l-52 -369q-6 -43 10.5 -65.5t54.5 -24.5h7l-5 -38h-20q-62 0 -91 34t-20 96l44 314q1 11 -9 11l-61 3z" />
    <glyph glyph-name="icircumflex" unicode="&#xee;" horiz-adv-x="351" 
d="M394 572h-59l-71 111l-103 -111h-61l126 149h84zM137 498l130 7q3 1 5.5 -2t1.5 -6l-52 -369q-12 -87 65 -90h7l-5 -38h-20q-62 0 -91 34t-20 96l44 314q1 11 -9 11l-61 3z" />
    <glyph glyph-name="idieresis" unicode="&#xef;" horiz-adv-x="351" 
d="M178 674q17 0 27.5 -12.5t7.5 -29.5q-2 -14 -13.5 -24t-26.5 -10q-17 0 -27 12.5t-8 29.5q2 14 13.5 24t26.5 10zM340 674q17 0 27.5 -12.5t7.5 -29.5q-2 -14 -13.5 -24t-26.5 -10q-17 0 -27 12.5t-8 29.5q2 14 13.5 24t26.5 10zM137 498l130 7q3 1 5.5 -2t1.5 -6
l-52 -369q-6 -43 10.5 -65.5t54.5 -24.5h7l-5 -38h-20q-62 0 -91 34t-20 96l44 314q1 11 -9 11l-61 3z" />
    <glyph glyph-name="eth" unicode="&#xf0;" horiz-adv-x="522" 
d="M545 671l-106 -50q16 -20 29 -41q59 -96 51 -221q-7 -103 -41 -184t-92.5 -128.5t-132.5 -53.5q-91 -7 -142.5 51t-45.5 159q6 94 65 156t151 69q59 5 102.5 -18t63.5 -67q4 27 1 57q-1 112 -71 187l-3 4l-139 -66l-21 35l132 62q-68 64 -170 75l13 51q131 -10 221 -96
l114 53zM252 47q66 5 116.5 61t71.5 149l-3 18q-10 54 -46 80.5t-93 21.5q-70 -5 -116.5 -54t-51.5 -127q-4 -74 29 -114t93 -35z" />
    <glyph glyph-name="ntilde" unicode="&#xf1;" horiz-adv-x="700" 
d="M538 672l43 -13q-9 -34 -29.5 -53t-47.5 -21q-30 -3 -66 16q-7 4 -18 9.5l-17 8.5t-14 5.5t-13 1.5q-20 -1 -39 -44l-43 16q24 68 68 72q6 0 13 -1t11.5 -2t14 -5t12.5 -5t13.5 -6t11.5 -6q36 -17 56 -14q24 3 44 41zM478 510q75 0 112 -41.5t25 -124.5l-30 -216
q-4 -29 1.5 -48.5t21.5 -30t41 -11.5h4l-5 -38h-16q-63 0 -92 34t-20 96l29 208q18 124 -92 124q-53 0 -109 -31.5t-101 -91.5l-49 -339h-65l63 444q1 11 -9 11l-62 3l6 40l130 7q8 1 7 -8l-15 -100q100 113 225 113z" />
    <glyph glyph-name="ograve" unicode="&#xf2;" 
d="M418 572h-59l-102 149h79zM369 510q114 0 173 -73.5t43 -190.5q-16 -114 -93.5 -185t-189.5 -71q-114 0 -173.5 73.5t-42.5 190.5q16 114 93.5 185t189.5 71zM368 462q-84 0 -143.5 -58.5t-73.5 -157.5q-14 -96 28 -151.5t123 -55.5q85 0 144.5 58t73.5 157
q13 96 -28.5 152t-123.5 56z" />
    <glyph glyph-name="oacute" unicode="&#xf3;" 
d="M403 572h-61l123 149h81zM369 510q75 0 128.5 -33.5t76 -93.5t11.5 -137q-16 -114 -93.5 -185t-189.5 -71q-114 0 -173.5 73.5t-42.5 190.5q16 114 93.5 185t189.5 71zM368 462q-84 0 -143.5 -58.5t-73.5 -157.5q-14 -96 28 -151.5t123 -55.5q85 0 144.5 58t73.5 157
q13 96 -28.5 152t-123.5 56z" />
    <glyph glyph-name="ocircumflex" unicode="&#xf4;" 
d="M527 572h-59l-70 111l-104 -111h-61l126 149h84zM369 510q75 0 128.5 -33.5t76 -93.5t11.5 -137q-16 -114 -93.5 -185t-189.5 -71q-114 0 -173.5 73.5t-42.5 190.5q16 114 93.5 185t189.5 71zM368 462q-84 0 -143.5 -58.5t-73.5 -157.5q-14 -96 28 -151.5t123 -55.5
q85 0 144.5 58t73.5 157q13 96 -28.5 152t-123.5 56z" />
    <glyph glyph-name="otilde" unicode="&#xf5;" 
d="M488 672l44 -13q-9 -34 -29.5 -53t-47.5 -21q-30 -3 -66 16q-7 4 -18 9.5t-17.5 8.5t-14 5.5t-12.5 1.5q-20 -1 -39 -44l-43 16q24 68 67 72q6 0 11 -0.5t11 -2t11 -3t12 -4.5l10.5 -4.5t11.5 -5.5l10 -5q36 -17 56 -14q24 3 43 41zM369 510q75 0 128.5 -33.5t76 -93.5
t11.5 -137q-16 -114 -93.5 -185t-189.5 -71q-114 0 -173.5 73.5t-42.5 190.5q16 114 93.5 185t189.5 71zM368 462q-84 0 -143.5 -58.5t-73.5 -157.5q-14 -96 28 -151.5t123 -55.5q85 0 144.5 58t73.5 157q13 96 -28.5 152t-123.5 56z" />
    <glyph glyph-name="odieresis" unicode="&#xf6;" 
d="M311 674q17 0 27.5 -12.5t7.5 -29.5q-2 -14 -13.5 -24t-26.5 -10q-17 0 -27 12.5t-8 29.5q1 9 6.5 17t14.5 12.5t19 4.5zM473 674q17 0 27.5 -12.5t7.5 -29.5q-2 -14 -13.5 -24t-26.5 -10q-11 0 -20 6t-13 15.5t-2 20.5q2 14 13.5 24t26.5 10zM369 510q75 0 128.5 -33.5
t76 -93.5t11.5 -137q-16 -114 -93.5 -185t-189.5 -71q-114 0 -173.5 73.5t-42.5 190.5q16 114 93.5 185t189.5 71zM368 462q-84 0 -143.5 -58.5t-73.5 -157.5q-14 -96 28 -151.5t123 -55.5q85 0 144.5 58t73.5 157q13 96 -28.5 152t-123.5 56z" />
    <glyph glyph-name="divide" unicode="&#xf7;" horiz-adv-x="553" 
d="M353 566q18 0 29 -13.5t9 -30.5q-2 -15 -14.5 -26t-28.5 -11q-18 0 -29 13.5t-8 31.5q2 14 14.5 25t27.5 11zM553 319h-464l8 57h464zM303 210q18 0 29 -13.5t9 -31.5q-3 -14 -15 -25t-28 -11q-18 0 -29 13.5t-8 30.5q1 10 7 18t15.5 13.5t19.5 5.5z" />
    <glyph glyph-name="oslash" unicode="&#xf8;" 
d="M504 550l-29 -62q64 -29 93 -93t17 -149q-16 -114 -93.5 -185t-189.5 -71q-29 0 -56 5l-21 -45h-58l28 62q-63 29 -92 93t-17 149q16 114 93.5 185t189.5 71q29 0 55 -5l22 45h58zM151 246q-9 -66 8.5 -114t58.5 -72l185 399q-16 3 -35 3q-84 0 -143.5 -58.5
t-73.5 -157.5zM520 254q9 67 -8.5 115t-58.5 72l-185 -399q16 -3 34 -3q85 0 144.5 58t73.5 157z" />
    <glyph glyph-name="ugrave" unicode="&#xf9;" horiz-adv-x="691" 
d="M463 572h-59l-101 149h79zM637 500l-54 -384q-5 -37 7.5 -56.5t41.5 -19.5l12 -1l-5 -39h-48q-41 1 -60.5 24.5t-15.5 66.5l1 11q-99 -112 -224 -112q-75 0 -112 41.5t-25 124.5l40 286q2 10 -8 11l-70 6l6 41h137q8 0 7 -9l-46 -329q-18 -124 92 -124q53 0 109 31.5
t102 91.5l48 339h65z" />
    <glyph glyph-name="uacute" unicode="&#xfa;" horiz-adv-x="691" 
d="M449 572h-62l124 149h81zM637 500l-54 -384q-11 -75 49 -76l12 -1l-5 -39h-48q-41 1 -60.5 24.5t-15.5 66.5l1 11q-99 -112 -224 -112q-75 0 -112 41.5t-25 124.5l40 286q2 10 -8 11l-70 6l6 41h137q8 0 7 -9l-46 -329q-18 -124 92 -124q53 0 109 31.5t102 91.5l48 339
h65z" />
    <glyph glyph-name="ucircumflex" unicode="&#xfb;" horiz-adv-x="691" 
d="M573 572h-59l-71 111l-103 -111h-61l126 149h83zM637 500l-54 -384q-11 -75 49 -76l12 -1l-5 -39h-48q-41 1 -60.5 24.5t-15.5 66.5l1 11q-99 -112 -224 -112q-75 0 -112 41.5t-25 124.5l40 286q2 10 -8 11l-70 6l6 41h137q8 0 7 -9l-46 -329q-18 -124 92 -124
q53 0 109 31.5t102 91.5l48 339h65z" />
    <glyph glyph-name="udieresis" unicode="&#xfc;" horiz-adv-x="691" 
d="M356 674q18 0 28 -12.5t8 -29.5q-2 -14 -13.5 -24t-26.5 -10q-17 0 -27.5 12.5t-7.5 29.5q2 14 13.5 24t25.5 10zM518 674q18 0 28 -12.5t8 -29.5q-2 -14 -13.5 -24t-26.5 -10q-11 0 -20 6t-13 15.5t-2 20.5q1 14 13 24t26 10zM637 500l-54 -384q-11 -75 49 -76l12 -1
l-5 -39h-48q-41 1 -60.5 24.5t-15.5 66.5l1 11q-99 -112 -224 -112q-75 0 -112 41.5t-25 124.5l40 286q2 10 -8 11l-70 6l6 41h137q8 0 7 -9l-46 -329q-18 -124 92 -124q53 0 109 31.5t102 91.5l48 339h65z" />
    <glyph glyph-name="yacute" unicode="&#xfd;" horiz-adv-x="557" 
d="M382 572h-61l123 149h81zM286 65l172 322q29 53 66.5 83t75.5 30h11l-4 -39q-23 0 -52 -27.5t-54 -74.5l-240 -444q-28 -53 -72 -82.5t-95 -30.5h-42l5 38l22 2q41 2 78.5 29t63.5 74l30 55h-11l-112 450q-1 4 -7 5l-32 4q-7 0 -6 8l4 33h97z" />
    <glyph glyph-name="thorn" unicode="&#xfe;" horiz-adv-x="622" 
d="M172 744l129 7q9 0 8 -9l-44 -305q78 73 169 73q89 0 139.5 -69t32.5 -196q-16 -111 -77 -182.5t-149 -72.5q-49 0 -91.5 26t-70.5 76l-33 -233q-2 -10 8 -11l71 -5l-5 -41h-217l5 37q0 4 5 4l53 5q13 2 15 15l116 827q2 10 -9 11l-61 3zM412 458q-83 -1 -154 -82
l-33 -227q22 -56 58 -83.5t78 -27.5q63 1 114.5 57.5t65.5 157.5q14 98 -24 151.5t-105 53.5z" />
    <glyph glyph-name="ydieresis" unicode="&#xff;" horiz-adv-x="557" 
d="M290 674q17 0 27 -12.5t8 -29.5q-2 -14 -13.5 -24t-26.5 -10q-17 0 -27 12.5t-8 29.5q1 9 6.5 17t14.5 12.5t19 4.5zM452 674q17 0 27 -12.5t8 -29.5q-2 -14 -13.5 -24t-26.5 -10q-17 0 -27.5 12.5t-7.5 29.5q2 14 13.5 24t26.5 10zM611 500l-4 -39q-23 0 -52 -27.5
t-54 -74.5l-240 -444q-28 -53 -72 -82.5t-95 -30.5h-42l5 38l22 2q41 2 78.5 29t63.5 74l30 55h-11l-112 450q-1 4 -7 5l-32 4q-7 0 -6 8l4 33h97l102 -435l172 322q29 53 66.5 83t75.5 30h11z" />
    <glyph glyph-name="Amacron" unicode="&#x100;" horiz-adv-x="771" 
d="M639 801h-282l7 49h282zM694 49l57 -5l-6 -44h-229l5 39q1 4 5 5l69 5q8 1 14 7t3 15l-39 140h-330l-88 -160l87 -7l-7 -44h-209l5 40q1 4 5 5l46 3q7 1 12 9l353 641l68 3zM272 268h288l-94 352z" />
    <glyph glyph-name="amacron" unicode="&#x101;" horiz-adv-x="627" 
d="M509 601h-282l7 49h282zM369 510q88 1 180 -45q4 -2 3 -6l-47 -338q-11 -81 63 -83h4l-6 -38h-35q-47 0 -70.5 22t-20.5 63l2 17q-44 -54 -97.5 -83t-104.5 -29q-82 0 -127 68.5t-27 196.5q17 121 95 187.5t188 67.5zM374 462q-42 -1 -79 -14.5t-66.5 -39.5t-50 -67.5
t-27.5 -93.5q-14 -99 18.5 -152t92.5 -53q44 1 92.5 31.5t90.5 88.5l41 277q-55 23 -112 23z" />
    <glyph glyph-name="Abreve" unicode="&#x102;" horiz-adv-x="771" 
d="M601 907l47 -4q-8 -56 -51.5 -94t-99.5 -38q-38 0 -67.5 18.5t-43 49.5t-8.5 68l47 -4q-5 -39 16 -65t56 -26q24 0 46.5 12.5t38 34.5t19.5 48zM694 49l57 -5l-6 -44h-229l5 39q1 4 5 5l69 5q8 1 14 7t3 15l-39 140h-330l-88 -160l87 -7l-7 -44h-209l5 40q1 4 5 5l46 3
q7 1 12 9l353 641l68 3zM272 268h288l-94 352z" />
    <glyph glyph-name="abreve" unicode="&#x103;" horiz-adv-x="627" 
d="M470 707l47 -4q-7 -56 -50.5 -94t-99.5 -38q-38 0 -67.5 18.5t-43.5 49.5t-9 68l48 -4q-6 -39 15 -65t56 -26q37 0 68 27.5t36 67.5zM369 510q88 1 180 -45q4 -2 3 -6l-47 -339q-11 -80 63 -82h4l-6 -38h-35q-47 0 -70.5 22t-20.5 63l2 17q-44 -54 -97.5 -83t-104.5 -29
q-82 0 -127 68.5t-27 196.5q17 121 95 187.5t188 67.5zM374 462q-87 -1 -147.5 -56t-75.5 -159q-14 -99 18.5 -152t92.5 -53q44 1 92.5 31.5t90.5 88.5l41 277q-55 23 -112 23z" />
    <glyph glyph-name="Aogonek" unicode="&#x104;" horiz-adv-x="771" 
d="M694 49l57 -5l-6 -44l-177 -1q-63 -39 -71 -95q-3 -18 1.5 -31t14.5 -19.5t25 -7.5q23 0 59 18l8 -39q-42 -21 -78 -21q-27 0 -46.5 12.5t-27.5 32.5t-5 45q6 61 67 107l6 38q1 4 5 5l69 5q8 1 14 7t3 15l-39 140h-330l-88 -160l87 -7l-7 -44h-209l5 40q1 4 5 5l46 3
q7 1 12 9l353 641l68 3zM272 268h288l-94 352z" />
    <glyph glyph-name="aogonek" unicode="&#x105;" horiz-adv-x="627" 
d="M369 510q88 1 180 -45q4 -1 3 -6l-47 -339q-11 -80 63 -82h4l-6 -38h-3q-22 0 -51 3q-70 -39 -79 -99q-4 -27 7 -42t34 -16q23 0 59 18l8 -39q-42 -21 -78 -21q-41 0 -62 26t-17 64q3 32 25.5 64.5t62.5 56.5q-36 19 -32 73l2 14q-44 -54 -97.5 -83t-104.5 -29
q-82 0 -127 68.5t-27 196.5q17 121 95 187.5t188 67.5zM374 462q-87 -1 -147.5 -56t-75.5 -159q-14 -99 18.5 -152t92.5 -53q44 1 92.5 31.5t90.5 88.5l41 277q-55 23 -112 23z" />
    <glyph glyph-name="Cacute" unicode="&#x106;" horiz-adv-x="649" 
d="M507 772h-62l124 149h81zM489 709q118 0 195 -65q3 -1 3 -4l-18 -124h-43l6 88q1 6 -1 10q-62 38 -144 38q-121 0 -206 -82.5t-105 -223.5q-20 -139 41.5 -219t181.5 -80q109 1 203 69l22 -51q-99 -74 -230 -74q-154 0 -234 100.5t-57 262.5q14 104 67 185t136 125.5
t183 44.5z" />
    <glyph glyph-name="cacute" unicode="&#x107;" horiz-adv-x="500" 
d="M383 572h-62l124 149h81zM369 510q84 0 140 -44q3 -2 2 -5l-16 -117h-42l5 88q0 6 -4 8q-36 22 -86 22q-84 0 -143.5 -58.5t-73.5 -157.5q-14 -97 28 -152.5t124 -55.5q72 0 140 45l18 -46q-69 -47 -159 -47q-114 0 -173.5 73.5t-42.5 190.5q16 114 93.5 185t189.5 71z
" />
    <glyph glyph-name="Cdotaccent" unicode="&#x10a;" horiz-adv-x="649" 
d="M495 874q18 0 28 -12.5t8 -29.5q-2 -14 -13.5 -24t-26.5 -10q-17 0 -27.5 12.5t-7.5 29.5q2 14 13 24t26 10zM489 709q118 0 195 -65q3 -1 3 -4l-18 -124h-43l6 88q1 5 -1 10q-62 38 -144 38q-121 0 -206 -82.5t-105 -223.5q-20 -139 41.5 -219t181.5 -80q109 1 203 69
l22 -50q-99 -75 -230 -75q-154 0 -234 100.5t-57 262.5q22 158 128 256.5t258 98.5z" />
    <glyph glyph-name="cdotaccent" unicode="&#x10b;" horiz-adv-x="500" 
d="M373 674q18 0 28 -12.5t8 -29.5q-2 -14 -13.5 -24t-26.5 -10q-17 0 -27.5 12.5t-7.5 29.5q1 9 6.5 17t14.5 12.5t18 4.5zM369 510q84 0 140 -44q3 -2 2 -5l-16 -117h-42l5 88q1 6 -4 8q-36 22 -86 22q-84 0 -143.5 -58.5t-73.5 -157.5q-7 -48 0.5 -87t27.5 -65.5t52 -41
t72 -14.5q72 0 140 45l18 -46q-69 -47 -159 -47q-114 0 -173.5 73.5t-42.5 190.5q16 114 93.5 185t189.5 71z" />
    <glyph glyph-name="Ccaron" unicode="&#x10c;" horiz-adv-x="649" 
d="M527 772h-84l-84 149h59l70 -111l104 111h61zM489 709q118 0 195 -65q3 -1 3 -4l-18 -124h-43l6 88q1 6 -1 10q-62 38 -144 38q-121 0 -206 -82.5t-105 -223.5q-20 -139 41.5 -219t181.5 -80q109 1 203 69l22 -50q-99 -75 -230 -75q-154 0 -234 100.5t-57 262.5
q22 158 128 256.5t258 98.5z" />
    <glyph glyph-name="ccaron" unicode="&#x10d;" horiz-adv-x="500" 
d="M403 572h-84l-84 149h59l70 -111l104 111h61zM369 510q84 0 140 -44q3 -2 2 -5l-16 -117h-42l5 88q0 6 -4 8q-36 22 -86 22q-41 0 -78 -15t-65 -42.5t-47.5 -68.5t-26.5 -90q-14 -97 28 -152.5t124 -55.5q72 0 140 45l18 -46q-69 -47 -159 -47q-114 0 -173.5 73.5
t-42.5 190.5q16 114 93.5 185t189.5 71z" />
    <glyph glyph-name="Dcaron" unicode="&#x10e;" horiz-adv-x="754" 
d="M528 772h-83l-85 149h59l71 -111l103 111h61zM166 700h294q154 0 234 -97t57 -257q-22 -158 -127.5 -252t-258.5 -94h-298l6 40q0 4 5 4l63 6q5 0 9.5 4.5t5.5 9.5l81 576q2 10 -8 11l-62 5q-3 0 -5 3t-1 5zM373 643l-65 -5l-81 -576l64 -5h79q121 0 204.5 78.5
t103.5 218.5q19 137 -41 213t-182 76h-82z" />
    <glyph glyph-name="dcaron" unicode="&#x10f;" horiz-adv-x="655" 
d="M710 750q28 0 35.5 -29t-7.5 -68q-16 -41 -41 -74l-30 13q19 31 28 56q8 25 3 38h-3q-10 3 -15.5 12.5t-4.5 21.5q2 12 12 21t23 9zM449 743l130 7q9 0 7 -9l-89 -637q-9 -64 65 -66h4l-5 -38h-36q-48 0 -72 18.5t-21 52.5q-25 -26 -54 -44.5t-59.5 -27.5t-60.5 -9
q-89 0 -139.5 69t-32.5 196q16 112 77 183.5t149 71.5q49 0 91.5 -26t69.5 -76l41 281q1 10 -9 11l-61 3zM331 462q-63 -1 -114.5 -57.5t-65.5 -157.5q-14 -98 24 -151.5t105 -53.5q83 0 154 82l33 227q-22 56 -58 83.5t-78 27.5z" />
    <glyph glyph-name="Dcroat" unicode="&#x110;" horiz-adv-x="754" 
d="M166 700h294q154 0 234 -97t57 -257q-22 -158 -127.5 -252t-258.5 -94h-298l6 40q0 4 5 4l63 6q5 0 9.5 4.5t5.5 9.5l36 258h-103l8 56h103l37 262q2 10 -8 11l-62 5q-3 0 -5 3t-1 5zM678 354q19 137 -41 213t-182 76h-82l-65 -5l-36 -260h140l-8 -56h-140l-37 -260
l64 -5h79q121 0 204.5 78.5t103.5 218.5z" />
    <glyph glyph-name="dcroat" unicode="&#x111;" horiz-adv-x="621" 
d="M565 592l-68 -488q-9 -64 65 -66l4 1l-5 -39h-36q-48 0 -72 18.5t-21 52.5q-37 -39 -83 -60t-91 -21q-89 0 -139.5 69t-32.5 196q16 112 77 183.5t149 71.5q49 0 91.5 -26t69.5 -76l27 184h-131l6 47h132l15 108l57 3q9 0 7 -9l-14 -102h87l-7 -47h-87zM434 124l33 227
q-22 56 -58 83.5t-78 27.5q-41 0 -77.5 -24t-65 -74t-37.5 -117q-14 -99 24 -152t105 -53q83 0 154 82z" />
    <glyph glyph-name="Emacron" unicode="&#x112;" horiz-adv-x="584" 
d="M571 801h-282l7 49h282zM166 700h455q8 0 7 -9l-20 -137h-42l5 79q1 10 -10 10h-252l-37 -260h230l-8 -54h-229l-38 -272h267q5 0 10 4t6 10l17 75h43l-20 -141q-1 -5 -6 -5h-477l6 40q0 4 5 4l63 6q5 0 9.5 4.5t5.5 9.5l81 576q2 10 -8 11l-62 5q-7 1 -6 8z" />
    <glyph glyph-name="emacron" unicode="&#x113;" horiz-adv-x="538" 
d="M508 601h-282l7 49h282zM354 510q90 0 139.5 -45.5t47.5 -115.5q-4 -126 -209 -163q-70 -12 -181 -16q7 -62 44.5 -97t97.5 -35q98 1 174 65l20 -45q-78 -68 -197 -68q-109 0 -165 73.5t-39 190.5q10 76 46 133.5t93.5 90t128.5 32.5zM351 465q-75 0 -127.5 -54.5
t-65.5 -141.5q-4 -27 -4 -52q99 2 163 14q156 28 159 123q2 49 -32 80t-93 31z" />
    <glyph glyph-name="Edotaccent" unicode="&#x116;" horiz-adv-x="584" 
d="M437 874q17 0 27.5 -12.5t7.5 -29.5q-1 -14 -13 -24t-26 -10q-18 0 -28 12.5t-8 29.5q2 14 13.5 24t26.5 10zM166 700h455q8 0 7 -9l-20 -137h-42l5 79q1 10 -10 10h-252l-37 -260h230l-8 -54h-229l-38 -272h267q4 0 7.5 2t6 5t2.5 7l17 75h43l-20 -141q-1 -5 -6 -5h-477
l6 40q0 4 5 4l63 6q5 0 9.5 4.5t5.5 9.5l81 576q2 10 -8 11l-62 5q-7 1 -6 8z" />
    <glyph glyph-name="edotaccent" unicode="&#x117;" horiz-adv-x="538" 
d="M374 674q17 0 27.5 -12.5t7.5 -29.5q-2 -14 -13.5 -24t-25.5 -10q-18 0 -28 12.5t-8 29.5q2 14 13.5 24t26.5 10zM354 510q90 0 139.5 -45.5t47.5 -115.5q-4 -126 -209 -163q-70 -12 -181 -16q7 -62 44.5 -97t98.5 -35q97 1 173 65l20 -45q-78 -68 -197 -68
q-109 0 -165 73.5t-39 190.5q10 76 46 133.5t93.5 90t128.5 32.5zM351 465q-75 0 -127.5 -54.5t-65.5 -141.5q-4 -27 -4 -52q99 2 163 14q156 28 159 123q2 49 -32 80t-93 31z" />
    <glyph glyph-name="Eogonek" unicode="&#x118;" horiz-adv-x="584" 
d="M166 700h455q8 0 7 -9l-20 -137h-42l5 79q1 10 -10 10h-252l-37 -260h230l-8 -54h-229l-38 -272h267q2 0 4.5 0.5t4 2t3.5 3t3 4t1 4.5l17 75h43l-20 -141q-1 -5 -6 -5h-46q-63 -40 -72 -96q-3 -27 8 -42t34 -16q23 0 58 18l9 -39q-42 -21 -78 -21q-41 0 -62.5 26
t-16.5 64q5 60 65 106h-376l6 40q0 4 5 4l63 6q5 0 9.5 4.5t5.5 9.5l81 576q2 10 -8 11l-62 5q-7 1 -6 8z" />
    <glyph glyph-name="eogonek" unicode="&#x119;" horiz-adv-x="538" 
d="M354 510q90 0 139.5 -45.5t47.5 -115.5q-4 -125 -205 -162q-71 -13 -185 -17q7 -62 44.5 -97t97.5 -35q98 1 174 65l20 -45q-31 -27 -76 -47q-85 -40 -95 -107q-4 -27 7.5 -42t33.5 -16q24 0 59 18l9 -39q-43 -21 -78 -21q-42 0 -63 26t-17 64q6 56 60 101q-20 -6 -45 -4
q-105 2 -158.5 75t-37.5 188t88.5 185.5t179.5 70.5zM351 465q-75 0 -127.5 -54.5t-65.5 -141.5q-4 -27 -4 -52q99 2 163 14q156 28 159 123q2 49 -32 80t-93 31z" />
    <glyph glyph-name="Ecaron" unicode="&#x11a;" horiz-adv-x="584" 
d="M468 772h-83l-85 149h59l71 -111l103 111h62zM166 700h455q8 0 7 -9l-20 -137h-42l5 79q1 10 -10 10h-252l-37 -260h230l-8 -54h-229l-38 -272h267q5 0 10 4t6 10l17 75h43l-20 -141q-1 -5 -6 -5h-477l6 40q0 4 5 4l63 6q5 0 9.5 4.5t5.5 9.5l81 576q2 10 -8 11l-62 5
q-7 1 -6 8z" />
    <glyph glyph-name="ecaron" unicode="&#x11b;" horiz-adv-x="538" 
d="M405 572h-83l-85 149h59l71 -111l103 111h61zM354 510q90 0 139.5 -45.5t47.5 -115.5q-4 -126 -209 -163q-70 -12 -181 -16q7 -62 44.5 -97t97.5 -35q98 1 174 65l20 -45q-78 -68 -197 -68q-109 0 -165 73.5t-39 190.5q10 76 46 133.5t93.5 90t128.5 32.5zM351 465
q-75 0 -127.5 -54.5t-65.5 -141.5q-4 -27 -4 -52q99 2 163 14q156 28 159 123q2 49 -32 80t-93 31z" />
    <glyph glyph-name="Gbreve" unicode="&#x11e;" horiz-adv-x="705" 
d="M589 907l47 -4q-8 -56 -51.5 -94t-99.5 -38q-57 0 -92 40t-27 96l47 -4q-2 -20 2 -37t14 -28.5t24.5 -18.5t31.5 -7q37 0 67.5 27.5t36.5 67.5zM488 709q116 0 218 -62q4 -2 3 -6l-17 -124h-43l6 85q0 6 -2 10q-84 40 -166 40q-116 0 -203.5 -80t-107.5 -226
q-19 -138 40.5 -218.5t179.5 -80.5q114 0 197 75l22 146q1 10 -9 11l-164 8l6 46h232q2 0 4.5 -3t1.5 -6l-45 -324h-45l4 59q-93 -68 -216 -68q-149 0 -226.5 100.5t-54.5 262.5q12 85 48 153.5t88.5 112t116 66.5t132.5 23z" />
    <glyph glyph-name="gbreve" unicode="&#x11f;" horiz-adv-x="603" 
d="M469 707l47 -4q-8 -56 -51.5 -94t-99.5 -38q-57 0 -92 40t-27 96l47 -4q-5 -39 16 -65t56 -26q37 0 67.5 27.5t36.5 67.5zM369 510q88 1 180 -45q4 -2 3 -6l-64 -456q-6 -44 -21.5 -78.5t-37.5 -57.5t-50 -38t-58 -21t-63 -6q-91 0 -172 43l30 39q68 -35 136 -35
q67 1 113.5 38.5t58.5 118.5l13 90q-44 -51 -96 -78.5t-101 -27.5q-82 0 -127 68.5t-27 196.5q17 121 95 187.5t188 67.5zM374 462q-87 -1 -147.5 -56t-75.5 -159q-14 -100 18.5 -152.5t92.5 -52.5q29 0 59.5 13t63 40.5t60.5 66.5l41 277q-55 23 -112 23z" />
    <glyph glyph-name="Gdotaccent" unicode="&#x120;" horiz-adv-x="705" 
d="M494 874q17 0 27 -12.5t8 -29.5q-2 -14 -13.5 -24t-26.5 -10q-17 0 -27 12.5t-8 29.5q2 14 13.5 24t26.5 10zM488 709q116 0 218 -62q4 -2 3 -6l-17 -124h-43l6 85q0 6 -2 10q-84 40 -166 40q-116 0 -203.5 -80t-107.5 -226q-19 -138 40.5 -218.5t179.5 -80.5
q114 0 197 75l22 146q1 10 -9 11l-164 8l6 46h232q2 0 4.5 -3t1.5 -6l-45 -324h-45l4 59q-93 -68 -216 -68q-149 0 -226.5 100.5t-54.5 262.5q8 57 27 107t47 89t63 69.5t75 50t84 29.5t89 10z" />
    <glyph glyph-name="gdotaccent" unicode="&#x121;" horiz-adv-x="603" 
d="M374 674q17 0 27 -12.5t8 -29.5q-2 -14 -13.5 -24t-26.5 -10q-17 0 -27 12.5t-8 29.5q2 14 13.5 24t26.5 10zM369 510q88 1 180 -45q4 -2 3 -6l-64 -456q-6 -44 -21.5 -78.5t-37.5 -57.5t-50 -38t-58 -21t-63 -6q-91 0 -172 43l30 39q68 -35 136 -35q67 1 113.5 38.5
t58.5 118.5l13 90q-44 -51 -96 -78.5t-101 -27.5q-82 0 -127 68.5t-27 196.5q17 121 95 187.5t188 67.5zM374 462q-87 -1 -147.5 -56t-75.5 -159q-14 -100 18.5 -152.5t92.5 -52.5q44 1 92.5 31.5t90.5 88.5l41 277q-55 23 -112 23z" />
    <glyph glyph-name="Gcommaaccent" unicode="&#x122;" horiz-adv-x="705" 
d="M488 709q116 0 218 -62q4 -2 3 -6l-17 -124h-43l6 85q0 6 -2 10q-84 40 -166 40q-116 0 -203.5 -80t-107.5 -226q-19 -138 40.5 -218.5t179.5 -80.5q114 0 197 75l22 146q1 10 -9 11l-164 8l6 46h232q2 0 4.5 -3t1.5 -6l-45 -324h-45l4 59q-93 -68 -216 -68
q-149 0 -226.5 100.5t-54.5 262.5q12 85 48 153.5t88.5 112t116 66.5t132.5 23zM337 -51q28 0 35.5 -29t-7.5 -68q-16 -42 -41 -74l-30 13q18 30 26 54q10 27 5 40h-2q-10 3 -16 12.5t-4 21.5q1 12 11 20.5t23 9.5z" />
    <glyph glyph-name="gcommaaccent" unicode="&#x123;" horiz-adv-x="603" 
d="M372 756l29 -12q-17 -29 -26 -55t-4 -39h2q10 -3 16 -12.5t4 -21.5q-1 -8 -6 -14.5t-12.5 -11t-16.5 -4.5q-27 0 -34.5 28.5t7.5 68.5q12 36 41 73zM369 510q88 1 180 -45q4 -2 3 -6l-64 -456q-7 -54 -29 -94.5t-54 -63t-69 -33t-78 -10.5q-91 0 -172 43l30 39
q68 -35 136 -35q67 1 113.5 38.5t58.5 118.5l13 90q-44 -51 -96 -78.5t-101 -27.5q-82 0 -127 68.5t-27 196.5q11 81 52.5 139.5t100.5 86.5t130 29zM374 462q-87 -1 -147.5 -56t-75.5 -159q-14 -100 18.5 -152.5t92.5 -52.5q44 0 92.5 31t90.5 89l41 277q-55 23 -112 23z
" />
    <glyph glyph-name="Hbar" unicode="&#x126;" horiz-adv-x="859" 
d="M784 518l-65 -458q-1 -10 9 -11l69 -5l-6 -44h-241l5 40q1 4 5 4l73 7q14 1 16 14l37 264h-421l-38 -268q-1 -10 9 -11l78 -6l-6 -44h-241l6 40q1 4 5 4l63 5q13 2 15 15l64 454h-147l5 37h147l12 85q2 10 -8 11l-62 5q-7 1 -6 8l5 36h241l-6 -44l-78 -7q-13 -1 -15 -14
l-11 -80h421l11 84q2 10 -8 11l-71 6q-8 1 -7 8l5 36h241l-6 -44l-67 -6q-14 -1 -16 -14l-11 -81h147l-5 -37h-147zM694 386l18 131h-421l-18 -131h421z" />
    <glyph glyph-name="hbar" unicode="&#x127;" horiz-adv-x="706" 
d="M659 38l-5 -38h-16q-63 0 -91.5 34t-20.5 96l30 208q17 124 -93 124q-53 0 -109 -31.5t-101 -91.5l-48 -339h-65l82 589h-139l5 35h139l9 65q2 10 -9 11l-61 3l6 40l129 7q4 0 6 -2.5t2 -6.5l-17 -117h170l-5 -35h-170l-28 -192q101 113 226 113q74 0 111 -41.5
t25 -124.5l-30 -216q-12 -88 65 -90h3z" />
    <glyph glyph-name="Itilde" unicode="&#x128;" horiz-adv-x="368" 
d="M400 872l44 -13q-9 -34 -29.5 -53t-47.5 -21q-30 -3 -66 16q-7 4 -18 9.5t-17.5 8.5t-14 5.5t-12.5 1.5q-20 -1 -39 -44l-43 16q24 68 67 72q6 0 13.5 -1t12 -2t13.5 -5t12 -5t14 -6t12 -6q36 -17 56 -14q24 3 43 41zM393 656l-69 -6q-13 -1 -15 -14l-81 -576
q-1 -10 9 -11l70 -5l-6 -44h-234l6 40q0 4 5 4l64 6q5 0 10 4.5t5 9.5l81 576q2 10 -8 11l-63 5q-7 1 -6 8l5 36h233z" />
    <glyph glyph-name="itilde" unicode="&#x129;" horiz-adv-x="351" 
d="M355 672l44 -13q-9 -34 -29.5 -53t-47.5 -21q-30 -3 -66 16q-7 4 -18 9.5t-17.5 8.5t-14 5.5t-12.5 1.5q-20 -1 -39 -44l-43 16q23 68 67 72q6 0 13 -1t12 -2t14 -5t12 -5t14 -6t12 -6q36 -17 55 -14q25 3 44 41zM137 498l130 7q3 1 5.5 -2t1.5 -6l-52 -369
q-6 -43 10.5 -65.5t54.5 -24.5h7l-5 -38h-20q-62 0 -91 34t-20 96l44 314q1 11 -9 11l-61 3z" />
    <glyph glyph-name="Imacron" unicode="&#x12a;" horiz-adv-x="368" 
d="M438 801h-282l7 49h282zM393 656l-69 -6q-13 -1 -15 -14l-81 -576q-1 -10 9 -11l70 -5l-6 -44h-234l6 40q0 4 5 4l64 6q5 0 10 4.5t5 9.5l81 576q2 10 -8 11l-63 5q-7 1 -6 8l5 36h233z" />
    <glyph glyph-name="imacron" unicode="&#x12b;" horiz-adv-x="351" 
d="M393 601h-282l7 49h281zM137 498l130 7q3 1 5.5 -2t1.5 -6l-52 -369q-12 -87 65 -90h7l-5 -38h-20q-62 0 -91 34t-20 96l44 314q1 11 -9 11l-61 3z" />
    <glyph glyph-name="Iogonek" unicode="&#x12e;" horiz-adv-x="368" 
d="M393 656l-69 -6q-13 -1 -15 -14l-81 -576q-1 -10 9 -11l70 -5l-6 -44h-33q-65 -40 -73 -97q-4 -27 7.5 -42t33.5 -15q22 -1 59 17l8 -39q-43 -22 -78 -20q-41 0 -62 25.5t-17 63.5q6 61 67 107h-146l6 40q0 4 5 4l64 6q5 0 10 4.5t5 9.5l81 576q2 10 -8 11l-63 5
q-7 1 -6 8l5 36h233z" />
    <glyph glyph-name="iogonek" unicode="&#x12f;" horiz-adv-x="351" 
d="M259 674q17 0 27.5 -12.5t7.5 -29.5q-2 -14 -13.5 -24t-26.5 -10q-17 0 -27 12.5t-8 29.5q2 14 13.5 24t26.5 10zM137 498l130 7q9 1 7 -8l-52 -369q-12 -87 65 -90h7l-5 -38h-5l-36 1q-67 -38 -76 -97q-4 -27 7.5 -42t33.5 -16q24 0 59 18l9 -39q-43 -21 -78 -21
q-28 0 -47 12.5t-27 32.5t-6 45q7 71 85 119q-63 26 -50 117l44 314q1 11 -9 11l-61 3z" />
    <glyph glyph-name="Idotaccent" unicode="&#x130;" horiz-adv-x="368" 
d="M304 874q17 0 27.5 -12.5t7.5 -29.5q-2 -14 -13.5 -24t-26.5 -10q-17 0 -27 12.5t-8 29.5q2 14 13.5 24t26.5 10zM393 656l-69 -6q-13 -1 -15 -14l-81 -576q-1 -10 9 -11l70 -5l-6 -44h-234l6 40q0 4 5 4l64 6q5 0 10 4.5t5 9.5l81 576q2 10 -8 11l-63 5q-7 1 -6 8l5 36
h233z" />
    <glyph glyph-name="dotlessi" unicode="&#x131;" horiz-adv-x="351" 
d="M137 498l130 7q9 1 7 -8l-52 -369q-6 -43 10.5 -65.5t54.5 -24.5h7l-5 -38h-20q-62 0 -91 34t-20 96l44 314q1 11 -9 11l-61 3z" />
    <glyph glyph-name="IJ" unicode="&#x132;" horiz-adv-x="743" 
d="M393 656l-69 -6q-13 -1 -15 -14l-81 -576q-1 -10 9 -11l70 -5l-6 -44h-234l6 40q0 4 5 4l64 6q5 0 10 4.5t5 9.5l81 576q2 10 -8 11l-63 5q-7 1 -6 8l5 36h233zM768 656l-67 -5q-13 -2 -15 -15l-84 -601q-13 -91 -70.5 -154.5t-148.5 -86.5l-14 41q64 22 107 76t54 128
l84 600q2 10 -8 11l-72 6q-7 1 -6 8l5 36h241z" />
    <glyph glyph-name="ij" unicode="&#x133;" horiz-adv-x="616" 
d="M607 714q18 0 29 -13t9 -32q-1 -7 -5 -14t-9.5 -11.5t-13 -7.5t-15.5 -3q-18 0 -29 13t-8 31q1 10 7 18.5t15.5 13.5t19.5 5zM267 714q18 0 29 -13.5t8 -31.5q-2 -15 -14.5 -25.5t-28.5 -10.5q-18 0 -29 13t-8 31q2 15 14.5 26t28.5 11zM478 499l130 7q8 0 7 -9l-83 -589
q-7 -49 -41.5 -77.5t-88.5 -28.5q-52 0 -82 28l21 34q19 -15 47 -15q13 0 24.5 3t21 8.5t16.5 13.5t12 19t7 24l74 528q1 10 -9 11l-62 3zM137 498l130 7q9 1 7 -8l-52 -369q-12 -87 65 -90h7l-5 -38h-20q-62 0 -91 34t-20 96l44 314q1 11 -9 11l-61 3z" />
    <glyph glyph-name="Kcommaaccent" unicode="&#x136;" horiz-adv-x="746" 
d="M793 656l-73 -6l-284 -265l204 -331q2 -3 7 -4l72 -6q8 -1 7 -8l-5 -36h-135l-203 333l-135 -125l-21 -147q-1 -10 9 -11l78 -6l-6 -44h-241l6 40q0 4 5 4l63 6q13 1 15 14l81 576q2 10 -8 11l-62 5q-7 1 -6 8l5 36h239l-6 -44l-76 -6q-13 -2 -15 -15l-50 -351l360 341
q8 8 8 16.5t-10 10.5l-45 4q-7 2 -6 8l5 36h229zM359 -51q28 0 35 -29t-7 -68q-16 -42 -41 -74l-30 13q18 30 26 54q9 27 4 40h-1q-11 3 -17 12.5t-4 21.5t12 20.5t23 9.5z" />
    <glyph glyph-name="kcommaaccent" unicode="&#x137;" horiz-adv-x="618" 
d="M172 743l129 7q9 0 8 -9l-69 -483l272 205q49 37 110 37h21l-4 -39q-51 -1 -105 -41l-158 -114l127 -205q37 -61 102 -63l-4 -38h-29q-41 0 -73 21.5t-50 58.5l-118 193l-98 -71l-20 -145q-2 -10 8 -11l66 -5l-6 -41h-211l5 38q1 4 5 4l53 5q13 1 15 14l88 628
q2 10 -9 11l-61 3zM295 -51q28 0 35 -29t-7 -68q-16 -42 -41 -74l-30 13q18 30 26 54q9 27 4 40h-1q-11 3 -17 12.5t-4 21.5t12 20.5t23 9.5z" />
    <glyph glyph-name="Lacute" unicode="&#x139;" horiz-adv-x="570" 
d="M416 772h-61l124 149h81zM401 656l-78 -7q-13 -1 -15 -14l-81 -578h255q4 0 7.5 2t6 5t2.5 7l17 75h43l-20 -141q-1 -5 -6 -5h-465l6 40q0 4 5 4l63 6q5 0 9.5 4.5t5.5 9.5l81 576q2 10 -8 11l-62 5q-3 0 -5 3t-1 5l5 36h241z" />
    <glyph glyph-name="lacute" unicode="&#x13a;" horiz-adv-x="341" 
d="M304 785h-62l124 148h81zM172 743l129 7q9 0 8 -9l-87 -613q-6 -43 10.5 -65.5t54.5 -24.5h7l-5 -38h-20q-62 0 -91 34t-20 96l78 559q2 10 -9 11l-61 3z" />
    <glyph glyph-name="Lcommaaccent" unicode="&#x13b;" horiz-adv-x="570" 
d="M401 656l-78 -7q-13 -1 -15 -14l-81 -578h255q4 0 7.5 2t6 5t2.5 7l17 75h43l-20 -141q-1 -5 -6 -5h-465l6 40q0 4 5 4l63 6q5 0 9.5 4.5t5.5 9.5l81 576q2 10 -8 11l-62 5q-3 0 -5 3t-1 5l5 36h241zM271 -51q28 0 35.5 -29t-7.5 -68q-16 -42 -41 -74l-30 13q18 30 26 54
q9 27 5 40h-2q-11 3 -17 12.5t-4 21.5t12 20.5t23 9.5z" />
    <glyph glyph-name="lcommaaccent" unicode="&#x13c;" horiz-adv-x="341" 
d="M172 743l129 7q9 0 8 -9l-87 -613q-6 -43 10.5 -65.5t54.5 -24.5h7l-5 -38h-20q-62 0 -91 34t-20 96l78 559q2 10 -9 11l-61 3zM156 -51q28 0 35.5 -29t-7.5 -68q-16 -42 -41 -74l-30 13q18 30 26 54q10 27 5 40h-2q-10 3 -16 12.5t-4 21.5q1 8 6 14.5t12.5 11t15.5 4.5z
" />
    <glyph glyph-name="Lcaron" unicode="&#x13d;" horiz-adv-x="576" 
d="M551 710q28 0 35 -29t-7 -68q-16 -41 -41 -74l-30 13q20 31 27 57q8 22 3 37v-1q-11 2 -17.5 12t-4.5 23q2 12 12 21t23 9zM401 656l-78 -7q-13 -1 -15 -14l-81 -578h255q2 0 4.5 0.5t4 2t3.5 3t3 4t1 4.5l17 75h43l-20 -141q-1 -5 -6 -5h-465l6 40q0 4 5 4l63 6
q5 0 9.5 4.5t5.5 9.5l81 576q2 10 -8 11l-62 5q-2 0 -3.5 1.5t-2.5 3t0 3.5l5 36h241z" />
    <glyph glyph-name="lcaron" unicode="&#x13e;" horiz-adv-x="401" 
d="M172 743l129 7q9 0 8 -9l-87 -613q-6 -43 10.5 -65.5t54.5 -24.5l7 1l-5 -39h-20q-62 0 -91 34t-20 96l78 559q2 10 -9 11l-61 3zM443 739q28 0 35 -29t-8 -69t-41 -73l-29 13q18 29 26 55q9 26 4 38l-2 1q-10 3 -16 12.5t-4 21.5q2 11 12 20t23 10z" />
    <glyph glyph-name="Ldot" unicode="&#x13f;" horiz-adv-x="570" 
d="M401 656l-78 -7q-13 -1 -15 -14l-81 -578h255q4 0 7.5 2t6 5t2.5 7l17 75h43l-20 -141q-1 -5 -6 -5h-465l6 40q0 4 5 4l63 6q5 0 9.5 4.5t5.5 9.5l81 576q2 10 -8 11l-62 5q-3 0 -5 3t-1 5l5 36h241zM524 418q18 0 29 -13t8 -31q-2 -15 -14 -25.5t-28 -10.5q-18 0 -29 13
t-8 31q2 15 14 25.5t28 10.5z" />
    <glyph glyph-name="ldot" unicode="&#x140;" horiz-adv-x="418" 
d="M172 743l129 7q9 0 8 -9l-87 -613q-6 -43 10.5 -65.5t54.5 -24.5l7 1l-5 -39h-20q-62 0 -91 34t-20 96l78 559q2 10 -9 11l-61 3zM409 418q18 0 29 -13t8 -31q-1 -10 -7 -18t-15.5 -13t-19.5 -5q-18 0 -29 13t-9 31q2 15 14.5 25.5t28.5 10.5z" />
    <glyph glyph-name="Lslash" unicode="&#x141;" horiz-adv-x="586" 
d="M574 146l-20 -141q-1 -5 -6 -5h-465l5 40q1 4 5 4l63 6q6 0 10.5 4.5t5.5 9.5l35 253l-127 -77l9 66l128 78l36 256q1 10 -9 11l-62 5q-2 0 -4 3t-2 5l5 36h241l-6 -44l-77 -7q-14 -1 -16 -14l-28 -203l179 109l-9 -66l-180 -110l-43 -308h256q5 0 10 4t6 10l17 75h43z
" />
    <glyph glyph-name="lslash" unicode="&#x142;" horiz-adv-x="382" 
d="M279 400l-38 -272q-4 -28 2 -48t22 -30.5t41 -11.5h7l-5 -38h-20q-63 0 -91.5 34t-20.5 96l32 226l-124 -76l8 63l125 76l38 270q1 10 -9 11l-61 3l5 40l130 7q9 0 7 -9l-39 -278l131 80l-9 -63z" />
    <glyph glyph-name="Nacute" unicode="&#x143;" horiz-adv-x="848" 
d="M555 772h-61l123 149h81zM878 656l-68 -6q-13 -1 -15 -14l-90 -636h-65l-349 582l-74 -521q-1 -10 9 -11l75 -6l-6 -44h-233l6 40q0 4 5 4l63 6q14 1 16 14l80 576q2 10 -8 11l-62 5q-2 0 -3.5 1.5t-2.5 3t0 3.5l5 36h141l352 -588l75 527q1 10 -9 11l-68 6q-2 0 -4 3
t-2 5l5 36h233z" />
    <glyph glyph-name="nacute" unicode="&#x144;" horiz-adv-x="700" 
d="M452 572h-61l124 149h81zM478 510q49 0 82 -17.5t48 -55t7 -93.5l-30 -216q-13 -88 64 -90h4l-5 -38h-16q-63 0 -92 34t-20 96l29 208q18 124 -92 124q-26 0 -53 -8t-54 -22.5t-54 -38t-49 -54.5l-49 -339h-65l63 444q1 11 -9 11l-62 3l6 40l130 7q8 1 7 -8l-15 -100
q100 113 225 113z" />
    <glyph glyph-name="Ncommaaccent" unicode="&#x145;" horiz-adv-x="848" 
d="M878 656l-68 -6q-13 -1 -15 -14l-90 -636h-65l-349 582l-74 -521q-1 -10 9 -11l75 -6l-6 -44h-233l6 40q0 4 5 4l63 6q14 1 16 14l80 576q2 10 -8 11l-62 5q-2 0 -3.5 1.5t-2.5 3t0 3.5l5 36h141l352 -588l75 527q1 10 -9 11l-68 6q-2 0 -4 3t-2 5l5 36h233zM410 -51
q28 0 35 -29t-7 -68q-16 -42 -41 -74l-30 13q17 30 26 54q9 27 4 40h-2q-10 3 -16 12.5t-4 21.5t12 20.5t23 9.5z" />
    <glyph glyph-name="ncommaaccent" unicode="&#x146;" horiz-adv-x="700" 
d="M478 510q75 0 112 -41.5t25 -124.5l-30 -216q-6 -43 10 -66t54 -24h4l-5 -38h-16q-63 0 -92 34t-20 96l29 208q18 124 -92 124q-53 0 -109 -31.5t-101 -91.5l-49 -339h-65l63 444q1 11 -9 11l-62 3l6 40l130 7q8 1 7 -8l-15 -100q100 113 225 113zM335 -51q28 0 35.5 -29
t-7.5 -68q-16 -42 -41 -74l-30 13q18 30 26 54q9 27 5 40h-2q-11 3 -17 12.5t-4 21.5t12 20.5t23 9.5z" />
    <glyph glyph-name="Ncaron" unicode="&#x147;" horiz-adv-x="848" 
d="M575 772h-83l-85 149h59l71 -111l103 111h61zM878 656l-68 -6q-13 -1 -15 -14l-90 -636h-65l-349 582l-74 -521q-1 -10 9 -11l75 -6l-6 -44h-233l6 40q0 4 5 4l63 6q14 1 16 14l80 576q2 10 -8 11l-62 5q-3 0 -5 3t-1 5l5 36h141l352 -588l75 527q1 10 -9 11l-68 6
q-2 0 -4 3t-2 5l5 36h233z" />
    <glyph glyph-name="ncaron" unicode="&#x148;" horiz-adv-x="700" 
d="M472 572h-83l-85 149h59l71 -111l103 111h61zM478 510q75 0 112 -41.5t25 -124.5l-30 -216q-6 -43 10 -66t54 -24h4l-5 -38h-16q-63 0 -92 34t-20 96l29 208q18 124 -92 124q-35 0 -71 -13.5t-72.5 -41.5t-66.5 -68l-49 -339h-65l63 444q1 11 -9 11l-62 3l6 40l130 7
q8 1 7 -8l-15 -100q100 113 225 113z" />
    <glyph glyph-name="Eng" unicode="&#x14a;" horiz-adv-x="853" 
d="M878 656l-67 -5q-14 -2 -16 -15l-84 -601q-13 -90 -69 -153t-145 -87l-13 40q56 20 96.5 64t57.5 106l-347 577l-74 -521q-1 -10 9 -11l75 -6l-6 -44h-233l6 40q0 4 5 4l63 6q14 1 16 14l80 576q2 10 -8 11l-62 5q-7 1 -6 8l5 36h141l352 -588l75 527q1 10 -9 11l-68 6
q-7 1 -6 8l5 36h233z" />
    <glyph glyph-name="eng" unicode="&#x14b;" horiz-adv-x="690" 
d="M478 510q49 0 82 -17.5t48 -55t7 -93.5l-61 -436q-7 -49 -42 -77.5t-88 -28.5t-83 28l21 34q19 -15 48 -15q32 0 54 18t26 50l59 421q18 124 -92 124q-26 0 -53 -8t-54 -22.5t-54 -38t-49 -54.5l-49 -339h-65l63 444q1 11 -9 11l-62 3l6 40l130 7q3 1 5.5 -1.5t1.5 -6.5
l-15 -100q100 113 225 113z" />
    <glyph glyph-name="Omacron" unicode="&#x14c;" horiz-adv-x="781" 
d="M644 801h-282l7 49h282zM487 709q154 0 234 -101t57 -262q-22 -159 -128 -257t-258 -98q-153 0 -233 100.5t-58 262.5q23 158 129 256.5t257 98.5zM485 652q-121 0 -206 -82.5t-105 -223.5q-19 -138 41 -218.5t179 -80.5q80 0 146 37t109 107t56 163q13 91 -10 159
t-77 103.5t-133 35.5z" />
    <glyph glyph-name="omacron" unicode="&#x14d;" 
d="M526 601h-282l7 49h282zM369 510q75 0 128.5 -33.5t76 -93.5t11.5 -137q-16 -114 -93.5 -185t-189.5 -71q-114 0 -173.5 73.5t-42.5 190.5q16 114 93.5 185t189.5 71zM368 462q-84 0 -143.5 -58.5t-73.5 -157.5q-14 -96 28 -151.5t123 -55.5q85 0 144.5 58t73.5 157
q13 96 -28.5 152t-123.5 56z" />
    <glyph glyph-name="Ohungarumlaut" unicode="&#x150;" horiz-adv-x="781" 
d="M448 772h-61l118 149h81zM599 772h-61l118 149h81zM487 709q154 0 234 -101t57 -262q-22 -159 -128 -257t-258 -98q-153 0 -233 100.5t-58 262.5q15 104 68 185t135.5 125.5t182.5 44.5zM485 652q-121 0 -206 -82.5t-105 -223.5q-19 -138 41 -218.5t179 -80.5
q122 0 206.5 83t104.5 224q13 91 -10 159t-77 103.5t-133 35.5z" />
    <glyph glyph-name="ohungarumlaut" unicode="&#x151;" 
d="M330 572h-61l117 149h81zM481 572h-62l118 149h81zM369 510q75 0 128.5 -33.5t76 -93.5t11.5 -137q-16 -114 -93.5 -185t-189.5 -71q-114 0 -173.5 73.5t-42.5 190.5q16 114 93.5 185t189.5 71zM368 462q-84 0 -143.5 -58.5t-73.5 -157.5q-14 -96 28 -151.5t123 -55.5
q85 0 144.5 58t73.5 157q9 64 -7 111t-53.5 72t-91.5 25z" />
    <glyph glyph-name="OE" unicode="&#x152;" horiz-adv-x="1092" 
d="M487 709q93 0 156 -43t88 -119l21 153h377q8 0 7 -9l-19 -137h-43l5 79q1 10 -10 10h-252l-36 -260h229l-7 -54h-230l-38 -272h268q13 0 16 14l16 75h43l-20 -141q0 -5 -5 -5h-396l21 150q-46 -75 -120.5 -117t-165.5 -42q-153 0 -233 100.5t-58 262.5q23 158 129 256.5
t257 98.5zM485 652q-121 0 -206 -82.5t-105 -223.5q-19 -138 41 -218.5t179 -80.5q122 0 206.5 83t104.5 224q13 91 -10 159t-77 103.5t-133 35.5z" />
    <glyph glyph-name="oe" unicode="&#x153;" horiz-adv-x="1005" 
d="M806 510q113 0 159 -66.5t32 -184.5l-2 -9q-1 -9 -10 -9l-377 -6q-10 -92 29 -144.5t114 -52.5q98 1 174 65l19 -45q-78 -68 -196 -68q-80 0 -132 42.5t-65 114.5q-36 -74 -101 -115.5t-148 -41.5q-114 0 -173.5 73.5t-42.5 190.5q16 114 93.5 185t189.5 71
q56 0 99.5 -19.5t70.5 -54.5t37 -82q34 74 94 115t136 41zM804 462q-71 0 -122 -49.5t-68 -135.5l311 1q8 0 8 9q16 175 -129 175zM368 462q-84 0 -143.5 -58.5t-73.5 -157.5q-14 -96 28 -151.5t123 -55.5q85 0 144.5 58t73.5 157q13 96 -28.5 152t-123.5 56z" />
    <glyph glyph-name="Racute" unicode="&#x154;" horiz-adv-x="686" 
d="M474 772h-61l124 149h81zM166 700h301q96 0 148 -53t40 -138q-11 -73 -64 -120t-134 -55l-5 -1l130 -280q2 -3 8 -4l69 -5l-6 -44h-122q-5 0 -5 5l-141 321h-121l-37 -265q-1 -10 9 -11l78 -6l-6 -44h-241l6 40q0 4 5 4l63 6q13 1 15 14l81 576q1 10 -9 11l-61 5
q-3 0 -5 3t-1 5zM374 643l-66 -5l-36 -255h154q65 0 108 35t52 96q5 40 -7.5 69t-42.5 44.5t-73 15.5h-89z" />
    <glyph glyph-name="racute" unicode="&#x155;" horiz-adv-x="441" 
d="M323 572h-62l124 149h81zM482 504q5 -1 5 -7l-17 -114h-42l4 61q1 6 -2.5 9t-9.5 1q-13 -3 -26 -9q-65 -20 -143 -77l-53 -368h-65l63 444q1 11 -9 11l-62 3l6 40l130 7q8 1 7 -8l-12 -81q92 73 171 87q29 5 55 1z" />
    <glyph glyph-name="Rcommaaccent" unicode="&#x156;" horiz-adv-x="686" 
d="M166 700h301q96 0 148 -53t40 -138q-11 -73 -64 -120t-134 -55l-5 -1l130 -280q2 -3 8 -4l69 -5l-6 -44h-122q-5 0 -5 5l-141 321h-121l-37 -265q-1 -10 9 -11l78 -6l-6 -44h-241l6 40q0 4 5 4l63 6q13 1 15 14l81 576q1 10 -9 11l-61 5q-3 0 -5 3t-1 5zM374 643l-66 -5
l-36 -255h154q43 0 77 16t55.5 45.5t27.5 69.5q8 60 -25 94.5t-98 34.5h-89zM329 -51q28 0 35 -29t-7 -68q-16 -42 -41 -74l-30 13q18 30 26 54q9 27 4 40h-1q-11 3 -17 12.5t-4 21.5t12 20.5t23 9.5z" />
    <glyph glyph-name="rcommaaccent" unicode="&#x157;" horiz-adv-x="441" 
d="M482 504q6 -1 5 -7l-17 -114h-42l4 61q1 6 -2.5 9t-9.5 1q-12 -3 -26 -9q-65 -20 -143 -77l-53 -368h-65l63 444q1 11 -9 11l-62 3l6 40l130 7q8 1 7 -8l-12 -81q92 73 171 87q29 5 55 1zM206 -51q27 0 34.5 -29t-7.5 -68q-16 -42 -41 -74l-29 13q17 30 25 54q10 27 5 40
h-2q-10 3 -16 12.5t-4 21.5q1 6 4 11.5t7.5 9.5t10.5 6.5t13 2.5z" />
    <glyph glyph-name="Rcaron" unicode="&#x158;" horiz-adv-x="686" 
d="M494 772h-83l-85 149h59l71 -111l103 111h61zM166 700h301q96 0 148 -53t40 -138q-11 -73 -64 -120t-134 -55l-5 -1l130 -280q2 -3 8 -4l69 -5l-6 -44h-122q-5 0 -5 5l-141 321h-121l-37 -265q-1 -10 9 -11l78 -6l-6 -44h-241l6 40q0 4 5 4l63 6q13 1 15 14l81 576
q1 10 -9 11l-61 5q-3 0 -5 3t-1 5zM374 643l-66 -5l-36 -255h154q65 0 108 35t52 96q5 40 -7.5 69t-42.5 44.5t-73 15.5h-89z" />
    <glyph glyph-name="rcaron" unicode="&#x159;" horiz-adv-x="441" 
d="M343 572h-84l-84 149h59l70 -111l104 111h61zM482 504q6 -1 5 -7l-17 -114h-42l4 61q1 6 -2.5 9t-9.5 1q-12 -3 -26 -9q-65 -20 -143 -77l-53 -368h-65l63 444q1 11 -9 11l-62 3l6 40l130 7q8 1 7 -8l-12 -81q92 73 171 87q29 5 55 1z" />
    <glyph glyph-name="Sacute" unicode="&#x15a;" horiz-adv-x="567" 
d="M414 772h-61l124 149h81zM412 711q94 0 153 -41q3 -1 3 -5l-18 -125h-42l5 87q1 7 -5 9q-40 18 -97 18q-79 1 -131.5 -31.5t-59.5 -82.5q-2 -23 -1.5 -39t15 -32.5t41 -34t75.5 -43.5q83 -43 123 -74.5t53 -61.5t7 -74q-9 -58 -49 -101.5t-101 -66t-135 -22.5
q-109 0 -180 42q-4 2 -3 6l17 124h43l-5 -84q-1 -6 4 -8q55 -24 126 -24q57 0 102 17t72 47t33 71q6 43 -17 70t-111 74q-39 21 -66.5 37.5t-49 31.5t-34.5 28.5t-22 26.5t-12 28t-3 30t3 36q11 75 86 120.5t181 46.5z" />
    <glyph glyph-name="sacute" unicode="&#x15b;" horiz-adv-x="442" 
d="M324 572h-61l123 149h81zM317 510q72 0 118 -29q3 -1 3 -5l-15 -107h-36l5 79q0 6 -5 8q-26 11 -63 11q-57 0 -95 -22.5t-43 -58.5q-4 -32 11.5 -51.5t80.5 -53.5q84 -44 109.5 -75t18.5 -78q-9 -63 -68.5 -100t-143.5 -37q-76 0 -132 27q-4 1 -4 6l15 106h36l-5 -77
q0 -7 6 -9q37 -11 79 -11q64 0 106.5 26.5t48.5 70.5q3 21 -2.5 35t-25.5 30t-63 39q-63 33 -92 56.5t-36 44.5t-3 56q8 54 62.5 86.5t132.5 32.5z" />
    <glyph glyph-name="Scedilla" unicode="&#x15e;" horiz-adv-x="567" 
d="M412 711q94 0 153 -41q3 -1 3 -5l-18 -125h-42l5 87q1 7 -5 9q-40 18 -97 18q-79 1 -131.5 -31.5t-59.5 -82.5q-2 -23 -1.5 -39t15 -32.5t41 -34t75.5 -43.5q83 -43 123 -74.5t53 -61.5t7 -74q-11 -77 -74.5 -126t-158.5 -61l-25 -47q10 0 19 -3q27 -7 43 -28t11 -50
q-4 -20 -18 -37t-36 -27t-48 -10q-43 2 -70 25l13 32q22 -18 51 -18q14 0 26 5.5t20.5 16t11.5 24.5q2 16 -4.5 26.5t-17 15t-24.5 5.5q-14 0 -26 -2l32 70h-27q-100 3 -163 41q-4 2 -3 6l17 124h43l-5 -84q-1 -6 4 -8q55 -24 126 -24q86 0 142.5 37t64.5 98q6 43 -17 70
t-111 74q-46 25 -76 43t-53 36t-34 32t-18 31.5t-6 34.5t3 41q11 75 86 120.5t181 46.5z" />
    <glyph glyph-name="scedilla" unicode="&#x15f;" horiz-adv-x="442" 
d="M317 510q72 0 118 -29q3 -1 3 -5l-15 -107h-36l5 79q0 6 -5 8q-26 11 -63 11q-57 0 -95 -22.5t-43 -58.5q-4 -32 11.5 -51.5t80.5 -53.5q84 -44 109.5 -75t18.5 -78q-7 -54 -53 -89.5t-115 -44.5l-25 -47q10 0 18 -3q28 -7 43.5 -28t10.5 -50q-5 -31 -34 -52.5t-68 -21.5
q-42 2 -70 25l13 32q22 -18 51 -18q14 0 26 5.5t20.5 16t11.5 24.5q2 12 -1 21t-10 14.5t-15.5 8t-19.5 3.5q-13 0 -26 -2l32 71h-21q-65 1 -112 25q-4 1 -4 6l15 106h36l-5 -77q0 -7 6 -9q37 -11 79 -11q64 0 106.5 26.5t48.5 70.5q4 31 -12.5 51t-78.5 53q-63 33 -92 56.5
t-36 44.5t-3 56q8 54 62.5 86.5t132.5 32.5z" />
    <glyph glyph-name="Scaron" unicode="&#x160;" horiz-adv-x="567" 
d="M434 772h-83l-85 149h59l71 -111l103 111h62zM412 711q94 0 153 -41q3 -1 3 -5l-18 -125h-42l5 87q1 7 -5 9q-40 18 -97 18q-79 1 -131.5 -31.5t-59.5 -82.5q-2 -23 -1.5 -39t15 -32.5t41 -34t75.5 -43.5q83 -43 123 -74.5t53 -61.5t7 -74q-13 -88 -92.5 -139t-192.5 -51
q-109 0 -180 42q-4 2 -3 6l17 124h43l-5 -84q-1 -6 4 -8q55 -24 126 -24q86 0 142.5 37t64.5 98q6 43 -17 70t-111 74q-46 25 -76 43t-53 36t-34 32t-18 31.5t-6 34.5t3 41q11 75 86 120.5t181 46.5z" />
    <glyph glyph-name="scaron" unicode="&#x161;" horiz-adv-x="442" 
d="M344 572h-84l-84 149h59l71 -111l103 111h61zM317 510q72 0 118 -29q3 -1 3 -5l-15 -107h-36l5 79q0 6 -5 8q-26 11 -63 11q-38 0 -68.5 -10.5t-48 -29t-21.5 -41.5q-4 -32 11.5 -51.5t80.5 -53.5q84 -44 109.5 -75t18.5 -78q-9 -63 -68.5 -100t-143.5 -37q-76 0 -132 27
q-4 1 -4 6l15 106h36l-5 -77q0 -7 6 -9q37 -11 79 -11q64 0 106.5 26.5t48.5 70.5q4 31 -12.5 51t-78.5 53q-63 33 -92 56.5t-36 44.5t-3 56q8 54 62.5 86.5t132.5 32.5z" />
    <glyph glyph-name="Tcedilla" unicode="&#x162;" horiz-adv-x="644" 
d="M129 700h580q8 0 7 -9l-20 -136h-42l5 80q1 10 -10 10h-201l-82 -585q-1 -10 9 -11l70 -5l-6 -44h-97l-28 -53q10 0 19 -3q27 -7 42.5 -28t10.5 -50q-5 -31 -34 -52.5t-68 -21.5q-42 2 -70 25l13 32q23 -18 51 -18q14 0 26 5.5t20.5 16t11.5 24.5q4 23 -9.5 34t-36.5 13
q-13 0 -25 -2l35 78h-95l6 40q0 4 5 4l64 6q5 0 10 4.5t5 9.5l82 581h-197q-14 0 -17 -14l-16 -76h-43l20 140q0 5 5 5z" />
    <glyph glyph-name="tcedilla" unicode="&#x163;" horiz-adv-x="383" 
d="M237 500h138l-6 -41l-138 -7l-50 -354q-4 -31 10.5 -47t45.5 -16q45 0 71 32l19 -32q-32 -43 -94 -46q-19 0 -27 1l-23 -43q10 0 18 -3q28 -7 43.5 -28t10.5 -50q-5 -31 -34 -52.5t-68 -21.5q-42 2 -70 25l13 32q22 -18 51 -18q21 0 37.5 12.5t20.5 33.5q3 16 -3.5 26.5
t-17 15t-25.5 5.5q-13 0 -25 -2l34 76q-30 12 -43.5 37t-9.5 59l51 358l-57 3q-8 0 -7 8l5 35l65 1l18 125l65 4z" />
    <glyph glyph-name="Tcaron" unicode="&#x164;" horiz-adv-x="644" 
d="M473 772h-83l-85 149h59l71 -111l103 111h61zM129 700h580q8 0 7 -9l-20 -136h-42l5 80q1 10 -10 10h-201l-82 -585q-1 -10 9 -11l70 -5l-6 -44h-234l6 40q0 4 5 4l64 6q4 0 7 2t5.5 5.5t2.5 6.5l82 581h-197q-14 0 -17 -14l-16 -76h-43l20 140q0 5 5 5z" />
    <glyph glyph-name="tcaron" unicode="&#x165;" horiz-adv-x="382" 
d="M429 750q28 0 35 -29t-8 -68q-15 -41 -41 -74l-29 13q18 30 26 54q8 25 4 40h-2q-10 2 -16 12t-4 22q1 8 6 14.5t12.5 11t16.5 4.5zM237 500h138l-6 -41l-138 -7l-50 -354q-5 -31 10 -47t46 -16q45 0 71 32l19 -32q-35 -46 -106 -46q-55 0 -83.5 28.5t-22.5 76.5l51 358
l-57 3q-8 1 -7 8l5 35l65 1l18 125l65 4z" />
    <glyph glyph-name="Tbar" unicode="&#x166;" horiz-adv-x="644" 
d="M129 700h580q8 0 7 -9l-20 -136h-42l5 80q1 10 -10 10h-201l-38 -270h106l-7 -50h-105l-38 -265q-1 -10 9 -11l70 -5l-6 -44h-234l6 40q0 4 5 4l64 6q5 0 10 4.5t5 9.5l37 261h-105l7 50h105l38 270h-197q-14 0 -17 -14l-16 -76h-43l20 140q0 5 5 5z" />
    <glyph glyph-name="tbar" unicode="&#x167;" horiz-adv-x="383" 
d="M231 452l-18 -124h138l-7 -49h-138l-25 -181q-4 -31 10.5 -47t45.5 -16q45 0 71 32l19 -32q-35 -46 -106 -46q-55 0 -83.5 28.5t-22.5 76.5l26 185h-65l7 49h65l18 124l-57 3q-8 1 -7 8l5 35l65 1l18 125l65 4l-18 -128h138l-6 -41z" />
    <glyph glyph-name="Utilde" unicode="&#x168;" horiz-adv-x="831" 
d="M632 872l43 -13q-9 -34 -29.5 -53t-47.5 -21q-29 -3 -66 16q-6 3 -14.5 7.5t-14 7.5t-12 5.5t-11.5 4t-10 0.5q-19 -1 -38 -44l-43 16q23 68 67 72q6 0 13 -1t12 -2t14 -5t12 -5t13.5 -6t12.5 -6q35 -17 55 -14q25 3 44 41zM861 656l-68 -6q-14 -1 -16 -15l-51 -365
q-18 -127 -101.5 -203.5t-204.5 -76.5q-123 0 -186.5 78.5t-45.5 205.5l51 365q1 10 -9 11l-63 5q-2 1 -3.5 2t-2.5 3t0 4l5 35h242l-6 -43l-76 -7q-14 -1 -15 -15l-52 -364q-14 -105 31 -164t135 -59q94 0 161 61t82 166l51 364q1 10 -8 11l-83 7l6 43h233z" />
    <glyph glyph-name="utilde" unicode="&#x169;" horiz-adv-x="691" 
d="M534 672l43 -13q-9 -34 -29 -53t-48 -21q-29 -3 -66 16q-6 4 -17.5 9.5t-17.5 8.5t-13.5 5.5t-13.5 1.5q-19 -1 -38 -44l-43 16q23 68 67 72q6 0 13 -1t12 -2t14 -5t12 -5t13.5 -6t12.5 -6q35 -17 55 -14q25 3 44 41zM637 500l-54 -384q-11 -75 49 -76l12 -1l-5 -39h-48
q-41 1 -60.5 24.5t-15.5 66.5l1 11q-99 -112 -224 -112q-75 0 -112 41.5t-25 124.5l40 286q2 10 -8 11l-70 6l6 41h137q8 0 7 -9l-46 -329q-18 -124 92 -124q53 0 109 31.5t102 91.5l48 339h65z" />
    <glyph glyph-name="Umacron" unicode="&#x16a;" horiz-adv-x="831" 
d="M669 801h-282l7 49h282zM861 656l-68 -6q-14 -1 -16 -15l-51 -365q-18 -127 -101.5 -203.5t-204.5 -76.5q-123 0 -186.5 78.5t-45.5 205.5l51 365q1 10 -9 11l-63 5q-2 1 -3.5 2t-2.5 3t0 4l5 35h242l-6 -43l-76 -7q-14 -1 -15 -15l-52 -364q-14 -105 31 -164t135 -59
q94 0 161 61t82 166l51 364q1 10 -8 11l-83 7l6 43h233z" />
    <glyph glyph-name="umacron" unicode="&#x16b;" horiz-adv-x="691" 
d="M571 601h-282l7 49h282zM637 500l-54 -384q-11 -75 49 -76l12 -1l-5 -39h-48q-41 1 -60.5 24.5t-15.5 66.5l1 11q-99 -112 -224 -112q-75 0 -112 41.5t-25 124.5l40 286q2 10 -8 11l-70 6l6 41h137q8 0 7 -9l-46 -329q-18 -124 92 -124q53 0 109 31.5t102 91.5l48 339h65
z" />
    <glyph glyph-name="Uring" unicode="&#x16e;" horiz-adv-x="831" 
d="M545 945q29 0 51 -14t32.5 -38.5t6.5 -52.5q-4 -26 -20 -48.5t-40.5 -36t-51.5 -13.5q-44 0 -70 31.5t-20 74.5q6 40 38.5 68.5t73.5 28.5zM547 909q-27 0 -48 -20t-26 -49q-3 -27 11 -44t38 -17q17 0 32.5 8.5t26.5 24.5t14 36q4 26 -10.5 43.5t-37.5 17.5zM861 656
l-68 -6q-14 -1 -16 -15l-51 -365q-18 -127 -101.5 -203.5t-204.5 -76.5q-123 0 -186.5 78.5t-45.5 205.5l51 365q1 10 -9 11l-63 5q-2 1 -3.5 2t-2.5 3t0 4l5 35h242l-6 -43l-76 -7q-14 -1 -15 -15l-52 -364q-9 -70 8.5 -121t58 -76.5t99.5 -25.5q94 0 161 61t82 166l51 364
q1 10 -8 11l-83 7l6 43h233z" />
    <glyph glyph-name="uring" unicode="&#x16f;" horiz-adv-x="691" 
d="M447 745q44 0 70 -31t20 -74q-5 -40 -37.5 -69t-74.5 -29q-43 0 -69.5 31.5t-20.5 74.5q6 40 38.5 68.5t73.5 28.5zM449 709q-26 0 -47.5 -20t-25.5 -49q-4 -27 10 -44t38 -17q26 0 47.5 19.5t25.5 49.5q4 26 -10.5 43.5t-37.5 17.5zM637 500l-54 -384q-11 -75 49 -76
l12 -1l-5 -39h-48q-41 1 -60.5 24.5t-15.5 66.5l1 11q-99 -112 -224 -112q-75 0 -112 41.5t-25 124.5l40 286q2 10 -8 11l-70 6l6 41h137q8 0 7 -9l-46 -329q-18 -124 92 -124q53 0 109 31.5t102 91.5l48 339h65z" />
    <glyph glyph-name="Uhungarumlaut" unicode="&#x170;" horiz-adv-x="831" 
d="M473 772h-61l118 149h81zM624 772h-61l118 149h81zM861 656l-68 -6q-14 -1 -16 -15l-51 -365q-18 -127 -101.5 -203.5t-204.5 -76.5q-123 0 -186.5 78.5t-45.5 205.5l51 365q1 10 -9 11l-63 5q-3 1 -5 3.5t-1 5.5l5 35h242l-6 -43l-76 -7q-14 -1 -15 -15l-52 -364
q-9 -70 8.5 -121t58 -76.5t99.5 -25.5q94 0 161 61t82 166l51 364q1 10 -8 11l-83 7l6 43h233z" />
    <glyph glyph-name="uhungarumlaut" unicode="&#x171;" horiz-adv-x="691" 
d="M375 572h-61l118 149h81zM526 572h-61l118 149h81zM637 500l-54 -384q-11 -75 49 -76l12 -1l-5 -39h-48q-41 1 -60.5 24.5t-15.5 66.5l1 11q-99 -112 -224 -112q-75 0 -112 41.5t-25 124.5l40 286q2 10 -8 11l-70 6l6 41h137q8 0 7 -9l-46 -329q-18 -124 92 -124
q53 0 109 31.5t102 91.5l48 339h65z" />
    <glyph glyph-name="Uogonek" unicode="&#x172;" horiz-adv-x="831" 
d="M861 656l-68 -6q-14 -1 -16 -15l-51 -365q-13 -95 -64.5 -163t-130.5 -97q-79 -41 -89 -106q-4 -27 7.5 -42t34.5 -15q22 -1 58 17l9 -39q-44 -22 -78 -20q-42 0 -63 25.5t-17 63.5q6 55 57 98q-29 -2 -43 -1q-117 4 -177 82t-42 201l51 365q1 10 -9 11l-63 5
q-3 1 -5 3.5t-1 5.5l5 35h242l-6 -43l-76 -7q-14 -1 -15 -15l-52 -364q-9 -70 8.5 -121t58 -76.5t99.5 -25.5q94 0 161 61t82 166l51 364q1 10 -8 11l-83 7l6 43h233z" />
    <glyph glyph-name="uogonek" unicode="&#x173;" horiz-adv-x="691" 
d="M637 500l-54 -384q-11 -75 49 -76l12 -1l-5 -39h-5q-26 1 -39 6q-59 -38 -67 -92q-4 -27 7.5 -42t34.5 -16q23 0 58 18l9 -39q-43 -21 -78 -21q-28 0 -47 12.5t-27 32.5t-6 45q7 65 74 111q-42 19 -38 76l1 11q-99 -112 -224 -112q-75 0 -112 41.5t-25 124.5l40 286
q2 10 -8 11l-70 6l6 41h137q8 0 7 -9l-46 -329q-18 -124 92 -124q53 0 109 31.5t102 91.5l48 339h65z" />
    <glyph glyph-name="Wcircumflex" unicode="&#x174;" horiz-adv-x="1112" 
d="M811 772h-59l-71 111l-103 -111h-61l126 149h83zM1179 656l-62 -5l-288 -650l-58 -1l-134 590l-300 -589l-60 -1l-102 646q-1 5 -8 6l-42 4q-7 0 -6 8l5 36h121l84 -595l266 528q8 16 -7 18l-68 6q-7 0 -6 8l5 35h173l124 -595l230 529q7 15 -7 17l-71 6q-7 0 -6 8l5 35
h218z" />
    <glyph glyph-name="wcircumflex" unicode="&#x175;" horiz-adv-x="856" 
d="M659 572h-59l-70 111l-103 -111h-62l127 149h83zM607 72l152 307q18 37 41.5 64.5t49.5 42t52 14.5h7l-4 -39q-21 0 -49 -27.5t-50 -72.5l-184 -361h-59l-81 399l-196 -399h-59l-96 449q-1 5 -8 6l-34 4q-7 0 -6 8l4 33h100l83 -427l208 427h51z" />
    <glyph glyph-name="Ycircumflex" unicode="&#x176;" horiz-adv-x="689" 
d="M599 772h-59l-70 111l-104 -111h-61l126 149h84zM755 656l-52 -4l-282 -403l-27 -189q-2 -10 8 -11l70 -5l-6 -44h-233l6 40q0 4 4 4l65 6q13 1 15 14l25 178l-171 406q-2 3 -8 4l-44 4q-7 0 -6 8l5 36h107l166 -390l224 320q6 8 4 14t-10 7l-68 6q-7 0 -6 8l5 35h215z
" />
    <glyph glyph-name="ycircumflex" unicode="&#x177;" horiz-adv-x="557" 
d="M506 572h-59l-71 111l-103 -111h-61l126 149h83zM286 65l172 322q29 53 66.5 83t75.5 30h11l-4 -39q-23 0 -52 -27.5t-54 -74.5l-240 -444q-19 -35 -45 -60.5t-57.5 -39t-64.5 -13.5h-42l5 38l22 2q27 1 53 13.5t49 35.5t40 54l30 55h-11l-112 450q-1 4 -7 5l-32 4
q-7 0 -6 8l4 33h97z" />
    <glyph glyph-name="Ydieresis" unicode="&#x178;" horiz-adv-x="689" 
d="M383 874q17 0 27.5 -12.5t7.5 -29.5q-2 -14 -13.5 -24t-26.5 -10q-11 0 -19.5 6t-12.5 15.5t-3 20.5q2 14 13.5 24t26.5 10zM545 874q11 0 20 -6t13 -15.5t2 -20.5q-2 -14 -13.5 -24t-26.5 -10q-17 0 -27 12.5t-8 29.5q2 14 13.5 24t26.5 10zM755 656l-52 -4l-282 -403
l-27 -189q-2 -10 8 -11l70 -5l-6 -44h-233l6 40q0 4 4 4l65 6q13 1 15 14l25 178l-171 406q-2 3 -8 4l-44 4q-7 0 -6 8l5 36h107l166 -390l224 320q6 8 4 14t-10 7l-68 6q-7 0 -6 8l5 35h215z" />
    <glyph glyph-name="Zacute" unicode="&#x179;" horiz-adv-x="587" 
d="M425 772h-62l124 149h81zM642 658l-503 -602h359q13 0 16 14l16 72h43l-19 -138q-1 -4 -6 -4h-514l6 41l504 602h-332q-13 0 -16 -14l-15 -69h-43l19 135q0 5 5 5h486z" />
    <glyph glyph-name="zacute" unicode="&#x17a;" horiz-adv-x="500" 
d="M353 572h-61l123 149h81zM503 470l-364 -428h256q13 0 16 14l15 64h36l-17 -115q0 -5 -5 -5h-386l3 30l365 428h-232q-14 0 -16 -14l-15 -63h-36l17 114q0 5 5 5h361z" />
    <glyph glyph-name="Zdotaccent" unicode="&#x17b;" horiz-adv-x="587" 
d="M413 874q17 0 27.5 -12.5t8.5 -29.5q-2 -14 -13.5 -24t-26.5 -10q-17 0 -27.5 12.5t-8.5 29.5q2 14 13.5 24t26.5 10zM642 658l-503 -602h359q13 0 16 14l16 72h43l-19 -138q-1 -4 -6 -4h-514l6 41l504 602h-332q-13 0 -16 -14l-15 -69h-43l19 135q0 5 5 5h486z" />
    <glyph glyph-name="zdotaccent" unicode="&#x17c;" horiz-adv-x="500" 
d="M342 674q17 0 27.5 -12.5t7.5 -29.5q-2 -14 -13.5 -24t-26.5 -10q-17 0 -27 12.5t-8 29.5q2 14 13.5 24t26.5 10zM503 470l-364 -428h256q13 0 16 14l15 64h36l-17 -115q0 -5 -5 -5h-386l3 30l365 428h-232q-13 0 -16 -14l-15 -63h-36l17 114q0 5 5 5h361z" />
    <glyph glyph-name="Zcaron" unicode="&#x17d;" horiz-adv-x="587" 
d="M444 772h-83l-85 149h59l71 -111l103 111h62zM642 658l-503 -602h359q13 0 16 14l16 72h43l-19 -138q-1 -4 -6 -4h-514l6 41l504 602h-332q-13 0 -16 -14l-15 -69h-43l19 135q0 5 5 5h486z" />
    <glyph glyph-name="zcaron" unicode="&#x17e;" horiz-adv-x="500" 
d="M373 572h-83l-85 149h59l71 -111l103 111h61zM503 470l-364 -428h256q13 0 16 14l15 64h36l-17 -115q0 -5 -5 -5h-386l3 30l365 428h-232q-14 0 -16 -14l-15 -63h-36l17 114q0 5 5 5h361z" />
    <glyph glyph-name="longs" unicode="&#x17f;" horiz-adv-x="416" 
d="M398 750q75 -1 133 -42l-22 -39q-49 32 -103 32q-32 0 -59.5 -12.5t-47.5 -38.5t-25 -63l-80 -569q-28 -196 -142 -198h-12l3 39q28 1 52 44.5t35 119.5l60 429l-59 3q-7 1 -6 9l4 33l68 3l13 95q5 38 23 68.5t44 49t57 28t64 9.5z" />
    <glyph glyph-name="florin" unicode="&#x192;" horiz-adv-x="433" 
d="M415 750q75 -1 133 -42l-22 -39q-49 32 -103 32q-19 0 -37 -4.5t-34 -14t-28.5 -22.5t-21 -32t-11.5 -41l-24 -169h145l-6 -41l-146 -8l-65 -461q-7 -55 -55 -85q-49 -27 -106 -9l13 37q35 -2 58 18q22 16 27 48l63 453l-58 3q-8 1 -7 9l5 36h67l25 177q11 75 64.5 115
t123.5 40z" />
    <glyph glyph-name="Ohorn" unicode="&#x1a0;" horiz-adv-x="781" 
d="M801 828l54 14q22 -58 12 -111q-8 -48 -42 -76.5t-88 -30.5q-12 -1 -29 -1q45 -48 64 -119t6 -158q-14 -105 -67 -185.5t-136 -125t-183 -44.5q-153 0 -233 100.5t-58 262.5q23 158 129 256.5t257 98.5q90 0 154 -39q31 -13 64 -13q89 -1 106 76q11 44 -10 95zM485 652
q-121 0 -206 -82.5t-105 -223.5q-19 -138 41 -218.5t179 -80.5q122 0 206.5 83t104.5 224q19 138 -40.5 218t-179.5 80z" />
    <glyph glyph-name="ohorn" unicode="&#x1a1;" 
d="M623 628l48 12q24 -59 12 -115q-7 -30 -23 -52t-43.5 -36t-62.5 -16q46 -71 31 -175q-16 -114 -93.5 -185t-189.5 -71q-114 0 -173.5 73.5t-42.5 190.5q16 114 93.5 185t189.5 71q97 0 153 -55l19 3q37 3 60 22.5t31 51.5q12 44 -9 96zM368 462q-84 0 -143.5 -58.5
t-73.5 -157.5q-14 -96 28 -151.5t123 -55.5q85 0 144.5 58t73.5 157q13 96 -28.5 152t-123.5 56z" />
    <glyph glyph-name="Uhorn" unicode="&#x1af;" horiz-adv-x="835" 
d="M867 830l38 16q32 -27 40 -63q8 -31 -6.5 -60.5t-49.5 -47.5q-23 -11 -50 -13l-47 -5q-4 -1 -8.5 -5t-5.5 -9l-52 -373q-18 -126 -101.5 -202.5t-204.5 -76.5q-123 0 -186.5 78.5t-45.5 204.5l51 366q1 10 -9 11l-63 5q-7 1 -6 8l5 36h242l-6 -44l-76 -6q-13 -2 -15 -15
l-52 -365q-14 -105 31 -164t136 -59q93 0 160 61.5t82 165.5l51 365q2 10 -8 10l-83 7l6 44h200q12 3 24 9q24 11 34 31t4 42q-6 28 -29 48z" />
    <glyph glyph-name="uhorn" unicode="&#x1b0;" horiz-adv-x="691" 
d="M677 638l37 15q36 -29 41 -71q4 -32 -13.5 -60.5t-54.5 -44.5q-25 -10 -53 -10l-51 -351q-11 -75 49 -76l13 -1l-6 -39h-47q-42 1 -61.5 24.5t-15.5 66.5l1 11q-99 -112 -224 -112q-75 0 -112 41.5t-25 124.5l40 286q2 10 -8 11l-70 6l6 41h137q8 0 7 -9l-46 -329
q-17 -124 92 -124q53 0 109 31.5t102 91.5l40 281q1 10 -9 11l-71 5l6 42h124q24 -1 47 9q17 8 28.5 20t16 26t2.5 30q-6 30 -31 53z" />
    <glyph glyph-name="DZcaron" unicode="&#x1c4;" horiz-adv-x="1341" 
d="M1198 772h-83l-84 149h59l70 -111l103 111h62zM166 700h294q154 0 234 -97t57 -257q-22 -158 -127.5 -252t-258.5 -94h-298l6 40q0 4 5 4l63 6q5 0 9.5 4.5t5.5 9.5l81 576q2 10 -8 11l-62 5q-3 0 -5 3t-1 5zM1396 658l-503 -602h359q14 0 16 14l16 72h43l-19 -138
q-1 -4 -6 -4h-514l6 41l504 602h-332q-13 0 -16 -14l-15 -69h-43l19 135q0 5 5 5h486zM373 643l-65 -5l-81 -576l64 -5h79q121 0 204.5 78.5t103.5 218.5q19 137 -41 213t-182 76h-82z" />
    <glyph glyph-name="Dzcaron" unicode="&#x1c5;" horiz-adv-x="1254" 
d="M1127 572h-83l-85 149h59l71 -111l103 111h61zM166 700h294q154 0 234 -97t57 -257q-22 -158 -127.5 -252t-258.5 -94h-298l6 40q0 4 5 4l63 6q5 0 9.5 4.5t5.5 9.5l81 576q2 10 -8 11l-62 5q-3 0 -5 3t-1 5zM373 643l-65 -5l-81 -576l64 -5h79q121 0 204.5 78.5
t103.5 218.5q19 137 -41 213t-182 76h-82zM1257 470l-364 -428h256q13 0 16 14l15 64h36l-17 -115q0 -5 -5 -5h-386l3 30l365 428h-232q-13 0 -16 -14l-15 -63h-35l16 114q0 5 5 5h361z" />
    <glyph glyph-name="dzcaron" unicode="&#x1c6;" horiz-adv-x="1121" 
d="M449 743l130 7q9 0 7 -9l-89 -637q-9 -64 65 -66h4l-5 -38h-36q-48 0 -72 18.5t-21 52.5q-25 -26 -54 -44.5t-59.5 -27.5t-60.5 -9q-89 0 -139.5 69t-32.5 196q16 112 77 183.5t149 71.5q49 0 91.5 -26t69.5 -76l41 281q1 10 -9 11l-61 3zM995 572h-84l-84 149h59
l70 -111l104 111h61zM1124 470l-364 -428h257q13 0 16 14l14 64h36l-16 -115q-1 -5 -6 -5h-386l4 30l364 428h-232q-13 0 -16 -14l-14 -63h-36l16 114q1 5 6 5h361zM331 462q-63 -1 -114.5 -57.5t-65.5 -157.5q-14 -99 24 -152t105 -53q83 0 154 82l33 227q-22 56 -58 83.5
t-78 27.5z" />
    <glyph glyph-name="LJ" unicode="&#x1c7;" horiz-adv-x="946" 
d="M971 656l-67 -5q-14 -2 -15 -15l-85 -601q-13 -91 -70.5 -154.5t-148.5 -86.5l-13 41q63 22 106.5 76t53.5 128l85 600q1 10 -9 11l-71 6q-7 1 -6 8l5 36h241zM401 656l-78 -7q-13 -1 -15 -14l-81 -578h255q5 0 10 4t6 10l17 75h43l-20 -141q-1 -5 -6 -5h-465l6 40
q0 4 5 4l63 6q5 0 9.5 4.5t5.5 9.5l81 576q2 10 -8 11l-62 5q-3 0 -5 3t-1 5l5 36h241z" />
    <glyph glyph-name="Lj" unicode="&#x1c8;" horiz-adv-x="836" 
d="M828 714q18 0 29 -13t8 -32q-1 -10 -7 -18t-15.5 -13t-19.5 -5q-18 0 -29 13t-9 31q2 10 8 18.5t15 13.5t20 5zM401 656l-78 -7q-13 -1 -15 -14l-81 -578h255q5 0 10 4t6 10l17 75h43l-20 -141q-1 -5 -6 -5h-465l6 40q0 4 5 4l63 6q5 0 9.5 4.5t5.5 9.5l81 576
q2 10 -8 11l-62 5q-2 0 -3.5 1.5t-2.5 3t0 3.5l5 36h241zM698 499l130 7q9 0 8 -9l-83 -589q-7 -49 -42 -77.5t-88 -28.5q-52 0 -83 28l21 34q19 -15 48 -15q32 0 54 18t26 50l74 528q2 10 -9 11l-61 3z" />
    <glyph glyph-name="lj" unicode="&#x1c9;" horiz-adv-x="607" 
d="M172 743l129 7q9 0 8 -9l-87 -613q-6 -43 10.5 -65.5t54.5 -24.5h7l-5 -38h-20q-62 0 -91 34t-20 96l78 559q2 10 -9 11l-61 3zM599 714q18 0 29 -13t8 -32q-1 -7 -5 -14t-9.5 -11.5t-13 -7.5t-14.5 -3q-12 0 -21.5 6t-14 16t-2.5 22q2 16 14.5 26.5t28.5 10.5zM469 499
l130 7q9 0 7 -9l-82 -589q-7 -49 -42 -77.5t-88 -28.5q-52 0 -83 28l21 34q19 -15 48 -15q32 0 53.5 18t26.5 50l74 528q2 10 -9 11l-61 3z" />
    <glyph glyph-name="NJ" unicode="&#x1ca;" horiz-adv-x="1223" 
d="M878 656l-68 -6q-13 -1 -15 -14l-90 -636h-65l-349 582l-74 -521q-1 -10 9 -11l75 -6l-6 -44h-233l6 40q0 4 5 4l63 6q14 1 16 14l80 576q2 10 -8 11l-62 5q-2 0 -3.5 1.5t-2.5 3t0 3.5l5 36h141l352 -588l75 527q1 10 -9 11l-68 6q-2 0 -4 3t-2 5l5 36h233zM1248 656
l-67 -5q-13 -2 -15 -15l-85 -601q-12 -91 -70 -154.5t-149 -86.5l-13 41q64 22 107 76t54 128l84 600q1 10 -9 11l-71 6q-7 1 -6 8l5 36h241z" />
    <glyph glyph-name="Nj" unicode="&#x1cb;" horiz-adv-x="1114" 
d="M1105 714q18 0 29 -13t9 -32q-3 -15 -15 -25.5t-28 -10.5q-18 0 -29 13t-9 31q3 16 15 26.5t28 10.5zM878 656l-68 -6q-13 -1 -15 -14l-90 -636h-65l-349 582l-74 -521q-1 -10 9 -11l75 -6l-6 -44h-233l6 40q0 4 5 4l63 6q14 1 16 14l80 576q2 10 -8 11l-62 5
q-2 0 -3.5 1.5t-2.5 3t0 3.5l5 36h141l352 -588l75 527q1 10 -9 11l-68 6q-2 0 -4 3t-2 5l5 36h233zM976 499l129 7q9 0 8 -9l-83 -589q-7 -49 -42 -77.5t-88 -28.5q-52 0 -82 28l21 34q19 -15 47 -15q32 0 54 18t26 50l75 528q1 10 -10 11l-61 3z" />
    <glyph glyph-name="nj" unicode="&#x1cc;" horiz-adv-x="966" 
d="M957 714q18 0 29 -13t9 -32q-2 -15 -14.5 -25.5t-28.5 -10.5q-18 0 -29 13t-8 31q1 10 7 18.5t15.5 13.5t19.5 5zM478 510q75 0 112 -41.5t25 -124.5l-30 -216q-13 -88 64 -90h4l-5 -38h-16q-63 0 -92 34t-20 96l29 208q18 124 -92 124q-35 0 -71 -13.5t-72.5 -41.5
t-66.5 -68l-49 -339h-65l63 444q1 11 -9 11l-62 3l6 40l130 7q8 1 7 -8l-15 -100q100 113 225 113zM828 499l130 7q8 0 7 -9l-83 -589q-7 -49 -42 -77.5t-88 -28.5q-52 0 -82 28l21 34q19 -15 47 -15q33 0 54.5 18t26.5 50l74 528q1 10 -9 11l-62 3z" />
    <glyph glyph-name="Acaron" unicode="&#x1cd;" horiz-adv-x="771" 
d="M537 772h-84l-84 149h59l70 -111l104 111h61zM694 49l57 -5l-6 -44h-229l5 39q1 4 5 5l69 5q8 1 14 7t3 15l-39 140h-330l-88 -160l87 -7l-7 -44h-209l5 40q1 4 5 5l46 3q7 1 12 9l353 641l68 3zM272 268h288l-94 352z" />
    <glyph glyph-name="acaron" unicode="&#x1ce;" horiz-adv-x="627" 
d="M406 572h-83l-85 149h59l71 -111l103 111h61zM369 510q88 1 180 -45q4 -1 3 -6l-47 -339q-11 -80 63 -82h4l-6 -38h-35q-47 0 -70.5 22t-20.5 63l2 17q-29 -36 -63.5 -61t-69.5 -38t-69 -13q-82 0 -127 68.5t-27 196.5q17 121 95 187.5t188 67.5zM374 462
q-87 -1 -147.5 -56t-75.5 -159q-14 -99 18.5 -152t92.5 -53q44 1 92.5 31.5t90.5 88.5l41 277q-55 23 -112 23z" />
    <glyph glyph-name="Icaron" unicode="&#x1cf;" horiz-adv-x="368" 
d="M335 772h-83l-85 149h59l71 -111l103 111h61zM393 656l-69 -6q-13 -1 -15 -14l-81 -576q-1 -10 9 -11l70 -5l-6 -44h-234l6 40q0 4 5 4l64 6q5 0 10 4.5t5 9.5l81 576q2 10 -8 11l-63 5q-7 1 -6 8l5 36h233z" />
    <glyph glyph-name="icaron" unicode="&#x1d0;" horiz-adv-x="351" 
d="M290 572h-83l-85 149h59l71 -111l103 111h61zM137 498l130 7q3 1 5.5 -2t1.5 -6l-52 -369q-6 -43 10.5 -65.5t54.5 -24.5h7l-5 -38h-20q-62 0 -91 34t-20 96l44 314q1 11 -9 11l-61 3z" />
    <glyph glyph-name="Ocaron" unicode="&#x1d1;" horiz-adv-x="781" 
d="M541 772h-83l-85 149h59l71 -111l103 111h62zM487 709q154 0 234 -101t57 -262q-22 -159 -128 -257t-258 -98q-153 0 -233 100.5t-58 262.5q23 158 129 256.5t257 98.5zM485 652q-121 0 -206 -82.5t-105 -223.5q-19 -138 41 -218.5t179 -80.5q80 0 146 37t109 107t56 163
q13 91 -10 159t-77 103.5t-133 35.5z" />
    <glyph glyph-name="ocaron" unicode="&#x1d2;" 
d="M423 572h-83l-85 149h59l71 -111l103 111h61zM369 510q75 0 128.5 -33.5t76 -93.5t11.5 -137q-16 -114 -93.5 -185t-189.5 -71q-114 0 -173.5 73.5t-42.5 190.5q16 114 93.5 185t189.5 71zM368 462q-84 0 -143.5 -58.5t-73.5 -157.5q-14 -96 28 -151.5t123 -55.5
q85 0 144.5 58t73.5 157q13 96 -28.5 152t-123.5 56z" />
    <glyph glyph-name="Ucaron" unicode="&#x1d3;" horiz-adv-x="831" 
d="M566 772h-83l-84 149h59l70 -111l103 111h62zM861 656l-68 -6q-14 -1 -16 -15l-51 -365q-18 -127 -101.5 -203.5t-204.5 -76.5q-123 0 -186.5 78.5t-45.5 205.5l51 365q1 10 -9 11l-63 5q-2 1 -3.5 2t-2.5 3t0 4l5 35h242l-6 -43l-76 -7q-14 -1 -15 -15l-52 -364
q-14 -105 31 -164t135 -59q94 0 161 61t82 166l51 364q1 10 -8 11l-83 7l6 43h233z" />
    <glyph glyph-name="ucaron" unicode="&#x1d4;" horiz-adv-x="691" 
d="M469 572h-84l-84 149h59l70 -111l104 111h61zM637 500l-54 -384q-11 -75 49 -76l12 -1l-5 -39h-48q-41 1 -60.5 24.5t-15.5 66.5l1 11q-99 -112 -224 -112q-75 0 -112 41.5t-25 124.5l40 286q2 10 -8 11l-70 6l6 41h137q8 0 7 -9l-46 -329q-18 -124 92 -124
q53 0 109 31.5t102 91.5l48 339h65z" />
    <glyph glyph-name="Udieresismacron" unicode="&#x1d5;" horiz-adv-x="831" 
d="M693 972h-282l7 49h282zM454 874q17 0 27.5 -12.5t8.5 -29.5q-2 -14 -13.5 -24t-26.5 -10q-17 0 -27.5 12.5t-7.5 29.5q1 14 12.5 24t26.5 10zM616 874q17 0 27.5 -12.5t8.5 -29.5q-2 -14 -13.5 -24t-26.5 -10q-17 0 -27.5 12.5t-8.5 29.5q2 14 13.5 24t26.5 10zM861 656
l-68 -6q-14 -1 -16 -15l-51 -365q-18 -127 -101.5 -203.5t-204.5 -76.5q-123 0 -186.5 78.5t-45.5 205.5l51 365q1 10 -9 11l-63 5q-3 1 -5 3.5t-1 5.5l5 35h242l-6 -43l-76 -7q-14 -1 -15 -15l-52 -364q-14 -105 31 -164t135 -59q94 0 161 61t82 166l51 364q1 10 -8 11
l-83 7l6 43h233z" />
    <glyph glyph-name="udieresismacron" unicode="&#x1d6;" horiz-adv-x="691" 
d="M592 747h-282l7 49h282zM356 674q18 0 28 -12.5t8 -29.5q-2 -14 -13.5 -24t-26.5 -10q-17 0 -27.5 12.5t-7.5 29.5q2 14 13.5 24t25.5 10zM518 674q18 0 28 -12.5t8 -29.5q-2 -14 -13.5 -24t-26.5 -10q-17 0 -27.5 12.5t-7.5 29.5q1 14 13 24t26 10zM637 500l-54 -384
q-5 -37 7.5 -56.5t41.5 -19.5l12 -1l-5 -39h-48q-41 1 -60.5 24.5t-15.5 66.5l1 11q-99 -112 -224 -112q-75 0 -112 41.5t-25 124.5l40 286q2 10 -8 11l-70 6l6 41h137q8 0 7 -9l-46 -329q-18 -124 92 -124q53 0 109 31.5t102 91.5l48 339h65z" />
    <glyph glyph-name="Udieresisacute" unicode="&#x1d7;" horiz-adv-x="831" 
d="M568 928h-61l124 148h81zM454 874q17 0 27.5 -12.5t8.5 -29.5q-2 -14 -13.5 -24t-26.5 -10q-17 0 -27.5 12.5t-7.5 29.5q1 14 12.5 24t26.5 10zM616 874q17 0 27.5 -12.5t8.5 -29.5q-2 -14 -13.5 -24t-26.5 -10q-17 0 -27.5 12.5t-8.5 29.5q2 14 13.5 24t26.5 10z
M861 656l-68 -6q-14 -1 -16 -15l-51 -365q-18 -127 -101.5 -203.5t-204.5 -76.5q-123 0 -186.5 78.5t-45.5 205.5l51 365q1 10 -9 11l-63 5q-3 1 -5 3.5t-1 5.5l5 35h242l-6 -43l-76 -7q-14 -1 -15 -15l-52 -364q-14 -105 31 -164t135 -59q94 0 161 61t82 166l51 364
q1 10 -8 11l-83 7l6 43h233z" />
    <glyph glyph-name="udieresisacute" unicode="&#x1d8;" horiz-adv-x="691" 
d="M469 714h-62l124 149h81zM356 674q18 0 28 -12.5t8 -29.5q-2 -14 -13.5 -24t-26.5 -10q-17 0 -27.5 12.5t-7.5 29.5q2 14 13.5 24t25.5 10zM518 674q18 0 28 -12.5t8 -29.5q-2 -14 -13.5 -24t-26.5 -10q-11 0 -20 6t-13 15.5t-2 20.5q1 14 13 24t26 10zM637 500l-54 -384
q-11 -75 49 -76l12 -1l-5 -39h-48q-41 1 -60.5 24.5t-15.5 66.5l1 11q-99 -112 -224 -112q-75 0 -112 41.5t-25 124.5l40 286q2 10 -8 11l-70 6l6 41h137q8 0 7 -9l-46 -329q-18 -124 92 -124q53 0 109 31.5t102 91.5l48 339h65z" />
    <glyph glyph-name="Udieresiscaron" unicode="&#x1d9;" horiz-adv-x="831" 
d="M588 928h-83l-85 148h59l71 -111l103 111h62zM454 874q17 0 27.5 -12.5t8.5 -29.5q-2 -14 -13.5 -24t-26.5 -10q-17 0 -27.5 12.5t-7.5 29.5q1 14 12.5 24t26.5 10zM616 874q17 0 27.5 -12.5t8.5 -29.5q-2 -14 -13.5 -24t-26.5 -10q-17 0 -27.5 12.5t-8.5 29.5
q2 14 13.5 24t26.5 10zM861 656l-68 -6q-14 -1 -16 -15l-51 -365q-18 -127 -101.5 -203.5t-204.5 -76.5q-123 0 -186.5 78.5t-45.5 205.5l51 365q1 10 -9 11l-63 5q-3 1 -5 3.5t-1 5.5l5 35h242l-6 -43l-76 -7q-14 -1 -15 -15l-52 -364q-14 -105 31 -164t135 -59
q94 0 161 61t82 166l51 364q1 10 -8 11l-83 7l6 43h233z" />
    <glyph glyph-name="udieresiscaron" unicode="&#x1da;" horiz-adv-x="691" 
d="M489 714h-84l-84 149h59l70 -111l104 111h61zM356 674q18 0 28 -12.5t8 -29.5q-2 -14 -13.5 -24t-26.5 -10q-17 0 -27.5 12.5t-7.5 29.5q2 14 13.5 24t25.5 10zM518 674q18 0 28 -12.5t8 -29.5q-2 -14 -13.5 -24t-26.5 -10q-11 0 -20 6t-13 15.5t-2 20.5q1 14 13 24
t26 10zM637 500l-54 -384q-11 -75 49 -76l12 -1l-5 -39h-48q-41 1 -60.5 24.5t-15.5 66.5l1 11q-99 -112 -224 -112q-75 0 -112 41.5t-25 124.5l40 286q2 10 -8 11l-70 6l6 41h137q8 0 7 -9l-46 -329q-18 -124 92 -124q53 0 109 31.5t102 91.5l48 339h65z" />
    <glyph glyph-name="Udieresisgrave" unicode="&#x1db;" horiz-adv-x="831" 
d="M583 928h-59l-101 148h78zM454 874q17 0 27.5 -12.5t8.5 -29.5q-2 -14 -13.5 -24t-26.5 -10q-17 0 -27.5 12.5t-7.5 29.5q1 14 12.5 24t26.5 10zM616 874q17 0 27.5 -12.5t8.5 -29.5q-2 -14 -13.5 -24t-26.5 -10q-12 0 -20.5 6t-12.5 15.5t-3 20.5q2 14 13.5 24t26.5 10z
M861 656l-68 -6q-14 -1 -16 -15l-51 -365q-18 -127 -101.5 -203.5t-204.5 -76.5q-123 0 -186.5 78.5t-45.5 205.5l51 365q1 10 -9 11l-63 5q-2 1 -3.5 2t-2.5 3t0 4l5 35h242l-6 -43l-76 -7q-14 -1 -15 -15l-52 -364q-9 -70 8.5 -121t58 -76.5t99.5 -25.5q94 0 161 61
t82 166l51 364q1 10 -8 11l-83 7l6 43h233z" />
    <glyph glyph-name="udieresisgrave" unicode="&#x1dc;" horiz-adv-x="691" 
d="M483 714h-59l-101 149h79zM356 674q18 0 28 -12.5t8 -29.5q-2 -14 -13.5 -24t-26.5 -10q-17 0 -27.5 12.5t-7.5 29.5q2 14 13.5 24t25.5 10zM518 674q18 0 28 -12.5t8 -29.5q-2 -14 -13.5 -24t-26.5 -10q-11 0 -20 6t-13 15.5t-2 20.5q1 14 13 24t26 10zM637 500
l-54 -384q-11 -75 49 -76l12 -1l-5 -39h-48q-41 1 -60.5 24.5t-15.5 66.5l1 11q-99 -112 -224 -112q-75 0 -112 41.5t-25 124.5l40 286q2 10 -8 11l-70 6l6 41h137q8 0 7 -9l-46 -329q-18 -124 92 -124q53 0 109 31.5t102 91.5l48 339h65z" />
    <glyph glyph-name="Adieresismacron" unicode="&#x1de;" horiz-adv-x="771" 
d="M654 904h-282l7 49h282zM421 849q17 0 27.5 -13t7.5 -29q-2 -14 -13.5 -24.5t-26.5 -10.5q-17 0 -27 13t-8 30q2 13 13.5 23.5t26.5 10.5zM583 849q17 0 27.5 -13t7.5 -29q-2 -14 -13.5 -24.5t-26.5 -10.5q-17 0 -27 13t-8 30q2 13 13.5 23.5t26.5 10.5zM694 49l57 -5
l-6 -44h-229l5 39q1 4 5 5l69 5q8 1 14 7t3 15l-39 140h-330l-88 -160l87 -7l-7 -44h-209l5 40q1 4 5 5l46 3q7 1 12 9l353 641l68 3zM272 268h288l-94 352z" />
    <glyph glyph-name="adieresismacron" unicode="&#x1df;" horiz-adv-x="627" 
d="M556 726h-281l7 49h281zM324 674q17 0 27.5 -12.5t7.5 -29.5q-1 -9 -6.5 -17t-14.5 -12.5t-18 -4.5q-18 0 -28 12.5t-8 29.5q2 9 7.5 17t14 12.5t18.5 4.5zM486 674q17 0 27.5 -12.5t7.5 -29.5q-2 -14 -13.5 -24t-25.5 -10q-18 0 -28 12.5t-8 29.5q2 14 13.5 24t26.5 10z
M369 510q88 1 180 -45q4 -1 3 -6l-47 -339q-11 -80 63 -82h4l-6 -38h-35q-47 0 -70.5 22t-20.5 63l2 17q-44 -54 -97.5 -83t-104.5 -29q-82 0 -127 68.5t-27 196.5q17 121 95.5 187.5t187.5 67.5zM374 462q-87 -1 -147.5 -56t-75.5 -159q-14 -99 18.5 -152t92.5 -53
q44 1 92.5 31.5t90.5 88.5l41 277q-55 23 -112 23z" />
    <glyph glyph-name="Gcaron" unicode="&#x1e6;" horiz-adv-x="705" 
d="M525 772h-84l-84 149h59l71 -111l103 111h61zM488 709q116 0 218 -62q4 -2 3 -6l-17 -124h-43l6 85q0 6 -2 10q-84 40 -166 40q-116 0 -203.5 -80t-107.5 -226q-19 -138 40.5 -218.5t179.5 -80.5q114 0 197 75l22 146q1 10 -9 11l-164 8l6 46h232q2 0 4.5 -3t1.5 -6
l-45 -324h-45l4 59q-93 -68 -216 -68q-149 0 -226.5 100.5t-54.5 262.5q8 57 27 107t47 89t63 69.5t75 50t84 29.5t89 10z" />
    <glyph glyph-name="gcaron" unicode="&#x1e7;" horiz-adv-x="603" 
d="M405 572h-84l-84 149h59l71 -111l103 111h61zM369 510q88 1 180 -45q4 -2 3 -6l-64 -456q-7 -54 -29 -94.5t-54 -63t-69 -33t-78 -10.5q-91 0 -172 43l30 39q68 -35 136 -35q67 1 113.5 38.5t58.5 118.5l13 90q-44 -51 -96 -78.5t-101 -27.5q-82 0 -127 68.5t-27 196.5
q17 121 95 187.5t188 67.5zM374 462q-87 -1 -147.5 -56t-75.5 -159q-14 -100 18.5 -152.5t92.5 -52.5q44 1 92.5 31.5t90.5 88.5l41 277q-55 23 -112 23z" />
    <glyph glyph-name="DZ" unicode="&#x1f1;" horiz-adv-x="1341" 
d="M166 700h294q154 0 234 -97t57 -257q-22 -158 -127.5 -252t-258.5 -94h-298l6 40q0 4 5 4l63 6q5 0 9.5 4.5t5.5 9.5l81 576q2 10 -8 11l-62 5q-3 0 -5 3t-1 5zM1396 658l-503 -602h359q14 0 16 14l16 72h43l-19 -138q-1 -4 -6 -4h-514l6 41l504 602h-332q-13 0 -16 -14
l-15 -69h-43l19 135q0 5 5 5h486zM373 643l-65 -5l-81 -576l64 -5h79q121 0 204.5 78.5t103.5 218.5q19 137 -41 213t-182 76h-82z" />
    <glyph glyph-name="Dz" unicode="&#x1f2;" horiz-adv-x="1254" 
d="M166 700h294q154 0 234 -97t57 -257q-22 -158 -127.5 -252t-258.5 -94h-298l6 40q0 4 5 4l63 6q5 0 9.5 4.5t5.5 9.5l81 576q2 10 -8 11l-62 5q-3 0 -5 3t-1 5zM373 643l-65 -5l-81 -576l64 -5h79q121 0 204.5 78.5t103.5 218.5q19 137 -41 213t-182 76h-82zM1257 470
l-364 -428h256q13 0 16 14l15 64h36l-17 -115q0 -5 -5 -5h-386l3 30l365 428h-232q-13 0 -16 -14l-15 -63h-35l16 114q0 5 5 5h361z" />
    <glyph glyph-name="dz" unicode="&#x1f3;" horiz-adv-x="1121" 
d="M449 743l130 7q9 0 7 -9l-89 -637q-9 -64 65 -66h4l-5 -38h-36q-48 0 -72 18.5t-21 52.5q-25 -26 -54 -44.5t-59.5 -27.5t-60.5 -9q-89 0 -139.5 69t-32.5 196q16 112 77 183.5t149 71.5q49 0 91.5 -26t69.5 -76l41 281q1 10 -9 11l-61 3zM1124 470l-364 -428h257
q13 0 16 14l14 64h36l-16 -115q-1 -5 -6 -5h-386l4 30l364 428h-232q-13 0 -16 -14l-14 -63h-36l16 114q1 5 6 5h361zM331 462q-63 -1 -114.5 -57.5t-65.5 -157.5q-14 -99 24 -152t105 -53q83 0 154 82l33 227q-22 56 -58 83.5t-78 27.5z" />
    <glyph glyph-name="Oslashacute" unicode="&#x1fe;" horiz-adv-x="781" 
d="M523 772h-61l123 149h81zM663 750l-33 -71q86 -40 125.5 -128t22.5 -205q-22 -159 -128 -257t-258 -98q-41 0 -78 8l-22 -49h-76l33 71q-85 40 -124.5 127.5t-23.5 205.5q23 158 129 256.5t257 98.5q41 0 78 -8l23 49h75zM174 346q-13 -97 13.5 -167t87.5 -103l265 571
q-26 5 -55 5q-121 0 -206 -82.5t-105 -223.5zM705 354q14 97 -12.5 166.5t-87.5 103.5l-266 -572q26 -5 55 -5q122 0 206.5 83t104.5 224z" />
    <glyph glyph-name="oslashacute" unicode="&#x1ff;" 
d="M404 578h-62l124 148h81zM504 550l-29 -62q64 -29 93 -93t17 -149q-16 -114 -93.5 -185t-189.5 -71q-29 0 -56 5l-21 -45h-58l28 62q-63 29 -92 93t-17 149q16 114 93.5 185t189.5 71q29 0 55 -5l22 45h58zM151 246q-6 -45 0 -81.5t23 -63t44 -41.5l185 399q-17 3 -35 3
q-84 0 -143.5 -58.5t-73.5 -157.5zM520 254q9 67 -8.5 115t-58.5 72l-185 -399q16 -3 34 -3q85 0 144.5 58t73.5 157z" />
    <glyph glyph-name="Scommaaccent" unicode="&#x218;" horiz-adv-x="567" 
d="M412 711q94 0 153 -41q3 -1 3 -5l-18 -125h-42l5 87q1 7 -5 9q-40 18 -97 18q-79 1 -131.5 -31.5t-59.5 -82.5q-2 -23 -1.5 -39t15 -32.5t41 -34t75.5 -43.5q83 -43 123 -74.5t53 -61.5t7 -74q-13 -88 -92.5 -139t-192.5 -51q-109 0 -180 42q-4 2 -3 6l17 124h43l-5 -84
q-1 -6 4 -8q55 -24 126 -24q86 0 142.5 37t64.5 98q6 43 -17 70t-111 74q-46 25 -76 43t-53 36t-34 32t-18 31.5t-6 34.5t3 41q11 75 86 120.5t181 46.5zM269 -51q28 0 35.5 -29t-7.5 -68q-16 -42 -41 -74l-30 13q18 30 26 54q9 27 5 40h-2q-11 3 -16.5 12.5t-4.5 21.5
q2 12 12 20.5t23 9.5z" />
    <glyph glyph-name="scommaaccent" unicode="&#x219;" horiz-adv-x="442" 
d="M317 510q72 0 118 -29q3 -1 3 -5l-15 -107h-36l5 79q0 6 -5 8q-26 11 -63 11q-38 0 -68.5 -10.5t-48 -29t-21.5 -41.5q-4 -32 11.5 -51.5t80.5 -53.5q84 -44 109.5 -75t18.5 -78q-9 -63 -68.5 -100t-143.5 -37q-76 0 -132 27q-4 1 -4 6l15 106h36l-5 -77q0 -7 6 -9
q37 -11 79 -11q64 0 106.5 26.5t48.5 70.5q4 31 -12.5 51t-78.5 53q-63 33 -92 56.5t-36 44.5t-3 56q8 54 62.5 86.5t132.5 32.5zM207 -51q28 0 35 -29t-8 -68q-15 -42 -41 -74l-29 13q17 30 26 54q9 27 4 40h-2q-10 3 -16 12.5t-4 21.5q1 6 4 11.5t7.5 9.5t10.5 6.5t13 2.5
z" />
    <glyph glyph-name="uni021A" unicode="&#x21a;" horiz-adv-x="644" 
d="M129 700h580q8 0 7 -9l-20 -136h-42l5 80q1 10 -10 10h-201l-82 -585q-1 -10 9 -11l70 -5l-6 -44h-234l6 40q0 4 5 4l64 6q5 0 10 4.5t5 9.5l82 581h-197q-14 0 -17 -14l-16 -76h-43l20 140q0 5 5 5zM308 -51q28 0 35 -29t-7 -68q-16 -42 -41 -74l-30 13q18 30 26 54
q9 27 4 40h-1q-11 3 -17 12.5t-4 21.5t12 20.5t23 9.5z" />
    <glyph glyph-name="uni021B" unicode="&#x21b;" horiz-adv-x="383" 
d="M237 500h138l-6 -41l-138 -7l-50 -354q-4 -31 10.5 -47t45.5 -16q45 0 71 32l19 -32q-35 -46 -106 -46q-55 0 -83.5 28.5t-22.5 76.5l51 358l-57 3q-8 0 -7 8l5 35l65 1l18 125l65 4zM177 -51q28 0 35 -29t-7 -68q-16 -42 -42 -74l-29 13q17 30 26 54q9 27 4 40h-2
q-10 3 -16 12.5t-4 21.5t12 20.5t23 9.5z" />
    <glyph glyph-name="uni0228" unicode="&#x228;" horiz-adv-x="584" 
d="M166 700h455q8 0 7 -9l-20 -137h-42l5 79q1 10 -10 10h-252l-37 -260h230l-8 -54h-229l-38 -272h267q5 0 10 4t6 10l17 75h43l-20 -141q-1 -5 -6 -5h-232l-28 -53q10 0 19 -3q27 -7 42.5 -28t10.5 -50q-5 -31 -34 -52.5t-68 -21.5q-42 2 -70 25l13 32q23 -18 51 -18
q22 0 38 12.5t20 33.5q4 23 -9.5 34t-36.5 13q-13 0 -25 -2l35 78h-203l6 40q0 4 5 4l63 6q5 0 9.5 4.5t5.5 9.5l81 576q2 10 -8 11l-62 5q-3 0 -5 3t-1 5z" />
    <glyph glyph-name="uni0229" unicode="&#x229;" horiz-adv-x="538" 
d="M354 510q90 0 139.5 -45.5t47.5 -115.5q-4 -126 -209 -163q-70 -12 -181 -16q7 -62 44.5 -97t98.5 -35q97 1 173 65l20 -45q-76 -67 -191 -68l-22 -43q10 0 18 -3q28 -7 43.5 -28t10.5 -50q-5 -31 -34 -52.5t-68 -21.5q-42 2 -70 25l13 32q22 -18 51 -18q14 0 26 5.5
t20.5 16t11.5 24.5q3 23 -10 34t-36 13q-13 0 -26 -2l32 71q-93 11 -139 82t-31 179q16 115 88.5 185.5t179.5 70.5zM351 465q-75 0 -127.5 -54.5t-65.5 -141.5q-4 -27 -4 -52q99 2 163 14q156 28 159 123q2 49 -32 80t-93 31z" />
    <glyph glyph-name="uni022A" unicode="&#x22a;" horiz-adv-x="781" 
d="M660 918h-281l7 49h281zM426 849q17 0 27 -13t8 -29q-2 -14 -13.5 -24.5t-26.5 -10.5q-17 0 -27.5 13t-7.5 30q2 13 13.5 23.5t26.5 10.5zM588 849q17 0 27 -13t8 -29q-2 -14 -13.5 -24.5t-26.5 -10.5q-17 0 -27.5 13t-7.5 30q2 13 13.5 23.5t26.5 10.5zM487 709
q154 0 234 -101t57 -262q-14 -105 -67 -185.5t-136 -125t-183 -44.5q-153 0 -233 100.5t-58 262.5q15 104 68 185t135.5 125.5t182.5 44.5zM485 652q-121 0 -206 -82.5t-105 -223.5q-19 -138 41 -218.5t179 -80.5q122 0 206.5 83t104.5 224q13 91 -10 159t-77 103.5
t-133 35.5z" />
    <glyph glyph-name="uni022B" unicode="&#x22b;" 
d="M543 726h-282l7 49h282zM311 674q17 0 27.5 -12.5t7.5 -29.5q-2 -14 -13.5 -24t-26.5 -10q-17 0 -27 12.5t-8 29.5q1 9 6.5 17t14.5 12.5t19 4.5zM473 674q17 0 27.5 -12.5t7.5 -29.5q-2 -14 -13.5 -24t-26.5 -10q-11 0 -20 6t-13 15.5t-2 20.5q2 14 13.5 24t26.5 10z
M369 510q75 0 128.5 -33.5t76 -93.5t11.5 -137q-16 -114 -93.5 -185t-189.5 -71q-114 0 -173.5 73.5t-42.5 190.5q16 114 93.5 185t189.5 71zM368 462q-84 0 -143.5 -58.5t-73.5 -157.5q-14 -96 28 -151.5t123 -55.5q85 0 144.5 58t73.5 157q13 96 -28.5 152t-123.5 56z" />
    <glyph glyph-name="circumflex" unicode="&#x2c6;" horiz-adv-x="383" 
d="M418 572h-59l-70 111l-104 -111h-61l126 149h84z" />
    <glyph glyph-name="caron" unicode="&#x2c7;" horiz-adv-x="383" 
d="M314 572h-83l-85 149h59l71 -111l103 111h61z" />
    <glyph glyph-name="breve" unicode="&#x2d8;" horiz-adv-x="359" 
d="M366 707l48 -4q-8 -56 -51.5 -94t-99.5 -38q-58 0 -92.5 40t-26.5 96l47 -4q-6 -39 15 -65t57 -26q37 0 67.5 27.5t35.5 67.5z" />
    <glyph glyph-name="dotaccent" unicode="&#x2d9;" horiz-adv-x="165" 
d="M174 674q17 0 27.5 -12.5t7.5 -29.5q-2 -14 -13.5 -24t-25.5 -10q-18 0 -28 12.5t-8 29.5q2 9 7.5 17t14 12.5t18.5 4.5z" />
    <glyph glyph-name="ring" unicode="&#x2da;" horiz-adv-x="292" 
d="M247 745q44 0 70 -31t20 -74q-5 -40 -37.5 -69t-74.5 -29q-43 0 -69.5 31.5t-20.5 74.5q4 26 20 48.5t40.5 35.5t51.5 13zM249 709q-26 0 -47.5 -20t-25.5 -49q-4 -27 10 -44t38 -17q17 0 32.5 8.5t26.5 24.5t14 36q4 26 -10.5 43.5t-37.5 17.5z" />
    <glyph glyph-name="ogonek" unicode="&#x2db;" horiz-adv-x="255" 
d="M120 7l58 -2q-90 -42 -101 -111q-3 -27 8 -42t34 -16q23 0 58 18l9 -39q-42 -21 -78 -21q-28 0 -47 12.5t-27 32.5t-5 45q3 34 26 66.5t65 56.5z" />
    <glyph glyph-name="tilde" unicode="&#x2dc;" horiz-adv-x="363" 
d="M370 672l43 -13q-9 -34 -29.5 -53t-47.5 -21q-30 -3 -66 16q-6 3 -14.5 7.5t-14 7.5t-12 5.5t-12 4t-9.5 0.5q-20 -1 -39 -44l-43 16q24 68 68 72q5 0 12.5 -1t12 -2t14 -5t12.5 -5t13.5 -6t11.5 -6q36 -17 56 -14q24 3 44 41z" />
    <glyph glyph-name="hungarumlaut" unicode="&#x2dd;" horiz-adv-x="416" 
d="M185 572h-61l118 149h81zM336 572h-61l118 149h81z" />
    <glyph glyph-name="dotbelowcomb" unicode="&#x323;" horiz-adv-x="0" 
d="M67 -90q17 0 27 -12.5t8 -29.5q-2 -14 -13.5 -24t-26.5 -10q-17 0 -27 12.5t-8 29.5q2 14 13.5 24t26.5 10z" />
    <glyph glyph-name="commaaccentcomb" unicode="&#x326;" horiz-adv-x="0" 
d="M49 -51q28 0 35.5 -29t-7.5 -68q-16 -42 -41 -74l-30 13q18 30 26 54q10 27 5 40h-2q-10 3 -16 12.5t-5 21.5q2 12 12 20.5t23 9.5z" />
    <glyph glyph-name="circumflexbelowcomb" unicode="&#x32d;" horiz-adv-x="0" 
d="M309 -205h-59l-71 111l-103 -111h-61l126 149h84z" />
    <glyph glyph-name="macronbelowcomb" unicode="&#x331;" horiz-adv-x="0" 
d="M306 -140h-281l7 49h281z" />
    <glyph glyph-name="Delta" unicode="&#x394;" 
 />
    <glyph glyph-name="Omega" unicode="&#x3a9;" 
 />
    <glyph glyph-name="mu" unicode="&#x3bc;" 
 />
    <glyph glyph-name="pi" unicode="&#x3c0;" 
 />
    <glyph glyph-name="Bdotbelow" unicode="&#x1e04;" horiz-adv-x="658" 
d="M169 700h302q96 0 148 -50t41 -130q-7 -52 -39.5 -90.5t-84.5 -58.5q62 -18 93 -65.5t22 -114.5q-13 -86 -83.5 -138.5t-176.5 -52.5h-320l5 40q1 4 5 4l63 6q4 0 7.5 2t5.5 5.5t3 6.5l81 576q1 10 -9 11l-62 5q-2 0 -4 3t-2 5zM376 643l-64 -5l-34 -242h152
q66 0 109 33.5t51 91.5q8 57 -25 89.5t-99 32.5h-90zM270 339l-39 -277l63 -5h102q76 0 125 38t58 104q10 65 -28.5 102.5t-114.5 37.5h-166zM308 -90q17 0 27.5 -12.5t8.5 -29.5q-2 -14 -13.5 -24t-26.5 -10q-12 0 -20.5 6t-12.5 15.5t-2 20.5q0 7 4 13t9 10.5t12 7.5t14 3
z" />
    <glyph glyph-name="bdotbelow" unicode="&#x1e05;" horiz-adv-x="612" 
d="M158 719l130 7q9 1 7 -8l-45 -315q44 53 94 80t98 27q79 0 125.5 -69t29.5 -188q-8 -56 -27 -100t-45.5 -74.5t-62 -50.5t-74 -29t-82.5 -9q-84 0 -172 34l89 641q1 11 -9 11l-61 3zM420 457q-43 0 -90 -30.5t-87 -90.5l-42 -276q54 -22 111 -22q84 0 144 54t75 162
q7 50 1 88t-22 63.5t-39 38.5t-51 13zM304 -90q17 0 27.5 -12.5t7.5 -29.5q-2 -14 -13.5 -24t-26.5 -10q-17 0 -27 12.5t-8 29.5q2 14 13.5 24t26.5 10z" />
    <glyph glyph-name="Ddotbelow" unicode="&#x1e0c;" horiz-adv-x="754" 
d="M166 700h294q154 0 234 -97t57 -257q-22 -158 -127.5 -252t-258.5 -94h-298l6 40q0 4 5 4l63 6q5 0 9.5 4.5t5.5 9.5l81 576q2 10 -8 11l-62 5q-3 0 -5 3t-1 5zM373 643l-65 -5l-81 -576l64 -5h79q121 0 204.5 78.5t103.5 218.5q19 137 -41 213t-182 76h-82zM349 -90
q18 0 28 -12.5t8 -29.5q-2 -14 -13.5 -24t-26.5 -10q-17 0 -27.5 12.5t-7.5 29.5q2 14 13 24t26 10z" />
    <glyph glyph-name="ddotbelow" unicode="&#x1e0d;" horiz-adv-x="621" 
d="M449 743l130 7q9 0 7 -9l-89 -637q-9 -64 65 -66h4l-5 -38h-36q-48 0 -72 18.5t-21 52.5q-25 -26 -54 -44.5t-59.5 -27.5t-60.5 -9q-89 0 -139.5 69t-32.5 196q16 112 77 183.5t149 71.5q49 0 91.5 -26t69.5 -76l41 281q1 10 -9 11l-61 3zM331 462q-63 -1 -114.5 -57.5
t-65.5 -157.5q-14 -99 24 -152t105 -53q83 0 154 82l33 227q-22 56 -58 83.5t-78 27.5zM296 -90q17 0 27.5 -12.5t8.5 -29.5q-2 -9 -7.5 -17t-14 -12.5t-18.5 -4.5q-17 0 -27.5 12.5t-7.5 29.5q1 14 12.5 24t26.5 10z" />
    <glyph glyph-name="Dlinebelow" unicode="&#x1e0e;" horiz-adv-x="754" 
d="M166 700h294q154 0 234 -97t57 -257q-22 -158 -127.5 -252t-258.5 -94h-298l6 40q0 4 5 4l63 6q5 0 9.5 4.5t5.5 9.5l81 576q2 10 -8 11l-62 5q-3 0 -5 3t-1 5zM373 643l-65 -5l-81 -576l64 -5h79q121 0 204.5 78.5t103.5 218.5q19 137 -41 213t-182 76h-82zM494 -140
h-282l7 49h281z" />
    <glyph glyph-name="dlinebelow" unicode="&#x1e0f;" horiz-adv-x="621" 
d="M449 743l130 7q9 0 7 -9l-89 -637q-9 -64 65 -66h4l-5 -38h-36q-48 0 -72 18.5t-21 52.5q-25 -26 -54 -44.5t-59.5 -27.5t-60.5 -9q-89 0 -139.5 69t-32.5 196q16 112 77 183.5t149 71.5q49 0 91.5 -26t69.5 -76l41 281q1 10 -9 11l-61 3zM331 462q-63 -1 -114.5 -57.5
t-65.5 -157.5q-14 -99 24 -152t105 -53q83 0 154 82l33 227q-22 56 -58 83.5t-78 27.5zM433 -140h-281l6 49h282z" />
    <glyph glyph-name="Dcircumflexbelow" unicode="&#x1e12;" horiz-adv-x="754" 
d="M166 700h294q154 0 234 -97t57 -257q-22 -158 -127.5 -252t-258.5 -94h-298l6 40q0 4 5 4l63 6q5 0 9.5 4.5t5.5 9.5l81 576q2 10 -8 11l-62 5q-3 0 -5 3t-1 5zM373 643l-65 -5l-81 -576l64 -5h79q121 0 204.5 78.5t103.5 218.5q19 137 -41 213t-182 76h-82zM483 -205
h-59l-71 111l-103 -111h-61l126 149h83z" />
    <glyph glyph-name="dcircumflexbelow" unicode="&#x1e13;" horiz-adv-x="621" 
d="M449 743l130 7q9 0 7 -9l-89 -637q-9 -64 65 -66h4l-5 -38h-36q-48 0 -72 18.5t-21 52.5q-25 -26 -54 -44.5t-59.5 -27.5t-60.5 -9q-89 0 -139.5 69t-32.5 196q16 112 77 183.5t149 71.5q49 0 91.5 -26t69.5 -76l41 281q1 10 -9 11l-61 3zM331 462q-63 -1 -114.5 -57.5
t-65.5 -157.5q-14 -99 24 -152t105 -53q83 0 154 82l33 227q-22 56 -58 83.5t-78 27.5zM430 -205h-59l-71 111l-103 -111h-61l126 149h83z" />
    <glyph glyph-name="Hdotbelow" unicode="&#x1e24;" horiz-adv-x="858" 
d="M883 656l-67 -6q-14 -1 -16 -14l-81 -576q-1 -10 9 -11l69 -5l-6 -44h-241l5 40q1 4 5 4l73 7q14 1 16 14l37 264h-421l-38 -268q-1 -10 9 -11l78 -6l-6 -44h-241l6 40q0 4 5 4l63 6q13 1 15 14l81 576q2 10 -8 11l-62 5q-7 1 -6 8l5 36h241l-6 -44l-78 -7
q-13 -1 -15 -14l-35 -249h421l35 253q2 10 -8 11l-72 6q-7 1 -6 8l5 36h241zM413 -90q18 0 28 -12.5t8 -29.5q-2 -14 -13.5 -24t-26.5 -10q-17 0 -27.5 12.5t-7.5 29.5q1 9 6.5 16.5t14.5 12.5t18 5z" />
    <glyph glyph-name="hdotbelow" unicode="&#x1e25;" horiz-adv-x="706" 
d="M172 743l129 7q9 0 8 -9l-50 -344q101 113 226 113q74 0 111 -41.5t25 -124.5l-30 -216q-4 -29 2 -48.5t22 -30t41 -11.5h3l-5 -38h-16q-62 0 -91 34t-21 96l30 208q17 124 -93 124q-34 0 -70 -13.5t-73 -41.5t-67 -68l-48 -339h-65l96 689q2 10 -9 11l-61 3zM338 -90
q17 0 27 -12.5t8 -29.5q-2 -14 -13.5 -24t-26.5 -10q-11 0 -20 6t-13 15.5t-2 20.5q1 7 4.5 13t8.5 10.5t12 7.5t15 3z" />
    <glyph glyph-name="Idieresisacute" unicode="&#x1e2e;" horiz-adv-x="368" 
d="M331 887h-61l123 149h81zM219 849q12 0 20.5 -6t12.5 -15.5t3 -20.5q-2 -14 -13.5 -24.5t-26.5 -10.5q-17 0 -27.5 13t-7.5 30q1 13 12.5 23.5t26.5 10.5zM381 849q17 0 27.5 -13t8.5 -29q-2 -14 -13.5 -24.5t-26.5 -10.5q-17 0 -27.5 13t-8.5 30q2 13 13.5 23.5
t26.5 10.5zM393 656l-69 -6q-13 -1 -15 -14l-81 -576q-1 -10 9 -11l70 -5l-6 -44h-234l6 40q0 4 5 4l64 6q5 0 10 4.5t5 9.5l81 576q2 10 -8 11l-63 5q-7 1 -6 8l5 36h233z" />
    <glyph glyph-name="idieresisacute" unicode="&#x1e2f;" horiz-adv-x="351" 
d="M290 714h-61l123 149h81zM178 674q17 0 27.5 -12.5t7.5 -29.5q-2 -14 -13.5 -24t-26.5 -10q-11 0 -19.5 6t-12.5 15.5t-3 20.5q1 9 6.5 17t14.5 12.5t19 4.5zM340 674q17 0 27.5 -12.5t7.5 -29.5q-2 -14 -13.5 -24t-26.5 -10q-11 0 -20 6t-13 15.5t-2 20.5q2 14 13.5 24
t26.5 10zM137 498l130 7q9 1 7 -8l-52 -369q-6 -43 10.5 -65.5t54.5 -24.5h7l-5 -38h-20q-62 0 -91 34t-20 96l44 314q1 11 -9 11l-61 3z" />
    <glyph glyph-name="Ldotbelow" unicode="&#x1e36;" horiz-adv-x="570" 
d="M401 656l-78 -7q-13 -1 -15 -14l-81 -578h255q4 0 7.5 2t6 5t2.5 7l17 75h43l-20 -141q-1 -5 -6 -5h-465l6 40q0 4 5 4l63 6q5 0 9.5 4.5t5.5 9.5l81 576q2 10 -8 11l-62 5q-3 0 -5 3t-1 5l5 36h241zM270 -90q17 0 27 -12.5t8 -29.5q-2 -14 -13.5 -24t-26.5 -10
q-17 0 -27 12.5t-8 29.5q1 5 3 10.5t6 9.5t8.5 7t10.5 5t12 2z" />
    <glyph glyph-name="ldotbelow" unicode="&#x1e37;" horiz-adv-x="341" 
d="M172 743l129 7q9 0 8 -9l-87 -613q-6 -43 10.5 -65.5t54.5 -24.5h7l-5 -38h-20q-62 0 -91 34t-20 96l78 559q2 10 -9 11l-61 3zM155 -90q17 0 27.5 -12.5t7.5 -29.5q-1 -9 -6.5 -17t-14.5 -12.5t-19 -4.5q-17 0 -27 12.5t-8 29.5q2 14 13.5 24t26.5 10z" />
    <glyph glyph-name="Lcircumflexbelow" unicode="&#x1e3c;" horiz-adv-x="570" 
d="M401 656l-78 -7q-13 -1 -15 -14l-81 -578h255q4 0 7.5 2t6 5t2.5 7l17 75h43l-20 -141q-1 -5 -6 -5h-465l6 40q0 4 5 4l63 6q5 0 9.5 4.5t5.5 9.5l81 576q2 10 -8 11l-62 5q-3 0 -5 3t-1 5l5 36h241zM403 -205h-59l-71 111l-103 -111h-61l126 149h84z" />
    <glyph glyph-name="lcircumflexbelow" unicode="&#x1e3d;" horiz-adv-x="341" 
d="M172 743l129 7q9 0 8 -9l-87 -613q-6 -43 10.5 -65.5t54.5 -24.5h7l-5 -38h-20q-62 0 -91 34t-20 96l78 559q2 10 -9 11l-61 3zM288 -205h-58l-71 111l-103 -111h-62l127 149h83z" />
    <glyph glyph-name="Macute" unicode="&#x1e3e;" horiz-adv-x="1027" 
d="M643 772h-61l123 149h81zM984 656l-63 -5q-4 -1 -8 -3.5t-6 -6t-2 -7.5l-3 -585l66 -5l-6 -44h-236l6 44l83 7q16 2 16 17l6 521l-303 -588l-46 -1l-140 591l-149 -539l97 -8l-6 -44h-229l5 40q1 4 5 4l56 5q5 0 9 4t5 8l159 577q3 12 -8 13l-57 5q-3 0 -5 3t-1 5l5 36
h161l138 -580l300 580h157z" />
    <glyph glyph-name="macute" unicode="&#x1e3f;" horiz-adv-x="1028" 
d="M615 572h-61l123 149h81zM814 510q47 0 78 -17.5t45 -55t6 -93.5l-31 -216q-12 -87 65 -90h4l-6 -38h-16q-62 0 -91 34t-20 96l29 208q17 124 -85 124q-49 0 -96 -27t-101 -91l-2 -10l-47 -334h-65l48 338q17 124 -85 124q-49 0 -96 -27t-101 -91l-49 -344h-65l63 444
q1 11 -9 11l-62 3l6 40l130 7q3 1 5 -2t2 -6l-15 -100q58 63 107.5 88t105.5 25q60 0 94.5 -30t35.5 -90q60 68 110.5 94t107.5 26z" />
    <glyph glyph-name="Ndotaccent" unicode="&#x1e44;" horiz-adv-x="848" 
d="M544 874q17 0 27.5 -12.5t7.5 -29.5q-2 -14 -13.5 -24t-26.5 -10q-17 0 -27 12.5t-8 29.5q2 14 13.5 24t26.5 10zM878 656l-68 -6q-13 -1 -15 -14l-90 -636h-65l-349 582l-74 -521q-1 -10 9 -11l75 -6l-6 -44h-233l6 40q0 4 5 4l63 6q14 1 16 14l80 576q2 10 -8 11l-62 5
q-3 0 -5 3t-1 5l5 36h141l352 -588l75 527q1 10 -9 11l-68 6q-2 0 -4 3t-2 5l5 36h233z" />
    <glyph glyph-name="ndotaccent" unicode="&#x1e45;" horiz-adv-x="700" 
d="M441 674q17 0 27.5 -12.5t7.5 -29.5q-2 -14 -13.5 -24t-25.5 -10q-18 0 -28 12.5t-8 29.5q2 14 13.5 24t26.5 10zM478 510q75 0 112 -41.5t25 -124.5l-30 -216q-13 -88 64 -90h4l-5 -38h-16q-63 0 -92 34t-20 96l29 208q18 124 -92 124q-53 0 -109 -31.5t-101 -91.5
l-49 -339h-65l63 444q1 11 -9 11l-62 3l6 40l130 7q8 1 7 -8l-15 -100q100 113 225 113z" />
    <glyph glyph-name="Ndotbelow" unicode="&#x1e46;" horiz-adv-x="848" 
d="M878 656l-68 -6q-13 -1 -15 -14l-90 -636h-65l-349 582l-74 -521q-1 -10 9 -11l75 -6l-6 -44h-233l6 40q0 4 5 4l63 6q14 1 16 14l80 576q2 10 -8 11l-62 5q-2 0 -3.5 1.5t-2.5 3t0 3.5l5 36h141l352 -588l75 527q1 10 -9 11l-68 6q-2 0 -4 3t-2 5l5 36h233zM408 -90
q17 0 27.5 -12.5t8.5 -29.5q-2 -14 -13.5 -24t-26.5 -10q-17 0 -27.5 12.5t-7.5 29.5q2 14 13 24t26 10z" />
    <glyph glyph-name="ndotbelow" unicode="&#x1e47;" horiz-adv-x="700" 
d="M478 510q75 0 112 -41.5t25 -124.5l-30 -216q-6 -43 10 -66t54 -24h4l-5 -38h-16q-63 0 -92 34t-20 96l29 208q18 124 -92 124q-53 0 -109 -31.5t-101 -91.5l-49 -339h-65l63 444q1 11 -9 11l-62 3l6 40l130 7q8 1 7 -8l-15 -100q100 113 225 113zM334 -90q17 0 27 -12.5
t8 -29.5q-2 -14 -13.5 -24t-26.5 -10q-17 0 -27 12.5t-8 29.5q2 14 13.5 24t26.5 10z" />
    <glyph glyph-name="Ncircumflexbelow" unicode="&#x1e4a;" horiz-adv-x="848" 
d="M878 656l-68 -6q-13 -1 -15 -14l-90 -636h-65l-349 582l-74 -521q-1 -10 9 -11l75 -6l-6 -44h-233l6 40q0 4 5 4l63 6q14 1 16 14l80 576q2 10 -8 11l-62 5q-2 0 -3.5 1.5t-2.5 3t0 3.5l5 36h141l352 -588l75 527q1 10 -9 11l-68 6q-2 0 -4 3t-2 5l5 36h233zM542 -205
h-59l-71 111l-103 -111h-61l126 149h83z" />
    <glyph glyph-name="ncircumflexbelow" unicode="&#x1e4b;" horiz-adv-x="700" 
d="M478 510q75 0 112 -41.5t25 -124.5l-30 -216q-6 -43 10 -66t54 -24h4l-5 -38h-16q-63 0 -92 34t-20 96l29 208q18 124 -92 124q-53 0 -109 -31.5t-101 -91.5l-49 -339h-65l63 444q1 11 -9 11l-62 3l6 40l130 7q8 1 7 -8l-15 -100q100 113 225 113zM467 -205h-59l-71 111
l-103 -111h-61l126 149h84z" />
    <glyph glyph-name="Otildeacute" unicode="&#x1e4c;" horiz-adv-x="781" 
d="M537 883h-61l123 149h81zM604 852l43 -13q-9 -33 -29 -52t-48 -22q-29 -2 -66 17q-6 3 -17.5 9t-17.5 9t-13.5 5t-13.5 2q-19 -2 -38 -44l-43 15q23 69 67 73q6 0 13 -1t12 -2.5t14 -5t12 -5t13.5 -6.5t12.5 -5q35 -17 55 -14q25 3 44 40zM487 709q154 0 234 -101
t57 -262q-22 -159 -128 -257t-258 -98q-153 0 -233 100.5t-58 262.5q23 158 129 256.5t257 98.5zM485 652q-121 0 -206 -82.5t-105 -223.5q-19 -138 41 -218.5t179 -80.5q122 0 206.5 83t104.5 224q13 91 -10 159t-77 103.5t-133 35.5z" />
    <glyph glyph-name="otildeacute" unicode="&#x1e4d;" 
d="M423 711h-62l124 149h81zM488 672l44 -13q-9 -34 -29.5 -53t-47.5 -21q-30 -3 -66 16q-7 4 -18 9.5t-17.5 8.5t-14 5.5t-12.5 1.5q-20 -1 -39 -44l-43 16q24 68 67 72q6 0 13.5 -1t12 -2t13.5 -5t12 -5t14 -6t12 -6q36 -17 56 -14q24 3 43 41zM369 510q114 0 173 -73.5
t43 -190.5q-16 -114 -93.5 -185t-189.5 -71q-114 0 -173.5 73.5t-42.5 190.5q16 114 93.5 185t189.5 71zM368 462q-84 0 -143.5 -58.5t-73.5 -157.5q-14 -96 28 -151.5t123 -55.5q85 0 144.5 58t73.5 157q13 96 -28.5 152t-123.5 56z" />
    <glyph glyph-name="Omacrongrave" unicode="&#x1e50;" horiz-adv-x="781" 
d="M552 883h-59l-102 149h79zM640 776h-281l6 49h282zM487 709q154 0 234 -101t57 -262q-14 -105 -67 -185.5t-136 -125t-183 -44.5q-153 0 -233 100.5t-58 262.5q23 158 129 256.5t257 98.5zM485 652q-121 0 -206 -82.5t-105 -223.5q-19 -138 41 -218.5t179 -80.5
q122 0 206.5 83t104.5 224q19 138 -40.5 218t-179.5 80z" />
    <glyph glyph-name="omacrongrave" unicode="&#x1e51;" 
d="M437 711h-59l-101 149h79zM526 601h-282l7 49h282zM369 510q114 0 173 -73.5t43 -190.5q-16 -114 -93.5 -185t-189.5 -71q-114 0 -173.5 73.5t-42.5 190.5q16 114 93.5 185t189.5 71zM368 462q-84 0 -143.5 -58.5t-73.5 -157.5q-14 -96 28 -151.5t123 -55.5
q85 0 144.5 58t73.5 157q13 96 -28.5 152t-123.5 56z" />
    <glyph glyph-name="Omacronacute" unicode="&#x1e52;" horiz-adv-x="781" 
d="M537 883h-61l123 149h81zM640 776h-281l6 49h282zM487 709q154 0 234 -101t57 -262q-22 -159 -128 -257t-258 -98q-153 0 -233 100.5t-58 262.5q15 104 68 185t135.5 125.5t182.5 44.5zM485 652q-121 0 -206 -82.5t-105 -223.5q-19 -138 41 -218.5t179 -80.5
q122 0 206.5 83t104.5 224q19 138 -40.5 218t-179.5 80z" />
    <glyph glyph-name="omacronacute" unicode="&#x1e53;" 
d="M423 711h-62l124 149h81zM526 601h-282l7 49h282zM369 510q114 0 173 -73.5t43 -190.5q-16 -114 -93.5 -185t-189.5 -71q-114 0 -173.5 73.5t-42.5 190.5q16 114 93.5 185t189.5 71zM368 462q-84 0 -143.5 -58.5t-73.5 -157.5q-14 -96 28 -151.5t123 -55.5q85 0 144.5 58
t73.5 157q13 96 -28.5 152t-123.5 56z" />
    <glyph glyph-name="Sdotbelow" unicode="&#x1e62;" horiz-adv-x="567" 
d="M412 711q94 0 153 -41q3 -1 3 -5l-18 -125h-42l5 87q1 7 -5 9q-40 18 -97 18q-79 1 -131.5 -31.5t-59.5 -82.5q-2 -23 -1.5 -39t15 -32.5t41 -34t75.5 -43.5q83 -43 123 -74.5t53 -61.5t7 -74q-13 -88 -92.5 -139t-192.5 -51q-109 0 -180 42q-4 2 -3 6l17 124h43l-5 -84
q-1 -6 4 -8q55 -24 126 -24q86 0 142.5 37t64.5 98q6 43 -17 70t-111 74q-46 25 -76 43t-53 36t-34 32t-18 31.5t-6 34.5t3 41q11 75 86 120.5t181 46.5zM268 -90q17 0 27 -12.5t8 -29.5q-2 -14 -13.5 -24t-26.5 -10q-17 0 -27 12.5t-8 29.5q2 14 13.5 24t26.5 10z" />
    <glyph glyph-name="sdotbelow" unicode="&#x1e63;" horiz-adv-x="442" 
d="M317 510q72 0 118 -29q3 -1 3 -5l-15 -107h-36l5 79q0 6 -5 8q-26 11 -63 11q-38 0 -68.5 -10.5t-48 -29t-21.5 -41.5q-4 -32 11.5 -51.5t80.5 -53.5q84 -44 109.5 -75t18.5 -78q-9 -63 -68.5 -100t-143.5 -37q-76 0 -132 27q-4 1 -4 6l15 106h36l-5 -77q0 -7 6 -9
q37 -11 79 -11q64 0 106.5 26.5t48.5 70.5q4 31 -12.5 51t-78.5 53q-63 33 -92 56.5t-36 44.5t-3 56q8 54 62.5 86.5t132.5 32.5zM205 -90q17 0 27.5 -12.5t8.5 -29.5q-2 -14 -13.5 -24t-26.5 -10q-18 0 -28 12.5t-8 29.5q2 14 13.5 24t26.5 10z" />
    <glyph glyph-name="Tdotbelow" unicode="&#x1e6c;" horiz-adv-x="644" 
d="M129 700h580q8 0 7 -9l-20 -136h-42l5 80q1 10 -10 10h-201l-82 -585q-1 -10 9 -11l70 -5l-6 -44h-234l6 40q0 4 5 4l64 6q5 0 10 4.5t5 9.5l82 581h-197q-14 0 -17 -14l-16 -76h-43l20 140q0 5 5 5zM306 -90q18 0 28 -12.5t8 -29.5q-2 -14 -13.5 -24t-26.5 -10
q-17 0 -27.5 12.5t-7.5 29.5q2 14 13 24t26 10z" />
    <glyph glyph-name="tdotbelow" unicode="&#x1e6d;" horiz-adv-x="383" 
d="M237 500h138l-6 -41l-138 -7l-50 -354q-4 -31 10.5 -47t45.5 -16q45 0 71 32l19 -32q-35 -46 -106 -46q-55 0 -83.5 28.5t-22.5 76.5l51 358l-57 3q-8 0 -7 8l5 35l65 1l18 125l65 4zM175 -90q17 0 27.5 -12.5t8.5 -29.5q-2 -14 -13.5 -24t-26.5 -10q-17 0 -27.5 12.5
t-7.5 29.5q1 14 12.5 24t26.5 10z" />
    <glyph glyph-name="Tlinebelow" unicode="&#x1e6e;" horiz-adv-x="644" 
d="M129 700h580q8 0 7 -9l-20 -136h-42l5 80q1 10 -10 10h-201l-82 -585q-1 -10 9 -11l70 -5l-6 -44h-234l6 40q0 4 5 4l64 6q5 0 10 4.5t5 9.5l82 581h-197q-14 0 -17 -14l-16 -76h-43l20 140q0 5 5 5zM443 -140h-281l7 49h281z" />
    <glyph glyph-name="tlinebelow" unicode="&#x1e6f;" horiz-adv-x="383" 
d="M237 500h138l-6 -41l-138 -7l-50 -354q-4 -31 10.5 -47t45.5 -16q45 0 71 32l19 -32q-35 -46 -106 -46q-55 0 -83.5 28.5t-22.5 76.5l51 358l-57 3q-8 0 -7 8l5 35l65 1l18 125l65 4zM312 -140h-281l6 49h282z" />
    <glyph glyph-name="Tcircumflexbelow" unicode="&#x1e70;" horiz-adv-x="644" 
d="M129 700h580q8 0 7 -9l-20 -136h-42l5 80q1 10 -10 10h-201l-82 -585q-1 -10 9 -11l70 -5l-6 -44h-234l6 40q0 4 5 4l64 6q5 0 10 4.5t5 9.5l82 581h-197q-14 0 -17 -14l-16 -76h-43l20 140q0 5 5 5zM440 -205h-59l-71 111l-103 -111h-61l126 149h83z" />
    <glyph glyph-name="tcircumflexbelow" unicode="&#x1e71;" horiz-adv-x="383" 
d="M237 500h138l-6 -41l-138 -7l-50 -354q-4 -31 10.5 -47t45.5 -16q45 0 71 32l19 -32q-35 -46 -106 -46q-55 0 -83.5 28.5t-22.5 76.5l51 358l-57 3q-8 0 -7 8l5 35l65 1l18 125l65 4zM309 -205h-59l-71 111l-103 -111h-61l126 149h83z" />
    <glyph glyph-name="Wgrave" unicode="&#x1e80;" horiz-adv-x="1112" 
d="M701 772h-59l-101 149h79zM1179 656l-62 -5l-288 -650l-58 -1l-134 590l-300 -589l-60 -1l-102 646q-1 5 -8 6l-42 4q-7 0 -6 8l5 36h121l84 -595l266 528q8 16 -7 18l-68 6q-7 0 -6 8l5 35h173l124 -595l230 529q7 15 -7 17l-71 6q-7 0 -6 8l5 35h218z" />
    <glyph glyph-name="wgrave" unicode="&#x1e81;" horiz-adv-x="856" 
d="M550 572h-59l-101 149h78zM607 72l152 307q28 57 65.5 89t77.5 32h7l-4 -39q-21 0 -49 -27.5t-50 -72.5l-184 -361h-59l-81 399l-196 -399h-59l-96 449q-1 5 -8 6l-34 4q-7 0 -6 8l4 33h100l83 -427l208 427h51z" />
    <glyph glyph-name="Wacute" unicode="&#x1e82;" horiz-adv-x="1112" 
d="M687 772h-61l123 149h81zM1179 656l-62 -5l-288 -650l-58 -1l-134 590l-300 -589l-60 -1l-102 646q-1 5 -8 6l-42 4q-7 0 -6 8l5 36h121l84 -595l266 528q8 16 -7 18l-68 6q-7 0 -6 8l5 35h173l124 -595l230 529q7 15 -7 17l-71 6q-7 0 -6 8l5 35h218z" />
    <glyph glyph-name="wacute" unicode="&#x1e83;" horiz-adv-x="856" 
d="M535 572h-61l124 149h81zM607 72l152 307q28 57 65.5 89t77.5 32h7l-4 -39q-21 0 -49 -27.5t-50 -72.5l-184 -361h-59l-81 399l-196 -399h-59l-96 449q-1 5 -8 6l-34 4q-7 0 -6 8l4 33h100l83 -427l208 427h51z" />
    <glyph glyph-name="Wdieresis" unicode="&#x1e84;" horiz-adv-x="1112" 
d="M594 874q18 0 28 -12.5t8 -29.5q-2 -14 -13.5 -24t-26.5 -10q-11 0 -20 6t-13 15.5t-2 20.5q2 14 13.5 24t25.5 10zM756 874q18 0 28 -12.5t8 -29.5q-2 -14 -13.5 -24t-26.5 -10q-17 0 -27.5 12.5t-7.5 29.5q2 14 13.5 24t25.5 10zM1179 656l-62 -5l-288 -650l-58 -1
l-134 590l-300 -589l-60 -1l-102 646q-1 5 -8 6l-42 4q-7 0 -6 8l5 36h121l84 -595l266 528q8 16 -7 18l-68 6q-7 0 -6 8l5 35h173l124 -595l231 529q6 15 -8 17l-71 6q-7 0 -6 8l5 35h218z" />
    <glyph glyph-name="wdieresis" unicode="&#x1e85;" horiz-adv-x="856" 
d="M443 674q17 0 27.5 -12.5t7.5 -29.5q-2 -14 -13.5 -24t-25.5 -10q-18 0 -28 12.5t-8 29.5q2 14 13.5 24t26.5 10zM605 674q17 0 27.5 -12.5t7.5 -29.5q-2 -14 -13.5 -24t-25.5 -10q-12 0 -20.5 6t-12.5 15.5t-3 20.5q2 14 13.5 24t26.5 10zM909 500l-4 -39
q-21 0 -49 -27.5t-50 -72.5l-184 -361h-59l-81 399l-196 -399h-59l-96 449q-1 5 -8 6l-34 4q-7 0 -6 8l4 33h100l83 -427l208 427h51l78 -428l152 307q18 37 41.5 64.5t49.5 42t52 14.5h7z" />
    <glyph glyph-name="Zdotbelow" unicode="&#x1e92;" horiz-adv-x="587" 
d="M642 658l-503 -602h359q13 0 16 14l16 72h43l-19 -138q-1 -4 -6 -4h-514l6 41l504 602h-332q-13 0 -16 -14l-15 -69h-43l19 135q0 5 5 5h486zM278 -90q17 0 27.5 -12.5t8.5 -29.5q-2 -14 -13.5 -24t-26.5 -10q-18 0 -28 12.5t-8 29.5q2 14 13.5 24t26.5 10z" />
    <glyph glyph-name="zdotbelow" unicode="&#x1e93;" horiz-adv-x="500" 
d="M503 470l-364 -428h256q13 0 16 14l15 64h36l-17 -115q0 -5 -5 -5h-386l3 30l365 428h-232q-14 0 -16 -14l-15 -63h-36l17 114q0 5 5 5h361zM235 -90q17 0 27.5 -12.5t7.5 -29.5q-2 -14 -13.5 -24t-25.5 -10q-18 0 -28 12.5t-8 29.5q2 14 13.5 24t26.5 10z" />
    <glyph glyph-name="slongdotaccent" unicode="&#x1e9b;" horiz-adv-x="416" 
d="M369 901q18 0 28 -12.5t8 -29.5q-2 -14 -13.5 -24t-26.5 -10q-17 0 -27.5 12.5t-7.5 29.5q2 14 13.5 24t25.5 10zM398 750q75 -1 133 -42l-22 -39q-49 32 -103 32q-50 0 -87 -29.5t-45 -84.5l-80 -569q-28 -197 -142 -198h-12l3 39q28 1 52 44.5t35 119.5l60 429l-59 3
q-7 1 -6 9l4 33l68 3l13 95q5 38 23 68.5t44 49t57 28t64 9.5z" />
    <glyph glyph-name="Adotbelow" unicode="&#x1ea0;" horiz-adv-x="771" 
d="M694 49l57 -5l-6 -44h-229l5 39q1 4 5 5l69 5q8 1 14 7t3 15l-39 140h-330l-88 -160l87 -7l-7 -44h-209l5 40q1 4 5 5l46 3q7 1 12 9l353 641l68 3zM272 268h288l-94 352zM367 -90q18 0 28 -12.5t8 -29.5q-2 -14 -13.5 -24t-26.5 -10q-17 0 -27.5 12.5t-7.5 29.5
q2 14 13 24t26 10z" />
    <glyph glyph-name="adotbelow" unicode="&#x1ea1;" horiz-adv-x="627" 
d="M369 510q88 1 180 -45q4 -1 3 -6l-47 -339q-11 -80 63 -82h4l-6 -38h-35q-47 0 -70.5 22t-20.5 63l2 17q-29 -36 -63.5 -61t-69.5 -38t-69 -13q-82 0 -127 68.5t-27 196.5q17 121 95 187.5t188 67.5zM374 462q-87 -1 -147.5 -56t-75.5 -159q-14 -99 18.5 -152t92.5 -53
q44 1 92.5 31.5t90.5 88.5l41 277q-55 23 -112 23zM269 -90q17 0 27.5 -12.5t7.5 -29.5q-2 -14 -13.5 -24t-26.5 -10q-17 0 -27 12.5t-8 29.5q2 14 13.5 24t26.5 10z" />
    <glyph glyph-name="Ahookabove" unicode="&#x1ea2;" horiz-adv-x="771" 
d="M535 1012q52 0 84 -27t27 -67q-3 -20 -12.5 -35.5t-23 -26t-34.5 -21.5q-5 -3 -14 -7.5l-12 -6t-9.5 -5.5t-8.5 -6t-5.5 -6t-5 -8t-2.5 -9l-2 -14h-44l2 23q3 27 19 42t51 31q25 11 37 23t14 34q3 22 -14.5 35.5t-49.5 13.5q-35 0 -64 -17l-22 31q36 23 89 23zM694 49
l57 -5l-6 -44h-229l5 39q1 4 5 5l69 5q8 1 14 7t3 15l-39 140h-330l-88 -160l87 -7l-7 -44h-209l5 40q1 4 5 5l46 3q7 1 12 9l353 641l68 3zM272 268h288l-94 352z" />
    <glyph glyph-name="ahookabove" unicode="&#x1ea3;" horiz-adv-x="564" 
d="M363 802q52 0 84 -27t27 -67q-3 -20 -12.5 -35.5t-23 -26t-34.5 -22.5q-5 -2 -14 -6.5l-12 -6t-9.5 -5.5t-8.5 -6t-5.5 -6t-5 -8t-2.5 -10l-2 -13h-44l2 23q3 27 19 42t51 31q25 11 37 23t14 33q2 15 -5 26.5t-22.5 17.5t-36.5 6q-35 -1 -64 -17l-22 31q36 23 89 23z
M325 509q77 1 122 -42t33 -132l-34 -245q-4 -25 11 -38t51 -13h9l-6 -39h-35q-48 0 -72 17t-20 47q-72 -74 -176 -74q-72 0 -111 39t-30 100q8 55 49 83t134 52l161 41l5 35q17 122 -98 121q-66 0 -127 -36q-4 -1 -5 -6l-17 -75h-37l16 115q1 3 3 5q85 45 174 45zM405 263
l-143 -37q-46 -12 -71 -23t-40 -28.5t-19 -45.5q-4 -27 7 -47.5t34.5 -31.5t57.5 -11q88 0 148 67l4 4z" />
    <glyph glyph-name="Acircumflexacute" unicode="&#x1ea4;" horiz-adv-x="771" 
d="M704 821h-61l123 149h81zM637 748h-59l-70 111l-103 -111h-62l127 149h83zM694 49l57 -5l-6 -44h-229l5 39q1 4 5 5l69 5q8 1 14 7t3 15l-39 140h-330l-88 -160l86 -7l-6 -44h-209l5 40q1 4 5 5l46 3q7 1 12 9l353 641l68 3zM272 268h288l-94 352z" />
    <glyph glyph-name="acircumflexacute" unicode="&#x1ea5;" horiz-adv-x="628" 
d="M547 700h-61l123 149h81zM512 572h-58l-71 111l-103 -111h-62l127 149h83zM369 510q88 1 180 -45q4 -2 3 -6l-47 -339q-11 -80 63 -82h4l-6 -38h-35q-47 0 -70.5 22t-20.5 63l2 17q-44 -54 -97.5 -83t-104.5 -29q-82 0 -127 68.5t-27 196.5q17 121 95 187.5t188 67.5z
M374 462q-87 -1 -147.5 -56t-75.5 -159q-14 -100 18.5 -152.5t92.5 -52.5q44 1 92.5 31.5t90.5 88.5l41 277q-55 23 -112 23z" />
    <glyph glyph-name="Acircumflexgrave" unicode="&#x1ea6;" horiz-adv-x="771" 
d="M740 821h-58l-102 149h79zM637 748h-59l-70 111l-103 -111h-62l127 149h83zM694 49l57 -5l-6 -44h-229l5 39q1 4 5 5l69 5q8 1 14 7t3 15l-39 140h-330l-88 -160l86 -7l-6 -44h-209l5 40q1 4 5 5l46 3q7 1 12 9l353 641l68 3zM272 268h288l-94 352z" />
    <glyph glyph-name="acircumflexgrave" unicode="&#x1ea7;" horiz-adv-x="627" 
d="M551 700h-59l-101 149h78zM512 572h-58l-71 111l-103 -111h-62l127 149h83zM369 510q88 1 180 -45q4 -1 3 -6l-47 -339q-11 -80 63 -82h4l-6 -38h-35q-47 0 -70.5 22t-20.5 63l2 17q-44 -54 -97.5 -83t-104.5 -29q-82 0 -127 68.5t-27 196.5q17 121 95 187.5t188 67.5z
M374 462q-87 -1 -147.5 -56t-75.5 -159q-14 -99 18.5 -152t92.5 -53q29 0 59.5 13t63 40.5t60.5 66.5l41 277q-55 23 -112 23z" />
    <glyph glyph-name="Acircumflexhookabove" unicode="&#x1ea8;" horiz-adv-x="771" 
d="M740 989q52 0 84.5 -27t26.5 -67q-4 -29 -21 -47.5t-49 -35.5q-4 -2 -13.5 -7t-12.5 -6.5t-9.5 -5.5t-8.5 -6t-5.5 -6t-5 -8t-2.5 -9l-2 -14h-44l2 23q3 27 19 42.5t51 30.5q25 11 37 23t15 34t-15 35.5t-50 13.5q-35 0 -64 -17l-22 31q37 23 89 23zM637 748h-59l-70 111
l-103 -111h-62l127 149h83zM694 49l57 -5l-6 -44h-229l5 39q1 4 5 5l69 5q8 1 14 7t3 15l-39 140h-330l-88 -160l86 -7l-6 -44h-209l5 40q1 4 5 5l46 3q7 1 12 9l353 641l68 3zM272 268h288l-94 352z" />
    <glyph glyph-name="acircumflexhookabove" unicode="&#x1ea9;" horiz-adv-x="629" 
d="M555 930q52 0 84 -26.5t27 -67.5q-2 -15 -8 -27t-15 -22t-20.5 -18t-26.5 -16q-4 -2 -13.5 -7t-12.5 -6.5t-9.5 -5t-8.5 -6t-5.5 -6t-5 -8t-2.5 -9.5l-2 -14h-44l2 24q3 27 19 42t51 31q25 11 37 23t15 33q2 22 -15.5 36t-49.5 14q-35 -1 -64 -17l-22 30q37 23 89 23z
M512 572h-58l-71 111l-103 -111h-62l127 149h83zM369 510q88 1 180 -45q4 -2 3 -6l-47 -339q-11 -80 63 -82h4l-6 -38h-35q-47 0 -70.5 22t-20.5 63l2 17q-44 -54 -97.5 -83t-104.5 -29q-82 0 -127 68.5t-27 196.5q11 81 52.5 139.5t100.5 86.5t130 29zM374 462
q-87 -1 -147.5 -56t-75.5 -159q-14 -99 18.5 -152t92.5 -53q44 1 92.5 31.5t90.5 88.5l41 277q-55 23 -112 23z" />
    <glyph glyph-name="Acircumflextilde" unicode="&#x1eaa;" horiz-adv-x="771" 
d="M623 1021l43 -14q-9 -33 -29.5 -52t-47.5 -21q-29 -3 -66 16q-6 3 -17.5 9t-17.5 9t-13.5 5.5t-13.5 1.5q-19 -1 -38 -44l-43 15q23 69 67 73q6 0 13 -1t12 -2.5t14 -5t12 -4.5t13.5 -6.5t12.5 -5.5q35 -17 55 -14q25 3 44 41zM637 748h-59l-70 111l-103 -111h-62
l127 149h83zM694 49l57 -5l-6 -44h-229l5 39q1 4 5 5l69 5q8 1 14 7t3 15l-39 140h-330l-88 -160l86 -7l-6 -44h-209l5 40q1 4 5 5l46 3q7 1 12 9l353 641l68 3zM272 268h288l-94 352z" />
    <glyph glyph-name="acircumflextilde" unicode="&#x1eab;" horiz-adv-x="627" 
d="M496 833l44 -13q-6 -23 -17.5 -39t-26.5 -25t-33 -10q-30 -3 -66 16q-7 4 -18 9.5t-17.5 8.5t-14 5.5t-12.5 1.5q-20 -1 -39 -44l-43 15q23 69 67 73q6 0 11 -0.5t11 -2t11 -3t12 -4.5l10.5 -4.5t11.5 -5.5l10 -5q36 -17 55 -14q25 3 44 41zM512 572h-58l-71 111
l-103 -111h-62l127 149h83zM369 510q88 1 180 -45q4 -1 3 -6l-47 -339q-11 -80 63 -82h4l-6 -38h-35q-47 0 -70.5 22t-20.5 63l2 17q-44 -54 -97.5 -83t-104.5 -29q-82 0 -127 68.5t-27 196.5q17 121 95 187.5t188 67.5zM374 462q-87 -1 -147.5 -56t-75.5 -159
q-14 -99 18.5 -152t92.5 -53q44 1 92.5 31.5t90.5 88.5l41 277q-55 23 -112 23z" />
    <glyph glyph-name="Acircumflexdotbelow" unicode="&#x1eac;" horiz-adv-x="771" 
d="M641 772h-59l-71 111l-103 -111h-61l126 149h83zM694 49l57 -5l-6 -44h-229l5 39q1 4 5 5l69 5q8 1 14 7t3 15l-39 140h-330l-88 -160l87 -7l-7 -44h-209l5 40q1 4 5 5l46 3q7 1 12 9l353 641l68 3zM272 268h288l-94 352zM367 -90q18 0 28 -12.5t8 -29.5
q-2 -14 -13.5 -24t-26.5 -10q-12 0 -20.5 6t-12.5 15.5t-2 20.5q2 14 13 24t26 10z" />
    <glyph glyph-name="acircumflexdotbelow" unicode="&#x1ead;" horiz-adv-x="627" 
d="M510 572h-59l-70 111l-104 -111h-61l126 149h84zM369 510q88 1 180 -45q4 -2 3 -6l-47 -339q-11 -80 63 -82h4l-6 -38h-35q-47 0 -70.5 22t-20.5 63l2 17q-44 -54 -97.5 -83t-104.5 -29q-82 0 -127 68.5t-27 196.5q11 81 52.5 139.5t100.5 86.5t130 29zM374 462
q-87 -1 -147.5 -56t-75.5 -159q-14 -99 18.5 -152t92.5 -53q44 1 92.5 31.5t90.5 88.5l41 277q-55 23 -112 23zM269 -90q17 0 27.5 -12.5t7.5 -29.5q-2 -14 -13.5 -24t-26.5 -10q-17 0 -27 12.5t-8 29.5q2 14 13.5 24t26.5 10z" />
    <glyph glyph-name="Abreveacute" unicode="&#x1eae;" horiz-adv-x="771" 
d="M535 903h-61l123 149h81zM597 883l48 -4q-8 -55 -51.5 -93.5t-99.5 -38.5q-38 0 -67.5 18.5t-43.5 50t-8 67.5l47 -4q-3 -19 1.5 -36t14 -29t24 -18.5t31.5 -6.5q38 0 68.5 27.5t35.5 66.5zM694 49l57 -5l-6 -44h-229l5 39q1 4 5 5l69 5q8 1 14 7t3 15l-39 140h-330
l-88 -160l86 -7l-6 -44h-209l5 40q1 4 5 5l46 3q7 1 12 9l353 641l68 3zM272 268h288l-94 352z" />
    <glyph glyph-name="abreveacute" unicode="&#x1eaf;" horiz-adv-x="627" 
d="M408 714h-61l124 149h81zM472 707l48 -4q-8 -56 -51.5 -94t-99.5 -38q-58 0 -92.5 40t-26.5 96l47 -4q-6 -39 15 -65t56 -26q38 0 68.5 27.5t35.5 67.5zM369 510q88 1 180 -45q4 -2 3 -6l-47 -339q-11 -80 63 -82h4l-6 -38h-35q-47 0 -70.5 22t-20.5 63l2 17
q-44 -54 -97.5 -83t-104.5 -29q-82 0 -127 68.5t-27 196.5q11 81 52.5 139.5t100.5 86.5t130 29zM374 462q-87 -1 -147.5 -56t-75.5 -159q-14 -99 18.5 -152t92.5 -53q44 1 92.5 31.5t90.5 88.5l41 277q-55 23 -112 23z" />
    <glyph glyph-name="Abrevegrave" unicode="&#x1eb0;" horiz-adv-x="771" 
d="M550 903h-59l-102 149h79zM597 883l48 -4q-8 -55 -51.5 -93t-99.5 -38q-58 0 -92.5 40t-26.5 95l47 -4q-6 -39 15 -64.5t56 -25.5q38 0 68.5 27.5t35.5 66.5zM694 49l57 -5l-6 -44h-229l5 39q1 4 5 5l69 5q8 1 13.5 8t3.5 14l-39 140h-330l-88 -160l87 -7l-7 -44h-209
l5 40q1 4 5 5l46 3q8 1 12 9l353 641l68 3zM272 268h288l-94 352z" />
    <glyph glyph-name="abrevegrave" unicode="&#x1eb1;" horiz-adv-x="627" 
d="M417 714h-59l-102 149h79zM470 707l47 -4q-7 -56 -50.5 -94t-99.5 -38q-58 0 -92.5 40t-27.5 96l48 -4q-6 -39 15 -65t56 -26q37 0 68 27.5t36 67.5zM369 510q88 1 180 -45q4 -1 3 -6l-47 -339q-11 -80 63 -82h4l-6 -38h-35q-47 0 -70.5 22t-20.5 63l2 17
q-44 -54 -97.5 -83t-104.5 -29q-82 0 -127 68.5t-27 196.5q17 121 95 187.5t188 67.5zM374 462q-87 -1 -147.5 -56t-75.5 -159q-14 -99 18.5 -152t92.5 -53q44 1 92.5 31.5t90.5 88.5l41 277q-55 23 -112 23z" />
    <glyph glyph-name="Abrevehookabove" unicode="&#x1eb2;" horiz-adv-x="771" 
d="M549 1114q52 0 84.5 -26.5t26.5 -67.5q-4 -28 -21 -47t-49 -36q-4 -2 -13.5 -7t-12.5 -6.5t-9.5 -5t-8.5 -6t-5.5 -6.5t-5 -8t-1.5 -9l-3 -14h-44l2 24q3 27 19 42t51 31q25 11 37 23t15 33q3 22 -15 36t-50 13q-35 0 -64 -16l-22 30q37 23 89 23zM601 907l47 -4
q-8 -56 -51.5 -94t-99.5 -38q-58 0 -92.5 40t-26.5 96l47 -4q-5 -39 16 -65t56 -26q37 0 67.5 27.5t36.5 67.5zM694 49l57 -5l-6 -44h-229l5 39q1 4 5 5l69 5q8 1 14 7t3 15l-39 140h-330l-88 -160l87 -7l-7 -44h-209l5 40q1 4 5 5l46 3q7 1 12 9l353 641l68 3zM272 268h288
l-94 352z" />
    <glyph glyph-name="abrevehookabove" unicode="&#x1eb3;" horiz-adv-x="627" 
d="M423 930q52 0 84 -26.5t27 -67.5q-4 -28 -21 -47t-49 -36q-5 -2 -12.5 -6t-11 -5.5t-9 -5t-8 -5t-6 -5t-5 -6.5t-3 -6.5t-2.5 -8.5l-2 -14h-44l2 24q3 27 19 42t51 31q25 11 37 23t15 33q2 22 -15.5 36t-49.5 14q-35 -1 -64 -17l-22 30q36 23 89 23zM472 707l48 -4
q-8 -56 -51.5 -94t-99.5 -38q-38 0 -67.5 18.5t-43 49.5t-8.5 68l47 -4q-6 -39 15 -65t57 -26q37 0 67.5 27.5t35.5 67.5zM369 510q88 1 180 -45q4 -2 3 -6l-47 -339q-11 -80 63 -82h4l-6 -38h-35q-47 0 -70.5 22t-20.5 63l2 17q-44 -54 -97.5 -83t-104.5 -29
q-82 0 -127 68.5t-27 196.5q17 121 95 187.5t188 67.5zM374 462q-87 -1 -147.5 -56t-75.5 -159q-14 -99 18.5 -152t92.5 -53q44 1 92.5 31.5t90.5 88.5l41 277q-55 23 -112 23z" />
    <glyph glyph-name="Abrevetilde" unicode="&#x1eb4;" horiz-adv-x="771" 
d="M623 1018l43 -13q-9 -33 -29.5 -52t-47.5 -22q-30 -2 -66 17q-7 3 -18 9t-17 9t-14 5t-13 2q-20 -2 -39 -44l-43 15q24 69 68 72q6 1 13 0t11.5 -2.5t14 -5t12.5 -5t13.5 -6.5t11.5 -5q36 -17 56 -14q24 3 44 40zM597 883l48 -4q-5 -36 -27 -66.5t-54.5 -47.5t-69.5 -17
q-58 0 -92.5 40t-26.5 95l47 -4q-6 -39 15 -64.5t56 -25.5q38 0 68.5 27.5t35.5 66.5zM694 49l57 -5l-6 -44h-229l5 39q1 4 5 5l69 5q8 1 14 7t3 15l-39 140h-330l-88 -160l87 -7l-7 -44h-209l5 40q1 4 5 5l46 3q7 1 12 9l353 641l68 3zM272 268h288l-94 352z" />
    <glyph glyph-name="abrevetilde" unicode="&#x1eb5;" horiz-adv-x="627" 
d="M495 822l43 -13q-9 -33 -29.5 -52t-47.5 -22q-29 -2 -66 17q-6 3 -17.5 8.5t-17.5 8.5t-13.5 5.5t-13.5 2.5q-19 -2 -38 -45l-43 16q23 68 67 72q4 0 9 -0.5t9.5 -1t10 -2.5t9.5 -3.5t10 -4t9.5 -4t10 -4.5t8.5 -5q36 -16 56 -13q25 3 44 40zM472 707l48 -4
q-4 -27 -17.5 -51.5t-34 -42t-46.5 -28t-53 -10.5q-58 0 -92.5 40t-26.5 96l47 -4q-6 -39 15 -65t57 -26q37 0 67.5 27.5t35.5 67.5zM369 510q88 1 180 -45q4 -2 3 -6l-47 -339q-11 -80 63 -82h4l-6 -38h-35q-47 0 -70.5 22t-20.5 63l2 17q-44 -54 -97.5 -83t-104.5 -29
q-82 0 -127 68.5t-27 196.5q17 121 95 187.5t188 67.5zM374 462q-87 -1 -147.5 -56t-75.5 -159q-14 -100 18.5 -152.5t92.5 -52.5q44 1 92.5 31.5t90.5 88.5l41 277q-55 23 -112 23z" />
    <glyph glyph-name="Abrevedotbelow" unicode="&#x1eb6;" horiz-adv-x="771" 
d="M601 907l47 -4q-8 -56 -51.5 -94t-99.5 -38q-38 0 -67.5 18.5t-43 49.5t-8.5 68l47 -4q-5 -39 16 -65t56 -26q24 0 46.5 12.5t38 34.5t19.5 48zM694 49l57 -5l-6 -44h-229l5 39q1 4 5 5l69 5q8 1 14 7t3 15l-39 140h-330l-88 -160l87 -7l-7 -44h-209l5 40q1 4 5 5l46 3
q7 1 12 9l353 641l68 3zM272 268h288l-94 352zM367 -90q18 0 28 -12.5t8 -29.5q-2 -14 -13.5 -24t-26.5 -10q-17 0 -27.5 12.5t-7.5 29.5q2 14 13 24t26 10z" />
    <glyph glyph-name="abrevedotbelow" unicode="&#x1eb7;" horiz-adv-x="627" 
d="M470 707l47 -4q-7 -56 -50.5 -94t-99.5 -38q-38 0 -67.5 18.5t-43.5 49.5t-9 68l48 -4q-6 -39 15 -65t56 -26q37 0 68 27.5t36 67.5zM369 510q88 1 180 -45q4 -2 3 -6l-47 -339q-11 -80 63 -82h4l-6 -38h-35q-47 0 -70.5 22t-20.5 63l2 17q-44 -54 -97.5 -83t-104.5 -29
q-82 0 -127 68.5t-27 196.5q17 121 95 187.5t188 67.5zM374 462q-87 -1 -147.5 -56t-75.5 -159q-14 -99 18.5 -152t92.5 -53q44 1 92.5 31.5t90.5 88.5l41 277q-55 23 -112 23zM269 -90q17 0 27.5 -12.5t7.5 -29.5q-2 -14 -13.5 -24t-26.5 -10q-17 0 -27 12.5t-8 29.5
q2 14 13.5 24t26.5 10z" />
    <glyph glyph-name="Edotbelow" unicode="&#x1eb8;" horiz-adv-x="584" 
d="M166 700h455q8 0 7 -9l-20 -137h-42l5 79q1 10 -10 10h-252l-37 -260h230l-8 -54h-229l-38 -272h267q5 0 10 4t6 10l17 75h43l-20 -141q-1 -5 -6 -5h-477l6 40q0 4 5 4l63 6q5 0 9.5 4.5t5.5 9.5l81 576q2 10 -8 11l-62 5q-7 1 -6 8zM276 -90q18 0 28 -12.5t8 -29.5
q-2 -14 -13.5 -24t-26.5 -10q-17 0 -27.5 12.5t-7.5 29.5q2 14 13 24t26 10z" />
    <glyph glyph-name="edotbelow" unicode="&#x1eb9;" horiz-adv-x="538" 
d="M354 510q90 0 139.5 -45.5t47.5 -115.5q-4 -126 -209 -163q-70 -12 -181 -16q7 -62 44.5 -97t98.5 -35q97 1 173 65l20 -45q-78 -68 -197 -68q-109 0 -165 73.5t-39 190.5q16 115 88.5 185.5t179.5 70.5zM351 465q-75 0 -127.5 -54.5t-65.5 -141.5q-4 -27 -4 -52
q99 2 163 14q156 28 159 123q1 32 -13.5 57t-43.5 39.5t-68 14.5zM266 -90q17 0 27.5 -12.5t7.5 -29.5q-1 -14 -13 -24t-26 -10q-18 0 -28 12.5t-8 29.5q2 14 13.5 24t26.5 10z" />
    <glyph glyph-name="Ehookabove" unicode="&#x1eba;" horiz-adv-x="584" 
d="M449 1012q52 0 84 -27t27 -67q-4 -29 -21 -47.5t-49 -35.5q-4 -3 -13.5 -7.5t-12.5 -6t-9.5 -5.5t-8.5 -6t-5.5 -6t-5 -8t-2.5 -9l-2 -14h-44l2 23q3 27 19 42t51 31q17 8 26.5 14.5t16.5 17t9 25.5q1 11 -3 20t-12 15.5t-21 10t-29 3.5q-35 0 -64 -17l-22 31
q37 23 89 23zM166 700h455q8 0 7 -9l-20 -137h-42l5 79q1 10 -10 10h-252l-37 -260h230l-8 -54h-229l-38 -272h267q5 0 10 4t6 10l17 75h43l-20 -141q-1 -5 -6 -5h-477l6 40q0 4 5 4l63 6q5 0 9.5 4.5t5.5 9.5l81 576q2 10 -8 11l-62 5q-7 1 -6 8z" />
    <glyph glyph-name="ehookabove" unicode="&#x1ebb;" horiz-adv-x="557" 
d="M402 802q52 0 84 -27t27 -67q-3 -20 -12.5 -35.5t-23 -26t-34.5 -22.5q-4 -2 -13.5 -6.5t-12.5 -6t-9.5 -5.5t-8.5 -6t-5.5 -6t-5 -8t-2.5 -10l-2 -13h-44l2 23q3 27 19 42t51 31q25 11 37 23t15 33q2 23 -15.5 36.5t-49.5 13.5q-35 -1 -64 -17l-22 31q37 23 89 23z
M354 510q90 0 139.5 -45.5t47.5 -115.5q-4 -126 -209 -163q-70 -12 -181 -16q7 -62 44.5 -97t97.5 -35q98 1 174 65l20 -45q-78 -68 -197 -68q-109 0 -165 73.5t-39 190.5q16 115 88.5 185.5t179.5 70.5zM351 465q-75 0 -127.5 -54.5t-65.5 -141.5q-4 -27 -4 -52
q99 2 163 14q156 28 159 123q1 32 -13.5 57t-43.5 39.5t-68 14.5z" />
    <glyph glyph-name="Etilde" unicode="&#x1ebc;" horiz-adv-x="584" 
d="M534 872l43 -13q-9 -34 -29.5 -53t-47.5 -21q-29 -3 -66 16q-6 3 -14.5 7.5t-14 7.5t-12 5.5t-11.5 4t-10 0.5q-19 -1 -38 -44l-43 16q23 68 67 72q6 0 13 -1t12 -2t14 -5t12 -5t13.5 -6t11.5 -6q36 -17 56 -14q25 3 44 41zM166 700h455q8 0 7 -9l-20 -137h-42l5 79
q1 10 -10 10h-252l-37 -260h230l-8 -54h-229l-38 -272h267q2 0 4.5 0.5t4 2t3.5 3t3 4t1 4.5l17 75h43l-20 -141q-1 -5 -6 -5h-477l6 40q0 4 5 4l63 6q5 0 9.5 4.5t5.5 9.5l81 576q2 10 -8 11l-62 5q-7 1 -6 8z" />
    <glyph glyph-name="etilde" unicode="&#x1ebd;" horiz-adv-x="538" 
d="M471 672l43 -13q-9 -34 -29.5 -53t-47.5 -21q-30 -3 -66 16q-7 4 -18 9.5l-17 8.5t-14 5.5t-13 1.5q-20 -1 -39 -44l-43 16q24 68 68 72q6 0 13 -1t11.5 -2t14 -5t12.5 -5t13.5 -6t11.5 -6q36 -17 56 -14q24 3 44 41zM354 510q90 0 139.5 -45.5t47.5 -115.5
q-4 -126 -209 -163q-70 -12 -181 -16q7 -62 44.5 -97t97.5 -35q98 1 174 65l20 -45q-78 -68 -197 -68q-109 0 -165 73.5t-39 190.5q16 115 88.5 185.5t179.5 70.5zM351 465q-75 0 -127.5 -54.5t-65.5 -141.5q-4 -27 -4 -52q99 2 163 14q156 28 159 123q1 32 -13.5 57
t-43.5 39.5t-68 14.5z" />
    <glyph glyph-name="Ecircumflexacute" unicode="&#x1ebe;" horiz-adv-x="584" 
d="M639 844h-61l123 149h81zM572 772h-58l-71 111l-103 -111h-62l127 149h83zM166 700h455q8 0 7 -9l-20 -137h-42l5 79q1 10 -10 10h-252l-37 -260h230l-8 -54h-229l-38 -272h267q5 0 10 4t6 10l17 75h43l-20 -141q-1 -5 -6 -5h-477l6 40q0 4 5 4l63 6q5 0 9.5 4.5t5.5 9.5
l81 576q2 10 -8 11l-62 5q-7 1 -6 8z" />
    <glyph glyph-name="ecircumflexacute" unicode="&#x1ebf;" horiz-adv-x="546" 
d="M543 700h-61l124 149h81zM509 572h-59l-70 111l-104 -111h-61l126 149h84zM354 510q90 0 139.5 -45.5t47.5 -115.5q-4 -126 -209 -163q-70 -12 -181 -16q7 -62 44.5 -97t97.5 -35q98 1 174 65l20 -45q-78 -68 -197 -68q-109 0 -165 73.5t-39 190.5q16 115 88.5 185.5
t179.5 70.5zM351 465q-75 0 -127.5 -54.5t-65.5 -141.5q-4 -27 -4 -52q99 2 163 14q156 28 159 123q2 49 -32 80t-93 31z" />
    <glyph glyph-name="Ecircumflexgrave" unicode="&#x1ec0;" horiz-adv-x="584" 
d="M681 844h-59l-101 149h78zM572 772h-58l-71 111l-103 -111h-62l127 149h83zM166 700h455q8 0 7 -9l-20 -137h-42l5 79q1 10 -10 10h-252l-37 -260h230l-8 -54h-229l-38 -272h267q4 0 7.5 2t6 5t2.5 7l17 75h43l-20 -141q-1 -5 -6 -5h-477l6 40q0 4 5 4l63 6q5 0 9.5 4.5
t5.5 9.5l81 576q2 10 -8 11l-62 5q-7 1 -6 8z" />
    <glyph glyph-name="ecircumflexgrave" unicode="&#x1ec1;" horiz-adv-x="541" 
d="M548 700h-59l-101 149h78zM509 572h-59l-70 111l-104 -111h-61l126 149h84zM354 510q90 0 139.5 -45.5t47.5 -115.5q-4 -126 -209 -163q-70 -12 -181 -16q7 -62 44.5 -97t98.5 -35q97 1 173 65l20 -45q-78 -68 -197 -68q-109 0 -165 73.5t-39 190.5q16 115 88.5 185.5
t179.5 70.5zM351 465q-75 0 -127.5 -54.5t-65.5 -141.5q-4 -27 -4 -52q99 2 163 14q156 28 159 123q1 32 -13.5 57t-43.5 39.5t-68 14.5z" />
    <glyph glyph-name="Ecircumflexhookabove" unicode="&#x1ec2;" horiz-adv-x="584" 
d="M678 1012q52 0 84.5 -27t26.5 -67q-4 -29 -21 -47.5t-49 -35.5q-4 -3 -12 -6.5t-11 -5.5t-8.5 -5t-8 -5t-6 -5t-5 -6t-3 -7t-2.5 -8l-3 -14h-44l2 23q3 27 19.5 42t51.5 31q24 11 36 23t15 34t-14.5 35.5t-50.5 13.5q-34 0 -64 -17l-22 31q37 23 89 23zM572 772h-58
l-71 111l-103 -111h-62l127 149h83zM166 700h455q8 0 7 -9l-20 -137h-42l5 79q1 10 -10 10h-252l-37 -260h230l-8 -54h-229l-38 -272h267q4 0 7.5 2t6 5t2.5 7l17 75h43l-20 -141q-1 -5 -6 -5h-477l6 40q0 4 5 4l63 6q3 0 6.5 2t6 5.5t2.5 6.5l81 576q2 10 -8 11l-62 5
q-7 1 -6 8z" />
    <glyph glyph-name="ecircumflexhookabove" unicode="&#x1ec3;" horiz-adv-x="545" 
d="M550 930q52 0 84.5 -26.5t26.5 -67.5q-2 -15 -7.5 -27t-15 -22t-20.5 -18t-27 -16l-12 -6l-11 -5.5t-9 -5t-8 -5t-5.5 -5t-5.5 -6.5t-3.5 -6.5t-1.5 -8.5l-3 -14h-44l2 24q3 27 19 42t51 31q17 7 27 13.5t16.5 17t8.5 25.5q3 22 -15 36t-50 14q-35 -1 -64 -17l-22 30
q37 23 89 23zM508 572h-59l-71 111l-103 -111h-61l126 149h83zM354 510q60 0 103.5 -21.5t64 -57.5t19.5 -82q-4 -126 -209 -163q-70 -12 -181 -16q7 -62 44.5 -97t98.5 -35q98 1 173 65l20 -45q-78 -68 -197 -68q-109 0 -165 73.5t-39 190.5q16 115 88.5 185.5t179.5 70.5z
M351 465q-75 0 -127.5 -54.5t-65.5 -141.5q-4 -27 -4 -52q99 2 163 14q156 28 159 123q2 49 -32 80t-93 31z" />
    <glyph glyph-name="Ecircumflextilde" unicode="&#x1ec4;" horiz-adv-x="584" 
d="M558 1044l43 -13q-9 -33 -29 -52.5t-48 -21.5q-29 -2 -66 17q-6 3 -14.5 7t-14 7t-12 5.5t-11.5 4t-10 0.5q-19 -1 -38 -44l-43 16q23 68 67 72q6 0 13 -1t12 -2t14 -5t12 -5t13.5 -6t12.5 -6q35 -16 55 -14q25 4 44 41zM572 772h-58l-71 111l-103 -111h-62l127 149h83z
M166 700h455q8 0 7 -9l-20 -137h-42l5 79q1 10 -10 10h-252l-37 -260h230l-8 -54h-229l-38 -272h267q4 0 7.5 2t6 5t2.5 7l17 75h43l-20 -141q-1 -5 -6 -5h-477l6 40q0 4 5 4l63 6q5 0 9.5 4.5t5.5 9.5l81 576q2 10 -8 11l-62 5q-7 1 -6 8z" />
    <glyph glyph-name="ecircumflextilde" unicode="&#x1ec5;" horiz-adv-x="541" 
d="M493 833l43 -13q-6 -23 -17.5 -39t-26.5 -25t-33 -10q-29 -3 -65 16q-7 4 -18.5 9.5t-17.5 8.5t-13.5 5.5t-13.5 1.5q-19 -1 -38 -44l-43 15q23 69 67 73q6 0 13 -1t12 -2t14 -5t12 -5t14 -6t12 -6q35 -17 55 -14q25 3 44 41zM509 572h-59l-70 111l-104 -111h-61l126 149
h84zM354 510q90 0 139.5 -45.5t47.5 -115.5q-4 -126 -209 -163q-70 -12 -181 -16q7 -62 44.5 -97t97.5 -35q98 1 174 65l20 -45q-78 -68 -197 -68q-109 0 -165 73.5t-39 190.5q16 115 88.5 185.5t179.5 70.5zM351 465q-75 0 -127.5 -54.5t-65.5 -141.5q-4 -27 -4 -52
q99 2 163 14q156 28 159 123q1 32 -13.5 57t-43.5 39.5t-68 14.5z" />
    <glyph glyph-name="Ecircumflexdotbelow" unicode="&#x1ec6;" horiz-adv-x="584" 
d="M572 772h-58l-71 111l-103 -111h-62l127 149h83zM166 700h455q8 0 7 -9l-20 -137h-42l5 79q1 10 -10 10h-252l-37 -260h230l-8 -54h-229l-38 -272h267q2 0 4.5 0.5t4 2t3.5 3t3 4t1 4.5l17 75h43l-20 -141q-1 -5 -6 -5h-477l6 40q0 4 5 4l63 6q3 0 6.5 2t6 5.5t2.5 6.5
l81 576q2 10 -8 11l-62 5q-7 1 -6 8zM276 -90q18 0 28 -12.5t8 -29.5q-2 -14 -13.5 -24t-26.5 -10q-17 0 -27.5 12.5t-7.5 29.5q2 14 13 24t26 10z" />
    <glyph glyph-name="ecircumflexdotbelow" unicode="&#x1ec7;" horiz-adv-x="538" 
d="M509 572h-59l-70 111l-103 -111h-62l127 149h83zM354 510q90 0 139.5 -45.5t47.5 -115.5q-4 -126 -209 -163q-70 -12 -181 -16q7 -62 44.5 -97t98.5 -35q97 1 173 65l20 -45q-78 -68 -197 -68q-109 0 -165 73.5t-39 190.5q16 115 88.5 185.5t179.5 70.5zM351 465
q-75 0 -127.5 -54.5t-65.5 -141.5q-4 -27 -4 -52q99 2 163 14q156 28 159 123q1 32 -13.5 57t-43.5 39.5t-68 14.5zM266 -90q17 0 27.5 -12.5t7.5 -29.5q-1 -14 -13 -24t-26 -10q-18 0 -28 12.5t-8 29.5q2 14 13.5 24t26.5 10z" />
    <glyph glyph-name="Ihookabove" unicode="&#x1ec8;" horiz-adv-x="368" 
d="M327 1012q34 0 60.5 -12t40 -33.5t9.5 -48.5q-4 -29 -21 -47.5t-48 -35.5q-5 -3 -14.5 -7.5t-12.5 -6t-9 -5.5t-8 -6t-5.5 -6t-5 -8t-2.5 -9l-3 -14h-43l2 23q3 27 19 42t51 31q25 11 37 23t14 34q3 22 -14.5 35.5t-49.5 13.5q-35 0 -64 -17l-22 31q36 23 89 23zM393 656
l-69 -6q-13 -1 -15 -14l-81 -576q-1 -10 9 -11l70 -5l-6 -44h-234l6 40q0 4 5 4l64 6q3 0 6.5 2t6 5.5t2.5 6.5l81 576q2 10 -8 11l-63 5q-7 1 -6 8l5 36h233z" />
    <glyph glyph-name="ihookabove" unicode="&#x1ec9;" horiz-adv-x="350" 
d="M284 802q52 0 84 -27t26 -67q-2 -20 -12 -35.5t-23.5 -26t-33.5 -22.5q-5 -2 -14.5 -6.5t-12.5 -6t-9 -5.5t-8.5 -6t-5.5 -6t-4.5 -8t-2.5 -10l-3 -13h-44l3 23q3 27 19 42t51 31q16 7 26 14t16.5 17.5t8.5 24.5q3 23 -14.5 36.5t-50.5 13.5q-34 -1 -63 -17l-22 31
q36 23 89 23zM137 498l130 7q9 1 7 -8l-52 -369q-6 -43 10.5 -65.5t54.5 -24.5h7l-5 -38h-20q-62 0 -91 34t-20 96l44 314q1 11 -9 11l-61 3z" />
    <glyph glyph-name="Idotbelow" unicode="&#x1eca;" horiz-adv-x="368" 
d="M393 656l-69 -6q-13 -1 -15 -14l-81 -576q-1 -10 9 -11l70 -5l-6 -44h-234l6 40q0 4 5 4l64 6q5 0 10 4.5t5 9.5l81 576q2 10 -8 11l-63 5q-7 1 -6 8l5 36h233zM169 -90q17 0 27.5 -12.5t8.5 -29.5q-2 -14 -13.5 -24t-26.5 -10q-18 0 -28 12.5t-8 29.5q2 9 7.5 17
t14 12.5t18.5 4.5z" />
    <glyph glyph-name="idotbelow" unicode="&#x1ecb;" horiz-adv-x="350" 
d="M267 714q18 0 29 -13.5t8 -31.5q-2 -15 -14.5 -25.5t-28.5 -10.5q-18 0 -29 13t-8 31q2 15 14.5 26t28.5 11zM137 498l130 7q9 1 7 -8l-52 -369q-6 -43 10.5 -65.5t54.5 -24.5h7l-5 -38h-20q-62 0 -91 34t-20 96l44 314q1 11 -9 11l-61 3zM166 -90q17 0 27.5 -12.5
t8.5 -29.5q-2 -14 -13.5 -24t-26.5 -10q-17 0 -27.5 12.5t-7.5 29.5q2 14 13 24t26 10z" />
    <glyph glyph-name="Odotbelow" unicode="&#x1ecc;" horiz-adv-x="781" 
d="M487 709q154 0 234 -101t57 -262q-22 -159 -128 -257t-258 -98q-153 0 -233 100.5t-58 262.5q23 158 129 256.5t257 98.5zM485 652q-121 0 -206 -82.5t-105 -223.5q-19 -138 41 -218.5t179 -80.5q80 0 146 37t109 107t56 163q13 91 -10 159t-77 103.5t-133 35.5zM375 -90
q17 0 27.5 -12.5t7.5 -29.5q-2 -14 -13.5 -24t-26.5 -10q-17 0 -27 12.5t-8 29.5q2 14 13.5 24t26.5 10z" />
    <glyph glyph-name="odotbelow" unicode="&#x1ecd;" 
d="M369 510q75 0 128.5 -33.5t76 -93.5t11.5 -137q-16 -114 -93.5 -185t-189.5 -71q-114 0 -173.5 73.5t-42.5 190.5q16 114 93.5 185t189.5 71zM368 462q-84 0 -143.5 -58.5t-73.5 -157.5q-14 -96 28 -151.5t123 -55.5q85 0 144.5 58t73.5 157q13 96 -28.5 152t-123.5 56z
M284 -90q17 0 27.5 -12.5t8.5 -29.5q-2 -14 -13.5 -24t-26.5 -10q-18 0 -28 12.5t-8 29.5q1 5 3.5 10.5t6 9.5t8.5 7t10.5 5t11.5 2z" />
    <glyph glyph-name="Ohookabove" unicode="&#x1ece;" horiz-adv-x="781" 
d="M541 1012q34 0 61 -12t40.5 -33.5t9.5 -48.5q-3 -20 -12.5 -35.5t-23 -26t-34.5 -21.5q-4 -3 -12 -6.5t-11 -5.5t-8.5 -5t-8 -5t-6 -5t-5 -6t-3 -7t-2.5 -8l-3 -14h-44l2 23q3 27 19.5 42t51.5 31q25 11 36.5 23t14.5 34t-14.5 35.5t-50.5 13.5q-34 0 -64 -17l-22 31
q37 23 89 23zM487 709q154 0 234 -101t57 -262q-22 -159 -128 -257t-258 -98q-153 0 -233 100.5t-58 262.5q23 158 129 256.5t257 98.5zM485 652q-121 0 -206 -82.5t-105 -223.5q-19 -138 41 -218.5t179 -80.5q122 0 206.5 83t104.5 224q13 91 -10 159t-77 103.5t-133 35.5z
" />
    <glyph glyph-name="ohookabove" unicode="&#x1ecf;" 
d="M419 802q52 0 84 -27t27 -67q-3 -20 -12.5 -35.5t-23 -26t-34.5 -22.5q-4 -2 -13.5 -6.5t-12.5 -6t-9.5 -5.5t-8.5 -6t-5.5 -6t-5 -8t-2.5 -10l-2 -13h-44l2 23q3 27 19 42t51 31q25 11 37 23t15 33q2 15 -5.5 26.5t-23 17.5t-36.5 6q-35 -1 -64 -17l-22 31q37 23 89 23z
M369 510q75 0 128.5 -33.5t76 -93.5t11.5 -137q-16 -114 -93.5 -185t-189.5 -71q-114 0 -173.5 73.5t-42.5 190.5q16 114 93.5 185t189.5 71zM368 462q-84 0 -143.5 -58.5t-73.5 -157.5q-14 -96 28 -151.5t123 -55.5q85 0 144.5 58t73.5 157q9 64 -7 111t-53.5 72t-91.5 25z
" />
    <glyph glyph-name="Ocircumflexacute" unicode="&#x1ed0;" horiz-adv-x="781" 
d="M713 821h-61l124 149h81zM642 748h-59l-71 111l-103 -111h-61l126 149h84zM487 709q154 0 234 -101t57 -262q-22 -159 -128 -257t-258 -98q-153 0 -233 100.5t-58 262.5q23 158 129 256.5t257 98.5zM485 652q-121 0 -206 -82.5t-105 -223.5q-19 -138 41 -218.5t179 -80.5
q122 0 206.5 83t104.5 224q13 91 -10 159t-77 103.5t-133 35.5z" />
    <glyph glyph-name="ocircumflexacute" unicode="&#x1ed1;" 
d="M561 700h-61l124 149h81zM527 572h-59l-70 111l-104 -111h-61l126 149h84zM369 510q75 0 128.5 -33.5t76 -93.5t11.5 -137q-16 -114 -93.5 -185t-189.5 -71q-114 0 -173.5 73.5t-42.5 190.5q16 114 93.5 185t189.5 71zM368 462q-84 0 -143.5 -58.5t-73.5 -157.5
q-14 -96 28 -151.5t123 -55.5q85 0 144.5 58t73.5 157q13 96 -28.5 152t-123.5 56z" />
    <glyph glyph-name="Ocircumflexgrave" unicode="&#x1ed2;" horiz-adv-x="781" 
d="M744 821h-59l-101 149h78zM642 748h-59l-71 111l-103 -111h-61l126 149h84zM487 709q154 0 234 -101t57 -262q-22 -159 -128 -257t-258 -98q-153 0 -233 100.5t-58 262.5q15 104 68 185t135.5 125.5t182.5 44.5zM485 652q-121 0 -206 -82.5t-105 -223.5
q-19 -138 41 -218.5t179 -80.5q122 0 206.5 83t104.5 224q13 91 -10 159t-77 103.5t-133 35.5z" />
    <glyph glyph-name="ocircumflexgrave" unicode="&#x1ed3;" 
d="M566 700h-59l-102 149h79zM527 572h-59l-70 111l-104 -111h-61l126 149h84zM369 510q114 0 173 -73.5t43 -190.5q-16 -114 -93.5 -185t-189.5 -71q-114 0 -173.5 73.5t-42.5 190.5q10 75 48.5 133t99.5 90.5t135 32.5zM368 462q-84 0 -143.5 -58.5t-73.5 -157.5
q-14 -96 28 -151.5t123 -55.5q85 0 144.5 58t73.5 157q13 96 -28.5 152t-123.5 56z" />
    <glyph glyph-name="Ocircumflexhookabove" unicode="&#x1ed4;" horiz-adv-x="781" 
d="M743 994q52 0 84.5 -26.5t26.5 -67.5q-3 -20 -12.5 -35.5t-23 -26t-34.5 -21.5q-4 -2 -13.5 -7t-12.5 -6.5t-9.5 -5t-8.5 -6t-5.5 -6.5t-4.5 -8t-2 -9l-3 -14h-44l2 24q3 27 19 42t51 30q13 6 21 11t15 11.5t11 15t5 19.5q3 22 -15 36t-50 13q-35 0 -64 -16l-22 30
q37 23 89 23zM642 748h-59l-71 111l-103 -111h-61l126 149h84zM487 709q154 0 234 -101t57 -262q-22 -159 -128 -257t-258 -98q-153 0 -233 100.5t-58 262.5q23 158 129 256.5t257 98.5zM485 652q-121 0 -206 -82.5t-105 -223.5q-7 -56 -2 -102.5t23 -83t46 -61.5t67 -38.5
t86 -13.5q122 0 206.5 83t104.5 224q13 91 -10 159t-77 103.5t-133 35.5z" />
    <glyph glyph-name="ocircumflexhookabove" unicode="&#x1ed5;" horiz-adv-x="601" 
d="M570 930q52 0 84 -26.5t26 -67.5q-2 -15 -7.5 -27t-15 -22t-20.5 -18t-26 -16q-5 -2 -14.5 -7t-12.5 -6.5t-9 -5t-8.5 -6t-5.5 -6t-4.5 -8t-2.5 -9.5l-3 -14h-44l3 24q3 27 19 42t51 31q25 11 37 23t14 33q3 22 -14.5 36t-50.5 14q-34 -1 -63 -17l-22 30q36 23 89 23z
M527 572h-59l-70 111l-104 -111h-61l126 149h84zM369 510q75 0 128.5 -33.5t76 -93.5t11.5 -137q-16 -114 -93.5 -185t-189.5 -71q-114 0 -173.5 73.5t-42.5 190.5q16 114 93.5 185t189.5 71zM368 462q-84 0 -143.5 -58.5t-73.5 -157.5q-14 -96 28 -151.5t123 -55.5
q85 0 144.5 58t73.5 157q13 96 -28.5 152t-123.5 56z" />
    <glyph glyph-name="Ocircumflextilde" unicode="&#x1ed6;" horiz-adv-x="781" 
d="M631 1044l43 -13q-9 -34 -29.5 -53t-47.5 -21q-29 -3 -66 17q-6 3 -17.5 8.5t-17.5 8.5t-13.5 5.5t-13.5 1.5q-19 -1 -38 -44l-43 16q23 68 67 72q5 0 10.5 -0.5t11.5 -2t10.5 -3t11.5 -4.5l10.5 -4.5t11.5 -5.5t11 -5q35 -17 55 -14q25 3 44 41zM645 772h-58l-71 111
l-103 -111h-62l127 149h83zM487 709q154 0 234 -101t57 -262q-14 -105 -67 -185.5t-136 -125t-183 -44.5q-153 0 -233 100.5t-58 262.5q23 158 129 256.5t257 98.5zM485 652q-121 0 -206 -82.5t-105 -223.5q-19 -138 41 -218.5t179 -80.5q122 0 206.5 83t104.5 224
q19 138 -40.5 218t-179.5 80z" />
    <glyph glyph-name="ocircumflextilde" unicode="&#x1ed7;" 
d="M511 833l43 -13q-6 -23 -17.5 -39t-26.5 -25t-33 -10q-29 -3 -65 16q-7 4 -18.5 9.5t-17.5 8.5t-13.5 5.5t-13.5 1.5q-19 -1 -38 -44l-43 15q23 69 67 73q6 0 13 -1t12 -2t14 -5t12 -5t14 -6.5t12 -5.5q35 -17 55 -14q25 3 44 41zM527 572h-59l-71 111l-103 -111h-61
l126 149h84zM369 510q75 0 128.5 -33.5t76 -93.5t11.5 -137q-16 -114 -93.5 -185t-189.5 -71q-114 0 -173.5 73.5t-42.5 190.5q16 114 93.5 185t189.5 71zM368 462q-84 0 -143.5 -58.5t-73.5 -157.5q-14 -96 28 -151.5t123 -55.5q85 0 144.5 58t73.5 157q13 96 -28.5 152
t-123.5 56z" />
    <glyph glyph-name="Ocircumflexdotbelow" unicode="&#x1ed8;" horiz-adv-x="781" 
d="M645 772h-58l-71 111l-103 -111h-62l127 149h83zM487 709q154 0 234 -101t57 -262q-22 -159 -128 -257t-258 -98q-153 0 -233 100.5t-58 262.5q23 158 129 256.5t257 98.5zM485 652q-121 0 -206 -82.5t-105 -223.5q-7 -56 -2 -102.5t23 -83t46 -61.5t67 -38.5t86 -13.5
q122 0 206.5 83t104.5 224q13 91 -10 159t-77 103.5t-133 35.5zM375 -90q17 0 27.5 -12.5t7.5 -29.5q-2 -14 -13.5 -24t-26.5 -10q-17 0 -27 12.5t-8 29.5q1 9 6.5 17t14.5 12.5t19 4.5z" />
    <glyph glyph-name="ocircumflexdotbelow" unicode="&#x1ed9;" 
d="M527 572h-59l-70 111l-104 -111h-61l126 149h84zM369 510q75 0 128.5 -33.5t76 -93.5t11.5 -137q-16 -114 -93.5 -185t-189.5 -71q-114 0 -173.5 73.5t-42.5 190.5q16 114 93.5 185t189.5 71zM368 462q-84 0 -143.5 -58.5t-73.5 -157.5q-14 -96 28 -151.5t123 -55.5
q85 0 144.5 58t73.5 157q13 96 -28.5 152t-123.5 56zM284 -90q17 0 27.5 -12.5t8.5 -29.5q-2 -14 -13.5 -24t-26.5 -10q-18 0 -28 12.5t-8 29.5q1 5 3.5 10.5t6 9.5t8.5 7t10.5 5t11.5 2z" />
    <glyph glyph-name="Ohornacute" unicode="&#x1eda;" horiz-adv-x="781" 
d="M521 772h-61l124 149h81zM801 828l54 14q22 -58 12 -111q-8 -49 -42 -77t-88 -30q-12 -1 -29 -1q45 -48 64 -119t6 -158q-22 -159 -128 -257t-258 -98q-153 0 -233 100.5t-58 262.5q23 158 129 256.5t257 98.5q90 0 154 -39q31 -13 64 -13q89 -1 106 76q11 44 -10 95z
M485 652q-121 0 -206 -82.5t-105 -223.5q-19 -138 41 -218.5t179 -80.5q122 0 206.5 83t104.5 224q19 138 -40.5 218t-179.5 80z" />
    <glyph glyph-name="ohornacute" unicode="&#x1edb;" 
d="M403 572h-61l123 149h81zM623 628l48 12q24 -59 12 -115q-7 -30 -23 -52t-43.5 -36t-62.5 -16q46 -71 31 -175q-16 -114 -93.5 -185t-189.5 -71q-114 0 -173.5 73.5t-42.5 190.5q16 114 93.5 185t189.5 71q97 0 153 -55l19 3q35 2 58 20.5t32 49.5q15 45 -8 100zM368 462
q-84 0 -143.5 -58.5t-73.5 -157.5q-14 -96 28 -151.5t123 -55.5q85 0 144.5 58t73.5 157q13 96 -28.5 152t-123.5 56z" />
    <glyph glyph-name="Ohorngrave" unicode="&#x1edc;" horiz-adv-x="781" 
d="M536 772h-59l-101 149h78zM801 828l54 14q22 -58 12 -111q-8 -48 -41.5 -76.5t-87.5 -30.5q-12 -1 -30 -1q45 -48 64 -119t6 -158q-14 -105 -67 -185.5t-136 -125t-183 -44.5q-153 0 -233 100.5t-58 262.5q23 158 129 256.5t257 98.5q90 0 154 -39q31 -13 64 -13
q89 -1 106 76q11 44 -10 95zM485 652q-121 0 -206 -82.5t-105 -223.5q-19 -138 41 -218.5t179 -80.5q122 0 206.5 83t104.5 224q13 91 -10 159t-77 103.5t-133 35.5z" />
    <glyph glyph-name="ohorngrave" unicode="&#x1edd;" 
d="M418 572h-59l-102 149h79zM623 628l48 12q24 -59 12 -115q-10 -45 -43 -73t-86 -31q46 -71 31 -175q-16 -114 -93.5 -185t-189.5 -71q-114 0 -173.5 73.5t-42.5 190.5q16 114 93.5 185t189.5 71q97 0 153 -55l19 3q35 1 57.5 19.5t30.5 48.5q17 45 -6 102zM368 462
q-84 0 -143.5 -58.5t-73.5 -157.5q-14 -96 28 -151.5t123 -55.5q85 0 144.5 58t73.5 157q13 96 -28.5 152t-123.5 56z" />
    <glyph glyph-name="Ohornhookabove" unicode="&#x1ede;" horiz-adv-x="781" 
d="M541 1012q34 0 61 -12t40.5 -33.5t9.5 -48.5q-3 -20 -12.5 -35.5t-23 -26t-34.5 -21.5q-4 -3 -12 -6.5t-11 -5.5t-8.5 -5t-8 -5t-6 -5t-5 -6t-3 -7t-2.5 -8l-3 -14h-44l2 23q3 27 19.5 42t51.5 31q25 11 36.5 23t14.5 34t-14.5 35.5t-50.5 13.5q-34 0 -64 -17l-22 31
q37 23 89 23zM801 828l54 14q22 -58 12 -111q-8 -48 -41.5 -76t-84.5 -31q-14 -1 -33 -1q45 -48 64 -119t6 -158q-22 -159 -128 -257t-258 -98q-153 0 -233 100.5t-58 262.5q23 158 129 256.5t257 98.5q90 0 154 -39q31 -13 64 -13q89 -1 106 76q11 44 -10 95zM485 652
q-121 0 -206 -82.5t-105 -223.5q-12 -91 10.5 -159t77 -104t132.5 -36q122 0 206.5 83t104.5 224q13 91 -10 159t-77 103.5t-133 35.5z" />
    <glyph glyph-name="ohornhookabove" unicode="&#x1edf;" 
d="M419 802q52 0 84 -27t27 -67q-3 -20 -12.5 -35.5t-23 -26t-34.5 -22.5q-4 -2 -13.5 -6.5t-12.5 -6t-9.5 -5.5t-8.5 -6t-5.5 -6t-5 -8t-2.5 -10l-2 -13h-44l2 23q3 27 19 42t51 31q25 11 37 23t15 33q2 15 -5.5 26.5t-23 17.5t-36.5 6q-35 -1 -64 -17l-22 31q37 23 89 23z
M623 628l48 12q24 -59 12 -115q-10 -45 -43 -73t-86 -31q46 -71 31 -175q-16 -114 -93.5 -185t-189.5 -71q-114 0 -173.5 73.5t-42.5 190.5q16 114 93.5 185t189.5 71q97 0 153 -55l19 3q34 1 56.5 18.5t30.5 47.5q19 45 -5 104zM368 462q-84 0 -143.5 -58.5t-73.5 -157.5
q-14 -96 28 -151.5t123 -55.5q85 0 144.5 58t73.5 157q13 96 -28.5 152t-123.5 56z" />
    <glyph glyph-name="Ohorntilde" unicode="&#x1ee0;" horiz-adv-x="781" 
d="M607 872l43 -13q-9 -34 -29.5 -53t-47.5 -21q-29 -3 -66 16q-5 3 -12 6.5l-12 6t-10.5 5.5t-10 4.5t-9 2.5t-8.5 0q-19 -1 -38 -44l-43 16q23 68 67 72q5 0 10.5 -0.5t11.5 -2t10.5 -3t11.5 -4.5l10.5 -4.5t11.5 -5.5l10 -5q36 -17 56 -14q25 3 44 41zM801 828l54 14
q22 -58 12 -111q-8 -48 -41.5 -76t-86.5 -31q-13 -1 -31 -1q45 -48 64 -119t6 -158q-22 -159 -128 -257t-258 -98q-153 0 -233 100.5t-58 262.5q23 158 129 256.5t257 98.5q90 0 154 -39q31 -13 64 -13q89 -1 106 76q11 44 -10 95zM485 652q-121 0 -206 -82.5t-105 -223.5
q-19 -138 41 -218.5t179 -80.5q122 0 206.5 83t104.5 224q13 91 -10 159t-77 103.5t-133 35.5z" />
    <glyph glyph-name="ohorntilde" unicode="&#x1ee1;" 
d="M488 672l44 -13q-9 -34 -29.5 -53t-47.5 -21q-30 -3 -66 16q-7 4 -18 9.5t-17.5 8.5t-14 5.5t-12.5 1.5q-20 -1 -39 -44l-43 16q24 68 67 72q6 0 11 -0.5t11 -2t11 -3t12 -4.5l10.5 -4.5t11.5 -5.5l10 -5q36 -17 56 -14q24 3 43 41zM623 628l48 12q24 -59 12 -115
q-10 -45 -43 -73t-86 -31q46 -71 31 -175q-16 -114 -93.5 -185t-189.5 -71q-114 0 -173.5 73.5t-42.5 190.5q16 114 93.5 185t189.5 71q97 0 153 -55l19 3q23 1 41 9.5t29 22.5t16 33q20 46 -4 105zM368 462q-84 0 -143.5 -58.5t-73.5 -157.5q-14 -96 28 -151.5t123 -55.5
q85 0 144.5 58t73.5 157q13 96 -28.5 152t-123.5 56z" />
    <glyph glyph-name="Ohorndotbelow" unicode="&#x1ee2;" horiz-adv-x="781" 
d="M801 828l54 14q22 -58 12 -111q-4 -24 -15 -43.5t-27 -33t-38.5 -21.5t-48.5 -9q-13 -1 -30 -1q45 -48 64 -119t6 -158q-14 -105 -67 -185.5t-136 -125t-183 -44.5q-153 0 -233 100.5t-58 262.5q23 158 129 256.5t257 98.5q90 0 154 -39q31 -13 64 -13q89 -1 106 76
q11 44 -10 95zM485 652q-121 0 -206 -82.5t-105 -223.5q-19 -138 41 -218.5t179 -80.5q122 0 206.5 83t104.5 224q13 91 -10 159t-77 103.5t-133 35.5zM375 -90q17 0 27.5 -12.5t7.5 -29.5q-2 -14 -13.5 -24t-26.5 -10q-17 0 -27 12.5t-8 29.5q2 14 13.5 24t26.5 10z" />
    <glyph glyph-name="ohorndotbelow" unicode="&#x1ee3;" 
d="M623 628l48 12q24 -59 12 -115q-7 -30 -23 -52t-43.5 -36t-62.5 -16q46 -71 31 -175q-16 -114 -93.5 -185t-189.5 -71q-114 0 -173.5 73.5t-42.5 190.5q16 114 93.5 185t189.5 71q97 0 153 -55l19 3q35 2 58 20t31 49q16 45 -7 101zM368 462q-84 0 -143.5 -58.5
t-73.5 -157.5q-14 -96 28 -151.5t123 -55.5q85 0 144.5 58t73.5 157q13 96 -28.5 152t-123.5 56zM284 -90q17 0 27.5 -12.5t8.5 -29.5q-2 -9 -7.5 -17t-14 -12.5t-18.5 -4.5q-18 0 -28 12.5t-8 29.5q2 14 13.5 24t26.5 10z" />
    <glyph glyph-name="Udotbelow" unicode="&#x1ee4;" horiz-adv-x="831" 
d="M861 656l-68 -6q-14 -1 -16 -15l-51 -365q-18 -127 -101.5 -203.5t-204.5 -76.5q-123 0 -186.5 78.5t-45.5 205.5l51 365q1 10 -9 11l-63 5q-3 1 -5 3.5t-1 5.5l5 35h242l-6 -43l-76 -7q-14 -1 -15 -15l-52 -364q-9 -70 8.5 -121t58 -76.5t99.5 -25.5q94 0 161 61t82 166
l51 364q1 10 -8 11l-83 7l6 43h233zM399 -90q17 0 27.5 -12.5t7.5 -29.5q-2 -14 -13.5 -24t-26.5 -10q-17 0 -27 12.5t-8 29.5q2 14 13.5 24t26.5 10z" />
    <glyph glyph-name="udotbelow" unicode="&#x1ee5;" horiz-adv-x="691" 
d="M637 500l-54 -384q-11 -75 49 -76l12 -1l-5 -39h-48q-41 1 -60.5 24.5t-15.5 66.5l1 11q-99 -112 -224 -112q-75 0 -112 41.5t-25 124.5l40 286q2 10 -8 11l-70 6l6 41h137q8 0 7 -9l-46 -329q-18 -124 92 -124q53 0 109 31.5t102 91.5l48 339h65zM330 -90
q17 0 27.5 -12.5t8.5 -29.5q-2 -14 -13.5 -24t-26.5 -10q-17 0 -27.5 12.5t-7.5 29.5q1 14 12.5 24t26.5 10z" />
    <glyph glyph-name="Uhookabove" unicode="&#x1ee6;" horiz-adv-x="831" 
d="M554 1012q52 0 84 -27t27 -67q-3 -20 -12.5 -35.5t-23 -26t-34.5 -21.5q-4 -3 -13.5 -7.5t-12.5 -6t-9.5 -5.5t-8.5 -6t-5.5 -6t-5 -8t-2.5 -9l-2 -14h-44l2 23q1 12 5 21t9.5 16t14.5 13.5t18 11.5t23 11q13 6 21 10.5t15 11.5t10.5 15t5.5 20q3 22 -15 35.5t-50 13.5
q-35 0 -64 -17l-22 31q37 23 89 23zM861 656l-68 -6q-14 -1 -16 -15l-51 -365q-18 -127 -101.5 -203.5t-204.5 -76.5q-123 0 -186.5 78.5t-45.5 205.5l51 365q1 10 -9 11l-63 5q-2 1 -3.5 2t-2.5 3t0 4l5 35h242l-6 -43l-76 -7q-14 -1 -15 -15l-52 -364q-14 -105 31 -164
t135 -59q94 0 161 61t82 166l51 364q1 10 -8 11l-83 7l6 43h233z" />
    <glyph glyph-name="uhookabove" unicode="&#x1ee7;" horiz-adv-x="691" 
d="M456 802q52 0 84 -27t26 -67q-2 -20 -12 -35.5t-23 -26t-34 -22.5q-5 -2 -14.5 -6.5t-12 -6t-9 -5.5t-8.5 -6t-5.5 -6t-5 -8t-2.5 -9l-3 -14h-43l2 23q3 27 19 42t51 31q25 11 37 23t14 33q3 23 -14.5 36.5t-49.5 13.5q-35 -1 -64 -17l-22 31q36 23 89 23zM637 500
l-54 -384q-5 -37 7.5 -56.5t41.5 -19.5l12 -1l-5 -39h-48q-41 1 -60.5 24.5t-15.5 66.5l1 11q-99 -112 -224 -112q-75 0 -112 41.5t-25 124.5l40 286q2 10 -8 11l-70 6l6 41h137q8 0 7 -9l-46 -329q-18 -124 92 -124q53 0 109 31.5t102 91.5l48 339h65z" />
    <glyph glyph-name="Uhornacute" unicode="&#x1ee8;" horiz-adv-x="835" 
d="M547 772h-62l124 149h81zM867 830l38 16q32 -27 40 -63q4 -21 0.5 -40.5t-18 -37.5t-38.5 -30q-23 -11 -50 -13l-47 -5q-4 -1 -8.5 -5t-5.5 -9l-52 -373q-18 -126 -101.5 -202.5t-204.5 -76.5q-123 0 -186.5 78.5t-45.5 204.5l51 366q1 10 -9 11l-63 5q-7 1 -6 8l5 36
h242l-6 -44l-76 -6q-13 -2 -15 -15l-52 -365q-14 -105 31 -164t136 -59q61 0 112 27t85.5 79t44.5 121l51 365q2 10 -8 10l-83 7l6 44h200q12 3 24 9q24 11 34 31t4 42q-6 28 -29 48z" />
    <glyph glyph-name="uhornacute" unicode="&#x1ee9;" horiz-adv-x="691" 
d="M449 572h-62l124 149h81zM677 638l37 15q36 -29 41 -71q4 -32 -13.5 -60.5t-54.5 -44.5q-25 -10 -53 -10l-51 -351q-11 -75 49 -76l13 -1l-6 -39h-47q-42 1 -61.5 24.5t-15.5 66.5l1 11q-99 -112 -224 -112q-75 0 -112 41.5t-25 124.5l40 286q2 10 -8 11l-70 6l6 41h137
q8 0 7 -9l-46 -329q-17 -124 92 -124q53 0 109 31.5t102 91.5l40 281q1 10 -9 11l-71 5l6 42h124q24 -1 47 9q17 8 28.5 20t16 26t2.5 30q-6 30 -31 53z" />
    <glyph glyph-name="Uhorngrave" unicode="&#x1eea;" horiz-adv-x="835" 
d="M561 772h-59l-101 149h79zM867 830l38 16q32 -27 40 -63q4 -15 2 -30.5t-8 -29t-19 -26.5t-31 -22q-23 -11 -50 -13l-47 -5q-4 -1 -8.5 -5t-5.5 -9l-52 -373q-18 -126 -101.5 -202.5t-204.5 -76.5q-123 0 -186.5 78.5t-45.5 204.5l51 366q1 10 -9 11l-63 5q-7 1 -6 8
l5 36h242l-6 -44l-76 -6q-13 -2 -15 -15l-52 -365q-9 -69 8.5 -120t58 -77t100.5 -26q93 0 160 61.5t82 165.5l51 365q2 10 -8 10l-83 7l6 44h200q12 3 24 9q24 11 34 31t4 42q-6 28 -29 48z" />
    <glyph glyph-name="uhorngrave" unicode="&#x1eeb;" horiz-adv-x="691" 
d="M463 572h-59l-101 149h79zM677 638l37 15q36 -29 41 -71q4 -32 -13.5 -60.5t-54.5 -44.5q-25 -10 -53 -10l-51 -351q-11 -75 49 -76l13 -1l-6 -39h-47q-42 1 -61.5 24.5t-15.5 66.5l1 11q-99 -112 -224 -112q-75 0 -112 41.5t-25 124.5l40 286q2 10 -8 11l-70 6l6 41h137
q8 0 7 -9l-46 -329q-17 -124 92 -124q53 0 109 31.5t102 91.5l40 281q1 10 -9 11l-71 5l6 42h124q24 -1 47 9q17 8 28.5 20t16 26t2.5 30q-6 30 -31 53z" />
    <glyph glyph-name="Uhornhookabove" unicode="&#x1eec;" horiz-adv-x="835" 
d="M554 1012q34 0 60.5 -12t40.5 -33.5t10 -48.5q-3 -20 -12.5 -35.5t-23 -26t-34.5 -21.5q-4 -3 -13.5 -7.5t-12.5 -6t-9.5 -5.5t-8.5 -6t-5.5 -6t-5 -8t-2.5 -9l-2 -14h-44l2 23q3 27 19 42t51 31q25 11 37 23t15 34t-15 35.5t-50 13.5q-35 0 -64 -17l-22 31q37 23 89 23z
M867 830l38 16q32 -27 40 -63q8 -31 -6.5 -60.5t-49.5 -47.5q-23 -11 -50 -13l-47 -5q-4 -1 -8.5 -5t-5.5 -9l-52 -373q-18 -126 -101.5 -202.5t-204.5 -76.5q-123 0 -186.5 78.5t-45.5 204.5l51 366q1 10 -9 11l-63 5q-7 1 -6 8l5 36h242l-6 -44l-76 -6q-13 -2 -15 -15
l-52 -365q-9 -69 8.5 -120t58 -77t100.5 -26q61 0 112 27t85.5 79t44.5 121l51 365q2 10 -8 10l-83 7l6 44h200q12 3 24 9q16 7 26 19t13 25.5t-1 28.5q-6 28 -29 48z" />
    <glyph glyph-name="uhornhookabove" unicode="&#x1eed;" horiz-adv-x="691" 
d="M456 802q52 0 84 -27t26 -67q-2 -20 -12 -35.5t-23 -26t-34 -22.5q-5 -2 -14.5 -6.5t-12 -6t-9 -5.5t-8.5 -6t-5.5 -6t-5 -8t-2.5 -9l-3 -14h-43l2 23q3 27 19 42t51 31q25 11 37 23t14 33q3 23 -14.5 36.5t-49.5 13.5q-35 -1 -64 -17l-22 31q36 23 89 23zM677 638l37 15
q36 -29 41 -71q4 -32 -13.5 -60.5t-54.5 -44.5q-25 -10 -53 -10l-51 -351q-11 -75 49 -76l13 -1l-6 -39h-47q-42 1 -61.5 24.5t-15.5 66.5l1 11q-99 -112 -224 -112q-75 0 -112 41.5t-25 124.5l40 286q2 10 -8 11l-70 6l6 41h137q8 0 7 -9l-46 -329q-17 -124 92 -124
q53 0 109 31.5t102 91.5l40 281q1 10 -9 11l-71 5l6 42h124q24 -1 47 9q26 11 38 31.5t9 44.5q-6 30 -31 53z" />
    <glyph glyph-name="Uhorntilde" unicode="&#x1eee;" horiz-adv-x="835" 
d="M632 872l43 -13q-9 -34 -29.5 -53t-47.5 -21q-29 -3 -66 16q-6 3 -14.5 7.5t-14 7.5t-12 5.5t-11.5 4t-10 0.5q-19 -1 -38 -44l-43 16q23 68 67 72q6 0 13 -1t12 -2t14 -5t12 -5t13.5 -6t12.5 -6q35 -17 55 -14q25 3 44 41zM867 830l38 16q32 -27 40 -63
q8 -31 -6.5 -60.5t-49.5 -47.5q-23 -11 -50 -13l-47 -5q-4 -1 -8.5 -5t-5.5 -9l-52 -373q-18 -126 -101.5 -202.5t-204.5 -76.5q-123 0 -186.5 78.5t-45.5 204.5l51 366q1 10 -9 11l-63 5q-7 1 -6 8l5 36h242l-6 -44l-76 -6q-14 -2 -15 -15l-52 -365q-9 -69 8.5 -120t58 -77
t100.5 -26q93 0 160 61.5t82 165.5l51 365q2 10 -8 10l-83 7l6 44h200q12 3 24 9q24 11 34 31t4 42q-6 28 -29 48z" />
    <glyph glyph-name="uhorntilde" unicode="&#x1eef;" horiz-adv-x="691" 
d="M534 672l43 -13q-9 -34 -29 -53t-48 -21q-29 -3 -66 16q-6 4 -17.5 9.5t-17.5 8.5t-13.5 5.5t-13.5 1.5q-19 -1 -38 -44l-43 16q23 68 67 72q6 0 13 -1t12 -2t14 -5t12 -5t13.5 -6t12.5 -6q35 -17 55 -14q25 3 44 41zM677 638l37 15q36 -29 41 -71q4 -32 -13.5 -60.5
t-54.5 -44.5q-25 -10 -53 -10l-51 -351q-11 -75 49 -76l13 -1l-6 -39h-47q-42 1 -61.5 24.5t-15.5 66.5l1 11q-99 -112 -224 -112q-75 0 -112 41.5t-25 124.5l40 286q2 10 -8 11l-70 6l6 41h137q8 0 7 -9l-46 -329q-17 -124 92 -124q53 0 109 31.5t102 91.5l40 281
q1 10 -9 11l-71 5l6 42h124q24 -1 47 9q9 4 16 9t12.5 11t9.5 12.5t6.5 13.5t3 14.5t-0.5 15.5q-6 30 -31 53z" />
    <glyph glyph-name="Uhorndotbelow" unicode="&#x1ef0;" horiz-adv-x="835" 
d="M867 830l38 16q32 -27 40 -63q8 -31 -6.5 -60.5t-49.5 -47.5q-23 -11 -50 -13l-47 -5q-4 -1 -8.5 -5t-5.5 -9l-52 -373q-18 -126 -101.5 -202.5t-204.5 -76.5q-123 0 -186.5 78.5t-45.5 204.5l51 366q1 10 -9 11l-63 5q-7 1 -6 8l5 36h242l-6 -44l-76 -6q-13 -2 -15 -15
l-52 -365q-14 -105 31 -164t136 -59q93 0 160 61.5t82 165.5l51 365q2 10 -8 10l-83 7l6 44h200q12 3 24 9q24 11 34 31t4 42q-6 28 -29 48zM399 -90q17 0 27.5 -12.5t7.5 -29.5q-2 -14 -13.5 -24t-26.5 -10q-17 0 -27 12.5t-8 29.5q1 5 3.5 10.5t6 9.5t8.5 7t10.5 5t11.5 2
z" />
    <glyph glyph-name="uhorndotbelow" unicode="&#x1ef1;" horiz-adv-x="691" 
d="M677 638l37 15q36 -29 41 -71q4 -32 -13.5 -60.5t-54.5 -44.5q-25 -10 -53 -10l-51 -351q-11 -75 49 -76l13 -1l-6 -39h-47q-42 1 -61.5 24.5t-15.5 66.5l1 11q-99 -112 -224 -112q-75 0 -112 41.5t-25 124.5l40 286q2 10 -8 11l-70 6l6 41h137q8 0 7 -9l-46 -329
q-17 -124 92 -124q53 0 109 31.5t102 91.5l40 281q1 10 -9 11l-71 5l6 42h124q24 -1 47 9q17 8 28.5 20t16 26t2.5 30q-6 30 -31 53zM330 -90q17 0 27.5 -12.5t8.5 -29.5q-2 -14 -13.5 -24t-26.5 -10q-17 0 -27.5 12.5t-7.5 29.5q1 14 12.5 24t26.5 10z" />
    <glyph glyph-name="Ygrave" unicode="&#x1ef2;" horiz-adv-x="689" 
d="M490 772h-59l-101 149h78zM755 656l-52 -4l-282 -403l-27 -189q-2 -10 8 -11l70 -5l-6 -44h-233l6 40q0 4 4 4l65 6q13 1 15 14l25 178l-171 406q-2 3 -8 4l-44 4q-7 0 -6 8l5 36h107l166 -390l224 320q6 8 4 14t-10 7l-68 6q-7 0 -6 8l5 35h215z" />
    <glyph glyph-name="ygrave" unicode="&#x1ef3;" horiz-adv-x="557" 
d="M397 572h-59l-102 149h79zM286 65l172 322q29 53 66.5 83t75.5 30h11l-4 -39q-23 0 -52 -27.5t-54 -74.5l-240 -444q-28 -53 -72 -82.5t-95 -30.5h-42l5 38l22 2q41 2 78.5 29t63.5 74l30 55h-11l-112 450q-1 4 -7 5l-32 4q-7 0 -6 8l4 33h97z" />
    <glyph glyph-name="Ydotbelow" unicode="&#x1ef4;" horiz-adv-x="689" 
d="M755 656l-52 -4l-282 -403l-27 -189q-2 -10 8 -11l70 -5l-6 -44h-233l6 40q0 4 4 4l65 6q13 1 15 14l25 178l-171 406q-2 3 -8 4l-44 4q-7 0 -6 8l5 36h107l166 -390l224 320q6 8 4 14t-10 7l-68 6q-7 0 -6 8l5 35h215zM329 -90q17 0 27.5 -12.5t7.5 -29.5
q-2 -14 -13.5 -24t-26.5 -10q-17 0 -27 12.5t-8 29.5q2 14 13.5 24t26.5 10z" />
    <glyph glyph-name="ydotbelow" unicode="&#x1ef5;" horiz-adv-x="561" 
d="M286 65l172 322q29 53 66.5 83t75.5 30h11l-4 -39q-23 0 -52 -27.5t-54 -74.5l-240 -444q-28 -53 -72 -82.5t-95 -30.5h-42l5 38l22 2q41 2 78.5 29t63.5 74l30 55h-11l-112 450q-1 4 -7 5l-32 4q-7 0 -6 8l4 33h97zM315 -90q17 0 27 -12.5t8 -29.5q-2 -14 -13.5 -24
t-26.5 -10q-17 0 -27 12.5t-8 29.5q2 14 13.5 24t26.5 10z" />
    <glyph glyph-name="Yhookabove" unicode="&#x1ef6;" horiz-adv-x="689" 
d="M503 1012q34 0 60.5 -12t40 -33.5t9.5 -48.5q-2 -20 -12 -35.5t-23.5 -26t-33.5 -21.5q-5 -3 -14.5 -7.5t-12.5 -6t-9 -5.5t-8.5 -6t-5.5 -6t-4.5 -8t-2.5 -9l-3 -14h-44l3 23q3 27 19 42t51 31q25 11 37 23t14 34q3 22 -14.5 35.5t-50.5 13.5q-34 0 -63 -17l-22 31
q36 23 89 23zM755 656l-52 -4l-282 -403l-27 -189q-2 -10 8 -11l70 -5l-6 -44h-233l6 40q0 4 4 4l65 6q13 1 15 14l25 178l-171 406q-2 3 -8 4l-44 4q-7 0 -6 8l5 36h107l166 -390l224 320q6 8 4 14t-10 7l-68 6q-7 0 -6 8l5 35h215z" />
    <glyph glyph-name="yhookabove" unicode="&#x1ef7;" horiz-adv-x="561" 
d="M390 802q53 0 85 -27t26 -67q-2 -20 -12 -35.5t-23.5 -26t-33.5 -22.5q-5 -2 -14.5 -6.5t-12.5 -6t-9 -5.5t-8.5 -6t-5.5 -6t-4.5 -8t-2.5 -10l-3 -13h-44l3 23q3 27 19 42t51 31q25 11 37 23t14 33q3 23 -14.5 36.5t-50.5 13.5q-34 -1 -63 -17l-22 31q36 23 88 23z
M611 500l-4 -39q-23 0 -52 -27.5t-54 -74.5l-240 -444q-19 -35 -45 -60.5t-57.5 -39t-64.5 -13.5h-42l5 38l22 2q27 1 53 13.5t49 35.5t40 54l30 55h-11l-112 450q-1 4 -7 5l-32 4q-7 0 -6 8l4 33h97l102 -435l172 322q29 53 66.5 83t75.5 30h11z" />
    <glyph glyph-name="Ytilde" unicode="&#x1ef8;" horiz-adv-x="689" 
d="M560 872l44 -13q-9 -34 -29.5 -53t-47.5 -21q-30 -3 -66 16q-7 4 -18 9.5t-17.5 8.5t-14 5.5t-12.5 1.5q-20 -1 -39 -44l-43 16q24 68 68 72q4 0 8 -0.5t8.5 -1t8.5 -1.5t8.5 -3t8.5 -3.5t9 -4t8.5 -4t8.5 -4t8 -3.5q36 -17 56 -14q24 3 43 41zM755 656l-52 -4l-282 -403
l-27 -189q-2 -10 8 -11l70 -5l-6 -44h-233l6 40q0 4 4 4l65 6q13 1 15 14l25 178l-171 406q-2 3 -8 4l-44 4q-7 0 -6 8l5 36h107l166 -390l224 320q6 8 4 14t-10 7l-68 6q-7 0 -6 8l5 35h215z" />
    <glyph glyph-name="ytilde" unicode="&#x1ef9;" horiz-adv-x="557" 
d="M467 672l44 -13q-9 -34 -29.5 -53t-47.5 -21q-30 -3 -66 16q-7 4 -18.5 9.5t-17.5 8.5t-13.5 5.5t-12.5 1.5q-20 -1 -39 -44l-43 16q23 68 67 72q6 0 13 -1t12 -2t14 -5t12 -5t14 -6t12 -6q36 -17 55 -14q25 3 44 41zM286 65l172 322q12 21 25 39t27 31.5t29 23
t30.5 14.5t30.5 5h11l-4 -39q-23 0 -52 -27.5t-54 -74.5l-240 -444q-28 -53 -72 -82.5t-95 -30.5h-42l5 38l22 2q41 2 78.5 29t63.5 74l30 55h-11l-112 450q-1 4 -7 5l-32 4q-7 0 -6 8l4 33h97z" />
    <glyph glyph-name="endash" unicode="&#x2013;" horiz-adv-x="481" 
d="M467 221h-392l8 56h392z" />
    <glyph glyph-name="emdash" unicode="&#x2014;" horiz-adv-x="690" 
d="M676 221h-601l8 56h601z" />
    <glyph glyph-name="quoteleft" unicode="&#x2018;" horiz-adv-x="169" 
d="M216 730l26 -20q-36 -44 -52 -91q-12 -30 -7 -45l2 -1q12 -3 18.5 -14.5t4.5 -25.5q-1 -9 -7 -17.5t-15.5 -13.5t-19.5 -5q-32 0 -40.5 32t7.5 77q27 71 83 124z" />
    <glyph glyph-name="quoteright" unicode="&#x2019;" horiz-adv-x="169" 
d="M176 729q32 0 40.5 -32.5t-8.5 -76.5q-27 -71 -82 -125l-27 21q36 43 52 91q12 30 7 45h-2q-12 4 -18.5 15.5t-4.5 24.5q1 10 7 18.5t15.5 13.5t20.5 5z" />
    <glyph glyph-name="quotesinglbase" unicode="&#x201a;" horiz-adv-x="169" 
d="M84 75q32 0 40.5 -32.5t-8.5 -76.5q-27 -72 -82 -125l-27 20q36 45 52 91q12 31 7 46h-2q-12 4 -18.5 15t-4.5 25q2 15 14.5 25.5t28.5 11.5z" />
    <glyph glyph-name="quotedblleft" unicode="&#x201c;" horiz-adv-x="322" 
d="M216 730l26 -20q-36 -44 -52 -91q-12 -30 -7 -45l2 -1q12 -3 18.5 -14.5t4.5 -25.5q-1 -9 -7 -17.5t-15.5 -13.5t-19.5 -5q-32 0 -40.5 32t7.5 77q27 71 83 124zM369 730l26 -20q-36 -44 -52 -91q-11 -30 -7 -45l3 -1q11 -3 17.5 -14.5t5.5 -25.5q-3 -14 -15 -25t-28 -11
q-32 0 -40.5 32t8.5 77q26 71 82 124z" />
    <glyph glyph-name="quotedblright" unicode="&#x201d;" horiz-adv-x="323" 
d="M176 729q32 0 40.5 -32.5t-8.5 -76.5q-27 -71 -82 -125l-27 21q36 43 52 91q12 30 7 45h-2q-12 4 -18.5 15.5t-4.5 24.5q1 10 7 18.5t15.5 13.5t20.5 5zM329 729q32 0 40.5 -32.5t-8.5 -76.5q-26 -71 -82 -125l-27 21q36 43 53 91q11 30 7 45h-3q-11 4 -18 15.5t-5 24.5
q2 15 14.5 26t28.5 11z" />
    </font>
</defs>
</svg>
