<?xml version="1.0" standalone="no"?>
<!DOCTYPE svg PUBLIC "-//W3C//DTD SVG 1.1//EN" "http://www.w3.org/Graphics/SVG/1.1/DTD/svg11.dtd" >
<svg xmlns="http://www.w3.org/2000/svg" xmlns:xlink="http://www.w3.org/1999/xlink" version="1.1">
<metadata>
Created by FontForge 20170731 at Wed Feb 19 12:05:00 2014
 By ,,,
Copyright (c) 2013 by Jonathan Hill. All rights reserved.
</metadata>
<defs>
<font id="Modum-Bold" horiz-adv-x="566" vert-adv-y="1000" >
  <font-face 
    font-family="Modum Bold"
    font-weight="700"
    font-stretch="normal"
    units-per-em="1000"
    panose-1="0 0 8 0 0 0 0 0 0 0"
    ascent="750"
    descent="-250"
    x-height="499"
    cap-height="700"
    bbox="-31 -235 1532 1145"
    underline-thickness="50"
    underline-position="-200"
    unicode-range="U+0020-FE6B"
  />
<missing-glyph horiz-adv-x="500" 
d="M0 0v700h500v-700h-500zM250 395l170 255h-340zM280 350l170 -255v510zM80 50h340l-170 255zM50 605v-510l170 255z" />
    <glyph glyph-name="fi" unicode="fi" horiz-adv-x="786" 
d="M293 749q87 0 157 -45l-28 -69q-61 32 -112 31q-26 0 -46 -9t-32 -29t-12 -49v-79h428q9 0 9 -8v-403q0 -15 14 -16l68 -5v-68h-269v61q0 7 7 7l55 5q14 1 14 16v321q0 15 -15 16l-143 7l-168 -8v-337q0 -14 14 -15l63 -5v-68h-246v61q0 7 7 7l37 4q14 1 14 15v338l-58 3
q-7 1 -7 8v64h65v87q0 79 53 120.5t131 41.5z" />
    <glyph glyph-name="fl" unicode="fl" horiz-adv-x="779" 
d="M382 736l266 14q9 0 9 -9v-652q0 -15 14 -16l68 -5v-68h-267v61q0 7 7 7l53 5q14 1 14 15v568q0 6 -4 10.5t-11 4.5l-117 2l-16 -27q-51 21 -88 20q-40 0 -65 -22t-25 -65v-79h136v-68l-136 -7v-337q0 -14 14 -15l63 -5v-68h-246v61q0 7 7 7l37 4q14 1 14 15v338l-58 3
q-7 1 -7 8v64h65v87q0 79 53 120.5t131 41.5q45 0 89 -13z" />
    <glyph glyph-name="f_f" unicode="ff" horiz-adv-x="832" 
d="M709 749q87 0 157 -45l-28 -69q-61 32 -112 31q-40 0 -65 -22t-25 -65v-79h136v-68l-136 -7v-337q0 -14 14 -15l62 -5v-68h-245v61q0 7 7 7l37 4q14 1 14 15v338l-148 8l-157 -8v-337q0 -14 14 -15l63 -5v-68h-246v61q0 7 7 7l37 4q14 1 14 15v338l-58 3q-7 1 -7 8v64h65
v87q0 79 53 120.5t131 41.5q87 0 157 -45l-28 -69q-61 32 -112 31q-40 0 -65 -22t-25 -65v-79h305v87q0 79 53 120.5t131 41.5z" />
    <glyph glyph-name="f_f_i" unicode="ffi" horiz-adv-x="1202" 
d="M709 749q87 0 157 -45l-28 -69q-61 32 -112 31q-40 0 -65 -22t-25 -65v-79h428q9 0 9 -8v-403q0 -15 14 -16l68 -5v-68h-269v61q0 7 7 7l55 5q14 1 14 16v321q0 15 -15 16l-143 7l-168 -8v-337q0 -14 14 -15l62 -5v-68h-245v61q0 7 7 7l37 4q14 1 14 15v338l-148 8
l-157 -8v-337q0 -14 14 -15l63 -5v-68h-246v61q0 7 7 7l37 4q14 1 14 15v338l-58 3q-7 1 -7 8v64h65v87q0 79 53 120.5t131 41.5q87 0 157 -45l-28 -69q-61 32 -112 31q-40 0 -65 -22t-25 -65v-79h305v87q0 79 53 120.5t131 41.5z" />
    <glyph glyph-name="f_f_l" unicode="ffl" horiz-adv-x="1195" 
d="M798 736l266 14q9 0 9 -9v-652q0 -15 14 -16l68 -5v-68h-267v61q0 7 7 7l53 5q14 1 14 15v568q0 4 -2 7.5t-5.5 5.5t-7.5 2l-117 2l-16 -27q-51 21 -88 20q-40 0 -65 -22t-25 -65v-79h136v-68l-136 -7v-337q0 -14 14 -15l62 -5v-68h-245v61q0 7 7 7l37 4q14 1 14 15v338
l-148 8l-157 -8v-337q0 -14 14 -15l63 -5v-68h-246v61q0 7 7 7l37 4q14 1 14 15v338l-58 3q-7 1 -7 8v64h65v87q0 79 53 120.5t131 41.5q87 0 157 -45l-28 -69q-61 32 -112 31q-40 0 -65 -22t-25 -65v-79h305v87q0 79 53 120.5t131 41.5q45 0 89 -13z" />
    <glyph glyph-name=".notdef" horiz-adv-x="500" 
d="M0 0v700h500v-700h-500zM250 395l170 255h-340zM280 350l170 -255v510zM80 50h340l-170 255zM50 605v-510l170 255z" />
    <glyph glyph-name=".null" horiz-adv-x="0" vert-adv-y="0" 
 />
    <glyph glyph-name="nonmarkingreturn" horiz-adv-x="333" 
 />
    <glyph glyph-name="space" unicode=" " horiz-adv-x="300" 
 />
    <glyph glyph-name="exclam" unicode="!" horiz-adv-x="204" 
d="M151 211h-98l-11 489h120zM102 116q26 0 44 -18.5t18 -43t-18 -43.5t-44 -19t-44 19t-18 43q0 16 8 30t22.5 23t31.5 9z" />
    <glyph glyph-name="quotedbl" unicode="&#x22;" horiz-adv-x="349" 
d="M134 464h-89l-6 256h101zM304 464h-89l-7 256h102z" />
    <glyph glyph-name="numbersign" unicode="#" horiz-adv-x="679" 
d="M530 533h110l-11 -88h-111l-22 -163h110l-11 -89h-111l-26 -193h-110l26 193h-119l-26 -193h-110l26 193h-106l12 89h105l23 163h-106l11 88h106l20 147h110l-19 -147h118l20 147h110zM289 445l-22 -163h119l22 163h-119z" />
    <glyph glyph-name="dollar" unicode="$" horiz-adv-x="556" 
d="M344 774v-74q76 -5 130 -36q3 -2 3 -6v-147h-70l-5 68q-1 9 -8 12q-33 15 -80 15q-24 0 -45.5 -3.5t-38 -11t-28 -17.5t-18 -22.5t-6.5 -26.5q0 -24 7 -38t32.5 -32.5t80.5 -44.5q128 -61 171 -105t43 -109q0 -75 -45 -124t-123 -68v-97h-101v86h-35q-79 4 -159 37
q-5 2 -5 7v147h70l5 -62q0 -9 9 -12q55 -22 120 -22q62 0 99.5 25t37.5 68q0 23 -7.5 36.5t-30.5 29.5t-74 42q-76 36 -120 63t-66.5 54.5t-28.5 50.5t-6 61q0 68 53 115t138 61v80h101z" />
    <glyph glyph-name="percent" unicode="%" horiz-adv-x="923" 
d="M330 -17h-103l362 734h103zM208.5 707q77.5 0 123.5 -58t46 -149t-46 -148.5t-123.5 -57.5t-123.5 57.5t-46 148.5t46 149t123.5 58zM208 640q-34 0 -56.5 -35t-22.5 -105t22.5 -105t57 -35t57 35t22.5 105q0 47 -11 79.5t-28.5 46.5t-40.5 14zM715 406q38 0 70.5 -15.5
t54 -43t33.5 -65.5t12 -82q0 -91 -46.5 -149t-124 -58t-123.5 58t-46 149q0 60 20 106.5t59 73t91 26.5zM714.5 340q-34.5 0 -57 -35t-22.5 -105t22.5 -105t57 -35t57 35t22.5 105t-22.5 105t-57 35z" />
    <glyph glyph-name="ampersand" unicode="&#x26;" horiz-adv-x="683" 
d="M277 710q45 0 84 -11.5t69.5 -33.5t45 -59.5t7.5 -85.5q-4 -28 -16 -50t-42 -49.5t-87 -67.5l-8 -5l139 -133q7 18 10 42l5 88h82v-149q0 -33 -12 -63l90 -87l-72 -81l-89 86q-68 -60 -179 -60q-79 0 -138 20t-93 61t-34 98q0 54 25 93t100 95l-42 39q-53 51 -53 128
q0 83 57 134t151 51zM277 618q-43 0 -68 -24t-25 -65q0 -39 22 -61l51 -48l5 3q66 44 85 63.5t22 43.5q6 45 -19.5 66.5t-72.5 21.5zM405 136l-157 152q-59 -41 -76.5 -64.5t-17.5 -57.5q0 -86 136 -86q84 0 115 56z" />
    <glyph glyph-name="quotesingle" unicode="'" horiz-adv-x="179" 
d="M134 464h-89l-6 256h101z" />
    <glyph glyph-name="parenleft" unicode="(" horiz-adv-x="369" 
d="M283 739l56 -69q-91 -74 -135 -169q-45 -95 -45 -224q0 -140 54 -239q42 -85 126 -155l-56 -70q-103 67 -164 168q-80 133 -80 295q0 152 71 281q29 53 74.5 101t98.5 81z" />
    <glyph glyph-name="parenright" unicode=")" horiz-adv-x="369" 
d="M30 670l56 69q53 -33 98.5 -81t74.5 -101q71 -128 71 -281q0 -162 -80 -295q-61 -101 -164 -168l-56 70q84 70 126 155q54 99 54 239q0 129 -45 224q-44 95 -135 169z" />
    <glyph glyph-name="asterisk" unicode="*" horiz-adv-x="459" 
d="M295 541l81 -102l-75 -54l-72 108l-71 -108l-75 54l81 102l-125 34l29 89l121 -46l-6 129h93l-6 -129l121 46l29 -89z" />
    <glyph glyph-name="plus" unicode="+" horiz-adv-x="517" 
d="M307 339h171v-97h-171v-171h-97v171h-171v97h171v171h97v-171z" />
    <glyph glyph-name="comma" unicode="," horiz-adv-x="196" 
d="M90 116q42 0 58.5 -37t2.5 -91q-19 -84 -85 -149l-41 26q31 47 42 94q5 22 2 38h-2q-17 7 -28 23t-11 34q0 25 17.5 43.5t44.5 18.5z" />
    <glyph glyph-name="hyphen" unicode="-" horiz-adv-x="442" 
d="M404 201h-365v96h365v-96z" />
    <glyph glyph-name="period" unicode="." horiz-adv-x="201" 
d="M100 116q18 0 32.5 -9t22 -23t7.5 -30q0 -24 -17.5 -43t-44.5 -19q-17 0 -31.5 9t-22 23t-7.5 30q0 25 17.5 43.5t43.5 18.5z" />
    <glyph glyph-name="slash" unicode="/" horiz-adv-x="446" 
d="M146 -118h-124l278 860h125z" />
    <glyph glyph-name="zero" unicode="0" horiz-adv-x="636" 
d="M318 690q128 0 204 -97t76 -253t-76 -253t-204 -97t-203.5 97t-75.5 253t75.5 253t203.5 97zM318 593q-70 0 -114.5 -64.5t-44.5 -188.5t44.5 -188.5t114.5 -64.5q45 0 80 26.5t57 84.5t22 142t-22 142t-57 84.5t-80 26.5z" />
    <glyph glyph-name="one" unicode="1" horiz-adv-x="395" 
d="M278 680v-587q0 -15 14 -16l65 -5v-72h-303v64q0 8 7 8l83 7q14 1 14 16v448q0 7 -5 9.5t-11 -1.5l-84 -57l-32 78l154 107q1 1 3 1h95z" />
    <glyph glyph-name="two" unicode="2" horiz-adv-x="511" 
d="M255 691q58 0 102.5 -18.5t68.5 -53.5q25 -38 27.5 -87.5t-24 -116t-82.5 -141.5q-52 -70 -164 -186h196q14 0 15 15l6 70h70v-173h-438v67q0 3 2 5q146 144 220 254q115 163 72 238q-23 38 -81 37q-36 0 -65.5 -17t-39.5 -49l-103 12q17 68 80.5 106t137.5 38z" />
    <glyph glyph-name="three" unicode="3" horiz-adv-x="501" 
d="M235 690q89 0 152.5 -46.5t63.5 -130.5q0 -36 -14 -66.5t-39.5 -53t-61.5 -35.5q59 -20 92.5 -63.5t33.5 -105.5q0 -50 -20.5 -89.5t-55.5 -62.5t-77 -35t-88 -12q-106 0 -192 52l30 72q70 -30 142 -30q62 -1 101 26.5t39 87.5q0 52 -33 81t-91 29h-69v89h70
q37 0 63.5 12t40.5 35t14 55q0 50 -33 76.5t-84 26.5q-48 0 -88 -24q-6 -4 -6 -11l-6 -76h-64v140q0 4 3 6q77 52 177 53z" />
    <glyph glyph-name="four" unicode="4" horiz-adv-x="534" 
d="M151 252h156l19 241q1 7 8 7h76v-248h88v-88h-88v-71q0 -15 14 -16l66 -5v-72h-284v64q0 8 8 8l76 7q15 1 15 15v70h-279v70l186 446h116z" />
    <glyph glyph-name="five" unicode="5" horiz-adv-x="499" 
d="M438 592h-241l-17 -190q29 12 66 12q99 0 160 -58t61 -152q0 -54 -19.5 -96t-53.5 -67t-75.5 -38t-89.5 -13q-92 0 -184 46q-3 2 -3 6v141h70l5 -68q0 -8 8 -11q46 -20 94 -20q56 0 92 29.5t36 91.5q0 55 -33.5 86.5t-91.5 31.5q-51 0 -84 -27l-73 14l33 370h340v-88z
" />
    <glyph glyph-name="six" unicode="6" horiz-adv-x="535" 
d="M312 690q81 0 156 -46l-31 -79q-64 37 -114 37q-59 0 -100.5 -47.5t-51.5 -136.5q-3 -16 -5 -33q49 62 138 59q92 -3 147 -68t53 -165q-4 -101 -64 -162.5t-155 -57.5q-118 4 -184.5 102.5t-61.5 254.5q3 83 26 149.5t61 107.5t85.5 63t100.5 22zM283 354
q-33 1 -59.5 -11.5t-43.5 -37.5t-22 -61q10 -74 45.5 -117.5t87.5 -44.5q48 -2 79 33.5t33 98.5t-30.5 100.5t-89.5 39.5z" />
    <glyph glyph-name="seven" unicode="7" horiz-adv-x="505" 
d="M481 680v-81q-79 -100 -146 -262q-69 -168 -93 -337h-120q25 180 107 366q53 118 116 210q4 6 1 11t-9 5h-226q-15 0 -16 -15l-5 -65h-64v160q0 8 8 8h447z" />
    <glyph glyph-name="eight" unicode="8" horiz-adv-x="553" 
d="M276.5 690q101.5 0 164.5 -52t63 -134q0 -56 -27.5 -96.5t-76.5 -61.5q54 -21 84.5 -63.5t30.5 -101.5q0 -85 -66 -138t-172.5 -53t-172 53t-65.5 138q0 59 30 101.5t84 63.5q-32 14 -55 36.5t-35.5 53.5t-12.5 68q0 82 62.5 134t164 52zM277 602q-34 0 -59 -12.5
t-38.5 -36t-13.5 -55.5t13.5 -55t38.5 -35t59 -12q51 0 80.5 27t29.5 75t-29.5 76t-80.5 28zM277 301q-56 0 -88.5 -29t-32.5 -79q0 -34 14.5 -59t42 -38.5t64.5 -13.5q56 0 88.5 30t32.5 81q0 33 -15 57.5t-42 37.5t-64 13z" />
    <glyph glyph-name="nine" unicode="9" horiz-adv-x="535" 
d="M250 689q119 -3 185 -102t61 -255q-2 -83 -25.5 -149t-61 -107.5t-85.5 -63t-101 -21.5q-81 0 -156 46l31 78q65 -36 114 -36q38 -1 69.5 19t54 62.5t28.5 101.5q3 16 5 33q-49 -62 -137 -59q-93 4 -148 68.5t-52 165.5q3 100 63 161.5t155 57.5zM245 599
q-49 2 -79.5 -33.5t-32.5 -99t30.5 -101t88.5 -39.5q51 -1 84.5 28t41.5 82q-7 49 -25.5 85.5t-46 56.5t-61.5 21z" />
    <glyph glyph-name="colon" unicode=":" horiz-adv-x="201" 
d="M101 487q17 0 31.5 -9t22.5 -23t8 -30q0 -24 -18 -43t-44 -19t-44 19t-18 43.5t18 43t44 18.5zM100 116q13 0 25 -5t20 -14t12.5 -20t4.5 -23q0 -24 -17.5 -43t-44.5 -19q-17 0 -31.5 9t-22 23t-7.5 30q0 25 17.5 43.5t43.5 18.5z" />
    <glyph glyph-name="semicolon" unicode=";" horiz-adv-x="196" 
d="M90 487q13 0 24.5 -5t19.5 -14t12.5 -20t4.5 -23q0 -24 -17.5 -43t-44 -19t-44 19t-17.5 43.5t17.5 43t44.5 18.5zM90 116q42 0 58.5 -37t2.5 -91q-19 -84 -85 -149l-41 26q35 55 44 103q4 17 0 29h-2q-18 7 -28.5 23t-10.5 34q0 25 17.5 43.5t44.5 18.5z" />
    <glyph glyph-name="less" unicode="&#x3c;" horiz-adv-x="587" 
d="M548 496l-388 -151l388 -150v-108l-509 203v110l509 204v-108z" />
    <glyph glyph-name="equal" unicode="=" 
d="M527 349h-488v97h488v-97zM527 128h-488v97h488v-97z" />
    <glyph glyph-name="greater" unicode="&#x3e;" horiz-adv-x="587" 
d="M548 400v-110l-509 -203v108l388 150l-388 151v108z" />
    <glyph glyph-name="question" unicode="?" horiz-adv-x="462" 
d="M212 710q92 0 151.5 -43.5t59.5 -119.5q0 -59 -29.5 -94.5t-122.5 -86.5q-47 -24 -69 -40t-31 -30.5t-10 -37.5l-2 -47h-100l-4 67q-3 50 24.5 83.5t113.5 78.5q74 39 91.5 56.5t17.5 49.5t-25.5 51t-70.5 19q-47 0 -86 -15q-10 -2 -10 -12l-6 -72h-64v139q0 3 3 5
q71 49 169 49zM109 116q10 0 20 -3.5t17.5 -9.5t13 -13.5t8.5 -16.5t3 -19q0 -16 -8 -30t-22.5 -23t-31.5 -9q-26 0 -44 19t-18 43.5t18 43t44 18.5z" />
    <glyph glyph-name="at" unicode="@" horiz-adv-x="976" 
d="M488 713q132 0 234.5 -55.5t158.5 -153.5t56 -222q0 -105 -66 -166t-165 -63h-117q-7 0 -8 7l-4 39q-22 -24 -56 -39t-72 -15q-79 0 -128 55t-49 155q0 96 58 151t147 56q104 0 185 -70v-228l45 -2q48 2 77 33.5t30 86.5q2 146 -87 234.5t-239 88.5q-154 0 -240 -95
t-86 -253q0 -168 89 -258t237 -92q64 2 114 17l38 -102q-71 -23 -152 -23q-133 0 -236 59.5t-158 163.5t-55 235t54 234t156.5 162.5t238.5 59.5zM479 387q-44 0 -70.5 -34.5t-26.5 -97.5t29 -97.5t75 -34.5q43 0 68 31v199q-31 34 -75 34z" />
    <glyph glyph-name="A" unicode="A" horiz-adv-x="792" 
d="M712 77l59 -5v-72h-277v64q0 7 7 8l57 5q6 0 10.5 3.5t5.5 8.5t-1 11l-40 99h-298l-49 -121l83 -6v-72h-247v65q0 7 7 7l43 4q9 1 12 9l248 611l121 7zM271 295h226l-112 283z" />
    <glyph glyph-name="B" unicode="B" horiz-adv-x="672" 
d="M57 700h326q101 0 163.5 -51t62.5 -132q0 -47 -22.5 -84t-63.5 -59q57 -23 88.5 -68t31.5 -104q0 -90 -67.5 -146t-177.5 -56h-341v64q0 8 7 8l57 5q15 1 15 15v516q0 14 -15 15l-57 5q-7 0 -7 8v64zM303 603l-48 -3v-185h130q50 0 79 25t29 69q0 22 -7.5 39.5t-21 29.5
t-34 18.5t-45.5 6.5h-82zM255 318v-218l48 -3h92q59 0 93.5 29.5t34.5 81t-34.5 81t-93.5 29.5h-140z" />
    <glyph glyph-name="C" unicode="C" horiz-adv-x="647" 
d="M392 708q119 0 206 -61q3 -2 3 -6v-144h-70l-6 72q0 8 -7 11q-59 32 -126 32q-66 0 -115.5 -30.5t-77.5 -90t-28 -141.5q0 -125 62.5 -194t165.5 -68q97 0 181 61l35 -83q-91 -75 -223 -75q-155 0 -250.5 100t-95.5 259q0 104 43 185.5t122 127t181 45.5z" />
    <glyph glyph-name="D" unicode="D" horiz-adv-x="751" 
d="M55 700h307q155 0 250.5 -96.5t95.5 -254t-95 -253.5t-251 -96h-307v64q0 8 7 8l57 5q14 1 14 15v516q0 14 -14 15l-57 5q-7 0 -7 8v64zM302 603l-49 -3v-500l49 -3h60q102 0 161.5 65.5t59.5 187t-59.5 187.5t-161.5 66h-60z" />
    <glyph glyph-name="E" unicode="E" horiz-adv-x="592" 
d="M55 700h483q8 0 8 -8v-172h-70l-5 69q-1 14 -16 14h-202v-204h203v-91h-203v-211h220q14 0 15 14l6 69h70v-172q0 -8 -8 -8h-501v64q0 8 7 8l57 5q14 1 14 15v516q0 14 -14 15l-57 5q-7 0 -7 8v64z" />
    <glyph glyph-name="F" unicode="F" 
d="M55 700h474q8 0 8 -8v-172h-70l-5 69q-1 14 -16 14h-193v-217h187v-91h-187v-216l85 -7v-72h-283v64q0 8 7 8l57 5q15 1 15 15v516q0 14 -15 15l-57 5q-7 0 -7 8v64z" />
    <glyph glyph-name="G" unicode="G" horiz-adv-x="703" 
d="M392 709q117 0 228 -59q4 -2 4 -6v-147h-70l-5 68q-1 9 -9 12q-77 35 -148 35q-98 -1 -159.5 -68t-61.5 -194q0 -123 60 -192.5t161 -69.5q97 0 154 60v105q0 15 -15 16l-132 7v74h243q8 0 8 -8v-342h-71l-7 56q-84 -65 -199 -65q-147 0 -237 100t-90 259
q0 87 27.5 156.5t75.5 113t110 66.5t133 23z" />
    <glyph glyph-name="H" unicode="H" horiz-adv-x="857" 
d="M803 628l-65 -5q-14 -1 -14 -15v-516q0 -14 14 -15l65 -5v-72h-284v64q0 8 7 8l64 6q14 1 14 15v215h-351v-215q0 -14 15 -15l70 -6v-72h-283v64q0 8 7 8l57 5q14 1 14 15v516q0 14 -14 15l-57 5q-7 0 -7 8v64h283v-72l-70 -6q-15 -1 -15 -15v-202h351v202q0 14 -14 15
l-64 6q-7 0 -7 8v64h284v-72z" />
    <glyph glyph-name="I" unicode="I" horiz-adv-x="388" 
d="M333 628l-65 -5q-14 -1 -14 -16v-514q0 -15 14 -16l65 -5v-72h-278v64q0 8 7 8l58 5q14 1 14 16v514q0 15 -14 16l-58 5q-7 0 -7 8v64h278v-72z" />
    <glyph glyph-name="J" unicode="J" horiz-adv-x="392" 
d="M337 628l-64 -5q-14 -1 -14 -15v-570q0 -97 -56.5 -164t-156.5 -89l-24 65q54 21 85 70.5t31 117.5v569q0 14 -14 15l-63 6q-7 0 -7 8v64h283v-72z" />
    <glyph glyph-name="K" unicode="K" horiz-adv-x="761" 
d="M718 628l-68 -5l-219 -239l218 -300q4 -5 10 -6l73 -6q7 0 7 -8v-64h-176l-210 298l-100 -108v-97q0 -14 15 -15l70 -6v-72h-283v64q0 8 7 8l57 5q14 1 14 15v516q0 14 -14 15l-57 5q-7 0 -7 8v64h280v-72l-67 -5q-15 -2 -15 -16v-290l247 275q8 9 5.5 19.5t-12.5 13.5
l-29 2q-6 2 -6 8v65h260v-72z" />
    <glyph glyph-name="L" unicode="L" horiz-adv-x="578" 
d="M338 628l-70 -6q-15 -1 -15 -15v-510h208q14 0 15 14l6 69h70v-172q0 -8 -8 -8h-489v64q0 8 7 8l57 5q14 1 14 15v516q0 14 -14 15l-57 5q-7 0 -7 8v64h283v-72z" />
    <glyph glyph-name="M" unicode="M" horiz-adv-x="1031" 
d="M916 628l-58 -4q-7 -1 -11 -6t-3 -13l70 -528l68 -5v-72h-275v72l71 6q8 0 12 5t3 13l-52 423l-194 -519h-77l-194 520l-59 -441l90 -7v-72h-260v64q0 8 7 8l51 4q12 1 13 13l70 516q1 8 -3.5 13t-11.5 6l-51 4q-7 0 -7 8v64h215l189 -500l191 500h206v-72z" />
    <glyph glyph-name="N" unicode="N" horiz-adv-x="846" 
d="M797 628l-65 -5q-15 -1 -15 -15v-608h-109l-369 499v-406q0 -15 14 -16l64 -5v-72h-267v64q0 8 7 8l58 5q14 1 14 16v514q0 15 -14 16l-58 5q-7 0 -7 8v64h179l379 -511v419q0 14 -14 15l-57 5q-7 0 -7 8v64h267v-72z" />
    <glyph glyph-name="O" unicode="O" horiz-adv-x="778" 
d="M389 708q155 0 250.5 -100t95.5 -258.5t-95.5 -258.5t-250.5 -100t-250.5 100t-95.5 259q0 104 43 185.5t122 127t181 45.5zM389 612q-101 0 -161 -70t-60 -192.5t60 -192t161 -69.5t161 69.5t60 192t-60 192.5t-161 70z" />
    <glyph glyph-name="P" unicode="P" horiz-adv-x="650" 
d="M55 700h325q102 0 164.5 -56.5t62.5 -147t-62.5 -147t-164.5 -56.5h-127v-200q0 -14 15 -15l70 -6v-72h-283v64q0 8 7 8l57 5q14 1 14 15v516q0 14 -14 15l-57 5q-7 0 -7 8v64zM306 603l-53 -3v-210h122q35 0 61.5 13t40.5 37t14 57q0 49 -31 77.5t-85 28.5h-69z" />
    <glyph glyph-name="Q" unicode="Q" horiz-adv-x="786" 
d="M770 -62l28 -86q-26 -10 -51 -13t-49.5 2.5t-42 11t-43 21t-36.5 23t-37 26.5q-68 50 -112 70q-19 -2 -38 -2q-155 0 -250.5 100t-95.5 259q0 104 43 185.5t122 127t181 45.5q155 0 250.5 -100t95.5 -258q0 -111 -49 -196t-136 -128l34 -25q25 -19 37 -28t34 -22
t37.5 -16.5t36.5 -4t41 7.5zM168 349.5q0 -122.5 60 -192t161 -69.5t161 69.5t60 192t-60 192.5t-161 70t-161 -70t-60 -192.5z" />
    <glyph glyph-name="R" unicode="R" horiz-adv-x="705" 
d="M55 700h325q101 0 164 -55t63 -142q0 -69 -40.5 -117t-110.5 -63l-4 -2l144 -237q4 -6 11 -6l72 -6v-72h-167q-5 0 -7 4l-160 302h-92v-213q0 -14 14 -15l71 -6v-72h-283v64q0 8 7 8l57 5q14 1 14 15v516q0 14 -14 15l-57 5q-7 0 -7 8v64zM303 603l-50 -3v-197h131
q50 0 78.5 26.5t28.5 73.5t-28.5 73.5t-78.5 26.5h-81z" />
    <glyph glyph-name="S" unicode="S" horiz-adv-x="562" 
d="M316 711q96 1 163 -38q3 -2 3 -6v-147h-70l-5 69q-1 8 -8 11q-34 16 -81 16q-63 0 -101 -23t-38 -60q0 -25 6.5 -39.5t32.5 -33t83 -45.5q130 -62 173.5 -106.5t43.5 -110.5q0 -67 -37 -114.5t-98.5 -69.5t-143.5 -22q-93 0 -190 39q-5 1 -5 6v147h70l5 -62q0 -9 9 -12
q56 -22 123 -22q64 0 102 25.5t38 69.5q0 18 -3.5 29t-16 23.5t-34 25.5t-61.5 33q-78 37 -122 64t-67 54.5t-29 50.5t-6 62q0 85 76.5 135t187.5 51z" />
    <glyph glyph-name="T" unicode="T" horiz-adv-x="653" 
d="M30 700h593q8 0 8 -8v-169h-70l-5 69q-1 15 -16 15h-154v-515q0 -14 15 -15l64 -5v-72h-278v64q0 8 7 8l58 5q14 1 14 16v514h-154q-14 0 -15 -15l-5 -69h-70v169q0 8 8 8z" />
    <glyph glyph-name="U" unicode="U" horiz-adv-x="828" 
d="M778 627l-67 -5q-14 -2 -14 -16v-334q0 -126 -76.5 -204t-203.5 -78q-83 0 -146.5 35.5t-98 99.5t-34.5 147v334q0 14 -14 15l-62 6q-7 0 -7 7v65h285v-72l-67 -6q-14 -1 -14 -15v-334q0 -89 45 -137t121 -48q77 0 124.5 48.5t47.5 136.5v334q0 14 -15 15l-71 6v72h267
v-72z" />
    <glyph glyph-name="V" unicode="V" horiz-adv-x="741" 
d="M719 628l-51 -4l-244 -624h-104l-241 615q-3 9 -12 9l-38 4q-7 0 -7 7v65h158l202 -550l172 449q3 9 -1.5 16t-13.5 8l-59 5q-7 1 -7 8v64h246v-72z" />
    <glyph glyph-name="W" unicode="W" horiz-adv-x="1143" 
d="M1122 628l-69 -6l-191 -622h-102l-191 517l-191 -517h-104l-186 614q-3 9 -13 10l-46 4q-7 0 -7 7v65h172l145 -534l158 434q3 9 -1.5 16t-13.5 8l-52 4q-7 1 -7 8v64h215l178 -534l128 436q2 8 -2.5 14.5t-12.5 7.5l-55 4q-7 1 -7 8v64h255v-72z" />
    <glyph glyph-name="X" unicode="X" horiz-adv-x="709" 
d="M677 628l-72 -6l-176 -268l183 -271q4 -5 10 -6l65 -5v-72h-151q-4 0 -6 3l-187 276l-126 -202l69 -6v-71h-263v65q0 7 7 7l59 5q6 1 10 6l178 270l-183 265q-3 5 -9 6l-49 4q-7 0 -7 7v65h148l186 -275l109 170q6 10 1.5 19t-15.5 10l-47 4q-7 1 -7 8v64h273v-72z" />
    <glyph glyph-name="Y" unicode="Y" horiz-adv-x="701" 
d="M680 628l-50 -4l-212 -379v-152q0 -15 14 -16l65 -5v-72h-279v64q0 8 7 8l59 5q14 1 14 16v145l-215 379q-4 6 -11 7l-43 4q-7 0 -7 7v65h146l199 -354l139 250q5 10 0.5 18.5t-15.5 9.5l-54 4q-7 1 -7 8v64h250v-72z" />
    <glyph glyph-name="Z" unicode="Z" horiz-adv-x="592" 
d="M560 633l-368 -537h281q15 0 16 14l5 61h70v-164q0 -8 -8 -8h-527v67l372 537h-259q-15 0 -16 -14l-4 -56h-70v159q0 8 8 8h500v-67z" />
    <glyph glyph-name="bracketleft" unicode="[" horiz-adv-x="315" 
d="M159 631v-679h126v-86h-246v851h246v-86h-126z" />
    <glyph glyph-name="backslash" unicode="\" horiz-adv-x="446" 
d="M424 -118h-124l-278 860h124z" />
    <glyph glyph-name="bracketright" unicode="]" horiz-adv-x="315" 
d="M276 717v-851h-246v86h126v679h-126v86h246z" />
    <glyph glyph-name="asciicircum" unicode="^" horiz-adv-x="562" 
d="M524 393h-117l-126 230l-126 -230h-116l177 307h130z" />
    <glyph glyph-name="underscore" unicode="_" horiz-adv-x="611" 
d="M572 -129h-533v89h533v-89z" />
    <glyph glyph-name="grave" unicode="`" horiz-adv-x="315" 
d="M276 562h-99l-138 162h131z" />
    <glyph glyph-name="a" unicode="a" 
d="M256 509q40 0 74.5 -10t62.5 -30.5t44 -55.5t16 -81v-244q0 -14 14 -15l59 -5v-68h-161q-6 0 -7 7l-5 54q-28 -33 -69.5 -52t-89.5 -19q-70 0 -113.5 40.5t-43.5 102.5q0 58 41.5 89t133.5 56l130 35v21q0 49 -27 71t-71 22q-49 0 -96 -23q-8 -3 -9 -12l-5 -60h-58v123
q0 4 2 6q34 20 82.5 33.5t95.5 14.5zM342 244l-105 -28q-50 -13 -69 -28t-19 -45q0 -32 23 -50.5t62 -18.5q67 0 105 51l3 3v116z" />
    <glyph glyph-name="b" unicode="b" horiz-adv-x="631" 
d="M45 740l177 10q9 0 9 -8v-294q57 62 149 62q98 0 154.5 -65.5t56.5 -180.5q0 -73 -21.5 -127t-60 -85.5t-87.5 -46.5t-111 -15q-92 0 -191 34v632q0 15 -15 15l-60 3v66zM341 427q-72 0 -110 -62v-274q46 -18 92 -18q69 0 111.5 44t42.5 133q0 84 -36.5 130.5t-99.5 46.5
z" />
    <glyph glyph-name="c" unicode="c" horiz-adv-x="495" 
d="M300 510q85 0 147 -39q4 -2 3 -6v-141h-69l-7 76q0 9 -8 12q-29 15 -65 15q-44 0 -77 -20t-51.5 -60.5t-18.5 -96.5q0 -85 40 -131t108 -46q63 -1 127 41l31 -76q-66 -48 -160 -48q-118 0 -189 73t-71 187t71 187t189 73z" />
    <glyph glyph-name="d" unicode="d" horiz-adv-x="632" 
d="M325 740l178 10q8 0 8 -8v-654q0 -14 15 -16l59 -4v-68h-161q-7 0 -8 7l-4 53q-62 -70 -158 -70q-97 0 -155.5 67.5t-58.5 194.5q0 38 6.5 73.5t22 69.5t39 59t60 40.5t82.5 15.5q93 0 151 -63v209q0 15 -15 15l-61 3v66zM289 427q-62 0 -98.5 -46.5t-36.5 -129t40 -129
t106 -47.5q64 0 100 46l1 244q-38 62 -112 62z" />
    <glyph glyph-name="e" unicode="e" horiz-adv-x="546" 
d="M276 510q119 0 176 -67t58 -186v-18q0 -7 -7 -7l-347 -9q6 -71 44.5 -111t98.5 -39q82 0 151 58l32 -75q-72 -66 -189 -66q-115 0 -184 73t-69 187t64.5 187t171.5 73zM278 432q-52 0 -84.5 -36t-37.5 -102h230q10 0 8 12q-10 126 -116 126z" />
    <glyph glyph-name="f" unicode="f" horiz-adv-x="416" 
d="M293 749q87 0 157 -45l-28 -69q-61 32 -112 31q-26 0 -46 -9t-32 -29t-12 -49v-79h136v-68l-136 -7v-337q0 -14 14 -15l63 -5v-68h-246v61q0 7 7 7l37 4q14 1 14 15v338l-58 3q-7 1 -7 8v64h65v87q0 79 53 120.5t131 41.5z" />
    <glyph glyph-name="g" unicode="g" horiz-adv-x="574" 
d="M535 446l-88 -7q46 -38 46 -104q0 -54 -26 -93.5t-73 -60.5t-111 -21q-42 0 -77 10q-36 -11 -36 -34q0 -27 28 -37.5t95 -10.5q220 0 220 -151q0 -77 -64.5 -121t-174.5 -44q-71 0 -126 20t-84.5 55t-29.5 80q0 38 24.5 69t67.5 52q-50 21 -50 66q0 52 72 81
q-74 46 -74 140q0 80 56.5 127.5t152.5 47.5h252v-64zM283.5 439q-47.5 0 -73 -26t-25.5 -78t25.5 -78.5t73 -26.5t73 26.5t25.5 78.5t-25.5 78t-73 26zM242 17l-10 -2q-47 -9 -73 -31t-26 -53q0 -38 38 -61.5t102 -23.5q43 0 75 10.5t49 30t17 44.5q0 85 -142 85
q-4 0 -30 1z" />
    <glyph glyph-name="h" unicode="h" horiz-adv-x="708" 
d="M55 740l178 10q8 0 8 -8v-307q48 34 101.5 54t99.5 20q67 0 107.5 -40.5t40.5 -119.5v-261q0 -14 14 -15l65 -5v-68h-182q-8 0 -8 8v321q0 98 -88 98q-66 0 -150 -53v-285q0 -15 14 -16l67 -5v-68h-267v61q0 7 7 7l54 5q14 1 14 16v567q0 15 -15 15l-60 3v66z" />
    <glyph glyph-name="i" unicode="i" horiz-adv-x="370" 
d="M180.5 727q25.5 0 43.5 -18t18 -43.5t-18 -44t-43.5 -18.5t-44 18.5t-18.5 44t18.5 43.5t44 18zM55 497l177 9q9 1 9 -8v-409q0 -15 14 -16l68 -5v-68h-268v61q0 7 7 7l54 5q14 1 14 16v323q0 15 -15 16l-60 3v66z" />
    <glyph glyph-name="j" unicode="j" horiz-adv-x="285" 
d="M167.5 728q25.5 0 44 -18t18.5 -44t-18.5 -44t-44 -18t-44 18t-18.5 44t18.5 44t44 18zM41 498l179 9q8 0 8 -8v-576q0 -59 -38.5 -94.5t-103.5 -35.5q-62 0 -100 33l25 60q22 -12 47 -12q27 0 43 14.5t16 44.5v480q0 15 -15 15l-61 4v66z" />
    <glyph glyph-name="k" unicode="k" horiz-adv-x="640" 
d="M55 740l177 10q9 0 9 -9v-466l161 135q6 5 4 11.5t-10 7.5l-27 3q-8 0 -8 8v60h246v-68l-62 -5l-157 -127l164 -222q4 -4 9 -5l65 -5v-68h-151q-6 0 -8 5l-150 240l-76 -61v-97q0 -14 14 -15l52 -4v-68h-251v61q0 7 7 7l53 5q14 1 14 15v568q0 14 -15 15l-60 3v66z" />
    <glyph glyph-name="l" unicode="l" horiz-adv-x="363" 
d="M55 740l177 10q9 0 9 -9v-652q0 -15 14 -16l68 -5v-68h-267v61q0 7 7 7l53 5q14 1 14 15v568q0 14 -15 15l-60 3v66z" />
    <glyph glyph-name="m" unicode="m" horiz-adv-x="1015" 
d="M756 509q42 0 73 -17t49.5 -53.5t18.5 -89.5v-261q0 -14 14 -15l65 -5v-68h-182q-8 0 -8 8v321q0 98 -82 98q-62 0 -142 -54q3 -16 3 -50v-235q0 -14 15 -15l64 -5v-68h-182q-8 0 -8 8v321q0 98 -81 98q-61 0 -140 -52v-286q0 -15 15 -16l66 -5v-68h-267v61q0 7 7 7l54 5
q15 1 15 16v323q0 15 -15 16l-61 3v66l178 9q8 1 8 -8v-63q46 34 96.5 54t94.5 20q46 0 79.5 -21t49.5 -63q47 38 101.5 61t101.5 23z" />
    <glyph glyph-name="n" unicode="n" horiz-adv-x="700" 
d="M434 509q67 0 107.5 -40.5t40.5 -119.5v-261q0 -14 15 -15l64 -5v-68h-181q-8 0 -8 8v321q0 98 -88 98q-67 0 -151 -53v-285q0 -15 15 -16l66 -5v-68h-267v61q0 7 7 7l54 5q15 1 15 16v323q0 15 -15 16l-61 3v66l178 9q8 1 8 -8v-63q48 34 101.5 54t99.5 20z" />
    <glyph glyph-name="o" unicode="o" horiz-adv-x="601" 
d="M300 510q79 0 138.5 -34t91 -92.5t31.5 -133.5q0 -114 -71 -187t-189.5 -73t-189.5 73t-71 187t71 187t189 73zM300 427q-66 0 -106 -46.5t-40 -130t40 -130.5t106.5 -47t106.5 47t40 130q0 56 -18.5 96.5t-51.5 60.5t-77 20z" />
    <glyph glyph-name="p" unicode="p" horiz-adv-x="648" 
d="M394 510q96 0 155 -67.5t59 -194.5q0 -38 -6.5 -73.5t-22 -69.5t-39 -59t-60 -40t-82.5 -15q-94 0 -151 62v-171q0 -14 15 -16l66 -5v-68h-266v60q0 8 7 8l53 5q14 2 14 15v531q0 15 -14 16l-53 3v68l155 2q7 0 8 -7l4 -54q61 70 158 70zM347 425q-63 0 -100 -46v-244
q38 -62 112 -62q41 0 71.5 20.5t47 60.5t16.5 94q0 83 -40 129.5t-107 47.5z" />
    <glyph glyph-name="q" unicode="q" horiz-adv-x="633" 
d="M319 510q92 0 192 -34v-595q0 -13 14 -15l61 -5v-68h-267v60q0 8 7 8l60 5q14 2 14 16v170q-57 -61 -150 -61q-97 0 -153.5 65t-56.5 180q0 59 14 105.5t38.5 77.5t60 52t77 30t89.5 9zM308 427q-69 0 -111.5 -44t-42.5 -133q0 -84 36.5 -130.5t98.5 -46.5q73 0 111 62
v274q-46 18 -92 18z" />
    <glyph glyph-name="r" unicode="r" horiz-adv-x="471" 
d="M399 505q25 3 47 0q6 -1 6 -7v-139h-70l-4 44q-1 13 -11 14q-9 1 -24 -5q-51 -16 -110 -68v-255q0 -15 14 -16l67 -5v-68h-267v61q0 7 7 7l54 5q14 1 14 16v323q0 15 -14 16l-61 3v66l178 9q8 1 8 -8v-84q80 82 166 91z" />
    <glyph glyph-name="s" unicode="s" horiz-adv-x="442" 
d="M253 510q70 0 121 -26q4 -2 4 -6v-121h-57l-5 61q-1 10 -9 12q-21 8 -49 8q-20 0 -38 -4t-30 -11.5t-18.5 -18t-6.5 -22.5q0 -26 14.5 -41t70.5 -43q90 -45 120 -77t30 -79q0 -73 -58.5 -111.5t-153.5 -38.5q-64 0 -138 26q-5 1 -5 7v118h57l5 -56q1 -10 9 -13
q36 -12 77 -12q30 0 53 8.5t35.5 24t12.5 36.5q0 24 -14 38t-68 41t-85.5 46.5t-47.5 39t-20 36.5t-4 45q0 61 57.5 97t140.5 36z" />
    <glyph glyph-name="t" unicode="t" horiz-adv-x="397" 
d="M196 500h129v-68l-129 -7v-301q0 -27 16.5 -41.5t43.5 -14.5q38 0 62 25l26 -53q-37 -51 -119 -51q-64 0 -101.5 32.5t-37.5 86.5v317l-54 3q-7 0 -7 8v60l61 1v127l110 5v-129z" />
    <glyph glyph-name="u" unicode="u" horiz-adv-x="693" 
d="M40 499h181q8 0 8 -8v-321q0 -98 88 -98q67 0 150 53v286q0 14 -14 15l-67 6v67h184q8 0 8 -8v-404q0 -15 15 -16l61 -3v-66l-178 -9q-9 0 -9 8v63q-47 -33 -100.5 -53.5t-100.5 -20.5q-67 0 -107.5 40.5t-40.5 119.5v261q0 14 -14 15l-64 6v67z" />
    <glyph glyph-name="v" unicode="v" horiz-adv-x="580" 
d="M562 432l-52 -4l-170 -428h-111l-161 420q-3 8 -12 9l-30 3q-7 1 -7 8v60h137l136 -386l115 289q4 9 -0.5 16t-14.5 8l-55 5q-7 0 -7 8v60h232v-68z" />
    <glyph glyph-name="w" unicode="w" horiz-adv-x="857" 
d="M843 432l-47 -4l-158 -428h-101l-110 310l-114 -310h-101l-147 419q-3 9 -12 10l-32 3q-7 1 -7 8v60h141l117 -381l101 286q2 8 -2 15t-14 8l-49 4q-7 0 -7 8v60h178l118 -381l100 286q2 6 1 11t-5.5 8t-9.5 4l-52 5q-7 0 -7 7v60h219v-68z" />
    <glyph glyph-name="x" unicode="x" horiz-adv-x="557" 
d="M531 432l-59 -5l-123 -165l126 -183q4 -5 10 -6l57 -6v-67h-135q-4 0 -6 3l-130 205l-96 -135l64 -5v-68h-225v61q0 7 8 7l54 5q6 0 10 5l121 167l-121 176q-3 5 -10 6l-50 5q-7 1 -7 8v60h139l127 -205l84 118q3 5 1 10t-8 5l-43 4q-7 0 -7 8v60h219v-68z" />
    <glyph glyph-name="y" unicode="y" horiz-adv-x="574" 
d="M559 432l-50 -4l-251 -630q-2 -5 -7 -5h-186v68l121 9q9 2 12 10l47 118h-19l-162 422q-3 8 -12 9l-31 3q-7 1 -7 8v60h138l138 -390l116 293q4 9 -0.5 16t-14.5 8l-56 5q-7 0 -7 8v60h231v-68z" />
    <glyph glyph-name="z" unicode="z" horiz-adv-x="496" 
d="M440 454l-264 -383h199q14 0 15 14l4 53h57v-130q0 -8 -8 -8h-401v46l265 383h-172q-14 0 -15 -14l-4 -51h-57v128q0 8 8 8h373v-46z" />
    <glyph glyph-name="braceleft" unicode="{" horiz-adv-x="343" 
d="M268 729q21 0 45 -3l-8 -83q-8 1 -16 1q-35 -2 -56 -22t-21 -60v-167q0 -34 -17 -59t-46 -39q29 -14 46 -39t17 -59v-168q0 -40 21.5 -60t56.5 -21q10 0 15 1l8 -83q-32 -4 -45 -3q-166 0 -166 166v168q0 29 -18 45t-45 16v73q26 0 44.5 16t18.5 45v169q0 166 166 166z
" />
    <glyph glyph-name="bar" unicode="|" horiz-adv-x="187" 
d="M148 -190h-109v940h109v-940z" />
    <glyph glyph-name="braceright" unicode="}" horiz-adv-x="343" 
d="M75 729q166 0 166 -166v-169q0 -29 18 -45t45 -16v-73q-27 0 -45 -16t-18 -45v-168q0 -166 -166 -166q-13 -1 -45 3l8 83q6 -1 16 -1q35 2 55.5 22t20.5 59v168q0 23 8.5 42.5t22.5 33t33 22.5q-29 14 -46.5 39t-17.5 59l1 167q0 40 -21.5 60.5t-56.5 21.5h-15l-8 82
q24 3 45 3z" />
    <glyph glyph-name="asciitilde" unicode="~" horiz-adv-x="570" 
d="M156 349q49 9 127 -23q70 -30 99 -28q40 2 63 46l86 -17q-1 -38 -17 -66.5t-42.5 -43t-59.5 -14.5q-45 -2 -115 27q-6 3 -23 10t-23.5 9.5t-18.5 6t-20 5t-15 0.5q-20 -2 -37 -16t-35 -47l-86 26q30 108 117 125z" />
    <glyph glyph-name="exclamdown" unicode="&#xa1;" horiz-adv-x="204" 
d="M102 513q26 0 44 -19t18 -43q0 -16 -8 -30t-22.5 -23t-31.5 -9q-26 0 -44 18.5t-18 43t18 43.5t44 19zM162 -195h-120l11 489h98z" />
    <glyph glyph-name="cent" unicode="&#xa2;" horiz-adv-x="495" 
d="M429 114l31 -76q-49 -36 -115 -45v-74h-93v75q-98 14 -155 84.5t-57 172t57 171.5t155 84v75h93v-74q57 -8 102 -36q4 -2 3 -6v-141h-69l-7 76q0 9 -8 12q-29 15 -66 15q-43 0 -76 -20t-51.5 -60.5t-18.5 -96.5q0 -85 40 -131t108 -46q63 -1 127 41z" />
    <glyph glyph-name="sterling" unicode="&#xa3;" horiz-adv-x="502" 
d="M301 710q86 -1 154 -37q4 -2 4 -6v-140h-64l-5 63q-1 10 -10 12q-32 12 -68 13q-49 0 -83 -22.5t-39 -66.5q-2 -23 4.5 -45.5t16 -38t23.5 -39t21 -41.5h160v-82h-145q0 -18 -3 -36q-7 -60 -73 -156h279v-89h-418v89q75 97 86 155q5 19 6 37h-92v82h72q-4 8 -25 46
t-28 65.5t-4 62.5q6 59 41 99.5t83.5 57.5t106.5 17z" />
    <glyph glyph-name="currency" unicode="&#xa4;" horiz-adv-x="600" 
 />
    <glyph glyph-name="yen" unicode="&#xa5;" horiz-adv-x="701" 
d="M680 628l-50 -4l-122 -217h91v-81h-136l-32 -57l-3 -31h171v-81h-181v-64q0 -15 14 -16l65 -5v-72h-279v64q0 8 7 8l59 5q14 1 14 16v64h-191v81h178l-3 28l-34 60h-141v81h95l-119 210q-4 6 -11 7l-43 4q-7 0 -7 7v65h146l199 -354l139 250q5 10 0.5 18.5t-15.5 9.5
l-54 4q-7 1 -7 8v64h250v-72z" />
    <glyph glyph-name="brokenbar" unicode="&#xa6;" horiz-adv-x="197" 
d="M159 342h-120v408h120v-408zM159 -190h-120v408h120v-408z" />
    <glyph glyph-name="section" unicode="&#xa7;" horiz-adv-x="496" 
d="M279 712q82 1 141 -31q4 -2 4 -7v-141h-67l-6 69q-1 11 -10 14q-23 10 -56 10q-32 0 -56 -8t-37 -23t-13 -34q0 -30 17 -48t83 -51q106 -52 142 -90t36 -95q0 -51 -27 -89t-76 -58q60 -36 81.5 -67.5t21.5 -75.5q0 -86 -68 -131.5t-179 -45.5q-82 0 -166 33q-5 2 -5 7
v139h67l5 -64q1 -11 10 -14q42 -17 94 -17t83 21.5t31 58.5q0 29 -16.5 45t-79.5 48q-64 32 -101 55t-56.5 46.5t-24 43t-4.5 52.5q0 23 8 44t23.5 38t37.5 29.5t49 19.5q-75 44 -96.5 75.5t-21.5 83.5q0 73 67 115.5t165 42.5zM267 341h-4q-23 0 -41.5 -5t-31 -14
t-19.5 -21t-7 -27q0 -28 15.5 -44t74.5 -45l7 -3q37 7 58 27.5t21 50.5q0 25 -13.5 41t-59.5 40z" />
    <glyph glyph-name="dieresis" unicode="&#xa8;" horiz-adv-x="382" 
d="M96 693q24 0 40.5 -17t16.5 -40t-16.5 -40t-40.5 -17t-40.5 17t-16.5 40q0 11 4 21.5t11.5 18.5t18.5 12.5t23 4.5zM285.5 693q24.5 0 41 -17t16.5 -40t-16.5 -40t-41 -17t-41 17t-16.5 40t16.5 40t41 17z" />
    <glyph glyph-name="copyright" unicode="&#xa9;" horiz-adv-x="802" 
d="M401 710q73 0 140 -28.5t115.5 -76.5t77.5 -115t29 -140q0 -98 -49 -181t-132 -131t-181 -48t-181.5 48t-132 131t-48.5 181t48.5 181t132 131t181.5 48zM401 632q-56 0 -107.5 -22t-89 -60t-59.5 -90t-22 -109q0 -116 81.5 -198.5t196.5 -82.5q75 0 139 37.5
t101.5 102.5t37.5 141q0 116 -82 198.5t-196 82.5zM402 533q63 0 111 -35q3 -2 3 -6v-72h-54l-3 34q0 9 -8 12q-23 12 -49 12q-46 0 -74 -33.5t-28 -94.5t29 -94.5t76.5 -33t95.5 37.5l22 -51q-47 -42 -121 -42q-81 0 -131.5 51.5t-50.5 131.5t50.5 131.5t131.5 51.5z" />
    <glyph glyph-name="ordfeminine" unicode="&#xaa;" horiz-adv-x="376" 
d="M172 706q25 0 46 -6t38 -18.5t27 -34t10 -49.5v-148q0 -8 7 -8l38 -3v-43h-99q-6 0 -6 5l-3 30q-37 -41 -95 -41q-43 0 -69.5 25t-26.5 62q0 36 25 55t81 34l78 21v13q0 55 -58 55q-29 0 -57 -14q-5 -1 -5 -6l-3 -37h-38v75q0 3 2 4q49 29 108 29zM223 544l-62 -17
q-30 -8 -41 -16.5t-11 -26.5q0 -19 13.5 -30t36.5 -11q40 0 63 30l1 2v69z" />
    <glyph glyph-name="guillemotleft" unicode="&#xab;" horiz-adv-x="552" 
d="M159 250l122 -176h-114l-128 176l129 177h113zM400 250l122 -176h-113l-129 176l129 177h113z" />
    <glyph glyph-name="logicalnot" unicode="&#xac;" horiz-adv-x="700" 
 />
    <glyph glyph-name="registered" unicode="&#xae;" horiz-adv-x="802" 
d="M401 710q73 0 140 -28.5t115.5 -76.5t77.5 -115t29 -140q0 -98 -49 -181t-132 -131t-181 -48t-181.5 48t-132 131t-48.5 181t48.5 181t132 131t181.5 48zM400.5 632q-114.5 0 -196 -82.5t-81.5 -198.5t81.5 -198.5t196 -82.5t196.5 82.5t82 198.5t-82 198.5t-196.5 82.5z
M246 524h162q34 0 60.5 -12.5t41 -34.5t14.5 -50q0 -31 -20 -54.5t-55 -32.5l70 -115q2 -3 6 -4l33 -3v-33h-83q-4 0 -6 3l-82 143h-36v-99q0 -9 9 -10l30 -3v-34h-144v31q0 3 4 3l25 2q9 1 9 10v243q0 9 -9 10l-25 2q-4 1 -4 4v34zM351 472v-90h55q22 0 35 11.5t13 34
t-13 34t-35 11.5h-32z" />
    <glyph glyph-name="macron" unicode="&#xaf;" horiz-adv-x="395" 
d="M356 585h-317v81h317v-81z" />
    <glyph glyph-name="degree" unicode="&#xb0;" horiz-adv-x="351" 
d="M175.5 744q57.5 0 97 -40.5t39.5 -96.5t-39.5 -96.5t-96.5 -40.5q-38 0 -70 18.5t-49.5 50t-17.5 68.5q0 56 39.5 96.5t97 40.5zM175.5 683q-30.5 0 -51.5 -22t-21 -54q0 -22 10 -39.5t26.5 -27t36.5 -9.5q30 0 51 21.5t21 54t-21 54.5t-51.5 22z" />
    <glyph glyph-name="plusminus" unicode="&#xb1;" horiz-adv-x="517" 
d="M307 394h171v-97h-171v-151h-97v151h-171v97h171v151h97v-151zM478 -34h-439v97h439v-97z" />
    <glyph glyph-name="twosuperior" unicode="&#xb2;" horiz-adv-x="310" 
d="M153 746q33 0 61.5 -11t43.5 -32q53 -72 -45 -203q-26 -36 -86 -99h99q6 0 7 7l3 37h49v-104h-271v44q0 1 1 3q83 81 128 147q60 86 42 128q-10 22 -38 22q-41 0 -52 -39l-79 9q8 42 48 66.5t89 24.5z" />
    <glyph glyph-name="threesuperior" unicode="&#xb3;" horiz-adv-x="316" 
d="M146 746q55 0 95 -28.5t40 -77.5q0 -60 -62 -89q32 -13 50 -38t18 -58q0 -57 -44.5 -88t-104.5 -31q-68 0 -120 34l21 50q46 -20 88 -20q70 -1 70 60q0 58 -61 58h-50v60h51q57 0 57 54q0 27 -16 40.5t-41 13.5q-24 0 -42 -11q-4 -1 -4 -7l-4 -46h-54v85q0 3 2 5
q21 15 51.5 24.5t59.5 9.5z" />
    <glyph glyph-name="acute" unicode="&#xb4;" horiz-adv-x="315" 
d="M137 562h-98l105 162h132z" />
    <glyph glyph-name="paragraph" unicode="&#xb6;" horiz-adv-x="618" 
d="M579 608l-58 -4q-14 -2 -14 -16v-667h-110v682h-86v-682h-182v84q0 8 7 8l51 5q14 1 14 15v272q-75 13 -118.5 65t-43.5 128q0 58 25 103.5t72.5 71.5t109.5 27h333v-92z" />
    <glyph glyph-name="periodcentered" unicode="&#xb7;" horiz-adv-x="201" 
d="M100.5 372q17.5 0 32 -8.5t22 -23t7.5 -30.5q0 -24 -17.5 -43t-44.5 -19q-17 0 -31.5 9t-22 23.5t-7.5 30t7.5 30t22 23t32 8.5z" />
    <glyph glyph-name="cedilla" unicode="&#xb8;" horiz-adv-x="273" 
d="M169 5l-20 -50q2 0 6.5 -0.5t7.5 -1.5q34 -7 53.5 -31t17.5 -53q-2 -35 -32 -60.5t-77 -25.5q-49 0 -86 28l15 49q24 -15 47 -16q15 -2 26.5 1.5t19.5 13t9 23.5q0 36 -47 40q-12 1 -32 -1l32 101z" />
    <glyph glyph-name="onesuperior" unicode="&#xb9;" horiz-adv-x="254" 
d="M177 740v-338q0 -7 6 -7l39 -4v-50h-195v46q0 4 5 5l48 4q7 0 7 7v237q0 4 -3.5 6t-6.5 -1l-42 -28l-24 57l95 66h71z" />
    <glyph glyph-name="ordmasculine" unicode="&#xba;" horiz-adv-x="395" 
d="M198 706q72 0 115.5 -44.5t43.5 -113.5t-43.5 -113.5t-115.5 -44.5t-115.5 44.5t-43.5 113.5t43.5 113.5t115.5 44.5zM197.5 655q-39.5 0 -63.5 -28.5t-24 -79t24 -78.5t63.5 -28t63.5 28t24 78.5t-24 79t-63.5 28.5z" />
    <glyph glyph-name="guillemotright" unicode="&#xbb;" horiz-adv-x="552" 
d="M514 250l-129 -176h-114l123 176l-123 177h114zM272 250l-128 -176h-114l123 176l-123 177h114z" />
    <glyph glyph-name="onequarter" unicode="&#xbc;" horiz-adv-x="797" 
d="M274 -18h-102l362 734h103zM204 700v-338q0 -7 7 -7l39 -4v-50h-195v46q0 4 5 5l48 4q7 0 7 7v237q0 4 -3.5 6t-7.5 -1l-41 -28l-24 57l95 66h70zM557 154h81l11 137q1 5 5 5h54v-142h51v-55h-51v-42q0 -6 7 -7l39 -3v-47h-183v42q0 5 4 5l45 4q7 0 7 7v41h-160v40
l109 260h82z" />
    <glyph glyph-name="onehalf" unicode="&#xbd;" horiz-adv-x="831" 
d="M274 -18h-102l362 734h103zM204 700v-338q0 -7 7 -7l39 -4v-50h-195v46q0 4 5 5l48 4q7 0 7 7v237q0 4 -3.5 6t-7.5 -1l-41 -28l-24 57l95 66h70zM660 405q22 0 41.5 -4.5t36.5 -14.5t27 -24q53 -72 -45 -203q-27 -36 -86 -99h98q7 0 8 7l3 37h49v-104h-271v44q0 1 1 3
q83 81 127 147q61 86 43 128q-10 22 -38 22q-41 0 -52 -39l-79 9q8 42 48 66.5t89 24.5z" />
    <glyph glyph-name="threequarters" unicode="&#xbe;" horiz-adv-x="815" 
d="M290 -18h-103l363 734h102zM167 706q55 0 95 -28.5t40 -77.5q0 -60 -62 -89q22 -8 37 -22.5t23 -33t8 -40.5q0 -57 -44.5 -88t-104.5 -31q-68 0 -120 34l22 50q46 -20 87 -20q70 -1 70 60q0 58 -61 58h-49v60h50q57 0 57 54q0 27 -16 40.5t-41 13.5q-24 0 -41 -11
q-5 -1 -5 -7l-4 -46h-54v85q0 3 2 5q21 15 51.5 24.5t59.5 9.5zM575 154h81l11 137q0 5 5 5h54v-142h51v-55h-51v-42q0 -6 7 -7l39 -3v-47h-183v42q0 5 4 5l45 4q7 0 7 7v41h-160v40l109 260h82z" />
    <glyph glyph-name="questiondown" unicode="&#xbf;" horiz-adv-x="462" 
d="M353 513q26 0 44 -19t18 -43.5t-18 -43t-44 -18.5q-17 0 -31.5 9t-22.5 23t-8 30q0 24 18 43t44 19zM403 294l4 -67q3 -50 -24.5 -83.5t-113.5 -78.5q-74 -39 -91.5 -56.5t-17.5 -49.5t25.5 -51t70.5 -19q50 0 96 17l6 82h64v-142q-73 -51 -172 -51q-91 0 -151 43.5
t-60 119.5q0 59 29.5 94.5t122.5 85.5q67 36 87.5 56t22.5 53l2 47h100z" />
    <glyph glyph-name="Agrave" unicode="&#xc0;" horiz-adv-x="792" 
d="M450 762h-98l-139 162h132zM712 77l59 -5v-72h-277v64q0 7 7 8l57 5q9 0 13.5 7.5t1.5 15.5l-40 99h-298l-49 -121l83 -6v-72h-247v65q0 7 7 7l43 4q9 1 12 9l248 611l121 7zM271 295h226l-112 283z" />
    <glyph glyph-name="Aacute" unicode="&#xc1;" horiz-adv-x="792" 
d="M440 762h-98l105 162h132zM712 77l59 -5v-72h-277v64q0 7 7 8l57 5q9 0 13.5 7.5t1.5 15.5l-40 99h-298l-49 -121l83 -6v-72h-247v65q0 7 7 7l43 4q9 1 12 9l248 611l121 7zM271 295h226l-112 283z" />
    <glyph glyph-name="Acircumflex" unicode="&#xc2;" horiz-adv-x="792" 
d="M577 762h-98l-82 105l-82 -105h-99l111 162h139zM712 77l59 -5v-72h-277v64q0 7 7 8l57 5q9 0 13.5 7.5t1.5 15.5l-40 99h-298l-49 -121l83 -6v-72h-247v65q0 7 7 7l43 4q9 1 12 9l248 611l121 7zM271 295h226l-112 283z" />
    <glyph glyph-name="Atilde" unicode="&#xc3;" horiz-adv-x="792" 
d="M490 882l66 -13q-2 -45 -24 -69.5t-58 -27.5q-25 -3 -61 10q-12 4 -37.5 15.5t-33.5 12.5t-14 -2.5t-12 -13t-13 -28.5l-66 20q15 82 73 93q33 5 87 -18q42 -18 59 -14q20 3 34 35zM712 77l59 -5v-72h-277v64q0 7 7 8l57 5q9 0 13.5 7.5t1.5 15.5l-40 99h-298l-49 -121
l83 -6v-72h-247v65q0 7 7 7l43 4q9 1 12 9l248 611l121 7zM271 295h226l-112 283z" />
    <glyph glyph-name="Adieresis" unicode="&#xc4;" horiz-adv-x="792" 
d="M301.5 893q24.5 0 41 -17t16.5 -40t-16.5 -40t-41 -17t-41 17t-16.5 40t16.5 40t41 17zM491 893q24 0 41 -17t17 -40t-17 -40t-41 -17t-40.5 17t-16.5 40t16.5 40t40.5 17zM712 77l59 -5v-72h-277v64q0 7 7 8l57 5q6 0 10.5 3.5t5.5 8.5t-1 11l-40 99h-298l-49 -121
l83 -6v-72h-247v65q0 7 7 7l43 4q9 1 12 9l248 611l121 7zM271 295h226l-112 283z" />
    <glyph glyph-name="Aring" unicode="&#xc5;" horiz-adv-x="792" 
d="M396 957q32 0 58.5 -15.5t41.5 -42t15 -56.5q0 -47 -33 -81t-81.5 -34t-81.5 34t-33 81t33 80.5t81 33.5zM396 901q-23 0 -39 -16.5t-16 -42t16 -42t39 -16.5t39.5 16.5t16.5 42t-16.5 42t-39.5 16.5zM712 77l59 -5v-72h-277v64q0 7 7 8l57 5q9 0 13.5 7.5t1.5 15.5
l-40 99h-298l-49 -121l83 -6v-72h-247v65q0 7 7 7l43 4q9 1 12 9l248 611l121 7zM271 295h226l-112 283z" />
    <glyph glyph-name="AE" unicode="&#xc6;" horiz-adv-x="839" 
d="M333 700h456q8 0 8 -8v-172h-70l-5 69q-1 14 -16 14h-201v-204h202v-91h-202v-211h219q15 0 16 14l5 69h70v-172q0 -8 -8 -8h-501v64q0 8 7 8l57 5q15 1 15 15v107h-150l-49 -121l67 -5v-73h-231v65q0 7 7 7l43 4q9 1 12 9zM271 295h114v283z" />
    <glyph glyph-name="Ccedilla" unicode="&#xc7;" horiz-adv-x="647" 
d="M392 708q119 0 206 -61q3 -2 3 -6v-144h-70l-6 72q0 8 -7 11q-59 32 -126 32q-100 0 -160.5 -69.5t-60.5 -192.5q0 -125 62.5 -194t165.5 -68q97 0 181 61l35 -83q-44 -36 -95.5 -54.5t-117.5 -19.5q-23 -1 -51 2l-15 -39q2 0 6.5 -0.5t7.5 -1.5q34 -7 53 -31t18 -53
q-2 -35 -32 -60.5t-77 -25.5q-49 0 -86 28l15 49q24 -15 47 -16q23 -2 38.5 7.5t16.5 30.5q0 36 -47 40q-12 1 -32 -1l27 83q-75 20 -130.5 68.5t-85 120t-29.5 157.5q0 104 43 185.5t122 127t181 45.5z" />
    <glyph glyph-name="Egrave" unicode="&#xc8;" horiz-adv-x="592" 
d="M364 762h-98l-139 162h132zM55 700h483q8 0 8 -8v-172h-70l-5 69q-1 14 -16 14h-202v-204h203v-91h-203v-211h220q14 0 15 14l6 69h70v-172q0 -8 -8 -8h-501v64q0 8 7 8l57 5q14 1 14 15v516q0 14 -14 15l-57 5q-7 0 -7 8v64z" />
    <glyph glyph-name="Eacute" unicode="&#xc9;" horiz-adv-x="592" 
d="M354 762h-98l105 162h132zM55 700h483q8 0 8 -8v-172h-70l-5 69q-1 14 -16 14h-202v-204h203v-91h-203v-211h220q14 0 15 14l6 69h70v-172q0 -8 -8 -8h-501v64q0 8 7 8l57 5q14 1 14 15v516q0 14 -14 15l-57 5q-7 0 -7 8v64z" />
    <glyph glyph-name="Ecircumflex" unicode="&#xca;" horiz-adv-x="592" 
d="M491 762h-99l-82 105l-82 -105h-98l111 162h139zM55 700h483q8 0 8 -8v-172h-70l-5 69q-1 14 -16 14h-202v-204h203v-91h-203v-211h220q14 0 15 14l6 69h70v-172q0 -8 -8 -8h-501v64q0 8 7 8l57 5q14 1 14 15v516q0 14 -14 15l-57 5q-7 0 -7 8v64z" />
    <glyph glyph-name="Edieresis" unicode="&#xcb;" horiz-adv-x="592" 
d="M215.5 893q24.5 0 41 -17t16.5 -40t-16.5 -40t-41 -17t-41 17t-16.5 40t16.5 40t41 17zM405 893q24 0 41 -17t17 -40t-17 -40t-41 -17t-40.5 17t-16.5 40t16.5 40t40.5 17zM55 700h483q8 0 8 -8v-172h-70l-5 69q-1 14 -16 14h-202v-204h203v-91h-203v-211h220q14 0 15 14
l6 69h70v-172q0 -8 -8 -8h-501v64q0 8 7 8l57 5q14 1 14 15v516q0 14 -14 15l-57 5q-7 0 -7 8v64z" />
    <glyph glyph-name="Igrave" unicode="&#xcc;" horiz-adv-x="388" 
d="M248 762h-98l-139 162h132zM333 628l-65 -5q-14 -1 -14 -16v-514q0 -15 14 -16l65 -5v-72h-278v64q0 8 7 8l58 5q14 1 14 16v514q0 15 -14 16l-58 5q-7 0 -7 8v64h278v-72z" />
    <glyph glyph-name="Iacute" unicode="&#xcd;" horiz-adv-x="388" 
d="M238 762h-98l105 162h132zM333 628l-65 -5q-14 -1 -14 -16v-514q0 -15 14 -16l65 -5v-72h-278v64q0 8 7 8l58 5q14 1 14 16v514q0 15 -14 16l-58 5q-7 0 -7 8v64h278v-72z" />
    <glyph glyph-name="Icircumflex" unicode="&#xce;" horiz-adv-x="388" 
d="M375 762h-99l-82 105l-82 -105h-98l111 162h139zM333 628l-65 -5q-14 -1 -14 -16v-514q0 -15 14 -16l65 -5v-72h-278v64q0 8 7 8l58 5q14 1 14 16v514q0 15 -14 16l-58 5q-7 0 -7 8v64h278v-72z" />
    <glyph glyph-name="Idieresis" unicode="&#xcf;" horiz-adv-x="388" 
d="M99.5 893q24.5 0 41 -17t16.5 -40t-16.5 -40t-41 -17t-41 17t-16.5 40t16.5 40t41 17zM289 893q24 0 40.5 -17t16.5 -40t-16.5 -40t-40.5 -17t-40.5 17t-16.5 40t16.5 40t40.5 17zM333 628l-65 -5q-14 -1 -14 -16v-514q0 -15 14 -16l65 -5v-72h-278v64q0 8 7 8l58 5
q14 1 14 16v514q0 15 -14 16l-58 5q-7 0 -7 8v64h278v-72z" />
    <glyph glyph-name="Eth" unicode="&#xd0;" horiz-adv-x="751" 
d="M55 700h307q103 0 181.5 -43.5t121.5 -123t43 -183.5q0 -158 -95 -254t-251 -96h-307v64q0 8 7 8l57 5q14 1 14 15v210h-94v96h94v210q0 14 -14 15l-57 5q-7 0 -7 8v64zM304 97h58q102 0 161.5 65.5t59.5 187t-59.5 187.5t-161.5 66h-58l-51 -3v-202h114v-96h-114v-202z
" />
    <glyph glyph-name="Ntilde" unicode="&#xd1;" horiz-adv-x="846" 
d="M517 882l65 -13q-1 -45 -23 -69.5t-58 -27.5q-25 -3 -61 10q-9 3 -21 8t-20 9t-16.5 7t-13.5 4q-12 1 -20.5 -8t-18.5 -35l-66 19q15 82 73 93q32 5 87 -18q42 -18 59 -14q20 3 34 35zM797 628l-65 -5q-15 -1 -15 -15v-608h-109l-369 499v-406q0 -15 14 -16l64 -5v-72
h-267v64q0 8 7 8l58 5q14 1 14 16v514q0 15 -14 16l-58 5q-7 0 -7 7v65h179l379 -511v419q0 14 -14 15l-57 5q-7 0 -7 8v64h267v-72z" />
    <glyph glyph-name="Ograve" unicode="&#xd2;" horiz-adv-x="778" 
d="M443 762h-99l-138 162h131zM389 708q155 0 250.5 -100t95.5 -258.5t-95.5 -258.5t-250.5 -100t-250.5 100t-95.5 259q0 104 43 185.5t122 127t181 45.5zM389 612q-101 0 -161 -70t-60 -192.5t60 -192t161 -69.5t161 69.5t60 192t-60 192.5t-161 70z" />
    <glyph glyph-name="Oacute" unicode="&#xd3;" horiz-adv-x="778" 
d="M433 762h-99l106 162h131zM389 708q155 0 250.5 -100t95.5 -258.5t-95.5 -258.5t-250.5 -100t-250.5 100t-95.5 258.5t95.5 258.5t250.5 100zM389 612q-101 0 -161 -70t-60 -192.5t60 -192t161 -69.5q67 0 116.5 30.5t77 90t27.5 141t-27.5 141t-77 90.5t-116.5 31z" />
    <glyph glyph-name="Ocircumflex" unicode="&#xd4;" horiz-adv-x="778" 
d="M569 762h-98l-82 105l-82 -105h-99l112 162h138zM389 708q155 0 250.5 -100t95.5 -258.5t-95.5 -258.5t-250.5 -100t-250.5 100t-95.5 259q0 104 43 185.5t122 127t181 45.5zM389 612q-101 0 -161 -70t-60 -192.5t60 -192t161 -69.5t161 69.5t60 192t-60 192.5t-161 70z
" />
    <glyph glyph-name="Otilde" unicode="&#xd5;" horiz-adv-x="778" 
d="M483 882l65 -13q-2 -45 -24 -69.5t-57 -27.5q-26 -3 -62 10q-12 4 -37.5 15.5t-32.5 12.5q-13 1 -21 -8t-19 -36l-65 20q15 82 72 93q33 5 87 -18q43 -18 60 -14q19 3 34 35zM389 708q155 0 250.5 -100t95.5 -258.5t-95.5 -258.5t-250.5 -100t-250.5 100t-95.5 258.5
t95.5 258.5t250.5 100zM389 612q-101 0 -161 -70t-60 -192.5t60 -192t161 -69.5q67 0 116.5 30.5t77 90t27.5 141t-27.5 141t-77 90.5t-116.5 31z" />
    <glyph glyph-name="Odieresis" unicode="&#xd6;" horiz-adv-x="778" 
d="M294 893q24 0 40.5 -17t16.5 -40t-16.5 -40t-40.5 -17t-40.5 17t-16.5 40t16.5 40t40.5 17zM483.5 893q24.5 0 41 -17t16.5 -40t-16.5 -40t-41 -17t-41 17t-16.5 40t16.5 40t41 17zM389 708q155 0 250.5 -100t95.5 -258.5t-95.5 -258.5t-250.5 -100t-250.5 100t-95.5 259
q0 104 43 185.5t122 127t181 45.5zM389 612q-101 0 -161 -70t-60 -192.5t60 -192t161 -69.5t161 69.5t60 192t-60 192.5t-161 70z" />
    <glyph glyph-name="multiply" unicode="&#xd7;" horiz-adv-x="456" 
d="M418 412l-122 -122l122 -121l-69 -68l-121 121l-121 -121l-68 68l121 121l-121 122l68 68l121 -121l121 121z" />
    <glyph glyph-name="Oslash" unicode="&#xd8;" horiz-adv-x="778" 
d="M581 750l-26 -79q28 -14 52.5 -33.5t44.5 -42.5t35.5 -51t26 -58.5t16 -65t5.5 -70.5q0 -159 -95.5 -259t-250.5 -100q-27 0 -53 3l-14 -44h-125l26 79q-56 28 -96.5 75t-62 110t-21.5 136q0 104 43 185.5t122 127t181 45.5q27 0 53 -3l14 45h125zM168 350
q0 -150 88 -219l155 480q-11 1 -22 1q-101 0 -161 -70t-60 -192zM389 88q101 0 161 69.5t60 192.5q0 150 -88 219l-155 -480q11 -1 22 -1z" />
    <glyph glyph-name="Ugrave" unicode="&#xd9;" horiz-adv-x="828" 
d="M468 762h-99l-138 162h131zM778 627l-67 -5q-14 -2 -14 -16v-334q0 -126 -76.5 -204t-203 -78t-203 78t-76.5 204v334q0 14 -14 15l-62 6q-7 0 -7 7v65h285v-72l-67 -5q-14 -2 -14 -16v-334q0 -89 45 -137t121 -48q77 0 124.5 48.5t47.5 136.5v334q0 14 -15 15l-71 6v72
h267v-72z" />
    <glyph glyph-name="Uacute" unicode="&#xda;" horiz-adv-x="828" 
d="M458 762h-99l106 162h132zM778 627l-67 -5q-14 -2 -14 -16v-334q0 -126 -76.5 -204t-203 -78t-203 78t-76.5 204v334q0 14 -14 15l-62 6q-7 0 -7 7v65h285v-72l-67 -5q-14 -2 -14 -16v-334q0 -89 45 -137t121 -48q77 0 124.5 48.5t47.5 136.5v334q0 14 -15 15l-71 6v72
h267v-72z" />
    <glyph glyph-name="Ucircumflex" unicode="&#xdb;" horiz-adv-x="828" 
d="M595 762h-99l-82 105l-82 -105h-98l111 162h139zM778 627l-67 -5q-14 -2 -14 -16v-334q0 -126 -76.5 -204t-203.5 -78q-83 0 -146.5 35.5t-98 99.5t-34.5 147v334q0 14 -14 15l-62 6q-7 0 -7 7v65h285v-72l-67 -6q-14 -1 -14 -15v-334q0 -89 45 -137t120 -48
q38 0 69.5 12t54.5 35t36 58.5t13 79.5v334q0 14 -15 15l-71 6v72h267v-72z" />
    <glyph glyph-name="Udieresis" unicode="&#xdc;" horiz-adv-x="828" 
d="M319 893q24 0 41 -17t17 -40t-17 -40t-41 -17t-40.5 17t-16.5 40t16.5 40t40.5 17zM509 893q24 0 40.5 -17t16.5 -40t-16.5 -40t-40.5 -17t-40.5 17t-16.5 40t16.5 40t40.5 17zM778 627l-67 -5q-14 -2 -14 -16v-334q0 -126 -76.5 -204t-203.5 -78q-83 0 -146.5 35.5
t-98 99.5t-34.5 147v334q0 14 -14 15l-62 6q-7 0 -7 7v65h285v-72l-67 -5q-14 -2 -14 -16v-334q0 -89 45 -137t121 -48q77 0 124.5 48.5t47.5 136.5v334q0 14 -15 15l-71 6v72h267v-72z" />
    <glyph glyph-name="Yacute" unicode="&#xdd;" horiz-adv-x="701" 
d="M394 762h-98l105 162h132zM680 628l-50 -4l-212 -379v-152q0 -15 14 -16l65 -5v-72h-279v64q0 8 7 8l59 5q14 1 14 16v145l-215 379q-4 6 -11 7l-43 4q-7 0 -7 7v65h146l199 -354l139 250q5 10 0.5 18.5t-15.5 9.5l-54 4q-7 1 -7 8v64h250v-72z" />
    <glyph glyph-name="Thorn" unicode="&#xde;" horiz-adv-x="650" 
d="M253 612h127q67 0 118.5 -26t80 -72t28.5 -106q0 -90 -62.5 -146.5t-164.5 -56.5h-127v-112q0 -14 15 -15l70 -6v-72h-283v64q0 8 7 8l57 5q14 1 14 15v544q0 14 -14 15l-57 5q-7 1 -7 8v64h198v-116zM253 515v-213h122q54 0 85 28.5t31 78t-31 78t-85 28.5h-122z" />
    <glyph glyph-name="germandbls" unicode="&#xdf;" horiz-adv-x="676" 
d="M353 750q111 0 171.5 -47.5t60.5 -126.5q0 -38 -15.5 -64t-49.5 -57q-25 -24 -24 -55q1 -33 32 -53q27 -17 38.5 -25t31 -24.5t27.5 -29.5t15 -33t7 -44q0 -88 -70 -143t-182 -55q-53 0 -98 14v152h70l4 -58q1 -8 9 -9q16 -3 34 -3q52 2 82.5 27.5t30.5 71.5
q0 11 -3.5 20.5t-7 16t-14 15.5t-17.5 14t-24.5 17t-28.5 20q-57 43 -57 107q0 55 39 95q22 20 29.5 28t14 22t6.5 31q0 38 -28.5 59.5t-79.5 21.5q-54 0 -84 -25.5t-30 -69.5v-560h-185v64q0 8 7 8l43 4q14 1 14 15v473q0 85 61 135.5t171 50.5z" />
    <glyph glyph-name="agrave" unicode="&#xe0;" 
d="M319 562h-99l-139 162h132zM256 509q40 0 74.5 -10t62.5 -30.5t44 -55.5t16 -81v-244q0 -14 14 -15l59 -5v-68h-161q-6 0 -7 7l-5 54q-28 -33 -69.5 -52t-89.5 -19q-70 0 -113.5 40.5t-43.5 102.5q0 58 41.5 89t133.5 56l130 35v21q0 49 -27 71t-71 22q-49 0 -96 -23
q-8 -3 -9 -12l-5 -60h-58v123q0 4 2 6q34 20 82.5 33.5t95.5 14.5zM342 244l-105 -28q-50 -13 -69 -28t-19 -45q0 -32 23 -50.5t62 -18.5q67 0 105 51l3 3v116z" />
    <glyph glyph-name="aacute" unicode="&#xe1;" 
d="M309 562h-99l106 162h131zM256 509q40 0 74.5 -10t62.5 -30.5t44 -55.5t16 -81v-244q0 -14 14 -15l59 -5v-68h-161q-6 0 -7 7l-5 54q-28 -33 -69.5 -52t-89.5 -19q-70 0 -113.5 40.5t-43.5 102.5q0 58 41.5 89t133.5 56l130 35v21q0 49 -27 71t-71 22q-49 0 -96 -23
q-8 -3 -9 -12l-5 -60h-58v123q0 4 2 6q34 20 82.5 33.5t95.5 14.5zM342 244l-105 -28q-50 -13 -69 -28t-19 -45q0 -32 23 -50.5t62 -18.5q67 0 105 51l3 3v116z" />
    <glyph glyph-name="acircumflex" unicode="&#xe2;" 
d="M445 562h-98l-82 105l-82 -105h-99l112 162h138zM256 509q40 0 74.5 -10t62.5 -30.5t44 -55.5t16 -81v-244q0 -14 14 -15l59 -5v-68h-161q-6 0 -7 7l-5 54q-28 -33 -69.5 -52t-89.5 -19q-70 0 -113.5 40.5t-43.5 102.5q0 58 41.5 89t133.5 56l130 35v21q0 49 -27 71
t-71 22q-49 0 -96 -23q-8 -3 -9 -12l-5 -60h-58v123q0 4 2 6q34 20 82.5 33.5t95.5 14.5zM342 244l-105 -28q-50 -13 -69 -28t-19 -45q0 -32 23 -50.5t62 -18.5q67 0 105 51l3 3v116z" />
    <glyph glyph-name="atilde" unicode="&#xe3;" 
d="M359 682l65 -13q-2 -45 -24 -69.5t-58 -27.5q-25 -3 -61 10q-12 4 -37.5 15.5t-33.5 12.5q-6 0 -10.5 -1.5t-9.5 -6.5t-9 -13.5t-10 -22.5l-65 20q14 82 72 93q33 5 87 -18q43 -18 59 -14q20 3 35 35zM256 509q40 0 74.5 -10t62.5 -30.5t44 -55.5t16 -81v-244
q0 -14 14 -15l59 -5v-68h-161q-6 0 -7 7l-5 54q-28 -33 -69.5 -52t-89.5 -19q-70 0 -113.5 40.5t-43.5 102.5q0 58 41.5 89t133.5 56l130 35v21q0 49 -27 71t-71 22q-49 0 -96 -23q-8 -3 -9 -12l-5 -60h-58v123q0 4 2 6q34 20 82.5 33.5t95.5 14.5zM342 244l-105 -28
q-50 -13 -69 -28t-19 -45q0 -32 23 -50.5t62 -18.5q67 0 105 51l3 3v116z" />
    <glyph glyph-name="adieresis" unicode="&#xe4;" 
d="M170 693q24 0 40.5 -17t16.5 -40t-16.5 -40t-40.5 -17t-40.5 17t-16.5 40q0 11 4 21.5t11.5 18.5t18.5 12.5t23 4.5zM359.5 693q24.5 0 41 -17t16.5 -40t-16.5 -40t-41 -17t-41 17t-16.5 40t16.5 40t41 17zM256 509q40 0 74.5 -10t62.5 -30.5t44 -55.5t16 -81v-244
q0 -14 14 -15l59 -5v-68h-161q-6 0 -7 7l-5 54q-28 -33 -69.5 -52t-89.5 -19q-70 0 -113.5 40.5t-43.5 102.5q0 58 41.5 89t133.5 56l130 35v21q0 49 -27 71t-71 22q-49 0 -96 -23q-8 -3 -9 -12l-5 -60h-58v123q0 4 2 6q34 20 82.5 33.5t95.5 14.5zM342 244l-105 -28
q-50 -13 -69 -28t-19 -45q0 -32 23 -50.5t62 -18.5q67 0 105 51l3 3v116z" />
    <glyph glyph-name="aring" unicode="&#xe5;" 
d="M265 757q32 0 58 -15.5t41 -42t15 -57t-15 -56.5t-41 -42t-58 -16q-48 0 -81.5 34t-33.5 81t33.5 80.5t81.5 33.5zM265 701q-23 0 -39.5 -16.5t-16.5 -42t16.5 -42t39.5 -16.5t39.5 16.5t16.5 42t-16.5 42t-39.5 16.5zM256 509q40 0 74.5 -10t62.5 -30.5t44 -55.5t16 -81
v-244q0 -14 14 -15l59 -5v-68h-161q-6 0 -7 7l-5 54q-28 -33 -69.5 -52t-89.5 -19q-70 0 -113.5 40.5t-43.5 102.5q0 58 41.5 89t133.5 56l130 35v21q0 49 -27 71t-71 22q-49 0 -96 -23q-8 -3 -9 -12l-5 -60h-58v123q0 4 2 6q34 20 82.5 33.5t95.5 14.5zM342 244l-105 -28
q-50 -13 -69 -28t-19 -45q0 -32 23 -50.5t62 -18.5q67 0 105 51l3 3v116z" />
    <glyph glyph-name="ae" unicode="&#xe6;" horiz-adv-x="884" 
d="M614 510q119 0 176 -67t58 -186v-15q0 -10 -10 -10l-344 -9q6 -71 44.5 -111t98.5 -39q82 0 151 58l31 -75q-71 -66 -188 -66q-68 0 -121 28.5t-85 80.5l-5 -25q-91 -82 -210 -84q-77 0 -125 37.5t-48 105.5q0 58 41.5 89t133.5 56l130 35v21q-1 49 -27.5 71t-70.5 22
q-49 0 -96 -23q-8 -3 -9 -12l-5 -60h-58v123q0 4 2 6q34 20 82.5 33.5t95.5 14.5q60 0 106 -24.5t65 -76.5q29 48 77 75t110 27zM616 432q-53 0 -85 -36t-37 -102h230q10 0 8 12q-10 126 -116 126zM342 244l-105 -28q-50 -13 -69 -28t-19 -45q0 -32 23 -50.5t62 -18.5
q67 0 105 51l3 3v116z" />
    <glyph glyph-name="ccedilla" unicode="&#xe7;" horiz-adv-x="495" 
d="M274 -47q34 -7 53.5 -31t17.5 -53q-1 -23 -14.5 -42.5t-38 -31.5t-56.5 -12q-48 0 -86 28l16 49q23 -15 46 -16q11 -1 20.5 0.5t17 6t12.5 12.5t5 19q0 36 -47 40q-12 1 -32 -1l26 81q-81 24 -127.5 90.5t-46.5 157.5q0 114 71 187t190 73q84 0 146 -39q4 -2 3 -6v-141
h-69l-7 76q0 9 -8 12q-29 15 -65 15q-44 0 -77 -20t-51.5 -60.5t-18.5 -96.5q0 -85 40 -131t108 -46q63 -1 127 41l31 -76q-66 -48 -160 -48q-13 0 -26 1l-14 -36q2 0 6.5 -0.5t7.5 -1.5z" />
    <glyph glyph-name="egrave" unicode="&#xe8;" horiz-adv-x="546" 
d="M327 562h-99l-139 162h132zM276 510q119 0 176 -67t58 -186v-18q0 -7 -7 -7l-347 -9q6 -71 44.5 -111t98.5 -39q82 0 151 58l32 -75q-72 -66 -189 -66q-115 0 -184 73t-69 187q0 75 28.5 133.5t82.5 92.5t125 34zM278 432q-52 0 -84.5 -36t-37.5 -102h230q10 0 8 12
q-10 126 -116 126z" />
    <glyph glyph-name="eacute" unicode="&#xe9;" horiz-adv-x="546" 
d="M317 562h-99l106 162h131zM276 510q119 0 176 -67t58 -186v-18q0 -7 -7 -7l-347 -9q6 -71 44.5 -111t98.5 -39q82 0 151 58l32 -75q-72 -66 -189 -66q-76 0 -134 34t-88.5 92.5t-30.5 133.5q0 114 64.5 187t171.5 73zM278 432q-26 0 -47.5 -9t-37 -26.5t-25 -43.5
t-12.5 -59h230q10 0 8 12q-10 126 -116 126z" />
    <glyph glyph-name="ecircumflex" unicode="&#xea;" horiz-adv-x="546" 
d="M453 562h-98l-82 105l-82 -105h-99l112 162h138zM276 510q119 0 176 -67t58 -186v-18q0 -7 -7 -7l-347 -9q6 -71 44.5 -111t98.5 -39q82 0 151 58l32 -75q-72 -66 -189 -66q-76 0 -134 34t-88.5 92.5t-30.5 133.5q0 114 64.5 187t171.5 73zM278 432q-26 0 -47.5 -9
t-37 -26.5t-25 -43.5t-12.5 -59h230q10 0 8 12q-10 126 -116 126z" />
    <glyph glyph-name="edieresis" unicode="&#xeb;" horiz-adv-x="546" 
d="M178 693q24 0 40.5 -17t16.5 -40t-16.5 -40t-40.5 -17t-40.5 17t-16.5 40q0 11 4 21.5t11.5 18.5t18.5 12.5t23 4.5zM367.5 693q24.5 0 41 -17t16.5 -40t-16.5 -40t-41 -17t-41 17t-16.5 40t16.5 40t41 17zM276 510q119 0 176 -67t58 -186v-18q0 -7 -7 -7l-347 -9
q6 -71 44.5 -111t98.5 -39q82 0 151 58l32 -75q-72 -66 -189 -66q-115 0 -184 73t-69 187t64.5 187t171.5 73zM278 432q-52 0 -84.5 -36t-37.5 -102h230q10 0 8 12q-10 126 -116 126z" />
    <glyph glyph-name="igrave" unicode="&#xec;" horiz-adv-x="373" 
d="M232 562h-99l-139 162h132zM55 497l177 9q9 1 9 -8v-409q0 -15 14 -16l68 -5v-68h-268v61q0 7 7 7l54 5q14 1 14 16v323q0 15 -15 16l-60 3v66z" />
    <glyph glyph-name="iacute" unicode="&#xed;" horiz-adv-x="373" 
d="M222 562h-99l106 162h131zM55 497l177 9q9 1 9 -8v-409q0 -15 14 -16l68 -5v-68h-268v61q0 7 7 7l54 5q14 1 14 16v323q0 15 -15 16l-60 3v66z" />
    <glyph glyph-name="icircumflex" unicode="&#xee;" horiz-adv-x="373" 
d="M358 562h-98l-82 105l-82 -105h-99l112 162h138zM55 497l177 9q9 1 9 -8v-409q0 -15 14 -16l68 -5v-68h-268v61q0 7 7 7l54 5q14 1 14 16v323q0 15 -15 16l-60 3v66z" />
    <glyph glyph-name="idieresis" unicode="&#xef;" horiz-adv-x="373" 
d="M83 693q24 0 40.5 -17t16.5 -40t-16.5 -40t-40.5 -17q-16 0 -29.5 8t-20.5 21t-7 28q0 23 16.5 40t40.5 17zM272.5 693q24.5 0 41 -17t16.5 -40t-16.5 -40t-41 -17t-41 17t-16.5 40t16.5 40t41 17zM55 497l177 9q9 1 9 -8v-409q0 -15 14 -16l68 -5v-68h-268v61q0 7 7 7
l54 5q14 1 14 16v323q0 15 -15 16l-60 3v66z" />
    <glyph glyph-name="eth" unicode="&#xf0;" horiz-adv-x="535" 
d="M490 364q12 -157 -49 -260t-179 -112q-95 -8 -158.5 51.5t-71.5 160.5q-7 95 44 158.5t143 71.5q97 8 150 -61q-3 23 -8 45q-17 86 -72 144l-115 -61l-43 56l100 53q-66 43 -156 51l15 88q135 -5 240 -86l98 53l43 -57l-87 -46q17 -19 31 -39q66 -93 75 -210zM258 85
q51 4 83 48t38 117l-5 14q-13 44 -44.5 65.5t-75.5 18.5q-54 -5 -83.5 -43t-24.5 -98q4 -61 35 -93.5t77 -28.5z" />
    <glyph glyph-name="ntilde" unicode="&#xf1;" horiz-adv-x="700" 
d="M443 682l65 -13q-2 -45 -24 -69.5t-57 -27.5q-26 -3 -62 10q-12 4 -37.5 15.5t-32.5 12.5q-13 1 -21 -8t-19 -36l-65 20q14 82 72 93q33 5 87 -18q43 -18 60 -14q19 3 34 35zM434 509q44 0 77 -17t52 -53.5t19 -89.5v-261q0 -14 15 -15l64 -5v-68h-181q-8 0 -8 8v321
q0 98 -88 98q-67 0 -151 -53v-285q0 -15 15 -16l66 -5v-68h-267v61q0 7 7 7l54 5q15 1 15 16v323q0 15 -15 16l-61 3v66l178 9q8 1 8 -8v-63q48 34 101.5 54t99.5 20z" />
    <glyph glyph-name="ograve" unicode="&#xf2;" horiz-adv-x="601" 
d="M355 562h-99l-139 162h132zM300.5 510q118.5 0 189.5 -73t71 -187t-71 -187t-189.5 -73t-189.5 73t-71 187t71 187t189.5 73zM300.5 427q-66.5 0 -106.5 -46.5t-40 -130t40 -130.5t106.5 -47t106.5 47t40 130.5t-40 130t-106.5 46.5z" />
    <glyph glyph-name="oacute" unicode="&#xf3;" horiz-adv-x="601" 
d="M344 562h-98l105 162h132zM300.5 510q118.5 0 189.5 -73t71 -187t-71 -187t-189.5 -73t-189.5 73t-71 187t71 187t189.5 73zM300.5 427q-66.5 0 -106.5 -46.5t-40 -130t40 -130.5t106.5 -47t106.5 47t40 130.5t-40 130t-106.5 46.5z" />
    <glyph glyph-name="ocircumflex" unicode="&#xf4;" horiz-adv-x="601" 
d="M481 562h-98l-82 105l-82 -105h-99l111 162h139zM300 510q79 0 138.5 -34t91 -92.5t31.5 -133.5q0 -114 -71 -187t-189.5 -73t-189.5 73t-71 187t71 187t189 73zM300 427q-66 0 -106 -46.5t-40 -130t40 -130.5t106.5 -47t106.5 47t40 130q0 56 -18.5 96.5t-51.5 60.5
t-77 20z" />
    <glyph glyph-name="otilde" unicode="&#xf5;" horiz-adv-x="601" 
d="M394 682l66 -13q-1 -30 -12 -51.5t-28.5 -32.5t-41.5 -13q-25 -3 -61 10q-11 4 -26.5 10.5t-27 11.5t-17.5 6q-8 1 -14 -2.5t-12 -13t-13 -28.5l-66 20q15 82 73 93q33 5 87 -18q43 -18 59 -14q20 3 34 35zM300 510q79 0 138.5 -34t91 -92.5t31.5 -133.5q0 -114 -71 -187
t-189.5 -73t-189.5 73t-71 187t71 187t189 73zM300.5 427q-66.5 0 -106.5 -46.5t-40 -130t40 -130.5t106.5 -47t106.5 47t40 130.5t-40 130t-106.5 46.5z" />
    <glyph glyph-name="odieresis" unicode="&#xf6;" horiz-adv-x="601" 
d="M206 693q24 0 40.5 -17t16.5 -40t-16.5 -40t-41 -17t-41 17t-16.5 40q0 11 4.5 21.5t12 18.5t18 12.5t23.5 4.5zM395 693q24 0 41 -17t17 -40t-17 -40t-41 -17t-40.5 17t-16.5 40t16.5 40t40.5 17zM300 510q79 0 138.5 -34t91 -92.5t31.5 -133.5q0 -114 -71 -187
t-189.5 -73t-189.5 73t-71 187t71 187t189 73zM300 427q-66 0 -106 -46.5t-40 -130t40 -130.5t106.5 -47t106.5 47t40 130q0 42 -10.5 75.5t-30 56t-46.5 34t-60 11.5z" />
    <glyph glyph-name="divide" unicode="&#xf7;" 
d="M284 604q26 0 44 -19t18 -43q0 -16 -8 -30.5t-22.5 -23t-31.5 -8.5q-26 0 -44 18.5t-18 43.5q0 11 4.5 22.5t13 20t20 14t24.5 5.5zM527 299h-488v97h488v-97zM284 215q26 0 44 -18.5t18 -43t-18 -43.5t-44 -19t-44 19t-18 43.5t18 43t44 18.5z" />
    <glyph glyph-name="oslash" unicode="&#xf8;" horiz-adv-x="601" 
d="M443 550l-21 -65q66 -31 102.5 -93t36.5 -142q0 -114 -71 -187t-190 -73q-19 0 -38 2l-14 -42h-90l21 65q-66 31 -102.5 93t-36.5 142q0 114 71 187t189 73q20 0 39 -2l13 42h91zM154 250q0 -97 54 -145l105 322l-13 1q-43 0 -76 -20.5t-51.5 -61t-18.5 -96.5zM288 73h12
q67 0 107 47t40 130q0 97 -54 145z" />
    <glyph glyph-name="ugrave" unicode="&#xf9;" horiz-adv-x="693" 
d="M401 562h-99l-139 162h132zM40 499h181q8 0 8 -8v-321q0 -98 88 -98q67 0 150 53v286q0 14 -14 15l-67 6v67h184q8 0 8 -8v-404q0 -15 15 -16l61 -3v-66l-178 -9q-9 0 -9 8v63q-47 -33 -100.5 -53.5t-100.5 -20.5q-67 0 -107.5 40.5t-40.5 119.5v261q0 14 -14 15l-64 6
v67z" />
    <glyph glyph-name="uacute" unicode="&#xfa;" horiz-adv-x="693" 
d="M391 562h-99l106 162h131zM40 499h181q8 0 8 -8v-321q0 -98 88 -98q67 0 150 53v286q0 14 -14 15l-67 6v67h184q8 0 8 -8v-404q0 -15 15 -16l61 -3v-66l-178 -9q-9 0 -9 8v63q-47 -33 -100.5 -53.5t-100.5 -20.5q-44 0 -76.5 17t-52 53.5t-19.5 89.5v261q0 14 -14 15
l-64 6v67z" />
    <glyph glyph-name="ucircumflex" unicode="&#xfb;" horiz-adv-x="693" 
d="M527 562h-98l-82 105l-82 -105h-99l111 162h139zM40 499h181q8 0 8 -8v-321q0 -98 88 -98q67 0 150 53v286q0 14 -14 15l-67 6v67h184q8 0 8 -8v-404q0 -15 15 -16l61 -3v-66l-178 -9q-9 0 -9 8v63q-47 -33 -100.5 -53.5t-100.5 -20.5q-67 0 -107.5 40.5t-40.5 119.5v261
q0 14 -14 15l-64 6v67z" />
    <glyph glyph-name="udieresis" unicode="&#xfc;" horiz-adv-x="693" 
d="M252 693q24 0 40.5 -17t16.5 -40t-16.5 -40t-41 -17t-40.5 17t-16 40q0 11 4 21.5t11.5 18.5t18.5 12.5t23 4.5zM441.5 693q24.5 0 41 -17t16.5 -40t-16.5 -40t-41 -17t-41 17t-16.5 40t16.5 40t41 17zM40 499h181q8 0 8 -8v-321q0 -98 88 -98q67 0 150 53v286
q0 14 -14 15l-67 6v67h184q8 0 8 -8v-404q0 -15 15 -16l61 -3v-66l-178 -9q-9 0 -9 8v63q-47 -33 -100.5 -53.5t-100.5 -20.5q-67 0 -107.5 40.5t-40.5 119.5v261q0 14 -14 15l-64 6v67z" />
    <glyph glyph-name="yacute" unicode="&#xfd;" horiz-adv-x="574" 
d="M332 562h-98l105 162h132zM559 432l-50 -4l-251 -630q-2 -5 -7 -5h-186v68l121 9q9 2 12 10l47 118h-19l-162 422q-4 8 -12 9l-31 3q-7 1 -7 8v60h138l138 -390l116 293q2 6 1 11t-5 9t-11 4l-56 5q-7 0 -7 8v60h231v-68z" />
    <glyph glyph-name="thorn" unicode="&#xfe;" horiz-adv-x="642" 
d="M55 740l177 10q9 0 9 -9v-290q59 59 147 59q63 0 110.5 -28.5t75 -88.5t27.5 -145q0 -38 -6.5 -73.5t-22 -69.5t-39 -59t-60 -40t-82.5 -15q-93 0 -150 62v-171q0 -14 14 -16l67 -5v-68h-267v60q0 8 7 8l54 5q14 2 14 15v774q0 15 -15 16l-60 3v66zM341 425
q-64 0 -100 -46v-244q38 -62 111 -62q63 0 99.5 46.5t36.5 129t-40.5 129t-106.5 47.5z" />
    <glyph glyph-name="ydieresis" unicode="&#xff;" horiz-adv-x="574" 
d="M193 693q24 0 41 -17t17 -40t-17 -40t-41 -17t-40.5 17t-16.5 40q0 11 4.5 21.5t12 18.5t18 12.5t22.5 4.5zM383 693q24 0 40.5 -17t16.5 -40t-16.5 -40t-40.5 -17t-40.5 17t-16.5 40t16.5 40t40.5 17zM559 432l-50 -4l-251 -630q-2 -5 -7 -5h-186v68l121 9q9 2 12 10
l47 118h-19l-162 422q-3 8 -12 9l-31 3q-7 1 -7 8v60h138l138 -390l116 293q4 9 -0.5 16t-14.5 8l-56 5q-7 0 -7 8v60h231v-68z" />
    <glyph glyph-name="Amacron" unicode="&#x100;" horiz-adv-x="792" 
d="M555 785h-317v81h317v-81zM712 77l59 -5v-72h-277v64q0 7 7 8l57 5q9 0 13.5 7.5t1.5 15.5l-40 99h-298l-49 -121l83 -6v-72h-247v65q0 7 7 7l43 4q9 1 12 9l248 611l121 7zM271 295h226l-112 283z" />
    <glyph glyph-name="amacron" unicode="&#x101;" 
d="M423 585h-317v81h317v-81zM256 509q40 0 74.5 -10t62.5 -30.5t44 -55.5t16 -81v-244q0 -14 14 -15l59 -5v-68h-161q-6 0 -7 7l-5 54q-28 -33 -69.5 -52t-89.5 -19q-70 0 -113.5 40.5t-43.5 102.5q0 58 41.5 89t133.5 56l130 35v21q0 49 -27 71t-71 22q-49 0 -96 -23
q-8 -3 -9 -12l-5 -60h-58v123q0 4 2 6q34 20 82.5 33.5t95.5 14.5zM342 244l-105 -28q-50 -13 -69 -28t-19 -45q0 -32 23 -50.5t62 -18.5q67 0 105 51l3 3v116z" />
    <glyph glyph-name="Abreve" unicode="&#x102;" horiz-adv-x="792" 
d="M478 910h72q0 -63 -44.5 -107t-109.5 -44q-42 0 -77.5 20.5t-55.5 55t-20 75.5h72q0 -36 24 -60.5t57.5 -24.5t57.5 24.5t24 60.5zM712 77l59 -5v-72h-277v64q0 7 7 8l57 5q9 0 13.5 7.5t1.5 15.5l-40 99h-298l-49 -121l83 -6v-72h-247v65q0 7 7 7l43 4q9 1 12 9l248 611
l121 7zM271 295h226l-112 283z" />
    <glyph glyph-name="abreve" unicode="&#x103;" 
d="M346 710h72q0 -63 -44 -107t-109 -44q-43 0 -78.5 20.5t-55 55t-19.5 75.5h71q0 -24 11.5 -43.5t30 -30.5t40.5 -11t40.5 11t29.5 30.5t11 43.5zM256 509q32 0 60 -6t53.5 -19.5t43.5 -34t29 -50.5t11 -67v-244q0 -14 14 -15l59 -5v-68h-161q-6 0 -7 7l-5 54
q-28 -33 -69.5 -52t-89.5 -19q-70 0 -113.5 40.5t-43.5 102.5q0 58 41.5 89t133.5 56l130 35v21q0 49 -27 71t-71 22q-49 0 -96 -23q-8 -3 -9 -12l-5 -60h-58v123q0 4 2 6q34 20 82.5 33.5t95.5 14.5zM342 244l-105 -28q-50 -13 -69 -28t-19 -45q0 -32 23 -50.5t62 -18.5
q67 0 105 51l3 3v116z" />
    <glyph glyph-name="Aogonek" unicode="&#x104;" horiz-adv-x="792" 
d="M712 77l59 -5v-72h-210q-46 -33 -47 -82q0 -18 7 -31t19 -19.5t28 -6.5q18 -1 49 13l16 -58q-46 -22 -87 -22q-46 0 -73 25t-30 64q-5 65 51 117v64q0 7 7 8l57 5q6 0 10.5 3.5t5.5 8.5t-1 11l-40 99h-298l-49 -121l83 -6v-72h-247v65q0 7 7 7l43 4q9 1 12 9l248 611
l121 7zM271 295h226l-112 283z" />
    <glyph glyph-name="aogonek" unicode="&#x105;" 
d="M256 509q40 0 74.5 -10t62.5 -30.5t44 -55.5t16 -81v-244q0 -14 14 -15l59 -5v-68h-108q-47 -33 -47 -82q0 -27 14.5 -42t38.5 -15q19 -1 49 13l16 -58q-46 -22 -87 -22q-45 0 -72.5 25t-30.5 64q-2 32 13 65t46 59l-5 54q-28 -33 -69.5 -52t-89.5 -19q-70 0 -113.5 40.5
t-43.5 102.5q0 58 41.5 89t133.5 56l130 35v21q0 49 -27 71t-71 22q-49 0 -96 -23q-8 -3 -9 -12l-5 -60h-58v123q0 4 2 6q34 20 82.5 33.5t95.5 14.5zM342 244l-105 -28q-50 -13 -69 -28t-19 -45q0 -32 23 -50.5t62 -18.5q67 0 105 51l3 3v116z" />
    <glyph glyph-name="Cacute" unicode="&#x106;" horiz-adv-x="647" 
d="M412 762h-98l105 162h132zM392 708q119 0 206 -61q3 -2 3 -6v-144h-70l-6 72q0 8 -7 11q-59 32 -126 32q-66 0 -115.5 -30.5t-77.5 -90t-28 -141.5q0 -125 62.5 -194t165.5 -68q97 0 181 61l35 -83q-91 -75 -223 -75q-155 0 -250.5 100t-95.5 259q0 104 43 185.5t122 127
t181 45.5z" />
    <glyph glyph-name="cacute" unicode="&#x107;" horiz-adv-x="495" 
d="M320 562h-98l105 162h132zM300 510q85 0 147 -39q4 -2 3 -6v-141h-69l-7 76q0 9 -8 12q-29 15 -65 15q-67 0 -107 -46.5t-40 -130.5q0 -85 40 -131t108 -46q64 -1 127 41l31 -76q-66 -48 -160 -48q-118 0 -189 73t-71 187t71 187t189 73z" />
    <glyph glyph-name="Cdotaccent" unicode="&#x10a;" horiz-adv-x="647" 
d="M368 893q24 0 41 -17t17 -40t-17 -40t-41 -17q-16 0 -29 8t-20.5 21t-7.5 28q0 23 16.5 40t40.5 17zM392 708q119 0 206 -61q3 -2 3 -6v-144h-70l-6 72q0 8 -7 11q-59 32 -126 32q-66 0 -115.5 -30.5t-77.5 -90t-28 -141.5q0 -125 62.5 -194t165.5 -68q97 0 181 61
l35 -83q-91 -75 -223 -75q-155 0 -250.5 100t-95.5 259q0 104 43 185.5t122 127t181 45.5z" />
    <glyph glyph-name="cdotaccent" unicode="&#x10b;" horiz-adv-x="495" 
d="M281 693q24 0 40.5 -17t16.5 -40t-16.5 -40t-40.5 -17q-16 0 -29.5 8t-20.5 21t-7 28q0 7 2 14.5t5.5 13.5t8.5 11.5t11.5 9.5t14 6t15.5 2zM300 510q85 0 147 -39q4 -2 3 -6v-141h-69l-7 76q0 9 -8 12q-29 15 -66 15q-43 0 -76 -20t-51.5 -60.5t-18.5 -96.5
q0 -85 40 -131t108 -46q64 -1 127 41l31 -76q-66 -48 -160 -48q-118 0 -189 73t-71 187t71 187t189 73z" />
    <glyph glyph-name="Ccaron" unicode="&#x10c;" horiz-adv-x="647" 
d="M438 762h-139l-111 162h99l82 -104l82 104h98zM392 708q119 0 206 -61q3 -2 3 -6v-144h-70l-6 72q0 8 -7 11q-59 32 -126 32q-66 0 -115.5 -30.5t-77.5 -90t-28 -141.5q0 -125 62.5 -194t165.5 -68q97 0 181 61l35 -83q-91 -75 -223 -75q-155 0 -250.5 100t-95.5 259
q0 104 43 185.5t122 127t181 45.5z" />
    <glyph glyph-name="ccaron" unicode="&#x10d;" horiz-adv-x="495" 
d="M346 562h-139l-111 162h99l82 -104l82 104h98zM300 510q85 0 147 -39q4 -2 3 -6v-141h-69l-7 76q0 9 -8 12q-29 15 -66 15q-43 0 -76 -20t-51.5 -60.5t-18.5 -96.5q0 -85 40 -131t108 -46q64 -1 127 41l31 -76q-66 -48 -160 -48q-118 0 -189 73t-71 187t71 187t189 73z
" />
    <glyph glyph-name="Dcaron" unicode="&#x10e;" horiz-adv-x="751" 
d="M445 762h-138l-112 162h99l82 -104l82 104h98zM55 700h307q155 0 250.5 -96.5t95.5 -254t-95 -253.5t-251 -96h-307v64q0 8 7 8l57 5q14 1 14 15v516q0 14 -14 15l-57 5q-7 0 -7 8v64zM302 603l-49 -3v-500l49 -3h60q102 0 161.5 65.5t59.5 187t-59.5 187.5t-161.5 66
h-60z" />
    <glyph glyph-name="dcaron" unicode="&#x10f;" horiz-adv-x="698" 
d="M635 750q34 0 47 -30.5t2 -74.5q-11 -47 -42 -89l-43 13q14 30 20 54q4 19 1 33h-2q-14 5 -23 17.5t-9 27.5q0 19 14.5 34t34.5 15zM325 740l178 10q8 0 8 -8v-654q0 -14 15 -15l59 -5v-68h-161q-7 0 -8 7l-4 53q-62 -70 -158 -70q-63 0 -110.5 28.5t-75.5 88.5t-28 145
q0 38 6.5 73.5t22 69.5t39 59t60 40.5t82.5 15.5q93 0 151 -63v209q0 15 -15 15l-61 3v66zM289 427q-31 0 -56 -11.5t-42.5 -34t-27 -55.5t-9.5 -74q0 -83 40 -129.5t106 -47.5q64 0 100 46l1 244q-38 62 -112 62z" />
    <glyph glyph-name="Dcroat" unicode="&#x110;" horiz-adv-x="751" 
d="M55 700h307q103 0 181.5 -43.5t121.5 -123t43 -183.5q0 -158 -95 -254t-251 -96h-307v64q0 8 7 8l57 5q14 1 14 15v210h-94v96h94v210q0 14 -14 15l-57 5q-7 0 -7 8v64zM304 97h58q102 0 161.5 65.5t59.5 187t-59.5 187.5t-161.5 66h-58l-51 -3v-202h114v-96h-114v-202z
" />
    <glyph glyph-name="dcroat" unicode="&#x111;" horiz-adv-x="632" 
d="M511 575v-487q0 -14 15 -15l59 -5v-68h-161q-7 0 -8 7l-4 53q-62 -70 -158 -70q-97 0 -155.5 67.5t-58.5 194.5q0 31 5 61t14.5 59.5t26.5 54t39.5 43.5t54.5 29.5t70 10.5q93 0 151 -63v128h-129v80h129v89l102 6q8 0 8 -9v-86h79v-80h-79zM400 121l1 244
q-38 62 -112 62q-62 0 -98.5 -46.5t-36.5 -129t40 -129t106 -47.5q64 0 100 46z" />
    <glyph glyph-name="Emacron" unicode="&#x112;" horiz-adv-x="592" 
d="M474 785h-318v81h318v-81zM55 700h483q8 0 8 -8v-172h-70l-5 69q-1 14 -16 14h-202v-204h203v-91h-203v-211h220q14 0 15 14l6 69h70v-172q0 -8 -8 -8h-501v64q0 8 7 8l57 5q14 1 14 15v516q0 14 -14 15l-57 5q-7 0 -7 8v64z" />
    <glyph glyph-name="emacron" unicode="&#x113;" horiz-adv-x="546" 
d="M435 585h-317v81h317v-81zM276 510q119 0 176 -67t58 -186v-18q0 -7 -7 -7l-347 -9q6 -71 44.5 -111t98.5 -39q82 0 151 58l32 -75q-72 -66 -189 -66q-115 0 -184 73t-69 187t64.5 187t171.5 73zM278 432q-52 0 -84.5 -36t-37.5 -102h230q10 0 8 12q-10 126 -116 126z
" />
    <glyph glyph-name="Edotaccent" unicode="&#x116;" horiz-adv-x="592" 
d="M315 893q24 0 40.5 -17t16.5 -40t-16.5 -40t-40.5 -17q-16 0 -29.5 8t-20.5 21t-7 28q0 23 16.5 40t40.5 17zM55 700h483q8 0 8 -8v-172h-70l-5 69q-1 14 -16 14h-202v-204h203v-91h-203v-211h220q14 0 15 14l6 69h70v-172q0 -8 -8 -8h-501v64q0 8 7 8l57 5q14 1 14 15
v516q0 14 -14 15l-57 5q-7 0 -7 8v64z" />
    <glyph glyph-name="edotaccent" unicode="&#x117;" horiz-adv-x="546" 
d="M276 693q25 0 41.5 -17t16.5 -40t-16.5 -40t-41.5 -17q-12 0 -22.5 4.5t-18 12.5t-12 18.5t-4.5 21.5q0 7 2 14.5t5.5 13.5t9 11.5t11.5 9.5t13.5 6t15.5 2zM276 510q119 0 176 -67t58 -186v-18q0 -7 -7 -7l-347 -9q6 -71 44.5 -111t98.5 -39q82 0 151 58l32 -75
q-72 -66 -189 -66q-115 0 -184 73t-69 187q0 75 28.5 133.5t82.5 92.5t125 34zM278 432q-52 0 -84.5 -36t-37.5 -102h230q10 0 8 12q-10 126 -116 126z" />
    <glyph glyph-name="Eogonek" unicode="&#x118;" horiz-adv-x="592" 
d="M55 700h483q8 0 8 -8v-172h-70l-5 69q-1 14 -16 14h-202v-204h203v-91h-203v-211h220q14 0 15 14l6 69h70v-172q0 -8 -8 -8h-60q-47 -33 -48 -82q0 -27 15 -42t39 -15q18 -1 49 13l16 -58q-46 -22 -87 -22q-46 0 -73 25t-30 64q-5 65 51 117h-373v64q0 8 7 8l57 5
q14 1 14 15v516q0 14 -14 15l-57 5q-7 0 -7 8v64z" />
    <glyph glyph-name="eogonek" unicode="&#x119;" horiz-adv-x="546" 
d="M276 510q119 0 176 -67t58 -186v-18q0 -7 -7 -7l-347 -9q6 -71 44.5 -111t98.5 -39q82 0 151 58l32 -75q-29 -27 -69 -43q-67 -36 -67 -95q0 -27 14.5 -42t38.5 -15q19 -1 49 13l17 -58q-46 -22 -88 -22q-18 0 -34 4.5t-28 12.5t-21 19.5t-13.5 24.5t-6.5 28
q-4 60 43 109q-25 -2 -38 -1q-109 4 -174 76t-65 183q0 114 64.5 187t171.5 73zM278 432q-35 0 -61 -16t-42 -47t-19 -75h230q10 0 8 12q-10 126 -116 126z" />
    <glyph glyph-name="Ecaron" unicode="&#x11a;" horiz-adv-x="592" 
d="M384 762h-138l-112 162h99l82 -104l82 104h99zM55 700h483q8 0 8 -8v-172h-70l-5 69q-1 14 -16 14h-202v-204h203v-91h-203v-211h220q14 0 15 14l6 69h70v-172q0 -8 -8 -8h-501v64q0 8 7 8l57 5q14 1 14 15v516q0 14 -14 15l-57 5q-7 0 -7 8v64z" />
    <glyph glyph-name="ecaron" unicode="&#x11b;" horiz-adv-x="546" 
d="M346 562h-139l-111 162h99l82 -104l82 104h98zM276 510q119 0 176 -67t58 -186v-18q0 -7 -7 -7l-347 -9q6 -71 44.5 -111t98.5 -39q82 0 151 58l32 -75q-72 -66 -189 -66q-115 0 -184 73t-69 187q0 75 28.5 133.5t82.5 92.5t125 34zM278 432q-52 0 -84.5 -36t-37.5 -102
h230q10 0 8 12q-10 126 -116 126z" />
    <glyph glyph-name="Gbreve" unicode="&#x11e;" horiz-adv-x="703" 
d="M452 910h72q0 -63 -44.5 -107t-109 -44t-109 44t-44.5 107h72q0 -36 24 -60.5t57 -24.5q22 0 41 11t30 30.5t11 43.5zM392 709q117 0 228 -59q4 -2 4 -6v-147h-70l-6 68q0 9 -8 12q-77 35 -148 35q-47 -1 -87 -17t-70 -47.5t-47 -82t-17 -115.5q0 -123 60 -192.5
t161 -69.5q97 0 154 60v105q0 15 -15 16l-132 7v74h243q8 0 8 -8v-342h-71l-7 56q-84 -65 -199 -65q-147 0 -237 100t-90 259q0 87 27.5 156.5t75.5 113t110 66.5t133 23z" />
    <glyph glyph-name="gbreve" unicode="&#x11f;" horiz-adv-x="574" 
d="M363 710h71q0 -63 -44 -107t-109 -44q-43 0 -78 20.5t-55 55t-20 75.5h72q0 -24 11 -43.5t29.5 -30.5t40.5 -11t40.5 11t30 30.5t11.5 43.5zM535 446l-88 -7q46 -38 46 -104q0 -81 -57 -128t-153 -47q-42 0 -77 10q-36 -11 -36 -34q0 -27 28 -37.5t95 -10.5
q220 0 220 -151q0 -77 -64.5 -121t-174.5 -44q-53 0 -98 11.5t-76 32t-48.5 49.5t-17.5 62q0 38 24.5 69t67.5 52q-50 21 -50 66q0 52 72 81q-74 46 -74 140q0 80 56.5 127.5t152.5 47.5h252v-64zM283.5 439q-31.5 0 -53.5 -11t-33.5 -34.5t-11.5 -58.5q0 -52 25.5 -78.5
t73 -26.5t73 26.5t25.5 78.5q0 35 -12 58.5t-33.5 34.5t-53 11zM242 17l-10 -2q-47 -9 -73 -31t-26 -53q0 -38 38 -61.5t102 -23.5q43 0 75 10.5t49 30t17 44.5q0 85 -142 85q-4 0 -30 1z" />
    <glyph glyph-name="Gdotaccent" unicode="&#x120;" horiz-adv-x="703" 
d="M370 893q24 0 41 -17t17 -40t-17 -40t-41 -17q-16 0 -29 8t-20.5 21t-7.5 28q0 11 4.5 21.5t12 18.5t18 12.5t22.5 4.5zM392 709q117 0 228 -59q4 -2 4 -6v-147h-70l-5 68q-1 9 -9 12q-77 35 -148 35q-98 -1 -159.5 -68t-61.5 -194q0 -123 60 -192.5t161 -69.5
q97 0 154 60v105q0 15 -15 16l-132 7v74h243q8 0 8 -8v-342h-71l-7 56q-84 -65 -199 -65q-147 0 -237 100t-90 259q0 87 27.5 156.5t75.5 113t110 66.5t133 23z" />
    <glyph glyph-name="gdotaccent" unicode="&#x121;" horiz-adv-x="574" 
d="M281 693q24 0 40.5 -17t16.5 -40t-16.5 -40t-40.5 -17q-16 0 -29.5 8t-20.5 21t-7 28q0 23 16.5 40t40.5 17zM535 446l-88 -7q46 -38 46 -104q0 -81 -57 -128t-153 -47q-42 0 -77 10q-36 -11 -36 -34q0 -27 28 -37.5t95 -10.5q220 0 220 -151q0 -77 -64.5 -121
t-174.5 -44q-71 0 -126 20t-84.5 55t-29.5 80q0 38 24.5 69t67.5 52q-50 21 -50 66q0 52 73 81q-75 46 -75 140q0 80 56.5 127.5t152.5 47.5h252v-64zM283.5 439q-47.5 0 -73 -26t-25.5 -78t25.5 -78.5t73 -26.5t73 26.5t25.5 78.5t-25.5 78t-73 26zM242 17l-10 -2
q-47 -9 -73 -31t-26 -53q0 -38 38 -61.5t102 -23.5t102.5 23.5t38.5 61.5q0 85 -142 85q-4 0 -30 1z" />
    <glyph glyph-name="Gcommaaccent" unicode="&#x122;" horiz-adv-x="703" 
d="M392 709q117 0 228 -59q4 -2 4 -6v-147h-70l-5 68q-1 9 -9 12q-77 35 -148 35q-98 -1 -159.5 -68t-61.5 -194q0 -123 60 -192.5t161 -69.5q97 0 154 60v105q0 15 -15 16l-132 7v74h243q8 0 8 -8v-342h-71l-7 56q-84 -65 -199 -65q-147 0 -237 100t-90 259
q0 87 27.5 156.5t75.5 113t110 66.5t133 23zM347 -41q34 0 47.5 -30.5t2.5 -74.5q-11 -46 -43 -89l-43 14q15 28 20 53q4 20 1 33h-1q-15 5 -23.5 17.5t-8.5 27.5q0 12 6 23.5t17.5 18.5t24.5 7z" />
    <glyph glyph-name="gcommaaccent" unicode="&#x123;" horiz-adv-x="574" 
d="M281 761l43 -14q-15 -29 -20 -53q-4 -20 -1 -34h1q14 -5 23 -17.5t9 -27.5q0 -19 -14 -33.5t-34 -14.5q-34 0 -47.5 30.5t-2.5 74.5q11 47 43 89zM535 446l-88 -7q46 -38 46 -104q0 -81 -57 -128t-153 -47q-42 0 -77 10q-36 -11 -36 -34q0 -18 13 -29t39 -15t71 -4
q220 0 220 -151q0 -77 -64.5 -121t-174.5 -44q-71 0 -126 20t-84.5 55t-29.5 80q0 38 24.5 69t67.5 52q-50 21 -50 66q0 52 73 80q-75 47 -75 141q0 80 56.5 127.5t152.5 47.5h252v-64zM283 439q-47 0 -72.5 -26t-25.5 -78t25.5 -78.5t73 -26.5t73 26.5t25.5 78.5
q0 35 -12 58.5t-33.5 34.5t-53.5 11zM242 17l-10 -2q-47 -9 -73 -31t-26 -53q0 -38 38 -61.5t102 -23.5t102.5 23.5t38.5 61.5q0 85 -142 85q-4 0 -30 1z" />
    <glyph glyph-name="Hbar" unicode="&#x126;" horiz-adv-x="858" 
d="M724 495v-403q0 -14 14 -15l65 -5v-72h-284v64q0 8 8 8l63 6q14 1 14 15v215h-350v-215q0 -14 14 -15l70 -6v-72h-283v64q0 8 7 8l57 5q15 1 15 15v403h-134v58h134v55q0 14 -15 15l-57 5q-7 0 -7 8v64h283v-72l-70 -6q-14 -1 -14 -15v-54h350v54q0 14 -14 15l-63 6
q-8 0 -8 8v64h284v-72l-65 -5q-14 -1 -14 -15v-55h134v-58h-134zM604 495h-350v-90h350v90z" />
    <glyph glyph-name="hbar" unicode="&#x127;" horiz-adv-x="708" 
d="M669 68v-68h-182q-8 0 -8 8v321q0 98 -88 98q-66 0 -150 -53v-285q0 -15 14 -16l67 -5v-68h-267v61q0 7 7 7l54 5q14 1 14 16v472h-130v55h130v40q0 15 -14 15l-61 3v66l178 10q8 0 8 -8v-126h156v-55h-156v-126q48 34 101.5 54t99.5 20q33 0 59.5 -9.5t46.5 -29
t31 -50.5t11 -71v-261q0 -14 15 -15z" />
    <glyph glyph-name="Itilde" unicode="&#x128;" horiz-adv-x="388" 
d="M288 882l65 -13q-1 -45 -23 -69.5t-58 -27.5q-25 -3 -61 10q-12 4 -37.5 15.5t-33.5 12.5q-12 1 -20.5 -8t-18.5 -36l-66 20q15 82 73 93q32 5 87 -18q42 -18 59 -14q20 3 34 35zM333 628l-65 -5q-14 -1 -14 -16v-514q0 -15 14 -16l65 -5v-72h-278v64q0 8 7 8l58 5
q14 1 14 16v514q0 15 -14 16l-58 5q-7 0 -7 8v64h278v-72z" />
    <glyph glyph-name="itilde" unicode="&#x129;" horiz-adv-x="373" 
d="M272 682l65 -13q-2 -45 -24 -69.5t-58 -27.5q-25 -3 -61 10q-12 4 -37.5 15.5t-33.5 12.5q-12 1 -20 -8t-19 -35l-65 19q14 82 72 93q33 5 87 -18q43 -18 59 -14q20 3 35 35zM55 497l177 9q9 1 9 -8v-409q0 -15 14 -16l68 -5v-68h-268v61q0 7 7 7l54 5q14 1 14 16v323
q0 15 -15 16l-60 3v66z" />
    <glyph glyph-name="Imacron" unicode="&#x12a;" horiz-adv-x="388" 
d="M353 785h-317v81h317v-81zM333 628l-65 -5q-14 -1 -14 -16v-514q0 -15 14 -16l65 -5v-72h-278v64q0 8 7 8l58 5q14 1 14 16v514q0 15 -14 16l-58 5q-7 0 -7 8v64h278v-72z" />
    <glyph glyph-name="imacron" unicode="&#x12b;" horiz-adv-x="373" 
d="M336 585h-317v81h317v-81zM55 497l177 9q9 1 9 -8v-409q0 -15 14 -16l68 -5v-68h-268v61q0 7 7 7l54 5q14 1 14 16v323q0 15 -15 16l-60 3v66z" />
    <glyph glyph-name="Iogonek" unicode="&#x12e;" horiz-adv-x="388" 
d="M333 628l-65 -5q-14 -1 -14 -16v-514q0 -15 14 -16l65 -5v-72h-28q-48 -33 -48 -83q-1 -18 6 -30.5t19 -19t28 -6.5q20 -1 49 12l16 -57q-45 -23 -87 -23q-46 0 -73 25.5t-30 64.5q-5 65 52 117h-182v64q0 8 7 8l58 5q14 1 14 16v514q0 15 -14 16l-58 5q-7 0 -7 8v64h278
v-72z" />
    <glyph glyph-name="iogonek" unicode="&#x12f;" horiz-adv-x="373" 
d="M177.5 693q24.5 0 41 -17t16.5 -40t-16.5 -40t-41 -17t-40.5 17t-16 40t16 40t40.5 17zM55 497l177 9q9 1 9 -8v-409q0 -15 14 -16l68 -5v-68h-27q-48 -33 -48 -83q0 -27 14.5 -42t38.5 -15q19 -1 49 13l16 -57q-45 -23 -87 -23q-30 0 -53 12t-35.5 32.5t-14.5 45.5
q-4 65 52 117h-173v61q0 7 7 7l54 5q14 1 14 16v323q0 15 -15 16l-60 3v66z" />
    <glyph glyph-name="Idotaccent" unicode="&#x130;" horiz-adv-x="388" 
d="M194 893q24 0 41 -17t17 -40t-17 -40t-41 -17q-12 0 -22.5 4.5t-18 12.5t-12 18.5t-4.5 21.5q0 23 16.5 40t40.5 17zM333 628l-65 -5q-14 -1 -14 -16v-514q0 -15 14 -16l65 -5v-72h-278v64q0 8 7 8l58 5q14 1 14 16v514q0 15 -14 16l-58 5q-7 0 -7 8v64h278v-72z" />
    <glyph glyph-name="dotlessi" unicode="&#x131;" horiz-adv-x="373" 
d="M55 497l177 9q9 1 9 -8v-409q0 -15 14 -16l68 -5v-68h-268v61q0 7 7 7l54 5q14 1 14 16v323q0 15 -15 16l-60 3v66z" />
    <glyph glyph-name="IJ" unicode="&#x132;" horiz-adv-x="780" 
d="M333 628l-65 -5q-14 -1 -14 -16v-514q0 -15 14 -16l65 -5v-72h-278v64q0 8 7 8l58 5q14 1 14 16v514q0 15 -14 16l-58 5q-7 0 -7 8v64h278v-72zM726 628l-65 -5q-14 -1 -14 -15v-570q0 -97 -56 -164t-157 -89l-24 65q54 21 85 70.5t31 117.5v569q0 14 -14 15l-63 6
q-7 0 -7 8v64h284v-72z" />
    <glyph glyph-name="ij" unicode="&#x133;" horiz-adv-x="655" 
d="M537.5 728q25.5 0 44 -18t18.5 -44t-18.5 -44t-44 -18t-44 18t-18.5 44t18.5 44t44 18zM180 727q26 0 44 -18t18 -43.5t-18 -44t-43.5 -18.5t-44 18.5t-18.5 43.5q0 17 8.5 31.5t22.5 22.5t31 8zM411 498l179 9q8 0 8 -8v-576q0 -59 -38.5 -94.5t-102.5 -35.5
q-63 0 -101 33l25 60q22 -12 47 -12q27 0 43 14.5t16 44.5v480q0 15 -15 15l-61 4v66zM55 497l177 9q9 1 9 -8v-409q0 -15 14 -16l68 -5v-68h-268v61q0 7 7 7l54 5q14 1 14 16v323q0 15 -15 16l-60 3v66z" />
    <glyph glyph-name="Kcommaaccent" unicode="&#x136;" horiz-adv-x="761" 
d="M718 628l-68 -5l-219 -239l218 -300q4 -5 10 -6l73 -6q7 0 7 -8v-64h-176l-210 298l-100 -108v-97q0 -14 15 -15l70 -6v-72h-283v64q0 8 7 8l57 5q14 1 14 15v516q0 14 -14 15l-57 5q-7 0 -7 8v64h280v-72l-67 -5q-15 -2 -15 -16v-290l247 275q8 9 5.5 19.5t-12.5 13.5
l-29 2q-6 2 -6 8v65h260v-72zM378 -41q34 0 47 -30.5t2 -74.5q-11 -46 -42 -89l-43 14q14 28 20 53q4 20 1 33h-2q-14 5 -23 17.5t-9 27.5q0 12 6.5 23.5t17.5 18.5t25 7z" />
    <glyph glyph-name="kcommaaccent" unicode="&#x137;" horiz-adv-x="640" 
d="M55 740l177 10q9 0 9 -9v-466l161 135q6 5 4 11.5t-10 7.5l-27 3q-8 0 -8 8v60h246v-68l-62 -5l-157 -127l164 -222q4 -4 9 -5l65 -5v-68h-151q-6 0 -8 5l-150 240l-76 -61v-97q0 -14 14 -15l52 -4v-68h-251v61q0 7 7 7l53 5q14 1 14 15v568q0 14 -15 15l-60 3v66z
M318 -41q34 0 47 -30.5t2 -74.5q-11 -46 -42 -89l-43 14q14 28 20 53q4 20 1 33h-2q-14 5 -23 17.5t-9 27.5q0 12 6.5 23.5t17.5 18.5t25 7z" />
    <glyph glyph-name="Lacute" unicode="&#x139;" horiz-adv-x="578" 
d="M333 762h-99l106 162h131zM338 628l-70 -6q-15 -1 -15 -15v-510h208q14 0 15 14l6 69h70v-172q0 -8 -8 -8h-489v64q0 8 7 8l57 5q14 1 14 15v516q0 14 -14 15l-57 5q-7 0 -7 8v64h283v-72z" />
    <glyph glyph-name="lacute" unicode="&#x13a;" horiz-adv-x="363" 
d="M225 805h-98l105 163h132zM55 740l177 10q9 0 9 -9v-652q0 -15 14 -16l68 -5v-68h-267v61q0 7 7 7l53 5q14 1 14 15v567q0 15 -15 16l-60 3v66z" />
    <glyph glyph-name="Lcommaaccent" unicode="&#x13b;" horiz-adv-x="578" 
d="M338 628l-70 -6q-15 -1 -15 -15v-510h208q14 0 15 14l6 69h70v-172q0 -8 -8 -8h-489v64q0 8 7 8l57 5q14 1 14 15v516q0 14 -14 15l-57 5q-7 0 -7 8v64h283v-72zM286 -41q34 0 47 -30.5t2 -74.5q-11 -46 -42 -89l-43 14q14 28 20 53q4 20 1 33h-2q-14 5 -23 17.5t-9 27.5
q0 19 14.5 34t34.5 15z" />
    <glyph glyph-name="lcommaaccent" unicode="&#x13c;" horiz-adv-x="363" 
d="M55 740l177 10q9 0 9 -9v-652q0 -15 14 -16l68 -5v-68h-267v61q0 7 7 7l53 5q14 1 14 15v568q0 14 -15 15l-60 3v66zM179 -41q34 0 47 -30.5t2 -74.5q-11 -46 -42 -89l-44 14q15 28 21 53q4 20 1 33h-2q-14 5 -23 17.5t-9 27.5q0 19 14 34t35 15z" />
    <glyph glyph-name="Lcaron" unicode="&#x13d;" horiz-adv-x="589" 
d="M481 710q34 0 47 -30.5t2 -74.5q-11 -47 -42 -89l-44 13q15 30 21 54q4 19 0 33h-1q-14 5 -23 17.5t-9 27.5q0 19 14 34t35 15zM338 628l-70 -6q-15 -1 -15 -15v-510h208q14 0 15 14l6 69h70v-172q0 -8 -8 -8h-489v64q0 8 7 8l57 5q14 1 14 15v516q0 14 -14 15l-57 5
q-7 0 -7 8v64h283v-72z" />
    <glyph glyph-name="lcaron" unicode="&#x13e;" horiz-adv-x="447" 
d="M55 740l177 10q9 0 9 -9v-652q0 -15 14 -16l68 -5v-68h-267v61q0 7 7 7l53 5q14 1 14 15v568q0 14 -15 15l-60 3v66zM378 727q34 0 47 -30.5t2 -74.5q-11 -47 -42 -89l-43 14q15 29 20 53q4 19 1 34h-2q-14 5 -22.5 17t-8.5 27q0 13 6 24t17.5 18t24.5 7z" />
    <glyph glyph-name="Ldot" unicode="&#x13f;" horiz-adv-x="578" 
d="M338 628l-70 -6q-15 -1 -15 -15v-510h208q14 0 15 14l6 69h70v-172q0 -8 -8 -8h-489v64q0 8 7 8l57 5q14 1 14 15v516q0 14 -14 15l-57 5q-7 0 -7 8v64h283v-72zM469 440q26 0 44 -19t18 -43.5t-18 -43t-44 -18.5q-13 0 -25 5t-20 14t-12.5 20t-4.5 23q0 16 8 30t22 23
t32 9z" />
    <glyph glyph-name="ldot" unicode="&#x140;" horiz-adv-x="475" 
d="M55 740l177 10q9 0 9 -9v-652q0 -15 14 -16l68 -5v-68h-267v61q0 7 7 7l53 5q14 1 14 15v568q0 14 -15 15l-60 3v66zM395 440q26 0 44 -19t18 -43q0 -16 -8 -30t-22.5 -23t-31.5 -9q-26 0 -44 18.5t-18 43t18 43.5t44 19z" />
    <glyph glyph-name="Lslash" unicode="&#x141;" horiz-adv-x="607" 
d="M581 180v-172q0 -8 -8 -8h-489v64q0 8 7 8l57 5q15 1 15 15v187l-111 -63v107l111 63v222q0 14 -15 15l-57 5q-7 0 -7 8v64h283v-72l-70 -6q-15 -1 -15 -15v-152l153 86v-107l-153 -87v-250h208q14 0 16 14l5 69h70z" />
    <glyph glyph-name="lslash" unicode="&#x142;" horiz-adv-x="388" 
d="M253 386v-297q0 -15 14 -16l68 -5v-68h-267v61q0 7 7 7l53 5q14 1 14 15v234l-104 -59v103l104 60v230q0 14 -15 15l-61 3v66l178 10q9 0 9 -9v-252l105 61v-104z" />
    <glyph glyph-name="Nacute" unicode="&#x143;" horiz-adv-x="846" 
d="M467 762h-98l105 162h132zM797 628l-65 -5q-15 -1 -15 -15v-608h-109l-369 499v-406q0 -15 14 -16l64 -5v-72h-267v64q0 8 7 8l58 5q14 1 14 16v514q0 15 -14 16l-58 5q-7 0 -7 8v64h179l379 -511v419q0 14 -14 15l-57 5q-7 0 -7 8v64h267v-72z" />
    <glyph glyph-name="nacute" unicode="&#x144;" horiz-adv-x="700" 
d="M393 562h-99l106 162h131zM434 509q67 0 107.5 -40.5t40.5 -119.5v-261q0 -14 15 -15l64 -5v-68h-181q-8 0 -8 8v321q0 98 -88 98q-67 0 -151 -53v-285q0 -15 15 -16l66 -5v-68h-267v61q0 7 7 7l54 5q15 1 15 16v323q0 15 -15 16l-61 3v66l178 9q8 1 8 -8v-63
q48 34 101.5 54t99.5 20z" />
    <glyph glyph-name="Ncommaaccent" unicode="&#x145;" horiz-adv-x="846" 
d="M797 628l-65 -5q-15 -1 -15 -15v-608h-109l-369 499v-406q0 -15 14 -16l64 -5v-72h-267v64q0 8 7 8l58 5q14 1 14 16v514q0 15 -14 16l-58 5q-7 0 -7 8v64h179l379 -511v419q0 14 -14 15l-57 5q-7 0 -7 8v64h267v-72zM420 -41q34 0 47.5 -30.5t2.5 -74.5q-11 -46 -43 -89
l-43 14q15 28 20 53q5 20 1 33h-1q-14 5 -23 17.5t-9 27.5q0 19 14 34t34 15z" />
    <glyph glyph-name="ncommaaccent" unicode="&#x146;" horiz-adv-x="700" 
d="M434 509q67 0 107.5 -40.5t40.5 -119.5v-261q0 -14 15 -15l64 -5v-68h-181q-8 0 -8 8v321q0 98 -88 98q-67 0 -151 -53v-285q0 -15 15 -16l66 -5v-68h-267v61q0 7 7 7l54 5q15 1 15 16v323q0 15 -15 16l-61 3v66l178 9q8 1 8 -8v-63q48 34 101.5 54t99.5 20zM346 -41
q34 0 47 -30.5t2 -74.5q-11 -46 -42 -89l-43 14q14 28 20 53q4 20 1 33h-2q-14 5 -23 17.5t-9 27.5q0 12 6.5 23.5t18 18.5t24.5 7z" />
    <glyph glyph-name="Ncaron" unicode="&#x147;" horiz-adv-x="846" 
d="M493 762h-139l-111 162h99l82 -104l82 104h98zM797 628l-65 -5q-15 -1 -15 -15v-608h-109l-369 499v-406q0 -15 14 -16l64 -5v-72h-267v64q0 8 7 8l58 5q14 1 14 16v514q0 15 -14 16l-58 5q-7 0 -7 8v64h179l379 -511v419q0 14 -15 15l-56 5q-7 0 -7 8v64h267v-72z" />
    <glyph glyph-name="ncaron" unicode="&#x148;" horiz-adv-x="700" 
d="M418 562h-138l-112 162h99l82 -104l82 104h98zM434 509q67 0 107.5 -40.5t40.5 -119.5v-261q0 -14 15 -15l64 -5v-68h-181q-8 0 -8 8v321q0 98 -88 98q-67 0 -151 -53v-285q0 -15 15 -16l66 -5v-68h-267v61q0 7 7 7l54 5q15 1 15 16v323q0 15 -15 16l-61 3v66l178 9
q8 1 8 -8v-63q48 34 101.5 54t99.5 20z" />
    <glyph glyph-name="Eng" unicode="&#x14a;" horiz-adv-x="851" 
d="M797 628l-65 -5q-14 -1 -14 -15v-569q0 -95 -53.5 -161.5t-150.5 -89.5l-23 63q47 18 77 58t37 94l-366 496v-406q0 -15 14 -16l64 -5v-72h-267v64q0 8 7 8l58 5q14 1 14 16v514q0 15 -14 16l-58 5q-7 0 -7 8v64h179l379 -511v419q0 14 -14 15l-57 5q-7 0 -7 8v64h267
v-72z" />
    <glyph glyph-name="eng" unicode="&#x14b;" horiz-adv-x="671" 
d="M434 509q44 0 77 -17t52 -53.5t19 -89.5v-426q0 -59 -38 -94.5t-103 -35.5q-62 0 -101 33l25 60q22 -12 48 -12q27 0 43 14.5t16 44.5v396q0 98 -88 98q-67 0 -151 -53v-285q0 -15 15 -16l66 -5v-68h-267v61q0 7 7 7l54 5q15 1 15 16v323q0 15 -15 16l-61 3v66l178 9
q8 1 8 -8v-63q48 34 101.5 54t99.5 20z" />
    <glyph glyph-name="Omacron" unicode="&#x14c;" horiz-adv-x="778" 
d="M548 785h-318v81h318v-81zM389 708q155 0 250.5 -100t95.5 -258.5t-95.5 -258.5t-250.5 -100t-250.5 100t-95.5 259q0 104 43 185.5t122 127t181 45.5zM389 612q-101 0 -161 -70t-60 -192.5t60 -192t161 -69.5t161 69.5t60 192t-60 192.5t-161 70z" />
    <glyph glyph-name="omacron" unicode="&#x14d;" horiz-adv-x="601" 
d="M459 585h-317v81h317v-81zM300.5 510q118.5 0 189.5 -73t71 -187t-71 -187t-189.5 -73t-189.5 73t-71 187t71 187t189.5 73zM300.5 427q-66.5 0 -106.5 -46.5t-40 -130t40 -130.5t106.5 -47t106.5 47t40 130.5t-40 130t-106.5 46.5z" />
    <glyph glyph-name="Ohungarumlaut" unicode="&#x150;" horiz-adv-x="778" 
d="M334 762h-98l94 162h131zM525 762h-98l94 162h132zM389 708q155 0 250.5 -100t95.5 -258.5t-95.5 -258.5t-250.5 -100t-250.5 100t-95.5 258.5t95.5 258.5t250.5 100zM389 612q-101 0 -161 -70t-60 -192.5t60 -192t161 -69.5q67 0 116.5 30.5t77 90t27.5 141t-27.5 141
t-77 90.5t-116.5 31z" />
    <glyph glyph-name="ohungarumlaut" unicode="&#x151;" horiz-adv-x="601" 
d="M246 562h-99l94 162h132zM437 562h-98l94 162h131zM300.5 510q118.5 0 189.5 -73t71 -187t-71 -187t-190 -73q-78 0 -137.5 34t-91 92.5t-31.5 133.5q0 114 71 187t189.5 73zM300 427q-43 0 -76 -20t-51.5 -60.5t-18.5 -96.5q0 -83 40 -130t106.5 -47t106.5 47t40 130.5
t-40 130t-107 46.5z" />
    <glyph glyph-name="OE" unicode="&#x152;" horiz-adv-x="1069" 
d="M389 708q48 0 90.5 -13t75 -37.5t55.5 -58.5v101h405q8 0 8 -8v-172h-70l-5 69q-1 14 -16 14h-202v-204h203v-91h-203v-211h220q14 0 15 14l6 69h70v-172q0 -8 -8 -8h-423v101q-35 -52 -92 -81t-129 -29q-155 0 -250.5 100t-95.5 259q0 104 43 185.5t122 127t181 45.5z
M389 612q-101 0 -161 -70t-60 -192.5t60 -192t161 -69.5t161 69.5t60 192t-60 192.5t-161 70z" />
    <glyph glyph-name="oe" unicode="&#x153;" horiz-adv-x="999" 
d="M729 510q119 0 176 -67t59 -186v-18q0 -7 -7 -7l-347 -9q5 -71 43.5 -111t98.5 -39q82 0 151 58l32 -75q-72 -66 -188 -66q-77 0 -134 36t-86 98q-19 -41 -51.5 -71t-77.5 -46.5t-98 -16.5q-118 0 -189 73t-71 187t71 187t189 73q79 0 137.5 -35t87.5 -97q27 62 80 97
t124 35zM732 432q-53 0 -85.5 -36t-36.5 -102h230q9 0 7 12q-10 126 -115 126zM300.5 427q-66.5 0 -106.5 -46.5t-40 -130t40 -130.5t106.5 -47t106.5 47t40 130.5t-40 130t-106.5 46.5z" />
    <glyph glyph-name="Racute" unicode="&#x154;" horiz-adv-x="705" 
d="M396 762h-98l106 162h131zM55 700h325q67 0 118.5 -25t80 -70t28.5 -102q0 -69 -40.5 -117t-110.5 -63l-4 -2l144 -237q4 -6 11 -6l72 -6v-72h-167q-5 0 -7 4l-160 302h-92v-213q0 -14 14 -15l71 -6v-72h-283v64q0 8 7 8l57 5q14 1 14 15v516q0 14 -14 15l-57 5
q-7 0 -7 8v64zM303 603l-50 -3v-197h131q50 0 78.5 26.5t28.5 73.5q0 31 -13 53.5t-37 34.5t-57 12h-81z" />
    <glyph glyph-name="racute" unicode="&#x155;" horiz-adv-x="471" 
d="M278 562h-99l106 162h131zM399 505q25 3 47 0q6 -1 6 -7v-139h-70l-4 44q-1 13 -11 14q-9 1 -24 -5q-51 -16 -110 -68v-255q0 -15 15 -16l66 -5v-68h-267v61q0 7 7 7l54 5q14 1 14 16v323q0 15 -14 16l-61 3v66l178 9q8 1 8 -8v-84q80 82 166 91z" />
    <glyph glyph-name="Rcommaaccent" unicode="&#x156;" horiz-adv-x="705" 
d="M55 700h325q101 0 164 -55t63 -142q0 -69 -40.5 -117t-110.5 -63l-4 -2l144 -237q4 -6 11 -6l72 -6v-72h-167q-5 0 -7 4l-160 302h-92v-213q0 -14 14 -15l71 -6v-72h-283v64q0 8 7 8l57 5q14 1 14 15v516q0 14 -14 15l-57 5q-7 0 -7 8v64zM303 603l-50 -3v-197h131
q50 0 78.5 26.5t28.5 73.5t-28.5 73.5t-78.5 26.5h-81zM350 -41q34 0 47 -30.5t2 -74.5q-11 -46 -42 -89l-43 14q14 29 20 53q4 20 1 33h-2q-14 5 -23 17.5t-9 27.5q0 19 14 34t35 15z" />
    <glyph glyph-name="rcommaaccent" unicode="&#x157;" horiz-adv-x="471" 
d="M399 505q25 3 47 0q6 -1 6 -7v-139h-70l-4 44q-1 13 -11 14q-9 1 -24 -5q-51 -16 -110 -68v-255q0 -15 14 -16l67 -5v-68h-267v61q0 7 7 7l54 5q14 1 14 16v323q0 15 -14 16l-61 3v66l178 9q8 1 8 -8v-84q80 82 166 91zM231 -41q34 0 47 -30.5t2 -74.5q-11 -46 -42 -89
l-43 14q14 28 20 53q4 20 1 33h-2q-14 5 -23 17.5t-9 27.5q0 19 14 34t35 15z" />
    <glyph glyph-name="Rcaron" unicode="&#x158;" horiz-adv-x="705" 
d="M422 762h-138l-112 162h99l82 -104l82 104h98zM55 700h325q67 0 118.5 -25t80 -70t28.5 -102q0 -69 -40.5 -117t-110.5 -63l-4 -2l144 -237q4 -6 11 -6l72 -6v-72h-167q-5 0 -7 4l-160 302h-92v-213q0 -14 14 -15l71 -6v-72h-283v64q0 8 7 8l57 5q14 1 14 15v516
q0 14 -14 15l-57 5q-7 0 -7 8v64zM303 603l-50 -3v-197h131q50 0 78.5 26.5t28.5 73.5q0 31 -13 53.5t-37 34.5t-57 12h-81z" />
    <glyph glyph-name="rcaron" unicode="&#x159;" horiz-adv-x="471" 
d="M303 562h-138l-112 162h99l82 -104l82 104h98zM399 505q25 3 47 0q6 -1 6 -7v-139h-70l-4 44q-1 13 -11 14q-9 1 -24 -5q-51 -16 -110 -68v-255q0 -15 14 -16l67 -5v-68h-267v61q0 7 7 7l54 5q14 1 14 16v323q0 15 -14 16l-61 3v66l178 9q8 1 8 -8v-84q80 82 166 91z" />
    <glyph glyph-name="Sacute" unicode="&#x15a;" horiz-adv-x="562" 
d="M325 762h-99l106 162h131zM316 711q96 1 163 -38q3 -2 3 -6v-147h-70l-5 69q-1 8 -8 11q-34 16 -81 16q-63 0 -101 -23t-38 -60q0 -25 6.5 -39.5t32.5 -33t83 -45.5q130 -62 173.5 -106.5t43.5 -110.5q0 -100 -77 -153t-202 -53q-93 0 -190 39q-5 1 -5 6v147h70l5 -62
q0 -9 9 -12q56 -22 123 -22q64 0 102 25.5t38 69.5q0 24 -7.5 38t-31 30t-76.5 43q-78 37 -122 64t-67 54.5t-29 50.5t-6 62q0 85 76.5 135t187.5 51z" />
    <glyph glyph-name="sacute" unicode="&#x15b;" horiz-adv-x="442" 
d="M265 562h-99l106 162h131zM253 510q70 0 121 -26q4 -2 4 -6v-121h-57l-5 61q-1 10 -9 12q-21 8 -49 8q-42 0 -67.5 -15.5t-25.5 -40.5q0 -18 5 -28t23 -23.5t57 -32.5q90 -45 120 -77t30 -79q0 -73 -58.5 -111.5t-153.5 -38.5q-64 0 -138 26q-5 1 -5 7v118h57l5 -56
q1 -10 9 -13q36 -12 77 -12q46 0 73.5 18.5t27.5 50.5q0 24 -14 38t-68 41t-85.5 46.5t-47.5 39t-20 36.5t-4 44q0 42 27.5 72.5t72 46t98.5 15.5z" />
    <glyph glyph-name="Scedilla" unicode="&#x15e;" horiz-adv-x="562" 
d="M316 711q96 1 163 -38q3 -2 3 -6v-147h-70l-5 69q-1 8 -8 11q-34 16 -81 16q-63 0 -101 -23t-38 -60q0 -25 6.5 -39.5t32.5 -33t83 -45.5q130 -62 173.5 -106.5t43.5 -110.5q0 -84 -56 -136t-152 -65l-17 -42q3 0 7.5 -0.5t6.5 -1.5q35 -7 54 -31t17 -53
q-1 -23 -14 -42.5t-38 -31.5t-57 -12q-48 0 -86 28l16 49q24 -15 47 -16q14 -2 26 1.5t20 13t9 23.5q0 36 -48 40q-12 1 -31 -1l22 71q-18 0 -28 1q-82 3 -167 38q-5 1 -5 6v147h70l5 -62q0 -9 9 -12q56 -22 123 -22q64 0 102 25.5t38 69.5q0 18 -3.5 29t-16 23.5t-34 25.5
t-61.5 33q-78 37 -122 64t-67 54.5t-29 50.5t-6 62q0 85 76.5 135t187.5 51z" />
    <glyph glyph-name="scedilla" unicode="&#x15f;" horiz-adv-x="442" 
d="M253 510q70 0 121 -26q4 -2 4 -6v-121h-57l-5 61q-1 10 -9 12q-21 8 -48.5 8t-49 -7t-33 -20t-11.5 -29q0 -26 14.5 -41t70.5 -43q90 -45 120 -77t30 -79q0 -60 -40 -97t-109 -48l-18 -42q3 0 7.5 -0.5t6.5 -1.5q35 -7 54 -31t17 -53q-2 -35 -31.5 -60.5t-77.5 -25.5
t-86 28l16 49q24 -15 47 -16q22 -2 37.5 7.5t17.5 30.5q0 36 -47 40q-13 1 -32 -1l23 72h-15q-59 3 -120 25q-5 1 -5 7v118h57l5 -56q1 -10 9 -13q36 -12 77 -12q30 0 53 8.5t35.5 24t12.5 36.5q0 24 -14 38t-68 41t-85.5 46.5t-47.5 39t-20 36.5t-4 45q0 61 57.5 97
t140.5 36z" />
    <glyph glyph-name="Scaron" unicode="&#x160;" horiz-adv-x="562" 
d="M350 762h-138l-112 162h99l82 -104l82 104h99zM316 711q96 1 163 -38q3 -2 3 -6v-147h-70l-5 69q-1 8 -8 11q-34 16 -81 16q-63 0 -101 -23t-38 -60q0 -25 6.5 -39.5t32.5 -33t83 -45.5q130 -62 173.5 -106.5t43.5 -110.5q0 -100 -77 -153t-202 -53q-93 0 -190 39
q-5 1 -5 6v147h70l5 -62q0 -9 9 -12q56 -22 123 -22q64 0 102 25.5t38 69.5q0 24 -7.5 38t-31 30t-76.5 43q-78 37 -122 64t-67 54.5t-29 50.5t-6 62q0 85 76.5 135t187.5 51z" />
    <glyph glyph-name="scaron" unicode="&#x161;" horiz-adv-x="442" 
d="M291 562h-139l-111 162h98l82 -104l82 104h99zM253 510q70 0 121 -26q4 -2 4 -6v-121h-57l-5 61q-1 10 -9 12q-21 8 -49 8q-42 0 -67.5 -15.5t-25.5 -40.5q0 -18 5 -28t23 -23.5t57 -32.5q90 -45 120 -77t30 -79q0 -73 -58.5 -111.5t-153.5 -38.5q-64 0 -138 26
q-5 1 -5 7v118h57l5 -56q1 -10 9 -13q36 -12 77 -12q46 0 73.5 18.5t27.5 50.5q0 24 -14 38t-68 41t-85.5 46.5t-47.5 39t-20 36.5t-4 44q0 42 27.5 72.5t72 46t98.5 15.5z" />
    <glyph glyph-name="Tcedilla" unicode="&#x162;" horiz-adv-x="653" 
d="M30 700h593q8 0 8 -8v-169h-70l-5 69q-1 15 -16 15h-154v-515q0 -14 15 -15l64 -5v-72h-108l-18 -45q2 -1 6.5 -1.5t7.5 -0.5q34 -7 53.5 -31t17.5 -53q-2 -35 -32 -60.5t-77 -25.5q-48 0 -86 28l16 49q23 -15 46 -16q15 -2 27 1.5t19.5 13t8.5 23.5q0 36 -47 40
q-12 1 -32 -1l26 79h-106v64q0 8 7 8l58 5q14 1 14 16v514h-154q-14 0 -15 -15l-5 -69h-70v169q0 8 8 8z" />
    <glyph glyph-name="tcedilla" unicode="&#x163;" horiz-adv-x="397" 
d="M196 500h129v-68l-129 -7v-301q0 -27 16.5 -41.5t43.5 -14.5q38 0 62 25l26 -53q-30 -43 -95 -49q-12 -2 -24 0l-14 -36q2 0 6.5 -0.5t6.5 -1.5q35 -7 54 -31t18 -53q-3 -35 -32.5 -60.5t-76.5 -25.5q-49 0 -87 28l16 49q24 -15 47 -16q22 -2 37.5 7.5t17.5 30.5
q0 36 -47 40q-13 1 -32 -1l25 78q-37 13 -57.5 41t-20.5 68v317l-54 3q-7 0 -7 8v60l61 1v127l110 5v-129z" />
    <glyph glyph-name="Tcaron" unicode="&#x164;" horiz-adv-x="653" 
d="M396 762h-139l-111 162h99l82 -104l82 104h98zM30 700h593q8 0 8 -8v-169h-70l-5 69q-1 15 -16 15h-154v-515q0 -14 15 -15l64 -5v-72h-278v64q0 8 7 8l58 5q14 1 14 16v514h-154q-14 0 -15 -15l-5 -69h-70v169q0 8 8 8z" />
    <glyph glyph-name="tcaron" unicode="&#x165;" horiz-adv-x="422" 
d="M355 750q34 0 47.5 -30.5t1.5 -74.5q-11 -47 -42 -89l-43 13q15 30 20 54q4 19 1 33h-2q-14 5 -22.5 17.5t-8.5 27.5q0 19 14 34t34 15zM196 500h129v-68l-129 -7v-301q0 -27 16.5 -41.5t43.5 -14.5q38 0 62 25l26 -53q-37 -51 -119 -51q-64 0 -101.5 32.5t-37.5 86.5
v317l-54 3q-7 0 -7 8v60l61 1v127l110 5v-129z" />
    <glyph glyph-name="Tbar" unicode="&#x166;" horiz-adv-x="653" 
d="M631 523h-70l-5 69q-1 15 -16 15h-154v-216h99v-82h-99v-217q0 -14 15 -15l64 -5v-72h-278v64q0 8 7 8l58 5q14 1 14 16v216h-98v82h98v216h-154q-14 0 -15 -15l-5 -69h-70v169q0 8 8 8h593q8 0 8 -8v-169z" />
    <glyph glyph-name="tbar" unicode="&#x167;" horiz-adv-x="397" 
d="M318 93l26 -53q-37 -51 -119 -51q-64 0 -101.5 32.5t-37.5 86.5v143h-61v81h61v93l-54 3q-7 0 -7 8v60l61 1v127l110 5v-129h129v-68l-129 -7v-93h129v-81h-129v-127q0 -27 16.5 -41.5t43.5 -14.5q38 0 62 25z" />
    <glyph glyph-name="Utilde" unicode="&#x168;" horiz-adv-x="828" 
d="M508 882l65 -13q-1 -45 -23.5 -69.5t-57.5 -27.5q-26 -3 -61 10q-12 4 -37.5 15.5t-33.5 12.5q-12 1 -20.5 -8t-19.5 -36l-65 20q15 82 73 93q32 5 86 -18q43 -18 60 -14q20 3 34 35zM778 627l-67 -5q-14 -2 -14 -16v-334q0 -126 -76.5 -204t-203 -78t-203 78t-76.5 204
v334q0 14 -14 15l-62 6q-7 0 -7 7v65h285v-72l-67 -6q-14 -1 -14 -15v-334q0 -45 12 -80.5t34 -58.5t52 -34.5t67 -11.5q38 0 69.5 12t54.5 35t36 58.5t13 79.5v334q0 14 -15 15l-71 6v72h267v-72z" />
    <glyph glyph-name="utilde" unicode="&#x169;" horiz-adv-x="693" 
d="M440 682l66 -13q-2 -45 -24 -69.5t-58 -27.5q-25 -3 -61 10q-12 4 -37.5 15.5t-33.5 12.5t-14 -2.5t-12 -13t-13 -28.5l-65 20q14 82 72 93q33 5 87 -18q43 -18 59 -14q20 3 34 35zM40 499h181q8 0 8 -8v-321q0 -98 88 -98q67 0 150 53v286q0 14 -14 15l-67 6v67h184
q8 0 8 -8v-404q0 -15 15 -16l61 -3v-66l-178 -9q-9 0 -9 8v63q-47 -33 -100.5 -53.5t-100.5 -20.5q-67 0 -107.5 40.5t-40.5 119.5v261q0 14 -14 15l-64 6v67z" />
    <glyph glyph-name="Umacron" unicode="&#x16a;" horiz-adv-x="828" 
d="M573 785h-317v81h317v-81zM778 627l-67 -5q-14 -2 -14 -16v-334q0 -126 -76.5 -204t-203 -78t-203 78t-76.5 204v334q0 14 -14 15l-62 6q-7 0 -7 7v65h285v-72l-67 -5q-14 -2 -14 -16v-334q0 -89 45 -137t120 -48q51 0 89.5 20.5t61 63t22.5 101.5v334q0 14 -15 15l-71 6
v72h267v-72z" />
    <glyph glyph-name="umacron" unicode="&#x16b;" horiz-adv-x="693" 
d="M505 585h-317v81h317v-81zM40 499h181q8 0 8 -8v-321q0 -98 88 -98q67 0 150 53v286q0 14 -14 15l-67 6v67h184q8 0 8 -8v-404q0 -15 15 -16l61 -3v-66l-178 -9q-9 0 -9 8v63q-47 -33 -100.5 -53.5t-100.5 -20.5q-67 0 -107.5 40.5t-40.5 119.5v261q0 14 -14 15l-64 6v67
z" />
    <glyph glyph-name="Uring" unicode="&#x16e;" horiz-adv-x="828" 
d="M414 957q48 0 81.5 -33.5t33.5 -80.5t-33.5 -81t-81.5 -34q-32 0 -58 16t-41 42t-15 57q0 47 33 80.5t81 33.5zM414 901q-23 0 -39.5 -16.5t-16.5 -42t16.5 -42t39.5 -16.5q15 0 28 7.5t20.5 21t7.5 30.5q0 25 -16.5 41.5t-39.5 16.5zM778 627l-67 -5q-14 -2 -14 -16
v-334q0 -83 -34.5 -147t-98 -99.5t-147.5 -35.5q-126 0 -202.5 78t-76.5 204v334q0 14 -14 15l-62 6q-7 0 -7 7v65h285v-72l-67 -6q-14 -1 -14 -15v-334q0 -89 45 -137t120 -48q78 0 125.5 48.5t47.5 136.5v334q0 14 -15 15l-71 6v72h267v-72z" />
    <glyph glyph-name="uring" unicode="&#x16f;" horiz-adv-x="693" 
d="M346.5 757q48.5 0 81.5 -33.5t33 -80.5t-33 -81t-81.5 -34t-81.5 34t-33 81t33 80.5t81.5 33.5zM347 701q-23 0 -39.5 -16.5t-16.5 -42t16.5 -42t39.5 -16.5t39 16.5t16 42t-16 42t-39 16.5zM40 499h181q8 0 8 -8v-321q0 -98 88 -98q67 0 150 53v286q0 14 -14 15l-67 6
v67h184q8 0 8 -8v-404q0 -15 15 -16l61 -3v-66l-178 -9q-9 0 -9 8v63q-47 -33 -100.5 -53.5t-100.5 -20.5q-67 0 -107.5 40.5t-40.5 119.5v261q0 14 -14 15l-64 6v67z" />
    <glyph glyph-name="Uhungarumlaut" unicode="&#x170;" horiz-adv-x="828" 
d="M359 762h-98l94 162h132zM551 762h-99l94 162h132zM778 627l-67 -5q-14 -2 -14 -16v-334q0 -126 -76.5 -204t-203 -78t-203 78t-76.5 204v334q0 14 -14 15l-62 6q-7 0 -7 7v65h285v-72l-67 -6q-14 -1 -14 -15v-334q0 -89 45 -137t120 -48q51 0 89.5 20.5t61 63
t22.5 101.5v334q0 14 -15 15l-71 6v72h267v-72z" />
    <glyph glyph-name="uhungarumlaut" unicode="&#x171;" horiz-adv-x="693" 
d="M292 562h-99l95 162h131zM483 562h-98l94 162h131zM40 499h181q8 0 8 -8v-321q0 -98 88 -98q67 0 150 53v286q0 14 -14 15l-67 6v67h184q8 0 8 -8v-404q0 -15 15 -16l61 -3v-66l-178 -9q-9 0 -9 8v63q-47 -33 -100.5 -53.5t-100.5 -20.5q-67 0 -107.5 40.5t-40.5 119.5
v261q0 14 -14 15l-64 6v67z" />
    <glyph glyph-name="Uogonek" unicode="&#x172;" horiz-adv-x="828" 
d="M340 627l-67 -5q-14 -2 -14 -16v-334q0 -36 8 -66t22 -52t34.5 -37t46 -22.5t54.5 -7.5q38 0 69.5 12t54.5 35t36 58.5t13 79.5v334q0 14 -15 15l-71 6v72h267v-72l-67 -5q-14 -2 -14 -16v-334q0 -92 -41.5 -159.5t-115.5 -98.5q-62 -37 -63 -92q0 -27 15 -42t39 -15
q18 -1 49 13l16 -58q-48 -23 -87 -23q-31 0 -54 12.5t-35 32.5t-14 45q-4 57 40 104q-19 -1 -38 0q-84 2 -145 38t-93 98.5t-32 144.5v334q0 14 -14 15l-62 6q-7 0 -7 7v65h285v-72z" />
    <glyph glyph-name="uogonek" unicode="&#x173;" horiz-adv-x="693" 
d="M40 499h181q8 0 8 -8v-321q0 -98 88 -98q67 0 150 53v286q0 14 -14 15l-67 6v67h184q8 0 8 -8v-404q0 -15 15 -16l61 -3v-66l-125 -6q-43 -33 -44 -79q0 -27 15 -42t39 -15q18 -1 49 13l16 -57q-45 -23 -87 -23q-46 0 -73 25.5t-30 64.5q-5 66 53 118v63
q-47 -33 -100.5 -53.5t-100.5 -20.5q-67 0 -107.5 40.5t-40.5 119.5v261q0 14 -14 15l-64 6v67z" />
    <glyph glyph-name="Wcircumflex" unicode="&#x174;" horiz-adv-x="1143" 
d="M752 762h-98l-82 105l-82 -105h-99l111 162h139zM1122 628l-69 -6l-191 -622h-102l-191 517l-191 -517h-104l-186 614q-3 9 -13 10l-46 4q-7 0 -7 7v65h172l145 -534l158 434q1 5 0.5 9t-2.5 7t-5.5 5t-7.5 3l-52 4q-7 1 -7 8v64h215l178 -534l128 436q2 8 -2.5 14.5
t-12.5 7.5l-55 4q-7 1 -7 8v64h255v-72z" />
    <glyph glyph-name="wcircumflex" unicode="&#x175;" horiz-adv-x="857" 
d="M609 562h-98l-82 105l-82 -105h-99l111 162h139zM843 432l-47 -4l-158 -428h-101l-110 310l-114 -310h-101l-147 419q-3 9 -12 10l-32 3q-7 1 -7 8v60h141l117 -381l101 286q2 8 -2 15t-14 8l-49 4q-7 0 -7 8v60h178l117 -381l101 286q3 9 -1.5 15.5t-12.5 7.5l-52 5
q-7 0 -7 7v60h219v-68z" />
    <glyph glyph-name="Ycircumflex" unicode="&#x176;" horiz-adv-x="701" 
d="M531 762h-99l-81 105l-82 -105h-99l111 162h139zM680 628l-50 -4l-212 -379v-152q0 -15 14 -16l65 -5v-72h-279v64q0 8 7 8l58 5q15 1 15 16v145l-215 379q-4 6 -11 7l-43 4q-7 0 -7 7v65h146l199 -354l139 250q5 10 0.5 18.5t-15.5 9.5l-54 4q-7 1 -7 8v64h250v-72z" />
    <glyph glyph-name="ycircumflex" unicode="&#x177;" horiz-adv-x="574" 
d="M469 562h-99l-82 105l-82 -105h-98l111 162h139zM559 432l-50 -4l-251 -630q-2 -5 -7 -5h-186v68l121 9q9 2 12 10l47 118h-19l-162 422q-4 8 -12 9l-31 3q-7 1 -7 8v60h138l138 -390l116 293q4 9 -0.5 16t-14.5 8l-56 5q-7 0 -7 8v60h231v-68z" />
    <glyph glyph-name="Ydieresis" unicode="&#x178;" horiz-adv-x="701" 
d="M255.5 893q24.5 0 41 -17t16.5 -40t-16.5 -40t-41 -17t-41 17t-16.5 40t16.5 40t41 17zM445 893q24 0 41 -17t17 -40t-17 -40t-41 -17t-40.5 17t-16.5 40t16.5 40t40.5 17zM680 628l-50 -4l-212 -379v-152q0 -15 14 -16l65 -5v-72h-279v64q0 8 7 8l59 5q14 1 14 16v145
l-215 379q-4 6 -11 7l-43 4q-7 0 -7 7v65h146l199 -354l139 250q5 10 0.5 18.5t-15.5 9.5l-54 4q-7 1 -7 8v64h250v-72z" />
    <glyph glyph-name="Zacute" unicode="&#x179;" horiz-adv-x="592" 
d="M340 762h-99l106 162h131zM560 633l-368 -537h281q15 0 16 14l5 61h70v-164q0 -8 -8 -8h-527v67l372 537h-259q-15 0 -16 -14l-4 -56h-70v159q0 8 8 8h500v-67z" />
    <glyph glyph-name="zacute" unicode="&#x17a;" horiz-adv-x="496" 
d="M292 562h-98l106 162h131zM440 454l-264 -383h199q14 0 15 14l4 53h57v-130q0 -8 -8 -8h-401v46l265 383h-172q-14 0 -15 -14l-4 -51h-57v128q0 8 8 8h373v-46z" />
    <glyph glyph-name="Zdotaccent" unicode="&#x17b;" horiz-adv-x="592" 
d="M296 893q24 0 40.5 -17t16.5 -40t-16.5 -40t-40.5 -17q-16 0 -29.5 8t-20.5 21t-7 28q0 23 16.5 40t40.5 17zM560 633l-368 -537h281q15 0 16 14l5 61h70v-164q0 -8 -8 -8h-527v67l372 537h-259q-15 0 -16 -14l-4 -56h-70v159q0 8 8 8h500v-67z" />
    <glyph glyph-name="zdotaccent" unicode="&#x17c;" horiz-adv-x="496" 
d="M248.5 693q24.5 0 41 -17t16.5 -40t-16.5 -40t-41 -17t-41 17t-16.5 40t16.5 40t41 17zM440 454l-264 -383h199q14 0 15 14l4 53h57v-130q0 -8 -8 -8h-401v46l265 383h-172q-14 0 -15 -14l-4 -51h-57v128q0 8 8 8h373v-46z" />
    <glyph glyph-name="Zcaron" unicode="&#x17d;" horiz-adv-x="592" 
d="M366 762h-139l-112 162h99l82 -104l82 104h99zM560 633l-368 -537h281q15 0 16 14l5 61h70v-164q0 -8 -8 -8h-527v67l372 537h-259q-15 0 -16 -14l-4 -56h-70v159q0 8 8 8h500v-67z" />
    <glyph glyph-name="zcaron" unicode="&#x17e;" horiz-adv-x="496" 
d="M318 562h-138l-112 162h99l82 -104l82 104h98zM440 454l-264 -383h199q14 0 15 14l4 53h57v-130q0 -8 -8 -8h-401v46l265 383h-172q-14 0 -15 -14l-4 -51h-57v128q0 8 8 8h373v-46z" />
    <glyph glyph-name="longs" unicode="&#x17f;" horiz-adv-x="416" 
d="M293 749q87 0 157 -45l-28 -69q-61 32 -112 31q-26 0 -46 -9t-32 -29t-12 -49v-491q0 -14 14 -15l63 -5v-68h-246v61q0 7 7 7l37 4q14 1 14 15v338l-58 3q-7 1 -7 8v64h65v87q0 79 53 120.5t131 41.5z" />
    <glyph glyph-name="florin" unicode="&#x192;" horiz-adv-x="450" 
d="M327 749q87 0 157 -45l-28 -69q-61 32 -112 31q-40 0 -65 -22t-25 -65v-161h136v-68l-136 -7v-420q0 -73 -59 -107q-33 -19 -74.5 -18.5t-76.5 19.5l19 61q41 -5 61 9q19 13 19 46v410l-58 3q-7 1 -7 8v64h65v169q0 79 53 120.5t131 41.5z" />
    <glyph glyph-name="Ohorn" unicode="&#x1a0;" horiz-adv-x="778" 
d="M661 819l85 27q30 -58 28 -112q-2 -52 -33 -83t-81 -34q-15 -1 -30 1q105 -100 105 -268q0 -159 -95.5 -259t-250.5 -100t-250.5 100t-95.5 258.5t95.5 258.5t250.5 100q79 0 144 -29q30 -13 65 -13q83 0 87 63q2 38 -24 90zM389 612q-101 0 -161 -70t-60 -192.5t60 -192
t161 -69.5t161 69.5t60 192t-60 192.5t-161 70z" />
    <glyph glyph-name="ohorn" unicode="&#x1a1;" horiz-adv-x="601" 
d="M511 613l77 25q30 -58 29 -112q-3 -49 -30.5 -79.5t-75.5 -35.5q50 -66 50 -161q0 -114 -71 -187t-190 -73q-78 0 -137.5 34t-91 92.5t-31.5 133.5q0 114 71 187t189 73q94 0 160 -49l13 3q54 7 60 58q5 38 -22 91zM300 428q-66 0 -106 -47t-40 -130.5t40 -130.5
t106.5 -47t106.5 47t40 130q0 42 -10.5 75.5t-30 56t-46.5 34.5t-60 12z" />
    <glyph glyph-name="Uhorn" unicode="&#x1af;" horiz-adv-x="830" 
d="M742 821l62 24q33 -25 46 -60q15 -36 2.5 -73t-49.5 -57q-20 -11 -46 -13l-48 -5q-12 -3 -12 -16v-347q0 -127 -76.5 -205t-203 -78t-203 78t-76.5 205v333q0 14 -14 16l-62 5q-7 0 -7 8v64h285v-72l-67 -5q-14 -2 -14 -16v-333q0 -90 45 -138t120 -48q78 0 125.5 48.5
t47.5 137.5v333q0 14 -15 15l-71 6v72h223q11 2 20 7q20 11 25 30t-4 40q-10 25 -33 44z" />
    <glyph glyph-name="uhorn" unicode="&#x1b0;" horiz-adv-x="693" 
d="M578 632l62 23q41 -31 49 -81q3 -17 0.5 -34.5t-10 -33t-21.5 -28t-33 -19.5q-21 -9 -47 -10v-362q0 -15 15 -16l61 -3v-66l-178 -9q-9 0 -9 8v63q-31 -22 -65 -38.5t-69.5 -26t-66.5 -9.5q-67 0 -107.5 40.5t-40.5 119.5v261q0 14 -14 15l-64 6v67h181q8 0 8 -8v-321
q0 -98 88 -98q67 0 150 53v286q0 14 -14 15l-67 6v67h154q22 0 41 10q20 10 29 27.5t3 39.5q-7 29 -35 56z" />
    <glyph glyph-name="DZcaron" unicode="&#x1c4;" horiz-adv-x="1343" 
d="M1116 762h-138l-112 162h99l82 -104l82 104h99zM55 700h307q155 0 250.5 -96.5t95.5 -254t-95 -253.5t-251 -96h-307v64q0 8 7 8l57 5q14 1 14 15v516q0 14 -14 15l-57 5q-7 0 -7 8v64zM1311 633l-368 -537h281q15 0 16 14l5 61h70l-1 -164q0 -8 -7 -8h-527v67l372 537
h-260q-14 0 -15 -14l-5 -56h-70l1 159q0 8 7 8h501v-67zM302 603l-49 -3v-500l49 -3h60q102 0 161.5 65.5t59.5 187t-59.5 187.5t-161.5 66h-60z" />
    <glyph glyph-name="Dzcaron" unicode="&#x1c5;" horiz-adv-x="1247" 
d="M1069 562h-139l-111 162h99l82 -104l82 104h98zM55 700h307q155 0 250.5 -96.5t95.5 -254t-95 -253.5t-251 -96h-307v64q0 8 7 8l57 5q14 1 14 15v516q0 14 -14 15l-57 5q-7 0 -7 8v64zM302 603l-49 -3v-500l49 -3h60q102 0 161.5 65.5t59.5 187t-59.5 187.5t-161.5 66
h-60zM1191 454l-264 -383h198q15 0 16 14l4 53h57v-130q0 -8 -8 -8h-401v46l264 383h-171q-14 0 -15 -14l-5 -51h-56v128q0 8 8 8h373v-46z" />
    <glyph glyph-name="dzcaron" unicode="&#x1c6;" horiz-adv-x="1128" 
d="M325 740l178 10q8 0 8 -8v-654q0 -14 15 -16l59 -4v-68h-161q-7 0 -8 7l-4 53q-62 -70 -158 -70q-97 0 -155.5 67.5t-58.5 194.5q0 38 6.5 73.5t22 69.5t39 59t60 40.5t82.5 15.5q93 0 151 -63v209q0 15 -15 15l-61 3v66zM950 562h-139l-111 162h99l82 -104l82 104h98z
M1072 454l-264 -383h198q15 0 16 14l4 53h57v-130q0 -8 -8 -8h-401v46l264 383h-171q-14 0 -15 -14l-5 -51h-56v128q0 8 8 8h373v-46zM289 427q-62 0 -98.5 -46.5t-36.5 -129t40 -129t106 -47.5q64 0 100 46l1 244q-38 62 -112 62z" />
    <glyph glyph-name="LJ" unicode="&#x1c7;" horiz-adv-x="970" 
d="M338 628l-70 -6q-15 -1 -15 -15v-510h208q14 0 15 14l6 69h70v-172q0 -8 -8 -8h-489v64q0 8 7 8l57 5q14 1 14 15v516q0 14 -14 15l-57 5q-7 0 -7 8v64h283v-72zM915 628l-64 -5q-14 -1 -14 -15v-570q0 -97 -56.5 -164t-157.5 -89l-24 65q54 21 85.5 70.5t31.5 117.5v569
q0 14 -14 15l-63 6q-7 0 -7 8v64h283v-72z" />
    <glyph glyph-name="Lj" unicode="&#x1c8;" horiz-adv-x="862" 
d="M745 728q26 0 44 -18t18 -44t-18 -44t-44 -18q-17 0 -31.5 8t-22.5 22.5t-8 31.5q0 26 18 44t44 18zM338 628l-70 -6q-15 -1 -15 -15v-510h208q14 0 15 14l6 69h70v-172q0 -8 -8 -8h-489v64q0 8 7 8l57 5q14 1 14 15v516q0 14 -14 15l-57 5q-7 0 -7 8v64h283v-72z
M619 498l178 9q9 0 9 -8v-576q0 -59 -38.5 -94.5t-103.5 -35.5q-62 0 -101 33l25 60q22 -12 48 -12q17 0 30 6t21 19.5t8 33.5v480q0 15 -15 15l-61 4v66z" />
    <glyph glyph-name="lj" unicode="&#x1c9;" horiz-adv-x="648" 
d="M55 740l177 10q9 0 9 -9v-652q0 -15 14 -16l68 -5v-68h-267v61q0 7 7 7l53 5q14 1 14 15v568q0 14 -15 15l-60 3v66zM530 728q26 0 44 -18t18 -44t-18 -44t-44 -18t-44 18t-18 44t18 44t44 18zM404 497l178 10q9 0 9 -8v-576q0 -59 -38.5 -94.5t-103.5 -35.5
q-62 0 -100 33l25 60q21 -12 47 -12q27 0 43 14.5t16 44.5v480q0 15 -15 15l-61 4v65z" />
    <glyph glyph-name="NJ" unicode="&#x1ca;" horiz-adv-x="1238" 
d="M797 628l-65 -5q-15 -1 -15 -15v-608h-109l-369 499v-406q0 -15 14 -16l64 -5v-72h-267v64q0 8 7 8l58 5q14 1 14 16v514q0 15 -14 16l-58 5q-7 0 -7 8v64h179l379 -511v419q0 14 -14 15l-57 5q-7 0 -7 8v64h267v-72zM1184 628l-64 -5q-15 -1 -15 -15v-570
q0 -97 -56 -164t-157 -89l-24 65q54 21 85.5 70.5t31.5 117.5v569q0 14 -15 15l-63 6q-7 0 -7 8v64h284v-72z" />
    <glyph glyph-name="Nj" unicode="&#x1cb;" horiz-adv-x="1131" 
d="M1013.5 728q25.5 0 44 -18t18.5 -44t-18.5 -44t-44 -18t-44 18t-18.5 44t18.5 44t44 18zM797 628l-65 -5q-15 -1 -15 -15v-608h-109l-369 499v-406q0 -15 14 -16l64 -5v-72h-267v64q0 8 7 8l58 5q14 1 14 16v514q0 15 -14 16l-58 5q-7 0 -7 8v64h179l379 -511v419
q0 14 -14 15l-57 5q-7 0 -7 8v64h267v-72zM888 497l178 10q8 0 8 -8v-576q1 -59 -37.5 -94.5t-103.5 -35.5q-63 0 -101 33l25 60q22 -12 47 -12q27 0 43.5 14.5t16.5 44.5l-1 480q0 15 -14 15l-61 4v65z" />
    <glyph glyph-name="nj" unicode="&#x1cc;" horiz-adv-x="985" 
d="M868 728q26 0 44 -18t18 -44t-18 -44t-44 -18q-17 0 -31.5 8t-22.5 22.5t-8 31.5q0 26 18 44t44 18zM434 509q67 0 107.5 -40.5t40.5 -119.5v-261q0 -14 15 -15l64 -5v-68h-181q-8 0 -8 8v321q0 98 -88 98q-67 0 -151 -53v-285q0 -15 15 -16l66 -5v-68h-267v61q0 7 7 7
l54 5q15 1 15 16v323q0 15 -15 16l-61 3v66l178 9q8 1 8 -8v-63q48 34 101.5 54t99.5 20zM742 497l178 10q8 0 8 -8l1 -576q0 -59 -38.5 -94.5t-103.5 -35.5q-62 0 -101 33l25 60q22 -12 48 -12q27 0 43 14.5t16 44.5v480q0 15 -15 15l-61 4v65z" />
    <glyph glyph-name="Acaron" unicode="&#x1cd;" horiz-adv-x="792" 
d="M466 762h-139l-111 162h99l82 -104l82 104h98zM712 77l59 -5v-72h-277v64q0 7 7 8l57 5q6 0 10.5 3.5t5.5 8.5t-1 11l-40 99h-298l-49 -121l83 -6v-72h-247v65q0 7 7 7l43 4q9 1 12 9l248 611l121 7zM271 295h226l-112 283z" />
    <glyph glyph-name="acaron" unicode="&#x1ce;" 
d="M334 562h-138l-112 162h99l82 -104l82 104h98zM256 509q40 0 74.5 -10t62.5 -30.5t44 -55.5t16 -81v-244q0 -14 14 -15l59 -5v-68h-161q-6 0 -7 7l-5 54q-28 -33 -69.5 -52t-89.5 -19q-70 0 -113.5 40.5t-43.5 102.5q0 58 41.5 89t133.5 56l130 35v21q0 49 -27 71t-71 22
q-49 0 -96 -23q-8 -3 -9 -12l-5 -60h-58v123q0 4 2 6q34 20 82.5 33.5t95.5 14.5zM342 244l-105 -28q-50 -13 -69 -28t-19 -45q0 -32 23 -50.5t62 -18.5q67 0 105 51l3 3v116z" />
    <glyph glyph-name="Icaron" unicode="&#x1cf;" horiz-adv-x="388" 
d="M264 762h-139l-111 162h99l82 -104l82 104h98zM333 628l-65 -5q-14 -1 -14 -16v-514q0 -15 14 -16l65 -5v-72h-278v64q0 8 7 8l58 5q14 1 14 16v514q0 15 -14 16l-58 5q-7 0 -7 8v64h278v-72z" />
    <glyph glyph-name="icaron" unicode="&#x1d0;" horiz-adv-x="373" 
d="M247 562h-138l-112 162h99l82 -104l82 104h98zM55 497l177 9q9 1 9 -8v-409q0 -15 14 -16l68 -5v-68h-268v61q0 7 7 7l54 5q14 1 14 16v323q0 15 -15 16l-60 3v66z" />
    <glyph glyph-name="Ocaron" unicode="&#x1d1;" horiz-adv-x="778" 
d="M458 762h-138l-112 162h99l82 -104l82 104h99zM389 708q155 0 250.5 -100t95.5 -258.5t-95.5 -258.5t-250.5 -100t-250.5 100t-95.5 258.5t95.5 258.5t250.5 100zM389 612q-101 0 -161 -70t-60 -192.5t60 -192t161 -69.5q67 0 116.5 30.5t77 90t27.5 141t-27.5 141
t-77 90.5t-116.5 31z" />
    <glyph glyph-name="ocaron" unicode="&#x1d2;" horiz-adv-x="601" 
d="M370 562h-139l-111 162h99l82 -104l82 104h98zM300.5 510q118.5 0 189.5 -73t71 -187t-71 -187t-189.5 -73t-189.5 73t-71 187t71 187t189.5 73zM300.5 427q-66.5 0 -106.5 -46.5t-40 -130t40 -130.5t106.5 -47t106.5 47t40 130.5t-40 130t-106.5 46.5z" />
    <glyph glyph-name="Ucaron" unicode="&#x1d3;" horiz-adv-x="828" 
d="M484 762h-139l-111 162h98l82 -104l82 104h99zM778 627l-67 -5q-14 -2 -14 -16v-334q0 -126 -76.5 -204t-203 -78t-203 78t-76.5 204v334q0 14 -14 15l-62 6q-7 0 -7 7v65h285v-72l-67 -5q-14 -2 -14 -16v-334q0 -89 45 -137t121 -48q77 0 124.5 48.5t47.5 136.5v334
q0 14 -15 15l-71 6v72h267v-72z" />
    <glyph glyph-name="ucaron" unicode="&#x1d4;" horiz-adv-x="693" 
d="M416 562h-138l-112 162h99l82 -104l82 104h98zM40 499h181q8 0 8 -8v-321q0 -98 88 -98q67 0 150 53v286q0 14 -14 15l-67 6v67h184q8 0 8 -8v-404q0 -15 15 -16l61 -3v-66l-178 -9q-9 0 -9 8v63q-47 -33 -100.5 -53.5t-100.5 -20.5q-67 0 -107.5 40.5t-40.5 119.5v261
q0 14 -14 15l-64 6v67z" />
    <glyph glyph-name="Udieresismacron" unicode="&#x1d5;" horiz-adv-x="828" 
d="M573 973h-317v81h317v-81zM319 893q24 0 41 -17t17 -40t-17 -40t-41 -17t-40.5 17t-16.5 40t16.5 40t40.5 17zM509 893q24 0 40.5 -17t16.5 -40t-16.5 -40t-40.5 -17t-40.5 17t-16.5 40t16.5 40t40.5 17zM778 627l-67 -5q-14 -2 -14 -16v-334q0 -126 -76.5 -204
t-203.5 -78q-83 0 -146.5 35.5t-98 99.5t-34.5 147v334q0 14 -14 15l-62 6q-7 0 -7 7v65h285v-72l-67 -5q-14 -2 -14 -16v-334q0 -89 45 -137t120 -48q78 0 125.5 48.5t47.5 136.5v334q0 14 -15 15l-71 6v72h267v-72z" />
    <glyph glyph-name="udieresismacron" unicode="&#x1d6;" horiz-adv-x="693" 
d="M505 761h-317v81h317v-81zM252 693q24 0 40.5 -17t16.5 -40t-16.5 -40t-41 -17t-40.5 17t-16 40q0 11 4 21.5t11.5 18.5t18.5 12.5t23 4.5zM441.5 693q24.5 0 41 -17t16.5 -40t-16.5 -40t-41 -17t-41 17t-16.5 40t16.5 40t41 17zM40 499h181q8 0 8 -8v-321q0 -98 88 -98
q67 0 150 53v286q0 14 -14 15l-67 6v67h184q8 0 8 -8v-404q0 -15 15 -16l61 -3v-66l-178 -9q-9 0 -9 8v63q-47 -33 -100.5 -53.5t-100.5 -20.5q-67 0 -107.5 40.5t-40.5 119.5v261q0 14 -14 15l-64 6v67z" />
    <glyph glyph-name="Udieresisacute" unicode="&#x1d7;" horiz-adv-x="828" 
d="M458 938h-99l106 162h132zM319 893q24 0 41 -17t17 -40t-17 -40t-41 -17t-40.5 17t-16.5 40t16.5 40t40.5 17zM509 893q24 0 40.5 -17t16.5 -40t-16.5 -40t-40.5 -17t-40.5 17t-16.5 40t16.5 40t40.5 17zM778 627l-67 -5q-14 -2 -14 -16v-334q0 -126 -76.5 -204
t-203.5 -78q-83 0 -146.5 35.5t-98 99.5t-34.5 147v334q0 14 -14 15l-62 6q-7 0 -7 7v65h285v-72l-67 -5q-14 -2 -14 -16v-334q0 -89 45 -137t121 -48q77 0 124.5 48.5t47.5 136.5v334q0 14 -15 15l-71 6v72h267v-72z" />
    <glyph glyph-name="udieresisacute" unicode="&#x1d8;" horiz-adv-x="693" 
d="M391 728h-99l106 163h131zM252 693q24 0 40.5 -17t16.5 -40t-16.5 -40t-41 -17t-40.5 17t-16 40q0 11 4 21.5t11.5 18.5t18.5 12.5t23 4.5zM441.5 693q24.5 0 41 -17t16.5 -40t-16.5 -40t-41 -17t-41 17t-16.5 40t16.5 40t41 17zM40 499h181q8 0 8 -8v-321q0 -98 88 -98
q67 0 150 53v286q0 14 -14 15l-67 6v67h184q8 0 8 -8v-404q0 -15 15 -16l61 -3v-66l-178 -9q-9 0 -9 8v63q-47 -33 -100.5 -53.5t-100.5 -20.5q-67 0 -107.5 40.5t-40.5 119.5v261q0 14 -14 15l-64 6v67z" />
    <glyph glyph-name="Udieresiscaron" unicode="&#x1d9;" horiz-adv-x="828" 
d="M484 938h-139l-111 162h98l82 -104l82 104h99zM319 893q24 0 41 -17t17 -40t-17 -40t-41 -17t-40.5 17t-16.5 40t16.5 40t40.5 17zM509 893q24 0 40.5 -17t16.5 -40t-16.5 -40t-40.5 -17t-40.5 17t-16.5 40t16.5 40t40.5 17zM778 627l-67 -5q-14 -2 -14 -16v-334
q0 -126 -76.5 -204t-203.5 -78q-83 0 -146.5 35.5t-98 99.5t-34.5 147v334q0 14 -14 15l-62 6q-7 0 -7 7v65h285v-72l-67 -5q-14 -2 -14 -16v-334q0 -89 45 -137t120 -48q78 0 125.5 48.5t47.5 136.5v334q0 14 -15 15l-71 6v72h267v-72z" />
    <glyph glyph-name="udieresiscaron" unicode="&#x1da;" horiz-adv-x="693" 
d="M416 728h-138l-112 163h99l82 -105l82 105h98zM252 693q24 0 40.5 -17t16.5 -40t-16.5 -40t-41 -17t-40.5 17t-16 40q0 11 4 21.5t11.5 18.5t18.5 12.5t23 4.5zM441.5 693q24.5 0 41 -17t16.5 -40t-16.5 -40t-41 -17t-41 17t-16.5 40t16.5 40t41 17zM40 499h181q8 0 8 -8
v-321q0 -98 88 -98q67 0 150 53v286q0 14 -14 15l-67 6v67h184q8 0 8 -8v-404q0 -15 15 -16l61 -3v-66l-178 -9q-9 0 -9 8v63q-47 -33 -100.5 -53.5t-100.5 -20.5q-67 0 -107.5 40.5t-40.5 119.5v261q0 14 -14 15l-64 6v67z" />
    <glyph glyph-name="Udieresisgrave" unicode="&#x1db;" horiz-adv-x="828" 
d="M468 938h-99l-138 162h131zM319 893q24 0 41 -17t17 -40t-17 -40t-41 -17t-40.5 17t-16.5 40t16.5 40t40.5 17zM509 893q24 0 40.5 -17t16.5 -40t-16.5 -40t-40.5 -17t-40.5 17t-16.5 40t16.5 40t40.5 17zM778 627l-67 -5q-14 -2 -14 -16v-334q0 -126 -76.5 -204
t-203.5 -78q-83 0 -146.5 35.5t-98 99.5t-34.5 147v334q0 14 -14 15l-62 6q-7 0 -7 7v65h285v-72l-67 -5q-14 -2 -14 -16v-334q0 -89 45 -137t121 -48q77 0 124.5 48.5t47.5 136.5v334q0 14 -15 15l-71 6v72h267v-72z" />
    <glyph glyph-name="udieresisgrave" unicode="&#x1dc;" horiz-adv-x="693" 
d="M401 728h-99l-139 163h132zM252 693q24 0 40.5 -17t16.5 -40t-16.5 -40t-41 -17t-40.5 17t-16 40q0 11 4 21.5t11.5 18.5t18.5 12.5t23 4.5zM441.5 693q24.5 0 41 -17t16.5 -40t-16.5 -40t-41 -17t-41 17t-16.5 40t16.5 40t41 17zM40 499h181q8 0 8 -8v-321q0 -98 88 -98
q67 0 150 53v286q0 14 -14 15l-67 6v67h184q8 0 8 -8v-404q0 -15 15 -16l61 -3v-66l-178 -9q-9 0 -9 8v63q-47 -33 -100.5 -53.5t-100.5 -20.5q-67 0 -107.5 40.5t-40.5 119.5v261q0 14 -14 15l-64 6v67z" />
    <glyph glyph-name="Adieresismacron" unicode="&#x1de;" horiz-adv-x="792" 
d="M555 924h-317v81h317v-81zM301.5 878q24.5 0 41 -17.5t16.5 -40t-16.5 -40t-41 -17.5t-41 17.5t-16.5 40t16.5 40t41 17.5zM491 878q24 0 41 -17.5t17 -40t-17 -40t-41 -17.5t-40.5 17.5t-16.5 40.5q0 14 7 27.5t20.5 21.5t29.5 8zM712 77l59 -5v-72h-277v64q0 7 7 8
l57 5q6 0 10.5 3.5t5.5 8.5t-1 11l-40 99h-298l-49 -121l83 -6v-72h-247v65q0 7 7 7l43 4q9 1 12 9l248 611l121 7zM271 295h226l-112 283z" />
    <glyph glyph-name="adieresismacron" unicode="&#x1df;" 
d="M423 735h-317v81h317v-81zM170 693q24 0 40.5 -17t16.5 -40t-16.5 -40t-40.5 -17t-40.5 17t-16.5 40q0 11 4 21.5t11.5 18.5t18.5 12.5t23 4.5zM359.5 693q24.5 0 41 -17t16.5 -40t-16.5 -40t-41 -17t-41 17t-16.5 40t16.5 40t41 17zM256 509q32 0 60 -6t53.5 -19.5
t43.5 -34t29 -50.5t11 -67v-244q0 -14 14 -15l59 -5v-68h-161q-6 0 -7 7l-5 54q-28 -33 -69.5 -52t-89.5 -19q-70 0 -113.5 40.5t-43.5 102.5q0 58 41.5 89t133.5 56l130 35v21q0 49 -27 71t-71 22q-49 0 -96 -23q-8 -3 -9 -12l-5 -60h-58v123q0 4 2 6q34 20 82.5 33.5
t95.5 14.5zM342 244l-105 -28q-50 -13 -69 -28t-19 -45q0 -32 23 -50.5t62 -18.5q67 0 105 51l3 3v116z" />
    <glyph glyph-name="Gcaron" unicode="&#x1e6;" horiz-adv-x="703" 
d="M440 762h-139l-111 162h99l82 -104l82 104h98zM392 709q117 0 228 -59q4 -2 4 -6v-147h-70l-6 68q0 9 -8 12q-77 35 -148 35q-47 -1 -87 -17t-70 -47.5t-47 -82t-17 -115.5q0 -123 60 -192.5t161 -69.5q97 0 154 60v105q0 15 -15 16l-132 7v74h243q8 0 8 -8v-342h-71
l-7 56q-84 -65 -199 -65q-147 0 -237 100t-90 259q0 87 27.5 156.5t75.5 113t110 66.5t133 23z" />
    <glyph glyph-name="gcaron" unicode="&#x1e7;" horiz-adv-x="574" 
d="M351 562h-139l-111 162h98l82 -104l82 104h99zM535 446l-88 -7q46 -38 46 -104q0 -54 -26 -93.5t-73 -60.5t-111 -21q-42 0 -77 10q-36 -11 -36 -34q0 -27 28 -37.5t95 -10.5q220 0 220 -151q0 -77 -64.5 -121t-174.5 -44q-71 0 -126 20t-84.5 55t-29.5 80q0 38 24.5 69
t67.5 52q-50 21 -50 66q0 52 72 81q-74 46 -74 140q0 80 56.5 127.5t152.5 47.5h252v-64zM283.5 439q-47.5 0 -73 -26t-25.5 -78t25.5 -78.5t73 -26.5t73 26.5t25.5 78.5t-25.5 78t-73 26zM242 17l-10 -2q-47 -9 -73 -31t-26 -53q0 -38 38 -61.5t102 -23.5q43 0 75 10.5
t49 30t17 44.5q0 85 -142 85q-4 0 -30 1z" />
    <glyph glyph-name="DZ" unicode="&#x1f1;" horiz-adv-x="1343" 
d="M55 700h307q155 0 250.5 -96.5t95.5 -254t-95 -253.5t-251 -96h-307v64q0 8 7 8l57 5q14 1 14 15v516q0 14 -14 15l-57 5q-7 0 -7 8v64zM1311 633l-368 -537h281q15 0 16 14l5 61h70l-1 -164q0 -8 -7 -8h-527v67l372 537h-260q-14 0 -15 -14l-5 -56h-70l1 159q0 8 7 8
h501v-67zM302 603l-49 -3v-500l49 -3h60q102 0 161.5 65.5t59.5 187t-59.5 187.5t-161.5 66h-60z" />
    <glyph glyph-name="Dz" unicode="&#x1f2;" horiz-adv-x="1247" 
d="M55 700h307q155 0 250.5 -96.5t95.5 -254t-95 -253.5t-251 -96h-307v64q0 8 7 8l57 5q14 1 14 15v516q0 14 -14 15l-57 5q-7 0 -7 8v64zM302 603l-49 -3v-500l49 -3h60q102 0 161.5 65.5t59.5 187t-59.5 187.5t-161.5 66h-60zM1191 454l-264 -383h198q15 0 16 14l4 53h57
v-130q0 -8 -8 -8h-401v46l264 383h-171q-14 0 -15 -14l-5 -51h-56v128q0 8 8 8h373v-46z" />
    <glyph glyph-name="dz" unicode="&#x1f3;" horiz-adv-x="1128" 
d="M325 740l178 10q8 0 8 -8v-654q0 -14 15 -16l59 -4v-68h-161q-7 0 -8 7l-4 53q-62 -70 -158 -70q-97 0 -155.5 67.5t-58.5 194.5q0 38 6.5 73.5t22 69.5t39 59t60 40.5t82.5 15.5q93 0 151 -63v209q0 15 -15 15l-61 3v66zM1072 454l-264 -383h198q15 0 16 14l4 53h57
v-130q0 -8 -8 -8h-401v46l264 383h-171q-14 0 -15 -14l-5 -51h-56v128q0 8 8 8h373v-46zM289 427q-62 0 -98.5 -46.5t-36.5 -128.5q0 -56 18.5 -96t51.5 -60.5t76 -20.5q64 0 100 46l1 244q-38 62 -112 62z" />
    <glyph glyph-name="Oslashacute" unicode="&#x1fe;" horiz-adv-x="778" 
d="M436 762h-99l106 162h131zM581 750l-26 -79q85 -43 132.5 -127.5t47.5 -193.5q0 -159 -95.5 -259t-250.5 -100q-27 0 -53 3l-14 -44h-125l26 79q-85 43 -132.5 127t-47.5 194q0 104 43 185.5t122 127t181 45.5q27 0 53 -3l14 45h125zM168 350q0 -150 88 -219l155 480
q-11 1 -22 1q-101 0 -161 -70t-60 -192zM389 88q101 0 161 69.5t60 192.5q0 150 -88 219l-155 -480q11 -1 22 -1z" />
    <glyph glyph-name="oslashacute" unicode="&#x1ff;" horiz-adv-x="601" 
d="M344 573h-99l106 163h131zM443 550l-21 -65q66 -31 102.5 -93t36.5 -142q0 -114 -71 -187t-189 -73q-20 0 -39 2l-14 -42h-90l21 65q-66 31 -102.5 93t-36.5 142q0 114 71 187t189 73q20 0 39 -2l13 42h91zM154 250q0 -97 54 -145l105 322l-12 1q-67 0 -107 -47t-40 -131
zM288 73h12q67 0 107 47t40 130q0 97 -54 145z" />
    <glyph glyph-name="Scommaaccent" unicode="&#x218;" horiz-adv-x="562" 
d="M316 711q96 1 163 -38q3 -2 3 -6v-147h-70l-5 69q-1 8 -8 11q-34 16 -81 16q-63 0 -101 -23t-38 -60q0 -25 6.5 -39.5t32.5 -33t83 -45.5q130 -62 173.5 -106.5t43.5 -110.5q0 -67 -37 -114.5t-98.5 -69.5t-143.5 -22q-93 0 -190 39q-5 1 -5 6v147h70l5 -62q0 -9 9 -12
q56 -22 123 -22q64 0 102 25.5t38 69.5q0 18 -3.5 29t-16 23.5t-34 25.5t-61.5 33q-78 37 -122 64t-67 54.5t-29 50.5t-6 62q0 85 76.5 135t187.5 51zM278 -41q34 0 47 -30.5t2 -74.5q-10 -46 -42 -89l-43 14q14 28 20 53q4 20 1 33h-2q-14 5 -22.5 17.5t-8.5 27.5
q0 12 6 23.5t17.5 18.5t24.5 7z" />
    <glyph glyph-name="scommaaccent" unicode="&#x219;" horiz-adv-x="442" 
d="M253 510q70 0 121 -26q4 -2 4 -6v-121h-57l-5 61q-1 10 -9 12q-21 8 -49 8q-20 0 -38 -4t-30 -11.5t-18.5 -18t-6.5 -22.5q0 -26 14.5 -41t70.5 -43q90 -45 120 -77t30 -79q0 -73 -58.5 -111.5t-153.5 -38.5q-64 0 -138 26q-5 1 -5 7v118h57l5 -56q1 -10 9 -13
q36 -12 77 -12q30 0 53 8.5t35.5 24t12.5 36.5q0 24 -14 38t-68 41t-85.5 46.5t-47.5 39t-20 36.5t-4 45q0 61 57.5 97t140.5 36zM218 -41q34 0 47.5 -30.5t2.5 -74.5q-11 -46 -43 -89l-43 14q14 28 20 53q4 20 1 33h-2q-14 5 -22.5 17.5t-8.5 27.5q0 19 14 34t34 15z" />
    <glyph glyph-name="uni021A" unicode="&#x21a;" horiz-adv-x="653" 
d="M30 700h593q8 0 8 -8v-169h-70l-5 69q-1 15 -16 15h-154v-515q0 -14 15 -15l64 -5v-72h-278v64q0 8 7 8l58 5q14 1 14 16v514h-154q-14 0 -15 -15l-5 -69h-70v169q0 8 8 8zM324 -41q34 0 47 -30.5t2 -74.5q-11 -46 -42 -89l-44 14q15 28 21 53q4 20 1 33h-2
q-14 5 -23 17.5t-9 27.5q0 12 6 23.5t17.5 18.5t25.5 7z" />
    <glyph glyph-name="uni021B" unicode="&#x21b;" horiz-adv-x="397" 
d="M196 500h129v-68l-129 -7v-301q0 -27 16.5 -41.5t43.5 -14.5q38 0 62 25l26 -53q-37 -51 -119 -51q-64 0 -101.5 32.5t-37.5 86.5v317l-54 3q-7 0 -7 8v60l61 1v127l110 5v-129zM195 -41q34 0 47.5 -30.5t2.5 -74.5q-11 -46 -43 -89l-43 14q14 28 20 53q4 20 1 33h-1
q-7 3 -13 7.5t-10.5 10t-6.5 13t-2 14.5q0 19 14 34t34 15z" />
    <glyph glyph-name="uni0228" unicode="&#x228;" horiz-adv-x="592" 
d="M55 700h483q8 0 8 -8v-172h-70l-5 69q-1 14 -16 14h-202v-204h203v-91h-203v-211h220q14 0 15 14l6 69h70v-172q0 -8 -8 -8h-229l-18 -45q2 0 6.5 -0.5t7.5 -1.5q34 -7 53.5 -31t17.5 -53q-2 -35 -32 -60.5t-77 -25.5q-48 0 -86 28l16 49q23 -15 46 -16q15 -2 27 1.5
t19.5 13t8.5 23.5q0 36 -47 40q-12 1 -32 -1l26 79h-208v64q0 8 7 8l57 5q14 1 14 15v516q0 14 -14 15l-57 5q-7 0 -7 8v64z" />
    <glyph glyph-name="uni0229" unicode="&#x229;" horiz-adv-x="546" 
d="M276 510q119 0 176 -67t58 -186v-18q0 -7 -7 -7l-347 -9q6 -71 44.5 -111t98.5 -39q82 0 151 58l32 -75q-69 -63 -178 -66h-5l-14 -35q2 0 7 -0.5t7 -1.5q35 -7 54 -31t17 -53q-2 -35 -32 -60.5t-77 -25.5q-48 0 -86 28l16 49q23 -15 46 -16q23 -2 38.5 7.5t17.5 30.5
q0 36 -48 40q-12 1 -31 -1l23 75q-91 16 -144 85.5t-53 168.5q0 114 64.5 187t171.5 73zM278 432q-35 0 -61 -16t-42 -47t-19 -75h230q10 0 8 12q-10 126 -116 126z" />
    <glyph glyph-name="uni022A" unicode="&#x22a;" horiz-adv-x="778" 
d="M548 932h-318v81h318v-81zM294 878q24 0 40.5 -17.5t16.5 -40t-16.5 -40t-40.5 -17.5t-40.5 17.5t-16.5 40t16.5 40t40.5 17.5zM484 878q24 0 40.5 -17.5t16.5 -40t-16.5 -40t-41 -17.5t-41 17.5t-16.5 40.5q0 14 7.5 27.5t21 21.5t29.5 8zM389 708q155 0 250.5 -100
t95.5 -258.5t-95.5 -258.5t-250.5 -100t-250.5 100t-95.5 259q0 104 43 185.5t122 127t181 45.5zM389 612q-101 0 -161 -70t-60 -192.5t60 -192t161 -69.5t161 69.5t60 192t-60 192.5t-161 70z" />
    <glyph glyph-name="uni022B" unicode="&#x22b;" horiz-adv-x="601" 
d="M459 736h-317v81h317v-81zM206 693q24 0 40.5 -17t16.5 -40t-16.5 -40t-41 -17t-41 17t-16.5 40q0 11 4.5 21.5t12 18.5t18 12.5t23.5 4.5zM395 693q24 0 41 -17t17 -40t-17 -40t-41 -17t-40.5 17t-16.5 40t16.5 40t40.5 17zM300 510q79 0 138.5 -34t91 -92.5
t31.5 -133.5q0 -114 -71 -187t-189.5 -73t-189.5 73t-71 187t71 187t189 73zM300.5 427q-66.5 0 -106.5 -46.5t-40 -130t40 -130.5t106.5 -47t106.5 47t40 130.5t-40 130t-106.5 46.5z" />
    <glyph glyph-name="circumflex" unicode="&#x2c6;" horiz-adv-x="438" 
d="M400 562h-99l-82 105l-82 -105h-98l111 162h139z" />
    <glyph glyph-name="caron" unicode="&#x2c7;" horiz-adv-x="439" 
d="M289 562h-139l-111 162h99l82 -104l82 104h98z" />
    <glyph glyph-name="breve" unicode="&#x2d8;" horiz-adv-x="384" 
d="M274 710h71q0 -63 -44 -107t-109 -44q-32 0 -60.5 12t-49 32.5t-32 48t-11.5 58.5h71q0 -36 24 -60.5t58 -24.5t58 24.5t24 60.5z" />
    <glyph glyph-name="dotaccent" unicode="&#x2d9;" horiz-adv-x="192" 
d="M96 693q24 0 40.5 -17t16.5 -40t-16.5 -40t-40.5 -17t-40.5 17t-16.5 40t16.5 40t40.5 17z" />
    <glyph glyph-name="ring" unicode="&#x2da;" horiz-adv-x="306" 
d="M153 757q48 0 81 -33.5t33 -80.5t-33 -81t-81 -34q-32 0 -58.5 16t-41 42t-14.5 56.5t14.5 57t41 42t58.5 15.5zM153 701q-23 0 -39.5 -16.5t-16.5 -42t16.5 -42t39.5 -16.5q15 0 28 7.5t20.5 21t7.5 30.5q0 25 -16.5 41.5t-39.5 16.5z" />
    <glyph glyph-name="ogonek" unicode="&#x2db;" horiz-adv-x="268" 
d="M110 6h74q-73 -37 -73 -98q0 -27 14.5 -42t38.5 -15q18 -1 49 13l16 -58q-46 -22 -87 -22q-46 0 -73 25t-30 64q-2 35 16 70.5t55 62.5z" />
    <glyph glyph-name="tilde" unicode="&#x2dc;" horiz-adv-x="394" 
d="M291 682l65 -13q-2 -45 -24 -69.5t-58 -27.5q-25 -3 -61 10q-12 4 -37.5 15.5t-33.5 12.5t-14 -2.5t-12 -13t-13 -28.5l-65 20q14 82 72 93q33 5 87 -18q43 -18 59 -14q20 3 35 35z" />
    <glyph glyph-name="hungarumlaut" unicode="&#x2dd;" horiz-adv-x="494" 
d="M137 562h-98l94 162h131zM329 562h-99l94 162h132z" />
    <glyph glyph-name="dotbelowcomb" unicode="&#x323;" horiz-adv-x="0" 
d="M95.5 -78q24.5 0 41 -17t16.5 -40t-16.5 -40.5t-40.5 -17.5t-40.5 17.5t-16.5 40.5t16 40t40.5 17z" />
    <glyph glyph-name="commaaccentcomb" unicode="&#x326;" horiz-adv-x="0" 
d="M70 -41q34 0 47 -30.5t2 -74.5q-10 -46 -42 -89l-43 14q14 28 20 53q4 20 1 33h-2q-14 5 -22.5 17.5t-8.5 27.5q0 19 14 34t34 15z" />
    <glyph glyph-name="circumflexbelowcomb" unicode="&#x32d;" horiz-adv-x="0" 
d="M400 -213h-99l-82 105l-82 -105h-98l111 163h139z" />
    <glyph glyph-name="macronbelowcomb" unicode="&#x331;" horiz-adv-x="0" 
d="M356 -156h-317v82h317v-82z" />
    <glyph glyph-name="Delta" unicode="&#x394;" horiz-adv-x="600" 
 />
    <glyph glyph-name="Omega" unicode="&#x3a9;" horiz-adv-x="600" 
 />
    <glyph glyph-name="mu" unicode="&#x3bc;" horiz-adv-x="600" 
 />
    <glyph glyph-name="pi" unicode="&#x3c0;" horiz-adv-x="600" 
 />
    <glyph glyph-name="Bdotbelow" unicode="&#x1e04;" horiz-adv-x="672" 
d="M57 700h326q101 0 163.5 -51t62.5 -132q0 -47 -22.5 -84t-63.5 -59q57 -23 88.5 -68t31.5 -104q0 -90 -67.5 -146t-177.5 -56h-341v64q0 8 7 8l57 5q15 1 15 15v516q0 14 -15 15l-57 5q-7 0 -7 8v64zM303 603l-48 -3v-185h130q50 0 79 25t29 69q0 22 -7.5 39.5t-21 29.5
t-34 18.5t-45.5 6.5h-82zM255 318v-218l48 -3h92q59 0 93.5 29.5t34.5 81t-34.5 81t-93.5 29.5h-140zM326 -78q24 0 40.5 -17t16.5 -40t-16.5 -40.5t-40.5 -17.5t-40.5 17.5t-16.5 40.5t16.5 40t40.5 17z" />
    <glyph glyph-name="bdotbelow" unicode="&#x1e05;" horiz-adv-x="631" 
d="M45 740l177 10q9 0 9 -8v-294q57 62 149 62q98 0 154.5 -65.5t56.5 -180.5q0 -73 -21.5 -127t-60 -85.5t-87.5 -46.5t-111 -15q-92 0 -191 34v632q0 15 -15 15l-60 3v66zM341 427q-72 0 -110 -62v-274q46 -18 92 -18q69 0 111.5 44t42.5 133q0 84 -36.5 130.5t-99.5 46.5
zM327.5 -78q24.5 0 41 -17t16.5 -40t-17 -40.5t-41 -17.5t-40.5 17.5t-16.5 40.5t16.5 40t41 17z" />
    <glyph glyph-name="Ddotbelow" unicode="&#x1e0c;" horiz-adv-x="751" 
d="M55 700h307q155 0 250.5 -96.5t95.5 -254t-95 -253.5t-251 -96h-307v64q0 8 7 8l57 5q14 1 14 15v516q0 14 -14 15l-57 5q-7 0 -7 8v64zM302 603l-49 -3v-500l49 -3h60q102 0 161.5 65.5t59.5 187t-59.5 187.5t-161.5 66h-60zM351.5 -78q24.5 0 41 -17t16.5 -40
t-16.5 -40.5t-41 -17.5t-41 17.5t-16.5 40.5t16.5 40t41 17z" />
    <glyph glyph-name="ddotbelow" unicode="&#x1e0d;" horiz-adv-x="632" 
d="M325 740l178 10q8 0 8 -8v-654q0 -14 15 -16l59 -4v-68h-161q-7 0 -8 7l-4 53q-62 -70 -158 -70q-97 0 -155.5 67.5t-58.5 194.5q0 38 6.5 73.5t22 69.5t39 59t60 40.5t82.5 15.5q93 0 151 -63v209q0 15 -15 15l-61 3v66zM289 427q-62 0 -98.5 -46.5t-36.5 -129t40 -129
t106 -47.5q64 0 100 46l1 244q-38 62 -112 62zM315.5 -78q24.5 0 41 -17t16.5 -40t-16.5 -40.5t-40.5 -17.5q-12 0 -23 5t-18.5 13t-11.5 18.5t-4 21.5q0 23 16 40t40.5 17z" />
    <glyph glyph-name="Dlinebelow" unicode="&#x1e0e;" horiz-adv-x="751" 
d="M55 700h307q155 0 250.5 -96.5t95.5 -254t-95 -253.5t-251 -96h-307v64q0 8 7 8l57 5q14 1 14 15v516q0 14 -14 15l-57 5q-7 0 -7 8v64zM302 603l-49 -3v-500l49 -3h60q102 0 161.5 65.5t59.5 187t-59.5 187.5t-161.5 66h-60zM540 -156h-317v82h317v-82z" />
    <glyph glyph-name="dlinebelow" unicode="&#x1e0f;" horiz-adv-x="632" 
d="M325 740l178 10q8 0 8 -8v-654q0 -14 15 -16l59 -4v-68h-161q-7 0 -8 7l-4 53q-62 -70 -158 -70q-97 0 -155.5 67.5t-58.5 194.5q0 38 6.5 73.5t22 69.5t39 59t60 40.5t82.5 15.5q93 0 151 -63v209q0 15 -15 15l-61 3v66zM289 427q-62 0 -98.5 -46.5t-36.5 -129t40 -129
t106 -47.5q64 0 100 46l1 244q-38 62 -112 62zM474 -156h-317v82h317v-82z" />
    <glyph glyph-name="Dcircumflexbelow" unicode="&#x1e12;" horiz-adv-x="751" 
d="M55 700h307q155 0 250.5 -96.5t95.5 -254t-95 -253.5t-251 -96h-307v64q0 8 7 8l57 5q14 1 14 15v516q0 14 -14 15l-57 5q-7 0 -7 8v64zM302 603l-49 -3v-500l49 -3h60q102 0 161.5 65.5t59.5 187t-59.5 187.5t-161.5 66h-60zM532 -213h-98l-82 105l-82 -105h-99l111 163
h139z" />
    <glyph glyph-name="dcircumflexbelow" unicode="&#x1e13;" horiz-adv-x="632" 
d="M325 740l178 10q8 0 8 -8v-654q0 -14 15 -16l59 -4v-68h-161q-7 0 -8 7l-4 53q-62 -70 -158 -70q-97 0 -155.5 67.5t-58.5 194.5q0 38 6.5 73.5t22 69.5t39 59t60 40.5t82.5 15.5q93 0 151 -63v209q0 15 -15 15l-61 3v66zM289 427q-62 0 -98.5 -46.5t-36.5 -129t40 -129
t106 -47.5q64 0 100 46l1 244q-38 62 -112 62zM496 -213h-98l-82 105l-82 -105h-99l112 163h138z" />
    <glyph glyph-name="Hdotbelow" unicode="&#x1e24;" horiz-adv-x="857" 
d="M803 628l-65 -5q-14 -1 -14 -15v-516q0 -14 14 -15l65 -5v-72h-284v64q0 8 7 8l64 6q14 1 14 15v215h-351v-215q0 -14 15 -15l70 -6v-72h-283v64q0 8 7 8l57 5q14 1 14 15v516q0 14 -14 15l-57 5q-7 0 -7 8v64h283v-72l-70 -6q-15 -1 -15 -15v-202h351v202q0 14 -14 15
l-64 6q-7 0 -7 8v64h284v-72zM428.5 -78q24.5 0 41 -17t16.5 -40t-17 -40.5t-41 -17.5t-40.5 17.5t-16.5 40.5t16.5 40t41 17z" />
    <glyph glyph-name="hdotbelow" unicode="&#x1e25;" horiz-adv-x="708" 
d="M55 740l178 10q8 0 8 -8v-307q48 34 101.5 54t99.5 20q67 0 107.5 -40.5t40.5 -119.5v-261q0 -14 14 -15l65 -5v-68h-182q-8 0 -8 8v321q0 98 -88 98q-66 0 -150 -53v-285q0 -15 14 -16l67 -5v-68h-267v61q0 7 7 7l54 5q14 1 14 16v567q0 15 -15 15l-60 3v66zM354.5 -78
q24.5 0 41 -17t16.5 -40t-17 -40.5t-41 -17.5q-12 0 -22.5 5t-18 13t-12 18.5t-4.5 21.5q0 23 16.5 40t41 17z" />
    <glyph glyph-name="Idieresisacute" unicode="&#x1e2e;" horiz-adv-x="388" 
d="M238 913h-98l105 163h132zM99.5 878q24.5 0 41 -17.5t16.5 -40t-16.5 -40t-41 -17.5t-41 17.5t-16.5 40t16.5 40t41 17.5zM289 878q24 0 40.5 -17.5t16.5 -40t-16.5 -40t-40.5 -17.5t-40.5 17.5t-16.5 40.5q0 14 7 27.5t20.5 21.5t29.5 8zM333 628l-65 -5q-14 -1 -14 -16
v-514q0 -15 14 -16l65 -5v-72h-278v64q0 8 7 8l58 5q14 1 14 16v514q0 15 -14 16l-58 5q-7 0 -7 8v64h278v-72z" />
    <glyph glyph-name="idieresisacute" unicode="&#x1e2f;" horiz-adv-x="373" 
d="M222 728h-99l106 163h131zM83 693q24 0 40.5 -17t16.5 -40t-16.5 -40t-40.5 -17q-16 0 -29.5 8t-20.5 21t-7 28q0 23 16.5 40t40.5 17zM272.5 693q24.5 0 41 -17t16.5 -40t-16.5 -40t-41 -17t-41 17t-16.5 40t16.5 40t41 17zM55 497l177 9q9 1 9 -8v-409q0 -15 14 -16
l68 -5v-68h-268v61q0 7 7 7l54 5q14 1 14 16v323q0 15 -15 16l-60 3v66z" />
    <glyph glyph-name="Ldotbelow" unicode="&#x1e36;" horiz-adv-x="578" 
d="M338 628l-70 -6q-15 -1 -15 -15v-510h208q14 0 15 14l6 69h70v-172q0 -8 -8 -8h-489v64q0 8 7 8l57 5q14 1 14 15v516q0 14 -14 15l-57 5q-7 0 -7 8v64h283v-72zM288.5 -78q24.5 0 41 -17t16.5 -40t-16.5 -40.5t-40.5 -17.5t-40.5 17.5t-16.5 40.5t16 40t40.5 17z" />
    <glyph glyph-name="ldotbelow" unicode="&#x1e37;" horiz-adv-x="363" 
d="M55 740l177 10q9 0 9 -9v-652q0 -15 14 -16l68 -5v-68h-267v61q0 7 7 7l53 5q14 1 14 15v568q0 14 -15 15l-60 3v66zM181.5 -78q24.5 0 41 -17t16.5 -40q0 -11 -4.5 -21.5t-12 -18.5t-18.5 -13t-23 -5q-24 0 -40.5 17.5t-16.5 40.5t16.5 40t41 17z" />
    <glyph glyph-name="Lcircumflexbelow" unicode="&#x1e3c;" horiz-adv-x="578" 
d="M338 628l-70 -6q-15 -1 -15 -15v-510h208q14 0 15 14l6 69h70v-172q0 -8 -8 -8h-489v64q0 8 7 8l57 5q14 1 14 15v516q0 14 -14 15l-57 5q-7 0 -7 8v64h283v-72zM469 -213h-98l-82 105l-82 -105h-99l112 163h138z" />
    <glyph glyph-name="lcircumflexbelow" unicode="&#x1e3d;" horiz-adv-x="363" 
d="M55 740l177 10q9 0 9 -9v-652q0 -15 14 -16l68 -5v-68h-267v61q0 7 7 7l53 5q14 1 14 15v568q0 14 -15 15l-60 3v66zM362 -213h-98l-82 105l-82 -105h-99l111 163h139z" />
    <glyph glyph-name="Macute" unicode="&#x1e3e;" horiz-adv-x="1031" 
d="M560 762h-99l106 162h131zM916 628l-58 -4q-7 -1 -11 -6t-3 -13l70 -528l68 -5v-72h-275v72l71 6q8 0 12 5t3 13l-52 423l-195 -519h-76l-194 520l-59 -441l89 -7v-72h-259v64q0 8 7 8l51 4q12 1 13 13l70 516q1 8 -3.5 13t-11.5 6l-51 4q-7 0 -7 8v64h215l189 -500
l191 500h206v-72z" />
    <glyph glyph-name="macute" unicode="&#x1e3f;" horiz-adv-x="1015" 
d="M560 562h-99l106 162h131zM756 509q42 0 73 -17t49.5 -53.5t18.5 -89.5v-261q0 -14 14 -15l65 -5v-68h-182q-8 0 -8 8v321q0 98 -82 98q-62 0 -142 -54q3 -16 3 -50v-235q0 -14 15 -15l64 -5v-68h-182q-8 0 -8 8v321q0 98 -81 98q-61 0 -140 -52v-286q0 -15 15 -16l66 -5
v-68h-267v61q0 7 7 7l54 5q15 1 15 16v323q0 15 -15 16l-61 3v66l178 9q8 1 8 -8v-63q46 34 96.5 54t94.5 20q46 0 79.5 -21t49.5 -63q47 38 101.5 61t101.5 23z" />
    <glyph glyph-name="Ndotaccent" unicode="&#x1e44;" horiz-adv-x="846" 
d="M423 893q24 0 41 -17t17 -40t-17 -40t-41 -17q-16 0 -29 8t-20.5 21t-7.5 28q0 23 16.5 40t40.5 17zM797 628l-65 -5q-15 -1 -15 -15v-608h-109l-369 499v-406q0 -15 14 -16l64 -5v-72h-267v64q0 8 7 8l58 5q14 1 14 16v514q0 15 -14 16l-58 5q-7 0 -7 8v64h179l379 -511
v419q0 14 -14 15l-57 5q-7 0 -7 8v64h267v-72z" />
    <glyph glyph-name="ndotaccent" unicode="&#x1e45;" horiz-adv-x="700" 
d="M349 693q24 0 40.5 -17t16.5 -40t-16.5 -40t-41 -17t-40.5 17t-16 40q0 11 4 21.5t11.5 18.5t18.5 12.5t23 4.5zM434 509q67 0 107.5 -40.5t40.5 -119.5v-261q0 -14 15 -15l64 -5v-68h-181q-8 0 -8 8v321q0 98 -88 98q-67 0 -151 -53v-285q0 -15 15 -16l66 -5v-68h-267
v61q0 7 7 7l54 5q15 1 15 16v323q0 15 -15 16l-61 3v66l178 9q8 1 8 -8v-63q48 34 101.5 54t99.5 20z" />
    <glyph glyph-name="Ndotbelow" unicode="&#x1e46;" horiz-adv-x="846" 
d="M797 628l-65 -5q-15 -1 -15 -15v-608h-109l-369 499v-406q0 -15 14 -16l64 -5v-72h-267v64q0 8 7 8l58 5q14 1 14 16v514q0 15 -14 16l-58 5q-7 0 -7 8v64h179l379 -511v419q0 14 -14 15l-57 5q-7 0 -7 8v64h267v-72zM423 -78q24 0 41 -17t17 -40t-17 -40.5t-41 -17.5
t-40.5 17.5t-16.5 40.5t16.5 40t40.5 17z" />
    <glyph glyph-name="ndotbelow" unicode="&#x1e47;" horiz-adv-x="700" 
d="M434 509q67 0 107.5 -40.5t40.5 -119.5v-261q0 -14 15 -15l64 -5v-68h-181q-8 0 -8 8v321q0 98 -88 98q-67 0 -151 -53v-285q0 -15 15 -16l66 -5v-68h-267v61q0 7 7 7l54 5q15 1 15 16v323q0 15 -15 16l-61 3v66l178 9q8 1 8 -8v-63q48 34 101.5 54t99.5 20zM348.5 -78
q24.5 0 41 -17t16.5 -40t-16.5 -40.5t-40.5 -17.5t-40.5 17.5t-16.5 40.5t16 40t40.5 17z" />
    <glyph glyph-name="Ncircumflexbelow" unicode="&#x1e4a;" horiz-adv-x="846" 
d="M797 628l-65 -5q-15 -1 -15 -15v-608h-109l-369 499v-406q0 -15 14 -16l64 -5v-72h-267v64q0 8 7 8l58 5q14 1 14 16v514q0 15 -14 16l-58 5q-7 0 -7 8v64h179l379 -511v419q0 14 -14 15l-57 5q-7 0 -7 8v64h267v-72zM604 -213h-99l-82 105l-82 -105h-98l111 163h139z
" />
    <glyph glyph-name="ncircumflexbelow" unicode="&#x1e4b;" horiz-adv-x="700" 
d="M434 509q67 0 107.5 -40.5t40.5 -119.5v-261q0 -14 15 -15l64 -5v-68h-181q-8 0 -8 8v321q0 98 -88 98q-67 0 -151 -53v-285q0 -15 15 -16l66 -5v-68h-267v61q0 7 7 7l54 5q15 1 15 16v323q0 15 -15 16l-61 3v66l178 9q8 1 8 -8v-63q48 34 101.5 54t99.5 20zM529 -213
h-98l-82 105l-82 -105h-99l112 163h138z" />
    <glyph glyph-name="Otildeacute" unicode="&#x1e4c;" horiz-adv-x="778" 
d="M433 906h-99l106 163h131zM483 871l65 -14q-2 -44 -24 -69t-57 -28q-26 -2 -62 10q-12 4 -37.5 15.5t-32.5 12.5q-13 1 -21 -8t-19 -35l-65 19q15 82 72 93q33 6 87 -17q43 -19 60 -15q19 4 34 36zM389 708q155 0 250.5 -100t95.5 -258.5t-95.5 -258.5t-250.5 -100
t-250.5 100t-95.5 259q0 104 43 185.5t122 127t181 45.5zM389 612q-101 0 -161 -70t-60 -192.5t60 -192t161 -69.5t161 69.5t60 192t-60 192.5t-161 70z" />
    <glyph glyph-name="otildeacute" unicode="&#x1e4d;" horiz-adv-x="601" 
d="M344 721h-98l105 163h132zM394 682l66 -13q-1 -30 -12 -51.5t-28.5 -32.5t-41.5 -13q-25 -3 -61 10q-12 4 -37.5 15.5t-33.5 12.5q-12 1 -20.5 -8t-18.5 -35l-66 19q15 82 73 93q33 5 87 -18q42 -18 59 -14q20 3 34 35zM300.5 510q118.5 0 189.5 -73t71 -187t-71 -187
t-189.5 -73t-189.5 73t-71 187t71 187t189.5 73zM300 427q-43 0 -76 -20t-51.5 -60.5t-18.5 -96.5q0 -83 40 -130t106.5 -47t106.5 47t40 130.5t-40 130t-107 46.5z" />
    <glyph glyph-name="Omacrongrave" unicode="&#x1e50;" horiz-adv-x="778" 
d="M443 906h-99l-138 163h131zM548 770h-318v81h318v-81zM389 708q155 0 250.5 -100t95.5 -258.5t-95.5 -258.5t-250.5 -100t-250.5 100t-95.5 258.5t95.5 258.5t250.5 100zM389 612q-101 0 -161 -70t-60 -192.5t60 -192t161 -69.5q67 0 116.5 30.5t77 90t27.5 141
t-27.5 141t-77 90.5t-116.5 31z" />
    <glyph glyph-name="omacrongrave" unicode="&#x1e51;" horiz-adv-x="601" 
d="M355 721h-99l-139 163h132zM459 585h-317v81h317v-81zM300.5 510q118.5 0 189.5 -73t71 -187t-71 -187t-189.5 -73t-189.5 73t-71 187t71 187t189.5 73zM300.5 427q-66.5 0 -106.5 -46.5t-40 -130t40 -130.5t106.5 -47t106.5 47t40 130.5t-40 130t-106.5 46.5z" />
    <glyph glyph-name="Omacronacute" unicode="&#x1e52;" horiz-adv-x="778" 
d="M433 906h-99l106 163h131zM548 770h-318v81h318v-81zM389 708q155 0 250.5 -100t95.5 -258.5t-95.5 -258.5t-250.5 -100t-250.5 100t-95.5 258.5t95.5 258.5t250.5 100zM389 612q-101 0 -161 -70t-60 -192.5t60 -192t161 -69.5q67 0 116.5 30.5t77 90t27.5 141t-27.5 141
t-77 90.5t-116.5 31z" />
    <glyph glyph-name="omacronacute" unicode="&#x1e53;" horiz-adv-x="601" 
d="M344 721h-98l105 163h132zM459 585h-317v81h317v-81zM300.5 510q118.5 0 189.5 -73t71 -187t-71 -187t-189.5 -73t-189.5 73t-71 187t71 187t189.5 73zM300.5 427q-66.5 0 -106.5 -46.5t-40 -130t40 -130.5t106.5 -47t106.5 47t40 130.5t-40 130t-106.5 46.5z" />
    <glyph glyph-name="Sdotbelow" unicode="&#x1e62;" horiz-adv-x="562" 
d="M316 711q96 1 163 -38q3 -2 3 -6v-147h-70l-5 69q-1 8 -8 11q-34 16 -81 16q-63 0 -101 -23t-38 -60q0 -25 6.5 -39.5t32.5 -33t83 -45.5q130 -62 173.5 -106.5t43.5 -110.5q0 -67 -37 -114.5t-98.5 -69.5t-143.5 -22q-93 0 -190 39q-5 1 -5 6v147h70l5 -62q0 -9 9 -12
q56 -22 123 -22q64 0 102 25.5t38 69.5q0 18 -3.5 29t-16 23.5t-34 25.5t-61.5 33q-78 37 -122 64t-67 54.5t-29 50.5t-6 62q0 85 76.5 135t187.5 51zM280.5 -78q24.5 0 41 -17t16.5 -40t-16.5 -40.5t-40.5 -17.5t-40.5 17.5t-16.5 40.5t16 40t40.5 17z" />
    <glyph glyph-name="sdotbelow" unicode="&#x1e63;" horiz-adv-x="442" 
d="M253 510q70 0 121 -26q4 -2 4 -6v-121h-57l-5 61q-1 10 -9 12q-21 8 -49 8q-20 0 -38 -4t-30 -11.5t-18.5 -18t-6.5 -22.5q0 -26 14.5 -41t70.5 -43q90 -45 120 -77t30 -79q0 -73 -58.5 -111.5t-153.5 -38.5q-64 0 -138 26q-5 1 -5 7v118h57l5 -56q1 -10 9 -13
q36 -12 77 -12q30 0 53 8.5t35.5 24t12.5 36.5q0 24 -14 38t-68 41t-85.5 46.5t-47.5 39t-20 36.5t-4 45q0 61 57.5 97t140.5 36zM221 -78q24 0 40.5 -17t16.5 -40t-16.5 -40.5t-40.5 -17.5t-40.5 17.5t-16.5 40.5t16.5 40t40.5 17z" />
    <glyph glyph-name="Tdotbelow" unicode="&#x1e6c;" horiz-adv-x="653" 
d="M30 700h593q8 0 8 -8v-169h-70l-5 69q-1 15 -16 15h-154v-515q0 -14 15 -15l64 -5v-72h-278v64q0 8 7 8l58 5q14 1 14 16v514h-154q-14 0 -15 -15l-5 -69h-70v169q0 8 8 8zM326.5 -78q24.5 0 41 -17t16.5 -40t-17 -40.5t-41 -17.5q-12 0 -22.5 5t-18 13t-12 18.5
t-4.5 21.5q0 23 16.5 40t41 17z" />
    <glyph glyph-name="tdotbelow" unicode="&#x1e6d;" horiz-adv-x="397" 
d="M196 500h129v-68l-129 -7v-301q0 -27 16.5 -41.5t43.5 -14.5q38 0 62 25l26 -53q-37 -51 -119 -51q-64 0 -101.5 32.5t-37.5 86.5v317l-54 3q-7 0 -7 8v60l61 1v127l110 5v-129zM198 -78q24 0 40.5 -17t16.5 -40q0 -11 -4 -21.5t-11.5 -18.5t-18.5 -13t-23 -5
q-24 0 -40.5 17.5t-16.5 40.5t16.5 40t40.5 17z" />
    <glyph glyph-name="Tlinebelow" unicode="&#x1e6e;" horiz-adv-x="653" 
d="M30 700h593q8 0 8 -8v-169h-70l-5 69q-1 15 -16 15h-154v-515q0 -14 15 -15l64 -5v-72h-278v64q0 8 7 8l58 5q14 1 14 16v514h-154q-14 0 -15 -15l-5 -69h-70v169q0 8 8 8zM485 -156h-317v82h317v-82z" />
    <glyph glyph-name="tlinebelow" unicode="&#x1e6f;" horiz-adv-x="397" 
d="M196 500h129v-68l-129 -7v-301q0 -27 16.5 -41.5t43.5 -14.5q38 0 62 25l26 -53q-37 -51 -119 -51q-64 0 -101.5 32.5t-37.5 86.5v317l-54 3q-7 0 -7 8v60l61 1v127l110 5v-129zM361 -156h-318v82h318v-82z" />
    <glyph glyph-name="Tcircumflexbelow" unicode="&#x1e70;" horiz-adv-x="653" 
d="M30 700h593q8 0 8 -8v-169h-70l-5 69q-1 15 -16 15h-154v-515q0 -14 15 -15l64 -5v-72h-278v64q0 8 7 8l58 5q14 1 14 16v514h-154q-14 0 -15 -15l-5 -69h-70v169q0 8 8 8zM507 -213h-98l-82 105l-82 -105h-99l111 163h139z" />
    <glyph glyph-name="tcircumflexbelow" unicode="&#x1e71;" horiz-adv-x="397" 
d="M196 500h129v-68l-129 -7v-301q0 -27 16.5 -41.5t43.5 -14.5q38 0 62 25l26 -53q-37 -51 -119 -51q-64 0 -101.5 32.5t-37.5 86.5v317l-54 3q-7 0 -7 8v60l61 1v127l110 5v-129zM379 -213h-99l-82 105l-82 -105h-98l111 163h139z" />
    <glyph glyph-name="Wgrave" unicode="&#x1e80;" horiz-adv-x="1143" 
d="M626 762h-99l-139 162h132zM1122 628l-69 -6l-191 -622h-102l-191 517l-191 -517h-104l-186 614q-3 9 -13 10l-46 4q-7 0 -7 7v65h172l145 -534l158 434q2 6 0.5 11t-5.5 8.5t-10 4.5l-52 4q-7 1 -7 8v64h215l178 -534l128 436q2 8 -2.5 14.5t-12.5 7.5l-55 4q-7 1 -7 8
v64h255v-72z" />
    <glyph glyph-name="wgrave" unicode="&#x1e81;" horiz-adv-x="857" 
d="M483 562h-99l-139 162h132zM843 432l-47 -4l-158 -428h-101l-110 310l-114 -310h-101l-147 419q-3 9 -11 10l-33 3q-7 1 -7 8v60h141l117 -381l101 286q2 8 -2 15t-13 8l-50 4q-7 0 -7 8v60h178l118 -381l100 286q3 9 -1.5 15.5t-12.5 7.5l-52 5q-7 0 -7 7v60h219v-68z
" />
    <glyph glyph-name="Wacute" unicode="&#x1e82;" horiz-adv-x="1143" 
d="M615 762h-98l106 162h131zM1122 628l-69 -6l-191 -622h-102l-191 517l-191 -517h-104l-186 614q-3 9 -13 10l-46 4q-7 0 -7 7v65h172l145 -534l158 434q3 9 -1.5 16t-13.5 8l-52 4q-7 1 -7 8v64h215l178 -534l128 436q2 8 -2.5 14.5t-12.5 7.5l-55 4q-7 1 -7 8v64h255
v-72z" />
    <glyph glyph-name="wacute" unicode="&#x1e83;" horiz-adv-x="857" 
d="M472 562h-98l105 162h132zM843 432l-47 -4l-158 -428h-101l-110 310l-114 -310h-101l-147 419q-3 9 -12 10l-32 3q-7 1 -7 8v60h141l117 -381l101 286q2 8 -2 15t-14 8l-49 4q-7 0 -7 7v61h178l118 -381l100 286q2 6 1 11t-5.5 8t-9.5 4l-52 5q-7 0 -7 7v60h219v-68z" />
    <glyph glyph-name="Wdieresis" unicode="&#x1e84;" horiz-adv-x="1143" 
d="M476.5 893q24.5 0 41 -17t16.5 -40t-16.5 -40t-41 -17t-41 17t-16.5 40t16.5 40t41 17zM666.5 893q24.5 0 41 -17t16.5 -40t-16.5 -40t-41 -17t-41 17t-16.5 40t16.5 40t41 17zM1122 628l-69 -6l-191 -622h-102l-191 517l-191 -517h-104l-186 614q-3 9 -13 10l-46 4
q-7 0 -7 7v65h172l145 -534l158 434q2 6 0.5 11t-5.5 8.5t-10 4.5l-52 4q-7 1 -7 8v64h215l178 -534l128 436q2 8 -2.5 14.5t-12.5 7.5l-55 4q-7 1 -7 8v64h255v-72z" />
    <glyph glyph-name="wdieresis" unicode="&#x1e85;" horiz-adv-x="857" 
d="M334 693q24 0 40.5 -17t16.5 -40t-16.5 -40t-41 -17t-41 17t-16.5 40q0 11 4.5 21.5t12 18.5t18.5 12.5t23 4.5zM523 693q24 0 41 -17t17 -40t-17 -40t-41 -17t-40.5 17t-16.5 40t16.5 40t40.5 17zM843 432l-47 -4l-158 -428h-101l-110 310l-114 -310h-101l-147 419
q-3 9 -12 10l-32 3q-7 1 -7 8v60h141l117 -381l101 286q2 8 -2 15t-14 8l-49 4q-7 0 -7 8v60h178l118 -381l100 286q2 6 1 11t-5.5 8t-9.5 4l-52 5q-7 0 -7 7v60h219v-68z" />
    <glyph glyph-name="Zdotbelow" unicode="&#x1e92;" horiz-adv-x="592" 
d="M560 633l-368 -537h281q15 0 16 14l5 61h70v-164q0 -8 -8 -8h-527v67l372 537h-259q-15 0 -16 -14l-4 -56h-70v159q0 8 8 8h500v-67zM296.5 -78q24.5 0 41 -17t16.5 -40t-17 -40.5t-41 -17.5t-40.5 17.5t-16.5 40.5t16.5 40t41 17z" />
    <glyph glyph-name="zdotbelow" unicode="&#x1e93;" horiz-adv-x="496" 
d="M440 454l-264 -383h199q14 0 15 14l4 53h57v-130q0 -8 -8 -8h-401v46l265 383h-172q-14 0 -15 -14l-4 -51h-57v128q0 8 8 8h373v-46zM249 -78q24 0 40.5 -17t16.5 -40t-16.5 -40.5t-40.5 -17.5t-40.5 17.5t-16.5 40.5t16.5 40t40.5 17z" />
    <glyph glyph-name="slongdotaccent" unicode="&#x1e9b;" horiz-adv-x="416" 
d="M246.5 925q24.5 0 41 -17.5t16.5 -40t-16.5 -40t-40.5 -17.5q-12 0 -23 5t-18.5 13t-11.5 18.5t-4 21.5q0 22 16 39.5t40.5 17.5zM293 749q87 0 157 -45l-28 -69q-61 32 -112 31q-19 0 -35.5 -5.5t-28.5 -16t-19 -27t-7 -38.5v-491q0 -14 14 -15l63 -5v-68h-246v61
q0 7 7 7l37 4q14 1 14 15v338l-58 3q-7 1 -7 8v64h65v87q0 79 53 120.5t131 41.5z" />
    <glyph glyph-name="Adotbelow" unicode="&#x1ea0;" horiz-adv-x="792" 
d="M712 77l59 -5v-72h-277v64q0 7 7 8l57 5q6 0 10.5 3.5t5.5 8.5t-1 11l-40 99h-298l-49 -121l83 -6v-72h-247v65q0 7 7 7l43 4q9 1 12 9l248 611l121 7zM271 295h226l-112 283zM394.5 -78q24.5 0 41 -17t16.5 -40t-17 -40.5t-41 -17.5t-40.5 17.5t-16.5 40.5t16.5 40
t41 17z" />
    <glyph glyph-name="adotbelow" unicode="&#x1ea1;" 
d="M256 509q40 0 74.5 -10t62.5 -30.5t44 -55.5t16 -81v-244q0 -14 14 -15l59 -5v-68h-161q-6 0 -7 7l-5 54q-28 -33 -69.5 -52t-89.5 -19q-70 0 -113.5 40.5t-43.5 102.5q0 58 41.5 89t133.5 56l130 35v21q0 49 -27 71t-71 22q-49 0 -96 -23q-8 -3 -9 -12l-5 -60h-58v123
q0 4 2 6q34 20 82.5 33.5t95.5 14.5zM342 244l-105 -28q-50 -13 -69 -28t-19 -45q0 -32 23 -50.5t62 -18.5q67 0 105 51l3 3v116zM265 -78q24 0 40.5 -17t16.5 -40t-16.5 -40.5t-40.5 -17.5t-40.5 17.5t-16.5 40.5t16.5 40t40.5 17z" />
    <glyph glyph-name="Ahookabove" unicode="&#x1ea2;" horiz-adv-x="792" 
d="M424 1026q53 0 89.5 -26.5t36.5 -70.5q0 -33 -16 -53.5t-53 -41.5q-31 -17 -41 -26t-11 -25l-2 -19h-63l-3 30q-1 29 14.5 46.5t56.5 39.5q26 14 34 22.5t8 25.5q0 19 -15 29.5t-41 10.5q-27 -1 -63 -15l-32 43q42 30 101 30zM712 77l59 -5v-72h-277v64q0 7 7 8l57 5
q9 0 13.5 7.5t1.5 15.5l-40 99h-298l-49 -121l83 -6v-72h-247v65q0 7 7 7l43 4q9 1 12 9l248 611l121 7zM271 295h226l-112 283z" />
    <glyph glyph-name="ahookabove" unicode="&#x1ea3;" 
d="M270 818q54 0 90.5 -26.5t36.5 -70.5q0 -32 -16 -52.5t-54 -42.5q-22 -11 -30.5 -17t-14.5 -14t-7 -20l-1 -19h-64l-2 31q-2 29 13.5 46.5t56.5 39.5q26 14 34 22.5t8 24.5q0 13 -6.5 22t-19 13.5t-29.5 4.5q-28 0 -63 -15l-33 43q42 30 101 30zM256 509q40 0 74.5 -10
t62.5 -30.5t44 -55.5t16 -81v-244q0 -14 14 -15l59 -5v-68h-161q-6 0 -7 7l-5 54q-28 -33 -69.5 -52t-89.5 -19q-70 0 -113.5 40.5t-43.5 102.5q0 58 41.5 89t133.5 56l130 35v21q0 49 -27 71t-71 22q-49 0 -96 -23q-8 -3 -9 -12l-5 -60h-58v123q0 4 2 6q22 13 50.5 23.5
t62.5 17.5t65 7zM342 244l-105 -28q-50 -13 -69 -28t-19 -45q0 -31 23 -50t62 -19q67 0 105 51l3 3v116z" />
    <glyph glyph-name="Acircumflexacute" unicode="&#x1ea4;" horiz-adv-x="792" 
d="M662 829h-99l106 162h131zM577 748h-98l-82 104l-82 -104h-99l111 162h139zM712 77l59 -5v-72h-277v64q0 7 7 8l57 5q9 0 13.5 7.5t1.5 15.5l-40 99h-298l-49 -121l83 -6v-72h-247v65q0 7 7 7l43 4q9 1 12 9l248 611l121 7zM271 295h226l-112 283z" />
    <glyph glyph-name="acircumflexacute" unicode="&#x1ea5;" 
d="M486 700h-98l105 162h132zM445 562h-98l-82 105l-82 -105h-99l112 162h138zM256 509q32 0 60 -6t53.5 -19.5t43.5 -34t29 -50.5t11 -67v-244q0 -14 14 -15l59 -5v-68h-161q-6 0 -7 7l-5 54q-28 -33 -69.5 -52t-89.5 -19q-70 0 -113.5 40.5t-43.5 102.5q0 58 41.5 89
t133.5 56l130 35v21q0 49 -27 71t-71 22q-49 0 -96 -23q-8 -3 -9 -12l-5 -60h-58v123q0 4 2 6q34 20 82.5 33.5t95.5 14.5zM342 244l-105 -28q-50 -13 -69 -28t-19 -45q0 -32 23 -50.5t62 -18.5q67 0 105 51l3 3v116z" />
    <glyph glyph-name="Acircumflexgrave" unicode="&#x1ea6;" horiz-adv-x="792" 
d="M697 829h-99l-138 162h131zM577 748h-98l-82 104l-82 -104h-99l111 162h139zM712 77l59 -5v-72h-277v64q0 7 7 8l57 5q9 0 13.5 7.5t1.5 15.5l-40 99h-298l-49 -121l83 -6v-72h-247v65q0 7 7 7l43 4q9 1 12 9l248 611l121 7zM271 295h226l-112 283z" />
    <glyph glyph-name="acircumflexgrave" unicode="&#x1ea7;" 
d="M501 700h-98l-139 162h132zM445 562h-98l-82 105l-82 -105h-99l112 162h138zM256 509q40 0 74.5 -10t62.5 -30.5t44 -55.5t16 -81v-244q0 -14 14 -15l59 -5v-68h-161q-6 0 -7 7l-5 54q-28 -33 -69.5 -52t-89.5 -19q-70 0 -113.5 40.5t-43.5 102.5q0 58 41.5 89t133.5 56
l130 35v21q0 49 -27 71t-71 22q-49 0 -96 -23q-8 -3 -9 -12l-5 -60h-58v123q0 4 2 6q22 13 50.5 23.5t62.5 17.5t65 7zM342 244l-105 -28q-50 -13 -69 -28t-19 -45q0 -32 23 -50.5t62 -18.5q67 0 105 51l3 3v116z" />
    <glyph glyph-name="Acircumflexhookabove" unicode="&#x1ea8;" horiz-adv-x="792" 
d="M669 1012q54 0 90.5 -26.5t36.5 -70.5q0 -33 -16 -53.5t-54 -41.5q-22 -12 -30.5 -17.5t-14.5 -13.5t-7 -20l-1 -19h-64l-2 30q-2 30 13.5 47t56.5 39q27 14 34.5 22.5t7.5 25.5q0 19 -15 29.5t-40 10.5q-28 -1 -63 -15l-33 43q42 30 101 30zM577 748h-98l-82 104
l-82 -104h-99l111 162h139zM712 77l59 -5v-72h-277v64q0 7 7 8l57 5q9 0 13.5 7.5t1.5 15.5l-40 99h-298l-49 -120l83 -7v-72h-247v65q0 7 7 7l43 4q9 1 12 9l248 611l121 7zM271 295h226l-112 283z" />
    <glyph glyph-name="acircumflexhookabove" unicode="&#x1ea9;" 
d="M454 956q54 0 90.5 -26.5t36.5 -70.5q0 -32 -16 -52.5t-54 -41.5q-31 -17 -41 -26t-11 -25l-1 -19h-64l-2 30q-2 29 13.5 46.5t56.5 39.5q26 14 34 22.5t8 24.5q0 20 -15 30.5t-40 10.5q-28 -1 -63 -15l-33 43q42 29 101 29zM445 562h-98l-82 105l-82 -105h-99l112 162
h138zM256 509q32 0 60 -6t53.5 -19.5t43.5 -34t29 -50.5t11 -67v-244q0 -14 14 -15l59 -5v-68h-161q-6 0 -7 7l-5 54q-28 -33 -69.5 -52t-89.5 -19q-70 0 -113.5 40.5t-43.5 102.5q0 58 41.5 89t133.5 56l130 35v21q0 49 -27 71t-71 22q-49 0 -96 -23q-8 -3 -9 -12l-5 -60
h-58v123q0 4 2 6q34 20 82.5 33.5t95.5 14.5zM342 244l-105 -28q-50 -13 -69 -28t-19 -45q0 -31 23 -50t62 -19q67 0 105 51l3 3v116z" />
    <glyph glyph-name="Acircumflextilde" unicode="&#x1eaa;" horiz-adv-x="792" 
d="M490 1056l66 -14q-2 -44 -24 -69t-58 -28q-25 -2 -61 11q-11 4 -26.5 10.5t-27 11.5t-17.5 5q-12 2 -20.5 -7t-18.5 -36l-66 19q15 82 73 93q33 6 87 -17q42 -18 59 -15q20 4 34 36zM577 748h-98l-82 104l-82 -104h-99l111 162h139zM712 77l59 -5v-72h-277v64q0 7 7 8
l57 5q9 0 13.5 7.5t1.5 15.5l-40 99h-298l-49 -121l83 -6v-72h-247v65q0 7 7 7l43 4q9 1 12 9l248 611l121 7zM271 295h226l-112 283z" />
    <glyph glyph-name="acircumflextilde" unicode="&#x1eab;" 
d="M359 863l65 -14q-2 -44 -24 -69t-58 -28q-25 -2 -61 11q-12 4 -37.5 15t-33.5 12q-12 2 -20 -7t-19 -36l-65 19q14 82 72 93q33 6 87 -17q43 -18 59 -15q20 4 35 36zM445 562h-98l-82 105l-82 -105h-99l112 162h138zM256 509q40 0 74.5 -10t62.5 -30.5t44 -55.5t16 -81
v-244q0 -14 14 -15l59 -5v-68h-161q-6 0 -7 7l-5 54q-19 -21 -43 -37t-53.5 -25t-62.5 -9q-70 0 -113.5 40.5t-43.5 102.5q0 58 41.5 89t133.5 56l130 35v21q0 49 -27 71t-71 22q-49 0 -96 -23q-8 -3 -9 -12l-5 -60h-58v123q0 4 2 6q34 20 82.5 33.5t95.5 14.5zM342 244
l-105 -28q-50 -13 -69 -28t-19 -45q0 -32 23 -50.5t62 -18.5q67 0 105 51l3 3v116z" />
    <glyph glyph-name="Acircumflexdotbelow" unicode="&#x1eac;" horiz-adv-x="792" 
d="M577 762h-98l-82 105l-82 -105h-99l111 162h139zM712 77l59 -5v-72h-277v64q0 7 7 8l57 5q9 0 13.5 7.5t1.5 15.5l-40 99h-298l-49 -121l83 -6v-72h-247v65q0 7 7 7l43 4q9 1 12 9l248 611l121 7zM271 295h226l-112 283zM394.5 -78q24.5 0 41 -17t16.5 -40t-17 -40.5
t-41 -17.5q-12 0 -22.5 5t-18 13t-12 18.5t-4.5 21.5q0 23 16.5 40t41 17z" />
    <glyph glyph-name="acircumflexdotbelow" unicode="&#x1ead;" 
d="M445 562h-98l-82 105l-82 -105h-99l112 162h138zM256 509q40 0 74.5 -10t62.5 -30.5t44 -55.5t16 -81v-244q0 -14 14 -15l59 -5v-68h-161q-6 0 -7 7l-5 54q-28 -33 -69.5 -52t-89.5 -19q-70 0 -113.5 40.5t-43.5 102.5q0 58 41.5 89t133.5 56l130 35v21q0 49 -27 71
t-71 22q-49 0 -96 -23q-8 -3 -9 -12l-5 -60h-58v123q0 4 2 6q34 20 82.5 33.5t95.5 14.5zM342 244l-105 -28q-50 -13 -69 -28t-19 -45q0 -32 23 -50.5t62 -18.5q67 0 105 51l3 3v116zM265 -78q24 0 40.5 -17t16.5 -40t-16.5 -40.5t-40.5 -17.5t-40.5 17.5t-16.5 40.5
t16.5 40t40.5 17z" />
    <glyph glyph-name="Abreveacute" unicode="&#x1eae;" horiz-adv-x="792" 
d="M440 922h-98l105 162h132zM478 895h72q0 -62 -44.5 -106t-109 -44t-109 44t-44.5 106h72q0 -36 24 -60t57 -24q22 0 41 11t30 30.5t11 42.5zM712 77l59 -5v-72h-277v64q0 7 7 8l57 5q6 0 10.5 3.5t5.5 8.5t-1 11l-40 99h-298l-49 -121l83 -6v-72h-247v65q0 7 7 7l43 4
q9 1 12 9l248 611l121 7zM271 295h226l-112 283z" />
    <glyph glyph-name="abreveacute" unicode="&#x1eaf;" 
d="M309 728h-99l106 163h131zM346 710h72q0 -63 -44 -107t-109 -44q-43 0 -78.5 20.5t-55 55t-19.5 75.5h71q0 -36 24 -60.5t58 -24.5t57.5 24.5t23.5 60.5zM256 509q40 0 74.5 -10t62.5 -30.5t44 -55.5t16 -81v-244q0 -14 14 -15l59 -5v-68h-161q-6 0 -7 7l-5 54
q-28 -33 -69.5 -52t-89.5 -19q-70 0 -113.5 40.5t-43.5 102.5q0 58 41.5 89t133.5 56l130 35v21q0 49 -27 71t-71 22q-49 0 -96 -23q-8 -3 -9 -12l-5 -60h-58v123q0 4 2 6q34 20 82.5 33.5t95.5 14.5zM342 244l-105 -28q-50 -13 -69 -28t-19 -45q0 -32 23 -50.5t62 -18.5
q67 0 105 51l3 3v116z" />
    <glyph glyph-name="Abrevegrave" unicode="&#x1eb0;" horiz-adv-x="792" 
d="M450 922h-98l-139 162h132zM478 895h72q0 -62 -44.5 -106t-109 -44t-109 44t-44.5 106h72q0 -36 24 -60t57.5 -24t57.5 24t24 60zM712 77l59 -5v-72h-277v64q0 7 7 8l57 5q9 0 13.5 7.5t1.5 15.5l-40 99h-298l-49 -121l83 -6v-72h-247v65q0 7 7 7l43 4q9 1 12 9l248 611
l121 7zM271 295h226l-112 283z" />
    <glyph glyph-name="abrevegrave" unicode="&#x1eb1;" 
d="M319 728h-99l-139 163h132zM346 710h72q0 -63 -44 -107t-109 -44q-43 0 -78 20.5t-55 55t-20 75.5h71q0 -36 24 -60.5t58 -24.5t57.5 24.5t23.5 60.5zM256 509q40 0 74.5 -10t62.5 -30.5t44 -55.5t16 -81v-244q0 -14 14 -15l59 -5v-68h-161q-6 0 -7 7l-5 54
q-28 -33 -69.5 -52t-89.5 -19q-70 0 -113.5 40.5t-43.5 102.5q0 58 41.5 89t133.5 56l130 35v21q0 49 -27 71t-71 22q-49 0 -96 -23q-8 -3 -9 -12l-5 -60h-58v123q0 4 2 6q34 20 82.5 33.5t95.5 14.5zM342 244l-105 -28q-50 -13 -69 -28t-19 -45q0 -32 23 -50.5t62 -18.5
q67 0 105 51l3 3v116z" />
    <glyph glyph-name="Abrevehookabove" unicode="&#x1eb2;" horiz-adv-x="792" 
d="M424 1145q53 0 89.5 -26.5t36.5 -70.5q0 -33 -16 -53.5t-53 -41.5q-31 -17 -41 -25.5t-11 -25.5l-2 -19h-63l-3 31q-1 29 14.5 46t56.5 39q26 14 34 22.5t8 25.5q0 12 -7 21.5t-19.5 14t-29.5 4.5q-27 -1 -63 -15l-32 43q42 30 101 30zM478 910h72q0 -63 -44.5 -107
t-109.5 -44q-42 0 -77.5 20.5t-55.5 55t-20 75.5h72q0 -36 24 -60.5t57.5 -24.5t57.5 24.5t24 60.5zM712 77l59 -5v-72h-277v64q0 7 7 8l57 5q6 0 10.5 3.5t5.5 8.5t-1 11l-40 99h-298l-49 -121l83 -6v-72h-247v65q0 7 7 7l43 4q9 1 12 9l248 611l121 7zM271 295h226
l-112 283z" />
    <glyph glyph-name="abrevehookabove" unicode="&#x1eb3;" 
d="M294 956q53 0 89.5 -26.5t36.5 -70.5q0 -32 -16 -52.5t-54 -41.5q-22 -12 -30.5 -17.5t-14.5 -14t-7 -19.5l-1 -19h-64l-2 30q-1 29 14.5 46.5t56.5 39.5q26 14 34 22.5t8 24.5q0 20 -15 30.5t-41 10.5q-28 -1 -63 -15l-33 43q42 29 102 29zM346 710h72q0 -63 -44 -107
t-109 -44q-43 0 -78.5 20.5t-55 55t-19.5 75.5h71q0 -36 24 -60.5t58 -24.5t57.5 24.5t23.5 60.5zM256 509q40 0 74.5 -10t62.5 -30.5t44 -55.5t16 -81v-244q0 -14 14 -15l59 -5v-68h-161q-6 0 -7 7l-5 54q-19 -21 -43 -37t-53.5 -25t-62.5 -9q-70 0 -113.5 40.5
t-43.5 102.5q0 58 41.5 89t133.5 56l130 35v21q0 49 -27 71t-71 22q-49 0 -96 -23q-8 -3 -9 -12l-5 -60h-58v123q0 4 2 6q34 20 82.5 33.5t95.5 14.5zM342 244l-105 -28q-50 -13 -69 -28t-19 -45q0 -31 23 -50t62 -19q67 0 105 51l3 3v116z" />
    <glyph glyph-name="Abrevetilde" unicode="&#x1eb4;" horiz-adv-x="792" 
d="M490 1052l66 -14q-2 -44 -24 -69t-58 -28q-25 -2 -61 10q-12 4 -37.5 15.5t-33.5 12.5q-12 1 -20.5 -8t-18.5 -35l-66 19q15 82 73 93q33 6 87 -17q42 -19 59 -15q20 4 34 36zM478 895h72q0 -62 -44.5 -106t-109.5 -44q-42 0 -77.5 20t-55.5 55t-20 75h72q0 -23 11 -42.5
t29.5 -30.5t40.5 -11t41 11t30 30.5t11 42.5zM712 77l59 -5v-72h-277v64q0 7 7 8l57 5q6 0 10.5 3.5t5.5 8.5t-1 11l-40 99h-298l-49 -121l83 -6v-72h-247v65q0 7 7 7l43 4q9 1 12 9l248 611l121 7zM271 295h226l-112 283z" />
    <glyph glyph-name="abrevetilde" unicode="&#x1eb5;" 
d="M359 851l65 -13q-2 -45 -24 -69.5t-58 -27.5q-25 -2 -61 10q-12 4 -37.5 15.5t-33.5 12.5q-6 1 -10.5 -1t-9.5 -7t-9 -13.5t-10 -21.5l-65 19q14 82 72 93q33 5 87 -17q43 -19 59 -15q20 4 35 35zM346 710h72q0 -63 -44 -107t-109 -44q-43 0 -78 20.5t-55 55t-20 75.5h71
q0 -36 24 -60.5t58 -24.5t57.5 24.5t23.5 60.5zM256 509q40 0 74.5 -10t62.5 -30.5t44 -55.5t16 -81v-244q0 -14 14 -15l59 -5v-68h-161q-6 0 -7 7l-5 54q-19 -21 -43 -37t-53.5 -25t-62.5 -9q-70 0 -113.5 40.5t-43.5 102.5q0 58 41.5 89t133.5 56l130 35v21q0 49 -27 71
t-71 22q-49 0 -96 -23q-8 -3 -9 -12l-5 -60h-58v123q0 4 2 6q34 20 82.5 33.5t95.5 14.5zM342 244l-105 -28q-50 -13 -69 -28t-19 -45q0 -32 23 -50.5t62 -18.5q67 0 105 51l3 3v116z" />
    <glyph glyph-name="Abrevedotbelow" unicode="&#x1eb6;" horiz-adv-x="792" 
d="M478 910h72q0 -63 -44.5 -107t-109.5 -44q-42 0 -77.5 20.5t-55.5 55t-20 75.5h72q0 -36 24 -60.5t57.5 -24.5t57.5 24.5t24 60.5zM712 77l59 -5v-72h-277v64q0 7 7 8l57 5q9 0 13.5 7.5t1.5 15.5l-40 99h-298l-49 -121l83 -6v-72h-247v65q0 7 7 7l43 4q9 1 12 9l248 611
l121 7zM271 295h226l-112 283zM394.5 -78q24.5 0 41 -17t16.5 -40t-17 -40.5t-41 -17.5t-40.5 17.5t-16.5 40.5t16.5 40t41 17z" />
    <glyph glyph-name="abrevedotbelow" unicode="&#x1eb7;" 
d="M346 710h72q0 -63 -44 -107t-109 -44q-43 0 -78.5 20.5t-55 55t-19.5 75.5h71q0 -24 11.5 -43.5t30 -30.5t40.5 -11t40.5 11t29.5 30.5t11 43.5zM256 509q32 0 60 -6t53.5 -19.5t43.5 -34t29 -50.5t11 -67v-244q0 -14 14 -15l59 -5v-68h-161q-6 0 -7 7l-5 54
q-28 -33 -69.5 -52t-89.5 -19q-70 0 -113.5 40.5t-43.5 102.5q0 58 41.5 89t133.5 56l130 35v21q0 49 -27 71t-71 22q-49 0 -96 -23q-8 -3 -9 -12l-5 -60h-58v123q0 4 2 6q34 20 82.5 33.5t95.5 14.5zM342 244l-105 -28q-50 -13 -69 -28t-19 -45q0 -32 23 -50.5t62 -18.5
q67 0 105 51l3 3v116zM265 -78q24 0 40.5 -17t16.5 -40t-16.5 -40.5t-40.5 -17.5t-40.5 17.5t-16.5 40.5t16.5 40t40.5 17z" />
    <glyph glyph-name="Edotbelow" unicode="&#x1eb8;" horiz-adv-x="592" 
d="M55 700h483q8 0 8 -8v-172h-70l-5 69q-1 14 -16 14h-202v-204h203v-91h-203v-211h220q14 0 15 14l6 69h70v-172q0 -8 -8 -8h-501v64q0 8 7 8l57 5q14 1 14 15v516q0 14 -14 15l-57 5q-7 0 -7 8v64zM296.5 -78q24.5 0 41 -17t16.5 -40q0 -22 -17 -40t-41 -18t-40.5 17.5
t-16.5 40.5t16.5 40t41 17z" />
    <glyph glyph-name="edotbelow" unicode="&#x1eb9;" horiz-adv-x="546" 
d="M276 510q119 0 176 -67t58 -186v-18q0 -7 -7 -7l-347 -9q6 -71 44.5 -111t98.5 -39q82 0 151 58l32 -75q-72 -66 -189 -66q-115 0 -184 73t-69 187t64.5 187t171.5 73zM278 432q-52 0 -84.5 -36t-37.5 -102h230q10 0 8 12q-10 126 -116 126zM272.5 -78q24.5 0 41 -17
t16.5 -40t-16.5 -40.5t-41 -17.5t-40.5 17.5t-16 40.5t16 40t40.5 17z" />
    <glyph glyph-name="Ehookabove" unicode="&#x1eba;" horiz-adv-x="592" 
d="M333 1026q53 0 89.5 -26.5t36.5 -70.5q0 -33 -16 -53.5t-53 -41.5q-31 -17 -41 -26t-11 -25l-2 -19h-63l-3 30q-1 29 14.5 46.5t56.5 39.5q26 14 34 22.5t8 25.5q0 12 -7 21.5t-19.5 14t-29.5 4.5q-27 -1 -63 -15l-32 43q42 30 101 30zM55 700h483q8 0 8 -8v-172h-70
l-5 69q-1 14 -16 14h-202v-204h203v-91h-203v-211h220q14 0 15 14l6 69h70v-172q0 -8 -8 -8h-501v64q0 8 7 8l57 5q14 1 14 15v516q0 14 -14 15l-57 5q-7 0 -7 8v64z" />
    <glyph glyph-name="ehookabove" unicode="&#x1ebb;" horiz-adv-x="578" 
d="M305 818q35 0 63.5 -11.5t45.5 -34t17 -51.5q0 -32 -16 -52.5t-53 -42.5q-32 -16 -41.5 -25t-10.5 -26l-2 -19h-63l-3 31q-1 29 14.5 46.5t56.5 39.5q26 14 34 22.5t8 24.5q0 19 -15 30t-41 10q-27 0 -63 -15l-32 43q41 30 101 30zM276 510q119 0 176 -67t58 -186v-18
q0 -7 -7 -7l-347 -9q6 -71 44.5 -111t98.5 -39q82 0 151 58l32 -75q-72 -66 -189 -66q-115 0 -184 73t-69 187t64.5 187t171.5 73zM278 432q-52 0 -84.5 -36t-37.5 -102h230q10 0 8 12q-10 126 -116 126z" />
    <glyph glyph-name="Etilde" unicode="&#x1ebc;" horiz-adv-x="592" 
d="M409 882l65 -13q-1 -30 -12 -51.5t-28.5 -32.5t-40.5 -13q-26 -3 -62 10q-12 4 -37.5 15.5t-32.5 12.5q-13 1 -21 -8t-19 -36l-65 20q15 82 72 93q33 5 87 -18q43 -18 60 -14q19 3 34 35zM55 700h483q8 0 8 -8v-172h-70l-5 69q-1 14 -16 14h-202v-204h203v-91h-203v-211
h220q14 0 15 14l6 69h70v-172q0 -8 -8 -8h-501v64q0 8 7 8l57 5q14 1 14 15v516q0 14 -14 15l-57 5q-7 0 -7 8v64z" />
    <glyph glyph-name="etilde" unicode="&#x1ebd;" horiz-adv-x="546" 
d="M370 682l66 -13q-2 -45 -24 -69.5t-58 -27.5q-25 -3 -61 10q-12 4 -37.5 15.5t-33.5 12.5t-14 -2.5t-12 -13t-13 -28.5l-66 20q15 82 73 93q33 5 87 -18q43 -18 59 -14q20 3 34 35zM276 510q119 0 176 -67t58 -186v-18q0 -7 -7 -7l-347 -9q6 -71 44.5 -111t98.5 -39
q82 0 151 58l32 -75q-72 -66 -189 -66q-115 0 -184 73t-69 187t64.5 187t171.5 73zM278 432q-52 0 -84.5 -36t-37.5 -102h230q10 0 8 12q-10 126 -116 126z" />
    <glyph glyph-name="Ecircumflexacute" unicode="&#x1ebe;" horiz-adv-x="592" 
d="M580 843h-99l106 163h131zM495 762h-98l-82 105l-82 -105h-99l112 162h138zM55 700h483q8 0 8 -8v-172h-70l-5 69q-1 14 -16 14h-202v-204h203v-91h-203v-211h220q14 0 15 14l6 69h70v-172q0 -8 -8 -8h-501v64q0 8 7 8l57 5q14 1 14 15v516q0 14 -14 15l-57 5q-7 0 -7 8
v64z" />
    <glyph glyph-name="ecircumflexacute" unicode="&#x1ebf;" horiz-adv-x="546" 
d="M498 700h-99l106 162h132zM457 562h-98l-82 105l-82 -105h-99l111 162h139zM276 510q119 0 176 -67t58 -186v-18q0 -7 -7 -7l-347 -9q6 -71 44.5 -111t98.5 -39q82 0 151 58l32 -75q-72 -66 -189 -66q-115 0 -184 73t-69 187t64.5 187t171.5 73zM278 432q-52 0 -84.5 -36
t-37.5 -102h230q10 0 8 12q-10 126 -116 126z" />
    <glyph glyph-name="Ecircumflexgrave" unicode="&#x1ec0;" horiz-adv-x="592" 
d="M618 843h-99l-139 163h132zM495 762h-98l-82 105l-82 -105h-99l112 162h138zM55 700h483q8 0 8 -8v-172h-70l-5 69q-1 14 -16 14h-202v-204h203v-91h-203v-211h220q14 0 15 14l6 69h70v-172q0 -8 -8 -8h-501v64q0 8 7 8l57 5q14 1 14 15v516q0 14 -14 15l-57 5q-7 0 -7 8
v64z" />
    <glyph glyph-name="ecircumflexgrave" unicode="&#x1ec1;" horiz-adv-x="546" 
d="M513 700h-99l-138 162h131zM457 562h-98l-82 105l-82 -105h-99l111 162h139zM276 510q119 0 176 -67t58 -186v-18q0 -7 -7 -7l-347 -9q6 -71 44.5 -111t98.5 -39q82 0 151 58l32 -75q-72 -66 -189 -66q-115 0 -184 73t-69 187t64.5 187t171.5 73zM278 432
q-52 0 -84.5 -36t-37.5 -102h230q10 0 8 12q-10 126 -116 126z" />
    <glyph glyph-name="Ecircumflexhookabove" unicode="&#x1ec2;" horiz-adv-x="592" 
d="M591 1026q34 0 62.5 -11.5t46 -34t17.5 -51.5q0 -33 -16 -53.5t-54 -41.5q-31 -17 -41 -26t-11 -25l-1 -19h-64l-2 30q-2 29 13.5 46.5t57.5 39.5q26 14 34 22.5t8 25.5q0 19 -15 29.5t-41 10.5q-28 -1 -63 -15l-33 43q42 30 102 30zM495 762h-98l-82 105l-82 -105h-99
l112 162h138zM55 700h483q8 0 8 -8v-172h-70l-5 69q-1 14 -16 14h-202v-204h203v-91h-203v-211h220q14 0 15 14l6 69h70v-172q0 -8 -8 -8h-501v64q0 8 7 8l57 5q14 1 14 15v516q0 14 -14 15l-57 5q-7 0 -7 8v64z" />
    <glyph glyph-name="ecircumflexhookabove" unicode="&#x1ec3;" horiz-adv-x="546" 
d="M462 956q53 0 89.5 -26.5t36.5 -70.5q0 -32 -16 -52.5t-54 -41.5q-31 -17 -41 -26t-11 -25l-1 -19h-64l-2 30q-1 29 14.5 46.5t56.5 39.5q26 14 34 22.5t8 24.5q0 20 -15 30.5t-41 10.5q-28 -1 -63 -15l-33 43q42 29 102 29zM453 562h-99l-82 105l-82 -105h-98l111 162
h139zM276 510q119 0 176 -67t58 -186v-18q0 -7 -7 -7l-347 -9q6 -71 44.5 -111t98.5 -39q82 0 151 58l32 -75q-72 -66 -189 -66q-115 0 -184 73t-69 187t64.5 187t171.5 73zM278 432q-52 0 -84.5 -36t-37.5 -102h230q10 0 8 12q-10 126 -116 126z" />
    <glyph glyph-name="Ecircumflextilde" unicode="&#x1ec4;" horiz-adv-x="592" 
d="M409 1069l65 -13q-1 -30 -12 -51.5t-28.5 -32.5t-40.5 -13q-26 -2 -62 10q-11 4 -26.5 11t-26.5 11.5t-17 5.5q-9 1 -15 -2.5t-12 -13t-13 -27.5l-65 19q15 82 72 93q33 6 87 -17q43 -19 60 -15q19 4 34 35zM495 762h-98l-82 105l-82 -105h-99l112 162h138zM55 700h483
q8 0 8 -8v-172h-70l-5 69q-1 14 -16 14h-202v-204h203v-91h-203v-211h220q14 0 15 14l6 69h70v-172q0 -8 -8 -8h-501v64q0 8 7 8l57 5q14 1 14 15v516q0 14 -14 15l-57 5q-7 0 -7 8v64z" />
    <glyph glyph-name="ecircumflextilde" unicode="&#x1ec5;" horiz-adv-x="546" 
d="M370 863l66 -14q-2 -44 -24 -69t-58 -28q-25 -2 -61 11q-12 4 -37.5 15t-33.5 12q-12 2 -20.5 -7t-18.5 -36l-66 19q15 82 73 93q33 6 87 -17q43 -18 59 -15q20 4 34 36zM457 562h-98l-82 105l-82 -105h-99l111 162h139zM276 510q119 0 176 -67t58 -186v-18q0 -7 -7 -7
l-347 -9q6 -71 44.5 -111t98.5 -39q82 0 151 58l32 -75q-72 -66 -189 -66q-76 0 -134 34t-88.5 92.5t-30.5 133.5q0 114 64.5 187t171.5 73zM278 432q-52 0 -84.5 -36t-37.5 -102h230q10 0 8 12q-10 126 -116 126z" />
    <glyph glyph-name="Ecircumflexdotbelow" unicode="&#x1ec6;" horiz-adv-x="592" 
d="M495 762h-98l-82 105l-82 -105h-99l112 162h138zM55 700h483q8 0 8 -8v-172h-70l-5 69q-1 14 -16 14h-202v-204h203v-91h-203v-211h220q14 0 15 14l6 69h70v-172q0 -8 -8 -8h-501v64q0 8 7 8l57 5q14 1 14 15v516q0 14 -14 15l-57 5q-7 0 -7 8v64zM296.5 -78
q24.5 0 41 -17t16.5 -40q0 -22 -17 -40t-41 -18t-40.5 17.5t-16.5 40.5t16.5 40t41 17z" />
    <glyph glyph-name="ecircumflexdotbelow" unicode="&#x1ec7;" horiz-adv-x="546" 
d="M457 562h-98l-82 105l-82 -105h-99l111 162h139zM276 510q119 0 176 -67t58 -186v-18q0 -7 -7 -7l-347 -9q6 -71 44.5 -111t98.5 -39q82 0 151 58l32 -75q-72 -66 -189 -66q-115 0 -184 73t-69 187q0 75 28.5 133.5t82.5 92.5t125 34zM278 432q-52 0 -84.5 -36
t-37.5 -102h230q10 0 8 12q-10 126 -116 126zM272.5 -78q24.5 0 41 -17t16.5 -40t-16.5 -40.5t-41 -17.5t-41 17.5t-16.5 40.5t16.5 40t41 17z" />
    <glyph glyph-name="Ihookabove" unicode="&#x1ec8;" horiz-adv-x="388" 
d="M210 1026q21 0 40 -4.5t34.5 -13t27.5 -20t18.5 -27t6.5 -32.5q0 -33 -16 -53.5t-54 -41.5q-31 -17 -41 -26t-11 -25l-1 -19h-64l-2 30q-2 29 13.5 46.5t56.5 39.5q26 14 34 22.5t8 25.5q0 19 -15 29.5t-40 10.5q-28 -1 -63 -15l-33 43q42 30 101 30zM333 628l-65 -5
q-14 -1 -14 -16v-514q0 -15 14 -16l65 -5v-72h-278v64q0 8 7 8l58 5q14 1 14 16v514q0 15 -14 16l-58 5q-7 0 -7 8v64h278v-72z" />
    <glyph glyph-name="ihookabove" unicode="&#x1ec9;" horiz-adv-x="370" 
d="M199 818q53 0 89.5 -26.5t36.5 -70.5q0 -32 -16 -52.5t-53 -42.5q-32 -16 -41.5 -25t-10.5 -26l-2 -19h-63l-3 31q-1 29 14.5 46.5t56.5 39.5q26 14 34 22.5t8 24.5q0 13 -7 22t-19.5 13.5t-29.5 4.5q-27 0 -63 -15l-32 43q42 30 101 30zM55 497l177 9q9 1 9 -8v-409
q0 -15 14 -16l68 -5v-68h-268v61q0 7 7 7l54 5q14 1 14 16v323q0 15 -15 16l-60 3v66z" />
    <glyph glyph-name="Idotbelow" unicode="&#x1eca;" horiz-adv-x="388" 
d="M333 628l-65 -5q-14 -1 -14 -16v-514q0 -15 14 -16l65 -5v-72h-278v64q0 8 7 8l58 5q14 1 14 16v514q0 15 -14 16l-58 5q-7 0 -7 8v64h278v-72zM194.5 -78q24.5 0 41 -17t16.5 -40t-16.5 -40.5t-40.5 -17.5t-40.5 17.5t-16.5 40.5t16 40t40.5 17z" />
    <glyph glyph-name="idotbelow" unicode="&#x1ecb;" horiz-adv-x="370" 
d="M180.5 727q25.5 0 43.5 -18t18 -44q0 -17 -8 -31t-22.5 -22.5t-31.5 -8.5q-25 0 -43.5 18.5t-18.5 44t18.5 43.5t44 18zM55 497l177 9q9 1 9 -8v-409q0 -15 14 -16l68 -5v-68h-268v61q0 7 7 7l54 5q14 1 14 16v323q0 15 -15 16l-60 3v66zM180 -78q24 0 41 -17t17 -40
t-17 -40.5t-41 -17.5t-40.5 17.5t-16.5 40.5t16.5 40t40.5 17z" />
    <glyph glyph-name="Odotbelow" unicode="&#x1ecc;" horiz-adv-x="778" 
d="M389 708q155 0 250.5 -100t95.5 -258.5t-95.5 -258.5t-250.5 -100t-250.5 100t-95.5 259q0 104 43 185.5t122 127t181 45.5zM389 612q-101 0 -161 -70t-60 -192.5t60 -192t161 -69.5t161 69.5t60 192t-60 192.5t-161 70zM389 -78q24 0 40.5 -17t16.5 -40t-16.5 -40.5
t-40.5 -17.5q-12 0 -23 5t-18 13t-11.5 18.5t-4.5 21.5q0 23 16.5 40t40.5 17z" />
    <glyph glyph-name="odotbelow" unicode="&#x1ecd;" horiz-adv-x="601" 
d="M300 510q79 0 138.5 -34t91 -92.5t31.5 -133.5q0 -114 -71 -187t-189.5 -73t-189.5 73t-71 187t71 187t189 73zM300 427q-66 0 -106 -46.5t-40 -130t40 -130.5t106.5 -47t106.5 47t40 130q0 56 -18.5 96.5t-51.5 60.5t-77 20zM300.5 -78q24.5 0 41 -17t16.5 -40
t-17 -40.5t-41 -17.5t-40.5 17.5t-16.5 40.5t16.5 40t41 17z" />
    <glyph glyph-name="Ohookabove" unicode="&#x1ece;" horiz-adv-x="778" 
d="M419 1026q21 0 40 -4.5t34.5 -13t27.5 -20t18.5 -27t6.5 -32.5q0 -33 -16 -53.5t-54 -41.5q-31 -17 -41 -26t-11 -25l-1 -19h-64l-2 30q-2 29 13.5 46.5t56.5 39.5q27 14 34.5 22.5t7.5 25.5q0 19 -15 29.5t-40 10.5q-28 -1 -63 -15l-33 43q42 30 101 30zM389 708
q155 0 250.5 -100t95.5 -258.5t-95.5 -258.5t-250.5 -100t-250.5 100t-95.5 259q0 104 43 185.5t122 127t181 45.5zM389 612q-101 0 -161 -70t-60 -192.5t60 -192t161 -69.5t161 69.5t60 192t-60 192.5t-161 70z" />
    <glyph glyph-name="ohookabove" unicode="&#x1ecf;" horiz-adv-x="601" 
d="M329 818q53 0 89.5 -26.5t36.5 -70.5q0 -32 -16 -52.5t-54 -42.5q-31 -16 -41 -25t-10 -26l-2 -19h-64l-2 31q-1 29 14.5 46.5t56.5 39.5q26 14 34 22.5t8 24.5q0 19 -15 30t-41 10q-27 0 -63 -15l-32 43q41 30 101 30zM300 510q79 0 138.5 -34t91 -92.5t31.5 -133.5
q0 -114 -71 -187t-189.5 -73t-189.5 73t-71 187t71 187t189 73zM300.5 428q-66.5 0 -106.5 -47t-40 -130.5t40 -130.5t106.5 -47t106.5 47t40 130.5t-40 130.5t-106.5 47z" />
    <glyph glyph-name="Ocircumflexacute" unicode="&#x1ed0;" horiz-adv-x="778" 
d="M658 829h-99l106 162h132zM569 748h-98l-82 104l-82 -104h-99l112 162h138zM389 708q155 0 250.5 -100t95.5 -258q0 -104 -43 -185.5t-122 -127.5t-181 -46q-155 0 -250.5 100t-95.5 259q0 104 43 185.5t122 127t181 45.5zM389 612q-101 0 -161 -70t-60 -192.5t60 -192
t161 -69.5t161 69.5t60 192t-60 192.5t-161 70z" />
    <glyph glyph-name="ocircumflexacute" unicode="&#x1ed1;" horiz-adv-x="601" 
d="M522 700h-99l106 162h132zM481 562h-98l-82 105l-82 -105h-99l111 162h139zM300 510q79 0 138.5 -34t91 -92.5t31.5 -133.5q0 -114 -71 -187t-189.5 -73t-189.5 73t-71 187t71 187t189 73zM300 427q-66 0 -106 -46.5t-40 -130t40 -130.5t106.5 -47t106.5 47t40 130
q0 42 -10.5 75.5t-30 56t-46.5 34t-60 11.5z" />
    <glyph glyph-name="Ocircumflexgrave" unicode="&#x1ed2;" horiz-adv-x="778" 
d="M688 829h-99l-138 162h131zM569 748h-98l-82 104l-82 -104h-99l112 162h138zM389 708q155 0 250.5 -100t95.5 -258.5t-95.5 -258.5t-250.5 -100t-250.5 100t-95.5 259q0 104 43 185.5t122 127t181 45.5zM389 612q-101 0 -161 -70t-60 -192.5t60 -192t161 -69.5t161 69.5
t60 192t-60 192.5t-161 70z" />
    <glyph glyph-name="ocircumflexgrave" unicode="&#x1ed3;" horiz-adv-x="601" 
d="M537 700h-99l-138 162h131zM481 562h-98l-82 105l-82 -105h-99l111 162h139zM300 510q79 0 138.5 -34t91 -92.5t31.5 -133.5q0 -114 -71 -187t-189.5 -73t-189.5 73t-71 187t71 187t189 73zM300 427q-66 0 -106 -46.5t-40 -130t40 -130.5t106.5 -47t106.5 47t40 130
q0 56 -18.5 96.5t-51.5 60.5t-77 20z" />
    <glyph glyph-name="Ocircumflexhookabove" unicode="&#x1ed4;" horiz-adv-x="778" 
d="M661 1015q54 0 90.5 -26.5t36.5 -70.5q0 -33 -16 -53.5t-54 -41.5q-31 -17 -41 -25.5t-11 -25.5l-1 -19h-64l-2 31q-2 29 13.5 46.5t56.5 38.5q27 14 34.5 22.5t7.5 25.5q0 19 -15 29.5t-40 10.5q-28 -1 -63 -15l-33 43q42 30 101 30zM569 748h-98l-82 104l-82 -104h-99
l112 162h138zM389 708q155 0 250.5 -100t95.5 -258.5t-95.5 -258.5t-250.5 -100t-250.5 100t-95.5 259q0 104 43 185.5t122 127t181 45.5zM389 612q-101 0 -161 -70t-60 -192.5t60 -192t161 -69.5t161 69.5t60 192t-60 192.5t-161 70z" />
    <glyph glyph-name="ocircumflexhookabove" unicode="&#x1ed5;" horiz-adv-x="601" 
d="M490 956q53 0 89.5 -26.5t36.5 -70.5q0 -32 -16 -52.5t-53 -41.5q-31 -17 -41 -26t-11 -25l-2 -19h-63l-3 30q-1 29 14.5 46.5t56.5 39.5q26 14 34 22.5t8 24.5q0 20 -15 30.5t-41 10.5q-27 -1 -63 -15l-32 43q42 29 101 29zM481 562h-98l-82 105l-82 -105h-99l111 162
h139zM300 510q79 0 138.5 -34t91 -92.5t31.5 -133.5q0 -114 -71 -187t-189.5 -73t-189.5 73t-71 187t71 187t189 73zM300.5 428q-66.5 0 -106.5 -47t-40 -130.5t40 -130.5t106.5 -47t106.5 47t40 130.5t-40 130.5t-106.5 47z" />
    <glyph glyph-name="Ocircumflextilde" unicode="&#x1ed6;" horiz-adv-x="778" 
d="M483 1069l65 -13q-2 -45 -24 -70t-57 -28q-26 -2 -62 11q-11 4 -26.5 10.5t-26.5 11.5t-17 5q-9 2 -15 -1.5t-12 -13t-13 -28.5l-65 20q15 82 72 93q33 5 87 -18q43 -18 60 -14q19 3 34 35zM569 762h-98l-82 105l-82 -105h-99l112 162h138zM389 708q155 0 250.5 -100
t95.5 -258.5t-95.5 -258.5t-250.5 -100t-250.5 100t-95.5 258.5t95.5 258.5t250.5 100zM389 612q-101 0 -161 -70t-60 -192.5t60 -192t161 -69.5q67 0 116.5 30.5t77 90t27.5 141t-27.5 141t-77 90.5t-116.5 31z" />
    <glyph glyph-name="ocircumflextilde" unicode="&#x1ed7;" horiz-adv-x="601" 
d="M394 863l66 -14q-2 -44 -24 -69t-58 -28q-25 -2 -61 11q-11 3 -26.5 10t-27 11.5t-17.5 5.5q-12 2 -20.5 -7t-18.5 -36l-66 19q15 82 73 93q33 6 87 -17q43 -18 59 -15q20 4 34 36zM481 562h-98l-82 105l-82 -105h-99l111 162h139zM300 510q79 0 138.5 -34t91 -92.5
t31.5 -133.5q0 -114 -71 -187t-189.5 -73t-189.5 73t-71 187t71 187t189 73zM300 427q-66 0 -106 -46.5t-40 -130t40 -130.5t106.5 -47t106.5 47t40 130q0 56 -18.5 96.5t-51.5 60.5t-77 20z" />
    <glyph glyph-name="Ocircumflexdotbelow" unicode="&#x1ed8;" horiz-adv-x="778" 
d="M569 762h-98l-82 105l-82 -105h-99l112 162h138zM389 708q155 0 250.5 -100t95.5 -258.5t-95.5 -258.5t-250.5 -100t-250.5 100t-95.5 259q0 104 43 185.5t122 127t181 45.5zM389 612q-101 0 -161 -70t-60 -192.5t60 -192t161 -69.5t161 69.5t60 192t-60 192.5t-161 70z
M389 -78q24 0 40.5 -17t16.5 -40t-16.5 -40.5t-40.5 -17.5q-12 0 -23 5t-18 13t-11.5 18.5t-4.5 21.5q0 23 16.5 40t40.5 17z" />
    <glyph glyph-name="ocircumflexdotbelow" unicode="&#x1ed9;" horiz-adv-x="601" 
d="M481 562h-98l-82 105l-82 -105h-99l111 162h139zM300 510q79 0 138.5 -34t91 -92.5t31.5 -133.5q0 -114 -71 -187t-189.5 -73t-189.5 73t-71 187t71 187t189 73zM300 427q-66 0 -106 -46.5t-40 -130t40 -130.5t106.5 -47t106.5 47t40 130q0 56 -18.5 96.5t-51.5 60.5
t-77 20zM300.5 -78q24.5 0 41 -17t16.5 -40t-17 -40.5t-41 -17.5t-40.5 17.5t-16.5 40.5t16.5 40t41 17z" />
    <glyph glyph-name="Ohornacute" unicode="&#x1eda;" horiz-adv-x="779" 
d="M433 762h-99l106 162h131zM661 819l85 27q30 -58 28 -112q-2 -52 -33 -83t-81 -34q-15 -1 -30 1q105 -100 105 -268q0 -159 -95.5 -259t-250.5 -100t-250.5 100t-95.5 258.5t95.5 258.5t250.5 100q79 0 144 -29q30 -13 65 -13q83 0 87 63q2 38 -24 90zM389 612
q-101 0 -161 -70t-60 -192.5t60 -192t161 -69.5q50 0 91 18t70 51t44.5 82.5t15.5 110.5q0 122 -60 192t-161 70z" />
    <glyph glyph-name="ohornacute" unicode="&#x1edb;" horiz-adv-x="600" 
d="M344 562h-98l105 162h132zM511 613l77 25q30 -58 29 -112q-3 -49 -30.5 -79.5t-75.5 -35.5q50 -66 50 -161q0 -114 -71 -187t-189.5 -73t-189.5 73t-71 187t71 187t189 73q94 0 160 -49l13 3q54 7 60 58q5 38 -22 91zM300 428q-43 0 -76 -20.5t-51.5 -61t-18.5 -96.5
q0 -83 40 -130t106.5 -47t106.5 47t40 130.5t-40 130.5t-107 47z" />
    <glyph glyph-name="Ohorngrave" unicode="&#x1edc;" horiz-adv-x="779" 
d="M443 762h-99l-138 162h131zM661 819l85 27q30 -58 28 -112q-2 -52 -33 -83t-81 -34q-15 -1 -30 1q105 -100 105 -268q0 -159 -95.5 -259t-250.5 -100t-250.5 100t-95.5 258.5t95.5 258.5t250.5 100q79 0 144 -29q30 -13 65 -13q83 0 87 63q2 38 -24 90zM389 612
q-101 0 -161 -70t-60 -192.5t60 -192t161 -69.5t161 69.5t60 192t-60 192.5t-161 70z" />
    <glyph glyph-name="ohorngrave" unicode="&#x1edd;" horiz-adv-x="600" 
d="M355 562h-99l-139 162h132zM511 613l77 25q30 -58 29 -112q-3 -49 -30.5 -79.5t-75.5 -35.5q50 -66 50 -161q0 -114 -71 -187t-189.5 -73t-189.5 73t-71 187t71 187t189 73q94 0 160 -49l13 3q54 7 60 58q5 38 -22 91zM300 428q-43 0 -76 -20.5t-51.5 -61t-18.5 -96.5
q0 -83 40 -130t106.5 -47t106.5 47t40 130.5t-40 130.5t-107 47z" />
    <glyph glyph-name="Ohornhookabove" unicode="&#x1ede;" horiz-adv-x="779" 
d="M419 1026q21 0 40 -4.5t34.5 -13t27.5 -20t18.5 -27t6.5 -32.5q0 -33 -16 -53.5t-54 -41.5q-31 -17 -41 -26t-11 -25l-1 -19h-64l-2 30q-2 29 13.5 46.5t56.5 39.5q27 14 34.5 22.5t7.5 25.5q0 19 -15 29.5t-40 10.5q-28 -1 -63 -15l-33 43q42 30 101 30zM661 819l85 27
q30 -58 28 -112q-2 -52 -33 -83t-81 -34q-15 -1 -30 1q105 -100 105 -268q0 -159 -95.5 -259t-250.5 -100t-250.5 100t-95.5 259q0 104 43 185.5t122 127t181 45.5q79 0 144 -29q30 -13 65 -13q83 0 87 63q2 38 -24 90zM389 612q-101 0 -161 -70t-60 -192.5t60 -192
t161 -69.5q67 0 116.5 30.5t77 90.5t27.5 141q0 122 -60 192t-161 70z" />
    <glyph glyph-name="ohornhookabove" unicode="&#x1edf;" horiz-adv-x="600" 
d="M329 818q53 0 89.5 -26.5t36.5 -70.5q0 -32 -16 -52.5t-54 -42.5q-31 -16 -41 -25t-10 -26l-2 -19h-64l-2 31q-1 29 14.5 46.5t56.5 39.5q26 14 34 22.5t8 24.5q0 19 -15 30t-41 10q-27 0 -63 -15l-32 43q41 30 101 30zM511 613l77 25q30 -58 29 -112q-3 -49 -30.5 -79.5
t-75.5 -35.5q50 -66 50 -161q0 -114 -71 -187t-190 -73q-78 0 -137.5 34t-91 92.5t-31.5 133.5q0 114 71 187t189 73q94 0 160 -49l13 3q54 7 60 58q5 38 -22 91zM300 428q-66 0 -106 -47t-40 -130.5t40 -130.5t106.5 -47t106.5 47t40 130q0 42 -10.5 75.5t-30 56
t-46.5 34.5t-60 12z" />
    <glyph glyph-name="Ohorntilde" unicode="&#x1ee0;" horiz-adv-x="779" 
d="M483 882l65 -13q-2 -45 -24 -69.5t-57 -27.5q-26 -3 -62 10q-12 4 -37.5 15.5t-32.5 12.5q-13 1 -21 -8t-19 -36l-65 20q15 82 72 93q33 5 87 -18q43 -18 60 -14q19 3 34 35zM661 819l85 27q30 -58 28 -112q-2 -34 -16.5 -60t-39.5 -40.5t-58 -16.5q-15 -1 -30 1
q105 -100 105 -268q0 -159 -95.5 -259t-250.5 -100t-250.5 100t-95.5 258.5t95.5 258.5t250.5 100q79 0 144 -29q30 -13 65 -13q83 0 87 63q2 38 -24 90zM389 612q-101 0 -161 -70t-60 -192.5t60 -192t161 -69.5t161 69.5t60 192t-60 192.5t-161 70z" />
    <glyph glyph-name="ohorntilde" unicode="&#x1ee1;" horiz-adv-x="600" 
d="M394 682l66 -13q-1 -30 -12 -51.5t-28.5 -32.5t-41.5 -13q-25 -3 -61 10q-11 4 -26.5 10.5t-27 11.5t-17.5 6q-8 1 -14 -2.5t-12 -13t-13 -28.5l-66 20q15 82 73 93q33 5 87 -18q43 -18 59 -14q20 3 34 35zM511 613l77 25q30 -58 28 -112q-2 -49 -29.5 -79.5t-75.5 -35.5
q50 -66 50 -161q0 -114 -71 -187t-189.5 -73t-189.5 73t-71 187t71 187t189 73q94 0 160 -49l13 3q54 7 60 58q5 38 -22 91zM300 428q-66 0 -106 -47t-40 -131q0 -55 18.5 -95.5t51.5 -61t76 -20.5q67 0 107 47t40 130q0 42 -10.5 75.5t-30 56t-46.5 34.5t-60 12z" />
    <glyph glyph-name="Ohorndotbelow" unicode="&#x1ee2;" horiz-adv-x="779" 
d="M661 819l85 27q30 -58 28 -112q-2 -52 -33 -83t-81 -34q-15 -1 -30 1q105 -100 105 -268q0 -159 -95.5 -259t-250.5 -100t-250.5 100t-95.5 258.5t95.5 258.5t250.5 100q79 0 144 -29q30 -13 65 -13q83 0 87 63q2 38 -24 90zM389 612q-101 0 -161 -70t-60 -192.5t60 -192
t161 -69.5t161 69.5t60 192t-60 192.5t-161 70zM389 -78q24 0 40.5 -17t16.5 -40t-16.5 -40.5t-40.5 -17.5t-40.5 17.5t-16.5 40.5t16.5 40t40.5 17z" />
    <glyph glyph-name="ohorndotbelow" unicode="&#x1ee3;" horiz-adv-x="600" 
d="M511 613l77 25q30 -58 29 -112q-3 -49 -30.5 -79.5t-75.5 -35.5q50 -66 50 -161q0 -114 -71 -187t-190 -73q-78 0 -137.5 34t-91 92.5t-31.5 133.5q0 114 71 187t189 73q94 0 160 -49l13 3q54 7 60 58q5 38 -22 91zM300 428q-66 0 -106 -47t-40 -130.5t40 -130.5
t106.5 -47t106.5 47t40 130q0 42 -10.5 75.5t-30 56t-46.5 34.5t-60 12zM300.5 -78q24.5 0 41 -17t16.5 -40t-17 -40.5t-41 -17.5t-40.5 17.5t-16.5 40.5t16.5 40t41 17z" />
    <glyph glyph-name="Udotbelow" unicode="&#x1ee4;" horiz-adv-x="828" 
d="M778 627l-67 -5q-14 -2 -14 -16v-334q0 -126 -76.5 -204t-203.5 -78q-83 0 -146.5 35.5t-98 99.5t-34.5 147v334q0 14 -14 15l-62 6q-7 0 -7 7v65h285v-72l-67 -6q-14 -1 -14 -15v-334q0 -89 45 -137t121 -48q77 0 124.5 48.5t47.5 136.5v334q0 14 -15 15l-71 6v72h267
v-72zM412.5 -78q24.5 0 41 -17t16.5 -40t-16.5 -40.5t-40.5 -17.5q-12 0 -23 5t-18.5 13t-11.5 18.5t-4 21.5q0 23 16 40t40.5 17z" />
    <glyph glyph-name="udotbelow" unicode="&#x1ee5;" horiz-adv-x="693" 
d="M40 499h181q8 0 8 -8v-321q0 -98 88 -98q67 0 150 53v286q0 14 -14 15l-67 6v67h184q8 0 8 -8v-404q0 -15 15 -16l61 -3v-66l-178 -9q-9 0 -9 8v63q-47 -33 -100.5 -53.5t-100.5 -20.5q-67 0 -107.5 40.5t-40.5 119.5v261q0 14 -14 15l-64 6v67zM347 -78q24 0 40.5 -17
t16.5 -40t-16.5 -40.5t-40.5 -17.5t-40.5 17.5t-16.5 40.5t16.5 40t40.5 17z" />
    <glyph glyph-name="Uhookabove" unicode="&#x1ee6;" horiz-adv-x="828" 
d="M431 1026q53 0 89.5 -26.5t36.5 -70.5q0 -33 -16 -53.5t-53 -41.5q-32 -17 -41.5 -26t-10.5 -25l-2 -19h-63l-3 30q-1 29 14.5 46.5t56.5 39.5q26 14 34 22.5t8 25.5q0 19 -15 29.5t-41 10.5q-27 -1 -63 -15l-32 43q42 30 101 30zM778 627l-67 -5q-14 -2 -14 -16v-333
q0 -127 -76.5 -205t-203 -78t-203 78t-76.5 205v333q0 14 -14 15l-62 6q-7 0 -7 7v65h285v-72l-67 -5q-14 -2 -14 -16v-333q0 -61 21 -103t58 -62.5t86 -20.5q51 0 89.5 20.5t61 63t22.5 102.5v333q0 14 -15 15l-71 6v72h267v-72z" />
    <glyph glyph-name="uhookabove" unicode="&#x1ee7;" horiz-adv-x="693" 
d="M358 818q53 0 90 -26.5t37 -70.5q0 -32 -16 -52.5t-54 -42.5q-31 -16 -41 -25t-11 -26l-2 -19h-63l-2 31q-2 29 13.5 46.5t56.5 39.5q26 14 34 22.5t8 24.5q0 19 -15 30t-41 10q-27 0 -63 -15l-32 43q42 30 101 30zM40 499h181q8 0 8 -8v-321q0 -98 88 -98q67 0 150 53
v286q0 14 -14 15l-67 6v67h184q8 0 8 -8v-404q0 -15 15 -16l61 -3v-66l-178 -9q-9 0 -9 8v63q-47 -33 -100.5 -53.5t-100.5 -20.5q-67 0 -107.5 40.5t-40.5 119.5v261q0 14 -14 15l-64 6v67z" />
    <glyph glyph-name="Uhornacute" unicode="&#x1ee8;" horiz-adv-x="830" 
d="M458 762h-99l106 162h132zM742 821l62 24q33 -25 46 -60q15 -36 2.5 -73t-49.5 -57q-20 -11 -46 -13l-48 -5q-12 -3 -12 -16v-347q0 -127 -76.5 -205t-203 -78t-203 78t-76.5 205v333q0 14 -14 16l-62 5q-7 0 -7 8v64h285v-72l-67 -5q-14 -2 -14 -16v-333q0 -90 45 -138
t120 -48q38 0 69.5 12t54.5 35t36 58.5t13 80.5v333q0 14 -15 15l-71 6v72h223q11 2 20 7q20 11 25 30t-4 40q-10 25 -33 44z" />
    <glyph glyph-name="uhornacute" unicode="&#x1ee9;" horiz-adv-x="693" 
d="M391 562h-99l106 162h131zM578 632l62 23q41 -31 49 -81q6 -37 -10.5 -69t-53.5 -46q-21 -9 -47 -10v-362q0 -15 15 -16l61 -3v-66l-178 -9q-9 0 -9 8v63q-31 -22 -65 -38.5t-69.5 -26t-66.5 -9.5q-44 0 -76.5 17t-52 53.5t-19.5 89.5v261q0 14 -14 15l-64 6v67h181
q8 0 8 -8v-321q0 -98 88 -98q67 0 150 53v286q0 14 -14 15l-67 6v67h154q22 0 41 10q20 10 29 27.5t3 39.5q-7 29 -35 56z" />
    <glyph glyph-name="Uhorngrave" unicode="&#x1eea;" horiz-adv-x="830" 
d="M468 762h-99l-138 162h131zM742 821l62 24q33 -25 46 -60q15 -36 2.5 -73t-49.5 -57q-20 -11 -46 -13l-48 -5q-12 -3 -12 -16v-347q0 -127 -76.5 -205t-203 -78t-203 78t-76.5 205v333q0 14 -14 16l-62 5q-7 0 -7 8v64h285v-72l-67 -5q-14 -2 -14 -16v-333q0 -90 45 -138
t120 -48q78 0 125.5 48.5t47.5 137.5v333q0 14 -15 15l-71 6v72h223q11 2 20 7q20 11 25 30t-4 40q-10 25 -33 44z" />
    <glyph glyph-name="uhorngrave" unicode="&#x1eeb;" horiz-adv-x="693" 
d="M401 562h-99l-139 162h132zM578 632l62 23q41 -31 49 -81q6 -37 -10.5 -69t-53.5 -46q-21 -9 -47 -10v-362q0 -15 15 -16l61 -3v-66l-178 -9q-9 0 -9 8v63q-47 -33 -100.5 -53.5t-100.5 -20.5q-67 0 -107.5 40.5t-40.5 119.5v261q0 14 -14 15l-64 6v67h181q8 0 8 -8v-321
q0 -98 88 -98q67 0 150 53v286q0 14 -14 15l-67 6v67h154q22 0 41 10q20 10 29 27.5t3 39.5q-7 29 -35 56z" />
    <glyph glyph-name="Uhornhookabove" unicode="&#x1eec;" horiz-adv-x="830" 
d="M431 1026q21 0 39.5 -4.5t34.5 -13t27.5 -20t18 -27t6.5 -32.5q0 -33 -16 -53.5t-53 -41.5q-32 -17 -41.5 -26t-10.5 -25l-2 -19h-63l-3 30q-1 29 14.5 46.5t56.5 39.5q26 14 34 22.5t8 25.5q0 19 -15 29.5t-41 10.5q-27 -1 -63 -15l-32 43q41 30 101 30zM742 821l62 24
q33 -25 46 -60q15 -36 2.5 -73t-49.5 -57q-20 -11 -46 -13l-48 -5q-12 -3 -12 -15v-348q0 -127 -76.5 -205t-203 -78t-203 78t-76.5 205v333q0 14 -14 16l-62 5q-7 0 -7 8v64h285v-72l-67 -5q-14 -2 -14 -16v-333q0 -60 21 -102.5t58 -63t86 -20.5q51 0 89.5 20.5t61 63
t22.5 102.5v333q0 14 -15 15l-71 6v72h223q11 2 20 7q20 11 25 30t-4 40q-10 25 -33 44z" />
    <glyph glyph-name="uhornhookabove" unicode="&#x1eed;" horiz-adv-x="693" 
d="M358 818q53 0 90 -26.5t37 -70.5q0 -32 -16 -52.5t-54 -42.5q-31 -16 -41 -25t-11 -26l-2 -19h-63l-2 31q-2 29 13.5 46.5t56.5 39.5q26 14 34 22.5t8 24.5q0 19 -15 30t-41 10q-27 0 -63 -15l-32 43q42 30 101 30zM578 632l62 23q41 -31 49 -81q6 -37 -10.5 -69
t-53.5 -46q-21 -9 -47 -10v-362q0 -15 15 -16l61 -3v-66l-178 -9q-9 0 -9 8v63q-47 -33 -100.5 -53.5t-100.5 -20.5q-67 0 -107.5 40.5t-40.5 119.5v261q0 14 -14 15l-64 6v67h181q8 0 8 -8v-321q0 -98 88 -98q67 0 150 53v286q0 14 -14 15l-67 6v67h154q22 0 41 10
q20 10 28.5 27.5t3.5 39.5q-7 29 -35 56z" />
    <glyph glyph-name="Uhorntilde" unicode="&#x1eee;" horiz-adv-x="830" 
d="M508 882l65 -13q-1 -45 -23.5 -69.5t-57.5 -27.5q-26 -3 -61 10q-12 4 -37.5 15.5t-33.5 12.5q-12 1 -20.5 -8t-19.5 -36l-65 20q15 82 73 93q32 5 86 -18q43 -18 60 -14q20 3 34 35zM742 821l62 24q33 -25 46 -60q15 -36 2.5 -73t-49.5 -57q-20 -11 -46 -13l-48 -5
q-12 -3 -12 -16v-347q0 -127 -76.5 -205t-203 -78t-203 78t-76.5 205v333q0 14 -14 16l-62 5q-7 0 -7 8v64h285v-72l-67 -5q-14 -2 -14 -16v-333q0 -90 45 -138t120 -48q78 0 125.5 48.5t47.5 137.5v333q0 14 -15 15l-71 6v72h223q11 2 20 7q20 11 25 30t-4 40
q-10 25 -33 44z" />
    <glyph glyph-name="uhorntilde" unicode="&#x1eef;" horiz-adv-x="693" 
d="M440 682l66 -13q-1 -30 -12 -51.5t-28.5 -32.5t-41.5 -13q-25 -3 -61 10q-12 4 -37.5 15.5t-33.5 12.5q-12 1 -20 -8t-19 -35l-65 19q14 82 72 93q33 5 87 -18q43 -18 59 -14q20 3 34 35zM578 632l62 23q41 -31 49 -81q6 -37 -10.5 -69t-53.5 -46q-21 -9 -47 -10v-362
q0 -15 15 -16l61 -3v-66l-178 -9q-9 0 -9 8v63q-31 -22 -65 -38.5t-69.5 -26t-66.5 -9.5q-67 0 -107.5 40.5t-40.5 119.5v261q0 14 -14 15l-64 6v67h181q8 0 8 -8v-321q0 -98 88 -98q67 0 150 53v286q0 14 -14 15l-67 6v67h154q22 0 41 10q20 10 29 27.5t3 39.5
q-7 29 -35 56z" />
    <glyph glyph-name="Uhorndotbelow" unicode="&#x1ef0;" horiz-adv-x="830" 
d="M742 821l62 24q33 -25 46 -60q15 -36 2.5 -73t-49.5 -57q-20 -11 -46 -13l-48 -5q-12 -3 -12 -16v-347q0 -127 -76.5 -205t-203 -78t-203 78t-76.5 205v333q0 14 -14 16l-62 5q-7 0 -7 8v64h285v-72l-67 -5q-14 -2 -14 -16v-333q0 -90 45 -138t120 -48q78 0 125.5 48.5
t47.5 137.5v333q0 14 -15 15l-71 6v72h223q11 2 20 7q20 11 25 30t-4 40q-10 25 -33 44zM412.5 -78q24.5 0 41 -17t16.5 -40t-16.5 -40.5t-41 -17.5t-40.5 17.5t-16 40.5t16 40t40.5 17z" />
    <glyph glyph-name="uhorndotbelow" unicode="&#x1ef1;" horiz-adv-x="693" 
d="M578 632l62 23q41 -31 49 -81q3 -17 0.5 -34.5t-10 -33t-21.5 -28t-33 -19.5q-21 -9 -47 -10v-362q0 -15 15 -16l61 -3v-66l-178 -9q-9 0 -9 8v63q-31 -22 -65 -38.5t-69.5 -26t-66.5 -9.5q-67 0 -107.5 40.5t-40.5 119.5v261q0 14 -14 15l-64 6v67h181q8 0 8 -8v-321
q0 -98 88 -98q67 0 150 53v286q0 14 -14 15l-67 6v67h154q22 0 41 10q20 10 29 27.5t3 39.5q-7 29 -35 56zM347 -78q24 0 40.5 -17t16.5 -40q0 -22 -16.5 -40t-40.5 -18t-40.5 17.5t-16.5 40.5t16.5 40t40.5 17z" />
    <glyph glyph-name="Ygrave" unicode="&#x1ef2;" horiz-adv-x="701" 
d="M404 762h-98l-139 162h132zM680 628l-50 -4l-212 -379v-152q0 -15 14 -16l65 -5v-72h-279v64q0 8 7 8l59 5q14 1 14 16v145l-215 379q-4 6 -11 7l-43 4q-7 0 -7 7v65h146l199 -354l139 250q5 10 0.5 18.5t-15.5 9.5l-54 4q-7 1 -7 8v64h250v-72z" />
    <glyph glyph-name="ygrave" unicode="&#x1ef3;" horiz-adv-x="574" 
d="M342 562h-98l-139 162h131zM559 432l-50 -4l-251 -630q-2 -5 -7 -5h-186v68l121 9q9 2 12 10l47 118h-19l-162 422q-4 8 -12 9l-31 3q-7 1 -7 8v60h138l138 -390l116 293q2 6 1 11t-5 9t-11 4l-56 5q-7 0 -7 8v60h231v-68z" />
    <glyph glyph-name="Ydotbelow" unicode="&#x1ef4;" horiz-adv-x="701" 
d="M680 628l-50 -4l-212 -379v-152q0 -15 14 -16l65 -5v-72h-279v64q0 8 7 8l59 5q14 1 14 16v145l-215 379q-4 6 -11 7l-43 4q-7 0 -7 7v65h146l199 -354l139 250q5 10 0.5 18.5t-15.5 9.5l-54 4q-7 1 -7 8v64h250v-72zM347.5 -78q24.5 0 41 -17t16.5 -40t-16.5 -40.5
t-40.5 -17.5t-40.5 17.5t-16.5 40.5t16 40t40.5 17z" />
    <glyph glyph-name="ydotbelow" unicode="&#x1ef5;" horiz-adv-x="574" 
d="M559 432l-50 -4l-251 -630q-2 -5 -7 -5h-186v68l121 9q9 2 12 10l47 118h-19l-162 422q-3 8 -12 9l-31 3q-7 1 -7 8v60h138l138 -390l116 293q4 9 -0.5 16t-14.5 8l-56 5q-7 0 -7 8v60h231v-68zM374.5 -78q24.5 0 41 -17t16.5 -40t-17 -40.5t-41 -17.5q-12 0 -22.5 5
t-18 13t-12 18.5t-4.5 21.5q0 23 16.5 40t41 17z" />
    <glyph glyph-name="Yhookabove" unicode="&#x1ef6;" horiz-adv-x="701" 
d="M391 1026q53 0 89.5 -26.5t36.5 -70.5q0 -33 -16 -53.5t-54 -41.5q-31 -17 -41 -26t-11 -25l-1 -19h-64l-2 30q-2 29 13.5 46.5t57.5 39.5q26 14 34 22.5t8 25.5q0 19 -15 29.5t-41 10.5q-28 -1 -63 -15l-33 43q42 30 102 30zM680 628l-50 -4l-212 -379v-152
q0 -15 14 -16l65 -5v-72h-279v64q0 8 7 8l59 5q14 1 14 16v145l-215 379q-4 6 -11 7l-43 4q-7 0 -7 7v65h146l199 -354l139 250q5 10 0.5 18.5t-15.5 9.5l-54 4q-7 1 -7 8v64h250v-72z" />
    <glyph glyph-name="yhookabove" unicode="&#x1ef7;" horiz-adv-x="574" 
d="M305 818q53 0 89.5 -26.5t36.5 -70.5q0 -32 -16 -52.5t-54 -42.5q-31 -16 -40.5 -25t-10.5 -26l-2 -19h-63l-3 31q-1 29 14.5 46.5t56.5 39.5q26 14 34 22.5t8 24.5q0 19 -15 30t-41 10q-27 0 -63 -15l-32 43q41 30 101 30zM559 432l-50 -4l-251 -630q-2 -5 -7 -5h-186
v68l121 9q9 2 12 10l47 118h-19l-162 422q-4 8 -12 9l-31 3q-7 1 -7 8v60h138l138 -390l116 293q4 9 -0.5 16t-14.5 8l-56 5q-7 0 -7 8v60h231v-68z" />
    <glyph glyph-name="Ytilde" unicode="&#x1ef8;" horiz-adv-x="701" 
d="M444 882l66 -13q-2 -45 -24 -69.5t-58 -27.5q-25 -3 -61 10q-9 3 -20.5 8t-20 9t-17 7t-13.5 4q-8 1 -14 -2.5t-12 -13t-13 -28.5l-66 20q15 82 73 93q33 5 87 -18q42 -18 59 -14q20 3 34 35zM680 628l-50 -4l-212 -379v-152q0 -15 14 -16l65 -5v-72h-279v64q0 8 7 8
l58 5q15 1 15 16v145l-215 379q-4 6 -11 7l-43 4q-7 0 -7 7v65h146l199 -354l139 250q5 10 0.5 18.5t-15.5 9.5l-54 4q-7 1 -7 8v64h250v-72z" />
    <glyph glyph-name="ytilde" unicode="&#x1ef9;" horiz-adv-x="574" 
d="M382 682l65 -13q-1 -45 -23 -69.5t-58 -27.5q-25 -3 -61 10q-12 4 -37.5 15.5t-33.5 12.5q-6 0 -11 -1.5t-9.5 -6.5t-9 -13.5t-9.5 -22.5l-66 20q15 82 73 93q32 5 87 -18q42 -18 59 -14q20 3 34 35zM559 432l-50 -4l-251 -630q-2 -5 -7 -5h-186v68l121 9q9 2 12 10
l47 118h-19l-162 422q-4 8 -12 9l-31 3q-7 1 -7 8v60h138l138 -390l116 293q4 9 -0.5 16t-14.5 8l-56 5q-7 0 -7 8v60h231v-68z" />
    <glyph glyph-name="endash" unicode="&#x2013;" horiz-adv-x="498" 
d="M459 201h-420v96h420v-96z" />
    <glyph glyph-name="emdash" unicode="&#x2014;" horiz-adv-x="694" 
d="M655 201h-616v96h616v-96z" />
    <glyph glyph-name="quoteleft" unicode="&#x2018;" horiz-adv-x="196" 
d="M130 737l41 -26q-33 -51 -43 -98q-4 -20 -1 -34l4 -1q17 -7 27.5 -22.5t10.5 -33.5q0 -25 -18 -43.5t-44 -18.5q-29 0 -46.5 18t-20.5 46t5 64q20 84 85 149z" />
    <glyph glyph-name="quoteright" unicode="&#x2019;" horiz-adv-x="196" 
d="M89 737q43 0 59.5 -37.5t2.5 -90.5q-19 -84 -85 -149l-41 25q34 53 44 100q3 18 0 30l-1 2q-18 7 -29 23t-11 35q0 24 17.5 43t43.5 19z" />
    <glyph glyph-name="quotesinglbase" unicode="&#x201a;" horiz-adv-x="196" 
d="M90 116q42 0 58.5 -37t3.5 -91q-20 -84 -86 -149l-41 26q36 55 45 104q3 16 -1 28h-2q-18 7 -28.5 23t-10.5 34q0 16 7.5 30t22 23t32.5 9z" />
    <glyph glyph-name="quotedblleft" unicode="&#x201c;" horiz-adv-x="376" 
d="M130 737l41 -26q-32 -50 -43 -96q-4 -21 -1 -36l3 -1q11 -4 20 -13t14 -20t5 -23q0 -25 -18 -43.5t-44 -18.5q-29 0 -46.5 18t-20.5 46t5 64q20 84 85 149zM310 737l41 -26q-35 -55 -44 -103q-3 -17 0 -29l4 -1q17 -7 27.5 -22.5t10.5 -33.5q0 -25 -18 -43.5t-44 -18.5
q-43 0 -59.5 37t-2.5 91q20 84 85 149z" />
    <glyph glyph-name="quotedblright" unicode="&#x201d;" horiz-adv-x="376" 
d="M90 737q42 0 58.5 -37.5t3.5 -90.5q-20 -84 -86 -149l-41 25q31 48 41 92q5 21 2 36v4q-18 7 -29 23t-11 35q0 24 17.5 43t44.5 19zM270 737q42 0 58.5 -37.5t2.5 -90.5q-19 -85 -85 -149l-41 25q32 50 42 95q5 20 2 34l-1 3q-18 7 -29 23t-11 35q0 24 17.5 43t44.5 19z
" />
    <glyph glyph-name="quotedblbase" unicode="&#x201e;" horiz-adv-x="376" 
d="M90 116q42 0 58.5 -37t3.5 -91q-20 -84 -86 -149l-41 26q38 58 46 109q2 14 -2 23h-2q-18 7 -28.5 23t-10.5 34q0 16 7.5 30t22 23t32.5 9zM270 116q42 0 58.5 -37t3.5 -91q-20 -84 -86 -149l-41 26q32 48 42 95q5 21 2 35l-1 2q-18 6 -29 22t-11 35q0 25 17.5 43.5
t44.5 18.5z" />
    <glyph glyph-name="dagger" unicode="&#x2020;" horiz-adv-x="531" 
d="M320 500h172v-97h-173l7 -501h-120l6 501h-173v97h172l-6 210h121z" />
    <glyph glyph-name="daggerdbl" unicode="&#x2021;" horiz-adv-x="531" 
d="M320 500h172v-97h-172v-194h172v-97h-170l4 -210h-121l4 210h-170v97h172v194h-172v97h172l-6 210h121z" />
    <glyph glyph-name="bullet" unicode="&#x2022;" horiz-adv-x="338" 
d="M169 439q54 0 92 -38t38 -92t-38 -92t-92 -38t-92 38t-38 92t38 92t92 38z" />
    <glyph glyph-name="ellipsis" unicode="&#x2026;" horiz-adv-x="594" 
d="M100 116q18 0 32.5 -9t22 -23t7.5 -30q0 -24 -17.5 -43t-44.5 -19q-17 0 -31.5 9t-22 23t-7.5 30q0 25 17.5 43.5t43.5 18.5zM297 116q26 0 44 -18.5t18 -43t-18 -43.5t-44 -19t-44 19t-18 43q0 12 4.5 23t12.5 20t20 14t25 5zM493 116q26 0 44 -18.5t18 -43t-18 -43.5
t-44 -19t-44 19t-18 43q0 16 8 30t22.5 23t31.5 9z" />
    <glyph glyph-name="perthousand" unicode="&#x2030;" horiz-adv-x="1321" 
d="M330 -17h-103l362 734h103zM208.5 707q77.5 0 123.5 -58t46 -149t-46 -148.5t-123.5 -57.5t-123.5 57.5t-46 148.5t46 149t123.5 58zM208 640q-34 0 -56.5 -35t-22.5 -105t22.5 -105t57 -35t57 35t22.5 105q0 47 -11 79.5t-28.5 46.5t-40.5 14zM715 406q38 0 70.5 -15.5
t54 -43t33.5 -65.5t12 -82q0 -91 -46.5 -149t-124 -58t-123.5 58t-46 149q0 60 20 106.5t59 73t91 26.5zM1112 406q78 0 124 -57.5t46 -148.5t-46 -149t-124 -58t-124 58t-46 149q0 60 20.5 106.5t59.5 73t90 26.5zM714.5 340q-34.5 0 -57 -35t-22.5 -105q0 -47 11 -79.5
t28.5 -46.5t40.5 -14q34 0 56.5 35t22.5 105t-22.5 105t-57 35zM1112 340q-35 0 -57.5 -35t-22.5 -105q0 -47 11.5 -79.5t29 -46.5t39.5 -14q35 0 57.5 35t22.5 105t-22.5 105t-57.5 35z" />
    <glyph glyph-name="guilsinglleft" unicode="&#x2039;" horiz-adv-x="311" 
d="M158 250l123 -176h-114l-128 176l128 177h114z" />
    <glyph glyph-name="guilsinglright" unicode="&#x203a;" horiz-adv-x="311" 
d="M272 250l-128 -176h-114l123 176l-123 177h114z" />
    <glyph glyph-name="fraction" unicode="&#x2044;" horiz-adv-x="525" 
d="M133 -18h-103l362 734h103z" />
    <glyph glyph-name="zerosuperior" unicode="&#x2070;" horiz-adv-x="399" 
d="M199 746q52 0 91 -26.5t59.5 -73t20.5 -105.5t-20.5 -105.5t-59.5 -73t-91 -26.5q-77 0 -123.5 57.5t-46.5 147.5t46.5 147.5t123.5 57.5zM199.5 681q-35.5 0 -58 -35t-22.5 -105t22.5 -105t58 -35t58 35t22.5 105t-22.5 105t-58 35z" />
    <glyph glyph-name="foursuperior" unicode="&#x2074;" horiz-adv-x="325" 
d="M98 496h82l11 137q0 4 5 4h54v-141h50v-56h-50v-42q0 -6 6 -7l39 -3v-47h-183v43q0 4 5 5l45 3q6 1 6 7v41h-159v40l108 260h83z" />
    <glyph glyph-name="fivesuperior" unicode="&#x2075;" horiz-adv-x="310" 
d="M271 680h-138l-9 -97q15 5 33 5q60 -2 95.5 -35t35.5 -90q0 -61 -43.5 -94t-103.5 -33q-55 0 -114 29q-4 2 -4 6v85h61l3 -40q0 -5 4 -7q21 -10 44 -10q27 0 44.5 16t17.5 48q0 15 -4 27t-12 20t-19 12t-25 4q-25 0 -45 -17l-56 12l20 219h215v-60z" />
    <glyph glyph-name="sixsuperior" unicode="&#x2076;" horiz-adv-x="334" 
d="M196 746q55 0 100 -30l-23 -57q-44 27 -71 27q-29 0 -49.5 -25t-25.5 -74l-1 -4q25 24 65 23q58 -2 92.5 -41.5t32.5 -97.5t-39.5 -95t-96.5 -35q-72 2 -113 60.5t-38 148.5q3 94 51 147t116 53zM179 544q-52 2 -61 -57q6 -41 24 -64.5t42 -23.5q23 -1 37.5 17.5t15.5 53
t-15 54t-43 20.5z" />
    <glyph glyph-name="sevensuperior" unicode="&#x2077;" horiz-adv-x="311" 
d="M304 740v-52q-44 -54 -84 -151q-39 -97 -53 -195h-89q13 104 62 215q26 57 58 107q3 6 0.5 11t-8.5 5h-97q-9 0 -10 -10l-2 -36h-58v101q0 5 5 5h276z" />
    <glyph glyph-name="eightsuperior" unicode="&#x2078;" horiz-adv-x="349" 
d="M176 746q40 0 72.5 -14.5t50 -40t17.5 -57.5q0 -60 -56 -90q62 -29 62 -94q0 -49 -41 -81.5t-105.5 -32.5t-105.5 32.5t-41 81.5q0 65 62 94q-56 30 -56 90q0 48 39.5 80t101.5 32zM176 686q-25 0 -39 -14t-14 -41q0 -53 52.5 -53t52.5 53q0 27 -13.5 41t-38.5 14z
M175.5 514q-58.5 0 -58.5 -57q0 -29 15.5 -43.5t43.5 -14.5t43 14.5t15 43.5q0 57 -58.5 57z" />
    <glyph glyph-name="ninesuperior" unicode="&#x2079;" horiz-adv-x="336" 
d="M158 746q36 -1 65.5 -17.5t48.5 -44.5t28.5 -65.5t8.5 -81.5q-3 -94 -51 -147t-116 -53q-54 -1 -100 30l23 57q44 -27 71 -27q29 0 49.5 24.5t25.5 73.5l1 5q-25 -24 -65 -23q-58 2 -92.5 41t-32.5 98q2 57 39.5 94.5t96.5 35.5zM154 684q-23 1 -37.5 -17.5t-15.5 -53
t15 -54.5t43 -20q52 -2 61 57q-3 16 -7.5 30.5t-10.5 24.5t-13.5 17.5t-16.5 11.5t-18 4z" />
    <glyph glyph-name="zeroinferior" unicode="&#x2080;" horiz-adv-x="399" 
d="M199.5 254q77.5 0 124 -57.5t46.5 -147.5t-46.5 -147.5t-124 -57.5t-124 57.5t-46.5 147.5t46.5 147.5t124 57.5zM199.5 189q-35.5 0 -58 -35t-22.5 -105t22.5 -105t58 -35t58 35t22.5 105t-22.5 105t-58 35z" />
    <glyph glyph-name="oneinferior" unicode="&#x2081;" horiz-adv-x="264" 
d="M188 249v-338q0 -7 6 -7l39 -4v-50h-195v46q0 5 5 5l48 4q7 0 7 7v237q0 4 -3.5 5.5t-6.5 -0.5l-42 -28l-24 57l95 66h71z" />
    <glyph glyph-name="twoinferior" unicode="&#x2082;" horiz-adv-x="319" 
d="M162 255q33 0 61.5 -11t43.5 -32q53 -72 -45 -203q-33 -43 -87 -98h99q7 0 7 6l4 37h49v-104h-271v44l1 3q84 83 127 147q61 86 43 128q-10 22 -39 22q-40 0 -51 -39l-79 9q8 42 48 66.5t89 24.5z" />
    <glyph glyph-name="threeinferior" unicode="&#x2083;" horiz-adv-x="321" 
d="M151 254q54 0 94 -28.5t40 -77.5q0 -60 -62 -88q33 -14 50.5 -39t17.5 -58q0 -57 -44.5 -88t-103.5 -31q-67 0 -121 34l22 50q42 -20 88 -20q69 0 69 60q0 58 -61 58h-49v61l50 -1q57 0 57 54q0 27 -16 40.5t-40 13.5q-25 0 -42 -10q-5 -2 -5 -8l-4 -45h-54v84q0 3 3 5
q20 15 50.5 24.5t60.5 9.5z" />
    <glyph glyph-name="fourinferior" unicode="&#x2084;" horiz-adv-x="338" 
d="M111 4h82l11 137q0 5 5 5h54v-142h50v-55h-50v-42q0 -7 6 -7l39 -3v-47h-183v42q0 5 5 5l45 4q6 0 6 7v41h-159v40l108 260h83z" />
    <glyph glyph-name="fiveinferior" unicode="&#x2085;" horiz-adv-x="315" 
d="M275 188h-138l-8 -97q14 5 32 5q40 -1 69 -16t45.5 -43t16.5 -66q0 -61 -43 -94t-104 -33q-54 0 -114 29q-4 2 -4 6v86h61l3 -41q1 -4 5 -7q18 -9 43 -9q28 0 45.5 15.5t17.5 47.5q0 30 -16.5 46.5t-44.5 16.5q-24 0 -45 -16l-55 11l19 219h215v-60z" />
    <glyph glyph-name="sixinferior" unicode="&#x2086;" horiz-adv-x="334" 
d="M196 254q55 0 100 -30l-23 -57q-44 27 -71 27q-29 0 -49.5 -25t-25.5 -74l-1 -4q25 24 65 23q58 -2 92.5 -41t32.5 -98q-2 -58 -39.5 -95t-96.5 -35q-72 1 -113 60t-38 149q3 94 51 147t116 53zM179 52q-52 2 -61 -57q4 -27 14 -47t23 -30.5t29 -11.5q23 0 37.5 18.5
t15.5 52.5q1 35 -15 54.5t-43 20.5z" />
    <glyph glyph-name="seveninferior" unicode="&#x2087;" horiz-adv-x="311" 
d="M304 248v-51q-44 -54 -84 -152q-39 -95 -53 -195h-89q13 105 62 216q26 57 58 107q3 5 0.5 10t-8.5 5h-97q-9 0 -10 -9l-2 -37h-58v101q0 5 5 5h276z" />
    <glyph glyph-name="eightinferior" unicode="&#x2088;" horiz-adv-x="351" 
d="M176 254q40 0 72.5 -14.5t50 -40t17.5 -56.5q0 -61 -56 -91q62 -29 62 -94q0 -49 -41 -81.5t-105 -32.5t-105.5 32.5t-41.5 81.5q0 65 62 94q-56 30 -56 91q0 48 39.5 79.5t101.5 31.5zM176 194q-25 0 -39 -14t-14 -41q0 -53 52.5 -53t52.5 53q0 27 -13.5 41t-38.5 14z
M175.5 22q-58.5 0 -58.5 -57q0 -28 15.5 -43t43.5 -15q18 0 31 6.5t20 19.5t7 32q0 57 -58.5 57z" />
    <glyph glyph-name="nineinferior" unicode="&#x2089;" horiz-adv-x="338" 
d="M158 254q72 -2 113 -60.5t38 -148.5q-3 -94 -51 -147t-116 -53q-53 -2 -100 30l23 57q44 -27 71 -27q29 0 49.5 25t25.5 73l1 5q-26 -24 -65 -23q-58 2 -92.5 41t-32.5 98q2 58 39.5 95t96.5 35zM154 192q-23 1 -37.5 -17.5t-15.5 -53t15 -54t43 -20.5q52 -2 61 57
q-6 41 -24 64t-42 24z" />
    <glyph glyph-name="Euro" unicode="&#x20ac;" horiz-adv-x="705" 
d="M639 149l35 -83q-92 -75 -224 -75q-122 0 -209.5 64.5t-119.5 174.5h-88v75h73q-2 22 -2 45q0 17 1 33h-72v74h84q30 115 118.5 183t214.5 68q119 0 206 -61q3 -2 3 -6v-144h-70l-5 72q-1 8 -8 11q-59 32 -126 32q-75 0 -129 -40t-77 -115h269v-74h-283q-1 -16 -1 -33
q0 -24 2 -45h229v-75h-212q25 -69 80 -105.5t129 -36.5q98 0 182 61z" />
    <glyph glyph-name="trademark" unicode="&#x2122;" horiz-adv-x="963" 
d="M42 700h335q3 0 3 -4v-101h-53l-3 38q0 7 -7 7h-67v-266q0 -6 6 -7l36 -5v-44h-165v38q0 3 3 3l34 8q5 1 5 7v266h-67q-7 0 -7 -6l-3 -39h-53v101q0 4 3 4zM669 450l95 250h125v-46l-32 -3q-8 0 -7 -8l38 -276l36 -3v-46h-163v46l39 3q8 1 7 9l-24 190l-93 -248h-54
l-93 250l-27 -200l47 -4v-46h-155v43q0 3 3 3l30 3q5 0 6 6l36 270q1 8 -6 9l-29 2q-3 0 -3 3v43h129z" />
    <glyph glyph-name="uni2155" unicode="&#x2155;" horiz-adv-x="828" 
d="M274 -18h-102l362 734h103zM204 700v-338q0 -7 7 -7l39 -4v-50h-195v46q0 4 5 5l48 4q7 0 7 7v237q0 4 -3.5 6t-7.5 -1l-41 -28l-24 57l95 66h70zM773 338h-139l-8 -97q15 5 33 5q39 -1 68.5 -16t45.5 -43t16 -66q0 -61 -43 -94t-103 -33q-55 0 -115 29q-3 2 -3 6v86h61
l3 -41q0 -4 4 -6q21 -10 44 -10q17 0 30.5 6t22.5 20.5t9 37.5q0 30 -16 46t-44 16q-25 0 -45 -16l-56 11l19 219h216v-60z" />
    <glyph glyph-name="uni2156" unicode="&#x2156;" horiz-adv-x="885" 
d="M332 -18h-103l362 734h103zM179 706q33 0 61 -11t43 -32q54 -72 -44 -203q-27 -36 -87 -99h99q7 0 7 7l3 37h50v-104h-272v44q0 1 2 3q83 81 127 147q61 86 43 128q-10 22 -39 22q-40 0 -51 -39l-79 9q8 42 48 66.5t89 24.5zM830 338h-138l-9 -97q15 5 33 5
q60 -1 95.5 -34.5t35.5 -90.5q0 -61 -43.5 -94t-103.5 -33q-55 0 -114 29q-4 2 -4 6v86h61l3 -41q0 -4 4 -6q21 -10 44 -10q27 0 44.5 15.5t17.5 48.5q0 30 -16 46t-44 16q-25 0 -45 -16l-56 11l19 219h216v-60z" />
    <glyph glyph-name="uni2157" unicode="&#x2157;" horiz-adv-x="844" 
d="M290 -18h-103l363 734h102zM167 706q55 0 95 -28.5t40 -77.5q0 -60 -62 -89q22 -8 37 -22.5t23 -33t8 -40.5q0 -57 -44.5 -88t-104.5 -31q-68 0 -120 34l22 50q46 -20 87 -20q70 -1 70 60q0 58 -61 58h-49v60h50q57 0 57 54q0 27 -16 40.5t-41 13.5q-24 0 -41 -11
q-5 -1 -5 -7l-4 -46h-54v85q0 3 2 5q21 15 51.5 24.5t59.5 9.5zM788 338h-138l-8 -97q14 5 32 5q60 -1 95.5 -34.5t35.5 -90.5q0 -61 -43 -94t-104 -33q-55 0 -114 29q-4 2 -4 6v86h61l3 -41q1 -4 5 -6q21 -10 43 -10q18 0 31.5 6t22.5 20.5t9 37.5q0 30 -16.5 46t-44.5 16
q-24 0 -45 -16l-55 11l19 219h215v-60z" />
    <glyph glyph-name="uni2158" unicode="&#x2158;" horiz-adv-x="901" 
d="M347 -18h-102l362 734h103zM128 456h81l11 137q1 4 5 4h55v-141h50v-56h-50v-42q0 -6 6 -7l39 -3v-47h-183v43q0 4 4 5l46 3q6 1 6 7v41h-159v40l108 260h82zM846 338h-139l-8 -97q15 5 33 5q59 -1 94.5 -34.5t35.5 -90.5q0 -61 -43 -94t-103 -33q-55 0 -115 29
q-3 2 -3 6v86h61l3 -41q0 -4 4 -6q21 -10 44 -10q27 0 44.5 15.5t17.5 48.5q0 30 -16 46t-44 16q-25 0 -45 -16l-56 11l19 219h216v-60z" />
    </font>
</defs>
</svg>
