<?xml version="1.0" standalone="no"?>
<!DOCTYPE svg PUBLIC "-//W3C//DTD SVG 1.1//EN" "http://www.w3.org/Graphics/SVG/1.1/DTD/svg11.dtd" >
<svg xmlns="http://www.w3.org/2000/svg" xmlns:xlink="http://www.w3.org/1999/xlink" version="1.1">
<metadata>
Created by FontForge 20170731 at Wed Feb 19 12:07:10 2014
 By ,,,
Copyright (c) 2013 by Jonathan Hill. All rights reserved.
</metadata>
<defs>
<font id="Modum-Light" horiz-adv-x="600" vert-adv-y="1000" >
  <font-face 
    font-family="Modum Light"
    font-weight="300"
    font-stretch="normal"
    units-per-em="1000"
    panose-1="0 0 4 0 0 0 0 0 0 0"
    ascent="750"
    descent="-250"
    x-height="500"
    cap-height="700"
    bbox="-4 -225 1478 1099"
    underline-thickness="50"
    underline-position="-200"
    unicode-range="U+0020-FE6B"
  />
<missing-glyph horiz-adv-x="500" 
d="M0 0v700h500v-700h-500zM250 395l170 255h-340zM280 350l170 -255v510zM80 50h340l-170 255zM50 605v-510l170 255z" />
    <glyph glyph-name="fi" unicode="fi" horiz-adv-x="756" 
d="M298 750q69 -1 126 -39l-15 -26q-52 33 -107 33q-54 0 -89.5 -32t-35.5 -92v-94h419q6 0 6 -6v-449q0 -10 10 -11l76 -6v-28h-199v23q0 5 6 6l55 4q10 1 10 12v409q0 11 -11 11l-179 10l-193 -10v-420q0 -10 11 -11l73 -6v-28h-189v23q0 5 5 6l48 4q10 1 10 11v421l-62 4
q-6 0 -6 5v26h68v96q0 74 47 114t116 40z" />
    <glyph glyph-name="fl" unicode="fl" horiz-adv-x="746" 
d="M369 738l227 12q6 0 6 -6v-699q0 -10 10 -11l76 -6v-28h-196v23q0 5 6 6l52 4q10 1 10 12v658q0 11 -11 11h-171l-16 -6q-31 11 -60 10q-54 0 -89.5 -32t-35.5 -92v-94h150v-28l-150 -7v-420q0 -10 11 -11l73 -6v-28h-189v23q0 5 5 6l48 4q10 1 10 11v421l-62 4
q-6 0 -6 5v26h68v96q0 74 47 114t116 40q36 0 71 -12z" />
    <glyph glyph-name="f_f" unicode="ff" horiz-adv-x="832" 
d="M713 750q69 -1 127 -39l-15 -26q-53 33 -108 33q-20 0 -38 -4.5t-34 -14.5t-27.5 -24.5t-18 -35t-6.5 -45.5v-94h149v-28l-149 -7v-420q0 -10 10 -11l74 -6v-28h-190v23q0 5 6 6l48 4q10 1 10 11v421l-180 10l-194 -10v-420q0 -10 11 -11l73 -6v-28h-189v23q0 5 5 6l48 4
q10 1 10 11v421l-62 4q-6 0 -6 5v26h68v96q0 74 47 114t116 40q69 -1 126 -39l-15 -26q-52 33 -107 33q-35 0 -62.5 -13t-45 -41.5t-17.5 -69.5v-94h374v96q0 74 47 114t115 40z" />
    <glyph glyph-name="f_f_i" unicode="ffi" horiz-adv-x="1171" 
d="M713 750q69 -1 127 -39l-15 -26q-53 33 -108 33q-53 0 -88.5 -32t-35.5 -92v-94h418q7 0 7 -6v-449q0 -10 10 -11l75 -6v-28h-198v23q0 5 5 6l55 4q11 1 11 12v409q0 11 -11 11l-179 10l-193 -10v-420q0 -10 10 -11l74 -6v-28h-190v23q0 5 6 6l48 4q10 1 10 11v421
l-180 10l-194 -10v-420q0 -10 11 -11l73 -6v-28h-189v23q0 5 5 6l48 4q10 1 10 11v421l-62 4q-6 0 -6 5v26h68v96q0 74 47 114t116 40q69 -1 126 -39l-15 -26q-52 33 -107 33q-35 0 -62.5 -13t-45 -41.5t-17.5 -69.5v-94h374v96q0 74 47 114t115 40z" />
    <glyph glyph-name="f_f_l" unicode="ffl" horiz-adv-x="1162" 
d="M785 738l226 12q7 0 7 -6v-699q0 -10 10 -11l75 -6v-28h-195v23q0 5 5 6l52 4q11 1 11 12v658q0 11 -11 11h-172l-15 -6q-31 11 -61 10q-34 0 -61.5 -13t-45 -41.5t-17.5 -69.5v-94h149v-28l-149 -7v-420q0 -10 10 -11l74 -6v-28h-190v23q0 5 6 6l48 4q10 1 10 11v421
l-180 10l-194 -10v-420q0 -10 11 -11l73 -6v-28h-189v23q0 5 5 6l48 4q10 1 10 11v421l-62 4q-6 0 -6 5v26h68v96q0 74 47 114t116 40q69 -1 126 -39l-15 -26q-52 33 -107 33q-54 0 -89.5 -32t-35.5 -92v-94h374v96q0 74 47 114t115 40q37 0 72 -12z" />
    <glyph glyph-name=".notdef" horiz-adv-x="500" 
d="M0 0v700h500v-700h-500zM250 395l170 255h-340zM280 350l170 -255v510zM80 50h340l-170 255zM50 605v-510l170 255z" />
    <glyph glyph-name=".null" horiz-adv-x="0" vert-adv-y="0" 
 />
    <glyph glyph-name="nonmarkingreturn" horiz-adv-x="333" 
 />
    <glyph glyph-name="space" unicode=" " horiz-adv-x="300" 
 />
    <glyph glyph-name="exclam" unicode="!" horiz-adv-x="155" 
d="M97 211h-39l-4 489h47zM77 54q13 0 21.5 -9t8.5 -21t-8.5 -21t-21 -9t-21 9t-8.5 21q0 6 2 11.5t6 9.5t9.5 6.5t11.5 2.5z" />
    <glyph glyph-name="quotedbl" unicode="&#x22;" horiz-adv-x="256" 
d="M86 506h-35l-4 212h43zM205 506h-35l-4 212h43z" />
    <glyph glyph-name="numbersign" unicode="#" horiz-adv-x="660" 
d="M481 508h132l-5 -35h-131l-31 -217h132l-5 -34h-131l-31 -222h-45l31 222h-177l-31 -222h-45l31 222h-128l5 34h128l30 217h-128l5 35h128l24 172h45l-24 -172h176l24 172h45zM255 473l-30 -217h176l31 217h-177z" />
    <glyph glyph-name="dollar" unicode="$" horiz-adv-x="558" 
d="M315 774v-83q86 -1 143 -35q2 -2 2 -5v-119h-29l-7 92q-1 6 -6 8q-45 23 -109 23q-56 0 -98 -15.5t-63.5 -43t-21.5 -62.5q0 -36 11 -57t45 -45t109 -61q84 -41 126 -71t57.5 -57.5t15.5 -68.5q0 -67 -47.5 -113.5t-127.5 -62.5v-91h-43v85q-13 -1 -42 -1q-90 0 -160 37
q-3 2 -3 5v119h30l6 -90q1 -6 6 -8q56 -26 131 -26q60 0 105.5 17.5t70.5 50t25 74.5q0 25 -5.5 41.5t-24 35t-49.5 37.5t-85 46q-68 33 -106 56t-60 47t-28.5 45t-6.5 54q0 63 54.5 106t141.5 51v85h43z" />
    <glyph glyph-name="percent" unicode="%" horiz-adv-x="889" 
d="M283 -17h-44l361 734h44zM204.5 706q71.5 0 114.5 -56.5t43 -149.5t-43 -149.5t-114.5 -56.5t-114.5 56.5t-43 149.5t43 149.5t114.5 56.5zM204 677q-33 0 -59 -20.5t-41.5 -61t-15.5 -95.5q0 -82 32.5 -129.5t83.5 -47.5t84 47.5t33 130t-33 129.5t-84 47zM685 406
q71 0 114 -56.5t43 -149.5t-43 -149.5t-114 -56.5t-114 56.5t-43 149.5t43 149.5t114 56.5zM685 377q-51 0 -84 -47.5t-33 -129.5t33 -129.5t84 -47.5t84 47.5t33 129.5t-33 129.5t-84 47.5z" />
    <glyph glyph-name="ampersand" unicode="&#x26;" horiz-adv-x="663" 
d="M266 710q90 0 143.5 -43t42.5 -128q-6 -42 -39.5 -78t-139.5 -107l-7 -4l219 -209q9 25 10 54l1 148h39v-163q0 -39 -16 -72l96 -93l-28 -31l-94 90q-29 -39 -80.5 -61.5t-115.5 -22.5q-77 0 -133 18.5t-86.5 55t-30.5 87.5q0 56 30 96.5t124 106.5l-73 69
q-47 46 -47 117q0 77 50.5 123.5t134.5 46.5zM266 674q-42 0 -73.5 -16t-48 -46t-16.5 -71q0 -58 33 -91l76 -72l7 4q69 46 101.5 72.5t44.5 45t15 43.5q6 45 -11 75t-49.5 43t-78.5 13zM462 106l-229 220q-88 -59 -113.5 -93t-25.5 -83q0 -125 199 -125q30 0 56.5 5.5
t48 16t37.5 25.5t27 34z" />
    <glyph glyph-name="quotesingle" unicode="'" horiz-adv-x="137" 
d="M86 506h-35l-4 212h43z" />
    <glyph glyph-name="parenleft" unicode="(" horiz-adv-x="336" 
d="M283 731l23 -28q-93 -58 -148 -159q-63 -113 -63 -268q0 -176 81 -296q52 -80 130 -130l-23 -29q-88 53 -145 138q-91 132 -91 317q0 163 72 289q60 106 164 166z" />
    <glyph glyph-name="parenright" unicode=")" horiz-adv-x="336" 
d="M30 703l23 28q104 -60 164 -166q72 -125 72 -289q0 -185 -91 -317q-57 -85 -145 -138l-23 29q78 50 130 130q80 120 80 297q0 154 -62 267q-55 101 -148 159z" />
    <glyph glyph-name="asterisk" unicode="*" horiz-adv-x="403" 
d="M229 580l80 -105l-32 -24l-76 109l-75 -109l-32 24l80 105l-127 38l13 39l124 -44l-3 132h41l-3 -132l124 44l13 -39z" />
    <glyph glyph-name="plus" unicode="+" horiz-adv-x="504" 
d="M270 309h187v-37h-187v-186h-36v186h-187v37h187v186h36v-186z" />
    <glyph glyph-name="comma" unicode="," horiz-adv-x="156" 
d="M70 54q25 0 34 -27t0 -67q-13 -65 -55 -116l-20 13q32 46 40 95q5 27 -3 43l-2 1q-7 1 -12.5 5t-8.5 10t-3 13q0 12 8.5 21t21.5 9z" />
    <glyph glyph-name="hyphen" unicode="-" horiz-adv-x="411" 
d="M364 231h-317v37h317v-37z" />
    <glyph glyph-name="period" unicode="." horiz-adv-x="154" 
d="M76.5 54q12.5 0 21.5 -9t9 -21t-9 -21t-21 -9q-8 0 -15 4t-11 11t-4 15q0 12 8.5 21t21 9z" />
    <glyph glyph-name="slash" unicode="/" horiz-adv-x="384" 
d="M77 -118h-49l278 860h50z" />
    <glyph glyph-name="zero" unicode="0" horiz-adv-x="624" 
d="M312 690q60 0 109 -25t83.5 -70.5t53.5 -111t19 -143.5q0 -159 -72.5 -254.5t-192.5 -95.5t-192.5 95.5t-72.5 254.5t72.5 254.5t192.5 95.5zM312 653q-96 0 -156.5 -84t-60.5 -229t60.5 -229t156.5 -84t156.5 84t60.5 229t-60.5 229t-156.5 84z" />
    <glyph glyph-name="one" unicode="1" horiz-adv-x="329" 
d="M208 680v-633q0 -11 11 -11l71 -6v-30h-217v24q0 6 6 6l72 6q10 1 10 11v572q0 5 -3.5 7t-8.5 -1l-94 -65l-19 30l130 89l2 1h40z" />
    <glyph glyph-name="two" unicode="2" horiz-adv-x="480" 
d="M246 690q25 0 48 -4.5t43 -13t36.5 -21.5t26.5 -30q76 -120 -96 -354q-60 -81 -207 -232h288q10 0 11 10l7 82h29v-127h-394v28q0 2 1 4q159 162 227 256q154 212 94 313q-16 26 -47 40t-69 14q-52 0 -94.5 -25.5t-57.5 -72.5l-43 6q18 61 74 94t123 33z" />
    <glyph glyph-name="three" unicode="3" horiz-adv-x="489" 
d="M234 690q53 0 96.5 -18.5t71.5 -57.5t28 -93q0 -58 -33.5 -98.5t-92.5 -57.5q65 -18 101.5 -64.5t36.5 -114.5q0 -50 -19 -88.5t-51 -61.5t-71 -34.5t-83 -11.5q-101 0 -181 51l18 29q71 -44 158 -44q79 0 129.5 40t50.5 122q0 50 -21 85.5t-59.5 54t-92.5 18.5h-62v35
h63q50 0 86.5 16.5t56 47t19.5 72.5q0 67 -43.5 103t-109.5 35q-70 0 -129 -39q-4 -3 -5 -8l-7 -95h-28v118q0 3 3 4q75 55 170 55z" />
    <glyph glyph-name="four" unicode="4" horiz-adv-x="521" 
d="M87 201h246l5 293q0 6 5 6h33v-299h98v-35h-98v-119q0 -10 10 -11l71 -6v-30h-211v24q0 6 5 6l71 6q10 1 10 11v119h-296v30l224 484h48z" />
    <glyph glyph-name="five" unicode="5" horiz-adv-x="481" 
d="M420 645h-273l-25 -277q46 23 106 23q98 0 157 -53.5t59 -144.5q0 -52 -18 -91.5t-49 -63.5t-69.5 -36t-83.5 -12q-89 0 -173 43q-3 1 -3 4v118h29l7 -91q1 -6 6 -9q65 -29 132 -29q76 0 124.5 41.5t48.5 125.5q0 77 -46 120t-126 43q-71 0 -119 -36l-29 13l31 347h314
v-35z" />
    <glyph glyph-name="six" unicode="6" horiz-adv-x="512" 
d="M309 689q65 -1 129 -36l-16 -31q-58 32 -110 33q-86 1 -146.5 -75t-66.5 -215q-2 -19 -2 -38q25 48 71 73.5t107 23.5q92 -3 147 -64t51.5 -159t-57 -155.5t-139.5 -54.5q-109 3 -171.5 100.5t-57.5 256.5q5 163 79.5 253t181.5 88zM269 389q-69 2 -114.5 -36.5
t-55.5 -109.5q14 -99 62 -157t118 -60q66 -2 107.5 45t44 131.5t-41.5 134.5t-120 52z" />
    <glyph glyph-name="seven" unicode="7" horiz-adv-x="480" 
d="M452 680v-33q-86 -108 -165 -289q-77 -177 -114 -358h-49q37 185 120 371q69 155 148 262q3 4 0.5 8t-7.5 4h-303q-11 0 -11 -10l-7 -81h-28v120q0 6 6 6h410z" />
    <glyph glyph-name="eight" unicode="8" horiz-adv-x="533" 
d="M266.5 690q93.5 0 150.5 -49t57 -129q0 -40 -15 -72.5t-42.5 -55.5t-65.5 -34q63 -18 99 -63t36 -110q0 -84 -60 -135.5t-159.5 -51.5t-159.5 51.5t-60 135.5q0 65 36 110t99 63q-58 17 -90.5 59.5t-32.5 102.5q0 80 57 129t150.5 49zM266 655q-74 0 -117 -38.5
t-43 -105.5t43 -105t117.5 -38t117.5 38t43 105q0 44 -19.5 76.5t-56 50t-85.5 17.5zM266.5 332q-79.5 0 -126 -40.5t-46.5 -111.5t46.5 -112.5t126 -41.5t125.5 41.5t46 112.5t-46 111.5t-125.5 40.5z" />
    <glyph glyph-name="nine" unicode="9" horiz-adv-x="512" 
d="M234 689q110 -3 172.5 -100.5t57.5 -256.5q-5 -162 -79.5 -252.5t-182.5 -88.5q-66 2 -129 36l16 31q59 -32 111 -32q85 -2 146 74.5t67 214.5q1 20 1 38q-24 -48 -70.5 -73.5t-106.5 -23.5q-93 3 -147.5 64t-51.5 159t57 155.5t139 54.5zM233 654q-44 2 -77.5 -18.5
t-53 -61t-21.5 -96.5q-2 -84 41.5 -134t119.5 -53q69 -2 114.5 36.5t56.5 109.5q-10 66 -35 114.5t-62 75t-83 27.5z" />
    <glyph glyph-name="colon" unicode=":" horiz-adv-x="154" 
d="M77 482q8 0 15 -4.5t11 -11t4 -14.5q0 -12 -9 -21t-21.5 -9t-21 9t-8.5 21t8.5 21t21.5 9zM77 54q6 0 11.5 -2.5t9.5 -6.5t6.5 -9.5t2.5 -11.5q0 -12 -9 -21t-21.5 -9t-21 9t-8.5 21t8.5 21t21.5 9z" />
    <glyph glyph-name="semicolon" unicode=";" horiz-adv-x="156" 
d="M70 482q8 0 15 -4.5t10.5 -11t3.5 -14.5q0 -12 -8.5 -21t-21 -9t-21 9t-8.5 21t8.5 21t21.5 9zM70 54q25 0 34 -27t0 -67q-13 -65 -55 -116l-20 13q33 48 41 97q4 27 -4 41l-2 1q-7 1 -12.5 5t-8.5 10t-3 13q0 12 8.5 21t21.5 9z" />
    <glyph glyph-name="less" unicode="&#x3c;" horiz-adv-x="597" 
d="M550 526l-459 -182l459 -182v-42l-503 200v47l503 200v-41z" />
    <glyph glyph-name="equal" unicode="=" horiz-adv-x="546" 
d="M499 378h-452v37h452v-37zM499 159h-452v37h452v-37z" />
    <glyph glyph-name="greater" unicode="&#x3e;" horiz-adv-x="597" 
d="M550 367v-47l-503 -200v42l459 182l-459 182v41z" />
    <glyph glyph-name="question" unicode="?" horiz-adv-x="432" 
d="M188 710q90 0 143.5 -39.5t53.5 -104.5q0 -57 -30 -90t-134 -88q-76 -40 -98 -63t-22 -60l-1 -54h-43v58q-1 45 25.5 74.5t110.5 73.5q66 35 95 56t38.5 40.5t9.5 51.5q0 24 -10 44t-29.5 34.5t-47.5 22.5t-63 8q-55 0 -95 -20q-6 -3 -6 -9l-7 -93h-28v117q0 3 2 4
q55 37 136 37zM79 54q6 0 11.5 -2.5t9.5 -6.5t6.5 -9.5t2.5 -11.5q0 -12 -9 -21t-21 -9t-21 9t-9 21t9 21t21 9z" />
    <glyph glyph-name="at" unicode="@" horiz-adv-x="935" 
d="M467 713q129 0 225 -55.5t146 -152.5t50 -221q0 -95 -55.5 -151.5t-143.5 -56.5h-102q-6 0 -6 5l-1 39q-51 -52 -131 -52q-83 0 -134.5 56t-51.5 148t53.5 148t139.5 56q98 0 162 -76v-281l71 -3q68 0 109 44.5t41 123.5q0 86 -25.5 158t-72.5 123t-117.5 79.5
t-156.5 28.5q-174 0 -272.5 -108.5t-98.5 -287.5q0 -181 100.5 -289t270.5 -109q63 0 118 16l14 -38q-66 -18 -132 -18q-127 0 -223 56.5t-146.5 155.5t-50.5 226t49.5 225t145.5 154.5t225 56.5zM456 445q-67 0 -107.5 -46.5t-40.5 -126t41 -126.5t109 -47q75 0 116 57v232
q-42 57 -118 57z" />
    <glyph glyph-name="A" unicode="A" horiz-adv-x="760" 
d="M676 35l56 -5v-30h-205v24q0 5 5 5l73 7q7 0 10 5.5t1 11.5l-68 164h-347l-74 -180l91 -7v-30h-190v25q0 5 5 5l46 4q6 1 8 7l272 658l41 2zM216 254h318l-159 387z" />
    <glyph glyph-name="B" unicode="B" horiz-adv-x="651" 
d="M78 700h291q94 0 150.5 -47.5t56.5 -125.5q0 -55 -29.5 -95.5t-82.5 -59.5q46 -11 80 -36t52 -62t18 -82q0 -87 -62.5 -139.5t-165.5 -52.5h-308v25q0 5 5 5l65 6q10 0 10 11v606q0 11 -10 11l-65 6q-5 0 -5 6v24zM278 663l-72 -6v-270h164q74 0 116.5 37t42.5 101
t-42.5 101t-116.5 37h-92zM206 350v-307l72 -6h107q56 0 96.5 19t62.5 54.5t22 83.5q0 72 -48.5 114t-132.5 42h-179z" />
    <glyph glyph-name="C" unicode="C" horiz-adv-x="650" 
d="M392 709q116 0 201 -61q2 -1 2 -4v-119h-30l-7 94q0 6 -5 8q-70 45 -161 45q-129 0 -207.5 -87t-78.5 -235t79 -235.5t209 -87.5q114 0 197 70l21 -30q-89 -77 -220 -77q-151 0 -243.5 99.5t-92.5 260.5t92.5 260t243.5 99z" />
    <glyph glyph-name="D" unicode="D" horiz-adv-x="756" 
d="M74 700h290q152 0 244 -95t92 -255t-92 -255t-244 -95h-290v25q0 5 5 5l65 6q10 0 10 11v606q0 11 -10 11l-65 6q-5 0 -5 6v24zM273 663l-72 -6v-614l73 -6h90q131 0 209 83t78 229.5t-78 230t-209 83.5h-91z" />
    <glyph glyph-name="E" unicode="E" horiz-adv-x="579" 
d="M74 700h443q6 0 6 -6v-123h-29l-7 82q-1 10 -11 10h-275v-289h243v-35h-243v-302h294q11 0 12 10l6 82h29v-123q0 -6 -6 -6h-462v25q0 5 5 5l65 6q10 0 10 11v606q0 11 -10 11l-65 6q-5 0 -5 6v24z" />
    <glyph glyph-name="F" unicode="F" horiz-adv-x="554" 
d="M74 700h437q6 0 6 -6v-123h-29l-7 82q-1 10 -11 10h-268v-301h222v-35h-222v-289l92 -8v-30h-220v24q0 6 5 6l65 6q10 0 10 11v606q0 11 -10 11l-65 6q-5 0 -5 6v24z" />
    <glyph glyph-name="G" unicode="G" horiz-adv-x="705" 
d="M392 709q113 0 222 -59q3 -1 3 -4v-119h-30l-7 91q0 6 -5 8q-93 46 -183 46q-59 0 -110.5 -21t-91 -60.5t-62 -101.5t-22.5 -139q0 -148 78 -235.5t208 -87.5q123 0 201 80v165q0 11 -11 12l-179 9v31h227q6 0 6 -5v-319h-31l-6 63q-86 -73 -212 -73q-149 0 -240 99.5
t-91 260.5q0 85 27 154.5t73 113.5t106.5 67.5t129.5 23.5z" />
    <glyph glyph-name="H" unicode="H" horiz-adv-x="859" 
d="M785 670l-70 -6q-10 0 -10 -11v-606q0 -11 10 -11l70 -6v-30h-220v25q0 5 5 5l77 7q10 1 10 11v291h-456v-291q0 -10 11 -11l81 -7v-30h-219v24q0 6 5 6l65 6q10 0 10 11v606q0 11 -10 11l-65 6q-5 0 -5 5v25h219v-30l-81 -7q-11 -1 -11 -11v-276h456v276q0 10 -10 11
l-77 7q-5 0 -5 5v25h220v-30z" />
    <glyph glyph-name="I" unicode="I" horiz-adv-x="358" 
d="M284 670l-71 -6q-11 -1 -11 -11v-606q0 -10 11 -11l71 -6v-30h-210v24q0 6 5 6l66 6q10 1 10 11v606q0 10 -10 11l-66 6q-5 0 -5 6v24h210v-30z" />
    <glyph glyph-name="J" unicode="J" horiz-adv-x="367" 
d="M293 670l-69 -5q-10 -1 -10 -12v-617q0 -88 -46.5 -151t-127.5 -86l-12 28q64 22 101 77t37 132v616q0 10 -11 11l-76 7q-5 0 -5 5v25h219v-30z" />
    <glyph glyph-name="K" unicode="K" horiz-adv-x="739" 
d="M692 670l-75 -6l-259 -279l268 -345q2 -3 7 -4l73 -6q5 0 5 -6v-24h-114l-270 351l-126 -135v-168q0 -10 11 -11l81 -7v-30h-219v24q0 6 5 6l65 6q10 0 10 11v606q0 11 -10 11l-65 6q-5 0 -5 5v25h218v-30l-80 -7q-11 -1 -11 -11v-385l346 373q6 7 3.5 15.5t-12.5 9.5
l-54 5q-5 0 -5 5v25h213v-30z" />
    <glyph glyph-name="L" unicode="L" horiz-adv-x="567" 
d="M293 670l-81 -7q-11 -1 -11 -11v-615h282q11 0 12 10l6 82h29v-123q0 -6 -6 -6h-450v25q0 5 5 5l65 6q10 0 10 11v606q0 11 -10 11l-65 6q-5 0 -5 6v24h219v-30z" />
    <glyph glyph-name="M" unicode="M" horiz-adv-x="1024" 
d="M879 670l-66 -5q-12 -1 -10 -14l82 -616l67 -5v-30h-217v30l90 8q12 1 11 13l-76 574l-234 -624l-30 -1l-238 627l-79 -588l103 -9v-30h-214v24q0 6 5 6l58 5q8 1 10 9l81 607q2 13 -11 14l-60 5q-6 0 -6 6v24h136l235 -620l232 620h131v-30z" />
    <glyph glyph-name="N" unicode="N" horiz-adv-x="848" 
d="M780 670l-70 -6q-11 0 -11 -11v-653h-44l-461 623v-575q0 -10 10 -11l80 -7v-30h-215v24q0 6 5 6l65 6q10 0 10 11v606q0 11 -10 11l-65 6q-5 0 -5 5v25h123l463 -626v578q0 11 -11 11l-75 7q-5 0 -5 5v25h216v-30z" />
    <glyph glyph-name="O" unicode="O" horiz-adv-x="783" 
d="M391.5 709q151.5 0 243.5 -99t92 -260t-92.5 -260.5t-243.5 -99.5t-243 99.5t-92 260.5t92 260t243.5 99zM391.5 672q-129.5 0 -208 -87.5t-78.5 -235t78.5 -235t208 -87.5t208 87.5t78.5 235t-78.5 235t-208 87.5z" />
    <glyph glyph-name="P" unicode="P" horiz-adv-x="627" 
d="M74 700h291q94 0 150 -51.5t56 -136t-56 -136t-150 -51.5h-164v-277q0 -10 11 -11l81 -7v-30h-219v25q0 5 5 5l65 6q10 0 10 11v606q0 11 -10 11l-65 6q-5 0 -5 6v24zM275 663l-74 -6v-295h163q74 0 117.5 40.5t43.5 110t-43.5 110t-117.5 40.5h-89z" />
    <glyph glyph-name="Q" unicode="Q" horiz-adv-x="788" 
d="M821 -93l15 -33q-29 -13 -59 -15.5t-51 1.5t-50.5 18.5t-43 23.5t-43.5 30q-72 51 -114 67q-40 -9 -84 -9q-151 0 -243 99.5t-92 260.5t92 260t243 99t243.5 -99t92.5 -260q0 -80 -24 -147t-69 -115t-107 -73q30 -15 84 -53q27 -20 41 -29t38.5 -21.5t42 -15.5t41 -1.5
t47.5 12.5zM105 350q0 -148 78.5 -235.5t208 -87.5t208 87.5t78.5 235t-78.5 235t-208.5 87.5q-85 0 -150 -39t-100.5 -112t-35.5 -171z" />
    <glyph glyph-name="R" unicode="R" horiz-adv-x="677" 
d="M74 700h291q94 0 150 -50t56 -132q0 -77 -50.5 -125t-136.5 -52l-2 -1l184 -300q2 -4 7 -5l67 -5v-30h-102q-3 0 -4 3l-198 333h-135v-288q0 -10 11 -11l81 -7v-30h-219v25q0 5 5 5l65 6q10 0 10 11v606q0 11 -10 11l-65 6q-5 0 -5 6v24zM274 663l-73 -6v-284h165
q74 0 116.5 39t42.5 106.5t-42.5 106t-116.5 38.5h-92z" />
    <glyph glyph-name="S" unicode="S" horiz-adv-x="569" 
d="M315 710q91 0 153 -37q3 -1 3 -4v-119h-30l-7 92q0 5 -5 8q-47 24 -114 24q-86 0 -137.5 -34.5t-51.5 -90.5q0 -37 11.5 -59t46.5 -46t113 -63q86 -42 129.5 -73t59.5 -59.5t16 -69.5q0 -85 -72.5 -137t-187.5 -52q-97 0 -172 39q-3 2 -3 5v119h30l6 -90q1 -6 6 -9
q57 -27 136 -27q94 0 150.5 40.5t56.5 107.5q0 35 -12 57t-47 46t-110 62q-70 34 -109 57.5t-61.5 47.5t-29 46t-6.5 56q0 72 66.5 117.5t171.5 45.5z" />
    <glyph glyph-name="T" unicode="T" horiz-adv-x="640" 
d="M34 700h572q6 0 6 -6v-123h-29l-6 82q-1 11 -12 11h-221v-617q0 -11 10 -11l71 -6v-30h-210v24q0 6 5 6l66 6q10 1 10 11v617h-221q-11 0 -12 -11l-6 -81h-29v122q0 6 6 6z" />
    <glyph glyph-name="U" unicode="U" horiz-adv-x="833" 
d="M764 670l-70 -6q-10 -1 -10 -11v-381q0 -127 -73 -204.5t-192 -77.5t-192 77.5t-73 204.5v381q0 10 -10 11l-65 6q-5 0 -5 5v25h220v-30l-81 -7q-10 -1 -10 -11v-380q0 -113 59.5 -179t158.5 -66q100 0 162.5 66t62.5 179v379q0 11 -11 11l-87 8v30h216v-30z" />
    <glyph glyph-name="V" unicode="V" horiz-adv-x="721" 
d="M693 670l-55 -5l-259 -664l-37 -1l-260 660q-2 6 -9 6l-40 4q-5 0 -5 5v25h91l246 -633l224 580q3 6 -0.5 11t-10.5 6l-78 7q-5 0 -5 5v24h198v-30z" />
    <glyph glyph-name="W" unicode="W" horiz-adv-x="1097" 
d="M1069 670l-58 -5l-199 -664l-37 -1l-229 627l-231 -626l-37 -1l-196 659q-2 6 -9 7l-40 4q-5 0 -5 5v25h95l180 -626l209 573q1 4 0.5 8t-4 6.5t-7.5 2.5l-77 7q-5 0 -5 5v24h154l223 -625l169 573q2 6 -1.5 10.5t-9.5 5.5l-80 7q-5 0 -5 5v24h200v-30z" />
    <glyph glyph-name="X" unicode="X" horiz-adv-x="661" 
d="M630 670l-64 -6l-207 -313l211 -312q2 -4 7 -4l56 -5v-30h-87q-3 0 -5 2l-214 318l-185 -283l90 -8v-29h-201v25q0 5 5 5l55 5q5 1 7 5l204 309l-211 312q-3 4 -8 4l-48 5q-5 0 -5 5v25h88l217 -320l173 263q5 8 1.5 14.5t-12.5 7.5l-66 6q-5 0 -5 5v24h204v-30z" />
    <glyph glyph-name="Y" unicode="Y" horiz-adv-x="682" 
d="M654 670l-52 -5l-233 -414v-204q0 -10 10 -11l72 -6v-30h-211v24q0 6 5 6l66 6q11 1 11 11v197l-236 417q-3 4 -8 5l-45 4q-5 0 -5 5v25h88l233 -408l198 352q4 7 1 13t-11 7l-76 7q-5 0 -5 5v24h198v-30z" />
    <glyph glyph-name="Z" unicode="Z" horiz-adv-x="585" 
d="M544 670l-444 -633h401q11 0 11 10l6 80h30v-121q0 -6 -6 -6h-505v29l445 634h-373q-10 0 -11 -10l-6 -79h-30v120q0 6 6 6h476v-30z" />
    <glyph glyph-name="bracketleft" unicode="[" horiz-adv-x="263" 
d="M94 683v-777h139v-35h-186v846h186v-34h-139z" />
    <glyph glyph-name="backslash" unicode="\" horiz-adv-x="384" 
d="M356 -118h-50l-278 860h49z" />
    <glyph glyph-name="bracketright" unicode="]" horiz-adv-x="263" 
d="M216 717v-846h-186v35h139v777h-139v34h186z" />
    <glyph glyph-name="asciicircum" unicode="^" horiz-adv-x="491" 
d="M444 395h-44l-155 273l-154 -273h-44l175 305h47z" />
    <glyph glyph-name="underscore" unicode="_" horiz-adv-x="596" 
d="M549 -91h-502v35h502v-35z" />
    <glyph glyph-name="grave" unicode="`" horiz-adv-x="249" 
d="M202 577h-41l-114 142h54z" />
    <glyph glyph-name="a" unicode="a" horiz-adv-x="563" 
d="M256 510q35 0 64 -9.5t52.5 -28.5t37 -53t13.5 -79v-295q0 -10 10 -11l71 -6v-28h-113q-6 0 -6 6l-1 58q-65 -74 -172 -74q-71 0 -114.5 36t-43.5 95q0 56 37 84t125 52l165 44v39q0 74 -35 106.5t-93 32.5q-64 -1 -127 -35q-5 -3 -6 -8l-7 -85h-25v105q0 3 2 4
q78 49 166 50zM381 273l-155 -42q-73 -20 -101 -41.5t-28 -65.5q0 -47 33.5 -74.5t91.5 -27.5q99 0 155 74l4 5v172z" />
    <glyph glyph-name="b" unicode="b" horiz-adv-x="632" 
d="M64 744l106 6q6 0 6 -6v-304q64 70 169 70t168.5 -70t63.5 -186q0 -55 -13 -99.5t-36.5 -75t-57 -50.5t-72 -29.5t-83.5 -9.5q-87 0 -181 34v679q0 11 -11 12l-59 2v27zM335 479q-104 0 -159 -80v-351q74 -27 141 -27q98 0 158 56.5t60 172.5q0 105 -54.5 167t-145.5 62z
" />
    <glyph glyph-name="c" unicode="c" horiz-adv-x="502" 
d="M300 510q82 0 143 -42q2 -1 2 -4v-110h-29l-7 90q-1 5 -5 8q-45 27 -104 27q-91 0 -146.5 -62t-55.5 -167t55.5 -167t147.5 -62q75 0 134 44l17 -27q-63 -48 -152 -48q-111 0 -178 72t-67 188t67 188t178 72z" />
    <glyph glyph-name="d" unicode="d" horiz-adv-x="649" 
d="M387 744l107 6q6 0 6 -6v-699q0 -10 10 -11l71 -6v-28h-113q-6 0 -6 6l-1 58q-65 -74 -173 -74q-105 0 -169 70.5t-64 190.5q0 113 62 186t171 73q106 0 170 -72v265q0 11 -11 11l-60 3v27zM297 479q-90 0 -144.5 -62t-54.5 -166.5t55.5 -166.5t146.5 -62q103 0 158 78
v297q-55 82 -161 82z" />
    <glyph glyph-name="e" unicode="e" horiz-adv-x="549" 
d="M282 510q73 0 121.5 -31.5t71 -85t24.5 -130.5v-8q0 -9 -10 -9l-391 -3q2 -101 53.5 -161.5t136.5 -60.5q104 0 169 66l18 -26q-31 -32 -80 -51.5t-109 -19.5q-104 0 -167.5 72t-63.5 188q0 77 28 136t79.5 91.5t119.5 32.5zM282 480q-80 0 -129.5 -56t-54.5 -152h351
q7 0 6 7q-8 201 -173 201z" />
    <glyph glyph-name="f" unicode="f" horiz-adv-x="416" 
d="M298 750q69 -1 126 -39l-15 -26q-52 33 -107 33q-54 0 -89.5 -32t-35.5 -92v-94h150v-28l-150 -7v-420q0 -10 11 -11l73 -6v-28h-189v23q0 5 5 6l48 4q10 1 10 11v421l-62 4q-6 0 -6 5v26h68v96q0 74 47 114t116 40z" />
    <glyph glyph-name="g" unicode="g" horiz-adv-x="568" 
d="M509 486l-111 -9q24 -13 41.5 -33t26.5 -46t9 -56q0 -76 -52 -122t-138 -46q-42 0 -77 12q-67 -15 -67 -55q0 -34 35 -48.5t108 -14.5q102 0 161 -34.5t59 -109.5q0 -44 -28 -78t-79 -52.5t-116 -18.5q-49 0 -90.5 11t-71 30t-46 46t-16.5 59q0 44 33 78.5t90 52.5
q-76 18 -76 74q-1 16 8 30t25.5 25t39.5 18q-26 14 -44.5 35t-28.5 48.5t-10 59.5q0 76 52 122t139 46h224v-24zM285 482q-69 0 -109 -37.5t-40 -102.5q0 -43 18 -74.5t51.5 -48t79.5 -16.5q34 0 61.5 9.5t46.5 27.5t29.5 44t10.5 58q0 43 -18 74.5t-51.5 48.5t-78.5 17z
M239 41l-13 -3q-61 -12 -95.5 -42.5t-34.5 -73.5q0 -53 50.5 -85.5t134.5 -32.5q55 0 97 14.5t64.5 41.5t22.5 62q0 117 -186 117q-20 0 -40 2z" />
    <glyph glyph-name="h" unicode="h" horiz-adv-x="705" 
d="M74 744l106 6q6 0 6 -6v-310q122 76 224 76q46 0 80 -17t54.5 -54.5t20.5 -94.5v-299q0 -10 10 -11l72 -6v-28h-119q-5 0 -5 6v333q0 72 -33.5 106t-91.5 34q-94 0 -212 -74v-360q0 -10 11 -11l72 -6v-28h-195v23q0 5 5 6l55 4q10 1 10 12v658q0 11 -11 11l-59 3v27z" />
    <glyph glyph-name="i" unicode="i" horiz-adv-x="340" 
d="M164 707q12 0 21 -9t9 -21t-9 -21t-21 -9t-21 9t-9 21t9 21t21 9zM74 499l106 6q6 0 6 -6v-454q0 -10 11 -11l75 -6v-28h-198v23q0 5 5 6l55 4q10 1 10 12v413q0 11 -11 11l-59 3v27z" />
    <glyph glyph-name="j" unicode="j" horiz-adv-x="256" 
d="M156.5 707q12.5 0 21 -8.5t8.5 -21t-8.5 -21.5t-21 -9t-21 9t-8.5 21.5t8.5 21t21 8.5zM66 499l107 6q6 0 6 -6v-596q0 -44 -29 -70.5t-78 -26.5q-47 0 -76 25l16 23q19 -17 53 -17t53 18t19 51v552q0 11 -11 11l-60 3v27z" />
    <glyph glyph-name="k" unicode="k" horiz-adv-x="607" 
d="M74 744l106 6q6 0 6 -6v-494l243 203q5 3 3.5 8.5t-7.5 5.5l-54 5q-5 0 -5 5v23h189v-28l-63 -6l-186 -154l215 -276q1 -2 4 -2l63 -6v-28h-88q-5 0 -7 4l-216 285l-91 -75v-169q0 -10 11 -11l71 -6v-28h-191v23q0 5 5 6l52 4q10 1 10 12v658q0 10 -11 11l-59 3v27z" />
    <glyph glyph-name="l" unicode="l" horiz-adv-x="331" 
d="M74 744l106 6q6 0 6 -6v-699q0 -10 11 -11l75 -6v-28h-195v23q0 5 5 6l52 4q10 1 10 12v658q0 10 -11 11l-59 3v27z" />
    <glyph glyph-name="m" unicode="m" horiz-adv-x="1034" 
d="M747 510q44 0 76 -17t51 -54.5t19 -94.5v-299q0 -10 10 -11l72 -6v-28h-118q-6 0 -6 6v333q0 73 -31 106.5t-85 33.5q-90 0 -205 -78q7 -26 7 -63v-293q0 -10 10 -11l72 -6v-28h-118q-6 0 -6 6v333q0 73 -31 106.5t-86 33.5q-86 0 -197 -73v-361q0 -10 10 -11l72 -6v-28
h-195v23q0 5 5 6l55 4q11 1 11 12v413q0 11 -11 11l-60 3v27l106 6q7 0 7 -6v-65q116 76 210 76q100 0 133 -84q123 84 223 84z" />
    <glyph glyph-name="n" unicode="n" horiz-adv-x="700" 
d="M405 510q70 0 112 -41t42 -125v-299q0 -10 10 -11l72 -6v-28h-118q-6 0 -6 6v333q0 72 -33.5 106t-91.5 34q-94 0 -211 -74v-360q0 -10 10 -11l72 -6v-28h-195v23q0 5 5 6l55 4q11 1 11 12v413q0 11 -11 11l-60 3v27l106 6q7 0 7 -6v-65q122 76 224 76z" />
    <glyph glyph-name="o" unicode="o" 
d="M300 510q55 0 101 -19t77.5 -53t49 -82.5t17.5 -105.5q0 -116 -67 -188t-178 -72t-178 72t-67 188t67 188t178 72zM300 479q-91 0 -146.5 -62t-55.5 -167t55.5 -167t146.5 -62t147 62t56 167q0 69 -25.5 121t-71.5 80t-106 28z" />
    <glyph glyph-name="p" unicode="p" horiz-adv-x="656" 
d="M368 510q105 0 169 -70.5t64 -190.5q0 -113 -62 -186t-170 -73q-106 0 -170 72v-211q0 -11 10 -11l72 -6v-28h-192v22q0 6 5 6l52 5q11 2 11 11v605q0 11 -11 12l-58 3v27l101 4q5 0 6 -5l1 -60q65 74 172 74zM356 478q-103 0 -157 -78v-297q55 -82 160 -82
q91 0 145.5 62t54.5 166.5t-55.5 166.5t-147.5 62z" />
    <glyph glyph-name="q" unicode="q" horiz-adv-x="637" 
d="M318 510q87 0 180 -34v-626q0 -9 11 -11l60 -5v-28h-196v22q0 6 6 6l67 6q10 0 10 11v209q-64 -70 -168 -70q-106 0 -169.5 70t-63.5 186q0 69 20 120.5t56.5 82.5t83 46t103.5 15zM315 479q-98 0 -157.5 -56.5t-59.5 -172.5q0 -105 54.5 -167t144.5 -62q104 0 159 80
v351q-73 27 -141 27z" />
    <glyph glyph-name="r" unicode="r" horiz-adv-x="426" 
d="M343 502q26 6 51 6q5 0 5 -6v-107h-28l-6 67q-1 12 -12 11q-9 -1 -22 -5q-68 -20 -151 -86v-337q0 -10 11 -11l72 -6v-28h-195v23q0 5 5 6l55 4q11 1 11 12v413q0 11 -11 11l-60 3v27l106 6q6 0 6 -6v-84q86 70 163 87z" />
    <glyph glyph-name="s" unicode="s" horiz-adv-x="442" 
d="M252 510q66 0 113 -25q3 -2 3 -5v-105h-25l-7 84q-1 6 -6 8q-32 15 -77 15q-63 0 -100 -24.5t-37 -63.5q0 -37 21 -58.5t99 -60.5q62 -31 93 -53t42 -43t11 -51q0 -62 -55 -99.5t-142 -37.5q-66 0 -122 23q-3 2 -3 5v104h25l7 -82q1 -6 7 -9q38 -13 87 -13q71 0 113.5 29
t42.5 77q0 36 -22 58t-99 60q-66 33 -96.5 55t-40.5 42t-10 53q0 52 49.5 84.5t128.5 32.5z" />
    <glyph glyph-name="t" unicode="t" horiz-adv-x="376" 
d="M153 500h141v-28l-141 -7l-1 -378q0 -33 19.5 -51t52.5 -18q47 0 67 34l19 -18q-26 -46 -94 -46q-48 0 -77 26t-29 69l1 382l-62 4q-5 0 -5 5v25h67v126l42 2v-127z" />
    <glyph glyph-name="u" unicode="u" horiz-adv-x="690" 
d="M59 500h118q6 0 6 -6v-334q0 -72 33 -105.5t92 -33.5q93 0 211 73v360q0 11 -10 12l-73 6v28h119q6 0 6 -6v-452q0 -11 11 -11l60 -4v-26l-107 -6q-2 -1 -4 1t-2 5v65q-122 -76 -224 -76q-71 0 -112.5 41t-41.5 124v299q0 11 -11 12l-71 6v28z" />
    <glyph glyph-name="v" unicode="v" horiz-adv-x="568" 
d="M540 472l-58 -5l-186 -467h-40l-182 461q-2 6 -8 7l-34 3q-5 1 -5 6v23h76l177 -454l160 402q3 7 -0.5 12t-10.5 6l-70 6q-5 0 -5 5v23h186v-28z" />
    <glyph glyph-name="w" unicode="w" horiz-adv-x="856" 
d="M837 472l-54 -5l-170 -467h-38l-151 420l-153 -420h-38l-165 461q-2 6 -9 7l-35 3q-5 1 -5 6v23h79l158 -451l144 400q3 6 -0.5 11t-10.5 6l-71 6q-5 0 -5 5v23h127l158 -451l144 400q2 6 -1 11t-10 6l-72 6q-5 0 -5 5v23h183v-28z" />
    <glyph glyph-name="x" unicode="x" horiz-adv-x="528" 
d="M496 472l-52 -5l-156 -211l160 -218q3 -4 7 -4l54 -6v-28h-80q-2 0 -4 2l-167 232l-146 -199l91 -7v-28h-184v23q0 5 5 6l45 4q4 0 7 3l159 216l-155 210q-2 4 -7 4l-48 5q-5 1 -5 6v23h82l163 -226l132 180q3 4 1 7.5t-6 4.5l-74 6q-5 0 -5 5v23h183v-28z" />
    <glyph glyph-name="y" unicode="y" horiz-adv-x="555" 
d="M536 472l-55 -5l-262 -658q-2 -3 -5 -3h-121v28l98 8q6 0 8 6l59 148h-9l-184 465q-2 6 -8 7l-33 3q-5 1 -5 6v23h76l180 -462l163 410q3 6 -0.5 11.5t-10.5 6.5l-72 6q-5 0 -5 5v23h186v-28z" />
    <glyph glyph-name="z" unicode="z" horiz-adv-x="502" 
d="M434 478l-324 -450h289q10 0 11 11l6 72h25v-105q0 -6 -5 -6h-377v22l325 450h-266q-10 0 -11 -11l-6 -72h-26v105q0 6 6 6h353v-22z" />
    <glyph glyph-name="braceleft" unicode="{" horiz-adv-x="316" 
d="M259 729q13 0 27 -2l-4 -33q-10 1 -18 1q-43 0 -71 -26.5t-28 -77.5v-209q0 -30 -16 -52t-41 -33q25 -11 41 -33t16 -52v-209q0 -51 28 -77.5t72 -26.5q4 0 17 2l4 -34q-19 -2 -27 -2q-40 0 -71 14.5t-50 46t-19 76.5v210q0 33 -20.5 51t-50.5 19v30q30 0 50.5 18.5
t20.5 51.5v210q0 67 39 102t101 35z" />
    <glyph glyph-name="bar" unicode="|" horiz-adv-x="139" 
d="M92 -190h-45v940h45v-940z" />
    <glyph glyph-name="braceright" unicode="}" horiz-adv-x="316" 
d="M57 729q40 0 71 -14.5t50 -46t19 -76.5v-210q0 -33 20.5 -51t50.5 -19v-30q-30 -1 -50.5 -19t-20.5 -51v-210q0 -67 -39.5 -102t-100.5 -35q-9 0 -27 2l4 34q13 -2 18 -2q28 0 50 11t35.5 35t13.5 58v209q0 30 15.5 52t41.5 33q-26 11 -41.5 33t-15.5 52v209
q0 51 -28 77.5t-72 26.5q-8 0 -17 -1l-4 33q14 2 27 2z" />
    <glyph glyph-name="asciitilde" unicode="~" horiz-adv-x="552" 
d="M159 336q36 2 116 -37t120 -37q51 3 71 53l39 -9q-8 -35 -36 -57t-66 -23q-50 -2 -132 38l-14 7t-13.5 6.5t-12.5 5.5t-12.5 5.5l-10.5 4.5t-11 4t-9 2t-9.5 1.5t-8.5 0.5q-50 -3 -85 -71l-38 13q39 86 112 93z" />
    <glyph glyph-name="exclamdown" unicode="&#xa1;" horiz-adv-x="155" 
d="M77 511q13 0 21.5 -9t8.5 -21t-8.5 -21t-21.5 -9q-8 0 -15 4t-10.5 11t-3.5 15q0 6 2 11.5t6 9.5t9.5 6.5t11.5 2.5zM101 -195h-47l4 489h39z" />
    <glyph glyph-name="cent" unicode="&#xa2;" horiz-adv-x="502" 
d="M435 65l17 -27q-57 -43 -135 -48v-71h-37v72q-102 7 -163.5 78t-61.5 181.5t61.5 181t163.5 77.5v72h37v-72q72 -4 126 -41q2 -1 2 -4v-110h-29l-7 90q-1 5 -5 8q-45 27 -104 27q-91 0 -146.5 -62t-55.5 -167t55.5 -167t146.5 -62q76 0 135 44z" />
    <glyph glyph-name="sterling" unicode="&#xa3;" horiz-adv-x="486" 
d="M302 710q76 0 140 -32q3 -2 3 -5v-117h-28l-7 89q0 7 -6 9q-47 19 -99 19q-67 0 -113.5 -31.5t-52.5 -95.5q-3 -29 5.5 -57.5t21 -48t29 -48t24.5 -52.5h191v-33h-185q4 -22 3 -45q-1 -46 -25 -99.5t-75 -127.5h321v-35h-375v35q35 50 57 88t34.5 73t13.5 66q1 23 -3 45
h-102v33h93q-8 23 -31.5 61.5t-36 73t-8.5 75.5q8 79 68 119.5t143 40.5z" />
    <glyph glyph-name="currency" unicode="&#xa4;" 
 />
    <glyph glyph-name="yen" unicode="&#xa5;" horiz-adv-x="682" 
d="M654 670l-52 -5l-162 -288h134v-33h-153l-49 -87v-52h202v-33h-205v-125q0 -10 10 -11l72 -6v-30h-211v25q0 5 5 5l66 6q11 1 11 11v125h-205v33h202l-1 46l-52 93h-149v33h130l-161 284q-3 4 -8 5l-45 4q-5 0 -5 5v25h88l233 -408l198 352q4 7 1 13t-11 7l-76 7
q-5 0 -5 5v24h198v-30z" />
    <glyph glyph-name="brokenbar" unicode="&#xa6;" horiz-adv-x="142" 
d="M94 351h-47v399h47v-399zM94 -190h-47v399h47v-399z" />
    <glyph glyph-name="section" unicode="&#xa7;" horiz-adv-x="467" 
d="M259 710q77 0 129 -31q2 -2 2 -5v-117h-29l-7 92q0 6 -6 9q-36 18 -88 18q-70 0 -111 -28t-41 -73q0 -31 9.5 -49t38 -38t92.5 -51q105 -53 138.5 -87t33.5 -86q0 -51 -34.5 -89.5t-92.5 -55.5q76 -42 101.5 -72.5t25.5 -75.5q0 -72 -62.5 -116.5t-160.5 -44.5
q-86 0 -147 33q-3 2 -3 4v117h29l7 -90q0 -6 6 -9q44 -21 109 -21q79 0 125.5 33.5t46.5 89.5q0 42 -25.5 67.5t-115.5 70.5q-77 38 -112.5 63.5t-47.5 49t-12 61.5q0 51 42 86.5t112 43.5q-68 35 -100 59t-43 46.5t-11 58.5q0 61 56.5 99t145.5 38zM261 383h-6
q-70 0 -110.5 -28t-40.5 -74q0 -43 24 -67t114 -68l10 -5q56 10 88.5 41.5t32.5 77.5q0 39 -21 62.5t-91 60.5z" />
    <glyph glyph-name="dieresis" unicode="&#xa8;" horiz-adv-x="300" 
d="M76 665q8 0 14.5 -4t10 -10.5t3.5 -14.5q0 -12 -8 -20.5t-20 -8.5q-8 0 -14.5 4t-10.5 10.5t-4 14.5q0 12 8.5 20.5t20.5 8.5zM224 665q12 0 20 -8.5t8 -20.5t-8 -20.5t-20 -8.5t-20.5 8.5t-8.5 20.5t8.5 20.5t20.5 8.5z" />
    <glyph glyph-name="copyright" unicode="&#xa9;" horiz-adv-x="815" 
d="M407.5 710q97.5 0 180.5 -48t131.5 -131t48.5 -181t-48.5 -181t-131.5 -131t-180 -48q-74 0 -140.5 28.5t-115 77t-77 115t-28.5 139.5q0 98 48.5 181t131.5 131t180.5 48zM408 678q-87 0 -161 -43.5t-117.5 -119t-43.5 -165t43.5 -165t117.5 -119t161 -43.5
q65 0 124.5 25.5t102.5 69.5t68.5 104.5t25.5 127.5q0 90 -43 165.5t-117 119t-161 43.5zM409 539q64 0 109 -34q2 -1 2 -4v-60h-27l-4 46q0 6 -5 8q-33 21 -75 21q-65 0 -104.5 -44.5t-39.5 -121.5t39.5 -121.5t105.5 -44.5q57 0 103 40l16 -21q-48 -42 -120 -42
q-81 0 -131 52.5t-50 136.5t50 136.5t131 52.5z" />
    <glyph glyph-name="ordfeminine" unicode="&#xaa;" horiz-adv-x="372" 
d="M172 706q45 0 74.5 -25.5t29.5 -78.5v-179q0 -5 4 -5l45 -4v-19h-71q-6 0 -6 4l-1 30q-40 -40 -102 -40q-44 0 -71 22.5t-27 57.5q0 34 23 51.5t77 32.5l98 26v23q0 83 -75 83q-38 -1 -76 -21q-1 -1 -2 -4l-4 -53h-21v65q0 2 3 4q47 30 102 30zM245 559l-90 -24
q-30 -8 -45.5 -15.5t-23.5 -19t-8 -29.5q0 -28 19.5 -44.5t53.5 -16.5q59 0 92 45l2 2v102z" />
    <glyph glyph-name="guillemotleft" unicode="&#xab;" horiz-adv-x="468" 
d="M229 426l-133 -175l133 -174h-44l-138 175l139 174h43zM306 251l132 -174h-43l-138 175l138 174h43z" />
    <glyph glyph-name="logicalnot" unicode="&#xac;" horiz-adv-x="700" 
 />
    <glyph glyph-name="registered" unicode="&#xae;" horiz-adv-x="815" 
d="M407.5 710q97.5 0 180.5 -48t131.5 -131t48.5 -181t-48.5 -181t-131.5 -131t-180 -48q-74 0 -140.5 28.5t-115 77t-77 115t-28.5 139.5q0 98 48.5 181t131.5 131t180.5 48zM408 678q-87 0 -161 -43.5t-117.5 -119t-43.5 -165t43.5 -165t117.5 -119t161 -43.5
q65 0 124.5 25.5t102.5 69.5t68.5 104.5t25.5 127.5q0 90 -43 165.5t-117 119t-161 43.5zM255 534h155q50 0 80.5 -26.5t30.5 -68.5q0 -39 -26 -64.5t-71 -28.5l93 -152q2 -4 6 -4l34 -3v-17h-58q-3 0 -4 2l-104 171h-61v-143q0 -9 9 -9l38 -4v-17h-122v13q0 4 5 5l27 2
q10 1 10 10v303q0 9 -10 10l-27 2q-5 1 -5 5v14zM330 509v-143h79q37 0 57.5 19t20.5 53.5t-20.5 54t-57.5 19.5h-45z" />
    <glyph glyph-name="macron" unicode="&#xaf;" horiz-adv-x="358" 
d="M311 609h-264v33h264v-33z" />
    <glyph glyph-name="degree" unicode="&#xb0;" horiz-adv-x="326" 
d="M163 744q48 0 82 -34t34 -82t-34 -82t-82 -34t-82 34t-34 82t34 82t82 34zM163 716q-22 0 -40.5 -11.5t-30 -31.5t-11.5 -45t11.5 -45t30 -31.5t40.5 -11.5q34 0 58 25.5t24 63t-24 62.5t-58 25z" />
    <glyph glyph-name="plusminus" unicode="&#xb1;" horiz-adv-x="504" 
d="M270 364h187v-37h-187v-181h-36v181h-187v37h187v181h36v-181zM457 -8h-410v36h410v-36z" />
    <glyph glyph-name="twosuperior" unicode="&#xb2;" horiz-adv-x="293" 
d="M144 746q15 0 28.5 -2.5t26 -7.5t22.5 -13t16 -18q45 -70 -55 -206q-32 -44 -113 -128h148q9 0 10 9l3 43h26v-78h-238v19q0 2 2 3q90 93 130 148q86 118 54 174q-18 31 -61 31q-29 0 -51 -14.5t-31 -43.5l-37 6q10 36 45 57t75 21z" />
    <glyph glyph-name="threesuperior" unicode="&#xb3;" horiz-adv-x="316" 
d="M146 746q49 0 83.5 -26.5t34.5 -73.5q0 -31 -17.5 -54t-49.5 -35q35 -12 54.5 -38.5t19.5 -63.5q0 -56 -39 -85.5t-95 -29.5q-62 0 -110 32l14 22q45 -27 93 -27q43 0 70 21.5t27 67.5q0 42 -24.5 64.5t-68.5 22.5h-42v27l43 -1q40 0 63 19.5t23 55.5q0 26 -11 43t-29 25
t-41 8q-36 0 -67 -20q-4 -2 -4 -6l-4 -55h-28v70q0 2 2 4q44 33 103 33z" />
    <glyph glyph-name="acute" unicode="&#xb4;" horiz-adv-x="249" 
d="M88 577h-41l101 142h54z" />
    <glyph glyph-name="paragraph" unicode="&#xb6;" horiz-adv-x="556" 
d="M509 665l-69 -5q-10 -1 -10 -12v-727h-45v742h-108v-742h-124v29q0 6 5 6l64 6q11 2 11 11v355q-86 5 -136 55t-50 130q0 83 53.5 134t143.5 53h265v-35z" />
    <glyph glyph-name="periodcentered" unicode="&#xb7;" horiz-adv-x="154" 
d="M77 339q8 0 15 -4t11 -11t4 -15q0 -12 -9 -20.5t-21.5 -8.5t-21 8.5t-8.5 20.5t8.5 21t21.5 9z" />
    <glyph glyph-name="cedilla" unicode="&#xb8;" horiz-adv-x="246" 
d="M139 5l-21 -61q6 0 16 -2q29 -5 47 -25.5t17 -46.5q0 -30 -25.5 -51.5t-61.5 -21.5q-37 0 -64 22l8 25q24 -19 50 -19q15 0 27 5t20 16.5t9 27.5q0 46 -58 50q-9 0 -22 -2l29 91z" />
    <glyph glyph-name="onesuperior" unicode="&#xb9;" horiz-adv-x="218" 
d="M126 740v-360q0 -8 8 -9l38 -3v-23h-136v18q0 5 4 5l37 3q9 1 9 10v307q0 4 -3.5 6t-6.5 0l-47 -32l-15 24l79 54h33z" />
    <glyph glyph-name="ordmasculine" unicode="&#xba;" horiz-adv-x="397" 
d="M198 706q68 0 109.5 -44t41.5 -114.5t-41.5 -115t-109.5 -44.5t-109.5 44.5t-41.5 115t41.5 114.5t109.5 44zM198.5 685q-54.5 0 -87.5 -37.5t-33 -100.5t33 -100t87.5 -37t87 37t32.5 100t-32.5 100.5t-87 37.5z" />
    <glyph glyph-name="guillemotright" unicode="&#xbb;" horiz-adv-x="468" 
d="M73 426l139 -174l-139 -175h-43l133 174l-133 175h43zM421 252l-138 -175h-43l132 174l-132 175h43z" />
    <glyph glyph-name="onequarter" unicode="&#xbc;" horiz-adv-x="748" 
d="M221 -17h-45l361 734h44zM159 700v-360q0 -8 8 -9l38 -3v-23h-136v18q0 5 4 5l37 3q9 1 9 10v307q0 4 -3.5 6t-6.5 0l-46 -32l-16 24l79 54h33zM479 121h130l3 166q0 5 5 5h27v-171h56v-25h-56v-62q0 -8 9 -9l38 -3v-22h-134v17q0 5 5 5l36 3q8 1 8 10v61h-169v19
l130 280h39z" />
    <glyph glyph-name="onehalf" unicode="&#xbd;" horiz-adv-x="792" 
d="M221 -17h-45l361 734h44zM159 700v-360q0 -8 8 -9l38 -3v-23h-136v18q0 5 4 5l37 3q9 1 9 9v308q0 4 -3.5 6t-6.5 -1l-46 -31l-16 24l79 54h33zM633 401q29 0 54.5 -11t37.5 -30q45 -70 -55 -206q-32 -44 -113 -128h149q8 0 9 9l3 43h27v-78h-238v19q0 2 1 3
q91 92 130 147q86 118 54 175q-18 30 -61 30q-28 0 -50.5 -14t-30.5 -43l-37 6q6 24 25.5 42t44 27t50.5 9z" />
    <glyph glyph-name="threequarters" unicode="&#xbe;" horiz-adv-x="791" 
d="M259 -17h-44l361 734h44zM166 706q49 0 84 -26.5t35 -73.5q0 -31 -18 -54t-50 -35q24 -8 40.5 -22.5t25.5 -35t9 -44.5q0 -56 -39.5 -85.5t-95.5 -29.5q-61 0 -110 32l14 22q45 -27 94 -27q43 0 69.5 21.5t26.5 67.5q0 42 -24.5 64.5t-67.5 22.5h-42v27l42 -1
q41 0 63.5 19.5t22.5 55.5q0 38 -22.5 57t-58.5 19t-67 -20q-3 -2 -4 -6l-4 -55h-28v70q0 2 2 4q45 33 103 33zM522 121h130l3 166q0 5 5 5h27v-171h56v-25h-56v-62q0 -8 9 -9l38 -3v-22h-134v17q0 5 5 5l36 3q9 1 9 10v61h-169v19l129 280h39z" />
    <glyph glyph-name="questiondown" unicode="&#xbf;" horiz-adv-x="432" 
d="M353 511q12 0 21 -9t9 -21t-9 -21t-21 -9t-21 9t-9 21t9 21t21 9zM374 294l1 -58q1 -31 -9.5 -52t-40 -43.5t-87.5 -52.5q-65 -35 -94 -56t-39 -40.5t-10 -52.5q0 -49 40.5 -78.5t110.5 -29.5q57 0 101 23l7 99h28v-120q-55 -38 -138 -38q-88 0 -142.5 40t-54.5 104
q0 57 30 90t133 88q77 40 98.5 63t22.5 60v54h43z" />
    <glyph glyph-name="Agrave" unicode="&#xc0;" horiz-adv-x="760" 
d="M410 777h-41l-114 142h54zM676 35l56 -5v-30h-205v24q0 5 5 5l73 7q7 0 10 5.5t1 11.5l-68 164h-347l-74 -180l91 -7v-30h-190v25q0 5 5 5l46 4q6 1 8 7l272 658l41 2zM216 254h318l-159 387z" />
    <glyph glyph-name="Aacute" unicode="&#xc1;" horiz-adv-x="760" 
d="M391 777h-40l101 142h53zM676 35l56 -5v-30h-205v24q0 5 5 5l73 7q7 0 10 5.5t1 11.5l-68 164h-347l-74 -180l91 -7v-30h-190v25q0 5 5 5l46 4q6 1 8 7l272 658l41 2zM216 254h318l-159 387z" />
    <glyph glyph-name="Acircumflex" unicode="&#xc2;" horiz-adv-x="760" 
d="M511 777h-41l-90 114l-89 -114h-41l103 142h55zM676 35l56 -5v-30h-205v24q0 5 5 5l73 7q7 0 10 5.5t1 11.5l-68 164h-347l-74 -180l91 -7v-30h-190v25q0 5 5 5l46 4q6 1 8 7l272 658l41 2zM216 254h318l-159 387z" />
    <glyph glyph-name="Atilde" unicode="&#xc3;" horiz-adv-x="760" 
d="M475 864l34 -7q-5 -28 -22.5 -45.5t-41.5 -19.5q-26 -3 -65 16q-8 4 -23.5 12t-24.5 12t-16 4q-9 1 -16.5 -8.5t-14.5 -35.5l-33 8q13 64 57 66q7 0 14.5 -1.5t17 -5.5t14 -6t16.5 -8t13 -7q37 -18 55 -16q23 3 36 42zM676 35l56 -5v-30h-205v24q0 5 5 5l73 7q7 0 10 5.5
t1 11.5l-68 164h-347l-74 -180l91 -7v-30h-190v25q0 5 5 5l46 4q6 1 8 7l272 658l41 2zM216 254h318l-159 387z" />
    <glyph glyph-name="Adieresis" unicode="&#xc4;" horiz-adv-x="760" 
d="M306 865q12 0 20.5 -8.5t8.5 -20.5t-8.5 -20.5t-20.5 -8.5t-20 8.5t-8 20.5q0 8 3.5 14.5t10 10.5t14.5 4zM454 865q12 0 20.5 -8.5t8.5 -20.5t-8.5 -20.5t-20.5 -8.5t-20 8.5t-8 20.5q0 8 3.5 14.5t10.5 10.5t14 4zM676 35l56 -5v-30h-205v24q0 5 5 5l73 7q7 0 10 5.5
t1 11.5l-68 164h-347l-74 -180l91 -7v-30h-190v25q0 5 5 5l46 4q6 1 8 7l272 658l41 2zM216 254h318l-159 387z" />
    <glyph glyph-name="Aring" unicode="&#xc5;" horiz-adv-x="760" 
d="M380.5 940q39.5 0 67 -28t27.5 -67.5t-27.5 -67.5t-67 -28t-67.5 28t-28 67.5t28 67.5t67.5 28zM380.5 913q-25.5 0 -44 -19.5t-18.5 -49t18.5 -49t44 -19.5t44 19.5t18.5 49t-18.5 49t-44 19.5zM676 35l56 -5v-30h-205v24q0 5 5 5l73 7q7 0 10 5.5t1 11.5l-68 164h-347
l-74 -180l91 -7v-30h-190v25q0 5 5 5l46 4q6 1 8 7l272 658l41 2zM216 254h318l-159 387z" />
    <glyph glyph-name="AE" unicode="&#xc6;" horiz-adv-x="792" 
d="M359 700h379q6 0 6 -6v-123h-29l-7 82q-1 10 -11 10h-275v-289h243v-35h-243v-302h294q11 0 12 10l6 82h29v-123q0 -6 -6 -6h-462v24q0 6 5 6l65 6q10 0 10 11v170h-174l-74 -180l87 -7v-30h-186v25q0 5 5 5l46 4q6 1 8 7zM216 254h159v387z" />
    <glyph glyph-name="Ccedilla" unicode="&#xc7;" horiz-adv-x="650" 
d="M392 709q116 0 201 -61q2 -1 2 -4v-119h-30l-7 94q0 6 -5 8q-70 45 -161 45q-85 0 -150 -39t-100.5 -112t-35.5 -171q0 -148 79 -235.5t209 -87.5q114 0 197 70l21 -30q-87 -76 -217 -77q-27 0 -59 5l-16 -51q5 0 15 -2q29 -5 47.5 -25.5t17.5 -46.5q0 -19 -11.5 -36
t-31.5 -27t-45 -10q-36 0 -63 22l8 25q24 -19 50 -19q23 0 38.5 12.5t17.5 36.5q0 46 -58 50q-9 0 -22 -2l25 78q-116 26 -184 119.5t-68 230.5q0 161 92.5 260t243.5 99z" />
    <glyph glyph-name="Egrave" unicode="&#xc8;" horiz-adv-x="579" 
d="M347 777h-41l-114 142h54zM74 700h443q6 0 6 -6v-123h-29l-7 82q-1 10 -11 10h-275v-289h243v-35h-243v-302h294q11 0 12 10l6 82h29v-123q0 -6 -6 -6h-462v24q0 6 5 6l65 6q10 0 10 11v606q0 11 -10 11l-65 6q-5 0 -5 5v25z" />
    <glyph glyph-name="Eacute" unicode="&#xc9;" horiz-adv-x="579" 
d="M329 777h-41l101 142h54zM74 700h443q6 0 6 -6v-123h-29l-7 82q-1 10 -11 10h-275v-289h243v-35h-243v-302h294q11 0 12 10l6 82h29v-123q0 -6 -6 -6h-462v24q0 6 5 6l65 6q10 0 10 11v606q0 11 -10 11l-65 6q-5 0 -5 5v25z" />
    <glyph glyph-name="Ecircumflex" unicode="&#xca;" horiz-adv-x="579" 
d="M448 777h-41l-89 114l-90 -114h-41l103 142h55zM74 700h443q6 0 6 -6v-123h-29l-7 82q-1 10 -11 10h-275v-289h243v-35h-243v-302h294q11 0 12 10l6 82h29v-123q0 -6 -6 -6h-462v24q0 6 5 6l65 6q10 0 10 11v606q0 11 -10 11l-65 6q-5 0 -5 5v25z" />
    <glyph glyph-name="Edieresis" unicode="&#xcb;" horiz-adv-x="579" 
d="M243.5 865q11.5 0 20 -8.5t8.5 -20.5t-8.5 -20.5t-20 -8.5t-20 8.5t-8.5 20.5t8.5 20.5t20 8.5zM392 865q12 0 20 -8.5t8 -20.5t-8 -20.5t-20 -8.5t-20.5 8.5t-8.5 20.5q0 8 3.5 14.5t10.5 10.5t15 4zM74 700h443q6 0 6 -6v-123h-29l-7 82q-1 10 -11 10h-275v-289h243
v-35h-243v-302h294q11 0 12 10l6 82h29v-123q0 -6 -6 -6h-462v25q0 5 5 5l65 6q10 0 10 11v606q0 11 -10 11l-65 6q-5 0 -5 6v24z" />
    <glyph glyph-name="Igrave" unicode="&#xcc;" horiz-adv-x="358" 
d="M209 777h-41l-114 142h54zM284 670l-71 -6q-10 -1 -10 -11v-606q0 -10 10 -11l71 -6v-30h-210v24q0 6 5 6l66 6q10 1 10 11v606q0 10 -10 11l-66 6q-5 0 -5 5v25h210v-30z" />
    <glyph glyph-name="Iacute" unicode="&#xcd;" horiz-adv-x="358" 
d="M190 777h-41l101 142h54zM284 670l-71 -6q-10 -1 -10 -11v-606q0 -11 10 -11l71 -6v-30h-210v24q0 6 5 6l66 6q10 0 10 11v606q0 10 -10 11l-66 6q-5 0 -5 5v25h210v-30z" />
    <glyph glyph-name="Icircumflex" unicode="&#xce;" horiz-adv-x="358" 
d="M309 777h-40l-90 114l-89 -114h-41l102 142h56zM284 670l-71 -6q-10 -1 -10 -11v-606q0 -10 10 -11l71 -6v-30h-210v24q0 6 5 6l66 6q10 1 10 11v606q0 10 -10 11l-66 6q-5 0 -5 6v24h210v-30z" />
    <glyph glyph-name="Idieresis" unicode="&#xcf;" horiz-adv-x="358" 
d="M105 865q12 0 20.5 -8.5t8.5 -20.5t-8.5 -20.5t-20.5 -8.5t-20.5 8.5t-8.5 20.5t8.5 20.5t20.5 8.5zM253 865q12 0 20.5 -8.5t8.5 -20.5t-8.5 -20.5t-20.5 -8.5t-20.5 8.5t-8.5 20.5t8.5 20.5t20.5 8.5zM284 670l-71 -6q-10 -1 -10 -11v-606q0 -10 10 -11l71 -6v-30h-210
v24q0 6 5 6l66 6q10 1 10 11v606q0 10 -10 11l-66 6q-5 0 -5 5v25h210v-30z" />
    <glyph glyph-name="Eth" unicode="&#xd0;" horiz-adv-x="756" 
d="M74 700h290q152 0 244 -95t92 -255t-92 -255t-244 -95h-290v25q0 5 5 5l65 6q10 0 10 11v285h-107v36h107v285q0 11 -10 11l-65 6q-5 0 -5 6v24zM274 37h90q65 0 118 21t90.5 61t58 99t20.5 132q0 146 -78 229.5t-209 83.5h-90l-73 -6v-289h154v-36h-154v-289z" />
    <glyph glyph-name="Ntilde" unicode="&#xd1;" horiz-adv-x="848" 
d="M520 864l33 -7q-5 -28 -22 -45.5t-41 -19.5q-27 -3 -66 16q-8 4 -23 12t-24.5 12t-16.5 4q-9 1 -16 -8.5t-14 -35.5l-34 8q13 64 57 66q5 0 10.5 -1t11.5 -3t11 -3.5t11.5 -4.5t10.5 -5t10.5 -5.5t9.5 -5.5q37 -18 55 -16q24 3 37 42zM780 670l-70 -6q-11 0 -11 -11v-653
h-44l-461 623v-575q0 -10 10 -11l80 -7v-30h-215v24q0 6 5 6l65 6q10 0 10 11v606q0 11 -10 11l-65 6q-5 0 -5 5v25h123l463 -626v578q0 10 -11 11l-75 7q-5 0 -5 5v25h216v-30z" />
    <glyph glyph-name="Ograve" unicode="&#xd2;" horiz-adv-x="783" 
d="M421 777h-41l-114 142h54zM391.5 709q151.5 0 243.5 -99t92 -260t-92.5 -260.5t-243.5 -99.5t-243 99.5t-92 260.5t92 260t243.5 99zM391.5 672q-129.5 0 -208 -87.5t-78.5 -235t78.5 -235t208 -87.5t208 87.5t78.5 235t-78.5 235t-208 87.5z" />
    <glyph glyph-name="Oacute" unicode="&#xd3;" horiz-adv-x="783" 
d="M402 777h-41l101 142h54zM391.5 709q151.5 0 243.5 -99t92 -260t-92.5 -260.5t-243.5 -99.5t-243 99.5t-92 260.5t92 260t243.5 99zM391 672q-85 0 -150 -39t-100.5 -112t-35.5 -171t35.5 -171t100.5 -112.5t150 -39.5q130 0 208.5 87.5t78.5 235t-78.5 235t-208.5 87.5z
" />
    <glyph glyph-name="Ocircumflex" unicode="&#xd4;" horiz-adv-x="783" 
d="M521 777h-40l-90 114l-89 -114h-41l102 142h56zM391 709q100 0 176.5 -45t118 -126.5t41.5 -187.5q0 -161 -92.5 -260.5t-243.5 -99.5t-243 99.5t-92 260.5t92 260t243 99zM391.5 672q-129.5 0 -208 -87.5t-78.5 -234.5q0 -98 35.5 -171t100.5 -112.5t150 -39.5
q130 0 208.5 87.5t78.5 235t-78.5 235t-208 87.5z" />
    <glyph glyph-name="Otilde" unicode="&#xd5;" horiz-adv-x="783" 
d="M486 864l34 -7q-6 -28 -23 -45.5t-41 -19.5q-27 -3 -66 16q-7 3 -18 9t-18 9.5t-14.5 6.5t-12.5 3q-6 1 -11 -2.5t-10 -13.5t-10 -28l-33 8q13 64 57 66q7 0 14.5 -1.5t17 -5.5t14 -6t16.5 -8t13 -7q37 -18 55 -16q23 3 36 42zM391.5 709q151.5 0 243.5 -99t92 -260
t-92.5 -260.5t-243.5 -99.5t-243 99.5t-92 260.5t92 260t243.5 99zM391 672q-85 0 -150 -39t-100.5 -112t-35.5 -171q0 -148 78.5 -235.5t208 -87.5t208 87.5t78.5 235t-78.5 235t-208.5 87.5z" />
    <glyph glyph-name="Odieresis" unicode="&#xd6;" horiz-adv-x="783" 
d="M317 865q12 0 20.5 -8.5t8.5 -20.5t-8.5 -20.5t-20.5 -8.5t-20 8.5t-8 20.5t8 20.5t20 8.5zM465 865q12 0 20.5 -8.5t8.5 -20.5t-8.5 -20.5t-20.5 -8.5t-20 8.5t-8 20.5t8 20.5t20 8.5zM391.5 709q151.5 0 243.5 -99t92 -260t-92.5 -260.5t-243.5 -99.5t-243 99.5
t-92 260.5t92 260t243.5 99zM391.5 672q-129.5 0 -208 -87.5t-78.5 -235t78.5 -235t208 -87.5t208 87.5t78.5 235t-78.5 235t-208 87.5z" />
    <glyph glyph-name="multiply" unicode="&#xd7;" horiz-adv-x="410" 
d="M363 422l-132 -132l132 -131l-26 -26l-132 131l-132 -131l-26 26l132 131l-132 132l26 26l132 -131l132 131z" />
    <glyph glyph-name="Oslash" unicode="&#xd8;" horiz-adv-x="783" 
d="M546 750l-21 -65q94 -38 148 -126t54 -209q0 -161 -92.5 -260.5t-243.5 -99.5q-46 0 -88 10l-16 -50h-50l21 64q-95 38 -148.5 126.5t-53.5 209.5q0 161 92 260t243 99q47 0 89 -10l16 51h50zM105 350q0 -109 43.5 -186.5t121.5 -112.5l198 612q-36 9 -77 9
q-129 0 -207.5 -87.5t-78.5 -234.5zM391 27q130 0 208.5 87.5t78.5 235.5q0 72 -20 132t-57 101.5t-88 64.5l-198 -612q36 -9 76 -9z" />
    <glyph glyph-name="Ugrave" unicode="&#xd9;" horiz-adv-x="833" 
d="M446 777h-41l-114 142h54zM764 670l-70 -6q-10 -1 -10 -11v-381q0 -127 -73 -204.5t-192 -77.5q-79 0 -139 35t-93 99t-33 148v381q0 10 -10 11l-65 6q-5 0 -5 5v25h220v-30l-81 -7q-10 -1 -10 -11v-380q0 -113 59.5 -179t158.5 -66q100 0 162.5 66t62.5 179v379
q0 11 -11 11l-87 8v30h216v-30z" />
    <glyph glyph-name="Uacute" unicode="&#xda;" horiz-adv-x="833" 
d="M427 777h-41l101 142h54zM764 670l-70 -6q-10 -1 -10 -11v-381q0 -127 -73 -204.5t-192 -77.5q-79 0 -139 35t-93 99t-33 148v381q0 10 -10 11l-65 6q-5 0 -5 5v25h220v-30l-81 -7q-10 -1 -10 -11v-380q0 -113 59.5 -179t158.5 -66q100 0 162.5 66t62.5 179v379
q0 11 -11 11l-87 8v30h216v-30z" />
    <glyph glyph-name="Ucircumflex" unicode="&#xdb;" horiz-adv-x="833" 
d="M547 777h-41l-90 114l-89 -114h-41l102 142h56zM764 670l-70 -6q-10 -1 -10 -11v-381q0 -127 -73 -204.5t-192 -77.5q-79 0 -139 35t-93 99t-33 148v381q0 10 -10 11l-65 6q-5 0 -5 5v25h220v-30l-81 -7q-10 -1 -10 -11v-380q0 -113 59.5 -179t158.5 -66q100 0 162.5 66
t62.5 179v379q0 11 -11 11l-87 8v30h216v-30z" />
    <glyph glyph-name="Udieresis" unicode="&#xdc;" horiz-adv-x="833" 
d="M342 865q12 0 20.5 -8.5t8.5 -20.5t-8.5 -20.5t-20.5 -8.5q-8 0 -14.5 4t-10 10.5t-3.5 14.5q0 12 8 20.5t20 8.5zM490 865q12 0 20.5 -8.5t8.5 -20.5t-8.5 -20.5t-20.5 -8.5t-20 8.5t-8 20.5q0 8 3.5 14.5t10 10.5t14.5 4zM764 670l-70 -6q-10 -1 -10 -11v-381
q0 -127 -73 -204.5t-192 -77.5t-192 77.5t-73 204.5v381q0 10 -10 11l-65 6q-5 0 -5 5v25h220v-30l-81 -7q-10 -1 -10 -11v-380q0 -113 59.5 -179t158.5 -66q100 0 162.5 66t62.5 179v379q0 11 -11 11l-87 8v30h216v-30z" />
    <glyph glyph-name="Yacute" unicode="&#xdd;" horiz-adv-x="682" 
d="M352 777h-41l101 142h54zM654 670l-52 -5l-233 -414v-204q0 -10 10 -11l72 -6v-30h-211v25q0 5 5 5l66 6q11 1 11 11v197l-236 417q-3 4 -8 5l-45 4q-5 0 -5 5v25h88l233 -408l198 352q4 7 1 13t-11 7l-76 7q-5 0 -5 5v24h198v-30z" />
    <glyph glyph-name="Thorn" unicode="&#xde;" horiz-adv-x="627" 
d="M201 591h164q94 0 150 -51.5t56 -136t-56 -136t-150 -51.5h-164v-168q0 -10 11 -11l81 -7v-30h-219v25q0 5 5 5l65 6q10 0 10 11v613q0 11 -10 12l-65 5q-5 0 -5 6v24h127v-116zM201 554v-301h163q49 0 85.5 18t56 52t19.5 81q0 69 -43.5 109.5t-117.5 40.5h-163z" />
    <glyph glyph-name="germandbls" unicode="&#xdf;" horiz-adv-x="652" 
d="M350 750q36 0 67 -7t55 -20.5t40.5 -32.5t25.5 -42.5t9 -51.5q0 -21 -5 -38t-19.5 -34t-25 -27t-36.5 -33q-29 -26 -29 -63q1 -40 38 -64q10 -7 33 -21t32 -20.5t25.5 -18.5t23.5 -21t16 -22t12 -28t3 -32q0 -83 -64.5 -133t-171.5 -50q-51 0 -94 14v122h29l6 -85
q1 -7 8 -9q26 -5 56 -5q85 0 134 39t49 106q0 16 -5 30t-10.5 23.5t-20.5 21.5t-24.5 18.5t-33.5 21.5t-37 24q-52 35 -52 89q0 47 39 82q2 2 7 6q28 24 39.5 36t20 30t8.5 41q0 54 -39 86t-108 32t-109 -35.5t-40 -96.5v-582h-124v25q0 5 5 5l61 5q10 1 10 11v537
q0 75 53 121t143 46z" />
    <glyph glyph-name="agrave" unicode="&#xe0;" horiz-adv-x="563" 
d="M289 577h-41l-114 142h53zM256 510q35 0 64 -9.5t52.5 -28.5t37 -53t13.5 -79v-295q0 -10 10 -11l71 -6v-28h-113q-6 0 -6 6l-1 58q-65 -74 -172 -74q-47 0 -83 16.5t-55.5 46t-19.5 68.5q0 56 37 84t125 52l165 44v39q0 74 -35 106.5t-93 32.5q-64 -1 -127 -35
q-5 -3 -6 -8l-7 -85h-25v105q0 3 2 4q78 49 166 50zM381 273l-155 -42q-50 -13 -76 -25.5t-39.5 -32t-13.5 -49.5q0 -47 33.5 -74.5t91.5 -27.5q99 0 155 74l4 5v172z" />
    <glyph glyph-name="aacute" unicode="&#xe1;" horiz-adv-x="563" 
d="M270 577h-41l101 142h54zM256 510q73 0 120 -41t47 -129v-295q0 -10 10 -11l71 -6v-28h-113q-6 0 -6 5l-1 59q-65 -74 -172 -74q-71 0 -114.5 36t-43.5 95q0 56 37 84t125 52l165 44v39q0 74 -35 106.5t-93 32.5q-64 -1 -127 -35q-5 -3 -6 -8l-7 -85h-25v105q0 3 2 4
q78 49 166 50zM381 273l-155 -42q-73 -20 -101 -41.5t-28 -65.5q0 -47 33.5 -74.5t91.5 -27.5q99 0 155 74l4 5v172z" />
    <glyph glyph-name="acircumflex" unicode="&#xe2;" horiz-adv-x="563" 
d="M389 577h-41l-89 114l-90 -114h-40l102 142h56zM256 510q35 0 64 -9.5t52.5 -28.5t37 -53t13.5 -79v-295q0 -10 10 -11l71 -6v-28h-113q-6 0 -6 6l-1 58q-65 -74 -172 -74q-71 0 -114.5 36t-43.5 95q0 56 37 84t125 52l165 44v40q0 73 -35 105.5t-93 32.5
q-64 -1 -127 -35q-5 -3 -6 -8l-7 -85h-25v105q0 3 2 4q78 49 166 50zM381 273l-155 -42q-73 -20 -101 -41.5t-28 -65.5q0 -47 33.5 -74.5t91.5 -27.5q99 0 155 74l4 5v172z" />
    <glyph glyph-name="atilde" unicode="&#xe3;" horiz-adv-x="563" 
d="M354 664l34 -7q-4 -19 -13 -33t-22 -22.5t-29 -9.5q-27 -3 -66 16q-8 4 -23 12t-24.5 12t-15.5 4q-10 1 -17 -8.5t-14 -35.5l-34 8q14 64 58 66q6 0 13.5 -1.5t17 -5.5t14 -6t16.5 -8t13 -7q37 -18 56 -16q23 3 36 42zM256 510q73 0 120 -41t47 -129v-295q0 -10 10 -11
l71 -6v-28h-113q-6 0 -6 5l-1 59q-65 -74 -172 -74q-71 0 -114.5 36t-43.5 95q0 56 37 84t125 52l165 44v39q0 74 -35 106.5t-93 32.5q-64 -1 -127 -35q-5 -3 -6 -8l-7 -85h-25v105q0 3 2 4q78 49 166 50zM381 273l-155 -42q-73 -20 -101 -41.5t-28 -65.5q0 -47 33.5 -74.5
t91.5 -27.5q99 0 155 74l4 5v172z" />
    <glyph glyph-name="adieresis" unicode="&#xe4;" horiz-adv-x="563" 
d="M185 665q12 0 20 -8.5t8 -20.5t-8 -20.5t-20 -8.5t-20.5 8.5t-8.5 20.5t8.5 20.5t20.5 8.5zM333 665q12 0 20 -8.5t8 -20.5t-8 -20.5t-20 -8.5t-20.5 8.5t-8.5 20.5q0 8 4 14.5t10.5 10.5t14.5 4zM256 510q35 0 64 -9.5t52.5 -28.5t37 -53t13.5 -79v-295q0 -10 10 -11
l71 -6v-28h-113q-6 0 -6 6l-1 58q-65 -74 -172 -74q-71 0 -114.5 36t-43.5 95q0 56 37 84t125 52l165 44v39q0 74 -35 106.5t-93 32.5q-64 -1 -127 -35q-5 -3 -6 -8l-7 -85h-25v105q0 3 2 4q78 49 166 50zM381 273l-155 -42q-73 -20 -101 -41.5t-28 -65.5q0 -47 33.5 -74.5
t91.5 -27.5q99 0 155 74l4 5v172z" />
    <glyph glyph-name="aring" unicode="&#xe5;" horiz-adv-x="563" 
d="M259 740q26 0 48 -13t34.5 -35t12.5 -47q0 -40 -28 -68t-67.5 -28t-67 28t-27.5 67.5t27.5 67.5t67.5 28zM259 713q-26 0 -44.5 -19.5t-18.5 -49t18.5 -49t44.5 -19.5t44 19.5t18 49t-18 49t-44 19.5zM256 510q73 0 120 -41t47 -129v-295q0 -10 10 -11l71 -6v-28h-113
q-6 0 -6 5l-1 59q-65 -74 -172 -74q-71 0 -114.5 36t-43.5 95q0 56 37 84t125 52l165 44v39q0 38 -10 65.5t-28 43t-40 23t-50 7.5q-64 -1 -127 -35q-5 -3 -6 -8l-7 -85h-25v105q0 3 2 4q78 49 166 50zM381 273l-155 -42q-50 -13 -76 -25.5t-39.5 -32t-13.5 -49.5
q0 -47 33.5 -74.5t91.5 -27.5q99 0 155 74l4 5v172z" />
    <glyph glyph-name="ae" unicode="&#xe6;" horiz-adv-x="884" 
d="M617 510q109 0 161.5 -65.5t55.5 -181.5v-7q0 -10 -10 -10l-390 -3q1 -101 53 -161.5t136 -60.5q105 0 169 66l18 -26q-30 -32 -79 -51.5t-109 -19.5q-72 0 -125.5 36.5t-80.5 100.5l-1 -44q-47 -52 -92.5 -72.5t-106.5 -20.5q-73 0 -117.5 35.5t-44.5 95.5q0 56 37 84
t125 52l165 44v40q0 73 -35 105.5t-93 32.5q-64 -1 -127 -35q-5 -3 -6 -8l-7 -85h-25v105q0 3 2 4q78 49 166 50q64 0 108 -33t52 -104q17 43 46 73.5t68.5 47t86.5 16.5zM618 480q-80 0 -130 -56t-54 -152h351q6 0 6 7q-9 201 -173 201zM381 273l-155 -42q-21 -6 -36.5 -11
t-30 -10.5t-24 -12t-17.5 -14t-12.5 -16.5t-6.5 -19.5t-2 -23.5q0 -47 33.5 -74.5t91.5 -27.5q99 0 155 74l4 5v172z" />
    <glyph glyph-name="ccedilla" unicode="&#xe7;" horiz-adv-x="502" 
d="M262 -58q29 -5 47 -25.5t17 -46.5q0 -30 -25.5 -51.5t-61.5 -21.5q-37 0 -64 22l8 25q24 -19 50 -19q23 0 38.5 12.5t17.5 36.5q0 46 -58 50q-9 0 -22 -2l24 76q-82 20 -130 87.5t-48 164.5q0 77 30 136t86 91.5t129 32.5q82 0 143 -42q2 -1 2 -4v-110h-29l-7 90
q-1 5 -5 8q-45 27 -104 27q-91 0 -146.5 -62t-55.5 -167t55.5 -167t146.5 -62q76 0 135 44l17 -27q-63 -48 -152 -48q-19 0 -38 2l-16 -48q6 0 16 -2z" />
    <glyph glyph-name="egrave" unicode="&#xe8;" horiz-adv-x="549" 
d="M304 577h-41l-114 142h54zM282 510q73 0 121.5 -31.5t71 -85t24.5 -130.5v-8q0 -9 -10 -9l-391 -3q2 -101 53.5 -161.5t136.5 -60.5q104 0 169 66l18 -26q-31 -32 -80 -51.5t-109 -19.5q-104 0 -167.5 72t-63.5 188q0 77 28 136t79.5 91.5t119.5 32.5zM282 480
q-80 0 -129.5 -56t-54.5 -152h351q7 0 6 7q-8 201 -173 201z" />
    <glyph glyph-name="eacute" unicode="&#xe9;" horiz-adv-x="549" 
d="M285 577h-40l101 142h54zM282 510q108 0 161 -65t56 -182v-8q0 -9 -10 -9l-391 -3q2 -101 53.5 -161.5t136.5 -60.5q104 0 169 66l18 -26q-31 -32 -80 -51.5t-109 -19.5q-104 0 -167.5 72t-63.5 188q0 77 28 136t79.5 91.5t119.5 32.5zM282 480q-80 0 -129.5 -56
t-54.5 -152h351q7 0 6 7q-8 201 -173 201z" />
    <glyph glyph-name="ecircumflex" unicode="&#xea;" horiz-adv-x="549" 
d="M405 577h-41l-90 114l-89 -114h-41l103 142h55zM282 510q73 0 121.5 -31.5t71 -85t24.5 -130.5v-8q0 -9 -10 -9l-391 -3q2 -101 53.5 -161.5t136.5 -60.5q104 0 169 66l18 -26q-31 -32 -80 -51.5t-109 -19.5q-104 0 -167.5 72t-63.5 188q0 77 28 136t79.5 91.5
t119.5 32.5zM282 480q-80 0 -129.5 -56t-54.5 -152h351q7 0 6 7q-8 201 -173 201z" />
    <glyph glyph-name="edieresis" unicode="&#xeb;" horiz-adv-x="549" 
d="M200 665q12 0 20.5 -8.5t8.5 -20.5t-8.5 -20.5t-20.5 -8.5t-20 8.5t-8 20.5t8 20.5t20 8.5zM348.5 665q11.5 0 20 -8.5t8.5 -20.5t-8.5 -20.5t-20 -8.5t-20 8.5t-8.5 20.5t8.5 20.5t20 8.5zM282 510q73 0 121.5 -31.5t71 -85t24.5 -130.5v-8q0 -9 -10 -9l-391 -3
q2 -101 53.5 -161.5t136.5 -60.5q104 0 169 66l18 -26q-31 -32 -80 -51.5t-109 -19.5q-104 0 -167.5 72t-63.5 188q0 77 28 136t79.5 91.5t119.5 32.5zM282 480q-80 0 -129.5 -56t-54.5 -152h351q7 0 6 7q-8 201 -173 201z" />
    <glyph glyph-name="igrave" unicode="&#xec;" horiz-adv-x="341" 
d="M192 577h-41l-114 142h54zM74 499l106 6q6 0 6 -6v-454q0 -10 11 -11l75 -6v-28h-198v23q0 5 5 6l55 4q10 1 10 12v413q0 11 -11 11l-59 3v27z" />
    <glyph glyph-name="iacute" unicode="&#xed;" horiz-adv-x="341" 
d="M173 577h-41l101 142h54zM74 499l106 6q6 0 6 -6v-454q0 -10 11 -11l75 -6v-28h-198v23q0 5 5 6l55 4q10 1 10 12v413q0 11 -11 11l-59 3v27z" />
    <glyph glyph-name="icircumflex" unicode="&#xee;" horiz-adv-x="341" 
d="M292 577h-41l-89 114l-89 -114h-41l102 142h56zM74 499l106 6q6 0 6 -6v-454q0 -10 11 -11l75 -6v-28h-198v23q0 5 5 6l55 4q10 1 10 12v413q0 11 -11 11l-59 3v27z" />
    <glyph glyph-name="idieresis" unicode="&#xef;" horiz-adv-x="341" 
d="M88 665q8 0 14.5 -4t10 -10.5t3.5 -14.5q0 -12 -8 -20.5t-20 -8.5t-20.5 8.5t-8.5 20.5t8.5 20.5t20.5 8.5zM236 665q12 0 20.5 -8.5t8.5 -20.5t-8.5 -20.5t-20.5 -8.5t-20.5 8.5t-8.5 20.5t8.5 20.5t20.5 8.5zM74 499l106 6q6 0 6 -6v-454q0 -10 11 -11l75 -6v-28h-198
v23q0 5 5 6l55 4q10 1 10 12v413q0 11 -11 11l-59 3v27z" />
    <glyph glyph-name="eth" unicode="&#xf0;" horiz-adv-x="515" 
d="M458 363q8 -105 -15.5 -186.5t-74.5 -129t-123 -53.5q-85 -7 -142 48.5t-64 153.5q-8 96 43.5 158.5t143.5 70.5q64 5 113.5 -21t75.5 -78q-1 24 -4 49q-12 120 -82 205q-13 15 -27 29l-148 -71l-16 23l142 69q-86 71 -202 85l5 33q134 -14 234 -100l107 52l17 -24
l-102 -49q18 -19 34 -40q74 -96 85 -224zM243 28q48 4 85 32.5t59.5 79t28.5 118.5l-7 19q-18 60 -63.5 90.5t-109.5 25.5q-76 -6 -118.5 -59t-36.5 -137q7 -84 51 -129.5t111 -39.5z" />
    <glyph glyph-name="ntilde" unicode="&#xf1;" horiz-adv-x="700" 
d="M445 664l33 -7q-5 -28 -22 -45.5t-41 -19.5q-27 -3 -66 16q-8 4 -23 12t-24.5 12t-15.5 4q-10 1 -17 -8.5t-14 -35.5l-34 8q14 64 57 66q7 0 14.5 -1.5t17 -5.5t14 -6t16.5 -8t13 -7q37 -18 55 -16q24 3 37 42zM405 510q70 0 112 -41t42 -125v-299q0 -10 10 -11l72 -6
v-28h-118q-6 0 -6 6v333q0 72 -33.5 106t-91.5 34q-94 0 -211 -74v-360q0 -10 10 -11l72 -6v-28h-195v23q0 5 5 6l55 4q11 1 11 12v413q0 10 -11 11l-60 3v27l106 6q7 0 7 -6v-65q122 76 224 76z" />
    <glyph glyph-name="ograve" unicode="&#xf2;" 
d="M330 577h-41l-114 142h54zM300 510q111 0 178 -72t67 -188t-67 -188t-178 -72t-178 72t-67 188q0 77 30 136t86 91.5t129 32.5zM300 479q-91 0 -146.5 -62t-55.5 -167t55.5 -167t146.5 -62t146.5 62t55.5 167t-55.5 167t-146.5 62z" />
    <glyph glyph-name="oacute" unicode="&#xf3;" 
d="M311 577h-41l101 142h54zM300 510q111 0 178 -72t67 -188t-67 -188t-178 -72q-73 0 -129 33t-86 92t-30 135.5t30 135.5t86 91.5t129 32.5zM300 479q-91 0 -146.5 -62t-55.5 -167t55.5 -167t146.5 -62t146.5 62t55.5 167t-55.5 167t-146.5 62z" />
    <glyph glyph-name="ocircumflex" unicode="&#xf4;" 
d="M430 577h-40l-90 114l-89 -114h-41l102 142h56zM300 510q111 0 178 -72t67 -188t-67 -188t-178 -72t-178 72t-67 188t67 188t178 72zM300 479q-91 0 -146.5 -62t-55.5 -167t55.5 -167t146.5 -62t146.5 62t55.5 167t-55.5 167t-146.5 62z" />
    <glyph glyph-name="otilde" unicode="&#xf5;" 
d="M395 664l34 -7q-6 -28 -23 -45.5t-41 -19.5q-27 -3 -66 16q-7 4 -22.5 12t-25 12t-15.5 4q-9 1 -16.5 -8.5t-14.5 -35.5l-33 8q13 64 57 66q7 0 14 -1.5t17 -5.5t14.5 -6t16 -8t13.5 -7q37 -18 55 -16q23 3 36 42zM300 510q111 0 178 -72t67 -188t-67 -188t-178 -72
t-178 72t-67 188t67 188t178 72zM300 479q-91 0 -146.5 -62t-55.5 -167t55.5 -167t146.5 -62t146.5 62t55.5 167t-55.5 167t-146.5 62z" />
    <glyph glyph-name="odieresis" unicode="&#xf6;" 
d="M226 665q12 0 20.5 -8.5t8.5 -20.5t-8.5 -20.5t-20.5 -8.5t-20 8.5t-8 20.5t8 20.5t20 8.5zM374 665q12 0 20.5 -8.5t8.5 -20.5t-8.5 -20.5t-20.5 -8.5t-20 8.5t-8 20.5t8 20.5t20 8.5zM300 510q55 0 101 -19t77.5 -53t49 -82.5t17.5 -105.5q0 -116 -67 -188t-178 -72
t-178 72t-67 188t67 188t178 72zM300 479q-91 0 -146.5 -62t-55.5 -167t55.5 -167t146.5 -62t147 62t56 167q0 69 -25.5 121t-71.5 80t-106 28z" />
    <glyph glyph-name="divide" unicode="&#xf7;" horiz-adv-x="546" 
d="M273 548q13 0 21.5 -9t8.5 -21t-8.5 -21t-21 -9t-21 9t-8.5 21q0 8 3.5 14.5t10.5 11t15 4.5zM499 329h-452v37h452v-37zM273.5 207q12.5 0 21 -9t8.5 -21q0 -8 -4 -14.5t-10.5 -11t-15.5 -4.5q-12 0 -20.5 9t-8.5 21t8.5 21t21 9z" />
    <glyph glyph-name="oslash" unicode="&#xf8;" 
d="M418 550l-19 -58q69 -28 107.5 -91.5t38.5 -150.5q0 -116 -67 -188t-178 -72q-32 0 -62 7l-15 -47h-41l19 58q-45 18 -78 53t-50.5 83t-17.5 106q0 77 30 136t86 91.5t129 32.5q32 0 62 -7l15 47h41zM98 250q0 -76 30 -130.5t83 -79.5l141 433q-25 6 -52 6
q-91 0 -146.5 -62t-55.5 -167zM300 21q91 0 147 62t56 167q0 51 -14 93t-39.5 71.5t-60.5 45.5l-141 -433q25 -6 52 -6z" />
    <glyph glyph-name="ugrave" unicode="&#xf9;" horiz-adv-x="690" 
d="M375 577h-41l-114 142h54zM59 500h118q6 0 6 -6v-334q0 -72 33 -105.5t92 -33.5q93 0 211 73v360q0 11 -10 12l-73 6v28h119q6 0 6 -6v-452q0 -11 11 -11l60 -4v-26l-107 -6q-2 -1 -4 1t-2 5v65q-122 -76 -224 -76q-71 0 -112.5 41t-41.5 124v299q0 11 -11 12l-71 6v28z
" />
    <glyph glyph-name="uacute" unicode="&#xfa;" horiz-adv-x="690" 
d="M356 577h-40l101 142h54zM59 500h118q6 0 6 -6v-334q0 -48 16 -80t43 -45.5t66 -13.5q94 0 211 73v360q0 11 -10 12l-73 6v28h119q6 0 6 -6v-452q0 -11 11 -11l60 -4v-26l-107 -6q-2 -1 -4 1t-2 5v65q-122 -76 -224 -76q-46 0 -80 17t-54 54.5t-20 93.5v299q0 11 -11 12
l-71 6v28z" />
    <glyph glyph-name="ucircumflex" unicode="&#xfb;" horiz-adv-x="690" 
d="M476 577h-41l-90 114l-89 -114h-41l103 142h55zM59 500h118q6 0 6 -6v-334q0 -72 33 -105.5t92 -33.5q93 0 211 73v360q0 11 -10 12l-73 6v28h119q6 0 6 -6v-452q0 -11 11 -11l60 -4v-26l-107 -6q-2 -1 -4 1t-2 5v65q-122 -76 -224 -76q-34 0 -62 9.5t-48.5 29.5t-32 52
t-11.5 74v299q0 11 -11 12l-71 6v28z" />
    <glyph glyph-name="udieresis" unicode="&#xfc;" horiz-adv-x="690" 
d="M271 665q12 0 20.5 -8.5t8.5 -20.5t-8.5 -20.5t-20.5 -8.5t-20 8.5t-8 20.5t8 20.5t20 8.5zM419 665q12 0 20.5 -8.5t8.5 -20.5t-8.5 -20.5t-20.5 -8.5t-20 8.5t-8 20.5q0 8 3.5 14.5t10.5 10.5t14 4zM59 500h118q6 0 6 -6v-334q0 -48 16 -80t43 -45.5t66 -13.5
q94 0 211 73v360q0 11 -10 12l-73 6v28h119q6 0 6 -6v-452q0 -11 11 -11l60 -4v-26l-107 -6q-2 -1 -4 1t-2 5v65q-122 -76 -224 -76q-46 0 -80 17t-54 54.5t-20 93.5v299q0 11 -11 12l-71 6v28z" />
    <glyph glyph-name="yacute" unicode="&#xfd;" horiz-adv-x="555" 
d="M291 577h-41l101 142h54zM536 472l-55 -5l-262 -658q-2 -3 -5 -3h-121v28l98 8q6 0 8 6l59 148h-9l-184 465q-2 6 -8 7l-33 3q-5 1 -5 6v23h76l180 -462l163 410q3 6 -0.5 11.5t-10.5 6.5l-72 6q-5 0 -5 5v23h186v-28z" />
    <glyph glyph-name="thorn" unicode="&#xfe;" horiz-adv-x="644" 
d="M74 744l106 6q6 0 6 -6v-305q65 71 170 71q34 0 65 -8t57 -23.5t46.5 -38.5t35 -51.5t22 -64t7.5 -75.5q0 -113 -62 -186t-170 -73q-107 0 -171 72v-211q0 -11 11 -11l72 -6v-28h-195v22q0 6 5 6l55 5q10 2 10 11v853q0 10 -11 11l-59 3v27zM344 478q-103 0 -158 -78
v-297q55 -82 161 -82q59 0 104.5 28t70 79.5t24.5 120.5q0 105 -55.5 167t-146.5 62z" />
    <glyph glyph-name="ydieresis" unicode="&#xff;" horiz-adv-x="555" 
d="M206 665q12 0 20 -8.5t8 -20.5t-8 -20.5t-20 -8.5t-20.5 8.5t-8.5 20.5t8.5 20.5t20.5 8.5zM354 665q12 0 20 -8.5t8 -20.5t-8 -20.5t-20 -8.5t-20.5 8.5t-8.5 20.5t8.5 20.5t20.5 8.5zM536 472l-55 -5l-262 -658q-2 -3 -5 -3h-121v28l98 8q6 0 8 6l59 148h-9l-184 465
q-2 6 -8 7l-33 3q-5 1 -5 6v23h76l180 -462l163 410q3 6 -0.5 11.5t-10.5 6.5l-72 6q-5 0 -5 5v23h186v-28z" />
    <glyph glyph-name="Amacron" unicode="&#x100;" horiz-adv-x="760" 
d="M512 809h-264v33h264v-33zM676 35l56 -5v-30h-205v24q0 5 5 5l73 7q7 0 10 5.5t1 11.5l-68 164h-347l-74 -180l91 -7v-30h-190v25q0 5 5 5l46 4q6 1 8 7l272 658l41 2zM216 254h318l-159 387z" />
    <glyph glyph-name="amacron" unicode="&#x101;" horiz-adv-x="563" 
d="M391 609h-264v33h264v-33zM256 510q73 0 120 -41t47 -129v-295q0 -10 10 -11l71 -6v-28h-113q-6 0 -6 5l-1 59q-65 -74 -172 -74q-71 0 -114.5 36t-43.5 95q0 56 37 84t125 52l165 44v39q0 38 -10 65.5t-28 43t-40 23t-50 7.5q-64 -1 -127 -35q-5 -3 -6 -8l-7 -85h-25
v105q0 3 2 4q78 49 166 50zM381 273l-155 -42q-50 -13 -76 -25.5t-39.5 -32t-13.5 -49.5q0 -47 33.5 -74.5t91.5 -27.5q99 0 155 74l4 5v172z" />
    <glyph glyph-name="Abreve" unicode="&#x102;" horiz-adv-x="760" 
d="M471 902h36q0 -52 -37 -88.5t-89.5 -36.5t-89.5 36.5t-37 88.5h36q0 -41 26.5 -68.5t64 -27.5t64 27.5t26.5 68.5zM676 35l56 -5v-30h-205v24q0 5 5 5l73 7q7 0 10 5.5t1 11.5l-68 164h-347l-74 -180l91 -7v-30h-190v25q0 5 5 5l46 4q6 1 8 7l272 658l41 2zM216 254h318
l-159 387z" />
    <glyph glyph-name="abreve" unicode="&#x103;" horiz-adv-x="563" 
d="M349 702h36q0 -25 -10 -48.5t-26.5 -40t-40 -26.5t-49.5 -10q-35 0 -64 16.5t-45.5 45.5t-16.5 63h35q0 -41 26.5 -68.5t64 -27.5t64 27.5t26.5 68.5zM256 510q35 0 64 -9.5t52.5 -28.5t37 -53t13.5 -79v-295q0 -10 10 -11l71 -6v-28h-113q-6 0 -6 6l-1 58
q-65 -74 -172 -74q-71 0 -114.5 36t-43.5 95q0 56 37 84t125 52l165 44v39q0 38 -10 65.5t-28 43t-40 23t-50 7.5q-64 -1 -127 -35q-5 -3 -6 -8l-7 -85h-25v105q0 3 2 4q78 49 166 50zM381 273l-155 -42q-73 -20 -101 -41.5t-28 -65.5q0 -47 33.5 -74.5t91.5 -27.5
q99 0 155 74l4 5v172z" />
    <glyph glyph-name="Aogonek" unicode="&#x104;" horiz-adv-x="760" 
d="M676 35l56 -5v-30h-163q-60 -40 -61 -98q0 -28 14.5 -45.5t37.5 -17.5q22 -1 59 19l8 -28q-39 -22 -72 -20q-38 0 -60 24t-23 60q0 28 13.5 56t41.5 50v24q0 5 5 5l73 7q7 0 10 5.5t1 11.5l-68 164h-347l-74 -180l91 -7v-30h-190v25q0 5 5 5l46 4q6 1 8 7l272 658l41 2z
M216 254h318l-159 387z" />
    <glyph glyph-name="aogonek" unicode="&#x105;" horiz-adv-x="563" 
d="M256 510q73 0 120 -41t47 -129v-295q0 -10 10 -11l71 -6v-28h-84q-60 -40 -61 -98q0 -9 2 -17.5t5 -15.5t7.5 -12.5t10.5 -9.5t13 -6t14 -2q22 -1 58 19l8 -28q-38 -22 -71 -20q-38 0 -60 24t-23 60q-1 66 62 112l-1 58q-65 -74 -172 -74q-71 0 -114.5 36t-43.5 95
q0 56 37 84t125 52l165 44v39q0 74 -35 106.5t-93 32.5q-64 -1 -127 -35q-5 -3 -6 -8l-7 -85h-25v105q0 3 2 4q78 49 166 50zM381 273l-155 -42q-50 -13 -76 -25.5t-39.5 -32t-13.5 -49.5q0 -47 33.5 -74.5t91.5 -27.5q99 0 155 74l4 5v172z" />
    <glyph glyph-name="Cacute" unicode="&#x106;" horiz-adv-x="650" 
d="M390 777h-41l101 142h54zM392 709q116 0 201 -61q2 -1 2 -4v-119h-30l-7 94q0 6 -5 8q-70 45 -161 45q-129 0 -207.5 -87t-78.5 -235t79 -235.5t209 -87.5q114 0 197 70l21 -30q-89 -77 -220 -77q-151 0 -243.5 99.5t-92.5 260.5q0 106 42 187.5t118 126.5t176 45z" />
    <glyph glyph-name="cacute" unicode="&#x107;" horiz-adv-x="502" 
d="M290 577h-41l101 142h54zM300 510q82 0 143 -42q2 -1 2 -4v-110h-29l-7 90q-1 5 -5 8q-45 27 -104 27q-91 0 -146.5 -62t-55.5 -167t55.5 -167t147.5 -62q75 0 134 44l17 -27q-63 -48 -152 -48q-111 0 -178 72t-67 188t67 188t178 72z" />
    <glyph glyph-name="Cdotaccent" unicode="&#x10a;" horiz-adv-x="650" 
d="M379 865q12 0 20.5 -8.5t8.5 -20.5t-8.5 -20.5t-20.5 -8.5t-20 8.5t-8 20.5t8 20.5t20 8.5zM392 709q116 0 201 -61q2 -1 2 -4v-119h-30l-7 94q0 6 -5 8q-70 45 -161 45q-129 0 -207.5 -87t-78.5 -235t79 -235.5t209 -87.5q114 0 197 70l21 -30q-89 -77 -220 -77
q-151 0 -243.5 99.5t-92.5 260.5t92.5 260t243.5 99z" />
    <glyph glyph-name="cdotaccent" unicode="&#x10b;" horiz-adv-x="502" 
d="M282 665q12 0 20.5 -8.5t8.5 -20.5t-8.5 -20.5t-20.5 -8.5t-20 8.5t-8 20.5q0 8 3.5 14.5t10 10.5t14.5 4zM300 510q82 0 143 -42q2 -1 2 -4v-110h-29l-7 90q-1 5 -5 8q-45 27 -104 27q-91 0 -146.5 -62t-55.5 -167q0 -52 14.5 -95t41 -72.5t64 -45.5t82.5 -16
q76 0 135 44l17 -27q-63 -48 -152 -48q-111 0 -178 72t-67 188t67 188t178 72z" />
    <glyph glyph-name="Ccaron" unicode="&#x10c;" horiz-adv-x="650" 
d="M407 777h-55l-103 142h41l89 -114l90 114h41zM392 709q116 0 201 -61q2 -1 2 -4v-119h-30l-7 94q0 6 -5 8q-70 45 -161 45q-129 0 -207.5 -87t-78.5 -235t79 -235.5t209 -87.5q114 0 197 70l21 -30q-89 -77 -220 -77q-151 0 -243.5 99.5t-92.5 260.5q0 106 42 187.5
t118 126.5t176 45z" />
    <glyph glyph-name="ccaron" unicode="&#x10d;" horiz-adv-x="502" 
d="M307 577h-56l-102 142h40l90 -114l89 114h41zM300 510q82 0 143 -42q2 -1 2 -4v-110h-29l-7 90q-1 5 -5 8q-45 27 -104 27q-91 0 -146.5 -62t-55.5 -167t55.5 -167t146.5 -62q76 0 135 44l17 -27q-63 -48 -152 -48q-111 0 -178 72t-67 188t67 188t178 72z" />
    <glyph glyph-name="Dcaron" unicode="&#x10e;" horiz-adv-x="756" 
d="M406 777h-56l-102 142h41l89 -114l90 114h40zM74 700h290q100 0 176.5 -42.5t118 -122t41.5 -185.5q0 -160 -92 -255t-244 -95h-290v25q0 5 5 5l65 6q10 0 10 11v606q0 11 -10 11l-65 6q-5 0 -5 6v24zM273 663l-72 -6v-614l73 -6h90q131 0 209 83t78 229.5t-78 230
t-209 83.5h-91z" />
    <glyph glyph-name="dcaron" unicode="&#x10f;" horiz-adv-x="665" 
d="M387 744l107 6q6 0 6 -6v-699q0 -10 10 -11l71 -6v-28h-113q-6 0 -6 6l-1 58q-65 -74 -173 -74q-105 0 -169 70.5t-64 190.5q0 113 62 186t171 73q106 0 170 -72v265q0 11 -11 11l-60 3v27zM627 750q15 0 24 -12t10.5 -31.5t-3.5 -44.5q-7 -36 -25 -69l-23 8q14 29 18 55
q5 27 -3 42h-2q-10 1 -16.5 8.5t-6.5 17.5q0 6 3.5 12t10 10t13.5 4zM297 479q-90 0 -144.5 -62t-54.5 -166.5t55.5 -166.5t146.5 -62q103 0 158 78v297q-55 82 -161 82z" />
    <glyph glyph-name="Dcroat" unicode="&#x110;" horiz-adv-x="756" 
d="M74 700h290q152 0 244 -95t92 -255t-92 -255t-244 -95h-290v25q0 5 5 5l65 6q10 0 10 11v285h-107v36h107v285q0 11 -10 11l-65 6q-5 0 -5 6v24zM274 37h90q65 0 118 21t90.5 61t58 99t20.5 132q0 146 -78 229.5t-209 83.5h-90l-73 -6v-289h154v-36h-154v-289z" />
    <glyph glyph-name="dcroat" unicode="&#x111;" horiz-adv-x="649" 
d="M500 601v-556q0 -10 10 -11l71 -6v-28h-113q-6 0 -6 6l-1 58q-65 -74 -173 -74q-105 0 -169 70.5t-64 190.5q0 113 62 186t170 73q107 0 171 -72v163h-134v30h134v117l36 2q6 0 6 -6v-113h91v-30h-91zM458 100v297q-55 82 -161 82q-90 0 -144.5 -62t-54.5 -166.5
t55.5 -166.5t146.5 -62q103 0 158 78z" />
    <glyph glyph-name="Emacron" unicode="&#x112;" horiz-adv-x="579" 
d="M451 809h-264v33h264v-33zM74 700h443q6 0 6 -6v-123h-29l-7 82q-1 10 -11 10h-275v-289h243v-35h-243v-302h294q11 0 12 10l6 82h29v-123q0 -6 -6 -6h-462v25q0 5 5 5l65 6q10 0 10 11v606q0 11 -10 11l-65 6q-5 0 -5 6v24z" />
    <glyph glyph-name="emacron" unicode="&#x113;" horiz-adv-x="549" 
d="M414 609h-264v33h264v-33zM282 510q108 0 161 -65t56 -182v-8q0 -9 -10 -9l-391 -3q2 -101 53.5 -161.5t136.5 -60.5q104 0 169 66l18 -26q-20 -21 -47.5 -36.5t-64 -25t-77.5 -9.5q-69 0 -121.5 33t-81 92t-28.5 135.5t28 135.5t79.5 91.5t119.5 32.5zM282 480
q-80 0 -129.5 -56t-54.5 -152h351q7 0 6 7q-8 201 -173 201z" />
    <glyph glyph-name="Edotaccent" unicode="&#x116;" horiz-adv-x="579" 
d="M319 865q12 0 20 -8.5t8 -20.5t-8 -20.5t-20 -8.5t-20.5 8.5t-8.5 20.5t8.5 20.5t20.5 8.5zM74 700h443q6 0 6 -6v-123h-29l-7 82q-1 10 -11 10h-275v-289h243v-35h-243v-302h294q11 0 12 10l6 82h29v-123q0 -6 -6 -6h-462v25q0 5 5 5l65 6q10 0 10 11v606q0 11 -10 11
l-65 6q-5 0 -5 6v24z" />
    <glyph glyph-name="edotaccent" unicode="&#x117;" horiz-adv-x="549" 
d="M282 665q12 0 20.5 -8.5t8.5 -20.5t-8.5 -20.5t-20.5 -8.5q-8 0 -14.5 4t-10.5 10.5t-4 14.5q0 12 8.5 20.5t20.5 8.5zM282 510q73 0 121.5 -31.5t71 -85t24.5 -130.5v-8q0 -9 -10 -9l-391 -3q2 -101 53.5 -161.5t136.5 -60.5q104 0 169 66l18 -26q-31 -32 -80 -51.5
t-109 -19.5q-104 0 -167.5 72t-63.5 188q0 77 28 136t79.5 91.5t119.5 32.5zM282 480q-80 0 -129.5 -56t-54.5 -152h351q7 0 6 7q-8 201 -173 201z" />
    <glyph glyph-name="Eogonek" unicode="&#x118;" horiz-adv-x="579" 
d="M74 700h443q6 0 6 -6v-123h-29l-7 82q-1 10 -11 10h-275v-289h243v-35h-243v-302h294q11 0 12 10l6 82h29v-123q0 -6 -6 -6h-49q-61 -40 -61 -98q0 -19 6.5 -33t18 -22t27.5 -8q22 -1 58 19l8 -28q-38 -22 -72 -20q-37 0 -59 24t-23 60q0 18 5.5 36.5t18 36.5t30.5 33
h-370v25q0 5 5 5l65 6q10 0 10 11v606q0 11 -10 11l-65 6q-5 0 -5 6v24z" />
    <glyph glyph-name="eogonek" unicode="&#x119;" horiz-adv-x="549" 
d="M282 510q108 0 161 -65t56 -182v-8q0 -9 -10 -9l-391 -3q2 -101 53.5 -161.5t136.5 -60.5q104 0 169 66l18 -26q-29 -31 -74 -49q-80 -45 -80 -110q0 -19 6.5 -33t18.5 -22t27 -8q22 -1 58 19l8 -28q-38 -22 -72 -20q-37 0 -59 24t-23 60q-1 57 47 99q-47 -3 -49 -3
q-103 1 -165.5 73t-62.5 187q0 77 28 136t79.5 91.5t119.5 32.5zM282 480q-80 0 -129.5 -56t-54.5 -152h351q7 0 6 7q-8 201 -173 201z" />
    <glyph glyph-name="Ecaron" unicode="&#x11a;" horiz-adv-x="579" 
d="M347 777h-56l-103 142h41l90 -114l89 114h41zM74 700h443q6 0 6 -6v-123h-29l-7 82q-1 10 -11 10h-275v-289h243v-35h-243v-302h294q11 0 12 10l6 82h29v-123q0 -6 -6 -6h-462v25q0 5 5 5l65 6q10 0 10 11v606q0 11 -10 11l-65 6q-5 0 -5 6v24z" />
    <glyph glyph-name="ecaron" unicode="&#x11b;" horiz-adv-x="549" 
d="M310 577h-56l-102 142h41l89 -114l90 114h40zM282 510q108 0 161 -65t56 -182v-8q0 -9 -10 -9l-391 -3q2 -101 53.5 -161.5t136.5 -60.5q104 0 169 66l18 -26q-31 -32 -80 -51.5t-109 -19.5q-69 0 -121.5 33t-81 92t-28.5 135q0 116 62 188t165 72zM282 480
q-80 0 -129.5 -56t-54.5 -152h351q7 0 6 7q-8 201 -173 201z" />
    <glyph glyph-name="Gbreve" unicode="&#x11e;" horiz-adv-x="705" 
d="M466 902h36q0 -34 -16.5 -63t-46 -45.5t-63.5 -16.5q-53 0 -90 36.5t-37 88.5h36q0 -41 26.5 -68.5t64 -27.5t64 27.5t26.5 68.5zM392 709q113 0 222 -59q3 -1 3 -4v-119h-30l-7 91q0 6 -5 8q-93 46 -183 46q-59 0 -110.5 -21t-91 -60.5t-62 -101.5t-22.5 -139
q0 -98 35.5 -171t100 -112.5t150.5 -39.5q123 0 201 80v165q0 11 -11 12l-179 9v31h227q6 0 6 -5v-319h-31l-6 63q-86 -73 -212 -73q-149 0 -240 99.5t-91 260.5q0 85 27 154.5t73 113.5t106.5 67.5t129.5 23.5z" />
    <glyph glyph-name="gbreve" unicode="&#x11f;" horiz-adv-x="568" 
d="M373 702h36q0 -25 -10 -48.5t-27 -40t-40.5 -26.5t-48.5 -10q-53 0 -90 36.5t-37 88.5h36q0 -41 26.5 -68.5t64 -27.5t64 27.5t26.5 68.5zM509 486l-111 -9q37 -20 57 -55t20 -80q0 -76 -52 -122t-138 -46q-42 0 -77 12q-67 -15 -67 -55q0 -34 35 -48.5t108 -14.5
q102 0 161 -34.5t59 -109.5q0 -44 -28 -78t-79 -52.5t-116 -18.5q-99 0 -161.5 41t-62.5 105q0 44 33 78.5t90 52.5q-76 18 -76 74q-1 24 18.5 43t54.5 30q-39 21 -61 58t-22 85q0 76 52 122t139 46h224v-24zM284.5 482q-68.5 0 -108.5 -37.5t-40 -102.5t40 -102t108.5 -37
t108.5 37t40 102t-40 102.5t-108.5 37.5zM239 41l-13 -3q-61 -12 -95.5 -42.5t-34.5 -73.5q0 -53 50.5 -85.5t134.5 -32.5t134 32.5t50 85.5q0 117 -186 117q-20 0 -40 2z" />
    <glyph glyph-name="Gdotaccent" unicode="&#x120;" horiz-adv-x="705" 
d="M376 865q12 0 20 -8.5t8 -20.5t-8 -20.5t-20 -8.5t-20.5 8.5t-8.5 20.5q0 8 4 14.5t10.5 10.5t14.5 4zM392 709q113 0 222 -59q3 -1 3 -4v-119h-30l-7 91q0 6 -5 8q-93 46 -183 46q-59 0 -110.5 -21t-91 -60.5t-62 -101.5t-22.5 -139q0 -148 78 -235.5t208 -87.5
q123 0 201 80v165q0 11 -11 12l-179 9v31h227q6 0 6 -5v-319h-31l-6 63q-86 -73 -212 -73q-149 0 -240 99.5t-91 260.5q0 85 27 154.5t73 113.5t106.5 67.5t129.5 23.5z" />
    <glyph glyph-name="gdotaccent" unicode="&#x121;" horiz-adv-x="568" 
d="M282.5 665q11.5 0 20 -8.5t8.5 -20.5t-8.5 -20.5t-20 -8.5t-20 8.5t-8.5 20.5t8.5 20.5t20 8.5zM509 486l-111 -9q24 -13 41.5 -33t26.5 -46t9 -56q0 -76 -52 -122t-138 -46q-42 0 -77 12q-67 -15 -67 -55q0 -34 35 -48.5t108 -14.5q102 0 161 -34.5t59 -109.5
q0 -44 -28 -78t-79 -52.5t-116 -18.5q-49 0 -90.5 11t-71 30t-46 46t-16.5 59q0 44 33 78.5t90 52.5q-76 18 -76 74q-1 16 8 30t25.5 25t39.5 18q-26 14 -44.5 35t-28.5 48.5t-10 59.5q0 76 52 122t139 46h224v-24zM285 482q-69 0 -109 -37.5t-40 -102.5q0 -43 18 -74.5
t51.5 -48t79.5 -16.5q34 0 61.5 9.5t46.5 27.5t29.5 44t10.5 58q0 43 -18 74.5t-51.5 48.5t-78.5 17zM239 41l-13 -3q-61 -12 -95.5 -42.5t-34.5 -73.5q0 -53 50.5 -85.5t134.5 -32.5q55 0 97 14.5t64.5 41.5t22.5 62q0 117 -186 117q-20 0 -40 2z" />
    <glyph glyph-name="Gcommaaccent" unicode="&#x122;" horiz-adv-x="705" 
d="M392 709q113 0 222 -59q3 -1 3 -4v-119h-30l-7 91q0 6 -5 8q-93 46 -183 46q-59 0 -110.5 -21t-91 -60.5t-62 -101.5t-22.5 -139q0 -148 78 -235.5t208 -87.5q123 0 201 80v165q0 11 -11 12l-179 9v31h227q6 0 6 -5v-319h-31l-6 63q-86 -73 -212 -73q-149 0 -240 99.5
t-91 260.5q0 85 27 154.5t73 113.5t106.5 67.5t129.5 23.5zM348 -56q23 0 31 -25.5t0 -62.5q-7 -36 -25 -68l-23 7q14 28 18 55q4 26 -3 42h-2q-10 2 -16.5 9t-6.5 17t8 17.5t19 8.5z" />
    <glyph glyph-name="gcommaaccent" unicode="&#x123;" horiz-adv-x="568" 
d="M283 752l22 -7q-14 -30 -18 -56t4 -42h2q9 -1 15.5 -8t6.5 -17q0 -11 -7.5 -18.5t-18.5 -8.5q-23 0 -31.5 25.5t-0.5 62.5q7 36 26 69zM509 486l-111 -9q24 -13 41.5 -33t26.5 -46t9 -56q0 -76 -52 -122t-138 -46q-42 0 -77 12q-67 -15 -67 -55q0 -34 35 -48.5t108 -14.5
q102 0 161 -34.5t59 -109.5q0 -44 -28 -78t-79 -52.5t-116 -18.5q-49 0 -90.5 11t-71 30t-46 46t-16.5 59q0 44 33 78.5t90 52.5q-76 18 -76 74q-1 24 18.5 43t54.5 30q-26 14 -44.5 35t-28.5 48.5t-10 59.5q0 76 52 122t139 46h224v-24zM284.5 482q-68.5 0 -108.5 -37.5
t-40 -102.5q0 -43 18 -74.5t51.5 -48t79.5 -16.5q34 0 61.5 9.5t46.5 27.5t29.5 44t10.5 58q0 65 -40 102.5t-108.5 37.5zM239 41l-13 -3q-61 -12 -95.5 -42.5t-34.5 -73.5q0 -53 50.5 -85.5t134.5 -32.5q55 0 97 14.5t64.5 41.5t22.5 62q0 117 -186 117q-20 0 -40 2z" />
    <glyph glyph-name="Hbar" unicode="&#x126;" horiz-adv-x="859" 
d="M705 529v-482q0 -11 10 -11l70 -6v-30h-220v24q0 6 5 6l77 7q10 1 10 11v291h-456v-291q0 -10 11 -11l81 -7v-30h-219v24q0 6 5 6l65 6q10 0 10 11v482h-154v27h154v97q0 11 -10 11l-65 6q-5 0 -5 5v25h219v-30l-81 -7q-11 -1 -11 -11v-96h456v96q0 10 -10 11l-77 7
q-5 0 -5 5v25h220v-30l-70 -6q-10 0 -10 -11v-97h154v-27h-154zM657 529h-456v-153h456v153z" />
    <glyph glyph-name="hbar" unicode="&#x127;" horiz-adv-x="705" 
d="M647 28v-28h-119q-5 0 -5 6v333q0 72 -33.5 106t-91.5 34q-94 0 -212 -74v-360q0 -10 11 -11l72 -6v-28h-195v23q0 5 5 6l55 4q10 1 10 12v558h-144v24h144v76q0 11 -11 11l-59 3v27l106 6q6 0 6 -6v-117h177v-24h-177v-169q122 76 224 76q71 0 113 -41t42 -125v-299
q0 -10 10 -11z" />
    <glyph glyph-name="Itilde" unicode="&#x128;" horiz-adv-x="358" 
d="M274 864l34 -7q-6 -28 -23 -45.5t-41 -19.5q-27 -3 -66 16q-7 4 -22.5 12t-25 12t-15.5 4q-9 1 -16.5 -8.5t-14.5 -35.5l-33 8q13 64 57 66q7 0 14 -1.5t17 -5.5t14.5 -6t16 -8t13.5 -7q37 -18 55 -16q23 3 36 42zM284 670l-71 -6q-11 -1 -11 -11v-606q0 -11 11 -11
l71 -6v-30h-210v24q0 6 5 6l66 6q10 0 10 11v606q0 10 -10 11l-66 6q-5 0 -5 5v25h210v-30z" />
    <glyph glyph-name="itilde" unicode="&#x129;" horiz-adv-x="341" 
d="M257 664l34 -7q-6 -28 -23 -45.5t-41 -19.5q-27 -3 -66 16q-8 4 -23 12t-24.5 12t-15.5 4q-10 1 -17 -8.5t-14 -35.5l-34 8q14 64 58 66q7 0 14 -1.5t17 -5.5t14.5 -6t16 -8t12.5 -7q37 -18 56 -16q23 3 36 42zM74 499l106 6q6 0 6 -6v-454q0 -10 11 -11l75 -6v-28h-198
v23q0 5 5 6l55 4q10 1 10 12v413q0 11 -11 11l-59 3v27z" />
    <glyph glyph-name="Imacron" unicode="&#x12a;" horiz-adv-x="358" 
d="M311 809h-264v33h264v-33zM284 670l-71 -6q-11 -1 -11 -11v-606q0 -11 11 -11l71 -6v-30h-210v24q0 6 5 6l66 6q10 0 10 11v606q0 10 -10 11l-66 6q-5 0 -5 5v25h210v-30z" />
    <glyph glyph-name="imacron" unicode="&#x12b;" horiz-adv-x="341" 
d="M294 609h-264v33h264v-33zM74 499l106 6q6 0 6 -6v-454q0 -10 11 -11l75 -6v-28h-198v23q0 5 5 6l55 4q10 1 10 12v413q0 11 -11 11l-59 3v27z" />
    <glyph glyph-name="Iogonek" unicode="&#x12e;" horiz-adv-x="358" 
d="M284 670l-71 -6q-10 -1 -10 -11v-606q0 -10 10 -11l71 -6v-30h-27q-63 -40 -63 -99q0 -19 6.5 -33t18.5 -22t27 -8q22 -1 58 19l8 -28q-38 -22 -71 -20q-38 0 -60 24t-23 60q-1 63 56 107h-140v25q0 5 5 5l66 6q10 1 10 11v606q0 10 -10 11l-66 6q-5 0 -5 6v24h210v-30z
" />
    <glyph glyph-name="iogonek" unicode="&#x12f;" horiz-adv-x="341" 
d="M162 665q12 0 20.5 -8.5t8.5 -20.5t-8.5 -20.5t-20.5 -8.5q-8 0 -14.5 4t-10.5 10.5t-4 14.5q0 12 8.5 20.5t20.5 8.5zM74 499l106 6q6 0 6 -6v-454q0 -10 11 -11l75 -6v-28h-27q-63 -40 -63 -99q0 -29 14 -46t38 -17q24 -2 58 19l8 -29q-38 -22 -71 -20
q-26 0 -44.5 11.5t-28 30.5t-10.5 42q-1 64 57 108h-129v23q0 5 5 6l55 4q10 1 10 12v413q0 11 -11 11l-59 3v27z" />
    <glyph glyph-name="Idotaccent" unicode="&#x130;" horiz-adv-x="358" 
d="M179 865q12 0 20.5 -8.5t8.5 -20.5t-8.5 -20.5t-20.5 -8.5t-20 8.5t-8 20.5q0 8 3.5 14.5t10 10.5t14.5 4zM284 670l-71 -6q-11 -1 -11 -11v-606q0 -11 11 -11l71 -6v-30h-210v24q0 6 5 6l66 6q10 0 10 11v606q0 10 -10 11l-66 6q-5 0 -5 5v25h210v-30z" />
    <glyph glyph-name="dotlessi" unicode="&#x131;" horiz-adv-x="341" 
d="M74 499l106 6q6 0 6 -6v-454q0 -10 11 -11l75 -6v-28h-198v23q0 5 5 6l55 4q10 1 10 12v413q0 11 -11 11l-59 3v27z" />
    <glyph glyph-name="IJ" unicode="&#x132;" horiz-adv-x="725" 
d="M284 670l-71 -6q-11 -1 -11 -11v-606q0 -10 11 -11l71 -6v-30h-210v24q0 6 5 6l66 6q10 1 10 11v606q0 10 -10 11l-66 6q-5 0 -5 6v24h210v-30zM651 670l-69 -5q-10 -1 -10 -12v-617q0 -88 -46.5 -151t-128.5 -86l-11 28q63 22 100 77t37 132v616q0 10 -10 11l-77 7
q-5 0 -5 5v25h220v-30z" />
    <glyph glyph-name="ij" unicode="&#x133;" horiz-adv-x="596" 
d="M496.5 707q12.5 0 21 -8.5t8.5 -21t-8.5 -21.5t-21 -9t-21 9t-8.5 21.5t8.5 21t21 8.5zM164 707q12 0 21 -9t9 -21t-9 -21t-21 -9t-21 9t-9 21t9 21t21 9zM406 499l107 6q6 0 6 -6v-596q0 -44 -29 -70.5t-78 -26.5q-47 0 -76 25l16 23q19 -17 53 -17t53 18t19 51v552
q0 11 -11 11l-60 3v27zM74 499l106 6q6 0 6 -6v-454q0 -10 11 -11l75 -6v-28h-198v23q0 5 5 6l55 4q10 1 10 12v413q0 11 -11 11l-59 3v27z" />
    <glyph glyph-name="Kcommaaccent" unicode="&#x136;" horiz-adv-x="739" 
d="M692 670l-75 -6l-259 -279l268 -345q2 -3 7 -4l73 -6q5 0 5 -6v-24h-114l-270 351l-126 -135v-168q0 -10 11 -11l81 -7v-30h-219v24q0 6 5 6l65 6q10 0 10 11v606q0 11 -10 11l-65 6q-5 0 -5 5v25h218v-30l-80 -7q-11 -1 -11 -11v-385l346 373q6 7 3.5 15.5t-12.5 9.5
l-54 5q-5 0 -5 5v25h213v-30zM365 -56q23 0 31.5 -25.5t0.5 -62.5q-8 -36 -26 -68l-23 7q14 28 19 55q4 26 -4 42h-2q-10 2 -16 9t-6 17t7.5 17.5t18.5 8.5z" />
    <glyph glyph-name="kcommaaccent" unicode="&#x137;" horiz-adv-x="607" 
d="M74 744l106 6q6 0 6 -6v-494l243 203q5 3 3.5 8.5t-7.5 5.5l-54 5q-5 0 -5 5v23h189v-28l-63 -6l-186 -154l215 -276q1 -2 4 -2l63 -6v-28h-88q-5 0 -7 4l-216 285l-91 -75v-169q0 -10 11 -11l71 -6v-28h-191v23q0 5 5 6l52 4q10 1 10 12v658q0 10 -11 11l-59 3v27z
M299 -56q23 0 31.5 -25.5t0.5 -62.5q-8 -36 -26 -68l-23 7q14 28 18 55q5 26 -3 42h-2q-10 2 -16 9t-6 17t7.5 17.5t18.5 8.5z" />
    <glyph glyph-name="Lacute" unicode="&#x139;" horiz-adv-x="567" 
d="M295 777h-41l101 142h54zM293 670l-81 -7q-11 -1 -11 -11v-615h282q11 0 12 10l6 82h29v-123q0 -6 -6 -6h-450v25q0 5 5 5l65 6q10 0 10 11v606q0 11 -10 11l-65 6q-5 0 -5 6v24h219v-30z" />
    <glyph glyph-name="lacute" unicode="&#x13a;" horiz-adv-x="331" 
d="M176 819h-40l101 142h53zM74 744l106 6q6 0 6 -6v-699q0 -10 11 -11l75 -6v-28h-195v23q0 5 5 6l52 4q10 1 10 12v658q0 10 -11 11l-59 3v27z" />
    <glyph glyph-name="Lcommaaccent" unicode="&#x13b;" horiz-adv-x="567" 
d="M293 670l-81 -7q-11 -1 -11 -11v-615h282q11 0 12 10l6 82h29v-123q0 -6 -6 -6h-450v25q0 5 5 5l65 6q10 0 10 11v606q0 11 -10 11l-65 6q-5 0 -5 6v24h219v-30zM279 -56q23 0 31.5 -25.5t0.5 -62.5q-7 -36 -26 -68l-23 7q14 28 19 55q4 26 -4 42h-2q-10 2 -16 9t-6 17
t7.5 17.5t18.5 8.5z" />
    <glyph glyph-name="lcommaaccent" unicode="&#x13c;" horiz-adv-x="331" 
d="M74 744l106 6q6 0 6 -6v-699q0 -10 11 -11l75 -6v-28h-195v23q0 5 5 6l52 4q10 1 10 12v658q0 10 -11 11l-59 3v27zM161 -56q23 0 31 -25.5t0 -62.5q-7 -36 -25 -68l-23 7q14 28 18 55q4 26 -3 42h-2q-10 2 -16.5 9t-6.5 17t8 17.5t19 8.5z" />
    <glyph glyph-name="Lcaron" unicode="&#x13d;" horiz-adv-x="570" 
d="M441 710q23 0 31.5 -25t0.5 -63q-7 -36 -26 -69l-22 8q13 29 18 55q4 27 -4 42h-2q-9 1 -15.5 8.5t-6.5 17.5t7.5 17.5t18.5 8.5zM293 670l-81 -7q-11 -1 -11 -11v-615h282q11 0 12 10l6 82h29v-123q0 -6 -6 -6h-450v24q0 6 5 6l65 6q10 0 10 11v606q0 11 -10 11l-65 6
q-5 0 -5 5v25h219v-30z" />
    <glyph glyph-name="lcaron" unicode="&#x13e;" horiz-adv-x="378" 
d="M74 744l106 6q6 0 6 -6v-699q0 -10 11 -11l75 -6v-28h-195v23q0 5 5 6l52 4q10 1 10 12v658q0 10 -11 11l-59 3v27zM324 744q23 0 31 -25t1 -62q-8 -37 -26 -69l-23 7q14 29 18 55q5 27 -3 42h-2q-10 2 -16 9t-6 17t7.5 18t18.5 8z" />
    <glyph glyph-name="Ldot" unicode="&#x13f;" horiz-adv-x="567" 
d="M293 670l-81 -7q-11 -1 -11 -11v-615h282q11 0 12 10l6 82h29v-123q0 -6 -6 -6h-450v25q0 5 5 5l65 6q10 0 10 11v606q0 11 -10 11l-65 6q-5 0 -5 6v24h219v-30zM468.5 408q12.5 0 21 -9t8.5 -21t-8.5 -21t-21.5 -9q-6 0 -11.5 2.5t-9.5 6.5t-6 9.5t-2 11.5q0 12 8.5 21
t21 9z" />
    <glyph glyph-name="ldot" unicode="&#x140;" horiz-adv-x="389" 
d="M74 744l106 6q6 0 6 -6v-699q0 -10 11 -11l75 -6v-28h-195v23q0 5 5 6l52 4q10 1 10 12v658q0 10 -11 11l-59 3v27zM332.5 408q12.5 0 21 -9t8.5 -21t-8.5 -21t-21 -9t-21 9t-8.5 21t8.5 21t21 9z" />
    <glyph glyph-name="Lslash" unicode="&#x141;" horiz-adv-x="576" 
d="M539 129v-123q0 -6 -6 -6h-451v24q0 6 6 6l64 6q11 0 11 11v291l-120 -87v46l120 87v269q0 11 -11 11l-64 6q-6 0 -6 5v25h220v-30l-82 -7q-10 -1 -10 -11v-234l169 122v-45l-169 -123v-335h282q11 0 11 10l7 82h29z" />
    <glyph glyph-name="lslash" unicode="&#x142;" horiz-adv-x="380" 
d="M209 406v-361q0 -10 10 -11l75 -6v-28h-195v23q0 5 5 6l52 4q11 1 11 12v330l-120 -87v43l120 87v285q0 10 -11 11l-60 3v27l106 6q7 0 7 -6v-296l126 92v-43z" />
    <glyph glyph-name="Nacute" unicode="&#x143;" horiz-adv-x="848" 
d="M436 777h-41l101 142h54zM780 670l-70 -6q-11 0 -11 -11v-653h-44l-461 623v-575q0 -10 10 -11l80 -7v-30h-215v24q0 6 5 6l65 6q10 0 10 11v606q0 11 -10 11l-65 6q-5 0 -5 5v25h123l463 -626v578q0 11 -11 11l-75 7q-5 0 -5 5v25h216v-30z" />
    <glyph glyph-name="nacute" unicode="&#x144;" horiz-adv-x="700" 
d="M361 577h-41l101 142h54zM405 510q70 0 112 -41t42 -125v-299q0 -10 10 -11l72 -6v-28h-118q-6 0 -6 6v333q0 72 -33.5 106t-91.5 34q-94 0 -211 -74v-360q0 -10 10 -11l72 -6v-28h-195v23q0 5 5 6l55 4q11 1 11 12v413q0 10 -11 11l-60 3v27l106 6q7 0 7 -6v-65
q122 76 224 76z" />
    <glyph glyph-name="Ncommaaccent" unicode="&#x145;" horiz-adv-x="848" 
d="M780 670l-70 -6q-11 0 -11 -11v-653h-44l-461 623v-575q0 -10 10 -11l80 -7v-30h-215v24q0 6 5 6l65 6q10 0 10 11v606q0 11 -10 11l-65 6q-5 0 -5 5v25h123l463 -626v578q0 11 -11 11l-75 7q-5 0 -5 5v25h216v-30zM420 -56q23 0 31 -25.5t1 -62.5q-8 -36 -26 -68l-23 7
q14 28 18 55q5 26 -3 42h-2q-10 2 -16 9t-6 17t7.5 17.5t18.5 8.5z" />
    <glyph glyph-name="ncommaaccent" unicode="&#x146;" horiz-adv-x="700" 
d="M405 510q70 0 112 -41t42 -125v-299q0 -10 10 -11l72 -6v-28h-118q-6 0 -6 6v333q0 72 -33.5 106t-91.5 34q-94 0 -211 -74v-360q0 -10 10 -11l72 -6v-28h-195v23q0 5 5 6l55 4q11 1 11 12v413q0 11 -11 11l-60 3v27l106 6q7 0 7 -6v-65q122 76 224 76zM345 -56
q23 0 31.5 -25.5t0.5 -62.5q-7 -36 -26 -68l-22 7q13 28 18 55q4 26 -4 42h-2q-10 2 -16 9t-6 17t7.5 17.5t18.5 8.5z" />
    <glyph glyph-name="Ncaron" unicode="&#x147;" horiz-adv-x="848" 
d="M452 777h-55l-103 142h41l90 -114l89 114h41zM780 670l-70 -6q-11 0 -11 -11v-653h-44l-461 623v-575q0 -10 10 -11l80 -7v-30h-215v24q0 6 5 6l65 6q10 0 10 11v606q0 11 -10 11l-65 6q-5 0 -5 5v25h123l463 -626v578q0 11 -11 11l-75 7q-5 0 -5 5v25h216v-30z" />
    <glyph glyph-name="ncaron" unicode="&#x148;" horiz-adv-x="700" 
d="M378 577h-56l-103 142h41l90 -114l89 114h41zM405 510q34 0 61.5 -10t48.5 -29.5t32.5 -51.5t11.5 -75v-299q0 -10 10 -11l72 -6v-28h-118q-6 0 -6 6v333q0 72 -33.5 106t-91.5 34q-94 0 -211 -74v-360q0 -10 10 -11l72 -6v-28h-195v23q0 5 5 6l55 4q11 1 11 12v413
q0 10 -11 11l-60 3v27l106 6q7 0 7 -6v-65q122 76 224 76z" />
    <glyph glyph-name="Eng" unicode="&#x14a;" horiz-adv-x="853" 
d="M780 670l-70 -5q-10 -1 -10 -12v-617q0 -87 -45.5 -149.5t-126.5 -87.5l-11 28q56 19 92 65t44 111l-459 620v-575q0 -10 10 -11l80 -7v-30h-215v24q0 6 5 6l65 6q10 0 10 11v606q0 11 -10 11l-65 6q-5 0 -5 5v25h123l463 -626v578q0 10 -11 11l-75 7q-5 0 -5 5v25h216
v-30z" />
    <glyph glyph-name="eng" unicode="&#x14b;" horiz-adv-x="700" 
d="M405 510q70 0 112 -41t42 -125v-441q0 -44 -29 -70.5t-78 -26.5q-47 0 -76 25l16 23q19 -17 53 -17t53 18t19 51v433q0 72 -33.5 106t-91.5 34q-94 0 -211 -74v-360q0 -10 10 -11l72 -6v-28h-195v23q0 5 5 6l55 4q11 1 11 12v413q0 11 -11 11l-60 3v27l106 6q7 0 7 -6
v-65q122 76 224 76z" />
    <glyph glyph-name="Omacron" unicode="&#x14c;" horiz-adv-x="783" 
d="M523 809h-264v33h264v-33zM391 709q152 0 244 -99t92 -260t-92.5 -260.5t-243.5 -99.5t-243 99.5t-92 260.5q0 106 41.5 187.5t118 126.5t175.5 45zM391.5 672q-129.5 0 -208 -87.5t-78.5 -234.5q0 -98 35.5 -171t100.5 -112.5t150 -39.5q130 0 208.5 87.5t78.5 235
t-78.5 235t-208 87.5z" />
    <glyph glyph-name="omacron" unicode="&#x14d;" 
d="M432 609h-264v33h264v-33zM300 510q111 0 178 -72t67 -188t-67 -188t-178 -72t-178 72t-67 188t67 188t178 72zM300 479q-91 0 -146.5 -62t-55.5 -167t55.5 -167t146.5 -62t146.5 62t55.5 167t-55.5 167t-146.5 62z" />
    <glyph glyph-name="Ohungarumlaut" unicode="&#x150;" horiz-adv-x="783" 
d="M341 777h-40l98 142h54zM472 777h-41l99 142h53zM391 709q151 0 243.5 -99t92.5 -260t-92.5 -260.5t-243.5 -99.5t-243 99.5t-92 260.5q0 106 41.5 187.5t118 126.5t175.5 45zM391.5 672q-129.5 0 -208 -87.5t-78.5 -235t78.5 -235t208 -87.5t208 87.5t78.5 235
t-78.5 235t-208 87.5z" />
    <glyph glyph-name="ohungarumlaut" unicode="&#x151;" 
d="M250 577h-40l98 142h54zM381 577h-41l98 142h54zM300 510q111 0 178 -72t67 -188t-67 -188t-178 -72q-73 0 -129 33t-86 92t-30 135.5t30 135.5t86 91.5t129 32.5zM300 479q-91 0 -146.5 -62t-55.5 -167t55.5 -167t146.5 -62t146.5 62t55.5 167t-55.5 167t-146.5 62z" />
    <glyph glyph-name="OE" unicode="&#x152;" horiz-adv-x="1103" 
d="M391 709q68 0 125 -22.5t98 -64t64 -99.5v177h363q6 0 6 -6v-123h-30l-6 82q-1 10 -11 10h-275v-289h243v-35h-243v-302h294q11 0 12 10l6 82h29v-123q0 -6 -6 -6h-382v177q-35 -88 -110 -137.5t-177 -49.5q-151 0 -243 99.5t-92 260.5t92 260t243 99zM391.5 672
q-129.5 0 -208 -87.5t-78.5 -234.5q0 -98 35.5 -171t100.5 -112.5t150 -39.5q130 0 208.5 87.5t78.5 235t-78.5 235t-208 87.5z" />
    <glyph glyph-name="oe" unicode="&#x153;" horiz-adv-x="1008" 
d="M741 510q109 0 162 -65t55 -181v-9q1 -9 -9 -9l-391 -3q1 -101 53 -161.5t136 -60.5q105 0 169 66l19 -26q-20 -21 -47.5 -36.5t-64.5 -25t-77 -9.5q-81 0 -138 45t-78 123q-23 -78 -83.5 -123t-146.5 -45q-111 0 -178 72t-67 188t67 188t178 72q86 0 146 -45t83 -123
q14 52 43.5 89.5t73 58t95.5 20.5zM742 480q-80 0 -130 -56t-54 -152h351q6 0 6 7q-9 201 -173 201zM300 479q-91 0 -146.5 -62t-55.5 -167t55.5 -167t146.5 -62t146.5 62t55.5 167q0 69 -25 121t-71 80t-106 28z" />
    <glyph glyph-name="Racute" unicode="&#x154;" horiz-adv-x="677" 
d="M350 777h-41l101 142h54zM74 700h291q94 0 150 -50t56 -132q0 -77 -50.5 -125t-136.5 -52l-2 -1l184 -300q2 -4 7 -5l67 -5v-30h-102q-3 0 -4 3l-198 333h-135v-288q0 -10 11 -11l81 -7v-30h-219v24q0 6 5 6l65 6q10 0 10 11v606q0 11 -10 11l-65 6q-5 0 -5 5v25z
M274 663l-73 -6v-284h165q74 0 116.5 39t42.5 106.5t-42.5 106t-116.5 38.5h-92z" />
    <glyph glyph-name="racute" unicode="&#x155;" horiz-adv-x="426" 
d="M224 577h-41l101 142h54zM343 502q26 6 51 6q5 0 5 -6v-107h-28l-6 67q-1 12 -12 11q-9 -1 -22 -5q-68 -20 -151 -86v-337q0 -10 11 -11l72 -6v-28h-195v23q0 5 5 6l55 4q11 1 11 12v413q0 11 -11 11l-60 3v27l106 6q7 0 7 -6v-84q85 70 162 87z" />
    <glyph glyph-name="Rcommaaccent" unicode="&#x156;" horiz-adv-x="677" 
d="M74 700h291q94 0 150 -50t56 -132q0 -77 -50.5 -125t-136.5 -52l-2 -1l184 -300q2 -4 7 -5l67 -5v-30h-102q-3 0 -4 3l-198 333h-135v-288q0 -10 11 -11l81 -7v-30h-219v25q0 5 5 5l65 6q10 0 10 11v606q0 11 -10 11l-65 6q-5 0 -5 6v24zM274 663l-73 -6v-284h165
q74 0 116.5 39t42.5 106.5t-42.5 106t-116.5 38.5h-92zM334 -56q23 0 31.5 -25.5t0.5 -62.5q-8 -36 -26 -68l-23 7q14 28 18 55q5 26 -3 42h-2q-10 2 -16 9t-6 17t7.5 17.5t18.5 8.5z" />
    <glyph glyph-name="rcommaaccent" unicode="&#x157;" horiz-adv-x="426" 
d="M343 502q26 6 51 6q5 0 5 -6v-107h-28l-6 67q-1 12 -12 11q-9 -1 -22 -5q-68 -20 -151 -86v-337q0 -10 11 -11l72 -6v-28h-195v23q0 5 5 6l55 4q11 1 11 12v413q0 11 -11 11l-60 3v27l106 6q6 0 6 -6v-84q86 70 163 87zM208 -56q23 0 31.5 -25.5t0.5 -62.5
q-7 -36 -26 -68l-22 7q13 28 18 55q4 26 -4 42h-2q-9 2 -15.5 9t-6.5 17t7.5 17.5t18.5 8.5z" />
    <glyph glyph-name="Rcaron" unicode="&#x158;" horiz-adv-x="677" 
d="M367 777h-56l-103 142h41l90 -114l89 114h41zM74 700h291q94 0 150 -50t56 -132q0 -77 -50.5 -125t-136.5 -52l-2 -1l184 -300q2 -4 7 -5l67 -5v-30h-102q-3 0 -4 3l-198 333h-135v-288q0 -10 11 -11l81 -7v-30h-219v25q0 5 5 5l65 6q10 0 10 11v606q0 11 -10 11l-65 6
q-5 0 -5 6v24zM274 663l-73 -6v-284h165q74 0 116.5 39t42.5 106.5t-42.5 106t-116.5 38.5h-92z" />
    <glyph glyph-name="rcaron" unicode="&#x159;" horiz-adv-x="426" 
d="M241 577h-56l-102 142h41l89 -114l89 114h41zM343 502q26 6 51 6q5 0 5 -6v-107h-28l-6 67q-1 12 -12 11q-9 -1 -22 -5q-68 -20 -151 -86v-337q0 -10 11 -11l72 -6v-28h-195v23q0 5 5 6l55 4q11 1 11 12v413q0 11 -11 11l-60 3v27l106 6q6 0 6 -6v-84q86 70 163 87z" />
    <glyph glyph-name="Sacute" unicode="&#x15a;" horiz-adv-x="569" 
d="M296 777h-41l101 142h54zM315 710q91 0 153 -37q3 -1 3 -4v-119h-30l-7 92q0 5 -5 8q-47 24 -114 24q-86 0 -137.5 -34.5t-51.5 -90.5q0 -37 11.5 -59t46.5 -46t113 -63q86 -42 129.5 -73t59.5 -59.5t16 -69.5q0 -85 -72.5 -137t-187.5 -52q-97 0 -172 39q-3 2 -3 5v119
h30l6 -90q1 -6 6 -9q57 -27 136 -27q94 0 150.5 40.5t56.5 107.5q0 35 -12 57t-47 46t-110 62q-70 34 -109 57.5t-61.5 47.5t-29 46t-6.5 56q0 72 66.5 117.5t171.5 45.5z" />
    <glyph glyph-name="sacute" unicode="&#x15b;" horiz-adv-x="442" 
d="M232 577h-41l101 142h54zM252 510q66 0 113 -25q3 -2 3 -5v-105h-25l-7 84q-1 6 -6 9q-32 14 -77 14q-63 0 -100 -24.5t-37 -63.5q0 -37 21 -58.5t99 -60.5q90 -45 118 -74t28 -73q0 -62 -55 -99.5t-142 -37.5q-66 0 -122 23q-3 2 -3 5v104h25l7 -82q1 -6 7 -9
q38 -13 87 -13q71 0 113.5 29t42.5 77q0 36 -22 58t-99 60q-66 33 -96.5 55t-40.5 42t-10 53q0 34 22.5 61t63 41.5t92.5 14.5z" />
    <glyph glyph-name="Scedilla" unicode="&#x15e;" horiz-adv-x="569" 
d="M315 710q91 0 153 -37q3 -1 3 -4v-119h-30l-7 92q0 5 -5 8q-47 24 -114 24q-86 0 -137.5 -34.5t-51.5 -90.5q0 -37 11.5 -59t46.5 -46t113 -63q86 -42 129.5 -73t59.5 -59.5t16 -69.5q0 -30 -9.5 -56.5t-27.5 -47.5t-43 -38t-57 -27.5t-68 -15.5l-17 -50q5 0 16 -2
q29 -5 47 -25.5t17 -46.5q0 -19 -11.5 -36t-31.5 -27t-44 -10q-37 0 -64 22l8 25q24 -19 50 -19q23 0 38.5 12.5t17.5 36.5q0 46 -58 50q-9 0 -22 -2l22 69h-29q-95 0 -166 38q-3 2 -3 5v119h30l6 -90q1 -6 6 -9q57 -27 136 -27q94 0 150.5 40.5t56.5 107.5q0 35 -12 57
t-47 46t-110 62q-70 34 -109 57.5t-61.5 47.5t-29 46t-6.5 56q0 72 66.5 117.5t171.5 45.5z" />
    <glyph glyph-name="scedilla" unicode="&#x15f;" horiz-adv-x="442" 
d="M252 510q66 0 113 -25q3 -2 3 -5v-105h-25l-7 84q-1 6 -6 8q-32 15 -77 15q-63 0 -100 -24.5t-37 -63.5q0 -37 21 -58.5t99 -60.5q62 -31 93 -53t42 -43t11 -51q0 -35 -18.5 -63t-52 -46.5t-78.5 -24.5l-17 -50q6 0 16 -2q29 -5 47 -25.5t18 -46.5q-1 -30 -26 -51.5
t-62 -21.5t-64 22l9 25q23 -19 50 -19q22 0 38 12.5t17 36.5q0 46 -57 50q-9 0 -23 -2l22 70l-21 -1q-64 0 -117 23q-3 2 -3 5v104h25l7 -82q1 -6 7 -9q38 -13 87 -13q71 0 113.5 29t42.5 77q0 36 -22 58t-99 60q-66 33 -96.5 55t-40.5 42t-10 53q0 52 49.5 84.5t128.5 32.5
z" />
    <glyph glyph-name="Scaron" unicode="&#x160;" horiz-adv-x="569" 
d="M313 777h-56l-103 142h41l90 -114l89 114h41zM315 710q91 0 153 -37q3 -1 3 -4v-119h-30l-7 92q0 5 -5 8q-47 24 -114 24q-86 0 -137.5 -34.5t-51.5 -90.5q0 -37 11.5 -59t46.5 -46t113 -63q86 -42 129.5 -73t59.5 -59.5t16 -69.5q0 -85 -72.5 -137t-187.5 -52
q-97 0 -172 39q-3 2 -3 5v119h30l6 -90q1 -6 6 -9q57 -27 136 -27q94 0 150.5 40.5t56.5 107.5q0 35 -12 57t-47 46t-110 62q-70 34 -109 57.5t-61.5 47.5t-29 46t-6.5 56q0 72 66.5 117.5t171.5 45.5z" />
    <glyph glyph-name="scaron" unicode="&#x161;" horiz-adv-x="442" 
d="M249 577h-56l-102 142h41l89 -114l90 114h40zM252 510q66 0 113 -25q3 -2 3 -5v-105h-25l-7 84q-1 6 -6 9q-32 14 -77 14q-63 0 -100 -24.5t-37 -63.5q0 -37 21 -58.5t99 -60.5q90 -45 118 -74t28 -73q0 -62 -55 -99.5t-142 -37.5q-66 0 -122 23q-3 2 -3 5v104h25l7 -82
q1 -6 7 -9q38 -13 87 -13q71 0 113.5 29t42.5 77q0 36 -22 58t-99 60q-66 33 -96.5 55t-40.5 42t-10 53q0 34 22.5 61t63 41.5t92.5 14.5z" />
    <glyph glyph-name="Tcedilla" unicode="&#x162;" horiz-adv-x="640" 
d="M34 700h572q6 0 6 -6v-122h-29l-6 81q-1 11 -12 11h-221v-617q0 -11 10 -11l71 -6v-30h-91l-19 -56q6 0 16 -2q29 -5 47 -25.5t18 -46.5q-1 -30 -26 -51.5t-62 -21.5t-64 22l9 25q23 -19 50 -19q22 0 38 12.5t17 36.5q0 46 -57 50q-9 0 -23 -2l25 78h-88v25q0 5 5 5l66 6
q10 1 10 11v617h-221q-11 0 -12 -11l-6 -81h-29v122q0 6 6 6z" />
    <glyph glyph-name="tcedilla" unicode="&#x163;" horiz-adv-x="376" 
d="M153 500h141v-28l-141 -7l-1 -378q0 -33 19.5 -51t52.5 -18q47 0 67 34l19 -18q-24 -43 -88 -45q-16 0 -24 1l-15 -46q5 0 15 -2q29 -5 47.5 -25.5t17.5 -46.5q0 -19 -11.5 -36t-31.5 -27t-45 -10q-36 0 -63 22l8 25q24 -19 50 -19q23 0 38.5 12.5t17.5 36.5q0 46 -58 50
q-9 0 -22 -2l23 74q-59 22 -59 87l1 382l-62 4q-5 0 -5 5v25h67v126l42 2v-127z" />
    <glyph glyph-name="Tcaron" unicode="&#x164;" horiz-adv-x="640" 
d="M348 777h-56l-102 142h41l89 -114l90 114h40zM34 700h572q6 0 6 -6v-123h-29l-7 82q0 11 -11 11h-221v-617q0 -11 10 -11l71 -6v-30h-210v24q0 6 5 6l66 6q10 1 10 11v617h-221q-11 0 -12 -11l-6 -81h-29v122q0 6 6 6z" />
    <glyph glyph-name="tcaron" unicode="&#x165;" horiz-adv-x="362" 
d="M312 750q15 0 24.5 -12t10.5 -31.5t-3 -44.5q-8 -36 -26 -69l-23 8q14 29 18 55q5 27 -3 42h-2q-10 1 -16 8.5t-6 17.5q0 6 3.5 12t9.5 10t13 4zM153 500h141v-28l-141 -7l-1 -378q0 -33 19.5 -51t52.5 -18q47 0 67 34l19 -18q-26 -46 -94 -46q-48 0 -77 26t-29 69l1 382
l-62 4q-5 0 -5 5v25h67v126l42 2v-127z" />
    <glyph glyph-name="Tbar" unicode="&#x166;" horiz-adv-x="640" 
d="M612 572l-29 -1l-6 82q-1 11 -12 11h-221v-297h108v-34h-108v-286q0 -11 10 -11l71 -6v-30h-210v24q0 6 5 6l66 6q10 1 10 11v286h-108v34h108v297h-221q-11 0 -12 -11l-6 -81h-29v122q0 6 6 6h572q6 0 6 -6v-122z" />
    <glyph glyph-name="tbar" unicode="&#x167;" horiz-adv-x="376" 
d="M291 52l19 -18q-26 -46 -94 -46q-48 0 -77 26t-29 69l1 210h-67v33h67v139l-62 4q-5 0 -5 5v25h67v126l42 2v-127h141v-28l-141 -7v-139h141v-33h-141l-1 -206q0 -33 19.5 -51t52.5 -18q47 0 67 34z" />
    <glyph glyph-name="Utilde" unicode="&#x168;" horiz-adv-x="833" 
d="M511 864l34 -7q-6 -28 -23 -45.5t-41 -19.5q-26 -3 -66 16q-7 4 -22.5 12t-25 12t-15.5 4q-9 1 -16.5 -8.5t-14.5 -35.5l-33 8q13 64 57 66q7 0 14.5 -1.5t17 -5.5t14 -6t16.5 -8t13 -7q37 -18 55 -16q23 3 36 42zM764 670l-70 -6q-10 -1 -10 -11v-381q0 -127 -73 -204.5
t-192 -77.5t-192 77.5t-73 204.5v381q0 10 -10 11l-65 6q-5 0 -5 5v25h220v-30l-81 -7q-10 -1 -10 -11v-380q0 -113 59.5 -179t158.5 -66q100 0 162.5 66t62.5 179v379q0 11 -11 11l-87 8v30h216v-30z" />
    <glyph glyph-name="utilde" unicode="&#x169;" horiz-adv-x="690" 
d="M440 664l34 -7q-5 -28 -22.5 -45.5t-41.5 -19.5q-26 -3 -65 16q-8 4 -23.5 12t-24.5 12t-16 4q-9 1 -16.5 -8.5t-13.5 -35.5l-34 8q13 64 57 66q5 0 10.5 -1t11.5 -3t11 -3.5t11.5 -4.5t10.5 -5t10.5 -5.5t9.5 -5.5q37 -18 55 -16q23 3 36 42zM59 500h118q6 0 6 -6v-334
q0 -48 16 -80t43 -45.5t66 -13.5q94 0 211 73v360q0 11 -10 12l-73 6v28h119q6 0 6 -6v-452q0 -11 11 -11l60 -4v-26l-107 -6q-2 -1 -4 1t-2 5v65q-122 -76 -224 -76q-46 0 -80 17t-54 54.5t-20 93.5v299q0 11 -11 12l-71 6v28z" />
    <glyph glyph-name="Umacron" unicode="&#x16a;" horiz-adv-x="833" 
d="M548 809h-264v33h264v-33zM764 670l-70 -6q-10 -1 -10 -11v-381q0 -127 -73 -204.5t-192 -77.5q-79 0 -139 35t-93 99t-33 148v381q0 10 -10 11l-65 6q-5 0 -5 5v25h220v-30l-81 -7q-10 -1 -10 -11v-380q0 -113 59.5 -179t158.5 -66q100 0 162.5 66t62.5 179v379
q0 11 -11 11l-87 8v30h216v-30z" />
    <glyph glyph-name="umacron" unicode="&#x16b;" horiz-adv-x="690" 
d="M477 609h-264v33h264v-33zM59 500h118q6 0 6 -6v-334q0 -72 33 -105.5t92 -33.5q93 0 211 73v360q0 11 -10 12l-73 6v28h119q6 0 6 -6v-452q0 -11 11 -11l60 -4v-26l-107 -6q-2 -1 -4 1t-2 5v65q-122 -76 -224 -76q-34 0 -62 9.5t-48.5 29.5t-32 52t-11.5 74v299
q0 11 -11 12l-71 6v28z" />
    <glyph glyph-name="Uring" unicode="&#x16e;" horiz-adv-x="833" 
d="M416.5 940q39.5 0 67 -28t27.5 -67.5t-27.5 -67.5t-67.5 -28q-26 0 -48 13t-34.5 35t-12.5 48q0 39 28 67t67.5 28zM416 913q-16 0 -30.5 -8.5t-23 -24.5t-8.5 -35q0 -30 18.5 -49.5t44 -19.5t44 19.5t18.5 49t-18.5 49t-44.5 19.5zM764 670l-70 -6q-10 -1 -10 -11v-381
q0 -127 -73 -204.5t-192 -77.5t-192 77.5t-73 204.5v381q0 10 -10 11l-65 6q-5 0 -5 5v25h220v-30l-81 -7q-10 -1 -10 -11v-380q0 -113 59.5 -179t158.5 -66q100 0 162.5 66t62.5 179v379q0 11 -11 11l-87 8v30h216v-30z" />
    <glyph glyph-name="uring" unicode="&#x16f;" horiz-adv-x="690" 
d="M345.5 740q39.5 0 67.5 -28t28 -67.5t-28 -67.5t-68 -28q-26 0 -47.5 13t-34.5 35t-13 48q0 39 28 67t67.5 28zM345 713q-16 0 -30.5 -8.5t-23 -24.5t-8.5 -35q0 -30 18.5 -49.5t44 -19.5t44 19.5t18.5 49t-18.5 49t-44.5 19.5zM59 500h118q6 0 6 -6v-334q0 -48 16 -80
t43 -45.5t66 -13.5q94 0 211 73v360q0 11 -10 12l-73 6v28h119q6 0 6 -6v-452q0 -11 11 -11l60 -4v-26l-107 -6q-2 -1 -4 1t-2 5v65q-122 -76 -224 -76q-46 0 -80 17t-54 54.5t-20 93.5v299q0 11 -11 12l-71 6v28z" />
    <glyph glyph-name="Uhungarumlaut" unicode="&#x170;" horiz-adv-x="833" 
d="M366 777h-40l98 142h54zM497 777h-41l99 142h54zM764 670l-70 -6q-10 -1 -10 -11v-381q0 -127 -73 -204.5t-192 -77.5t-192 77.5t-73 204.5v381q0 10 -10 11l-65 6q-5 0 -5 5v25h220v-30l-81 -7q-10 -1 -10 -11v-380q0 -113 59.5 -179t158.5 -66q100 0 162.5 66t62.5 179
v379q0 11 -11 11l-87 8v30h216v-30z" />
    <glyph glyph-name="uhungarumlaut" unicode="&#x171;" horiz-adv-x="690" 
d="M296 577h-41l98 142h54zM426 577h-40l98 142h54zM59 500h118q6 0 6 -6v-334q0 -48 16 -80t43 -45.5t66 -13.5q94 0 211 73v360q0 11 -10 12l-73 6v28h119q6 0 6 -6v-452q0 -11 11 -11l60 -4v-26l-107 -6q-2 -1 -4 1t-2 5v65q-122 -76 -224 -76q-71 0 -112.5 41t-41.5 124
v299q0 11 -11 12l-71 6v28z" />
    <glyph glyph-name="Uogonek" unicode="&#x172;" horiz-adv-x="833" 
d="M294 670l-81 -7q-10 -1 -10 -11v-380q0 -113 59.5 -179t158.5 -66q100 0 162.5 66t62.5 179v379q0 11 -11 11l-87 8v30h216v-30l-70 -6q-10 -1 -10 -11v-381q0 -97 -44 -167t-121 -98q-74 -43 -74 -106q0 -19 6.5 -33t18 -22t27.5 -8q21 -1 58 19l8 -29q-38 -20 -72 -20
q-37 0 -59 24t-23 60q-1 57 47 101q-19 -3 -39 -3q-120 1 -191.5 78t-71.5 204v381q0 10 -10 11l-65 6q-5 0 -5 5v25h220v-30z" />
    <glyph glyph-name="uogonek" unicode="&#x173;" horiz-adv-x="690" 
d="M59 500h118q6 0 6 -6v-334q0 -72 33 -105.5t92 -33.5q94 0 211 73v360q0 11 -10 12l-73 6v28h119q6 0 6 -6v-452q0 -11 11 -11l60 -4v-26l-77 -5q-58 -39 -58 -95q0 -29 14.5 -46t37.5 -17q24 -2 58 19l8 -29q-38 -22 -71 -20q-38 0 -60 24t-23 60q-1 64 58 109v65
q-122 -76 -224 -76q-71 0 -112.5 41t-41.5 124v299q0 11 -11 12l-71 6v28z" />
    <glyph glyph-name="Wcircumflex" unicode="&#x174;" horiz-adv-x="1097" 
d="M678 777h-41l-89 114l-90 -114h-40l102 142h56zM1069 670l-58 -5l-199 -664l-37 -1l-229 627l-231 -626l-37 -1l-196 659q-2 6 -9 7l-40 4q-5 0 -5 5v25h95l180 -626l209 573q2 6 -1 11t-10 6l-77 7q-5 0 -5 5v24h154l223 -625l169 573q2 6 -1.5 10.5t-9.5 5.5l-80 7
q-5 0 -5 5v24h200v-30z" />
    <glyph glyph-name="wcircumflex" unicode="&#x175;" horiz-adv-x="856" 
d="M558 577h-40l-90 114l-89 -114h-41l102 142h56zM837 472l-54 -5l-170 -467h-38l-151 420l-153 -420h-38l-165 461q-2 6 -9 7l-35 3q-5 1 -5 6v23h79l158 -451l144 400q3 6 -0.5 11t-10.5 6l-71 6q-5 0 -5 5v23h127l158 -451l144 400q2 6 -1 11t-10 6l-72 6q-5 0 -5 5v23
h183v-28z" />
    <glyph glyph-name="Ycircumflex" unicode="&#x176;" horiz-adv-x="682" 
d="M471 777h-40l-90 114l-89 -114h-41l102 142h56zM654 670l-52 -5l-233 -414v-204q0 -10 10 -11l72 -6v-30h-211v24q0 6 5 6l66 6q11 1 11 11v197l-236 417q-3 4 -8 5l-45 4q-5 0 -5 5v25h88l233 -408l198 352q4 7 1 13t-11 7l-76 7q-5 0 -5 5v24h198v-30z" />
    <glyph glyph-name="ycircumflex" unicode="&#x177;" horiz-adv-x="555" 
d="M410 577h-41l-89 114l-90 -114h-40l102 142h56zM536 472l-55 -5l-262 -658q-2 -3 -5 -3h-121v28l98 8q6 0 8 6l59 148h-9l-184 465q-2 6 -8 7l-33 3q-5 1 -5 6v23h76l180 -462l163 410q3 6 -0.5 11.5t-10.5 6.5l-72 6q-5 0 -5 5v23h186v-28z" />
    <glyph glyph-name="Ydieresis" unicode="&#x178;" horiz-adv-x="682" 
d="M267 865q12 0 20.5 -8.5t8.5 -20.5t-8.5 -20.5t-20.5 -8.5t-20.5 8.5t-8.5 20.5q0 8 4 14.5t10.5 10.5t14.5 4zM415 865q12 0 20.5 -8.5t8.5 -20.5t-8.5 -20.5t-20.5 -8.5t-20 8.5t-8 20.5t8 20.5t20 8.5zM654 670l-52 -5l-233 -414v-204q0 -10 10 -11l72 -6v-30h-211v24
q0 6 5 6l66 6q11 1 11 11v197l-236 417q-3 4 -8 5l-45 4q-5 0 -5 5v25h88l233 -408l198 352q4 7 1 13t-11 7l-76 7q-5 0 -5 5v24h198v-30z" />
    <glyph glyph-name="Zacute" unicode="&#x179;" horiz-adv-x="585" 
d="M303 777h-41l101 142h54zM544 670l-444 -633h401q11 0 11 10l6 80h30v-121q0 -6 -6 -6h-505v29l445 634h-373q-10 0 -11 -10l-6 -79h-30v120q0 6 6 6h476v-30z" />
    <glyph glyph-name="zacute" unicode="&#x17a;" horiz-adv-x="502" 
d="M262 577h-41l101 142h54zM434 478l-324 -450h289q10 0 11 11l6 72h25v-105q0 -6 -5 -6h-377v22l325 450h-266q-10 0 -11 -11l-6 -72h-25l-1 105q0 6 6 6h353v-22z" />
    <glyph glyph-name="Zdotaccent" unicode="&#x17b;" horiz-adv-x="585" 
d="M292 865q12 0 20.5 -8.5t8.5 -20.5t-8.5 -20.5t-20.5 -8.5t-20 8.5t-8 20.5q0 8 3.5 14.5t10 10.5t14.5 4zM544 670l-444 -633h401q11 0 11 10l6 80h30v-121q0 -6 -6 -6h-505v29l445 634h-373q-10 0 -11 -10l-6 -79h-30v120q0 6 6 6h476v-30z" />
    <glyph glyph-name="zdotaccent" unicode="&#x17c;" horiz-adv-x="502" 
d="M251 665q12 0 20.5 -8.5t8.5 -20.5t-8.5 -20.5t-20.5 -8.5q-8 0 -14.5 4t-10 10.5t-3.5 14.5q0 12 8 20.5t20 8.5zM434 478l-324 -450h289q10 0 11 11l6 72h25v-105q0 -6 -5 -6h-377v22l325 450h-266q-10 0 -11 -11l-6 -72h-26v105q0 6 6 6h353v-22z" />
    <glyph glyph-name="Zcaron" unicode="&#x17d;" horiz-adv-x="585" 
d="M320 777h-56l-102 142h41l89 -114l90 114h41zM544 670l-444 -633h401q11 0 11 10l6 80h30v-121q0 -6 -6 -6h-505v29l445 634h-373q-10 0 -11 -10l-6 -79h-30v120q0 6 6 6h476v-30z" />
    <glyph glyph-name="zcaron" unicode="&#x17e;" horiz-adv-x="502" 
d="M279 577h-56l-102 142h41l89 -114l90 114h40zM434 478l-324 -450h289q10 0 11 11l6 72h25v-105q0 -6 -5 -6h-377v22l325 450h-266q-10 0 -11 -11l-6 -72h-26v105q0 6 6 6h353v-22z" />
    <glyph glyph-name="longs" unicode="&#x17f;" horiz-adv-x="416" 
d="M298 750q69 -1 126 -39l-15 -26q-52 33 -107 33q-35 0 -62.5 -13t-45 -41.5t-17.5 -69.5v-549q0 -10 11 -11l73 -6v-28h-189v23q0 5 5 6l48 4q10 1 10 11v421l-62 4q-6 0 -6 5v26h68v96q0 74 47 114t116 40z" />
    <glyph glyph-name="florin" unicode="&#x192;" horiz-adv-x="424" 
d="M306 750q69 -1 127 -39l-15 -26q-53 33 -108 33q-53 0 -88.5 -32t-35.5 -92v-176h149v-27l-149 -8v-480q0 -46 -33 -72q-35 -27 -86 -19l5 26q36 0 54 19q18 17 18 49v477l-63 4q-5 0 -5 5v26h68v178q0 74 47 114t115 40z" />
    <glyph glyph-name="Ohorn" unicode="&#x1a0;" horiz-adv-x="783" 
d="M696 830l37 13q32 -59 27 -114q-3 -30 -17 -52.5t-40.5 -36t-61.5 -13.5q-13 0 -25 2q26 -24 47 -54t35 -65t21.5 -75.5t7.5 -84.5q0 -161 -92.5 -260.5t-243.5 -99.5t-243 99.5t-92 260.5t92 260t243 99q94 0 167 -41q32 -16 67 -16q87 0 95 77q5 48 -24 101zM391.5 672
q-129.5 0 -208 -87.5t-78.5 -234.5q0 -98 35.5 -171t100.5 -112.5t150 -39.5q130 0 208.5 87.5t78.5 235t-78.5 235t-208 87.5z" />
    <glyph glyph-name="ohorn" unicode="&#x1a1;" 
d="M546 633l32 11q33 -59 27 -114q-4 -45 -34.5 -72.5t-84.5 -28.5q59 -70 59 -179q0 -116 -67 -188t-178 -72t-178 72t-67 188t67 188t178 72q97 0 162 -57q8 -1 17 -1q41 1 64 22t27 56q6 49 -24 103zM300 479q-91 0 -146.5 -62t-55.5 -167t55.5 -167t146.5 -62t147 62
t56 167t-56 167t-147 62z" />
    <glyph glyph-name="Uhorn" unicode="&#x1af;" horiz-adv-x="837" 
d="M753 832l26 16q36 -27 48 -62q6 -15 5.5 -30t-6 -28t-17 -25t-29.5 -20q-19 -9 -42 -11l-45 -4q-9 -1 -9 -11v-385q0 -127 -73 -204.5t-192 -77.5q-79 0 -139 35t-93 99t-33 148v381q0 11 -10 11l-65 6q-5 0 -5 5v25h220v-30l-81 -7q-10 -1 -10 -11v-380
q0 -113 59.5 -179t158.5 -66q100 0 162.5 66.5t62.5 178.5v379q0 11 -11 12l-87 7v30h191q10 2 22 7q23 11 30.5 31.5t-0.5 41.5q-10 31 -38 52z" />
    <glyph glyph-name="uhorn" unicode="&#x1b0;" horiz-adv-x="690" 
d="M591 639l24 14q39 -28 49 -67q9 -31 -3.5 -57.5t-47.5 -42.5q-24 -10 -52 -10v-434q0 -11 11 -11l60 -4v-26l-107 -6q-2 -1 -4 1t-2 5v65q-122 -76 -224 -76q-71 0 -112.5 41t-41.5 124v299q0 11 -11 12l-71 6v28h118q6 0 6 -6v-334q0 -72 33 -105.5t92 -33.5
q94 0 211 73v360q0 11 -10 12l-73 6v28h112q26 -2 48 8q25 12 34 32t2 43q-10 32 -41 56z" />
    <glyph glyph-name="DZcaron" unicode="&#x1c4;" horiz-adv-x="1341" 
d="M1076 777h-56l-102 142h40l90 -114l89 114h41zM74 700h290q152 0 244 -95t92 -255t-92 -255t-244 -95h-290v25q0 5 5 5l65 6q10 0 10 11v606q0 11 -10 11l-65 6q-5 0 -5 6v24zM1300 670l-444 -633h401q10 0 11 10l6 80h29v-121q0 -6 -5 -6h-505v29l444 634h-372
q-11 0 -12 -10l-6 -79h-29v120q0 6 6 6h475zM273 663l-72 -6v-614l73 -6h90q131 0 209 83t78 229.5t-78 230t-209 83.5h-91z" />
    <glyph glyph-name="Dzcaron" unicode="&#x1c5;" horiz-adv-x="1257" 
d="M1035 577h-56l-103 142h41l90 -114l89 114h41zM74 700h290q152 0 244 -95t92 -255t-92 -255t-244 -95h-290v25q0 5 5 5l65 6q10 0 10 11v606q0 11 -10 11l-65 6q-5 0 -5 6v24zM273 663l-72 -6v-614l73 -6h90q131 0 209 83t78 229.5t-78 230t-209 83.5h-91zM1190 478
l-324 -450h289q10 0 11 11l6 72h25v-105q0 -6 -6 -6h-376v22l324 450h-265q-11 0 -12 -11l-6 -72h-25v105q0 6 6 6h353v-22z" />
    <glyph glyph-name="dzcaron" unicode="&#x1c6;" horiz-adv-x="1150" 
d="M387 744l107 6q6 0 6 -6v-699q0 -10 10 -11l71 -6v-28h-113q-6 0 -6 6l-1 58q-65 -74 -173 -74q-105 0 -169 70.5t-64 190.5q0 113 62 186t171 73q106 0 170 -72v265q0 11 -11 11l-60 3v27zM928 577h-56l-102 142h40l90 -114l89 114h41zM1083 478l-324 -450h289
q10 0 11 11l6 72h25v-105q0 -6 -6 -6h-376v22l324 450h-265q-11 0 -12 -11l-6 -72h-25v105q0 6 6 6h353v-22zM297 479q-90 0 -144.5 -62t-54.5 -166.5t55.5 -166.5t146.5 -62q103 0 158 78v297q-55 82 -161 82z" />
    <glyph glyph-name="LJ" unicode="&#x1c7;" horiz-adv-x="934" 
d="M293 670l-81 -7q-11 -1 -11 -11v-615h282q11 0 12 10l6 82h29v-123q0 -6 -6 -6h-450v25q0 5 5 5l65 6q10 0 10 11v606q0 11 -10 11l-65 6q-5 0 -5 6v24h219v-30zM860 670l-69 -5q-11 -1 -11 -12v-617q0 -88 -46 -151t-128 -86l-11 28q63 22 100 77t37 132v616
q0 10 -10 11l-77 7q-5 0 -5 5v25h220v-30z" />
    <glyph glyph-name="Lj" unicode="&#x1c8;" horiz-adv-x="823" 
d="M723.5 707q12.5 0 21 -8.5t8.5 -21t-8.5 -21.5t-21 -9t-21 9t-8.5 21.5t8.5 21t21 8.5zM293 670l-81 -7q-11 -1 -11 -11v-615h282q11 0 12 10l6 82h29v-123q0 -6 -6 -6h-450v25q0 5 5 5l65 6q10 0 10 11v606q0 11 -10 11l-65 6q-5 0 -5 6v24h219v-30zM633 499l106 6
q7 0 7 -6v-596q0 -44 -29 -70.5t-78 -26.5q-47 0 -76 25l16 23q19 -17 53 -17q22 0 38 8t25 23.5t9 37.5v552q0 11 -11 11l-60 3v27z" />
    <glyph glyph-name="lj" unicode="&#x1c9;" horiz-adv-x="587" 
d="M74 744l106 6q6 0 6 -6v-699q0 -10 11 -11l75 -6v-28h-195v23q0 5 5 6l52 4q10 1 10 12v658q0 10 -11 11l-59 3v27zM487.5 707q12.5 0 21 -8.5t8.5 -21t-8.5 -21.5t-21 -9t-21.5 9t-9 21.5t9 21t21.5 8.5zM397 499l106 6q6 0 6 -6v-596q1 -44 -28 -70.5t-78 -26.5
q-47 0 -76 25l16 23q19 -17 53 -17q33 0 52.5 18t19.5 51l-1 552q0 11 -10 11l-60 3v27z" />
    <glyph glyph-name="NJ" unicode="&#x1ca;" horiz-adv-x="1215" 
d="M780 670l-70 -6q-11 0 -11 -11v-653h-44l-461 623v-575q0 -10 10 -11l80 -7v-30h-215v24q0 6 5 6l65 6q10 0 10 11v606q0 11 -10 11l-65 6q-5 0 -5 5v25h123l463 -626v578q0 11 -11 11l-75 7q-5 0 -5 5v25h216v-30zM1142 670l-70 -5q-10 -1 -10 -12v-617q0 -88 -46 -151
t-128 -86l-12 28q64 22 101 77t37 132v616q0 10 -10 11l-77 7q-5 0 -5 5v25h220v-30z" />
    <glyph glyph-name="Nj" unicode="&#x1cb;" horiz-adv-x="1105" 
d="M1005 707q12 0 21 -8.5t9 -21t-9 -21.5t-21 -9t-21 9t-9 21.5t9 21t21 8.5zM780 670l-70 -6q-11 0 -11 -11v-653h-44l-461 623v-575q0 -10 10 -11l80 -7v-30h-215v24q0 6 5 6l65 6q10 0 10 11v606q0 11 -10 11l-65 6q-5 0 -5 5v25h123l463 -626v578q0 10 -11 11l-75 7
q-5 0 -5 5v25h216v-30zM915 499l106 6q6 0 6 -6v-596q0 -44 -28.5 -70.5t-77.5 -26.5q-47 0 -76 25l15 23q20 -17 54 -17q16 0 29.5 4.5t22.5 13t14 21.5t5 30v552q0 11 -11 11l-59 3v27z" />
    <glyph glyph-name="nj" unicode="&#x1cc;" horiz-adv-x="956" 
d="M856.5 707q12.5 0 21 -8.5t8.5 -21t-8.5 -21.5t-21 -9t-21.5 9t-9 21.5t9 21t21.5 8.5zM405 510q70 0 112 -41t42 -125v-299q0 -10 10 -11l72 -6v-28h-118q-6 0 -6 6v333q0 72 -33.5 106t-91.5 34q-94 0 -211 -74v-360q0 -10 10 -11l72 -6v-28h-195v23q0 5 5 6l55 4
q11 1 11 12v413q0 10 -11 11l-60 3v27l106 6q7 0 7 -6v-65q122 76 224 76zM766 499l106 6q6 0 6 -6v-596q1 -44 -28 -70.5t-78 -26.5q-47 0 -76 25l16 23q19 -17 53 -17q33 0 52.5 18t19.5 51v552q0 11 -11 11l-60 3v27z" />
    <glyph glyph-name="Acaron" unicode="&#x1cd;" horiz-adv-x="760" 
d="M408 777h-55l-103 142h41l89 -114l90 114h41zM676 35l56 -5v-30h-205v24q0 5 5 5l73 7q7 0 10 5.5t1 11.5l-68 164h-347l-74 -180l91 -7v-30h-190v25q0 5 5 5l46 4q6 1 8 7l272 658l41 2zM216 254h318l-159 387z" />
    <glyph glyph-name="acaron" unicode="&#x1ce;" horiz-adv-x="563" 
d="M287 577h-56l-102 142h40l90 -114l89 114h41zM256 510q73 0 120 -41t47 -129v-295q0 -10 10 -11l71 -6v-28h-113q-6 0 -6 5l-1 59q-65 -74 -172 -74q-47 0 -83 16.5t-55.5 46t-19.5 68.5q0 56 37 84t125 52l165 44v39q0 74 -35 106.5t-93 32.5q-64 -1 -127 -35
q-5 -3 -6 -8l-7 -85h-25v105q0 3 2 4q78 49 166 50zM381 273l-155 -42q-73 -20 -101 -41.5t-28 -65.5q0 -47 33.5 -74.5t91.5 -27.5q99 0 155 74l4 5v172z" />
    <glyph glyph-name="Icaron" unicode="&#x1cf;" horiz-adv-x="358" 
d="M207 777h-56l-102 142h41l89 -114l90 114h40zM284 670l-71 -6q-11 -1 -11 -11v-606q0 -11 11 -11l71 -6v-30h-210v24q0 6 5 6l66 6q10 0 10 11v606q0 10 -10 11l-66 6q-5 0 -5 5v25h210v-30z" />
    <glyph glyph-name="icaron" unicode="&#x1d0;" horiz-adv-x="341" 
d="M190 577h-56l-102 142h41l89 -114l89 114h41zM74 499l106 6q6 0 6 -6v-454q0 -10 11 -11l75 -6v-28h-198v23q0 5 5 6l55 4q10 1 10 12v413q0 11 -11 11l-59 3v27z" />
    <glyph glyph-name="Ocaron" unicode="&#x1d1;" horiz-adv-x="783" 
d="M419 777h-56l-102 142h41l89 -114l90 114h41zM391.5 709q151.5 0 243.5 -99t92 -260t-92.5 -260.5t-243.5 -99.5t-243 99.5t-92 260.5t92 260t243.5 99zM391 672q-85 0 -150 -39t-100.5 -112t-35.5 -171t35.5 -171t100.5 -112.5t150 -39.5q130 0 208.5 87.5t78.5 235
t-78.5 235t-208.5 87.5z" />
    <glyph glyph-name="ocaron" unicode="&#x1d2;" 
d="M328 577h-56l-102 142h41l89 -114l90 114h40zM300 510q55 0 101 -19t77.5 -53t49 -82.5t17.5 -105.5q0 -116 -67 -188t-178 -72t-178 72t-67 188t67 188t178 72zM300 479q-60 0 -106 -28t-71 -80t-25 -121q0 -105 55.5 -167t146.5 -62t146.5 62t55.5 167q0 69 -25 121
t-71 80t-106 28z" />
    <glyph glyph-name="Ucaron" unicode="&#x1d3;" horiz-adv-x="833" 
d="M444 777h-56l-102 142h41l89 -114l90 114h41zM764 670l-70 -6q-10 -1 -10 -11v-381q0 -127 -73 -204.5t-192 -77.5t-192 77.5t-73 204.5v381q0 10 -10 11l-65 6q-5 0 -5 5v25h220v-30l-81 -7q-10 -1 -10 -11v-380q0 -113 59.5 -179t158.5 -66q100 0 162.5 66t62.5 179
v379q0 11 -11 11l-87 8v30h216v-30z" />
    <glyph glyph-name="ucaron" unicode="&#x1d4;" horiz-adv-x="690" 
d="M373 577h-55l-103 142h41l89 -114l90 114h41zM59 500h118q6 0 6 -6v-334q0 -48 16 -80t43 -45.5t65 -13.5q95 0 212 73v360q0 11 -10 12l-73 6v28h119q6 0 6 -6v-452q0 -11 11 -11l60 -4v-26l-107 -6q-2 -1 -4 1t-2 5v65q-122 -76 -224 -76q-71 0 -112.5 41t-41.5 124
v299q0 11 -11 12l-71 6v28z" />
    <glyph glyph-name="Udieresismacron" unicode="&#x1d5;" horiz-adv-x="833" 
d="M548 971h-264v33h264v-33zM342 865q12 0 20.5 -8.5t8.5 -20.5t-8.5 -20.5t-20.5 -8.5q-8 0 -14.5 4t-10 10.5t-3.5 14.5q0 12 8 20.5t20 8.5zM490 865q12 0 20.5 -8.5t8.5 -20.5t-8.5 -20.5t-20.5 -8.5t-20 8.5t-8 20.5q0 8 3.5 14.5t10 10.5t14.5 4zM764 670l-70 -6
q-10 -1 -10 -11v-381q0 -127 -73 -204.5t-192 -77.5t-192 77.5t-73 204.5v381q0 10 -10 11l-65 6q-5 0 -5 5v25h220v-30l-81 -7q-10 -1 -10 -11v-380q0 -113 59.5 -179t158.5 -66q100 0 162.5 66t62.5 179v379q0 11 -11 11l-87 8v30h216v-30z" />
    <glyph glyph-name="udieresismacron" unicode="&#x1d6;" horiz-adv-x="690" 
d="M477 740h-264v33h264v-33zM271 665q12 0 20.5 -8.5t8.5 -20.5t-8.5 -20.5t-20.5 -8.5q-8 0 -14.5 4t-10 10.5t-3.5 14.5q0 12 8 20.5t20 8.5zM419 665q12 0 20.5 -8.5t8.5 -20.5t-8.5 -20.5t-20.5 -8.5t-20 8.5t-8 20.5t8 20.5t20 8.5zM59 500h118q6 0 6 -6v-334
q0 -48 16 -80t43 -45.5t66 -13.5q94 0 211 73v360q0 11 -10 12l-73 6v28h119q6 0 6 -6v-452q0 -11 11 -11l60 -4v-26l-107 -6q-2 -1 -4 1t-2 5v65q-122 -76 -224 -76q-46 0 -80 17t-54 54.5t-20 93.5v299q0 11 -11 12l-71 6v28z" />
    <glyph glyph-name="Udieresisacute" unicode="&#x1d7;" horiz-adv-x="833" 
d="M427 922h-41l101 142h54zM342 865q12 0 20.5 -8.5t8.5 -20.5t-8.5 -20.5t-20.5 -8.5t-20 8.5t-8 20.5q0 8 3.5 14.5t10 10.5t14.5 4zM490 865q12 0 20.5 -8.5t8.5 -20.5t-8.5 -20.5t-20.5 -8.5t-20 8.5t-8 20.5t8 20.5t20 8.5zM764 670l-70 -6q-10 -1 -10 -11v-381
q0 -127 -73 -204.5t-192 -77.5q-79 0 -139 35t-93 99t-33 148v381q0 10 -10 11l-65 6q-5 0 -5 5v25h220v-30l-81 -7q-10 -1 -10 -11v-380q0 -113 59.5 -179t158.5 -66q100 0 162.5 66t62.5 179v379q0 11 -11 11l-87 8v30h216v-30z" />
    <glyph glyph-name="udieresisacute" unicode="&#x1d8;" horiz-adv-x="690" 
d="M356 707h-40l101 142h54zM271 665q12 0 20.5 -8.5t8.5 -20.5t-8.5 -20.5t-20.5 -8.5q-8 0 -14.5 4t-10 10.5t-3.5 14.5q0 12 8 20.5t20 8.5zM419 665q12 0 20.5 -8.5t8.5 -20.5t-8.5 -20.5t-20.5 -8.5t-20 8.5t-8 20.5t8 20.5t20 8.5zM59 500h118q6 0 6 -6v-334
q0 -48 16 -80t43 -45.5t66 -13.5q94 0 211 73v360q0 11 -10 12l-73 6v28h119q6 0 6 -6v-452q0 -11 11 -11l60 -4v-26l-107 -6q-2 -1 -4 1t-2 5v65q-122 -76 -224 -76q-46 0 -80 17t-54 54.5t-20 93.5v299q0 11 -11 12l-71 6v28z" />
    <glyph glyph-name="Udieresiscaron" unicode="&#x1d9;" horiz-adv-x="833" 
d="M444 922h-56l-102 142h41l89 -114l90 114h41zM342 865q12 0 20.5 -8.5t8.5 -20.5t-8.5 -20.5t-20.5 -8.5t-20 8.5t-8 20.5q0 8 3.5 14.5t10 10.5t14.5 4zM490 865q12 0 20.5 -8.5t8.5 -20.5t-8.5 -20.5t-20.5 -8.5t-20 8.5t-8 20.5q0 8 3.5 14.5t10 10.5t14.5 4zM764 670
l-70 -6q-10 -1 -10 -11v-381q0 -127 -73 -204.5t-192 -77.5q-79 0 -139 35t-93 99t-33 148v381q0 10 -10 11l-65 6q-5 0 -5 5v25h220v-30l-81 -7q-10 -1 -10 -11v-380q0 -113 59.5 -179t158.5 -66q100 0 162.5 66t62.5 179v379q0 11 -11 11l-87 8v30h216v-30z" />
    <glyph glyph-name="udieresiscaron" unicode="&#x1da;" horiz-adv-x="690" 
d="M373 707h-55l-103 142h41l89 -114l90 114h41zM271 665q12 0 20.5 -8.5t8.5 -20.5t-8.5 -20.5t-20.5 -8.5t-20 8.5t-8 20.5q0 8 3.5 14.5t10 10.5t14.5 4zM419 665q12 0 20.5 -8.5t8.5 -20.5t-8.5 -20.5t-20.5 -8.5t-20 8.5t-8 20.5t8 20.5t20 8.5zM59 500h118q6 0 6 -6
v-334q0 -72 33 -105.5t92 -33.5q93 0 211 73v360q0 11 -10 12l-73 6v28h119q6 0 6 -6v-452q0 -11 11 -11l60 -4v-26l-107 -6q-2 -1 -4 1t-2 5v65q-122 -76 -224 -76q-71 0 -112.5 41t-41.5 124v299q0 11 -11 12l-71 6v28z" />
    <glyph glyph-name="Udieresisgrave" unicode="&#x1db;" horiz-adv-x="833" 
d="M446 922h-41l-114 142h54zM342 865q12 0 20.5 -8.5t8.5 -20.5t-8.5 -20.5t-20.5 -8.5t-20 8.5t-8 20.5t8 20.5t20 8.5zM490 865q12 0 20.5 -8.5t8.5 -20.5t-8.5 -20.5t-20.5 -8.5t-20 8.5t-8 20.5t8 20.5t20 8.5zM764 670l-70 -6q-10 -1 -10 -11v-381q0 -127 -73 -204.5
t-192 -77.5q-79 0 -139 35t-93 99t-33 148v381q0 10 -10 11l-65 6q-5 0 -5 5v25h220v-30l-81 -7q-10 -1 -10 -11v-380q0 -113 59.5 -179t158.5 -66q100 0 162.5 66t62.5 179v379q0 11 -11 11l-87 8v30h216v-30z" />
    <glyph glyph-name="udieresisgrave" unicode="&#x1dc;" horiz-adv-x="690" 
d="M375 707h-41l-114 142h54zM271 665q12 0 20.5 -8.5t8.5 -20.5t-8.5 -20.5t-20.5 -8.5t-20 8.5t-8 20.5q0 8 3.5 14.5t10 10.5t14.5 4zM419 665q12 0 20.5 -8.5t8.5 -20.5t-8.5 -20.5t-20.5 -8.5t-20 8.5t-8 20.5q0 8 3.5 14.5t10.5 10.5t14 4zM59 500h118q6 0 6 -6v-334
q0 -72 33 -105.5t92 -33.5q93 0 211 73v360q0 11 -10 12l-73 6v28h119q6 0 6 -6v-452q0 -11 11 -11l60 -4v-26l-107 -6q-2 -1 -4 1t-2 5v65q-122 -76 -224 -76q-71 0 -112.5 41t-41.5 124v299q0 11 -11 12l-71 6v28z" />
    <glyph glyph-name="Adieresismacron" unicode="&#x1de;" horiz-adv-x="760" 
d="M512 894h-264v33h264v-33zM306 834q12 0 20.5 -8.5t8.5 -20t-8.5 -20t-20.5 -8.5t-20 8.5t-8 20t8 20t20 8.5zM454 834q12 0 20.5 -8.5t8.5 -20t-8.5 -20t-20.5 -8.5t-20 8.5t-8 20t8 20t20 8.5zM676 35l56 -5v-30h-205v24q0 5 5 5l73 7q7 0 10 5.5t1 11.5l-68 164h-347
l-74 -180l91 -7v-30h-190v25q0 5 5 5l46 4q6 1 8 7l272 658l41 2zM216 254h318l-159 387z" />
    <glyph glyph-name="adieresismacron" unicode="&#x1df;" horiz-adv-x="563" 
d="M391 721h-264v33h264v-33zM185 665q12 0 20 -8.5t8 -20.5t-8 -20.5t-20 -8.5t-20.5 8.5t-8.5 20.5t8.5 20.5t20.5 8.5zM333 665q12 0 20 -8.5t8 -20.5t-8 -20.5t-20 -8.5t-20.5 8.5t-8.5 20.5q0 8 4 14.5t10.5 10.5t14.5 4zM256 510q73 0 120 -41t47 -129v-295
q0 -10 10 -11l71 -6v-28h-113q-6 0 -6 5l-1 59q-65 -74 -172 -74q-71 0 -114.5 36t-43.5 95q0 56 37 84t125 52l165 44v39q0 38 -10 65.5t-28 43t-40 23t-50 7.5q-64 -1 -127 -35q-5 -3 -6 -8l-7 -85h-25v105q0 3 2 4q78 49 166 50zM381 273l-155 -42q-50 -13 -76 -25.5
t-39.5 -32t-13.5 -49.5q0 -47 33.5 -74.5t91.5 -27.5q99 0 155 74l4 5v172z" />
    <glyph glyph-name="Gcaron" unicode="&#x1e6;" horiz-adv-x="705" 
d="M404 777h-56l-103 142h41l90 -114l89 114h41zM392 709q113 0 222 -59q3 -1 3 -4v-119h-30l-7 91q0 6 -5 8q-93 46 -183 46q-59 0 -110.5 -21t-91 -60.5t-62 -101.5t-22.5 -139q0 -98 35.5 -171t100 -112.5t150.5 -39.5q123 0 201 80v165q0 11 -11 12l-179 9v31h227
q6 0 6 -5v-319h-31l-6 63q-86 -73 -212 -73q-149 0 -240 99.5t-91 260.5q0 85 27 154.5t73 113.5t106.5 67.5t129.5 23.5z" />
    <glyph glyph-name="gcaron" unicode="&#x1e7;" horiz-adv-x="568" 
d="M310 577h-55l-103 142h41l90 -114l89 114h41zM509 486l-111 -9q37 -20 57 -55t20 -80q0 -76 -52 -122t-138 -46q-42 0 -77 12q-67 -15 -67 -55q0 -34 35 -48.5t108 -14.5q67 0 114.5 -14t76.5 -46.5t29 -83.5q0 -44 -28 -78t-79 -52.5t-116 -18.5q-99 0 -161.5 41
t-62.5 105q0 44 33 78.5t90 52.5q-76 18 -76 74q-1 16 8 30t25.5 25t39.5 18q-26 14 -44.5 35t-28.5 48.5t-10 59.5q0 76 52 122t139 46h224v-24zM284.5 482q-68.5 0 -108.5 -37.5t-40 -102.5q0 -43 18 -74.5t51.5 -48t79 -16.5t79 16.5t51.5 48t18 74.5q0 65 -40 102.5
t-108.5 37.5zM239 41l-13 -3q-61 -12 -95.5 -42.5t-34.5 -73.5q0 -53 50.5 -85.5t134.5 -32.5t134 32.5t50 85.5q0 117 -186 117q-19 0 -40 2z" />
    <glyph glyph-name="DZ" unicode="&#x1f1;" horiz-adv-x="1341" 
d="M74 700h290q152 0 244 -95t92 -255t-92 -255t-244 -95h-290v25q0 5 5 5l65 6q10 0 10 11v606q0 11 -10 11l-65 6q-5 0 -5 6v24zM1300 670l-444 -633h401q10 0 11 10l6 80h29v-121q0 -6 -5 -6h-505v29l444 634h-372q-11 0 -12 -10l-6 -79h-29v120q0 6 6 6h476v-30z
M273 663l-72 -6v-614l73 -6h90q131 0 209 83t78 229.5t-78 230t-209 83.5h-91z" />
    <glyph glyph-name="Dz" unicode="&#x1f2;" horiz-adv-x="1257" 
d="M74 700h290q152 0 244 -95t92 -255t-92 -255t-244 -95h-290v25q0 5 5 5l65 6q10 0 10 11v606q0 11 -10 11l-65 6q-5 0 -5 6v24zM273 663l-72 -6v-614l73 -6h90q131 0 209 83t78 229.5t-78 230t-209 83.5h-91zM1190 478l-324 -450h289q10 0 11 11l6 72h25v-105q0 -6 -6 -6
h-376v22l324 450h-265q-11 0 -12 -11l-6 -72h-25v105q0 6 6 6h353v-22z" />
    <glyph glyph-name="dz" unicode="&#x1f3;" horiz-adv-x="1150" 
d="M387 744l107 6q6 0 6 -6v-699q0 -10 10 -11l71 -6v-28h-113q-6 0 -6 6l-1 58q-65 -74 -173 -74q-105 0 -169 70.5t-64 190.5q0 113 62 186t171 73q106 0 170 -72v265q0 11 -11 11l-60 3v27zM1083 478l-324 -450h289q10 0 11 11l6 72h25v-105q0 -6 -6 -6h-376v22l324 450
h-265q-11 0 -12 -11l-6 -72h-25v105q0 6 6 6h353v-22zM297 479q-90 0 -144.5 -62t-54.5 -166.5t55.5 -166.5t146.5 -62q103 0 158 78v297q-55 82 -161 82z" />
    <glyph glyph-name="Oslashacute" unicode="&#x1fe;" horiz-adv-x="783" 
d="M403 777h-41l101 142h54zM546 750l-21 -65q94 -38 148 -126t54 -209q0 -161 -92.5 -260.5t-243.5 -99.5q-46 0 -88 10l-16 -50h-50l21 64q-95 38 -148.5 126.5t-53.5 209.5q0 161 92 260t243 99q47 0 89 -10l16 51h50zM105 350q0 -109 43.5 -186.5t121.5 -112.5l198 612
q-36 9 -77 9q-129 0 -207.5 -87.5t-78.5 -234.5zM391 27q130 0 208.5 87.5t78.5 235.5q0 72 -20 132t-57 101.5t-88 64.5l-198 -612q36 -9 76 -9z" />
    <glyph glyph-name="oslashacute" unicode="&#x1ff;" 
d="M311 580h-41l101 142h54zM418 550l-19 -58q69 -28 107.5 -91.5t38.5 -150.5q0 -116 -67 -188t-178 -72q-32 0 -62 7l-15 -47h-41l19 58q-45 18 -78 53t-50.5 83t-17.5 106q0 116 67 188t178 72q32 0 62 -7l15 47h41zM98 250q0 -76 30 -130.5t83 -79.5l141 433
q-25 6 -52 6q-91 0 -146.5 -62t-55.5 -167zM300 21q91 0 147 62t56 167q0 76 -30.5 130.5t-83.5 79.5l-141 -433q25 -6 52 -6z" />
    <glyph glyph-name="Scommaaccent" unicode="&#x218;" horiz-adv-x="569" 
d="M315 710q91 0 153 -37q3 -1 3 -4v-119h-30l-7 92q0 5 -5 8q-47 24 -114 24q-86 0 -137.5 -34.5t-51.5 -90.5q0 -37 11.5 -59t46.5 -46t113 -63q86 -42 129.5 -73t59.5 -59.5t16 -69.5q0 -85 -72.5 -137t-187.5 -52q-97 0 -172 39q-3 2 -3 5v119h30l6 -90q1 -6 6 -9
q57 -27 136 -27q94 0 150.5 40.5t56.5 107.5q0 35 -12 57t-47 46t-110 62q-70 34 -109 57.5t-61.5 47.5t-29 46t-6.5 56q0 72 66.5 117.5t171.5 45.5zM280 -56q23 0 31.5 -25.5t0.5 -62.5q-7 -36 -26 -68l-22 7q13 28 18 55q4 26 -4 42h-2q-10 2 -16 9t-6 17t7.5 17.5
t18.5 8.5z" />
    <glyph glyph-name="scommaaccent" unicode="&#x219;" horiz-adv-x="442" 
d="M252 510q66 0 113 -25q3 -2 3 -5v-105h-25l-7 84q-1 6 -6 8q-32 15 -77 15q-63 0 -100 -24.5t-37 -63.5q0 -37 21 -58.5t99 -60.5q62 -31 93 -53t42 -43t11 -51q0 -62 -55 -99.5t-142 -37.5q-66 0 -122 23q-3 2 -3 5v104h25l7 -82q1 -6 7 -9q38 -13 87 -13q71 0 113.5 29
t42.5 77q0 36 -22 58t-99 60q-66 33 -96.5 55t-40.5 42t-10 53q0 52 49.5 84.5t128.5 32.5zM217 -56q22 0 30.5 -25.5t0.5 -62.5q-7 -36 -25 -68l-23 7q13 28 18 55q4 26 -4 42h-2q-9 2 -15.5 9t-6.5 17t7.5 17.5t19.5 8.5z" />
    <glyph glyph-name="uni021A" unicode="&#x21a;" horiz-adv-x="640" 
d="M34 700h572q6 0 6 -6v-123h-29l-6 82q-1 11 -12 11h-221v-617q0 -11 10 -11l71 -6v-30h-210v24q0 6 5 6l66 6q10 1 10 11v617h-221q-11 0 -12 -11l-6 -81h-29v122q0 6 6 6zM316 -56q23 0 31 -25.5t0 -62.5q-7 -36 -25 -68l-23 7q14 28 18 55q4 26 -4 42h-2q-9 2 -15.5 9
t-6.5 17t8 17.5t19 8.5z" />
    <glyph glyph-name="uni021B" unicode="&#x21b;" horiz-adv-x="376" 
d="M153 500h141v-28l-141 -7l-1 -378q0 -33 19.5 -51t52.5 -18q47 0 67 34l19 -18q-26 -46 -94 -46q-48 0 -77 26t-29 69l1 382l-62 4q-5 0 -5 5v25h67v126l42 2v-127zM183 -56q23 0 31 -25.5t1 -62.5q-8 -36 -26 -68l-23 7q14 28 18 55q5 26 -3 42h-2q-10 2 -16 9t-6 17
t7.5 17.5t18.5 8.5z" />
    <glyph glyph-name="uni0228" unicode="&#x228;" horiz-adv-x="579" 
d="M74 700h443q6 0 6 -6v-123h-29l-7 82q-1 10 -11 10h-275v-289h243v-35h-243v-302h294q11 0 12 10l6 82h29v-123q0 -6 -6 -6h-232l-19 -56q6 0 16 -2q29 -5 47 -25.5t18 -46.5q-1 -30 -26 -51.5t-62 -21.5t-64 22l9 25q23 -19 50 -19q22 0 38 12.5t17 36.5q0 46 -57 50
q-9 0 -23 -2l25 78h-199v25q0 5 5 5l65 6q10 0 10 11v606q0 11 -10 11l-65 6q-5 0 -5 6v24z" />
    <glyph glyph-name="uni0229" unicode="&#x229;" horiz-adv-x="549" 
d="M282 510q108 0 161 -65t56 -182v-8q0 -9 -10 -9l-391 -3q2 -101 53.5 -161.5t136.5 -60.5q104 0 169 66l18 -26q-20 -21 -47 -36.5t-63 -25t-76 -9.5h-4l-16 -46q6 0 16 -2q29 -5 47 -25.5t18 -46.5q0 -30 -25.5 -51.5t-62.5 -21.5t-63 22l8 25q24 -19 50 -19
q23 0 38.5 12.5t17.5 36.5q0 46 -58 50q-9 0 -22 -2l22 70q-60 7 -105.5 41t-70 90t-24.5 127q0 77 28 136t79.5 91.5t119.5 32.5zM282 480q-80 0 -129.5 -56t-54.5 -152h351q7 0 6 7q-8 201 -173 201z" />
    <glyph glyph-name="uni022A" unicode="&#x22a;" horiz-adv-x="783" 
d="M523 911h-264v33h264v-33zM317 834q12 0 20.5 -8.5t8.5 -19.5q0 -8 -4 -14.5t-10.5 -10.5t-14.5 -4q-12 0 -20 8.5t-8 20t8 20t20 8.5zM465 834q12 0 20.5 -8.5t8.5 -19.5q0 -8 -4 -14.5t-10.5 -10.5t-14.5 -4q-12 0 -20 8.5t-8 20t8 20t20 8.5zM391.5 709
q151.5 0 243.5 -99t92 -260q0 -106 -41.5 -188t-118 -127t-176.5 -45q-151 0 -243 99.5t-92 260.5t92 260t243.5 99zM391.5 672q-129.5 0 -208 -87.5t-78.5 -234.5q0 -98 35.5 -171t100.5 -112.5t150 -39.5q130 0 208.5 87.5t78.5 235t-78.5 235t-208 87.5z" />
    <glyph glyph-name="uni022B" unicode="&#x22b;" 
d="M432 722h-264v33h264v-33zM226 665q12 0 20.5 -8.5t8.5 -20.5t-8.5 -20.5t-20.5 -8.5t-20 8.5t-8 20.5t8 20.5t20 8.5zM374 665q12 0 20.5 -8.5t8.5 -20.5t-8.5 -20.5t-20.5 -8.5t-20 8.5t-8 20.5q0 8 3.5 14.5t10 10.5t14.5 4zM300 510q55 0 101 -19t77.5 -53t49 -82.5
t17.5 -105.5q0 -116 -67 -188t-178 -72t-178 72t-67 188t67 188t178 72zM300 479q-91 0 -146.5 -62t-55.5 -167t55.5 -167t146.5 -62t147 62t56 167q0 69 -25.5 121t-71.5 80t-106 28z" />
    <glyph glyph-name="circumflex" unicode="&#x2c6;" horiz-adv-x="355" 
d="M308 577h-41l-90 114l-89 -114h-41l103 142h55z" />
    <glyph glyph-name="caron" unicode="&#x2c7;" horiz-adv-x="355" 
d="M205 577h-55l-103 142h41l90 -114l89 114h41z" />
    <glyph glyph-name="breve" unicode="&#x2d8;" horiz-adv-x="347" 
d="M264 702h36q0 -25 -10 -48.5t-27 -40t-40.5 -26.5t-48.5 -10q-53 0 -90 36.5t-37 88.5h36q0 -41 26.5 -68.5t64 -27.5t64 27.5t26.5 68.5z" />
    <glyph glyph-name="dotaccent" unicode="&#x2d9;" horiz-adv-x="151" 
d="M76 665q12 0 20 -8.5t8 -20.5t-8 -20.5t-20 -8.5t-20.5 8.5t-8.5 20.5t8.5 20.5t20.5 8.5z" />
    <glyph glyph-name="ring" unicode="&#x2da;" horiz-adv-x="285" 
d="M142 740q26 0 48 -13t34.5 -35t12.5 -47q0 -40 -27.5 -68t-67 -28t-67.5 28t-28 67.5t28 67.5t67 28zM142.5 713q-25.5 0 -44 -19.5t-18.5 -49t18.5 -49t43.5 -19.5q17 0 31.5 8.5t23 24.5t8.5 36q0 29 -18.5 48.5t-44 19.5z" />
    <glyph glyph-name="ogonek" unicode="&#x2db;" horiz-adv-x="249" 
d="M125 6h47q-89 -45 -89 -114q0 -19 6.5 -33t18.5 -22t27 -8q22 -1 58 19l8 -28q-38 -22 -71 -20q-38 0 -60 24t-23 60q0 33 19.5 66t58.5 56z" />
    <glyph glyph-name="tilde" unicode="&#x2dc;" horiz-adv-x="347" 
d="M269 664l33 -7q-5 -28 -22 -45.5t-41 -19.5q-27 -3 -66 16q-8 4 -23 12t-24.5 12t-15.5 4q-10 1 -17 -8.5t-14 -35.5l-34 8q14 64 57 66q5 0 10.5 -1t11.5 -3t11 -3.5t11.5 -4.5t10.5 -5t10.5 -5.5t9.5 -5.5q37 -18 55 -16q24 3 37 42z" />
    <glyph glyph-name="hungarumlaut" unicode="&#x2dd;" horiz-adv-x="377" 
d="M88 577h-41l98 142h54zM219 577h-41l98 142h54z" />
    <glyph glyph-name="dotbelowcomb" unicode="&#x323;" horiz-adv-x="0" 
d="M76 -96q12 0 20 -9t8 -20q0 -7 -3.5 -13.5t-10.5 -10.5t-14 -4q-6 0 -11.5 2.5t-9 6.5t-6 9t-2.5 10q0 11 8.5 20t20.5 9z" />
    <glyph glyph-name="commaaccentcomb" unicode="&#x326;" horiz-adv-x="0" 
d="M54 -56q23 0 31.5 -25.5t0.5 -62.5q-7 -36 -26 -68l-22 7q13 28 18 55q4 26 -4 42h-2q-10 2 -16 9t-6 17t7.5 17.5t18.5 8.5z" />
    <glyph glyph-name="circumflexbelowcomb" unicode="&#x32d;" horiz-adv-x="0" 
d="M308 -201h-41l-90 114l-89 -114h-41l103 142h55z" />
    <glyph glyph-name="macronbelowcomb" unicode="&#x331;" horiz-adv-x="0" 
d="M311 -132h-264v33h264v-33z" />
    <glyph glyph-name="Delta" unicode="&#x394;" 
 />
    <glyph glyph-name="Omega" unicode="&#x3a9;" 
 />
    <glyph glyph-name="mu" unicode="&#x3bc;" 
 />
    <glyph glyph-name="pi" unicode="&#x3c0;" 
 />
    <glyph glyph-name="Bdotbelow" unicode="&#x1e04;" horiz-adv-x="651" 
d="M78 700h291q94 0 150.5 -47.5t56.5 -125.5q0 -55 -29.5 -95.5t-82.5 -59.5q46 -11 80 -36t52 -62t18 -82q0 -87 -62.5 -139.5t-165.5 -52.5h-308v25q0 5 5 5l65 6q10 0 10 11v606q0 11 -10 11l-65 6q-5 0 -5 6v24zM278 663l-72 -6v-270h164q74 0 116.5 37t42.5 101
t-42.5 101t-116.5 37h-92zM206 350v-307l72 -6h107q56 0 96.5 19t62.5 54.5t22 83.5q0 72 -48.5 114t-132.5 42h-179zM323 -96q12 0 20.5 -9t8.5 -20q0 -7 -4 -13.5t-10.5 -10.5t-14.5 -4q-6 0 -11.5 2.5t-9 6.5t-6 9t-2.5 10q0 11 8.5 20t20.5 9z" />
    <glyph glyph-name="bdotbelow" unicode="&#x1e05;" horiz-adv-x="632" 
d="M64 744l106 6q6 0 6 -6v-304q64 70 169 70t168.5 -70t63.5 -186q0 -55 -13 -99.5t-36.5 -75t-57 -50.5t-72 -29.5t-83.5 -9.5q-87 0 -181 34v679q0 11 -11 12l-59 2v27zM335 479q-104 0 -159 -80v-351q74 -27 141 -27q98 0 158 56.5t60 172.5q0 105 -54.5 167t-145.5 62z
M331.5 -96q11.5 0 20 -9t8.5 -20q0 -7 -3.5 -13.5t-10.5 -10.5t-14 -4q-12 0 -20.5 8.5t-8.5 19.5t8.5 20t20 9z" />
    <glyph glyph-name="Ddotbelow" unicode="&#x1e0c;" horiz-adv-x="756" 
d="M74 700h290q152 0 244 -95t92 -255t-92 -255t-244 -95h-290v25q0 5 5 5l65 6q10 0 10 11v606q0 11 -10 11l-65 6q-5 0 -5 6v24zM273 663l-72 -6v-614l73 -6h90q131 0 209 83t78 229.5t-78 230t-209 83.5h-91zM372 -96q12 0 20.5 -9t8.5 -20q0 -7 -4 -13.5t-10.5 -10.5
t-14.5 -4q-12 0 -20.5 8.5t-8.5 19.5t8.5 20t20.5 9z" />
    <glyph glyph-name="ddotbelow" unicode="&#x1e0d;" horiz-adv-x="649" 
d="M387 744l107 6q6 0 6 -6v-699q0 -10 10 -11l71 -6v-28h-113q-6 0 -6 6l-1 58q-65 -74 -173 -74q-105 0 -169 70.5t-64 190.5q0 113 62 186t171 73q106 0 170 -72v265q0 11 -11 11l-60 3v27zM297 479q-90 0 -144.5 -62t-54.5 -166.5t55.5 -166.5t146.5 -62q103 0 158 78
v297q-55 82 -161 82zM323 -96q12 0 20.5 -9t8.5 -20q0 -7 -3.5 -13.5t-10.5 -10.5t-15 -4q-11 0 -19.5 8.5t-8.5 19.5t8 20t20 9z" />
    <glyph glyph-name="Dlinebelow" unicode="&#x1e0e;" horiz-adv-x="756" 
d="M74 700h290q152 0 244 -95t92 -255t-92 -255t-244 -95h-290v25q0 5 5 5l65 6q10 0 10 11v606q0 11 -10 11l-65 6q-5 0 -5 6v24zM273 663l-72 -6v-614l73 -6h90q131 0 209 83t78 229.5t-78 230t-209 83.5h-91zM519 -132h-264v33h264v-33z" />
    <glyph glyph-name="dlinebelow" unicode="&#x1e0f;" horiz-adv-x="649" 
d="M387 744l107 6q6 0 6 -6v-699q0 -10 10 -11l71 -6v-28h-113q-6 0 -6 6l-1 58q-65 -74 -173 -74q-105 0 -169 70.5t-64 190.5q0 113 62 186t171 73q106 0 170 -72v265q0 11 -11 11l-60 3v27zM297 479q-90 0 -144.5 -62t-54.5 -166.5t55.5 -166.5t146.5 -62q103 0 158 78
v297q-55 82 -161 82zM455 -132h-264v33h264v-33z" />
    <glyph glyph-name="Dcircumflexbelow" unicode="&#x1e12;" horiz-adv-x="756" 
d="M74 700h290q152 0 244 -95t92 -255t-92 -255t-244 -95h-290v25q0 5 5 5l65 6q10 0 10 11v606q0 11 -10 11l-65 6q-5 0 -5 6v24zM273 663l-72 -6v-614l73 -6h90q131 0 209 83t78 229.5t-78 230t-209 83.5h-91zM502 -201h-41l-89 114l-89 -114h-41l102 142h56z" />
    <glyph glyph-name="dcircumflexbelow" unicode="&#x1e13;" horiz-adv-x="649" 
d="M387 744l107 6q6 0 6 -6v-699q0 -10 10 -11l71 -6v-28h-113q-6 0 -6 6l-1 58q-65 -74 -173 -74q-105 0 -169 70.5t-64 190.5q0 113 62 186t171 73q106 0 170 -72v265q0 11 -11 11l-60 3v27zM297 479q-90 0 -144.5 -62t-54.5 -166.5t55.5 -166.5t146.5 -62q103 0 158 78
v297q-55 82 -161 82zM454 -201h-41l-90 114l-89 -114h-41l103 142h55z" />
    <glyph glyph-name="Hdotbelow" unicode="&#x1e24;" horiz-adv-x="859" 
d="M785 670l-70 -6q-10 0 -10 -11v-606q0 -11 10 -11l70 -6v-30h-220v25q0 5 5 5l77 7q10 1 10 11v291h-456v-291q0 -10 11 -11l81 -7v-30h-219v24q0 6 5 6l65 6q10 0 10 11v606q0 11 -10 11l-65 6q-5 0 -5 5v25h219v-30l-81 -7q-11 -1 -11 -11v-276h456v276q0 10 -10 11
l-77 7q-5 0 -5 5v25h220v-30zM429.5 -96q11.5 0 20 -9t8.5 -20q0 -7 -3.5 -13.5t-10.5 -10.5t-14 -4q-12 0 -20.5 8.5t-8.5 19.5t8.5 20t20 9z" />
    <glyph glyph-name="hdotbelow" unicode="&#x1e25;" horiz-adv-x="705" 
d="M74 744l106 6q6 0 6 -6v-310q122 76 224 76q46 0 80 -17t54.5 -54.5t20.5 -94.5v-299q0 -10 10 -11l72 -6v-28h-119q-5 0 -5 6v333q0 72 -33.5 106t-91.5 34q-94 0 -212 -74v-360q0 -10 11 -11l72 -6v-28h-195v23q0 5 5 6l55 4q10 1 10 12v658q0 11 -11 11l-59 3v27z
M353 -96q12 0 20.5 -9t8.5 -20q0 -7 -4 -13.5t-10.5 -10.5t-14.5 -4q-12 0 -20.5 8.5t-8.5 19.5t8.5 20t20.5 9z" />
    <glyph glyph-name="Idieresisacute" unicode="&#x1e2e;" horiz-adv-x="358" 
d="M190 873h-41l101 142h54zM105 834q12 0 20.5 -8.5t8.5 -20t-8.5 -20t-20.5 -8.5q-6 0 -11.5 2.5t-9 6t-6 9t-2.5 11.5q0 11 8.5 19.5t20.5 8.5zM253 834q12 0 20.5 -8.5t8.5 -19.5q0 -8 -4 -14.5t-10.5 -10.5t-14.5 -4q-12 0 -20.5 8.5t-8.5 20t8.5 20t20.5 8.5zM284 670
l-71 -6q-10 -1 -10 -11v-606q0 -10 10 -11l71 -6v-30h-210v24q0 6 5 6l66 6q10 1 10 11v606q0 10 -10 11l-66 6q-5 0 -5 6v24h210v-30z" />
    <glyph glyph-name="idieresisacute" unicode="&#x1e2f;" horiz-adv-x="341" 
d="M173 707h-41l101 142h54zM88 665q8 0 14.5 -4t10.5 -10.5t4 -14.5q0 -12 -8.5 -20.5t-20.5 -8.5t-20.5 8.5t-8.5 20.5t8.5 20.5t20.5 8.5zM236 665q12 0 20.5 -8.5t8.5 -20.5t-8.5 -20.5t-20.5 -8.5t-20.5 8.5t-8.5 20.5t8.5 20.5t20.5 8.5zM74 499l106 6q6 0 6 -6v-454
q0 -10 11 -11l75 -6v-28h-198v23q0 5 5 6l55 4q10 1 10 12v413q0 11 -11 11l-59 3v27z" />
    <glyph glyph-name="Ldotbelow" unicode="&#x1e36;" horiz-adv-x="567" 
d="M293 670l-81 -7q-11 -1 -11 -11v-615h282q11 0 12 10l6 82h29v-123q0 -6 -6 -6h-450v25q0 5 5 5l65 6q10 0 10 11v606q0 11 -10 11l-65 6q-5 0 -5 6v24h219v-30zM284 -96q12 0 20 -9t8 -20q0 -7 -3.5 -13.5t-10.5 -10.5t-14 -4q-12 0 -20.5 8.5t-8.5 19.5q0 12 8.5 20.5
t20.5 8.5z" />
    <glyph glyph-name="ldotbelow" unicode="&#x1e37;" horiz-adv-x="331" 
d="M74 744l106 6q6 0 6 -6v-699q0 -10 11 -11l75 -6v-28h-195v23q0 5 5 6l52 4q10 1 10 12v658q0 10 -11 11l-59 3v27zM165 -96q8 0 14.5 -4t10.5 -11t4 -14t-4 -13.5t-10.5 -10.5t-14 -4t-14.5 4t-10.5 10.5t-3.5 13.5q0 12 8 20.5t20 8.5z" />
    <glyph glyph-name="Lcircumflexbelow" unicode="&#x1e3c;" horiz-adv-x="567" 
d="M293 670l-81 -7q-11 -1 -11 -11v-615h282q11 0 12 10l6 82h29v-123q0 -6 -6 -6h-450v25q0 5 5 5l65 6q10 0 10 11v606q0 11 -10 11l-65 6q-5 0 -5 6v24h219v-30zM414 -201h-41l-89 114l-90 -114h-41l103 142h56z" />
    <glyph glyph-name="lcircumflexbelow" unicode="&#x1e3d;" horiz-adv-x="331" 
d="M74 744l106 6q6 0 6 -6v-699q0 -10 11 -11l75 -6v-28h-195v23q0 5 5 6l52 4q10 1 10 12v658q0 10 -11 11l-59 3v27zM296 -201h-41l-90 114l-89 -114h-41l103 142h55z" />
    <glyph glyph-name="Macute" unicode="&#x1e3e;" horiz-adv-x="1024" 
d="M521 777h-41l101 142h54zM879 670l-66 -5q-12 -1 -10 -14l82 -616l67 -5v-30h-217v30l90 8q12 1 11 13l-76 574l-234 -624l-30 -1l-238 627l-79 -588l103 -9v-30h-214v24q0 6 5 6l58 5q8 1 10 9l81 607q2 13 -11 14l-60 5q-6 0 -6 5v25h136l235 -620l232 620h131v-30z
" />
    <glyph glyph-name="macute" unicode="&#x1e3f;" horiz-adv-x="1034" 
d="M521 577h-41l101 142h54zM747 510q67 0 106.5 -41t39.5 -125v-299q0 -10 10 -11l72 -6v-28h-118q-6 0 -6 6v333q0 73 -31 106.5t-85 33.5q-90 0 -205 -78q7 -26 7 -63v-293q0 -10 10 -11l72 -6v-28h-118q-6 0 -6 6v333q0 73 -31 106.5t-86 33.5q-86 0 -197 -73v-361
q0 -10 10 -11l72 -6v-28h-195v23q0 5 5 6l55 4q11 1 11 12v413q0 11 -11 11l-60 3v27l106 6q7 0 7 -6v-65q116 76 210 76q100 0 133 -84q123 84 223 84z" />
    <glyph glyph-name="Ndotaccent" unicode="&#x1e44;" horiz-adv-x="848" 
d="M425 865q11 0 19.5 -8.5t8.5 -20.5t-8.5 -20.5t-20 -8.5t-20 8.5t-8.5 20.5q0 8 3.5 14.5t10.5 10.5t15 4zM780 670l-70 -6q-11 0 -11 -11v-653h-44l-461 623v-575q0 -10 10 -11l80 -7v-30h-215v24q0 6 5 6l65 6q10 0 10 11v606q0 11 -10 11l-65 6q-5 0 -5 5v25h123
l463 -626v578q0 11 -11 11l-75 7q-5 0 -5 5v25h216v-30z" />
    <glyph glyph-name="ndotaccent" unicode="&#x1e45;" horiz-adv-x="700" 
d="M350 665q12 0 20 -8.5t8 -20.5t-8 -20.5t-20 -8.5q-8 0 -14.5 4t-10.5 10.5t-4 14.5q0 12 8.5 20.5t20.5 8.5zM405 510q70 0 112 -41t42 -125v-299q0 -10 10 -11l72 -6v-28h-118q-6 0 -6 6v333q0 72 -33.5 106t-91.5 34q-94 0 -211 -74v-360q0 -10 10 -11l72 -6v-28h-195
v23q0 5 5 6l55 4q11 1 11 12v413q0 11 -11 11l-60 3v27l106 6q7 0 7 -6v-65q122 76 224 76z" />
    <glyph glyph-name="Ndotbelow" unicode="&#x1e46;" horiz-adv-x="848" 
d="M780 670l-70 -6q-11 0 -11 -11v-653h-44l-461 623v-575q0 -10 10 -11l80 -7v-30h-215v24q0 6 5 6l65 6q10 0 10 11v606q0 11 -10 11l-65 6q-5 0 -5 5v25h123l463 -626v578q0 11 -11 11l-75 7q-5 0 -5 5v25h216v-30zM424.5 -96q11.5 0 20 -9t8.5 -20q0 -7 -3.5 -13.5
t-10.5 -10.5t-14 -4q-12 0 -20.5 8.5t-8.5 19.5t8.5 20t20 9z" />
    <glyph glyph-name="ndotbelow" unicode="&#x1e47;" horiz-adv-x="700" 
d="M405 510q70 0 112 -41t42 -125v-299q0 -10 10 -11l72 -6v-28h-118q-6 0 -6 6v333q0 72 -33.5 106t-91.5 34q-94 0 -211 -74v-360q0 -10 10 -11l72 -6v-28h-195v23q0 5 5 6l55 4q11 1 11 12v413q0 11 -11 11l-60 3v27l106 6q7 0 7 -6v-65q122 76 224 76zM350 -96
q12 0 20 -9t8 -20q0 -7 -3.5 -13.5t-10.5 -10.5t-14 -4q-12 0 -20.5 8.5t-8.5 19.5t8.5 20t20.5 9z" />
    <glyph glyph-name="Ncircumflexbelow" unicode="&#x1e4a;" horiz-adv-x="848" 
d="M780 670l-70 -6q-11 0 -11 -11v-653h-44l-461 623v-575q0 -10 10 -11l80 -7v-30h-215v24q0 6 5 6l65 6q10 0 10 11v606q0 11 -10 11l-65 6q-5 0 -5 5v25h123l463 -626v578q0 11 -11 11l-75 7q-5 0 -5 5v25h216v-30zM555 -201h-41l-89 114l-90 -114h-41l103 142h55z" />
    <glyph glyph-name="ncircumflexbelow" unicode="&#x1e4b;" horiz-adv-x="700" 
d="M405 510q70 0 112 -41t42 -125v-299q0 -10 10 -11l72 -6v-28h-118q-6 0 -6 6v333q0 72 -33.5 106t-91.5 34q-94 0 -211 -74v-360q0 -10 10 -11l72 -6v-28h-195v23q0 5 5 6l55 4q11 1 11 12v413q0 11 -11 11l-60 3v27l106 6q7 0 7 -6v-65q122 76 224 76zM480 -201h-41
l-89 114l-90 -114h-41l103 142h56z" />
    <glyph glyph-name="Otildeacute" unicode="&#x1e4c;" horiz-adv-x="783" 
d="M402 872h-41l101 142h54zM486 841l34 -8q-6 -28 -23 -45t-41 -19q-27 -3 -66 16q-7 4 -22.5 12t-25 12t-15.5 4q-9 1 -16.5 -8.5t-14.5 -35.5l-33 8q13 64 57 65q4 1 9 0t9.5 -2t10 -3t9.5 -4t10 -4.5t9.5 -4.5t9 -4.5t8.5 -4.5q37 -18 55 -16q23 3 36 42zM391 709
q100 0 176.5 -45t118 -126.5t41.5 -187.5q0 -161 -92.5 -260.5t-243.5 -99.5t-243 99.5t-92 260.5t92 260t243 99zM391 672q-85 0 -150 -39t-100.5 -112t-35.5 -171q0 -148 78.5 -235.5t208 -87.5t208 87.5t78.5 235t-78.5 235t-208.5 87.5z" />
    <glyph glyph-name="otildeacute" unicode="&#x1e4d;" 
d="M311 705h-41l101 142h54zM395 664l34 -7q-6 -28 -23 -45.5t-41 -19.5q-27 -3 -66 16q-7 4 -22.5 12t-25 12t-15.5 4q-9 1 -16.5 -8.5t-14.5 -35.5l-33 8q13 64 57 66q7 0 14 -1.5t17 -5.5t14.5 -6t16 -8t13.5 -7q37 -18 55 -16q23 3 36 42zM300 510q111 0 178 -72
t67 -188t-67 -188t-178 -72t-178 72t-67 188q0 77 30 136t86 91.5t129 32.5zM300 479q-91 0 -146.5 -62t-55.5 -167t55.5 -167t146.5 -62t146.5 62t55.5 167t-55.5 167t-146.5 62z" />
    <glyph glyph-name="Omacrongrave" unicode="&#x1e50;" horiz-adv-x="783" 
d="M421 872h-41l-114 142h54zM523 779h-264v33h264v-33zM391 709q152 0 244 -99t92 -260t-92.5 -260.5t-243.5 -99.5t-243 99.5t-92 260.5q0 106 41.5 187.5t118 126.5t175.5 45zM391.5 672q-129.5 0 -208 -87.5t-78.5 -234.5q0 -98 35.5 -171t100.5 -112.5t150 -39.5
q130 0 208.5 87.5t78.5 235t-78.5 235t-208 87.5z" />
    <glyph glyph-name="omacrongrave" unicode="&#x1e51;" 
d="M330 705h-41l-114 142h54zM432 609h-264v33h264v-33zM300 510q111 0 178 -72t67 -188t-67 -188t-178 -72t-178 72t-67 188q0 77 30 136t86 91.5t129 32.5zM300 479q-91 0 -146.5 -62t-55.5 -167t55.5 -167t146.5 -62t146.5 62t55.5 167t-55.5 167t-146.5 62z" />
    <glyph glyph-name="Omacronacute" unicode="&#x1e52;" horiz-adv-x="783" 
d="M402 872h-41l101 142h54zM523 779h-264v33h264v-33zM391 709q100 0 176.5 -45t118 -126.5t41.5 -187.5q0 -161 -92.5 -260.5t-243.5 -99.5t-243 99.5t-92 260.5t92 260t243 99zM391.5 672q-129.5 0 -208 -87.5t-78.5 -234.5q0 -98 35.5 -171t100.5 -112.5t150 -39.5
q130 0 208.5 87.5t78.5 235t-78.5 235t-208 87.5z" />
    <glyph glyph-name="omacronacute" unicode="&#x1e53;" 
d="M311 705h-41l101 142h54zM432 609h-264v33h264v-33zM300 510q111 0 178 -72t67 -188t-67 -188t-178 -72t-178 72t-67 188t67 188t178 72zM300 479q-91 0 -146.5 -62t-55.5 -167t55.5 -167t146.5 -62t147 62t56 167t-56 167t-147 62z" />
    <glyph glyph-name="Sdotbelow" unicode="&#x1e62;" horiz-adv-x="569" 
d="M315 710q91 0 153 -37q3 -1 3 -4v-119h-30l-7 92q0 5 -5 8q-47 24 -114 24q-86 0 -137.5 -34.5t-51.5 -90.5q0 -37 11.5 -59t46.5 -46t113 -63q86 -42 129.5 -73t59.5 -59.5t16 -69.5q0 -85 -72.5 -137t-187.5 -52q-97 0 -172 39q-3 2 -3 5v119h30l6 -90q1 -6 6 -9
q57 -27 136 -27q94 0 150.5 40.5t56.5 107.5q0 35 -12 57t-47 46t-110 62q-70 34 -109 57.5t-61.5 47.5t-29 46t-6.5 56q0 72 66.5 117.5t171.5 45.5zM285 -96q12 0 20 -9t8 -20q0 -7 -3.5 -13.5t-10.5 -10.5t-14 -4q-12 0 -20.5 8.5t-8.5 19.5t8.5 20t20.5 9z" />
    <glyph glyph-name="sdotbelow" unicode="&#x1e63;" horiz-adv-x="442" 
d="M252 510q66 0 113 -25q3 -2 3 -5v-105h-25l-7 84q-1 6 -6 8q-32 15 -77 15q-63 0 -100 -24.5t-37 -63.5q0 -37 21 -58.5t99 -60.5q62 -31 93 -53t42 -43t11 -51q0 -62 -55 -99.5t-142 -37.5q-66 0 -122 23q-3 2 -3 5v104h25l7 -82q1 -6 7 -9q38 -13 87 -13q71 0 113.5 29
t42.5 77q0 36 -22 58t-99 60q-66 33 -96.5 55t-40.5 42t-10 53q0 52 49.5 84.5t128.5 32.5zM221 -96q12 0 20.5 -9t8.5 -20q0 -7 -4 -13.5t-10.5 -10.5t-14.5 -4q-12 0 -20.5 8.5t-8.5 19.5t8.5 20t20.5 9z" />
    <glyph glyph-name="Tdotbelow" unicode="&#x1e6c;" horiz-adv-x="640" 
d="M34 700h572q6 0 6 -6v-123h-29l-6 82q-1 11 -12 11h-221v-617q0 -11 10 -11l71 -6v-30h-210v24q0 6 5 6l66 6q10 1 10 11v617h-221q-11 0 -12 -11l-6 -81h-29v122q0 6 6 6zM320 -96q12 0 20.5 -9t8.5 -20q0 -7 -4 -13.5t-10.5 -10.5t-14.5 -4q-12 0 -20 8.5t-8 19.5t8 20
t20 9z" />
    <glyph glyph-name="tdotbelow" unicode="&#x1e6d;" horiz-adv-x="376" 
d="M153 500h141v-28l-141 -7l-1 -378q0 -33 19.5 -51t52.5 -18q47 0 67 34l19 -18q-26 -46 -94 -46q-48 0 -77 26t-29 69l1 382l-62 4q-5 0 -5 5v25h67v126l42 2v-127zM187.5 -96q11.5 0 20 -9t8.5 -20q0 -7 -3.5 -13.5t-10.5 -10.5t-15 -4q-11 0 -19.5 8.5t-8.5 19.5
t8.5 20t20 9z" />
    <glyph glyph-name="Tlinebelow" unicode="&#x1e6e;" horiz-adv-x="640" 
d="M34 700h572q6 0 6 -6v-123h-29l-6 82q-1 11 -12 11h-221v-617q0 -11 10 -11l71 -6v-30h-210v24q0 6 5 6l66 6q10 1 10 11v617h-221q-11 0 -12 -11l-6 -81h-29v122q0 6 6 6zM452 -132h-264v33h264v-33z" />
    <glyph glyph-name="tlinebelow" unicode="&#x1e6f;" horiz-adv-x="376" 
d="M153 500h141v-28l-141 -7l-1 -378q0 -33 19.5 -51t52.5 -18q47 0 67 34l19 -18q-26 -46 -94 -46q-48 0 -77 26t-29 69l1 382l-62 4q-5 0 -5 5v25h67v126l42 2v-127zM321 -132h-264v33h264v-33z" />
    <glyph glyph-name="Tcircumflexbelow" unicode="&#x1e70;" horiz-adv-x="640" 
d="M34 700h572q6 0 6 -6v-123h-29l-6 82q-1 11 -12 11h-221v-617q0 -11 10 -11l71 -6v-30h-210v24q0 6 5 6l66 6q10 1 10 11v617h-221q-11 0 -12 -11l-6 -81h-29v122q0 6 6 6zM450 -201h-40l-90 114l-89 -114h-41l102 142h56z" />
    <glyph glyph-name="tcircumflexbelow" unicode="&#x1e71;" horiz-adv-x="376" 
d="M153 500h141v-28l-141 -7l-1 -378q0 -33 19.5 -51t52.5 -18q47 0 67 34l19 -18q-26 -46 -94 -46q-48 0 -77 26t-29 69l1 382l-62 4q-5 0 -5 5v25h67v126l42 2v-127zM318 -201h-41l-89 114l-90 -114h-41l103 142h55z" />
    <glyph glyph-name="Wgrave" unicode="&#x1e80;" horiz-adv-x="1097" 
d="M578 777h-41l-114 142h54zM1069 670l-58 -5l-199 -664l-37 -1l-229 627l-231 -626l-37 -1l-196 659q-2 6 -9 7l-40 4q-5 0 -5 5v25h95l180 -626l209 573q1 4 0.5 8t-4 6.5t-7.5 2.5l-77 7q-5 0 -5 5v24h154l223 -625l169 573q2 6 -1.5 10.5t-9.5 5.5l-80 7q-5 0 -5 5v24
h200v-30z" />
    <glyph glyph-name="wgrave" unicode="&#x1e81;" horiz-adv-x="856" 
d="M458 577h-41l-114 142h54zM837 472l-54 -5l-170 -467h-38l-151 420l-153 -420h-38l-165 461q-2 6 -9 7l-35 3q-5 1 -5 6v23h79l158 -451l144 400q3 6 -0.5 11t-10.5 6l-71 6q-5 0 -5 5v23h127l158 -451l144 400q2 6 -1 11t-10 6l-72 6q-5 0 -5 5v23h183v-28z" />
    <glyph glyph-name="Wacute" unicode="&#x1e82;" horiz-adv-x="1097" 
d="M559 777h-41l101 142h54zM1069 670l-58 -5l-199 -664l-37 -1l-229 627l-231 -626l-37 -1l-196 659q-2 6 -9 7l-40 4q-5 0 -5 5v25h95l180 -626l209 573q1 4 0.5 8t-4 6.5t-7.5 2.5l-77 7q-5 0 -5 5v24h154l223 -625l169 573q2 6 -1.5 10.5t-9.5 5.5l-80 7q-5 0 -5 5v24
h200v-30z" />
    <glyph glyph-name="wacute" unicode="&#x1e83;" horiz-adv-x="856" 
d="M439 577h-41l101 142h54zM837 472l-54 -5l-170 -467h-38l-151 420l-153 -420h-38l-165 461q-2 6 -9 7l-35 3q-5 1 -5 6v23h79l158 -451l144 400q3 6 -0.5 11t-10.5 6l-71 6q-5 0 -5 5v23h127l158 -451l144 400q2 6 -1 11t-10 6l-72 6q-5 0 -5 5v23h183v-28z" />
    <glyph glyph-name="Wdieresis" unicode="&#x1e84;" horiz-adv-x="1097" 
d="M474 865q12 0 20 -8.5t8 -20.5t-8 -20.5t-20 -8.5t-20.5 8.5t-8.5 20.5q0 8 4 14.5t10.5 10.5t14.5 4zM622 865q12 0 20.5 -8.5t8.5 -20.5t-8.5 -20.5t-20.5 -8.5t-20.5 8.5t-8.5 20.5t8.5 20.5t20.5 8.5zM1069 670l-58 -5l-199 -664l-37 -1l-229 627l-231 -626l-37 -1
l-196 659q-2 6 -9 7l-40 4q-5 0 -5 5v25h95l180 -626l209 573q1 4 0.5 8t-4 6.5t-7.5 2.5l-77 7q-5 0 -5 5v24h154l223 -625l169 573q2 6 -1.5 10.5t-9.5 5.5l-80 7q-5 0 -5 5v24h200v-30z" />
    <glyph glyph-name="wdieresis" unicode="&#x1e85;" horiz-adv-x="856" 
d="M354 665q12 0 20.5 -8.5t8.5 -20.5t-8.5 -20.5t-20.5 -8.5t-20 8.5t-8 20.5t8 20.5t20 8.5zM502 665q12 0 20.5 -8.5t8.5 -20.5t-8.5 -20.5t-20.5 -8.5t-20 8.5t-8 20.5t8 20.5t20 8.5zM837 472l-54 -5l-170 -467h-38l-151 420l-153 -420h-38l-165 461q-2 6 -9 7l-35 3
q-5 1 -5 6v23h79l158 -451l144 400q3 6 -0.5 11t-10.5 6l-71 6q-5 0 -5 5v23h127l158 -451l144 400q2 6 -1 11t-10 6l-72 6q-5 0 -5 5v23h183v-28z" />
    <glyph glyph-name="Zdotbelow" unicode="&#x1e92;" horiz-adv-x="585" 
d="M544 670l-444 -633h401q11 0 11 10l6 80h30v-121q0 -6 -6 -6h-505v29l445 634h-373q-10 0 -11 -10l-6 -79h-30v120q0 6 6 6h476v-30zM293 -96q12 0 20 -9t8 -20q0 -7 -3.5 -13.5t-10.5 -10.5t-14 -4q-12 0 -20.5 8.5t-8.5 19.5t8.5 20t20.5 9z" />
    <glyph glyph-name="zdotbelow" unicode="&#x1e93;" horiz-adv-x="502" 
d="M434 478l-324 -450h289q10 0 11 11l6 72h25v-105q0 -6 -5 -6h-377v22l325 450h-266q-10 0 -11 -11l-6 -72h-26v105q0 6 6 6h353v-22zM252 -96q12 0 20 -9t8 -20q0 -7 -3.5 -13.5t-10.5 -10.5t-14 -4q-12 0 -20.5 8.5t-8.5 19.5t8.5 20t20.5 9z" />
    <glyph glyph-name="slongdotaccent" unicode="&#x1e9b;" horiz-adv-x="416" 
d="M246 889q12 0 20 -8.5t8 -20t-8 -20t-20 -8.5q-6 0 -11.5 2t-9 6t-6 9.5t-2.5 10.5q0 12 8.5 20.5t20.5 8.5zM298 750q69 -1 126 -39l-15 -26q-52 33 -107 33q-54 0 -89.5 -32t-35.5 -92v-549q0 -10 11 -11l73 -6v-28h-189v23q0 5 5 6l48 4q10 1 10 11v421l-62 4
q-6 0 -6 5v26h68v96q0 74 47 114t116 40z" />
    <glyph glyph-name="Adotbelow" unicode="&#x1ea0;" horiz-adv-x="760" 
d="M676 35l56 -5v-30h-205v24q0 5 5 5l73 7q7 0 10 5.5t1 11.5l-68 164h-347l-74 -180l91 -7v-30h-190v25q0 5 5 5l46 4q6 1 8 7l272 658l41 2zM216 254h318l-159 387zM377.5 -96q11.5 0 20 -9t8.5 -20q0 -7 -3.5 -13.5t-10.5 -10.5t-15 -4q-11 0 -19.5 8.5t-8.5 19.5
t8.5 20t20 9z" />
    <glyph glyph-name="adotbelow" unicode="&#x1ea1;" horiz-adv-x="563" 
d="M256 510q35 0 64 -9.5t52.5 -28.5t37 -53t13.5 -79v-295q0 -10 10 -11l71 -6v-28h-113q-6 0 -6 6l-1 58q-65 -74 -172 -74q-71 0 -114.5 36t-43.5 95q0 56 37 84t125 52l165 44v39q0 74 -35 106.5t-93 32.5q-64 -1 -127 -35q-5 -3 -6 -8l-7 -85h-25v105q0 3 2 4
q78 49 166 50zM381 273l-155 -42q-73 -20 -101 -41.5t-28 -65.5q0 -47 33.5 -74.5t91.5 -27.5q99 0 155 74l4 5v172zM259 -96q12 0 20 -9t8 -20q0 -7 -3.5 -13.5t-10 -10.5t-14.5 -4q-12 0 -20.5 8.5t-8.5 19.5t8.5 20t20.5 9z" />
    <glyph glyph-name="Ahookabove" unicode="&#x1ea2;" horiz-adv-x="760" 
d="M381 1005q50 0 84.5 -25t34.5 -61q0 -29 -15 -47.5t-42 -33.5q-2 -1 -9.5 -5t-9.5 -5t-7.5 -4.5t-6.5 -5t-4.5 -5t-4.5 -6.5t-2 -7t-1 -8v-15h-34l-1 17q0 6 1 11.5t3.5 10.5t3.5 8.5t6 7.5t7 6t9 6.5t8.5 5t10.5 5.5t10 6q14 7 22 13.5t13 17.5t5 27q0 26 -22.5 42.5
t-59.5 16.5q-35 0 -61 -16l-18 21q31 22 80 22zM676 35l56 -5v-30h-205v24q0 5 5 5l73 7q7 0 10 5.5t1 11.5l-68 164h-347l-74 -180l91 -7v-30h-190v25q0 5 5 5l46 4q6 1 8 7l272 658l41 2zM216 254h318l-159 387z" />
    <glyph glyph-name="ahookabove" unicode="&#x1ea3;" horiz-adv-x="563" 
d="M245 794q19 0 37 -4.5t32.5 -12.5t25.5 -18.5t17 -24t6 -27.5q0 -20 -8.5 -36t-19.5 -25.5t-29 -18.5q-2 -2 -8.5 -5.5t-8.5 -4.5t-6.5 -4t-6.5 -4.5t-5 -4t-4 -5t-3 -5.5t-2.5 -6.5t-0.5 -7.5v-14h-34v17q-1 5 0 10t2 9t4 8.5t4.5 7t6 6t7 5.5t8.5 5.5t8 4.5t9 5t10 5
q13 8 21 14.5t13.5 17.5t5.5 26q0 26 -23 42.5t-60 16.5q-34 0 -61 -15l-18 21q32 22 81 22zM256 510q35 0 64 -9.5t52.5 -28.5t37 -53t13.5 -79v-295q0 -10 10 -11l71 -6v-28h-113q-6 0 -6 6l-1 58q-65 -74 -172 -74q-47 0 -83 16.5t-55.5 46t-19.5 68.5q0 56 37 84t125 52
l165 44v39q0 74 -35 106.5t-93 32.5q-64 -1 -127 -35q-5 -3 -6 -8l-7 -85h-25v105q0 3 2 4q78 49 166 50zM381 273l-155 -42q-50 -13 -76 -25.5t-39.5 -32t-13.5 -49.5q0 -47 33.5 -74.5t91.5 -27.5q99 0 155 74l4 5v172z" />
    <glyph glyph-name="Acircumflexacute" unicode="&#x1ea4;" horiz-adv-x="760" 
d="M552 817h-41l101 142h54zM511 748h-41l-90 115l-89 -115h-41l103 143h55zM676 35l56 -5v-30h-205v24q0 5 5 5l73 7q7 0 10 5.5t1 11.5l-68 164h-347l-74 -180l91 -7v-30h-190v25q0 5 5 5l46 4q6 1 8 7l272 658l41 2zM216 254h318l-159 387z" />
    <glyph glyph-name="acircumflexacute" unicode="&#x1ea5;" horiz-adv-x="563" 
d="M391 700h-40l101 142h54zM389 577h-41l-89 114l-90 -114h-40l102 142h56zM256 510q73 0 120 -41t47 -129v-295q0 -10 10 -11l71 -6v-28h-113q-6 0 -6 6l-1 58q-65 -74 -172 -74q-71 0 -114.5 36t-43.5 95q0 56 37 84t125 52l165 44v40q0 73 -35 105.5t-93 32.5
q-64 -1 -127 -35q-5 -3 -6 -8l-7 -85h-25v105q0 3 2 4q78 49 166 50zM381 273l-155 -42q-73 -20 -101 -41.5t-28 -65.5q0 -47 33.5 -74.5t91.5 -27.5q99 0 155 74l4 5v172z" />
    <glyph glyph-name="Acircumflexgrave" unicode="&#x1ea6;" horiz-adv-x="760" 
d="M590 817h-41l-114 142h54zM511 748h-41l-90 115l-89 -115h-41l103 143h55zM676 35l56 -5v-30h-205v24q0 5 5 5l73 7q7 0 10 5.5t1 11.5l-68 164h-347l-74 -180l91 -7v-30h-190v25q0 5 5 5l46 4q6 1 8 7l272 658l41 2zM216 254h318l-159 387z" />
    <glyph glyph-name="acircumflexgrave" unicode="&#x1ea7;" horiz-adv-x="563" 
d="M392 700h-41l-114 142h54zM389 577h-41l-89 114l-90 -114h-40l102 142h56zM256 510q73 0 120 -41t47 -129v-295q0 -10 10 -11l71 -6v-28h-113q-6 0 -6 6l-1 58q-65 -74 -172 -74q-71 0 -114.5 36t-43.5 95q0 56 37 84t125 52l165 44v40q0 37 -10 64.5t-28 43t-40 23
t-50 7.5q-64 -1 -127 -35q-5 -3 -6 -8l-7 -85h-25v105q0 3 2 4q78 49 166 50zM381 273l-155 -42q-29 -8 -49 -15t-36.5 -16t-25.5 -19.5t-13.5 -24.5t-4.5 -32q0 -47 33.5 -74.5t91.5 -27.5q99 0 155 74l4 5v172z" />
    <glyph glyph-name="Acircumflexhookabove" unicode="&#x1ea8;" horiz-adv-x="760" 
d="M572 978q49 0 83.5 -25t34.5 -62q0 -20 -8.5 -35.5t-19.5 -25.5t-29 -19q-2 -2 -8.5 -5t-8.5 -4.5t-7 -4t-6.5 -4l-4.5 -4.5t-4 -5t-3 -5.5t-2.5 -7t-0.5 -7.5v-14h-34v17q-1 5 0 10.5t2 9.5t4 8t4.5 6.5t6 6.5t7 5.5t8.5 5t8 5t9 5t10 4.5q20 12 30 24t10 34
q0 26 -23 43t-60 17q-34 -1 -61 -16l-18 21q32 22 81 22zM511 748h-41l-90 115l-89 -115h-41l103 143h55zM676 35l56 -5v-30h-205v24q0 5 5 5l73 7q7 0 10 5.5t1 11.5l-68 164h-347l-74 -180l91 -7v-30h-190v25q0 5 5 5l46 4q6 1 8 7l272 658l41 2zM216 254h318l-159 387z
" />
    <glyph glyph-name="acircumflexhookabove" unicode="&#x1ea9;" horiz-adv-x="563" 
d="M377 917q49 0 83.5 -25t34.5 -61q0 -29 -15 -47.5t-42 -33.5q-2 -1 -9.5 -5t-9.5 -5t-7.5 -4.5t-6.5 -5t-4.5 -5t-4.5 -6.5t-2 -7t-1 -8v-14l-34 -1v18q-1 6 0 11t3.5 10t3.5 8.5t6.5 8t7 6t8.5 6t8.5 5.5t10.5 5.5l11 5.5q13 7 21 13.5t13.5 18t5.5 26.5q0 26 -23 42.5
t-60 16.5q-34 0 -61 -16l-18 22q32 21 81 21zM389 577h-41l-89 114l-90 -114h-40l102 142h56zM256 510q73 0 120 -41t47 -129v-295q0 -10 10 -11l71 -6v-28h-113q-6 0 -6 6l-1 58q-65 -74 -172 -74q-71 0 -114.5 36t-43.5 95q0 56 37 84t125 52l165 44v39q0 38 -10 65.5
t-28 43t-40 23t-50 7.5q-64 -1 -127 -35q-5 -3 -6 -8l-7 -85h-25v105q0 3 2 4q78 49 166 50zM381 273l-155 -42q-73 -20 -101 -41.5t-28 -65.5q0 -47 33.5 -74.5t91.5 -27.5q99 0 155 74l4 5v172z" />
    <glyph glyph-name="Acircumflextilde" unicode="&#x1eaa;" horiz-adv-x="760" 
d="M475 1000l34 -7q-5 -28 -22.5 -45.5t-41.5 -19.5q-26 -2 -65 16q-8 4 -23.5 12t-24.5 12t-16 5q-9 0 -16.5 -9t-14.5 -35l-33 8q13 64 57 65q7 0 14.5 -1.5t17 -5.5t14 -6t16.5 -8t13 -6q37 -18 55 -16q23 3 36 41zM511 748h-41l-90 115l-89 -115h-41l103 143h55zM676 35
l56 -5v-30h-205v24q0 5 5 5l73 7q3 0 6 1.5t4.5 4t1.5 5.5t-1 6l-68 164h-347l-74 -180l91 -7v-30h-190v25q0 5 5 5l46 4q6 1 8 7l272 658l41 2zM216 254h318l-159 387z" />
    <glyph glyph-name="acircumflextilde" unicode="&#x1eab;" horiz-adv-x="563" 
d="M354 815l34 -7q-4 -19 -13 -33t-22 -22.5t-29 -9.5q-27 -3 -66 16q-8 4 -23 12t-24.5 12t-15.5 4q-10 1 -17 -8.5t-14 -35.5l-34 8q14 64 58 66q4 0 9 -1t9.5 -2t10 -3t9.5 -4t9.5 -4.5t9.5 -4.5l9 -4.5t8 -3.5q37 -19 56 -16q23 2 36 41zM389 577h-41l-89 114l-90 -114
h-40l102 142h56zM256 510q73 0 120 -41t47 -129v-295q0 -10 10 -11l71 -6v-28h-113q-6 0 -6 5l-1 59q-65 -74 -172 -74q-71 0 -114.5 36t-43.5 95q0 56 37 84t125 52l165 44v39q0 74 -35 106.5t-93 32.5q-64 -1 -127 -35q-5 -3 -6 -8l-7 -85h-25v105q0 3 2 4q78 49 166 50z
M381 273l-155 -42q-73 -20 -101 -41.5t-28 -65.5q0 -47 33.5 -74.5t91.5 -27.5q99 0 155 74l4 5v172z" />
    <glyph glyph-name="Acircumflexdotbelow" unicode="&#x1eac;" horiz-adv-x="760" 
d="M511 777h-41l-90 114l-89 -114h-41l103 142h55zM676 35l56 -5v-30h-205v24q0 5 5 5l73 7q7 0 10 5.5t1 11.5l-68 164h-347l-74 -180l91 -7v-30h-190v25q0 5 5 5l46 4q6 1 8 7l272 658l41 2zM216 254h318l-159 387zM377.5 -96q11.5 0 20 -9t8.5 -20q0 -7 -3.5 -13.5
t-10.5 -10.5t-15 -4q-11 0 -19.5 8.5t-8.5 19.5t8.5 20t20 9z" />
    <glyph glyph-name="acircumflexdotbelow" unicode="&#x1ead;" horiz-adv-x="563" 
d="M389 577h-41l-89 114l-90 -114h-40l102 142h56zM256 510q35 0 64 -9.5t52.5 -28.5t37 -53t13.5 -79v-295q0 -10 10 -11l71 -6v-28h-113q-6 0 -6 6l-1 58q-65 -74 -172 -74q-71 0 -114.5 36t-43.5 95q0 56 37 84t125 52l165 44v40q0 73 -35 105.5t-93 32.5
q-64 -1 -127 -35q-5 -3 -6 -8l-7 -85h-25v105q0 3 2 4q78 49 166 50zM381 273l-155 -42q-73 -20 -101 -41.5t-28 -65.5q0 -47 33.5 -74.5t91.5 -27.5q99 0 155 74l4 5v172zM259 -96q12 0 20 -9t8 -20q0 -7 -3.5 -13.5t-10 -10.5t-14.5 -4q-12 0 -20.5 8.5t-8.5 19.5t8.5 20
t20.5 9z" />
    <glyph glyph-name="Abreveacute" unicode="&#x1eae;" horiz-adv-x="760" 
d="M391 893h-40l101 143h53zM471 874h36q0 -34 -17 -63t-46 -45.5t-64 -16.5q-52 0 -89 36.5t-37 88.5h36q0 -41 26.5 -68.5t63.5 -27.5q19 0 35.5 7.5t28.5 20t19.5 30.5t7.5 38zM676 35l56 -5v-30h-205v24q0 5 5 5l73 7q7 0 10 5.5t1 11.5l-68 164h-347l-74 -180l91 -7
v-30h-190v25q0 5 5 5l46 4q6 1 8 7l272 658l41 2zM216 254h318l-159 387z" />
    <glyph glyph-name="abreveacute" unicode="&#x1eaf;" horiz-adv-x="563" 
d="M270 707h-41l101 142h54zM349 702h36q0 -52 -36.5 -88.5t-89.5 -36.5t-90 36.5t-37 88.5h36q0 -41 26.5 -68.5t64 -27.5t64 27.5t26.5 68.5zM256 510q73 0 120 -41t47 -129v-295q0 -10 10 -11l71 -6v-28h-113q-6 0 -6 5l-1 59q-65 -74 -172 -74q-71 0 -114.5 36t-43.5 95
q0 56 37 84t125 52l165 44v39q0 74 -35 106.5t-93 32.5q-64 -1 -127 -35q-5 -3 -6 -8l-7 -85h-25v105q0 3 2 4q78 49 166 50zM381 273l-155 -42q-73 -20 -101 -41.5t-28 -65.5q0 -47 33.5 -74.5t91.5 -27.5q99 0 155 74l4 5v172z" />
    <glyph glyph-name="Abrevegrave" unicode="&#x1eb0;" horiz-adv-x="760" 
d="M410 893h-41l-114 143h54zM471 874h36q0 -34 -17 -63t-46 -45.5t-64 -16.5q-52 0 -89 36.5t-37 88.5h36q0 -41 26.5 -68.5t64 -27.5t64 27.5t26.5 68.5zM676 35l56 -5v-30h-205v24q0 5 5 5l73 7q7 0 10 5.5t1 11.5l-68 164h-347l-74 -180l91 -7v-30h-190v25q0 5 5 5l46 4
q6 1 8 7l272 658l41 2zM216 254h318l-159 387z" />
    <glyph glyph-name="abrevegrave" unicode="&#x1eb1;" horiz-adv-x="563" 
d="M289 707h-41l-114 142h53zM349 702h36q0 -52 -36.5 -88.5t-89.5 -36.5q-35 0 -64 16.5t-46 45.5t-17 63h36q0 -41 26.5 -68.5t64 -27.5t64 27.5t26.5 68.5zM256 510q73 0 120 -41t47 -129v-295q0 -10 10 -11l71 -6v-28h-113q-6 0 -6 6l-1 58q-65 -74 -172 -74
q-71 0 -114.5 36t-43.5 95q0 56 37 84t125 52l165 44v39q0 74 -35 106.5t-93 32.5q-64 -1 -127 -35q-5 -3 -6 -8l-7 -85h-25v105q0 3 2 4q78 49 166 50zM381 273l-155 -42q-50 -13 -76 -25.5t-39.5 -32t-13.5 -49.5q0 -47 33.5 -74.5t91.5 -27.5q99 0 155 74l4 5v172z" />
    <glyph glyph-name="Abrevehookabove" unicode="&#x1eb2;" horiz-adv-x="760" 
d="M381 1099q50 0 84.5 -25t34.5 -61q0 -29 -15 -47.5t-42 -33.5q-2 -1 -9.5 -5t-9.5 -5t-7.5 -4.5t-6.5 -5t-4.5 -5t-4.5 -6.5t-2 -7t-1 -8v-15h-34l-1 17q0 6 1 11.5t3.5 10.5t3.5 8.5t6 7.5t7 6t9 6.5t8.5 5t10.5 5.5t10 6q14 7 22 13.5t13 17.5t5 27q0 26 -22.5 42.5
t-59.5 16.5q-35 0 -61 -16l-18 21q31 22 80 22zM471 902h36q0 -25 -10 -48.5t-27 -40t-40.5 -26.5t-49.5 -10q-52 0 -89 36.5t-37 88.5h36q0 -41 26.5 -68.5t64 -27.5t64 27.5t26.5 68.5zM676 35l56 -5v-30h-205v24q0 5 5 5l73 7q7 0 10 5.5t1 11.5l-68 164h-347l-74 -180
l91 -7v-30h-190v25q0 5 5 5l46 4q6 1 8 7l272 658l41 2zM216 254h318l-159 387z" />
    <glyph glyph-name="abrevehookabove" unicode="&#x1eb3;" horiz-adv-x="563" 
d="M259 917q49 0 83.5 -25t34.5 -61q0 -29 -15 -47.5t-42 -33.5q-2 -1 -7.5 -4t-8 -4t-6.5 -3.5t-6 -4t-5 -4t-4 -4l-3 -4.5t-2.5 -5.5t-1 -5.5t-0.5 -7l-1 -14l-34 -1v18q0 6 0.5 11t3 10t4 8.5t6.5 8t6.5 6t8.5 6t8.5 5.5t10.5 5.5l11 5.5q10 6 16.5 10.5t12 11t8.5 15.5
t3 21q0 26 -22.5 42.5t-60.5 16.5q-34 0 -61 -16l-18 22q32 21 81 21zM349 702h36q0 -34 -16.5 -63t-46 -45.5t-64 -16.5t-63.5 16.5t-46 45.5t-17 63h36q0 -41 26.5 -68.5t64.5 -27.5q18 0 34.5 7.5t29 20t19.5 30.5t7 38zM256 510q73 0 120 -41t47 -129v-295q0 -10 10 -11
l71 -6v-28h-113q-6 0 -6 6l-1 58q-65 -74 -172 -74q-71 0 -114.5 36t-43.5 95q0 56 37 84t125 52l165 44v39q0 74 -35 106.5t-93 32.5q-64 -1 -127 -35q-5 -3 -6 -8l-7 -85h-25v105q0 3 2 4q78 49 166 50zM381 273l-155 -42q-73 -20 -101 -41.5t-28 -65.5q0 -47 33.5 -74.5
t91.5 -27.5q99 0 155 74l4 5v172z" />
    <glyph glyph-name="Abrevetilde" unicode="&#x1eb4;" horiz-adv-x="760" 
d="M475 999l34 -7q-5 -28 -22.5 -45.5t-41.5 -19.5q-26 -2 -65 16q-8 4 -23.5 12t-24.5 12t-16 5q-4 0 -8 -1.5t-8 -6.5t-7.5 -14t-7.5 -22l-33 8q13 64 57 65q7 0 14.5 -1.5t17 -5.5t14 -6t16.5 -8t13 -6q37 -19 55 -16q23 3 36 41zM471 874h36q0 -34 -17 -63t-46 -45.5
t-64 -16.5q-52 0 -89 36.5t-37 88.5h36q0 -41 26.5 -68.5t64 -27.5t64 27.5t26.5 68.5zM676 35l56 -5v-30h-205v24q0 5 5 5l73 7q7 0 10 5.5t1 11.5l-68 164h-347l-74 -180l91 -7v-30h-190v25q0 5 5 5l46 4q6 1 8 7l272 658l41 2zM216 254h318l-159 387z" />
    <glyph glyph-name="abrevetilde" unicode="&#x1eb5;" horiz-adv-x="563" 
d="M354 804l34 -8q-6 -28 -23 -45t-41 -19q-27 -3 -66 16q-8 3 -23 11t-24.5 12.5t-15.5 4.5q-10 1 -17 -8.5t-14 -35.5l-34 8q14 64 58 65q6 0 13.5 -1t17 -5t14 -6t16.5 -8t13 -7q37 -18 56 -16q23 3 36 42zM349 702h36q0 -52 -36.5 -88.5t-89.5 -36.5t-90 36.5t-37 88.5
h36q0 -41 26.5 -68.5t64 -27.5t64 27.5t26.5 68.5zM256 510q73 0 120 -41t47 -129v-295q0 -10 10 -11l71 -6v-28h-113q-6 0 -6 5l-1 59q-65 -74 -172 -74q-71 0 -114.5 36t-43.5 95q0 56 37 84t125 52l165 44v39q0 74 -35 106.5t-93 32.5q-64 -1 -127 -35q-5 -3 -6 -8
l-7 -85h-25v105q0 3 2 4q78 49 166 50zM381 273l-155 -42q-73 -20 -101 -41.5t-28 -65.5q0 -47 33.5 -74.5t91.5 -27.5q99 0 155 74l4 5v172z" />
    <glyph glyph-name="Abrevedotbelow" unicode="&#x1eb6;" horiz-adv-x="760" 
d="M471 902h36q0 -52 -37 -88.5t-89.5 -36.5t-89.5 36.5t-37 88.5h36q0 -41 26.5 -68.5t64 -27.5t64 27.5t26.5 68.5zM676 35l56 -5v-30h-205v24q0 5 5 5l73 7q7 0 10 5.5t1 11.5l-68 164h-347l-74 -180l91 -7v-30h-190v25q0 5 5 5l46 4q6 1 8 7l272 658l41 2zM216 254h318
l-159 387zM377.5 -96q11.5 0 20 -9t8.5 -20q0 -7 -3.5 -13.5t-10.5 -10.5t-15 -4q-11 0 -19.5 8.5t-8.5 19.5t8.5 20t20 9z" />
    <glyph glyph-name="abrevedotbelow" unicode="&#x1eb7;" horiz-adv-x="563" 
d="M349 702h36q0 -25 -10 -48.5t-26.5 -40t-40 -26.5t-49.5 -10q-35 0 -64 16.5t-45.5 45.5t-16.5 63h35q0 -41 26.5 -68.5t64 -27.5t64 27.5t26.5 68.5zM256 510q35 0 64 -9.5t52.5 -28.5t37 -53t13.5 -79v-295q0 -10 10 -11l71 -6v-28h-113q-6 0 -6 6l-1 58
q-65 -74 -172 -74q-71 0 -114.5 36t-43.5 95q0 56 37 84t125 52l165 44v39q0 38 -10 65.5t-28 43t-40 23t-50 7.5q-64 -1 -127 -35q-5 -3 -6 -8l-7 -85h-25v105q0 3 2 4q78 49 166 50zM381 273l-155 -42q-73 -20 -101 -41.5t-28 -65.5q0 -47 33.5 -74.5t91.5 -27.5
q99 0 155 74l4 5v172zM259 -96q12 0 20.5 -9t8.5 -20q0 -7 -4 -13.5t-10.5 -10.5t-14.5 -4q-12 0 -20.5 8.5t-8.5 19.5t8.5 20t20.5 9z" />
    <glyph glyph-name="Edotbelow" unicode="&#x1eb8;" horiz-adv-x="579" 
d="M74 700h443q6 0 6 -6v-123h-29l-7 82q-1 10 -11 10h-275v-289h243v-35h-243v-302h294q11 0 12 10l6 82h29v-123q0 -6 -6 -6h-462v25q0 5 5 5l65 6q10 0 10 11v606q0 11 -10 11l-65 6q-5 0 -5 6v24zM290 -96q12 0 20.5 -9t8.5 -20q0 -7 -4 -13.5t-10.5 -10.5t-14.5 -4
t-14.5 4t-10 10.5t-3.5 13.5q0 12 8 20.5t20 8.5z" />
    <glyph glyph-name="edotbelow" unicode="&#x1eb9;" horiz-adv-x="549" 
d="M282 510q73 0 121.5 -31.5t71 -85t24.5 -130.5v-8q0 -9 -10 -9l-391 -3q2 -101 53.5 -161.5t136.5 -60.5q104 0 169 66l18 -26q-31 -32 -80 -51.5t-109 -19.5q-104 0 -167.5 72t-63.5 188q0 77 28 136t79.5 91.5t119.5 32.5zM282 480q-80 0 -129.5 -56t-54.5 -152h351
q7 0 6 7q-8 201 -173 201zM274.5 -96q11.5 0 20 -9t8.5 -20q0 -7 -3.5 -13.5t-10.5 -10.5t-14.5 -4t-14.5 4t-10.5 10.5t-3.5 13.5q0 11 8.5 20t20 9z" />
    <glyph glyph-name="Ehookabove" unicode="&#x1eba;" horiz-adv-x="579" 
d="M298 1005q50 0 84 -25t34 -61q0 -20 -8 -36t-19 -25.5t-29 -19.5q-2 -1 -9.5 -5t-9.5 -5t-7.5 -4.5t-7 -5t-4.5 -5t-4 -6.5t-2 -7t-1 -8v-15h-34l-1 17q0 17 8 29t16.5 18t27.5 16q5 2 7 4q21 11 30.5 23t9.5 35q0 26 -22.5 42.5t-59.5 16.5q-35 0 -61 -16l-18 21
q31 22 80 22zM74 700h443q6 0 6 -6v-123h-29l-7 82q-1 10 -11 10h-275v-289h243v-35h-243v-302h294q11 0 12 10l6 82h29v-123q0 -6 -6 -6h-462v24q0 6 5 6l65 6q10 0 10 11v606q0 11 -10 11l-65 6q-5 0 -5 5v25z" />
    <glyph glyph-name="ehookabove" unicode="&#x1ebb;" horiz-adv-x="557" 
d="M282 794q32 0 59.5 -11.5t43 -31.5t15.5 -44q0 -15 -4.5 -27.5t-12.5 -22t-17.5 -16.5t-21.5 -14q-3 -2 -10.5 -6t-9.5 -5t-7 -4.5t-6.5 -5l-5 -5t-4 -6t-1.5 -6.5t-1 -9l-1 -14h-34v17q0 5 0.5 10t1.5 9t4 8.5t4.5 7t6.5 6t7 5.5t8 5.5t8 4.5t9.5 5t9.5 5q20 11 30 23.5
t10 34.5q0 26 -22.5 42.5t-60.5 16.5q-34 0 -61 -15l-18 21q32 22 81 22zM282 510q108 0 161 -65t56 -182v-8q0 -9 -10 -9l-391 -3q2 -101 53.5 -161.5t136.5 -60.5q104 0 169 66l18 -26q-31 -32 -80 -51.5t-109 -19.5q-104 0 -167.5 72t-63.5 188t62 188t165 72zM282 480
q-80 0 -129.5 -56t-54.5 -152h351q7 0 6 7q-8 201 -173 201z" />
    <glyph glyph-name="Etilde" unicode="&#x1ebc;" horiz-adv-x="579" 
d="M414 864l33 -7q-5 -28 -22 -45.5t-41 -19.5q-27 -3 -66 16q-8 4 -23 12t-24.5 12t-16 4.5t-11 -3t-9.5 -13.5t-10 -28l-34 8q14 64 57 66q7 0 14.5 -1.5t17 -5.5t14 -6t16.5 -8t13 -7q37 -18 55 -16q24 3 37 42zM74 700h443q6 0 6 -6v-123h-29l-7 82q-1 10 -11 10h-275
v-289h243v-35h-243v-302h294q11 0 12 10l6 82h29v-123q0 -6 -6 -6h-462v24q0 6 5 6l65 6q10 0 10 11v606q0 11 -10 11l-65 6q-5 0 -5 5v25z" />
    <glyph glyph-name="etilde" unicode="&#x1ebd;" horiz-adv-x="549" 
d="M377 664l34 -7q-6 -28 -23 -45.5t-41 -19.5q-27 -3 -66 16q-7 4 -22.5 12t-25 12t-15.5 4q-10 1 -17 -8.5t-14 -35.5l-34 8q14 64 58 66q7 0 14 -1.5t17 -5.5t14.5 -6t16 -8t12.5 -7q37 -18 56 -16q23 3 36 42zM282 510q55 0 96.5 -17.5t67 -50.5t38.5 -77.5t15 -101.5
v-8q0 -9 -10 -9l-391 -3q2 -101 53.5 -161.5t136.5 -60.5q104 0 169 66l18 -26q-31 -32 -80 -51.5t-109 -19.5q-69 0 -121.5 33t-81 92t-28.5 135.5t28 135.5t79.5 91.5t119.5 32.5zM282 480q-80 0 -129.5 -56t-54.5 -152h351q7 0 6 7q-8 201 -173 201z" />
    <glyph glyph-name="Ecircumflexacute" unicode="&#x1ebe;" horiz-adv-x="579" 
d="M490 845h-41l101 142h54zM449 777h-41l-89 114l-90 -114h-41l103 142h56zM74 700h443q6 0 6 -6v-123h-29l-7 82q-1 10 -11 10h-275v-289h243v-35h-243v-302h294q11 0 12 10l6 82h29v-123q0 -6 -6 -6h-462v24q0 6 5 6l65 6q10 0 10 11v606q0 11 -10 11l-65 6q-5 0 -5 5v25
z" />
    <glyph glyph-name="ecircumflexacute" unicode="&#x1ebf;" horiz-adv-x="549" 
d="M415 700h-41l101 142h54zM412 577h-41l-89 114l-89 -114h-41l102 142h56zM282 510q108 0 161 -65t56 -182v-8q0 -9 -10 -9l-391 -3q2 -101 53.5 -161.5t136.5 -60.5q104 0 169 66l18 -26q-31 -32 -80 -51.5t-109 -19.5q-104 0 -167.5 72t-63.5 188q0 77 28 136t79.5 91.5
t119.5 32.5zM282 480q-80 0 -129.5 -56t-54.5 -152h351q7 0 6 7q-8 201 -173 201z" />
    <glyph glyph-name="Ecircumflexgrave" unicode="&#x1ec0;" horiz-adv-x="579" 
d="M536 845h-41l-114 142h54zM449 777h-41l-89 114l-90 -114h-41l103 142h56zM74 700h443q6 0 6 -6v-123h-29l-7 82q-1 10 -11 10h-275v-289h243v-35h-243v-302h294q11 0 12 10l6 82h29v-123q0 -6 -6 -6h-462v25q0 5 5 5l65 6q10 0 10 11v606q0 11 -10 11l-65 6q-5 0 -5 6
v24z" />
    <glyph glyph-name="ecircumflexgrave" unicode="&#x1ec1;" horiz-adv-x="549" 
d="M415 700h-41l-114 142h54zM412 577h-41l-89 114l-89 -114h-41l102 142h56zM282 510q108 0 161 -65t56 -182v-8q0 -9 -10 -9l-391 -3q2 -101 53.5 -161.5t136.5 -60.5q104 0 169 66l18 -26q-31 -32 -80 -51.5t-109 -19.5q-104 0 -167.5 72t-63.5 188q0 77 28 136
t79.5 91.5t119.5 32.5zM282 480q-80 0 -129.5 -56t-54.5 -152h351q7 0 6 7q-8 201 -173 201z" />
    <glyph glyph-name="Ecircumflexhookabove" unicode="&#x1ec2;" horiz-adv-x="579" 
d="M514 1005q19 0 37 -4t32.5 -12t25.5 -18.5t17 -24t6 -27.5q0 -20 -8.5 -36t-19.5 -25.5t-29 -19.5q-2 -1 -8.5 -4.5t-8.5 -4.5t-7 -4t-6.5 -4.5t-4.5 -4t-4 -5t-3 -5.5t-2.5 -6.5t-0.5 -7.5v-15h-34v17q-1 7 0 12t3.5 10t3.5 8.5t6.5 7.5t7 6t8.5 6.5t8.5 5.5t10.5 5.5
t10 5.5q21 11 31 23.5t10 34.5q0 26 -23 42.5t-60 16.5q-34 0 -61 -16l-18 22q32 21 81 21zM449 777h-41l-89 114l-90 -114h-41l103 142h56zM74 700h443q6 0 6 -6v-123h-29l-7 82q-1 10 -11 10h-275v-289h243v-35h-243v-302h294q11 0 12 10l6 82h29v-123q0 -6 -6 -6h-462v24
q0 6 5 6l65 6q10 0 10 11v606q0 11 -10 11l-65 6q-5 0 -5 5v25z" />
    <glyph glyph-name="ecircumflexhookabove" unicode="&#x1ec3;" horiz-adv-x="549" 
d="M391 917q50 0 84 -25t34 -61q0 -29 -14.5 -47.5t-41.5 -33.5l-10 -5t-9.5 -5t-7 -4.5t-7 -5t-4.5 -5t-4 -6.5t-2 -7t-1 -8v-14l-34 -1l-1 18q0 6 0.5 11t3 10t4 8.5t6.5 8t6.5 6t9 6t9 5.5t10.5 5.5t10 5.5q14 7 21.5 13.5t13 18t5.5 26.5q0 26 -22.5 42.5t-59.5 16.5
q-35 0 -61 -16l-19 22q32 21 81 21zM404 577h-41l-90 114l-89 -114h-41l103 142h55zM282 510q108 0 161 -65t56 -182v-8q0 -9 -10 -9l-391 -3q2 -101 53.5 -161.5t136.5 -60.5q104 0 169 66l18 -26q-31 -32 -80 -51.5t-109 -19.5q-69 0 -121.5 33t-81 92t-28.5 135.5
t28 135.5t79.5 91.5t119.5 32.5zM282 480q-80 0 -130 -56t-54 -152h351q7 0 6 7q-8 201 -173 201z" />
    <glyph glyph-name="Ecircumflextilde" unicode="&#x1ec4;" horiz-adv-x="579" 
d="M414 1029l33 -8q-3 -18 -12 -32.5t-22 -22.5t-29 -10q-27 -2 -66 17q-8 3 -23 11t-24.5 12.5t-15.5 4.5q-5 0 -9 -1.5t-7.5 -6.5t-7.5 -14t-7 -22l-34 8q14 64 57 65q7 0 14.5 -1.5t17 -5t14 -5.5t16.5 -8t13 -7q37 -18 55 -16q24 3 37 42zM449 777h-41l-89 114l-90 -114
h-41l103 142h56zM74 700h443q6 0 6 -6v-123h-29l-7 82q-1 10 -11 10h-275v-289h243v-35h-243v-302h294q11 0 12 10l6 82h29v-123q0 -6 -6 -6h-462v25q0 5 5 5l65 6q10 0 10 11v606q0 11 -10 11l-65 6q-5 0 -5 6v24z" />
    <glyph glyph-name="ecircumflextilde" unicode="&#x1ec5;" horiz-adv-x="549" 
d="M377 815l34 -7q-4 -19 -13 -33t-22 -22.5t-29 -9.5q-27 -3 -66 16q-6 3 -14.5 7.5t-14.5 7.5t-12.5 6t-12 5t-9.5 2q-10 1 -17 -8.5t-14 -35.5l-34 8q14 64 58 66q5 0 12 -1.5t12.5 -3.5t13.5 -5t12.5 -5.5t13 -6.5t10.5 -5q37 -19 56 -16q23 2 36 41zM412 577h-41
l-89 114l-89 -114h-41l102 142h56zM282 510q108 0 161 -65t56 -182v-8q0 -9 -10 -9l-391 -3q2 -101 53.5 -161.5t136.5 -60.5q104 0 169 66l18 -26q-31 -32 -80 -51.5t-109 -19.5q-69 0 -121.5 33t-81 92t-28.5 135.5t28 135.5t79.5 91.5t119.5 32.5zM282 480
q-80 0 -129.5 -56t-54.5 -152h351q7 0 6 7q-8 201 -173 201z" />
    <glyph glyph-name="Ecircumflexdotbelow" unicode="&#x1ec6;" horiz-adv-x="579" 
d="M449 777h-41l-89 114l-90 -114h-41l103 142h56zM74 700h443q6 0 6 -6v-123h-29l-7 82q-1 10 -11 10h-275v-289h243v-35h-243v-302h294q11 0 12 10l6 82h29v-123q0 -6 -6 -6h-462v24q0 6 5 6l65 6q10 0 10 11v606q0 11 -10 11l-65 6q-5 0 -5 5v25zM290 -96q12 0 20.5 -9
t8.5 -20q0 -7 -4 -13.5t-10.5 -10.5t-14.5 -4q-6 0 -11.5 2.5t-9 6.5t-5.5 9t-2 10q0 12 8 20.5t20 8.5z" />
    <glyph glyph-name="ecircumflexdotbelow" unicode="&#x1ec7;" horiz-adv-x="549" 
d="M412 577h-41l-89 114l-89 -114h-41l102 142h56zM282 510q108 0 161 -65t56 -182v-8q0 -9 -10 -9l-391 -3q2 -101 53.5 -161.5t136.5 -60.5q104 0 169 66l18 -26q-20 -21 -47.5 -36.5t-64 -25t-77.5 -9.5q-69 0 -121.5 33t-81 92t-28.5 135.5t28 135.5t79.5 91.5
t119.5 32.5zM282 480q-80 0 -129.5 -56t-54.5 -152h351q7 0 6 7q-8 201 -173 201zM274.5 -96q11.5 0 20 -9t8.5 -20q0 -7 -3.5 -13.5t-10.5 -10.5t-15 -4q-11 0 -19.5 8.5t-8.5 19.5t8.5 20t20 9z" />
    <glyph glyph-name="Ihookabove" unicode="&#x1ec8;" horiz-adv-x="358" 
d="M176 1005q50 0 84 -25t34 -61q0 -29 -14.5 -47.5t-41.5 -33.5l-10 -5t-9.5 -5t-7 -4.5t-7 -5t-4.5 -5t-4 -6.5t-2 -7t-1 -8v-15h-34l-1 17q0 6 0.5 11.5t3 10.5t4 8.5t6.5 7.5t6.5 6t9 6.5t9 5.5t10.5 5.5t10 5.5q21 11 30.5 23t9.5 35q0 12 -6 23t-16.5 19t-26 12.5
t-33.5 4.5q-35 0 -61 -16l-19 21q32 22 81 22zM284 670l-71 -6q-11 -1 -11 -11v-606q0 -10 11 -11l71 -6v-30h-210v25q0 5 5 5l66 6q10 1 10 11v606q0 10 -10 11l-66 6q-5 0 -5 5v25h210v-30z" />
    <glyph glyph-name="ihookabove" unicode="&#x1ec9;" horiz-adv-x="340" 
d="M161 794q33 0 60 -11.5t43 -31.5t16 -44q0 -29 -15 -47.5t-42 -32.5q-2 -2 -9.5 -6t-9.5 -5t-7.5 -4.5t-6.5 -5t-4.5 -5t-4.5 -6t-2 -6.5t-1 -9v-14h-34l-1 17q0 32 35 53q2 1 24 13q21 11 30.5 23.5t9.5 34.5q0 26 -22.5 42.5t-59.5 16.5q-34 0 -61 -15l-18 21
q31 22 80 22zM74 499l106 6q6 0 6 -6v-454q0 -10 11 -11l75 -6v-28h-198v23q0 5 5 6l55 4q10 1 10 12v413q0 11 -11 11l-59 3v27z" />
    <glyph glyph-name="Idotbelow" unicode="&#x1eca;" horiz-adv-x="358" 
d="M284 670l-71 -6q-11 -1 -11 -11v-606q0 -10 11 -11l71 -6v-30h-210v24q0 6 5 6l66 6q10 1 10 11v606q0 10 -10 11l-66 6q-5 0 -5 6v24h210v-30zM180 -96q6 0 11 -2.5t9 -6.5t6 -9t2 -11q0 -7 -3.5 -13.5t-10 -10.5t-14.5 -4q-12 0 -20.5 8.5t-8.5 19.5t8.5 20t20.5 9z
" />
    <glyph glyph-name="idotbelow" unicode="&#x1ecb;" horiz-adv-x="340" 
d="M164 707q12 0 21 -9t9 -21t-9 -21t-21 -9t-21 9t-9 21t9 21t21 9zM74 499l106 6q6 0 6 -6v-454q0 -10 11 -11l75 -6v-28h-198v23q0 5 5 6l55 4q10 1 10 12v413q0 11 -11 11l-59 3v27zM164 -96q6 0 11 -2.5t9 -6.5t6 -9t2 -11q0 -7 -3.5 -13.5t-10 -10.5t-14.5 -4
q-12 0 -20.5 8.5t-8.5 19.5t8.5 20t20.5 9z" />
    <glyph glyph-name="Odotbelow" unicode="&#x1ecc;" horiz-adv-x="783" 
d="M391.5 709q151.5 0 243.5 -99t92 -260t-92.5 -260.5t-243.5 -99.5t-243 99.5t-92 260.5t92 260t243.5 99zM391.5 672q-129.5 0 -208 -87.5t-78.5 -235t78.5 -235t208 -87.5t208 87.5t78.5 235t-78.5 235t-208 87.5zM391 -96q12 0 20.5 -9t8.5 -20q0 -7 -3.5 -13.5
t-10.5 -10.5t-15 -4q-11 0 -19.5 8.5t-8.5 19.5q0 12 8 20.5t20 8.5z" />
    <glyph glyph-name="odotbelow" unicode="&#x1ecd;" 
d="M300 510q55 0 101 -19t77.5 -53t49 -82.5t17.5 -105.5q0 -116 -67 -188t-178 -72t-178 72t-67 188t67 188t178 72zM300 479q-91 0 -146.5 -62t-55.5 -167t55.5 -167t146.5 -62t147 62t56 167q0 69 -25.5 121t-71.5 80t-106 28zM300 -96q12 0 20 -9t8 -20q0 -7 -3.5 -13.5
t-10 -10.5t-14.5 -4q-12 0 -20.5 8.5t-8.5 19.5t8.5 20t20.5 9z" />
    <glyph glyph-name="Ohookabove" unicode="&#x1ece;" horiz-adv-x="783" 
d="M394 1005q49 0 83.5 -25t34.5 -61q0 -29 -15 -47.5t-41 -33.5q-3 -1 -10.5 -5t-9.5 -5t-7 -4.5t-6.5 -5l-5 -5t-4 -6.5t-1.5 -7t-1 -8l-1 -15h-34v17q0 6 0.5 11.5t3 10.5t4 8.5t6.5 7.5t6.5 6t8.5 6.5t8.5 5.5t10.5 5.5l11 5.5q20 11 30 23t10 35q0 26 -22.5 42.5
t-60.5 16.5q-34 0 -61 -16l-18 21q32 22 81 22zM391.5 709q151.5 0 243.5 -99t92 -260t-92.5 -260.5t-243.5 -99.5t-243 99.5t-92 260.5t92 260t243.5 99zM391.5 672q-129.5 0 -208 -87.5t-78.5 -235t78.5 -235t208 -87.5t208 87.5t78.5 235t-78.5 235t-208 87.5z" />
    <glyph glyph-name="ohookabove" unicode="&#x1ecf;" 
d="M300 794q49 0 83.5 -25.5t34.5 -61.5q0 -29 -15 -47.5t-41 -32.5q-3 -2 -10.5 -6t-9.5 -5t-7 -4.5t-6.5 -5l-5 -5t-4 -6t-1.5 -6.5t-1 -9l-1 -14h-34v17q0 5 0.5 10t1.5 9t4 8.5t4.5 7t6.5 6t7 5.5t8 5.5t8 4.5t9 5t10 5q13 8 21 14.5t13.5 17.5t5.5 26q0 26 -22.5 42.5
t-60.5 16.5q-34 0 -61 -15l-18 21q32 22 81 22zM300 510q55 0 101 -19t77.5 -53t49 -82.5t17.5 -105.5q0 -116 -67 -188t-178 -72t-178 72t-67 188t67 188t178 72zM300 479q-91 0 -146.5 -62t-55.5 -167t55.5 -167t146.5 -62t146.5 62t55.5 167q0 69 -25 121t-71 80t-106 28
z" />
    <glyph glyph-name="Ocircumflexacute" unicode="&#x1ed0;" horiz-adv-x="783" 
d="M567 817h-41l101 142h54zM521 748h-40l-90 115l-89 -115h-41l102 143h56zM391 709q152 0 244 -99t92 -260t-92.5 -260.5t-243.5 -99.5t-243 99.5t-92 260.5q0 106 41.5 187.5t118 126.5t175.5 45zM391.5 672q-129.5 0 -208 -87.5t-78.5 -234.5q0 -98 35.5 -171
t100.5 -112.5t150 -39.5q130 0 208.5 87.5t78.5 235t-78.5 235t-208 87.5z" />
    <glyph glyph-name="ocircumflexacute" unicode="&#x1ed1;" 
d="M433 700h-41l101 142h54zM430 577h-40l-90 114l-89 -114h-41l102 142h56zM300 510q111 0 178 -72t67 -188t-67 -188t-178 -72t-178 72t-67 188t67 188t178 72zM300 479q-91 0 -146.5 -62t-55.5 -167t55.5 -167t146.5 -62t147 62t56 167t-56 167t-147 62z" />
    <glyph glyph-name="Ocircumflexgrave" unicode="&#x1ed2;" horiz-adv-x="783" 
d="M600 817h-41l-114 142h54zM521 748h-40l-90 115l-89 -115h-41l102 143h56zM391 709q152 0 244 -99t92 -260t-92.5 -260.5t-243.5 -99.5t-243 99.5t-92 260.5q0 106 41.5 187.5t118 126.5t175.5 45zM391.5 672q-129.5 0 -208 -87.5t-78.5 -235t78.5 -235t208 -87.5
t208 87.5t78.5 235t-78.5 235t-208 87.5z" />
    <glyph glyph-name="ocircumflexgrave" unicode="&#x1ed3;" 
d="M434 700h-41l-115 142h54zM430 577h-40l-90 114l-89 -114h-41l102 142h56zM300 510q111 0 178 -72t67 -188t-67 -188t-178 -72t-178 72t-67 188t67 188t178 72zM300 479q-91 0 -146.5 -62t-55.5 -167t55.5 -167t146.5 -62t146.5 62t55.5 167t-55.5 167t-146.5 62z" />
    <glyph glyph-name="Ocircumflexhookabove" unicode="&#x1ed4;" horiz-adv-x="783" 
d="M579 984q50 0 84 -25t34 -62q0 -28 -14.5 -46.5t-41.5 -33.5q-2 -2 -9.5 -6t-9.5 -5t-7.5 -4t-7 -5t-4.5 -5t-4 -6t-2 -7t-1 -9v-14h-34l-1 17q0 6 0.5 11.5t3.5 10.5t4 8t6 7.5t6.5 6.5t9 6t9 5t10.5 6t10 6q21 11 30.5 23t9.5 34q0 27 -22.5 43.5t-59.5 16.5
q-35 -1 -61 -16l-18 21q31 22 80 22zM521 748h-40l-90 115l-89 -115h-41l102 143h56zM391 709q100 0 176.5 -45t118 -126.5t41.5 -187.5q0 -161 -92.5 -260.5t-243.5 -99.5t-243 99.5t-92 260.5t92 260t243 99zM391.5 672q-129.5 0 -208 -87.5t-78.5 -234.5q0 -98 35.5 -171
t100.5 -112.5t150 -39.5q130 0 208.5 87.5t78.5 235t-78.5 235t-208 87.5z" />
    <glyph glyph-name="ocircumflexhookabove" unicode="&#x1ed5;" 
d="M418 917q50 0 84 -25t34 -61q0 -29 -14.5 -47.5t-41.5 -33.5q-3 -1 -8.5 -4t-7.5 -4t-6.5 -3.5t-6 -4t-4.5 -4t-4.5 -4t-3.5 -4.5t-2.5 -5.5t-1 -5.5t-0.5 -7l-1 -14l-33 -1l-1 18q0 6 0.5 11t3 10t4 8.5t6.5 8t6.5 6t9 6t9 5.5t10.5 5.5t10 5.5q13 7 21 13.5t13.5 18
t5.5 26.5q0 26 -22.5 42.5t-60.5 16.5q-34 0 -61 -16l-18 22q32 21 81 21zM430 577h-40l-90 114l-89 -114h-41l102 142h56zM300 510q55 0 101 -19t77.5 -53t49 -82.5t17.5 -105.5q0 -116 -67 -188t-178 -72t-178 72t-67 188t67 188t178 72zM300 479q-60 0 -106 -28t-71 -80
t-25 -121q0 -105 55.5 -167t146.5 -62t146.5 62t55.5 167q0 69 -25 121t-71 80t-106 28z" />
    <glyph glyph-name="Ocircumflextilde" unicode="&#x1ed6;" horiz-adv-x="783" 
d="M486 1028l34 -7q-6 -28 -23 -45t-41 -20q-27 -2 -66 17q-7 3 -22.5 11t-25 12t-15.5 5q-9 1 -16.5 -8.5t-14.5 -35.5l-33 8q13 64 57 65q7 0 14.5 -1.5t17 -5t14 -5.5t16.5 -8t13 -7q37 -18 55 -16q23 3 36 41zM521 777h-40l-90 114l-89 -114h-41l102 142h56zM391.5 709
q151.5 0 243.5 -99t92 -260t-92.5 -260.5t-243.5 -99.5t-243 99.5t-92 260.5t92 260t243.5 99zM391.5 672q-129.5 0 -208 -87.5t-78.5 -235t78.5 -235t208 -87.5t208 87.5t78.5 235t-78.5 235t-208 87.5z" />
    <glyph glyph-name="ocircumflextilde" unicode="&#x1ed7;" 
d="M395 815l34 -7q-6 -28 -23 -45.5t-41 -19.5q-27 -3 -66 16q-7 4 -22.5 12t-25 12t-15.5 4q-9 1 -16.5 -8.5t-14.5 -35.5l-33 8q13 64 57 66q6 0 12.5 -1.5t12 -3.5t13.5 -5t12.5 -5.5t13 -6.5t11.5 -5q37 -19 55 -16q23 2 36 41zM430 577h-40l-90 114l-89 -114h-41
l102 142h56zM300 510q73 0 129 -32.5t86 -91.5t30 -136q0 -116 -67 -188t-178 -72t-178 72t-67 188t67 188t178 72zM300 479q-91 0 -146.5 -62t-55.5 -167t55.5 -167t146.5 -62t146.5 62t55.5 167q0 69 -25 121t-71 80t-106 28z" />
    <glyph glyph-name="Ocircumflexdotbelow" unicode="&#x1ed8;" horiz-adv-x="783" 
d="M521 777h-40l-90 114l-89 -114h-41l102 142h56zM391 709q100 0 176.5 -45t118 -126.5t41.5 -187.5q0 -161 -92.5 -260.5t-243.5 -99.5t-243 99.5t-92 260.5t92 260t243 99zM391.5 672q-129.5 0 -208 -87.5t-78.5 -234.5q0 -98 35.5 -171t100.5 -112.5t150 -39.5
q130 0 208.5 87.5t78.5 235t-78.5 235t-208 87.5zM391 -96q12 0 20.5 -9t8.5 -20q0 -7 -3.5 -13.5t-10.5 -10.5t-15 -4q-11 0 -19.5 8.5t-8.5 19.5t8 20t20 9z" />
    <glyph glyph-name="ocircumflexdotbelow" unicode="&#x1ed9;" 
d="M430 577h-40l-90 114l-89 -114h-41l102 142h56zM300 510q111 0 178 -72t67 -188t-67 -188t-178 -72t-178 72t-67 188t67 188t178 72zM300 479q-91 0 -146.5 -62t-55.5 -167t55.5 -167t146.5 -62t146.5 62t55.5 167t-55.5 167t-146.5 62zM300 -96q12 0 20 -9t8 -20
q0 -7 -3.5 -13.5t-10 -10.5t-14.5 -4q-12 0 -20.5 8.5t-8.5 19.5t8.5 20t20.5 9z" />
    <glyph glyph-name="Ohornacute" unicode="&#x1eda;" horiz-adv-x="783" 
d="M402 777h-41l101 142h54zM696 830l37 13q32 -59 27 -114q-4 -46 -35 -73.5t-84 -28.5q-13 0 -25 2q35 -32 60 -74.5t38 -94.5t13 -110q0 -161 -92.5 -260.5t-243.5 -99.5t-243 99.5t-92 260.5t92 260t243 99q94 0 167 -41q32 -16 67 -16q87 0 95 77q5 48 -24 101z
M391 672q-85 0 -150 -39t-100.5 -112t-35.5 -171t35.5 -171t100.5 -112.5t150 -39.5q130 0 208.5 87.5t78.5 235t-78.5 235t-208.5 87.5z" />
    <glyph glyph-name="ohornacute" unicode="&#x1edb;" 
d="M311 577h-41l101 142h54zM546 633l32 11q33 -59 27 -114q-2 -22 -10.5 -40t-23 -31.5t-36.5 -21.5t-49 -8q59 -70 59 -179q0 -116 -67 -188t-178 -72t-178 72t-67 188t67 188t178 72q97 0 162 -57q8 -1 17 -1q41 1 64 22t27 56q6 49 -24 103zM300 479q-91 0 -146.5 -62
t-55.5 -167t55.5 -167t146.5 -62t147 62t56 167t-56 167t-147 62z" />
    <glyph glyph-name="Ohorngrave" unicode="&#x1edc;" horiz-adv-x="783" 
d="M421 777h-41l-114 142h54zM696 830l37 13q32 -59 27 -114q-3 -30 -17 -52.5t-40.5 -36t-61.5 -13.5q-13 0 -25 2q35 -32 60 -74.5t38 -94.5t13 -110q0 -161 -92.5 -260.5t-243.5 -99.5t-243 99.5t-92 260.5t92 260t243 99q94 0 167 -41q32 -16 67 -16q87 0 95 77
q5 48 -24 101zM391.5 672q-129.5 0 -208 -87.5t-78.5 -235t78.5 -235t208 -87.5t208 87.5t78.5 235t-78.5 235t-208 87.5z" />
    <glyph glyph-name="ohorngrave" unicode="&#x1edd;" 
d="M330 577h-41l-114 142h54zM546 633l32 11q33 -59 27 -114q-2 -22 -10.5 -40t-23 -31.5t-36.5 -21.5t-49 -8q59 -70 59 -179q0 -116 -67 -188t-178 -72t-178 72t-67 188t67 188t178 72q97 0 162 -57q8 -1 17 -1q41 1 64 22t27 56q6 49 -24 103zM300 479q-91 0 -146.5 -62
t-55.5 -167t55.5 -167t146.5 -62t147 62t56 167t-56 167t-147 62z" />
    <glyph glyph-name="Ohornhookabove" unicode="&#x1ede;" horiz-adv-x="783" 
d="M394 1005q49 0 83.5 -25t34.5 -61q0 -29 -15 -47.5t-41 -33.5q-3 -1 -10.5 -5t-9.5 -5t-7 -4.5t-6.5 -5l-5 -5t-4 -6.5t-1.5 -7t-1 -8l-1 -15h-34v17q0 6 0.5 11.5t3 10.5t4 8.5t6.5 7.5t6.5 6t8.5 6.5t8.5 5.5t10.5 5.5l11 5.5q20 11 30 23t10 35q0 26 -22.5 42.5
t-60.5 16.5q-34 0 -61 -16l-18 21q32 22 81 22zM696 830l37 13q32 -59 27 -114q-4 -46 -35 -73.5t-84 -28.5q-13 0 -25 2q35 -32 60 -74.5t38 -94.5t13 -110q0 -161 -92.5 -260.5t-243.5 -99.5t-243 99.5t-92 260.5t92 260t243 99q94 0 167 -41q32 -16 67 -16q87 0 95 77
q5 48 -24 101zM391.5 672q-129.5 0 -208 -87.5t-78.5 -235t78.5 -235t208 -87.5t208 87.5t78.5 235t-78.5 235t-208 87.5z" />
    <glyph glyph-name="ohornhookabove" unicode="&#x1edf;" 
d="M300 794q49 0 83.5 -25.5t34.5 -61.5q0 -29 -15 -47.5t-41 -32.5q-3 -2 -10.5 -6t-9.5 -5t-7 -4.5t-6.5 -5l-5 -5t-4 -6t-1.5 -6.5t-1 -9l-1 -14h-34v17q0 5 0.5 10t1.5 9t4 8.5t4.5 7t6.5 6t7 5.5t8 5.5t8 4.5t9 5t10 5q13 8 21 14.5t13.5 17.5t5.5 26q0 26 -22.5 42.5
t-60.5 16.5q-34 0 -61 -15l-18 21q32 22 81 22zM546 633l32 11q33 -59 27 -114q-4 -45 -34.5 -72.5t-84.5 -28.5q59 -70 59 -179q0 -116 -67 -188t-178 -72t-178 72t-67 188t67 188t178 72q97 0 162 -57q8 -1 17 -1q41 1 64 22t27 56q6 49 -24 103zM300 479
q-91 0 -146.5 -62t-55.5 -167t55.5 -167t146.5 -62t147 62t56 167t-56 167t-147 62z" />
    <glyph glyph-name="Ohorntilde" unicode="&#x1ee0;" horiz-adv-x="783" 
d="M486 864l34 -7q-6 -28 -23 -45.5t-41 -19.5q-27 -3 -66 16q-7 3 -18 9t-18 9.5t-14.5 6.5t-12.5 3q-6 1 -11 -2.5t-10 -13.5t-10 -28l-33 8q13 64 57 66q7 0 14.5 -1.5t17 -5.5t14 -6t16.5 -8t13 -7q37 -18 55 -16q23 3 36 42zM696 830l37 13q32 -59 27 -114
q-4 -46 -35 -73.5t-84 -28.5q-13 0 -25 2q35 -32 60 -74.5t38 -94.5t13 -110q0 -161 -92.5 -260.5t-243.5 -99.5t-243 99.5t-92 260.5t92 260t243 99q94 0 167 -41q32 -16 67 -16q87 0 95 77q5 48 -24 101zM391 672q-85 0 -150 -39t-100.5 -112t-35.5 -171
q0 -148 78.5 -235.5t208 -87.5t208 87.5t78.5 235t-78.5 235t-208.5 87.5z" />
    <glyph glyph-name="ohorntilde" unicode="&#x1ee1;" 
d="M395 664l34 -7q-6 -28 -23 -45.5t-41 -19.5q-27 -3 -66 16q-7 4 -22.5 12t-25 12t-15.5 4q-9 1 -16.5 -8.5t-14.5 -35.5l-33 8q13 64 57 66q7 0 14 -1.5t17 -5.5t14.5 -6t16 -8t13.5 -7q37 -18 55 -16q23 3 36 42zM546 633l32 11q33 -59 27 -114q-2 -22 -10.5 -40
t-23 -31.5t-36.5 -21.5t-49 -8q59 -70 59 -179q0 -116 -67 -188t-178 -72t-178 72t-67 188t67 188t178 72q97 0 162 -57q8 -1 17 -1q41 1 64 22t27 56q6 49 -24 103zM300 479q-91 0 -146.5 -62t-55.5 -167t55.5 -167t146.5 -62t147 62t56 167t-56 167t-147 62z" />
    <glyph glyph-name="Ohorndotbelow" unicode="&#x1ee2;" horiz-adv-x="783" 
d="M696 830l37 13q32 -59 27 -114q-3 -30 -17 -52.5t-40.5 -36t-61.5 -13.5q-13 0 -25 2q26 -24 47 -54t35 -65t21.5 -75.5t7.5 -84.5q0 -161 -92.5 -260.5t-243.5 -99.5t-243 99.5t-92 260.5t92 260t243 99q94 0 167 -41q32 -16 67 -16q87 0 95 77q5 48 -24 101zM391.5 672
q-129.5 0 -208 -87.5t-78.5 -234.5q0 -98 35.5 -171t100.5 -112.5t150 -39.5q130 0 208.5 87.5t78.5 235t-78.5 235t-208 87.5zM391 -96q12 0 20.5 -9t8.5 -20q0 -7 -3.5 -13.5t-10.5 -10.5t-15 -4q-11 0 -19.5 8.5t-8.5 19.5t8 20t20 9z" />
    <glyph glyph-name="ohorndotbelow" unicode="&#x1ee3;" 
d="M546 633l32 11q33 -59 27 -114q-4 -45 -34.5 -72.5t-84.5 -28.5q59 -70 59 -179q0 -116 -67 -188t-178 -72t-178 72t-67 188t67 188t178 72q97 0 162 -57q8 -1 17 -1q41 1 64 22t27 56q6 49 -24 103zM300 479q-91 0 -146.5 -62t-55.5 -167t55.5 -167t146.5 -62t147 62
t56 167t-56 167t-147 62zM300 -96q12 0 20 -9t8 -20q0 -7 -3.5 -13.5t-10 -10.5t-14.5 -4q-12 0 -20.5 8.5t-8.5 19.5t8.5 20t20.5 9z" />
    <glyph glyph-name="Udotbelow" unicode="&#x1ee4;" horiz-adv-x="833" 
d="M764 670l-70 -6q-10 -1 -10 -11v-381q0 -127 -73 -204.5t-192 -77.5t-192 77.5t-73 204.5v381q0 10 -10 11l-65 6q-5 0 -5 5v25h220v-30l-81 -7q-10 -1 -10 -11v-380q0 -113 59.5 -179t158.5 -66q100 0 162.5 66t62.5 179v379q0 11 -11 11l-87 8v30h216v-30zM416 -96
q12 0 20 -9t8 -20q0 -7 -3.5 -13.5t-10.5 -10.5t-14 -4q-12 0 -20.5 8.5t-8.5 19.5t8.5 20t20.5 9z" />
    <glyph glyph-name="udotbelow" unicode="&#x1ee5;" horiz-adv-x="690" 
d="M59 500h118q6 0 6 -6v-334q0 -72 33 -105.5t92 -33.5q93 0 211 73v360q0 11 -10 12l-73 6v28h119q6 0 6 -6v-452q0 -11 11 -11l60 -4v-26l-107 -6q-2 -1 -4 1t-2 5v65q-122 -76 -224 -76q-71 0 -112.5 41t-41.5 124v299q0 11 -11 12l-71 6v28zM345.5 -96q11.5 0 20 -8.5
t8.5 -20.5q0 -7 -3.5 -13.5t-10.5 -10.5t-15 -4q-11 0 -19.5 8.5t-8.5 19.5q0 12 8.5 20.5t20 8.5z" />
    <glyph glyph-name="Uhookabove" unicode="&#x1ee6;" horiz-adv-x="833" 
d="M407 1005q50 0 84 -25t34 -61q0 -29 -14.5 -47.5t-41.5 -33.5q-3 -1 -9 -4.5t-8.5 -5t-7 -4t-6.5 -4t-5 -4.5t-4 -5l-2.5 -5t-2 -6.5t-0.5 -7.5l-1 -15h-33l-1 17q0 6 0.5 11.5t3 10.5t4 8.5t6.5 7.5t6.5 6t8.5 6.5t9 5.5t10.5 5.5t10.5 5.5q20 11 30 23t10 35
q0 26 -22.5 42.5t-60.5 16.5q-34 0 -61 -16l-18 21q32 22 81 22zM764 670l-70 -6q-10 -1 -10 -11v-381q0 -127 -73 -204.5t-192 -77.5t-192 77.5t-73 204.5v381q0 10 -10 11l-65 6q-5 0 -5 5v25h220v-30l-81 -7q-10 -1 -10 -11v-380q0 -113 59.5 -179t158.5 -66
q100 0 162.5 66t62.5 179v379q0 11 -11 11l-87 8v30h216v-30z" />
    <glyph glyph-name="uhookabove" unicode="&#x1ee7;" horiz-adv-x="690" 
d="M340 794q33 0 60 -11.5t42.5 -31.5t15.5 -44q0 -29 -14.5 -47.5t-41.5 -32.5q-3 -2 -9 -5.5t-8.5 -4.5t-7 -4t-6 -4.5t-5 -4t-4.5 -5t-2.5 -5.5t-2 -6.5t-0.5 -7.5v-14h-34l-1 17q0 5 1 10t2 9t3.5 8.5t4.5 7t6.5 6t6.5 5.5t8 5.5t8 4.5t9.5 5t9.5 5q21 11 30.5 23.5
t9.5 34.5q0 26 -22.5 42.5t-59.5 16.5q-35 0 -62 -15l-18 21q32 22 81 22zM59 500h118q6 0 6 -6v-334q0 -72 33 -105.5t91 -33.5q94 0 212 73v360q0 11 -10 12l-73 6v28h119q6 0 6 -6v-452q0 -11 11 -11l60 -4v-26l-107 -6q-2 -1 -4 1t-2 5v65q-122 -76 -224 -76
q-71 0 -112.5 41t-41.5 124v299q0 11 -11 12l-71 6v28z" />
    <glyph glyph-name="Uhornacute" unicode="&#x1ee8;" horiz-adv-x="837" 
d="M427 777h-41l101 142h54zM753 832l26 16q36 -27 48 -62q6 -15 5.5 -30t-6 -28t-17 -25t-29.5 -20q-19 -9 -42 -11l-45 -4q-9 -1 -9 -11v-385q0 -127 -73 -204.5t-192 -77.5t-192 77.5t-73 204.5v381q0 11 -10 11l-65 6q-5 0 -5 5v25h220v-30l-81 -7q-10 -1 -10 -11v-380
q0 -113 59.5 -179t158.5 -66q100 0 162.5 66.5t62.5 178.5v379q0 11 -11 12l-87 7v30h191q10 2 22 7q23 11 30.5 31.5t-0.5 41.5q-10 31 -38 52z" />
    <glyph glyph-name="uhornacute" unicode="&#x1ee9;" horiz-adv-x="690" 
d="M356 577h-40l101 142h54zM591 639l24 14q39 -28 49 -67q9 -31 -3.5 -57.5t-47.5 -42.5q-24 -10 -52 -10v-434q0 -11 11 -11l60 -4v-26l-107 -6q-2 -1 -4 1t-2 5v65q-122 -76 -224 -76q-46 0 -80 17t-54 54.5t-20 93.5v299q0 11 -11 12l-71 6v28h118q6 0 6 -6v-334
q0 -72 33 -105.5t92 -33.5q94 0 211 73v360q0 11 -10 12l-73 6v28h112q26 -2 48 8q25 12 34 32t2 43q-10 32 -41 56z" />
    <glyph glyph-name="Uhorngrave" unicode="&#x1eea;" horiz-adv-x="837" 
d="M446 777h-41l-114 142h54zM753 832l26 16q36 -27 48 -62q6 -20 4.5 -39t-15 -36t-36.5 -28q-19 -9 -42 -11l-45 -4q-9 -1 -9 -11v-385q0 -127 -73 -204.5t-192 -77.5t-192 77.5t-73 204.5v381q0 11 -10 11l-65 6q-5 0 -5 5v25h220v-30l-81 -7q-10 -1 -10 -11v-380
q0 -113 59.5 -179t158.5 -66q100 0 162.5 66.5t62.5 178.5v379q0 11 -11 12l-87 7v30h191q10 2 22 7q23 11 30.5 31.5t-0.5 41.5q-10 31 -38 52z" />
    <glyph glyph-name="uhorngrave" unicode="&#x1eeb;" horiz-adv-x="690" 
d="M375 577h-41l-114 142h54zM591 639l24 14q39 -28 49 -67q9 -31 -3.5 -57.5t-47.5 -42.5q-24 -10 -52 -10v-434q0 -11 11 -11l60 -4v-26l-107 -6q-2 -1 -4 1t-2 5v65q-122 -76 -224 -76q-71 0 -112.5 41t-41.5 124v299q0 11 -11 12l-71 6v28h118q6 0 6 -6v-334
q0 -48 16 -80t43 -45.5t66 -13.5q94 0 211 73v360q0 11 -10 12l-73 6v28h112q26 -2 48 8q25 12 34 32t2 43q-10 32 -41 56z" />
    <glyph glyph-name="Uhornhookabove" unicode="&#x1eec;" horiz-adv-x="837" 
d="M407 1005q50 0 84 -25t34 -61q0 -29 -14.5 -47.5t-41.5 -33.5q-3 -1 -9 -4.5t-8.5 -5t-7 -4t-6.5 -4t-5 -4.5t-4 -5l-2.5 -5t-2 -6.5t-0.5 -7.5l-1 -15h-33l-1 17q0 6 0.5 11.5t3 10.5t4 8.5t6.5 7.5t6.5 6t8.5 6.5t9 5t10.5 5.5t10.5 6q20 11 30 23t10 35
q0 26 -22.5 42.5t-60.5 16.5q-34 0 -61 -16l-18 21q32 22 81 22zM753 832l26 16q36 -27 48 -62q6 -15 5.5 -30t-6 -28t-17 -25t-29.5 -20q-19 -9 -42 -11l-45 -4q-9 -1 -9 -11v-385q0 -127 -73 -204.5t-192 -77.5t-192 77.5t-73 204.5v381q0 11 -10 11l-65 6q-5 0 -5 5v25
h220v-30l-81 -7q-10 -1 -10 -11v-380q0 -113 59.5 -179t158.5 -66q100 0 162.5 66.5t62.5 178.5v379q0 11 -11 12l-87 7v30h191q10 2 22 7q23 11 30.5 31.5t-0.5 41.5q-10 31 -38 52z" />
    <glyph glyph-name="uhornhookabove" unicode="&#x1eed;" horiz-adv-x="690" 
d="M340 794q33 0 60 -11.5t42.5 -31.5t15.5 -44q0 -29 -14.5 -47.5t-41.5 -32.5q-3 -2 -9 -5.5t-8.5 -4.5t-7 -4t-6 -4.5t-5 -4t-4.5 -5t-2.5 -5.5t-2 -6.5t-0.5 -7.5v-14h-34l-1 17q0 5 1 10t2 9t3.5 8.5t4.5 7t6.5 6t6.5 5.5t8 5.5t8 4.5t9.5 5t9.5 5q21 11 30.5 23.5
t9.5 34.5q0 26 -22.5 42.5t-59.5 16.5q-35 0 -62 -15l-18 21q32 22 81 22zM591 639l24 14q39 -28 49 -67q9 -31 -3.5 -57.5t-47.5 -42.5q-24 -10 -52 -10v-434q0 -11 11 -11l60 -4v-26l-107 -6q-2 -1 -4 1t-2 5v65q-122 -76 -224 -76q-34 0 -62 9.5t-48.5 29.5t-32 52
t-11.5 74v299q0 11 -11 12l-71 6v28h118q6 0 6 -6v-334q0 -48 16 -80t43 -45.5t66 -13.5q94 0 211 73v360q0 11 -10 12l-73 6v28h112q26 -2 48 8q25 12 34 32t2 43q-10 32 -41 56z" />
    <glyph glyph-name="Uhorntilde" unicode="&#x1eee;" horiz-adv-x="837" 
d="M511 864l34 -7q-6 -28 -23 -45.5t-41 -19.5q-26 -3 -66 16q-7 4 -22.5 12t-25 12t-15.5 4q-9 1 -16.5 -8.5t-14.5 -35.5l-33 8q13 64 57 66q7 0 14.5 -1.5t17 -5.5t14 -6t16.5 -8t13 -7q37 -18 55 -16q23 3 36 42zM753 832l26 16q36 -27 48 -62q6 -20 4.5 -39t-15 -36
t-36.5 -28q-19 -9 -42 -11l-45 -4q-9 -1 -9 -11v-385q0 -127 -73 -204.5t-192 -77.5t-192 77.5t-73 204.5v381q0 11 -10 11l-65 6q-5 0 -5 5v25h220v-30l-81 -7q-10 -1 -10 -11v-380q0 -113 59.5 -179t158.5 -66q100 0 162.5 66.5t62.5 178.5v379q0 11 -11 12l-87 7v30h191
q10 2 22 7q23 11 30.5 31.5t-0.5 41.5q-10 31 -38 52z" />
    <glyph glyph-name="uhorntilde" unicode="&#x1eef;" horiz-adv-x="690" 
d="M440 664l34 -7q-5 -28 -22.5 -45.5t-41.5 -19.5q-26 -3 -65 16q-8 4 -23.5 12t-24.5 12t-16 4q-9 1 -16.5 -8.5t-13.5 -35.5l-34 8q13 64 57 66q7 0 14.5 -1.5t17 -5.5t14 -6t16.5 -8t13 -7q37 -18 55 -16q23 3 36 42zM591 639l24 14q39 -28 49 -67q9 -31 -3.5 -57.5
t-47.5 -42.5q-24 -10 -52 -10v-434q0 -11 11 -11l60 -4v-26l-107 -6q-2 -1 -4 1t-2 5v65q-122 -76 -224 -76q-71 0 -112.5 41t-41.5 124v299q0 11 -11 12l-71 6v28h118q6 0 6 -6v-334q0 -72 33 -105.5t92 -33.5q94 0 211 73v360q0 11 -10 12l-73 6v28h112q26 -2 48 8
q25 12 34 32t2 43q-10 32 -41 56z" />
    <glyph glyph-name="Uhorndotbelow" unicode="&#x1ef0;" horiz-adv-x="837" 
d="M753 832l26 16q36 -27 48 -62q6 -15 5.5 -30t-6 -28t-17 -25t-29.5 -20q-19 -9 -42 -11l-45 -4q-9 -1 -9 -11v-385q0 -127 -73 -204.5t-192 -77.5q-79 0 -139 35t-93 99t-33 148v381q0 11 -10 11l-65 6q-5 0 -5 5v25h220v-30l-81 -7q-10 -1 -10 -11v-380
q0 -113 59.5 -179t158.5 -66q100 0 162.5 66.5t62.5 178.5v379q0 11 -11 12l-87 7v30h191q10 2 22 7q23 11 30.5 31.5t-0.5 41.5q-10 31 -38 52zM416 -96q12 0 20 -9t8 -20q0 -7 -3.5 -13.5t-10.5 -10.5t-14 -4q-12 0 -20.5 8.5t-8.5 19.5t8.5 20t20.5 9z" />
    <glyph glyph-name="uhorndotbelow" unicode="&#x1ef1;" horiz-adv-x="690" 
d="M591 639l24 14q39 -28 49 -67q9 -31 -3.5 -57.5t-47.5 -42.5q-24 -10 -52 -10v-434q0 -11 11 -11l60 -4v-26l-107 -6q-2 -1 -4 1t-2 5v65q-122 -76 -224 -76q-46 0 -80 17t-54 54.5t-20 93.5v299q0 11 -11 12l-71 6v28h118q6 0 6 -6v-334q0 -72 33 -105.5t92 -33.5
q94 0 211 73v360q0 11 -10 12l-73 6v28h112q26 -2 48 8q25 12 34 32t2 43q-10 32 -41 56zM345.5 -96q11.5 0 20 -9t8.5 -20q0 -7 -3.5 -13.5t-10.5 -10.5t-15 -4q-11 0 -19.5 8.5t-8.5 19.5q0 12 8.5 20.5t20 8.5z" />
    <glyph glyph-name="Ygrave" unicode="&#x1ef2;" horiz-adv-x="682" 
d="M371 777h-41l-114 142h54zM654 670l-52 -5l-233 -414v-204q0 -10 10 -11l72 -6v-30h-211v24q0 6 5 6l66 6q11 1 11 11v197l-236 417q-3 4 -8 5l-45 4q-5 0 -5 5v25h88l233 -408l198 352q4 7 1 13t-11 7l-76 7q-5 0 -5 5v24h198v-30z" />
    <glyph glyph-name="ygrave" unicode="&#x1ef3;" horiz-adv-x="555" 
d="M310 577h-41l-115 142h54zM536 472l-55 -5l-262 -658q-2 -3 -5 -3h-121v28l98 8q6 0 8 6l59 148h-9l-184 465q-2 6 -8 7l-33 3q-5 1 -5 6v23h76l180 -462l163 410q3 6 -0.5 11.5t-10.5 6.5l-72 6q-5 0 -5 5v23h186v-28z" />
    <glyph glyph-name="Ydotbelow" unicode="&#x1ef4;" horiz-adv-x="682" 
d="M654 670l-52 -5l-233 -414v-204q0 -10 10 -11l72 -6v-30h-211v24q0 6 5 6l66 6q11 1 11 11v197l-236 417q-3 4 -8 5l-45 4q-5 0 -5 5v25h88l233 -408l198 352q4 7 1 13t-11 7l-76 7q-5 0 -5 5v24h198v-30zM343 -96q12 0 20.5 -9t8.5 -20q0 -7 -4 -13.5t-10.5 -10.5
t-14.5 -4q-12 0 -20.5 8.5t-8.5 19.5t8.5 20t20.5 9z" />
    <glyph glyph-name="ydotbelow" unicode="&#x1ef5;" horiz-adv-x="555" 
d="M536 472l-55 -5l-262 -658q-2 -3 -5 -3h-121v28l98 8q6 0 8 6l59 148h-9l-184 465q-2 6 -8 7l-33 3q-5 1 -5 6v23h76l180 -462l163 410q3 6 -0.5 11.5t-10.5 6.5l-72 6q-5 0 -5 5v23h186v-28zM308 -96q12 0 20.5 -9t8.5 -20q0 -7 -4 -13.5t-10.5 -10.5t-14 -4t-14.5 4
t-10.5 10.5t-3.5 13.5q0 11 8 20t20 9z" />
    <glyph glyph-name="Yhookabove" unicode="&#x1ef6;" horiz-adv-x="682" 
d="M350 1005q50 0 84 -25t34 -61q0 -29 -14.5 -47.5t-41.5 -33.5q-3 -1 -10.5 -5t-9 -5t-7 -4.5t-7 -5l-5 -5t-4 -6.5t-1.5 -7t-1 -8l-1 -15h-33l-1 17q0 6 0.5 11.5t3 10.5t4 8.5t6.5 7.5t6.5 6t8.5 6.5t9 5t10.5 5.5t10.5 6q20 11 30 23t10 35q0 26 -22.5 42.5t-60.5 16.5
q-34 0 -61 -16l-18 21q32 22 81 22zM654 670l-52 -5l-233 -414v-204q0 -11 10 -11l72 -6v-30h-211v24q0 6 5 6l66 6q11 0 11 11v197l-236 417q-3 4 -8 5l-45 4q-5 0 -5 5v25h88l233 -408l198 352q4 7 1 13t-11 7l-76 7q-5 0 -5 5v24h198v-30z" />
    <glyph glyph-name="yhookabove" unicode="&#x1ef7;" horiz-adv-x="555" 
d="M269 794q33 0 60 -11.5t42.5 -31.5t15.5 -44q0 -29 -14.5 -47.5t-41.5 -32.5q-3 -2 -9 -5.5t-8.5 -4.5t-7 -4t-6 -4.5t-5 -4t-4.5 -5t-2.5 -5.5t-2 -6.5t-0.5 -7.5v-14h-34l-1 17q0 5 1 10t2 9t3.5 8.5t4.5 7t6.5 6t6.5 5.5t8 5.5t8 4.5t9.5 5t9.5 5q21 11 30.5 23.5
t9.5 34.5q0 26 -22.5 42.5t-59.5 16.5q-35 0 -62 -15l-18 21q32 22 81 22zM536 472l-55 -5l-262 -658q-2 -3 -5 -3h-121v28l97 8q7 0 9 6l59 148h-9l-184 465q-2 6 -8 7l-33 3q-5 1 -5 6v23h76l180 -462l163 410q3 6 -0.5 11.5t-10.5 6.5l-72 6q-5 0 -5 5v23h186v-28z" />
    <glyph glyph-name="Ytilde" unicode="&#x1ef8;" horiz-adv-x="682" 
d="M436 864l34 -7q-6 -28 -23 -45.5t-41 -19.5q-27 -3 -66 16q-7 4 -22.5 12t-25 12t-15.5 4q-9 1 -16.5 -8.5t-14.5 -35.5l-33 8q13 64 57 66q7 0 14 -1.5t17 -5.5t14.5 -6t16.5 -8t13 -7q37 -18 55 -16q23 3 36 42zM654 670l-52 -5l-233 -414v-204q0 -10 10 -11l72 -6v-30
h-211v24q0 6 5 6l66 6q11 1 11 11v197l-236 417q-3 4 -8 5l-45 4q-5 0 -5 5v25h88l233 -408l198 352q4 7 1 13t-11 7l-76 7q-5 0 -5 5v24h198v-30z" />
    <glyph glyph-name="ytilde" unicode="&#x1ef9;" horiz-adv-x="555" 
d="M375 664l34 -7q-6 -28 -23 -45.5t-41 -19.5q-27 -3 -66 16q-8 4 -23 12t-24.5 12t-16 4.5t-11 -3t-9.5 -13.5t-10 -28l-34 8q14 64 58 66q6 0 13.5 -1.5t17 -5.5t14 -6t16.5 -8t13 -7q37 -18 56 -16q23 3 36 42zM536 472l-55 -5l-262 -658q-2 -3 -5 -3h-121v28l98 8
q6 0 8 6l59 148h-9l-184 465q-2 6 -8 7l-33 3q-5 1 -5 6v23h76l180 -462l163 410q3 6 -0.5 11.5t-10.5 6.5l-72 6q-5 0 -5 5v23h186v-28z" />
    <glyph glyph-name="endash" unicode="&#x2013;" horiz-adv-x="472" 
d="M425 231h-378v37h378v-37z" />
    <glyph glyph-name="emdash" unicode="&#x2014;" horiz-adv-x="688" 
d="M640 231h-593v37h593v-37z" />
    <glyph glyph-name="quoteleft" unicode="&#x2018;" horiz-adv-x="156" 
d="M107 725l20 -12q-33 -48 -41 -97q-4 -27 4 -42l2 -1q5 0 9.5 -3t7.5 -6.5t5 -8.5t2 -10q0 -12 -9 -20.5t-21 -9.5q-25 0 -34 27t-1 67q13 66 56 116z" />
    <glyph glyph-name="quoteright" unicode="&#x2019;" horiz-adv-x="156" 
d="M70 725q25 0 34 -27t0 -67q-13 -65 -55 -116l-20 13q33 48 41 97q4 26 -4 41l-2 1q-10 1 -17 9.5t-7 18.5q0 12 8.5 21t21.5 9z" />
    <glyph glyph-name="quotesinglbase" unicode="&#x201a;" horiz-adv-x="156" 
d="M70 54q25 0 34 -27t0 -67q-13 -65 -55 -116l-20 13q33 49 41 98q4 26 -4 40l-2 1q-10 1 -17 9.5t-7 18.5q0 12 8.5 21t21.5 9z" />
    <glyph glyph-name="quotedblleft" unicode="&#x201c;" horiz-adv-x="296" 
d="M107 725l20 -12q-33 -48 -41 -97q-4 -27 4 -42h2q7 -2 12 -6t8.5 -10t3.5 -13q0 -12 -9 -20.5t-21 -9.5q-25 0 -34 27t-1 67q13 66 56 116zM247 725l20 -12q-34 -49 -41 -98q-4 -26 4 -41l2 -1q10 -1 17 -9t7 -19q0 -12 -9 -20.5t-21 -9.5q-25 0 -34 27t-1 67
q13 66 56 116z" />
    <glyph glyph-name="quotedblright" unicode="&#x201d;" horiz-adv-x="296" 
d="M70 725q25 0 34 -27t0 -67q-13 -65 -55 -116l-20 13q32 46 40 95q5 27 -3 43l-2 1q-10 1 -17 9.5t-7 18.5q0 12 8.5 21t21.5 9zM210 725q25 0 34 -27t0 -67q-13 -65 -55 -116l-20 13q32 47 40 96q5 26 -3 42l-2 1q-10 1 -17 9.5t-7 18.5q0 12 8.5 21t21.5 9z" />
    <glyph glyph-name="quotedblbase" unicode="&#x201e;" horiz-adv-x="296" 
d="M70 54q25 0 34 -27t0 -67q-13 -65 -55 -116l-20 13q34 49 41 99q4 26 -4 39l-2 1q-10 2 -17 10t-7 18q0 12 8.5 21t21.5 9zM210 54q25 0 34 -27t0 -67q-13 -65 -55 -116l-20 13q32 46 40 96q5 26 -3 42h-2q-10 2 -17 10.5t-7 18.5q0 12 8.5 21t21.5 9z" />
    <glyph glyph-name="dagger" unicode="&#x2020;" horiz-adv-x="509" 
d="M275 500h186v-37h-186l3 -561h-47l3 561h-187v37h187l-3 215h47z" />
    <glyph glyph-name="daggerdbl" unicode="&#x2021;" horiz-adv-x="509" 
d="M275 500h186v-37h-185l-1 -309h186v-37h-185l2 -215h-47l2 215h-186v37h187l-2 309h-185v37h187l-3 215h47z" />
    <glyph glyph-name="bullet" unicode="&#x2022;" horiz-adv-x="247" 
d="M123.5 350q31.5 0 54 -22.5t22.5 -54.5t-22.5 -54.5t-54 -22.5t-54 22.5t-22.5 54.5t22.5 54.5t54 22.5z" />
    <glyph glyph-name="ellipsis" unicode="&#x2026;" horiz-adv-x="462" 
d="M76.5 54q12.5 0 21.5 -9t9 -21t-9 -21t-21 -9q-8 0 -15 4t-11 11t-4 15q0 12 8.5 21t21 9zM230 54q13 0 21.5 -9t8.5 -21t-8.5 -21t-21 -9t-21 9t-8.5 21q0 6 2 11.5t6 9.5t9.5 6.5t11.5 2.5zM384.5 54q12.5 0 21 -9t8.5 -21t-8.5 -21t-21 -9t-21 9t-8.5 21t8.5 21t21 9z
" />
    <glyph glyph-name="perthousand" unicode="&#x2030;" horiz-adv-x="1277" 
d="M283 -17h-44l361 734h44zM204.5 706q71.5 0 114.5 -56.5t43 -149.5t-43 -149.5t-114.5 -56.5t-114.5 56.5t-43 149.5t43 149.5t114.5 56.5zM204 677q-33 0 -59 -20.5t-41.5 -61t-15.5 -95.5q0 -82 32.5 -129.5t83.5 -47.5t84 47.5t33 130t-33 129.5t-84 47zM685 406
q71 0 114 -56.5t43 -149.5t-43 -149.5t-114 -56.5t-114 56.5t-43 149.5t43 149.5t114 56.5zM1073 406q71 0 114 -56.5t43 -149.5t-43 -149.5t-114 -56.5t-114 56.5t-43 149.5t43 149.5t114 56.5zM685 377q-51 0 -84 -47.5t-33 -129.5t33 -129.5t84 -47.5t84 47.5t33 129.5
t-33 129.5t-84 47.5zM1073 377q-51 0 -84 -47.5t-33 -129.5q0 -41 9 -75t25 -56t37 -34t46 -12q51 0 84 47.5t33 129.5t-33 129.5t-84 47.5z" />
    <glyph glyph-name="guilsinglleft" unicode="&#x2039;" horiz-adv-x="259" 
d="M96 251l133 -174h-44l-138 175l138 174h44z" />
    <glyph glyph-name="guilsinglright" unicode="&#x203a;" horiz-adv-x="259" 
d="M212 252l-139 -175h-43l133 174l-133 175h43z" />
    <glyph glyph-name="fraction" unicode="&#x2044;" horiz-adv-x="495" 
d="M90 -17h-45l361 734h44z" />
    <glyph glyph-name="zerosuperior" unicode="&#x2070;" horiz-adv-x="405" 
d="M202.5 746q71.5 0 114.5 -56t43 -147t-43 -147t-114.5 -56t-114.5 56t-43 147t43 147t114.5 56zM202.5 719q-52.5 0 -85 -47t-32.5 -129t32.5 -129t85 -47t85 47t32.5 129t-32.5 129t-85 47z" />
    <glyph glyph-name="foursuperior" unicode="&#x2074;" horiz-adv-x="305" 
d="M51 466h131l2 166q0 5 5 5h27v-171h57v-25h-57v-62q0 -8 9 -9l38 -3v-22h-134v17q0 5 5 5l36 3q9 1 9 10v61h-169v19l129 280h39z" />
    <glyph glyph-name="fivesuperior" unicode="&#x2075;" horiz-adv-x="307" 
d="M261 714h-156l-13 -149q24 10 55 10q58 0 93 -32t35 -85q0 -58 -38 -88.5t-94 -30.5q-51 0 -103 26q-4 2 -4 7v68h29l4 -52q0 -5 5 -7q33 -15 67 -15q42 0 67.5 22.5t25.5 70.5q0 43 -24.5 66.5t-67.5 23.5q-39 0 -67 -23l-24 12l18 202h192v-26z" />
    <glyph glyph-name="sixsuperior" unicode="&#x2076;" horiz-adv-x="328" 
d="M201 746q42 -1 81 -23l-14 -25q-37 21 -66 22q-46 1 -78.5 -41.5t-36.5 -120.5v-5q32 44 94 41q56 -1 89 -37.5t31 -92.5q-2 -57 -34.5 -91t-84.5 -32q-65 1 -102.5 58.5t-34.5 148.5q3 93 47.5 146t108.5 52zM178 568q-37 1 -61 -19.5t-30 -60.5q8 -56 34 -88t63 -33
q35 -1 56.5 24.5t23 73t-22 75t-63.5 28.5z" />
    <glyph glyph-name="sevensuperior" unicode="&#x2077;" horiz-adv-x="295" 
d="M286 740v-22q-48 -60 -95 -166q-44 -102 -65 -207h-41q21 107 70 216q35 79 78 141q2 4 0 8t-6 4h-150q-9 0 -9 -9l-4 -43h-28v73q0 5 5 5h245z" />
    <glyph glyph-name="eightsuperior" unicode="&#x2078;" horiz-adv-x="349" 
d="M176 746q56 0 90.5 -29.5t34.5 -75.5q0 -21 -7.5 -39.5t-22.5 -32t-36 -21.5q35 -12 54 -37.5t19 -60.5q0 -49 -36.5 -79.5t-95 -30.5t-95 30.5t-36.5 79.5q0 35 19 60.5t54 37.5q-32 12 -49 36.5t-17 56.5q0 31 15.5 54.5t44 37t64.5 13.5zM176 720q-26 0 -45 -9.5
t-29.5 -27.5t-10.5 -43q0 -37 22.5 -57.5t63 -20.5t63 20.5t22.5 58t-23 58.5t-63 21zM176 535q-43 0 -67 -22t-24 -62t24 -62.5t67 -22.5t67.5 22.5t24.5 62.5q0 27 -11 46t-31.5 28.5t-49.5 9.5z" />
    <glyph glyph-name="ninesuperior" unicode="&#x2079;" horiz-adv-x="333" 
d="M154 746q66 -2 103.5 -59t34.5 -148q-3 -94 -47.5 -147t-108.5 -51q-41 -1 -81 23l13 24q37 -21 66 -21q47 -1 79.5 41t36.5 121v5q-33 -44 -95 -42q-55 2 -88 38t-31.5 92.5t34.5 91t84 32.5zM153 720q-35 1 -56.5 -25t-23 -73t21.5 -74.5t64 -28.5q37 -2 61 19t30 60
q-4 23 -10 42t-15 33.5t-20 24.5t-24 15.5t-28 6.5z" />
    <glyph glyph-name="zeroinferior" unicode="&#x2080;" horiz-adv-x="405" 
d="M203 250q71 0 114 -56t43 -147t-43 -147t-114 -56q-48 0 -84 25.5t-55 71.5t-19 106t19 106t55 71.5t84 25.5zM203 223q-35 0 -61 -20.5t-41.5 -60.5t-15.5 -95t15.5 -95t41.5 -60t61 -20q52 0 84.5 46.5t32.5 128.5t-32.5 129t-84.5 47z" />
    <glyph glyph-name="oneinferior" unicode="&#x2081;" horiz-adv-x="239" 
d="M147 245v-360q0 -9 8 -9l39 -3v-23h-137v18q0 5 5 5l37 3q8 0 8 10v307q0 4 -3 6t-7 -1l-46 -31l-16 23l79 55h33z" />
    <glyph glyph-name="twoinferior" unicode="&#x2082;" horiz-adv-x="310" 
d="M161 251q30 0 55.5 -11t37.5 -30q45 -70 -55 -206q-37 -50 -113 -128h148q9 0 10 9l3 43h27v-78h-238v19l1 3q89 91 130 147q86 118 54 175q-18 30 -61 30q-29 0 -51 -14t-31 -43l-37 6q10 36 45 57t75 21z" />
    <glyph glyph-name="threeinferior" unicode="&#x2083;" horiz-adv-x="325" 
d="M155 250q49 0 83.5 -26.5t34.5 -73.5q0 -30 -18 -53.5t-49 -35.5q35 -12 54.5 -38.5t19.5 -63.5q0 -38 -20 -65t-49.5 -38.5t-64.5 -11.5q-63 0 -111 32l15 22q44 -27 93 -27q43 0 69.5 21.5t26.5 67.5q0 42 -24 65t-68 23h-42v26h42q41 0 63.5 19.5t22.5 54.5
q0 26 -11 43.5t-29 25t-41 7.5q-35 0 -66 -19q-4 -2 -4 -7l-5 -55h-27v70q0 2 2 4q44 33 103 33z" />
    <glyph glyph-name="fourinferior" unicode="&#x2084;" horiz-adv-x="331" 
d="M77 -29h130l3 166q0 5 5 5h27v-171h56v-25h-56v-61q0 -10 9 -10l38 -3v-22h-134v17q0 5 5 5l36 3q8 0 8 10v61h-169v20l130 279h39z" />
    <glyph glyph-name="fiveinferior" unicode="&#x2085;" horiz-adv-x="315" 
d="M270 218h-157l-13 -149q25 11 56 11q38 -1 67 -15t44.5 -40.5t15.5 -61.5q0 -58 -38 -88.5t-94 -30.5q-50 0 -102 25q-5 2 -5 8v68h30l4 -52q0 -5 5 -8q32 -14 67 -14q41 0 67 22.5t26 69.5q0 43 -24.5 66.5t-67.5 23.5q-40 0 -67 -23l-24 12l18 203h192v-27z" />
    <glyph glyph-name="sixinferior" unicode="&#x2086;" horiz-adv-x="328" 
d="M201 251q42 0 81 -23l-14 -25q-37 21 -66 22q-46 1 -78.5 -41.5t-36.5 -120.5v-5q32 44 94 42q56 -2 89 -38.5t31 -92.5t-34.5 -90t-84.5 -33q-65 1 -102.5 58.5t-34.5 148.5q3 93 47.5 146t108.5 52zM178 73q-37 1 -61 -19.5t-30 -59.5q8 -57 34 -89t63 -33
q35 -1 56.5 24.5t23.5 73.5q1 47 -22.5 74.5t-63.5 28.5z" />
    <glyph glyph-name="seveninferior" unicode="&#x2087;" horiz-adv-x="295" 
d="M286 245v-22q-48 -60 -95 -167q-44 -101 -65 -206h-41q22 109 70 216q35 79 78 141q2 4 0 8t-6 4h-150q-9 0 -9 -10l-4 -43h-28v74q0 5 5 5h245z" />
    <glyph glyph-name="eightinferior" unicode="&#x2088;" horiz-adv-x="353" 
d="M176.5 250q55.5 0 90 -29t34.5 -75q0 -22 -7.5 -40.5t-22.5 -31.5t-36 -21q35 -12 54 -38t19 -61q0 -48 -36.5 -79t-95 -31t-95 31t-36.5 79q0 35 19 61t54 38q-32 12 -49 36t-17 57q0 46 34.5 75t90 29zM176 224q-26 0 -45 -9t-29.5 -27t-10.5 -43q0 -38 22.5 -58.5
t63 -20.5t63 20.5t22.5 58t-23 58.5t-63 21zM176.5 39q-43.5 0 -67.5 -21.5t-24 -61.5t24 -62.5t67.5 -22.5t67.5 22.5t24 62.5t-24 61.5t-67.5 21.5z" />
    <glyph glyph-name="nineinferior" unicode="&#x2089;" horiz-adv-x="337" 
d="M154 251q66 -2 103.5 -59t34.5 -148q-3 -94 -47.5 -147t-108.5 -51q-40 0 -81 23l13 24q38 -21 66 -21q47 -2 79.5 41t36.5 121v5q-32 -44 -95 -42q-55 2 -88 38.5t-31.5 92.5t34.5 90.5t84 32.5zM153 225q-35 1 -56.5 -25t-23.5 -73q-1 -24 5 -43t17.5 -32t27.5 -20.5
t36 -7.5q37 -2 61 19t30 61q-6 37 -19.5 64t-33.5 41.5t-44 15.5z" />
    </font>
</defs>
</svg>
